<svg xmlns="http://www.w3.org/2000/svg" xmlns:xlink="http://www.w3.org/1999/xlink" viewBox="0 0 255.85 122.92"><defs><symbol id="Nuevo_símbolo_10" data-name="Nuevo símbolo 10" viewBox="0 0 255.85 122.92"><path d="M37.05,27.73C28.57,31.21,31.83,34.79,25.7,35c4.45,2.25,5.17-.54,9.27-1.73A20.22,20.22,0,0,1,49,27.22a20.28,20.28,0,0,1,14.09,6.07c4.85.9,5.68-1.72,9.35,1.71h0c-1.76-5.4-4.73-2.74-9.39-6.39-.2-.16-.41-.33-.62-.52L62.33,28l-.42-.4L74.4,25.31,61.12,22.9c8.48-3.49,5.22-7.07,11.35-7.27h0c-5.48-2.78-5.28,2.11-12.71,2.22L67,7.41,55.89,15.09c3.53-8.45-1.3-8.69,2.88-13.16-5.49,1.79-2.63,4.84-6.59,9.64-.19.23-.41.48-.64.72l-.18.2L49.09,0,46.67,13.27C43.19,4.79,39.61,8.05,39.4,1.93c-2.78,5.48,2.11,5.27,2.23,12.71L31.19,7.41l7.68,11.1c-8.46-3.53-8.69,1.3-13.17-2.88,1.69,5.17,4.49,2.94,8.81,5.95.16.11.33.23.49.36A15,15,0,0,1,36.26,23L23.78,25.31Z" style="fill:#ffdc00"/><path d="M26,16.9" style="fill:#ffdc00"/><path d="M81.24,87.46l-1.5,3.31.08-.9.26-.86.41-1.08Zm-2,3.35-.27,1v-.56l.08-1.37-.38-1.77-.11-2L79.26,88l.15.69.11.93Zm-9.63,9.62-.33.89-.34.9-.52.87-.64.61-.37.18.41-.72.37-.61.53-.72.33-.83.56-1.19Zm-2.58,3.22-.24.53-.13.06-1.2.72-1.61.9,0,0-.07.08.37-.47.23-.36.67-.94.93-1.51.79-1.11.49-1.09.75-1.8.12.88-.35,1.26-.37.82v.57ZM61.59,106l0,.82-.86.44.11-.62.26-.54.34-.57.19-.33Zm-6.39-.11a27.79,27.79,0,0,1-3,2.52l-.41.29-.33.17.33-.71.86-1.55.68-1.26.63-.86.9-.51s.82,1.44.34,1.91m-1.26,8,1,.29,0,.11,0,.07c-.3.79-1,2-1.05,2.16s0,.5-.19.65l-.17.1-.09-.18c-.56-1.18-1.41-2.57-2-4.07l.13,0Zm-6.45-.47-.3.9-.75,1.26-.86,1.47-1.09,1.48-1,.72-.31-.83-.44-1.3-.3-1-.19-.72-.17-.88.43-.13.75-.07,1-.07.67,0,.31-.39h.56l.71-.33,1.19-.6ZM46,109.11c-1.71-1.35-2.71-2.13-3-4.2a17.38,17.38,0,0,1,3,3.76l.26.61ZM30.7,103.47l-.5-.17-.64-.38-.78-.36-.46-.1-.53-.1-.44-.78-.31-.35-.35-.2.14-.6.51-.67.64-1,.25-.79v0h0V98l.06.61.49.9.24.77.12.49.52.72.23.37L32,104l1.79,1.62-1.69-1Zm-4.9-3.29-.63-.59L24.76,99,24,98.09l-.38-.65V97l.17-.81v0a1,1,0,0,0,.55.18,1.11,1.11,0,0,0,.9-.4l0,.28.1,1,.24,1.14,0,.21.15.74.4.71,0,.46ZM23.33,97l0,.44h-.15L23,96.36l.11-.64.22-.12a1.19,1.19,0,0,0,.25.47l-.18.43Zm-.76-1-.4.48,0-.48L22,95.79l-.4-.68-.6-.82-.2-.23.28-.51.32-.73.24-.29.22.08,0,.18.4.44,0,.85.27.7.1.62Zm-2.11-2.57-.7-1-.88-1.56-.39-.68.05-.19.35-.71.09-.16v0l.18.6.23.39,0,.34.29.36.47.92.33.92ZM11.77,71.18l-.19-.92.12-.64.35-1,0,.61,0,.65-.23,1.08Zm.87-1.36.29-.61.65-.88-.17.68-.32.35-.13.21-.06.55-.23.39,0,1-.19.65-.12.45-.17.41L12,72l.1-.39.19-.8ZM87,54.56v.11l0-.57-.23-.69-.3-.68-.07-.51,0-.89.28-.81.12,0a1,1,0,0,0,.71-.1c-.31,1.16-.14,2.32-.39,3.52Zm-1-3.31V50.17c0-.14,0-.27.07-.41a1.15,1.15,0,0,0,.36.61l-.13.31Zm-1.16-.9-.3-.47-.3-.5L84,48.91l-.26-.29.51.32,0,0,.47.63.27.78ZM89,73.86l-.71.93-.6.87-.49.57-.33.36.07-.47.11-.61.15-.36.23-.36.11-.32,0-.68V73l.33-.39.34-.51.41-.43.3-.3h0a1.71,1.71,0,0,0,2.25-.21c.75-.65,1-1.59.48-2.09a1.66,1.66,0,0,0-2.24.22,1.68,1.68,0,0,0-.64,1.8l-.15.14-.33.36-.42.47-.33.54-.12,0V72.2l.19-.68.34-.9.41-.72.11-.59.22-.35c1-.83,1.43-1.55,2.78-1.8,2.85-.79,4.64-3.57,6.51-6.57-4.87,1-5.82,4.5-7.45,5.74l-1.33,1.54,0-.2.15-.44.41-.68.64-.65.78-.83c.83-1.08,1.84-2.19,2.59-3.34,1.49-2.74,1.65-4.47,2.28-7.38a32.4,32.4,0,0,0-4.83,7.09l-.64,1.12c-.22.61-.48,1.22-.67,1.83l-.33.79-.31.69-.11.36L89,66.8l-.11.54-.12.47-.18,0,.07-.62v-.36l.11-.5.34-.68.34-.76.71-2.05.37-1.05.34-1.29L91.27,59l.3-1.51.15-1.29v-.9l.19-1.48.07-1-1,1.65-.6,1.26-.57,1.08-1,2.58,0-.42-.34-.69v0l-.08-.72.3-1v0h0c.56.07,1.23-.47,1.57-1.26s.15-1.84-.45-2-1.38.29-1.76,1.19a1.67,1.67,0,0,0,.34,2v0l-.16.38-.17.48-.07.16-.28-.64-.53-.9,0-.07v-.29l.48-1.08c2.66-4.35,4.57-7.59,4-12.74-1,2.46-2.46,4.73-3.47,7.19a1,1,0,0,0-.69-.64,1.09,1.09,0,0,0-1.16.53c.28-1.52.62-3,.79-4.56.33-3.19-1.28-8.88-1.31-9-.6,3-1.72,8-1.42,8.74l.15.61-.3-.35c-1.24-2.85-2.85-5.51-4-8.39a3.81,3.81,0,0,1,.15-.61A12.59,12.59,0,0,0,81.09,28l-.23-2.27c-.49,2.24-1.38,4.3-1.3,6.69,0,1.24.21,2.45.22,3.65a36,36,0,0,0-.63-3.81c-.62-2.15-2-3.29-3.32-4.84a21.24,21.24,0,0,0,1.23,3.71c.63,1.39,1.46,2.54,2,4a13,13,0,0,1,.52,1.6c-.86-1.66-2-3.62-3.6-4.38-1-.46-.72-.69-1.72-1.18.64.9,1.21,2.18,1.89,3a5,5,0,0,0,1.74,1.32,7.4,7.4,0,0,1,1.21,1.05A5.76,5.76,0,0,0,79.76,38l.09.09,0,1-.32-.33c-.13-.92-.19-1.24-1-1.57-1.53-.56-1.06,1.83.26,2.06a1.59,1.59,0,0,0,.75-.25l.32.36v.1l0,.76L80,41.28,80.6,43l.11.62-1-1-1.43-1.12-1.12-.68-1.91-1.33L76.75,42l1.49,2.27-.59-.11-2.74-.9-2.84-.82A23,23,0,0,0,83,49.13a7.54,7.54,0,0,1,.86.57l1,.94.32.1L85.58,52l-.6-.25-.71-.22a1.66,1.66,0,0,0-1.72-1.08c-.94,0-1.72.58-1.72,1.3a1.58,1.58,0,0,0,1.72,1.33,1.66,1.66,0,0,0,1.75-1.24l.27.08.71.29.6.54.56,1.16.11.83-.18-.29-.5-.64-.39-.48L85,52.89l.25,1.1.12,1,.15.9.3,1,.33,1.11,0,.26-.56-.87c-1-1.44-2.25-2.55-3.34-3.92a69.38,69.38,0,0,0,2.07,6.66l.24.68A54.84,54.84,0,0,0,80,56a24.58,24.58,0,0,0,3.22,6.8l.71,1,.11.11-.93-.36-1.8-1-2.13-1.08-1.54-.47.64,1.08.71,1,.68.76.86.75.71.58.93.36,1.05.61,1.24.4.35.26,2.2,1.77.07.09.22,1.11-.22.51,0,.43v1.15l-.19.76h-.07l-.08-.4-.15-.5-.22-.68L86,70.47l-.34-.65-.49-.75-.6-.72-.34-.4-.59-.68L83,66.69l-.75-.39-.6-.43-.82-.62-.56-.43-.64-.5-.6-.51L78.24,63l.12.43.37.61.23.54.41.72.71,1.37.45.75.56.76.52.65.53.68.63.79.53.76.56.61.6.61.6.76.67.61.6.68,0,.73-.11.9-.06.47L86,75.91l-.15-.61-.38-.76-.6-.9-.56-.79-.71-.79L83,71.52l-.45-.4-.67-.47-.79-.57-.56-.33-.9-.46L79.07,69l-.67-.43L77.72,68l-.37-.21.33.5.34.69.56,1,.53.94.67.79.6.76.94.86.63.51,1,.72,1,.54.3.21.93.58.38.36.38,1,0,.16-.16.5-.37.83-.19-.47-.22-.43-.26-.4v-.1a1.87,1.87,0,0,0-.49-1.77c-.64-.72-1.53-.9-2.06-.39a1.67,1.67,0,0,0,.22,2.16c.64.72,1.58.9,2.07.39l.07-.07.26.33.23.53.18.62-.11,1-.3.29-.22.36-.08.75-.26.58-.67,1.4-1.31,2.7v-.32l.46-1.3.18-1.11V81.13l-.07-1.08L82.59,79l-.41-1.3-.45-1.11-.38-1.12v1.15l-.07,1L81.05,79l-.3,1.51-.18,1.23-.11.69-.16-.66-.18-.75-.53-1.55-.52-1.69-.56-1.77-.41-1.4-.08,3L77.91,80V82.1l-.23.94a22.87,22.87,0,0,1-2.84-5.76l-.11.82a28,28,0,0,0,.67,6.63,9.59,9.59,0,0,0,2.81,4.93l.45.86v.69l-.12.79-.71.61-.15.61-.07-.86-.19-.43-.22-.45a2.13,2.13,0,0,0-2.59-2.79,1.71,1.71,0,0,0,0,2.34,1.83,1.83,0,0,0,2.29.72s.18.18.18.18l.23,1.26-.19.61-.26.79-.38.18.11-.43.16-.94.07-1a34,34,0,0,1-3.33,4.39l-.94,1.3.15-.68c.83-2.81.64-5.55.86-8.39a59.19,59.19,0,0,0-2.8,5.86l-.38.83.11-.93c.12-1.62,0-3.21,0-4.79l0-1.37-.37,1.08a28.74,28.74,0,0,0-2.55,6.19l0,.65-.59.72-1,1.19-1,1.29V99a31.76,31.76,0,0,0,.6-6.59c-1.16,2.59-2.76,4.93-3.37,7.67l-.11.86-.15,1.55-.07,0,0-.51c-.37-2.45-1.5-4-1.61-7.38a19.54,19.54,0,0,0-.71,6.52c.15,2.45,1,3.78.9,4.68l-.21,1.41,0,0-1,.68-1.49.65-.71.32-.86.22-.29-.11.56-.47a10.18,10.18,0,0,0,2.14-2c.52-.69.41-3.38-.38-3.93a8.6,8.6,0,0,1-2-2c-.19-.29-.34-.29-.71-.22s-3,.79-4.27,1.12c-.34.11-.56.29-.6.54-.41,2-.86,3.92-1.39,5.68l0,2.09-.42-.13.11-1.25a6.14,6.14,0,0,0-2-4.8,9.9,9.9,0,0,1-1.66-2.1A2.77,2.77,0,0,0,43,100.15c-.81.07-.73.1-1.28.68a6,6,0,0,1-2.55,1c-.31,0-.34.2-.31.4.12,1.32-.07,3.65.12,4.26a8.24,8.24,0,0,0,2.16,2l.42.49h-.1c-1-.6-2.29-1-3.41-1.51l0-.5.12-.77.07-.91-.13-.61.07-.54-.09-.58-.06-.67L38,102l-.14-.74-.12-.49-.13-.64-.23,0-.07-.36-.36-.73-.39-.47-.28-.15-.37-.73-.58-.06L34.8,97l-.26-.34-.6-.3-.15-.5L33,95.36l-.49-.83-.64-.73L31.13,93l.29,1.17,0,1,0,.87v.22h0l-.27-.52-.22-.38-.29-.3-.45-.43v0L30,94.43l-.37-.37-.19-.45-.54-.09L29,93l-.24-.74,0-.61-.22-.77-.07-1-.35.26-.15.49-.29.38-.39.19L27,91.6l0,.64-.13.32-.2.27-.16.35-.29.52-.18.39-.5.54,0,.39a1.16,1.16,0,0,0-.89-.91l.24-.42.27-.18.25-.5.23-.32-.05-.31.26-.12.3-.66.29-.59-.08-.38-.07-.46,0-.2.15-.57.07-.89.05-.71.1-.91,0-.45-.07-.51-.24-.53-.14-.52,0-.38-.26-.36-.07-1-.51.68-.36.52-.74.39-.33.31-.1-.35-.05-.38-.15-.49-.43-1.46L23,81l.09-1.22-1.1,1-.82.83-.71.63-.47.89-.18.28-.3-1,.08-.37-.14-.7-.11-.53-.25-.67-.19-.46-.42-1-.29-.57-1.07-2.39-.42,1-.54.69-.05.66-.24.72-.05.73-.18.79.07.75v1.21l-.08,1,0,1.13v.66c0-.14-.09-.28-.14-.42l-.8-2.41v0h0l-.53-1.62-.23-.74,0-.14L14,79l.22-.83.12-.49.15.06a1,1,0,0,0,.34,0,1.32,1.32,0,0,0,1.38-1.23,1.4,1.4,0,0,0-2.77,0,1.16,1.16,0,0,0,.65,1l0,.23-.23.61-.15.58v.17l-.74-2.44-.4-1.89-.17-.8.28-.79.35-.43.81-.18.64-.4,1-.75.8-.83v0l.42-.34.6-.83.37-.83.49-1.26.27-1,.05-1.26c0-.55.2-1.72.19-1.71v0a2.74,2.74,0,0,0,.05-.32s-.1,0-.1,0l-.6.5-.43.43-.56.4-.38.39.32-.64.66-1.66.35-1.76.26-1.37.25-.89.12-.36.11-.36-.33.19-.57.34-.8.64-.26.34-.46.32-.34.38h-.27l-.35.37-.16.36H14.9l-.61.4-.29.22-.44.5L13,60.87l-.5-1.21-.15-.85.23-.25.26-.25h.51a1.31,1.31,0,0,0,2.52-.51,1.31,1.31,0,1,0-2.62,0s0,0,0,0a.24.24,0,0,0-.15.05l-.17.07-.28.17-.41.4-.31-.8L11.24,56l-.44,1.31v-.51l0-.79.14-.68.55-.8.38-.32,1.27-.11.92-.39.73-.29.68-.33.83-.28.58-.26,1-.75L19.11,51l1-1.08.52-.94.51-.76L22,47l.38-.61.62-.76-1.3.43-.76.11-.69,0-.44,0-.76.36-.58,0-.83.25-.92.25-.42.39-.27.08-.52.68-.44.11a3.64,3.64,0,0,1-.52.5.91.91,0,0,0-.31.25l-.31.4-.2.25,0,.22-.17.21-.24.08-.27.57-.24.18-.18.22-.41.68-.14.65-.24.61,0,.32-.62.76.21-1,.17-.54.34-.64.21-.83.58-.83.52-.58.61-1,.28-.72.45-.57.07-.94.13-1.3-.12-.63h0l.59-.4.08,0h0a1.35,1.35,0,0,0,2.62-.44,1.35,1.35,0,0,0-2.7,0,.49.49,0,0,0,0,.21l-.6.41h0l.18-1.35-.31-.83-.14-.4.12-.07.4-.17.64-.07L16,41.3l.5.09.6.11.65-.15.33.09.43-.19.61-.18.48,0,.52-.09.49-.13.64-.15.47-.48.55-.13.35-.4.52-.24.33-.49.46-.26.46-.21.26-.18-.59-.19-.49-.37-.39-.21-.22-.2-.36-.11-.45,0L22,37.15l-.43.07-.3,0L21.06,37l-.33-.11-.42,0H19.8L19,37l-.7.2-1,.29-.38.24-.67.4.45-.61.73-.94,1.22-.72.31-.24.66-.4.25-.42.44-.09L21.61,33l.86-1.46.87-1.92.52-1.49.71-.93-.76.28-.86.29-.24.2-.32.39-.37.11-.68.51-.8.25-.08.25-.4.09-.42.47-.47.23-.28.11,0,.17-.46.2-.06.39-.62.43.06.51-.14.3-.37.39-.26.56-.12.25.09.44-.28.35-.11.33-.05.21-.21.38.08.61L16.3,37l-.4,1-.32,0,0,0,.26-.51L16,37l.11-.24.11-.58V34.8l.22-.68.08-1-.15-.35V32.4l-.22-.24L16,31.54l-.08-.28-.56-.34-.45-.38-.14-.38-.19.59-.49.34-.11.21-.26.34-.15.41.08.59-.22.55,0,.72.11.27-.07.76.1,1,.3.49V37l.53.69.39,1.43-.28.52-.22.59-.32.45-.07.2V39.16l-.08-.54-.14-.76-.4,1-.13.65-.34.9-.14.36-.27.32-.17.58L12,42l-.1.43-.24.29-.1.68-.21.47-.07.4-.24.61-.07.57-.1.9.21.54-.14.36-.16.65.21.76v.64l.23.9.24.44.22.64-.06.54-.34.83-.34.83-.17.94-.35.86-.3-.83.2-.9v-.68l.14-.76.14-.57.23-.69V50l-.12-1-.21-.79L10.11,47l-.31-.68-.31-.47-.2-.72L8.8,44l-.43-.79-.61-1v0l-.27-.69,0-.21,0,0,0-.13,0,.83-.1,1.08-.21.46L7,43.87l-.23.33v.36l.16.36,0,.29,0,.39-.09.26v1.25l.1.29-.1.26v.17l.09.33.07.18-.12.93.12.22v.18l.24.4v.68l0,.4.45.54.11.43.34.83.45.54L9,54l.59.33.24.65.24.61V57l.29,1.23-.05.24-.25-.39-.49-.36-.1,0a1,1,0,0,0,.23-.77,1.36,1.36,0,0,0-1.31-1.34,1.41,1.41,0,0,0,0,2.81A1.22,1.22,0,0,0,9.32,58l.1.06.45.25.19.33.09.19a2.18,2.18,0,0,0-.14.66l-.36.11v.8l-.25.06-.31,1.37L9,62.32l0,.41,0,.34-.65-1-.48-.94L7,60.32l-.74-.72-.68-.68L5,58.42,4.81,58l0-.08-.28-.21-.35-.19-.31-.29-.52-.1-1.16-1-.07.58.11.94L2.36,59l.53.76,0,.29.19.39,0,.72.15.54,0,.29.45.47.18.43-.11.47.34.47.07.19-.63-.14-.37-.06-.54,0-.47,0-.44-.14-.52-.24L0,63l.07.36.38.76.33.79v.21l.55.81.67.78.67.78.63.64.35.61.31.13.26.4.36.27.31.13.33.22.43.38L6,70.6l.42.3.68.22.27.26.12.15.37.2.27.26.48.38.38,0,.68.29.65.15.63.66.44.43L12,76.61l-.4-.32-.33-.51a1,1,0,0,0,.22-.65A1.28,1.28,0,0,0,10.15,74a1.22,1.22,0,1,0,0,2.41,1.3,1.3,0,0,0,.87-.29l.29.25.38.36.37.51.15.29.52,2.25.53.82.16.51L13,80.67l-.72-.54L11.73,80l0,0c0-.07,0-.18,0-.25a1.32,1.32,0,0,0-1.38-1.22,1.23,1.23,0,1,0,0,2.44,1.41,1.41,0,0,0,1.2-.63l.18.06.63.43.79.54.47.43.07.16.57,2.38,1,2.52-.57-.72-.59-.69-.37-.6-.43-.25-.61-.91L12.22,83l-.52-.14-.56-.51-.59-.15-.45-.5-.48-.08-1.07-.79-.49,0-.89-.06-1-.36-1-.58L4,79.58l-.77-.2L2,79.21l.42.43.44.68.33.68.41.46.35.35.45.61.32.75.19.4.36.32.26.45.42.43.33.67.48.15.56.58.27.41.61.3.6.55.73.27.41,0,.56.61,1.08.12,1,.07.63.26.86.07,1,0,.92.32.24.1.1.39.3.43.8,1.12.82,1,.41.94.56.41.49.91.42.77.38.43.6.74.23.38.35.28,0,0,0,0-.54-.31-.44-.3L20.3,96l-.5-.52-.19-.28-.39-.48L19,94.39l-.36-.4-.41-.2-.4-.4-.31-.06L17,93.06l-.56-.59-.6,0-.33-.33L15,92l-.44-.21-.66-.25-.74-.12-.26.19-.67-.09-.8-.26-.84-.2h-.49l-1,.07-.92-.07-.68-.29-.65.09-.74-.12.4.44.12.25.44.27.27.73.32.4.24.22,0,.24.48.24.08.32.39.44.42.13.38.67.52.21.49.48.9.34.27.19.8.29.64.36.84.16.59.18.5,0,.36-.05.77.06.33-.08.84.16.29-.14.54,0,.72-.19,1.17.08,1,.21.75.42.43.56.49.4.82.6.34.41-.68-.33-.77-.31L22,99s0-.07.05-.13a1.24,1.24,0,0,0-2.47-.18,1.23,1.23,0,0,0,2.35.61l.85.3,1.16.52.5.12.86.92,1.13.91h0l-.87-.07-.42-.06-.71.07-.36-.23-.66-.23-.26,0-.52,0-.52,0-.28-.2-.66.15-.59.18-.78.08-.5-.15-.6,0-.45,0-.53,0,1,.81.4.25.26.37.86.4.59.34.17.24.29.3.73.12.71.89.53,0,.26.44.68.46.73.14.41.29-1.23.32-.43.14-.76.36-.45.07-.57.3-.5.27-.72.35-.93.51-1.09.5-.54.26-.67.13,1,.28.74.3.78,0,1,.24.49,0,.62.27,1,.23.41,0,.84.18H25l.86-.08.53,0,.89-.08.49-.44,1.07-.2.48-.19.46-.33.54-.22.4-.11.36-.22.4-.61.43-.25.39-.22.51-.19.23-.34,1-.52.16,0,1,.38L36,108l.17.07-.71.4-.29.11-.89.11,0,.22-.54.26-1,.6-.5.26-.74.5-.61.45-.35.25-.24.67-.72.32-.29.56-.56.56-.93,1.31-.18.52-.37.5-.35.35-.11.48-.24.64.77-.18.66-.23.84-.26.32-.21.41-.07.33-.1.58-.16.32-.24.77-.18.37-.14.38-.36h.53l.35-.28.53-.3.33-.21.36-.11.44-.58.34-.39.32-.17.63-.52.11-.52.09-.66a3.71,3.71,0,0,0,.47-2.82l0-.09h0l.57.35,2.15.61-.12.21V110a1.17,1.17,0,0,0-1.14,1.18,1.19,1.19,0,0,0,1.21,1.2,1.21,1.21,0,0,0,1.21-1.2,1.15,1.15,0,0,0-.83-1.11l0-.4.11-.2.9.56,1.33.31.65.46a17.29,17.29,0,0,1,4,1l.6,0,.07.32-.41,0-1,.29-1.38.32-1.32.22-1.68.18-.08,0c-.18-.47-.47-.6-.82-.5a9.63,9.63,0,0,1-3.22.43c-.3,0-.39.5-.43.74a1,1,0,0,1-.43.09,1.94,1.94,0,0,0-2.21.76,19,19,0,0,0-1.5,1.79l-.71.91-.71.9.83-.62a6.55,6.55,0,0,1,2.77-1.26,7.17,7.17,0,0,0,1-.39l.45-.29.22-.14h0l0,.64-.08,1.07a5,5,0,0,1-.79,2.27c-.41.79-1,.94-1.27,2,1.61-.54,2.62-.79,3.07-1.55v.47c0,.68.9,1.41.94,2.45.37-.79.3-2,.9-3l.22-.4.49.5.45.44.37.14,1.5.07.71,0,1.08.1h.86l.64,0,.41-.32.75-.73.86-1,.64-.83.3-.46.19-.69,0-.54,0-.61v-1.86l.33,0c.08,1.33.29,2.63.4,4a14.93,14.93,0,0,0,1.72,2.63c.53.94,1.31.28,2.28.43s1.2.36,2,0l.22-.17.71-1.19.6-1.84.15-.47.12-.25a9.51,9.51,0,0,1,.74,3c.19.72,1.39,1.3,1.65,3,.19-.58,1.34-1.41,1.42-2a12.81,12.81,0,0,1,3.18.32c-.48-1-1.38-1.4-2.24-2-.23-.15-.34-1.87-.64-2.81l.82.29.49.14.45.07,1,.14.79.33,1.24.39-.64-.57-.56-.36-.64-.5-.37-.36-.38-.62-.37-.36-.6-.46-.3-.08-.56,0L61,114.14l-.2,0-.14-.51c-.11-.46-1.2-.61-1.72-.61a9,9,0,0,1-2.43-.36c-.53-.11-.71-.29-.94.22l-.11.25-.27-.14c-.82-.22-1.64-.44-2.43-.62l-.49-.28-.27-.12.24-.07.53-.18,1.12-.29.94-.29.6-.29.86-.1.45-.33.93-.39.3.07.3.11a1.94,1.94,0,0,0,2.92,2,1.58,1.58,0,0,0-.48-2.16,1.7,1.7,0,0,0-2.25-.14l-.3-.11-.34-.15.53-.28.71-.19.45-.1.86-.29.75.29a23.5,23.5,0,0,0,7.15,2.45,53.91,53.91,0,0,1,6.14.75,25.21,25.21,0,0,0-6.07-2.58,49.58,49.58,0,0,0-7-1.23l-.29-.08,0-.14.62-.07H62l.6-.33.23-.25.63,0h1.39v-.32l-.45,0-1-.15.48-.32.49-.25.6-.22.45.33A18.87,18.87,0,0,0,70.2,110a21.15,21.15,0,0,0,7.15,1.76c-2.14-1.15-3.93-2.88-6.07-4-1.91-1.08-3.29-1-5.46-1.33l-.38-.25.45-.25.66-.22.47.11.3-.07.44-.22.53-.5.48-.25.64-.08.9.65a29.38,29.38,0,0,0,4.75,2.48A53.94,53.94,0,0,0,80.38,109a38.87,38.87,0,0,0-4.87-3.13,15.5,15.5,0,0,0-3.14-1.3l-1.05-.36H72l1.13,0a39.43,39.43,0,0,0,6.66-.36,37.21,37.21,0,0,0,4.45-.87c-1.79-.29-3.63-.54-5.42-.68-2.14-.14-4.23-.11-6.33-.07l0,0a13.76,13.76,0,0,0,1.91-2.12H75a1.69,1.69,0,0,0,1.57,1.55,1.65,1.65,0,0,0,2-1.09c.12-.75-.59-1.51-1.57-1.65a1.73,1.73,0,0,0-1.91.76l-.32,0,.1-.14.48-1.08.53-1.19.6.4.93.79a33.3,33.3,0,0,0,5.81,2.26c1.38.36,2.77.8,4.15,1.08a25.08,25.08,0,0,0-3.44-2.66l-1.84-1-.7-.5,1.86.07a26.58,26.58,0,0,0,7.72-1.8c-2.78-.4-4.94-1-8.13-1a38.59,38.59,0,0,0-6.6,1.51l.09-.46.93-.69,1-1.37.45-.76.64-.36a43,43,0,0,0,4.71-1.26l2.33-.9a21.86,21.86,0,0,0,7.15-5.14c-3,.64-5.43,1-7.79,2.3a20.24,20.24,0,0,0-4.61,3.13l-.59.4-.38.21.23-.57.11-.43.67-.62.68-.54c.86-.57,1.57-1.18,2.35-1.8a16.6,16.6,0,0,0,3.9-4,23.18,23.18,0,0,0,3.29-7.2c-2.09,2.12-4.15,4.25-6.06,6.51A20.42,20.42,0,0,0,83.19,86l-.3.27.86-1.61.82-1.59.3-.5.26-.61.27-.44.22-.39.19-.33.07-.32.08-.36.11-.47v-.18l.15-.21.3-.33.34-.21.32-.29a1.6,1.6,0,0,0,1.9-.07c.78-.49,1.15-1.3.82-1.82s-1.22-.55-2-.06A1.71,1.71,0,0,0,87,78l-.6.61.07-.29.19-.39.19-.33.37-.86.64-.69.37-.18.53-.36.41-.18a17.19,17.19,0,0,0,3.73-2.28,19.41,19.41,0,0,0,4.44-4.6L97,68.6c-3.37,1.54-6,2.59-8,5.26" style="fill:#06428e"/><path d="M28.78,67.82c0,.27-.21.51-.27.84,0,.12.06.25.06.38,0,1.14-.63,2.08-.11,2.76,1.19.51,1.15-1.09,1.8-1.54.15-.1.32,0,.48-.21.81,1.16-.15,3.75.85,4.78a3.72,3.72,0,0,1-.79.85c-.2.19-.74.57-.8.8s.2.86.32,1.27.22.83.32,1.28c.57.17.62.87,1.43.8.15-.43-.14-.84-.21-1.23a2.48,2.48,0,0,0-.48.17c-.16-.64-.83-1.11-.64-1.81s1.35-.45,1.92-.8c0,.57.63,1,.69,1.7,0,.13-.08.33-.06.48.11.65.62,1.19.53,1.86,0,.3-.34.53-.15.85-.46.15-.59.62-.75,1.06a1.32,1.32,0,0,0,1.28.06c.18-.5,0-1,.42-1.28a13.56,13.56,0,0,1-.26-4.73,6.72,6.72,0,0,0,3.88-.74c.2.87,1.58,1,1.49,2,0,.33-1,1.28-1.28,1.54s-.49.35-.64.59a7.4,7.4,0,0,0-.21,1.8,1,1,0,0,0,1.22-.58c0-.27-.2-.36-.32-.53,0-.19.32-.15.37-.32,0-1.11,1.67-1.27,2-2.07.24-.64-.29-.87-.32-1.6.84.14,1.28,1.13,2.13,1.44A4.7,4.7,0,0,1,43.71,81c-.07.44-.69.82-.74,1.38.16.39.87.36,1.22.16.29-.59,0-1.14.37-1.6-.48-1.08-.3-2.29-.48-3.51,0-.24-.46-.43-.63-.64-1.15-1.32.27-2.7-.06-4.46a1,1,0,0,1,.69.74c.12,0,0-.18.06-.26a1.68,1.68,0,0,1,0,1.64c.08.12.19-.19.32-.21a2.61,2.61,0,0,1-.38,1.07c0,.25.2-.16.32-.16a3.78,3.78,0,0,0-.16,1.8c.09-.05.06-.22.11-.31a5,5,0,0,0,1.22,2.18c.09-.08-.13-.3-.16-.43a2.87,2.87,0,0,0,1.07.8c-.06-.25-.54-.53-.64-.91.14-.11.28.22.58.11-1-.77-.11-2.47-.21-3.77,0-.13.16.11.16.21a2,2,0,0,0-.32-1.12c0-.18.21.14.16-.1-.59-.67-.84-1.94-1.81-2.08-.34,0-.65.25-1,.21s-.57-.4-1-.63A3.16,3.16,0,0,0,40,70.58a13.13,13.13,0,0,1-2.39.53,3.51,3.51,0,0,1-2.76-.74,10.9,10.9,0,0,1-.75-1.23c-.86-1.21-2.73-3-4.73-2-.26-.17-.52-.53-.75-.46a.5.5,0,0,0,.08.41.54.54,0,0,0-.47,0c0,.28.52.44.56.78" style="fill:#06428e"/><polygon points="31.03 46.4 28.59 55.05 31.03 55.05 31.03 46.4" style="fill:#06428e"/><polygon points="31.59 46.41 31.59 55.05 34.03 55.05 31.59 46.41" style="fill:#06428e"/><path d="M68.46,79.27l0-.63a.64.64,0,0,1,0-.5,1.43,1.43,0,0,0,0-1.16,1.49,1.49,0,0,1,.14-.7,21.33,21.33,0,0,0,.25-4.78c0-.39,0-1-.47-1.15a.77.77,0,0,0-.48,0A2.54,2.54,0,0,1,68.3,73l-.1,1.06,0,.89-.1.91,0,.56a1.6,1.6,0,0,0-.1.47,2.86,2.86,0,0,1,.14,1.51A7.14,7.14,0,0,0,68,80c-.05.59-.13.24-.41,1.06l-.73,0s-.18-.39,0-.44.29-.28.38-.71a2.09,2.09,0,0,0,0-1.68c-.23-.28-.51-.82-.55-.85l-.17.48-.21.24-.24.45a3.31,3.31,0,0,1-.64,1.75l-.1.41c-.36.25,0,.33-.39.36h-.54l0-.33.22-.4.37-.27a13,13,0,0,0,.5-1.64v-.33l-.17-.34a13.47,13.47,0,0,1-1-2.36h0c-2.82.25-2.42,1.39-3.53,1.59a22,22,0,0,1-2.61.46l-.11.7-.21.78a3.59,3.59,0,0,1,0,1.72l-.25.5a2.68,2.68,0,0,1-.92,0c-.1-.14.22-.42.53-1.12l.11-.64V78.9L57,78.25s-.05.07-.05.44a5.29,5.29,0,0,1,0,1,1.35,1.35,0,0,1-.3.57,4,4,0,0,1-.29.64l-.3,0c-.29,0-.39,0-.39-.06a1.38,1.38,0,0,1,.31-.8l.27-.47.06-.42c0-.63.15-1-.2-1.39h0a2.66,2.66,0,0,0-.54-.42A4.68,4.68,0,0,0,53.88,75c-.32-1-1.27-1.16-2.23-1.16-.56-.29-.66-.42-.66-1.06l.13-.25,0-.81a1.9,1.9,0,0,1-1.2-.42l.6-.25.28-.14-.7-.6a2,2,0,0,1,.1-1.9c0,.63-.1,1.55.81,1.55a1,1,0,0,1,.46-.39,3.8,3.8,0,0,1,.89,0l.38.25c.25.14,1.34.21,1.7-.35.21-.32-.39-.42-.81-.57A1.42,1.42,0,0,1,54.9,69c.21.14.18.53.14.84h.18a9,9,0,0,1,1.87-.35c.77,0,.56.74,4.34,1.13,1.62,0,2.46-.74,4-.85a4.25,4.25,0,0,1,2.1.28,1.14,1.14,0,0,1,1.67.9c.25,1.54-.08,1.41-.31,5.6a3,3,0,0,1-.41,2.77M48.82,61.68V95.23C35.76,95,25.18,80.1,25.18,61.77v-.09H48.82v-.77c.85,0,1.62-.48,2.48-.48s1.65.48,2.52.48,1.65-.48,2.52-.48,1.65.48,2.52.48,1.65-.48,2.52-.48,1.64.48,2.52.48,1.64-.48,2.52-.48,1.64.48,2.51.48,1.65-.48,2.52-.48a5.34,5.34,0,0,1,1.48.3c0,.32,0,.63,0,1ZM28,55l2.63-9.19h0a.08.08,0,0,1-.08-.08V44.46s0-.05,0-.06l.06,0h0s1,0,1.31,0l0,0,.11,0c1.17.57,1.66.81,4.61,0,.11-.79.16-3.78.17-4.22a1.16,1.16,0,0,1-.66-1.05,1.17,1.17,0,1,1,2.34,0,1.16,1.16,0,0,1-.66,1.05c0,.71.07,3.47.17,4.22,2.95.83,3.44.59,4.61,0l.11,0a.05.05,0,0,1,0,0c.31,0,1.3,0,1.31,0h0a.09.09,0,0,1,0,0,.07.07,0,0,1,0,.06v1.31a.09.09,0,0,1-.08.08h0L46.76,55h0a1.2,1.2,0,0,1-.06.38.05.05,0,0,1,0,0,4.55,4.55,0,0,1-3.2,1.71h0a4.55,4.55,0,0,1-3.22-1.71s0,0,0,0a1.74,1.74,0,0,1-.06-.38l2.64-9.19H38.15v1.63l-.68,2.64v0a.09.09,0,0,1-.08.06l-.05,0a.09.09,0,0,1,0-.06l-.68-2.64V45.85H32L34.61,55a1,1,0,0,1,0,.39l0,0a4.59,4.59,0,0,1-3.21,1.71h0a4.55,4.55,0,0,1-3.22-1.71l0,0A1.2,1.2,0,0,1,28,55M48.82,59.4c.85,0,1.62-.49,2.48-.49s1.65.49,2.52.49,1.65-.49,2.52-.49,1.65.49,2.52.49,1.65-.49,2.52-.49,1.64.49,2.52.49,1.64-.49,2.52-.49,1.64.49,2.51.49,1.65-.49,2.52-.49a4.85,4.85,0,0,1,1.42.29c0,.25,0,.51,0,.77a5.2,5.2,0,0,0-1.46-.3c-.87,0-1.65.49-2.52.49s-1.65-.49-2.51-.49-1.66.49-2.52.49-1.65-.49-2.52-.49-1.65.49-2.52.49-1.65-.49-2.52-.49-1.65.49-2.52.49-1.65-.49-2.52-.49-1.63.47-2.48.48Zm0-1.52c.85,0,1.62-.48,2.48-.48s1.65.48,2.52.48,1.65-.48,2.52-.48,1.65.48,2.52.48,1.65-.48,2.52-.48,1.64.48,2.52.48,1.64-.48,2.52-.48,1.64.48,2.51.48,1.65-.48,2.52-.48a4.9,4.9,0,0,1,1.31.25c0,.26,0,.52.06.77a5.27,5.27,0,0,0-1.37-.26c-.87,0-1.65.48-2.52.48s-1.65-.48-2.51-.48-1.66.48-2.52.48-1.65-.48-2.52-.48-1.65.48-2.52.48-1.65-.48-2.52-.48-1.65.48-2.52.48-1.65-.48-2.52-.48-1.63.46-2.48.48Zm0-1.52c.85,0,1.62-.48,2.48-.48s1.65.48,2.52.48,1.65-.48,2.52-.48,1.65.48,2.52.48,1.65-.48,2.52-.48,1.64.48,2.52.48,1.64-.48,2.52-.48,1.64.48,2.51.48,1.65-.48,2.52-.48a4.1,4.1,0,0,1,1.15.21l.09.78a4.38,4.38,0,0,0-1.24-.23c-.87,0-1.65.48-2.52.48s-1.65-.48-2.51-.48-1.66.48-2.52.48-1.65-.48-2.52-.48-1.65.48-2.52.48-1.65-.48-2.52-.48-1.65.48-2.52.48-1.65-.48-2.52-.48-1.63.47-2.48.48Zm0-1.51c.85,0,1.62-.49,2.48-.49s1.65.49,2.52.49,1.65-.49,2.52-.49,1.65.49,2.52.49,1.65-.49,2.52-.49,1.64.49,2.52.49,1.64-.49,2.52-.49,1.64.49,2.51.49,1.65-.49,2.52-.49a3.69,3.69,0,0,1,.93.15c0,.26.08.52.11.79a3.66,3.66,0,0,0-1-.18c-.87,0-1.65.49-2.52.49s-1.65-.49-2.51-.49-1.66.49-2.52.49-1.65-.49-2.52-.49-1.65.49-2.52.49-1.65-.49-2.52-.49-1.65.49-2.52.49-1.65-.49-2.52-.49-1.63.47-2.48.48Zm12.75-8.16v.67h-.76v-.66c0-.27.17-.5.38-.5s.38.23.38.5M48.82,28.3h.25c11.18,0,20.6,10.85,23.17,25.43a3,3,0,0,0-.79-.11,6.17,6.17,0,0,0-1.59.33C68.39,52.49,64.51,48.65,64,48a1.48,1.48,0,0,0-1.13-.64h-.11V46h.38V45.2h-.76v.25h-.42a.31.31,0,0,0,.07-.22c0-.16-.07-.29-.17-.29h-.27c.08-.16.12-.2.12-.31a.43.43,0,0,0-.44-.41.45.45,0,0,0-.45.42c0,.11,0,.14.13.3h-.27c-.1,0-.18.13-.18.29a.36.36,0,0,0,.07.22H60V45.2h-.77V46h.39v1.42a2.78,2.78,0,0,0-1.07.59l-5.87,5.93a5.34,5.34,0,0,0-1.42-.28c-.86,0-1.63.46-2.48.48Zm17.85,9.08c-4.69-6.55-11-10.16-17.6-10.16S36.15,30.83,31.45,37.38s-7.24,15.18-7.24,24.39,2.58,17.86,7.24,24.38,11,10.17,17.62,10.17S62,92.71,66.67,86.15,73.92,71,73.92,61.77,71.34,43.9,66.67,37.38" style="fill:#06428e"/><polygon points="43.73 46.4 43.73 55.05 46.17 55.05 43.73 46.4" style="fill:#06428e"/><path d="M37.38,39.63a.48.48,0,0,0,.48-.48.48.48,0,1,0-1,0,.48.48,0,0,0,.48.48" style="fill:#06428e"/><polygon points="43.17 55.05 43.17 46.41 40.73 55.05 43.17 55.05" style="fill:#06428e"/><path d="M122.61,70a2.22,2.22,0,0,0,1.24-.36,2.38,2.38,0,0,0,.83-1V66.75a2.48,2.48,0,0,0-.83-1,2.15,2.15,0,0,0-1.24-.37,2.18,2.18,0,0,0-.89.18,2.41,2.41,0,0,0-1.23,1.23,2.29,2.29,0,0,0,0,1.78,2.31,2.31,0,0,0,.5.73,2.46,2.46,0,0,0,.73.49,2.17,2.17,0,0,0,.89.17m5.64,3.43h-2.82a1.36,1.36,0,0,1-.13-.24c0-.08-.07-.19-.11-.32a2.36,2.36,0,0,1-.07-.46l-.09.07a2.13,2.13,0,0,1-.4.39,3.5,3.5,0,0,1-.6.35,3.25,3.25,0,0,1-.7.26,2.82,2.82,0,0,1-.74.11h-.08a5.53,5.53,0,0,1-2.25-.47,6,6,0,0,1-1.85-1.27A6.15,6.15,0,0,1,117.17,70a5.57,5.57,0,0,1-.46-2.26,5.71,5.71,0,0,1,.46-2.29,6,6,0,0,1,1.27-1.87,5.93,5.93,0,0,1,1.87-1.26,5.64,5.64,0,0,1,2.28-.47,3.21,3.21,0,0,1,1.14.22,4.55,4.55,0,0,1,1,.5V57.82h3.56Z" style="fill:#06428e"/><path d="M137.86,66.45a2.9,2.9,0,0,0-.49-.71,2.72,2.72,0,0,0-.66-.5,2,2,0,0,0-1-.22,1.94,1.94,0,0,0-1,.25,2.73,2.73,0,0,0-.67.56,3.16,3.16,0,0,0-.44.81l.15-.09.18-.06a.65.65,0,0,1,.21,0Zm3.66.65a1.79,1.79,0,0,1-.73,1.47,2.2,2.2,0,0,1-.69.33,2.67,2.67,0,0,1-.73.1h-5.64a1.9,1.9,0,0,0,.38.7,2.3,2.3,0,0,0,.6.48,2,2,0,0,0,1,.22,1.77,1.77,0,0,0,.61-.1l.57-.21a5.71,5.71,0,0,1,.58-.21,2,2,0,0,1,.65-.1A2.05,2.05,0,0,1,139,70a2.21,2.21,0,0,1,.71.49l.9.91A7.24,7.24,0,0,1,138.31,73a6.29,6.29,0,0,1-2.56.56,5.9,5.9,0,0,1-2.3-.46,5.83,5.83,0,0,1-1.88-1.27A6,6,0,0,1,130.3,70a5.79,5.79,0,0,1,0-4.57,6.19,6.19,0,0,1,1.27-1.87,6,6,0,0,1,1.88-1.26,5.73,5.73,0,0,1,2.3-.46,5.43,5.43,0,0,1,1.95.36,6.16,6.16,0,0,1,1.7,1,6.43,6.43,0,0,1,1.3,1.45,5.49,5.49,0,0,1,.77,1.76,1.56,1.56,0,0,1,0,.39c0,.14,0,.24,0,.32" style="fill:#06428e"/><polygon points="160.93 73.47 150.54 73.47 150.54 60.89 160.93 60.89 160.93 63.58 154.1 63.58 154.1 65.78 159.66 65.78 159.66 68.46 154.1 68.46 154.1 70.78 160.93 70.78 160.93 73.47" style="fill:#06428e"/><path d="M168.55,70a2.27,2.27,0,0,0,2.07-1.31V66.75a2.33,2.33,0,0,0-.83-1,2.15,2.15,0,0,0-1.24-.37,2.21,2.21,0,0,0-.89.18,2.41,2.41,0,0,0-1.23,1.23,2.41,2.41,0,0,0,0,1.78,2.31,2.31,0,0,0,.5.73,2.46,2.46,0,0,0,.73.49,2.21,2.21,0,0,0,.89.17m5.65,3.43h-2.82a1,1,0,0,1-.14-.24c0-.08-.07-.19-.11-.32a2.36,2.36,0,0,1-.07-.46l-.09.07a1.86,1.86,0,0,1-.4.39,2.87,2.87,0,0,1-.6.35,3.25,3.25,0,0,1-.7.26,2.76,2.76,0,0,1-.74.11h-.07a5.54,5.54,0,0,1-2.26-.47A5.86,5.86,0,0,1,163.11,70a5.57,5.57,0,0,1-.46-2.26,5.71,5.71,0,0,1,.46-2.29,6,6,0,0,1,1.27-1.87,5.93,5.93,0,0,1,1.87-1.26,5.71,5.71,0,0,1,2.28-.47,3.21,3.21,0,0,1,1.14.22,4.32,4.32,0,0,1,1,.5V57.82h3.57Z" style="fill:#06428e"/><path d="M184.2,73.43a1.5,1.5,0,0,1-.34-.65,3.09,3.09,0,0,1-.11-.8v-.14a.76.76,0,0,1,0-.15,2.1,2.1,0,0,1-.45.73,3.47,3.47,0,0,1-.76.6,4.28,4.28,0,0,1-1,.42,3.81,3.81,0,0,1-1,.15,4.27,4.27,0,0,1-1.83-.37,3.86,3.86,0,0,1-1.35-1,4.57,4.57,0,0,1-.86-1.64,7.56,7.56,0,0,1-.29-2.15V62h3.56v6.23a3.15,3.15,0,0,0,.12,1,1.34,1.34,0,0,0,.29.56.87.87,0,0,0,.38.25,1.43,1.43,0,0,0,.39.06,3.82,3.82,0,0,0,.9-.11,2.56,2.56,0,0,0,.75-.31,1.76,1.76,0,0,0,.53-.48,1.13,1.13,0,0,0,.19-.65V62h3.57V73.43Z" style="fill:#06428e"/><path d="M194.8,65.4a2.13,2.13,0,0,0-.86.17,2.29,2.29,0,0,0-.75.48,2.48,2.48,0,0,0-.54.73,2.22,2.22,0,0,0-.2.93,2.18,2.18,0,0,0,.2.93,2.35,2.35,0,0,0,.54.73,2.29,2.29,0,0,0,.75.48,2.14,2.14,0,0,0,.86.18,2.23,2.23,0,0,0,.6-.08l.54-.18a4.59,4.59,0,0,1,.56-.18,2.17,2.17,0,0,1,.65-.09,1.86,1.86,0,0,1,.89.21,3,3,0,0,1,.72.52l.89.91a10.36,10.36,0,0,1-1.1,1,6.77,6.77,0,0,1-1.2.77,6.12,6.12,0,0,1-1.26.5,5.19,5.19,0,0,1-1.29.17,5.89,5.89,0,0,1-2.29-.46,6.06,6.06,0,0,1-1.88-1.27A5.79,5.79,0,0,1,189.36,70a5.79,5.79,0,0,1,0-4.57,6,6,0,0,1,1.27-1.87,6.21,6.21,0,0,1,1.88-1.26,5.71,5.71,0,0,1,2.29-.46,4.77,4.77,0,0,1,1.29.17,6.7,6.7,0,0,1,1.26.49,7.39,7.39,0,0,1,1.2.77,11.66,11.66,0,0,1,1.1,1l-.89.91a2.23,2.23,0,0,1-1.67.69,2.67,2.67,0,0,1-.64-.08l-.57-.16-.54-.17a2,2,0,0,0-.54-.07" style="fill:#06428e"/><path d="M205.12,70.62a4.08,4.08,0,0,0,1-.15,5.38,5.38,0,0,0,1.13-.42v-1.7c-.13,0-.27,0-.43,0h-.56a3.74,3.74,0,0,0-.82.08,2.41,2.41,0,0,0-.7.24,1.52,1.52,0,0,0-.5.37.77.77,0,0,0-.19.48,1.4,1.4,0,0,0,.07.4,1.23,1.23,0,0,0,.21.37,1,1,0,0,0,.32.26.89.89,0,0,0,.43.11m-3.52-6.43c.12-.19.26-.38.4-.57s.27-.32.43-.49a3.42,3.42,0,0,1,.51-.43,5.24,5.24,0,0,1,1.4-.65,5.89,5.89,0,0,1,1.68-.22,6.55,6.55,0,0,1,1.83.22,4.21,4.21,0,0,1,1.31.64,3.45,3.45,0,0,1,.86,1,4.58,4.58,0,0,1,.52,1.22,7.39,7.39,0,0,1,.24,1.37,14.33,14.33,0,0,1,.07,1.47v5.71H208a1.46,1.46,0,0,1-.17-.3c0-.09-.07-.2-.11-.33a1.9,1.9,0,0,1-.05-.44A3.78,3.78,0,0,1,207,73a3.66,3.66,0,0,1-.7.37,3,3,0,0,1-.66.19,3.25,3.25,0,0,1-.57.06,5.39,5.39,0,0,1-1.72-.27,4.32,4.32,0,0,1-1.38-.77,3.56,3.56,0,0,1-.92-1.19,3.49,3.49,0,0,1-.34-1.55A3.16,3.16,0,0,1,202.17,67a7.6,7.6,0,0,1,4.17-.94,1.66,1.66,0,0,1,.42,0l.29.08.2.12a1.94,1.94,0,0,0-.38-1.19,1.16,1.16,0,0,0-1-.47,1.45,1.45,0,0,0-.51.1l-.48.21-.48.22a1.62,1.62,0,0,1-.54.1,1.78,1.78,0,0,1-.71-.15,5.08,5.08,0,0,1-.66-.33Z" style="fill:#06428e"/><path d="M218.61,65.4a2.1,2.1,0,0,0-.86.17,2.39,2.39,0,0,0-1.29,1.21,2.07,2.07,0,0,0-.2.93,2,2,0,0,0,.2.93,2.33,2.33,0,0,0,.53.73,2.44,2.44,0,0,0,.76.48,2.11,2.11,0,0,0,.86.18,2.23,2.23,0,0,0,.6-.08l.54-.18a4.59,4.59,0,0,1,.56-.18,2.11,2.11,0,0,1,.64-.09,1.9,1.9,0,0,1,.9.21,2.76,2.76,0,0,1,.71.52l.9.91a10.36,10.36,0,0,1-1.1,1,7.15,7.15,0,0,1-1.2.77,6.12,6.12,0,0,1-1.26.5,5.19,5.19,0,0,1-1.29.17,5.85,5.85,0,0,1-2.29-.46,5.94,5.94,0,0,1-1.88-1.27A5.79,5.79,0,0,1,213.17,70a5.79,5.79,0,0,1,0-4.57,6,6,0,0,1,1.27-1.87,6.09,6.09,0,0,1,1.88-1.26,5.68,5.68,0,0,1,2.29-.46,4.77,4.77,0,0,1,1.29.17,6.7,6.7,0,0,1,1.26.49,7.84,7.84,0,0,1,1.2.77,11.66,11.66,0,0,1,1.1,1l-.9.91a2.2,2.2,0,0,1-1.66.69,2.67,2.67,0,0,1-.64-.08l-.57-.16-.54-.17a2,2,0,0,0-.54-.07" style="fill:#06428e"/><path d="M228.89,73.43h-3.57V62h3.57ZM225,58.89a1.74,1.74,0,0,1,.17-.77,1.88,1.88,0,0,1,.45-.58,2.14,2.14,0,0,1,.68-.38,2.71,2.71,0,0,1,.82-.13,2.76,2.76,0,0,1,.82.13,2.09,2.09,0,0,1,.67.38,1.62,1.62,0,0,1,.45.58,1.79,1.79,0,0,1-.45,2.12,2.07,2.07,0,0,1-.67.37,2.76,2.76,0,0,1-.82.13,2.71,2.71,0,0,1-.82-.13,2.12,2.12,0,0,1-.68-.37,2.05,2.05,0,0,1-.45-.59,1.73,1.73,0,0,1-.17-.76" style="fill:#06428e"/><path d="M239.49,60.09a2.12,2.12,0,0,1-1.83.75H236l.81-1.44c.2-.35.35-.62.46-.8l.21-.37a1.18,1.18,0,0,1,.11-.15,1.56,1.56,0,0,1,.74-.54,2.91,2.91,0,0,1,1.08-.18h2.27Zm-4.68,7.63a2.25,2.25,0,0,0,.18.89,2.29,2.29,0,0,0,.49.73,2.34,2.34,0,0,0,.73.49,2.39,2.39,0,0,0,1.77,0,2.51,2.51,0,0,0,.74-.49,2.29,2.29,0,0,0,.49-.73,2.29,2.29,0,0,0,0-1.78,2.29,2.29,0,0,0-.49-.73,2.36,2.36,0,0,0-.74-.5,2.26,2.26,0,0,0-2.5.5,2.29,2.29,0,0,0-.49.73,2.25,2.25,0,0,0-.18.89m-3.57,0a5.71,5.71,0,0,1,.46-2.29,5.89,5.89,0,0,1,3.13-3.13,5.79,5.79,0,0,1,4.57,0,6,6,0,0,1,3.14,3.13,5.89,5.89,0,0,1-7.71,7.71A6,6,0,0,1,231.7,70a5.7,5.7,0,0,1-.46-2.28" style="fill:#06428e"/><path d="M247.88,62a1.63,1.63,0,0,1,.37.77,3.11,3.11,0,0,1,.06,1,2.12,2.12,0,0,1,.45-.71,3.84,3.84,0,0,1,.76-.61,4.64,4.64,0,0,1,1-.42,3.68,3.68,0,0,1,1-.15,4.24,4.24,0,0,1,1.83.37,3.75,3.75,0,0,1,1.36,1,4.81,4.81,0,0,1,.85,1.64,7.56,7.56,0,0,1,.29,2.15v6.4h-3.56V67.2a3.22,3.22,0,0,0-.12-1,1.29,1.29,0,0,0-.29-.55.77.77,0,0,0-.39-.25,1.4,1.4,0,0,0-.38-.07,3.82,3.82,0,0,0-.9.11,3,3,0,0,0-.75.31,1.92,1.92,0,0,0-.53.49,1.1,1.1,0,0,0-.19.64v6.53h-3.56V62Z" style="fill:#06428e"/><path d="M134.23,50.43h-1.76V37.49s0,0,0,.11,0,.13,0,.21l-.06.24c0,.08-.05.15-.06.2l-1.5,3.39-1.36,3.1-1.27,2.9q-.63,1.41-1.23,2.79h-1.86c-.9-2-1.78-4.07-2.66-6.08s-1.77-4.05-2.67-6.09a1.46,1.46,0,0,1-.12-.37,2.87,2.87,0,0,1-.07-.33V50.43h-1.75V34.82h1.37a1.46,1.46,0,0,1,.83.26,1.33,1.33,0,0,1,.54.64l5.31,12.08a3.58,3.58,0,0,1,.09.35,2.2,2.2,0,0,1,.06.37,2.27,2.27,0,0,1,.23-.92c.15-.29.28-.58.4-.87l4.84-11a1.45,1.45,0,0,1,.56-.66,1.47,1.47,0,0,1,.81-.24h1.4Z" style="fill:#06428e"/><path d="M139.91,50.43h-1.78V39h1.78Zm-2.18-14.49a1.18,1.18,0,0,1,.1-.5,1.2,1.2,0,0,1,.28-.41,1.3,1.3,0,0,1,.41-.28,1.22,1.22,0,0,1,.51-.1,1.18,1.18,0,0,1,.5.1,1.3,1.3,0,0,1,.41.28,1.2,1.2,0,0,1,.28.41,1.18,1.18,0,0,1,.1.5,1.22,1.22,0,0,1-.1.51,1.3,1.3,0,0,1-.28.41,1.49,1.49,0,0,1-.41.28,1.18,1.18,0,0,1-.5.1,1.22,1.22,0,0,1-.51-.1,1.49,1.49,0,0,1-.41-.28,1.3,1.3,0,0,1-.28-.41,1.22,1.22,0,0,1-.1-.51" style="fill:#06428e"/><path d="M145,39a1.94,1.94,0,0,0,.13.26,1.28,1.28,0,0,1,.11.57v.73a3.66,3.66,0,0,1,.71-.76,4.69,4.69,0,0,1,.89-.54,5,5,0,0,1,1-.32,4.57,4.57,0,0,1,1-.11,4.24,4.24,0,0,1,1.73.35,3.72,3.72,0,0,1,1.31,1,4.61,4.61,0,0,1,.84,1.6,6.94,6.94,0,0,1,.3,2.11v6.53h-1.78V43.9a4.37,4.37,0,0,0-.6-2.48,2.1,2.1,0,0,0-1.86-.88,5,5,0,0,0-1.36.18,4.32,4.32,0,0,0-1.11.48,2.67,2.67,0,0,0-.77.72,1.68,1.68,0,0,0-.32.86v7.65h-1.78V39Z" style="fill:#06428e"/><path d="M158,50.43h-1.78V39H158Zm-2.18-14.49a1.18,1.18,0,0,1,.1-.5,1.2,1.2,0,0,1,.28-.41,1.3,1.3,0,0,1,.41-.28,1.18,1.18,0,0,1,.5-.1,1.25,1.25,0,0,1,.51.1A1.3,1.3,0,0,1,158,35a1.26,1.26,0,0,1,.38.91,1.4,1.4,0,0,1-.1.51,1.34,1.34,0,0,1-.69.69,1.25,1.25,0,0,1-.51.1,1.18,1.18,0,0,1-.5-.1,1.49,1.49,0,0,1-.41-.28,1.3,1.3,0,0,1-.28-.41,1.22,1.22,0,0,1-.1-.51" style="fill:#06428e"/><path d="M160.47,48.55l.68-.33a1.32,1.32,0,0,1,.54-.13,1.41,1.41,0,0,1,.45.07,2.27,2.27,0,0,1,.57.3,1.7,1.7,0,0,0,.62.3,2.46,2.46,0,0,0,.72.1,2.87,2.87,0,0,0,.77-.11,2.24,2.24,0,0,0,.71-.35,1.75,1.75,0,0,0,.51-.57,1.5,1.5,0,0,0,.1-1.37,1.31,1.31,0,0,0-.34-.46,2.92,2.92,0,0,0-.65-.41,7.41,7.41,0,0,0-1-.42l-.11-.05c-.39-.13-.78-.27-1.16-.44a4.31,4.31,0,0,1-1-.61,2.72,2.72,0,0,1-1-2.23,2.44,2.44,0,0,1,.3-1.21,2.94,2.94,0,0,1,.78-.93,3.57,3.57,0,0,1,1.08-.6,3.71,3.71,0,0,1,1.22-.23h0a2.92,2.92,0,0,1,1.13.23,4.36,4.36,0,0,1,.91.49,3.62,3.62,0,0,1,.64.54c.17.18.3.31.37.4l-.36.3a1.57,1.57,0,0,1-.45.29,1.14,1.14,0,0,1-.49.11,1.07,1.07,0,0,1-.39-.1l-.46-.22-.48-.2a1.34,1.34,0,0,0-.46-.09,1.81,1.81,0,0,0-.78.14,1.47,1.47,0,0,0-.51.34,1.27,1.27,0,0,0-.28.4,1.08,1.08,0,0,0-.08.34,1.12,1.12,0,0,0,.18.64,2,2,0,0,0,.46.45,3,3,0,0,0,.65.32l.75.26h0a11,11,0,0,1,1.24.49,4.32,4.32,0,0,1,1.08.69A2.86,2.86,0,0,1,168,47a3.22,3.22,0,0,1-.3,1.37,3.56,3.56,0,0,1-.83,1.13,4.17,4.17,0,0,1-2.81,1.06,3.79,3.79,0,0,1-1.07-.14,4.28,4.28,0,0,1-1-.4,4.4,4.4,0,0,1-.85-.64,3.69,3.69,0,0,1-.67-.86" style="fill:#06428e"/><path d="M173.06,47.66a1.6,1.6,0,0,0,.07.41,1.25,1.25,0,0,0,.22.41,1.19,1.19,0,0,0,.34.33.88.88,0,0,0,.46.13l.31,0a3.3,3.3,0,0,1,.79-.13,1.12,1.12,0,0,1,.69.22,2.1,2.1,0,0,1,.52.51l.16.22a3,3,0,0,1-.53.33,4.84,4.84,0,0,1-.66.28,4.64,4.64,0,0,1-.68.19,3.09,3.09,0,0,1-1.8-.15,2.54,2.54,0,0,1-.9-.6,2.74,2.74,0,0,1-.57-.93,3.69,3.69,0,0,1-.19-1.18v-7h-2v-.79a1.15,1.15,0,0,1,.07-.4.6.6,0,0,1,.24-.29,1.35,1.35,0,0,1,.46-.17,4.86,4.86,0,0,1,.74-.05h.48V36.51a1.93,1.93,0,0,1,.06-.55,3.52,3.52,0,0,1,.13-.45,2.26,2.26,0,0,1,.15-.31l.1-.17h1.33V39h3.3v1.69h-3.3Z" style="fill:#06428e"/><path d="M187.62,43.44a4.33,4.33,0,0,0-.59-1.2,4,4,0,0,0-.9-.89,4.32,4.32,0,0,0-1.13-.58,4.23,4.23,0,0,0-1.28-.2,4,4,0,0,0-1.43.25,3.93,3.93,0,0,0-1.2.68,4.11,4.11,0,0,0-.9,1,3.81,3.81,0,0,0-.51,1.31,1.56,1.56,0,0,1,.22-.28.58.58,0,0,1,.42-.14Zm1.82.25a1.47,1.47,0,0,1-.13.6,1.83,1.83,0,0,1-.32.48,1.37,1.37,0,0,1-.45.3,1.19,1.19,0,0,1-.51.12h-8.42a3.93,3.93,0,0,0,.42,1.45,4.15,4.15,0,0,0,.9,1.16,4.2,4.2,0,0,0,2.79,1.05,3.78,3.78,0,0,0,1.11-.18,6.41,6.41,0,0,0,1.06-.47,1.69,1.69,0,0,1,.36-.15,1.84,1.84,0,0,1,.41,0,1.37,1.37,0,0,1,.49.09,2.3,2.3,0,0,1,.41.23l.45.39a7.27,7.27,0,0,1-.89.76,6.26,6.26,0,0,1-1,.6,5.48,5.48,0,0,1-1.14.39,5.56,5.56,0,0,1-1.22.13,5.73,5.73,0,0,1-2.3-.46A5.89,5.89,0,0,1,178.29,47a5.79,5.79,0,0,1,0-4.57,6.12,6.12,0,0,1,1.27-1.87,5.9,5.9,0,0,1,1.87-1.27,5.87,5.87,0,0,1,4.22-.13,5.82,5.82,0,0,1,1.67.93,5.94,5.94,0,0,1,1.29,1.4,6.12,6.12,0,0,1,.78,1.75,2.14,2.14,0,0,1,.05.45" style="fill:#06428e"/><path d="M193.13,39a1.55,1.55,0,0,0,.12.25.86.86,0,0,1,.11.47v1A3,3,0,0,1,194,40a4.12,4.12,0,0,1,.87-.61,4.17,4.17,0,0,1,1.07-.41,4.48,4.48,0,0,1,1.15-.15,4.28,4.28,0,0,1,1.47.25l-.14.76a.87.87,0,0,1-.39.64,1.41,1.41,0,0,1-.69.17H197a4.2,4.2,0,0,0-1.38.22,4.43,4.43,0,0,0-1.15.58,3.06,3.06,0,0,0-.79.82,2,2,0,0,0-.34.9v7.27h-1.77V39Z" style="fill:#06428e"/><path d="M201.86,50.43h-1.78V39h1.78Zm-2.18-14.49a1.26,1.26,0,0,1,.38-.91,1.3,1.3,0,0,1,.41-.28,1.26,1.26,0,0,1,1.42.28,1.2,1.2,0,0,1,.28.41,1.18,1.18,0,0,1,.11.5,1.23,1.23,0,0,1-.11.51,1.3,1.3,0,0,1-.28.41,1.44,1.44,0,0,1-.4.28,1.35,1.35,0,0,1-1,0,1.34,1.34,0,0,1-.69-.69,1.4,1.4,0,0,1-.1-.51" style="fill:#06428e"/><path d="M206.38,44.71a4,4,0,0,0,.33,1.62,4,4,0,0,0,2.2,2.2,4.13,4.13,0,0,0,1.61.32,4.22,4.22,0,0,0,1.62-.32,4,4,0,0,0,2.2-2.2,4.26,4.26,0,0,0,0-3.24,4.11,4.11,0,0,0-3.82-2.52,4.13,4.13,0,0,0-1.61.32,4.13,4.13,0,0,0-2.2,2.2,4,4,0,0,0-.33,1.62m-1.74,0a5.67,5.67,0,0,1,.46-2.28,6,6,0,0,1,3.14-3.14,5.91,5.91,0,0,1,4.57,0A5.93,5.93,0,0,1,216,42.43,5.91,5.91,0,0,1,216,47a5.84,5.84,0,0,1-3.14,3.14,5.91,5.91,0,0,1-4.57,0A5.93,5.93,0,0,1,205.1,47a5.68,5.68,0,0,1-.46-2.29" style="fill:#06428e"/><path d="M117.08,84.67h2.34a2.3,2.3,0,0,1,.69.1,2.4,2.4,0,0,1,.61.28,2.12,2.12,0,0,1,.51.43,1.78,1.78,0,0,1,.32.57l1.4,3.57a5.05,5.05,0,0,1,.25.81,3.15,3.15,0,0,1,.06.54,2,2,0,0,1,0,.26l0,.08L125.27,86a2,2,0,0,1,.84-1,2.35,2.35,0,0,1,1.27-.36h2.37l-6.23,14.27a1.93,1.93,0,0,1-.34.59,2.11,2.11,0,0,1-.5.44,2.67,2.67,0,0,1-.62.28,2.65,2.65,0,0,1-.68.09H119l2.43-5.61Z" style="fill:#06428e"/><path d="M140.84,88.3a4.08,4.08,0,0,0,.36,1.7,4.29,4.29,0,0,0,1,1.4,4.41,4.41,0,0,0,1.41.94,4.32,4.32,0,0,0,1.71.35,3.75,3.75,0,0,0,1.31-.22,4.75,4.75,0,0,0,1.15-.57,2.29,2.29,0,0,1,1.31-.39,2.37,2.37,0,0,1,1,.18,2.43,2.43,0,0,1,.74.52l.92.92a10.3,10.3,0,0,1-1.43,1.3,9.55,9.55,0,0,1-1.57,1A7.81,7.81,0,0,1,147,96a6.78,6.78,0,0,1-1.73.22,8.27,8.27,0,0,1-2.12-.28,8,8,0,0,1-1.92-.81,7.57,7.57,0,0,1-1.62-1.24,7.8,7.8,0,0,1-1.26-1.6,8.91,8.91,0,0,1-.81-1.9,8.17,8.17,0,0,1,0-4.24,8.7,8.7,0,0,1,.81-1.9,8.08,8.08,0,0,1,2.88-2.85,7.94,7.94,0,0,1,1.92-.8,7.86,7.86,0,0,1,2.12-.28,7.25,7.25,0,0,1,1.73.21,9.23,9.23,0,0,1,3.24,1.61,10.23,10.23,0,0,1,1.43,1.29l-.92.93a2.56,2.56,0,0,1-.75.51,2.29,2.29,0,0,1-1,.19,2.25,2.25,0,0,1-1.31-.4,5,5,0,0,0-1.16-.58,4.26,4.26,0,0,0-1.3-.2,4.16,4.16,0,0,0-1.71.35,4.41,4.41,0,0,0-1.41.94,4.25,4.25,0,0,0-1,1.39,4.1,4.1,0,0,0-.36,1.71" style="fill:#06428e"/><path d="M161.6,96.11a1.44,1.44,0,0,1-.34-.65,3.09,3.09,0,0,1-.11-.8v-.14a.76.76,0,0,1,0-.15,2.1,2.1,0,0,1-.45.73,3.47,3.47,0,0,1-.76.6,4.28,4.28,0,0,1-.95.42,3.81,3.81,0,0,1-1.05.15,4.27,4.27,0,0,1-1.83-.37,3.83,3.83,0,0,1-1.35-1,4.69,4.69,0,0,1-.85-1.65,7.21,7.21,0,0,1-.3-2.15V84.67h3.56V90.9a3.26,3.26,0,0,0,.12,1,1.49,1.49,0,0,0,.29.55.87.87,0,0,0,.38.25,1.43,1.43,0,0,0,.39.06,3.36,3.36,0,0,0,.9-.11,2.48,2.48,0,0,0,.76-.31,1.85,1.85,0,0,0,.52-.48,1.14,1.14,0,0,0,.2-.65V84.67h3.56V96.11Z" style="fill:#06428e"/><rect x="167.29" y="80.5" width="3.57" height="15.61" style="fill:#06428e"/><path d="M178,88v4.08a1,1,0,0,0,.07.37.58.58,0,0,0,.16.21.32.32,0,0,0,.19.1.52.52,0,0,0,.17,0,.78.78,0,0,0,.22,0l.17,0a1.67,1.67,0,0,1,.55.09,2.34,2.34,0,0,1,.48.22,1.62,1.62,0,0,1,.39.3,3.4,3.4,0,0,1,.32.34,3.91,3.91,0,0,1,.54.94,4.94,4.94,0,0,1-.76.61,8.4,8.4,0,0,1-.93.51,6.81,6.81,0,0,1-.93.36,2.93,2.93,0,0,1-.8.14,3.73,3.73,0,0,1-1.41-.26,3.08,3.08,0,0,1-1.08-.71,3.21,3.21,0,0,1-.68-1.07,4.08,4.08,0,0,1-.24-1.38V88h-1.63V86.22a1.35,1.35,0,0,1,.41-1,2.18,2.18,0,0,1,1.22-.5v-2a2.18,2.18,0,0,1,.14-.79,3.35,3.35,0,0,1,.3-.6,3.67,3.67,0,0,1,.44-.52H178v3.9h2.73V88Z" style="fill:#06428e"/><path d="M190,96.11a1.44,1.44,0,0,1-.34-.65,3.09,3.09,0,0,1-.11-.8v-.14s0-.1,0-.15a2.1,2.1,0,0,1-.45.73,3.25,3.25,0,0,1-.76.6,4.09,4.09,0,0,1-.95.42,3.75,3.75,0,0,1-1.05.15,4.31,4.31,0,0,1-1.83-.37,3.83,3.83,0,0,1-1.35-1,4.69,4.69,0,0,1-.85-1.65,7.21,7.21,0,0,1-.3-2.15V84.67h3.57V90.9a3.31,3.31,0,0,0,.11,1,1.49,1.49,0,0,0,.3.55.77.77,0,0,0,.38.25,1.31,1.31,0,0,0,.38.06,3.31,3.31,0,0,0,.9-.11,2.48,2.48,0,0,0,.76-.31,1.72,1.72,0,0,0,.52-.48,1.14,1.14,0,0,0,.2-.65V84.67h3.56V96.11Z" style="fill:#06428e"/><path d="M198.21,84.67a.86.86,0,0,1,.2.33,1.75,1.75,0,0,1,.11.35,1.29,1.29,0,0,1,0,.39,1.72,1.72,0,0,1,.44-.54,2.75,2.75,0,0,1,.62-.37,3.22,3.22,0,0,1,1.36-.3,6.56,6.56,0,0,1,2.38.58l-.25,1.43a1.52,1.52,0,0,1-.29.71,1.64,1.64,0,0,1-.5.45,1.82,1.82,0,0,1-.65.24,3.26,3.26,0,0,1-.7.07,2.77,2.77,0,0,0-.71.1,2.36,2.36,0,0,0-.6.26,1.73,1.73,0,0,0-.44.36.87.87,0,0,0-.22.41v7h-3.56V84.67Z" style="fill:#06428e"/><path d="M207.55,93.3a4.08,4.08,0,0,0,1-.15,5.11,5.11,0,0,0,1.12-.42V91l-.42,0h-.56a3.74,3.74,0,0,0-.82.08,2.58,2.58,0,0,0-.71.24,1.58,1.58,0,0,0-.49.37.77.77,0,0,0-.19.48,1.4,1.4,0,0,0,.07.4,1.23,1.23,0,0,0,.21.37,1,1,0,0,0,.32.26.86.86,0,0,0,.43.11M204,86.87c.12-.19.26-.38.4-.57s.27-.32.43-.49a3.42,3.42,0,0,1,.51-.43,5.11,5.11,0,0,1,1.4-.65,5.84,5.84,0,0,1,1.68-.22,6.22,6.22,0,0,1,1.83.23,4,4,0,0,1,1.31.63,3.45,3.45,0,0,1,.86,1,4.72,4.72,0,0,1,.52,1.22,7.39,7.39,0,0,1,.24,1.37c0,.49.07,1,.07,1.47v5.71h-2.83a1.43,1.43,0,0,1-.16-.3c0-.09-.07-.2-.11-.33a1.9,1.9,0,0,1-.05-.44,3.43,3.43,0,0,1-.67.61,4.41,4.41,0,0,1-.7.38,3.63,3.63,0,0,1-.66.18,3.25,3.25,0,0,1-.57.06,5.39,5.39,0,0,1-1.72-.27,4.32,4.32,0,0,1-1.38-.77,3.56,3.56,0,0,1-.92-1.19,3.46,3.46,0,0,1-.34-1.55,3.14,3.14,0,0,1,1.43-2.83,7.66,7.66,0,0,1,4.17-.94,2.39,2.39,0,0,1,.42,0,2,2,0,0,1,.28.08l.21.12a1.94,1.94,0,0,0-.38-1.19,1.15,1.15,0,0,0-1-.46,1.44,1.44,0,0,0-.51.09l-.48.22-.48.21a1.62,1.62,0,0,1-.54.1,1.86,1.86,0,0,1-.72-.15,6.77,6.77,0,0,1-.66-.33Z" style="fill:#06428e"/></symbol></defs><title>eppsMecepps</title><g id="Capa_2" data-name="Capa 2"><g id="Capa_3" data-name="Capa 3"><use width="255.85" height="122.92" xlink:href="#Nuevo_símbolo_10"/></g></g></svg>