<?xml version="1.0" encoding="utf-8"?>
<!-- Generator: Adobe Illustrator 25.0.0, SVG Export Plug-In . SVG Version: 6.00 Build 0)  -->
<svg version="1.1" id="Layer_1" xmlns="http://www.w3.org/2000/svg" xmlns:xlink="http://www.w3.org/1999/xlink" x="0px" y="0px"
	 viewBox="0 0 697.5 156.1" style="enable-background:new 0 0 697.5 156.1;" xml:space="preserve">
<style type="text/css">
	.st0{fill:#F48120;}
</style>
<g>
	<g>
		<g>
			<path class="st0" d="M53.8,83.4c-4.3-3.6-9.8-6-15.6-6c-4.3,0-10.1,2.5-10.1,7.6c0,5.3,6.4,7.3,10.4,8.6l6,1.8
				c12.6,3.7,22.3,10.1,22.3,24.7c0,9-2.2,18.2-9.4,24.4c-7.1,6-16.6,8.5-25.7,8.5c-11.4,0-22.6-3.8-31.8-10.3l10.1-18.9
				c5.9,5.2,12.8,9.4,20.9,9.4c5.5,0,11.4-2.8,11.4-9.1c0-6.6-9.2-8.9-14.3-10.3c-14.8-4.2-24.5-8-24.5-25.6
				c0-18.4,13.1-30.4,31.2-30.4c9.1,0,20.3,2.9,28.3,7.4L53.8,83.4z"/>
			<path class="st0" d="M94.2,134.9l-6.2,15.7H63l34.8-90.4h25.7l34.1,90.4h-25.1l-5.9-15.7H94.2z M110.6,88.1h-0.2l-9.7,28.8h19.6
				L110.6,88.1z"/>
			<path class="st0" d="M160.4,60.1h23.5l43.1,55.3h0.2V60.1h23.5v90.4h-23.5l-43.1-55.4h-0.2v55.4h-23.5L160.4,60.1L160.4,60.1z"/>
			<path class="st0" d="M356.1,150.6h-29.3l-22.2-34.8h-0.2v34.8h-23.5V60.1H316c17.9,0,31.4,8.5,31.4,27.8c0,12.5-7,23.3-19.8,25.6
				L356.1,150.6z M304.4,100.7h2.3c7.7,0,16.3-1.4,16.3-11.3s-8.6-11.3-16.3-11.3h-2.3V100.7z"/>
			<path class="st0" d="M449.9,104.2c0,28.9-20.8,49.3-49.5,49.3c-28.7,0-49.5-20.4-49.5-49.3c0-27,23.7-46,49.5-46
				C426.2,58.2,449.9,77.1,449.9,104.2z M375.2,104.3c0,15.4,11.4,26.7,25.3,26.7c13.9,0,25.3-11.3,25.3-26.7
				c0-12.3-11.4-23.6-25.3-23.6C386.6,80.7,375.2,92,375.2,104.3z"/>
			<path class="st0" d="M535.3,156.1l-7.1-8.4c-6.9,4.1-15,5.8-24.6,5.8c-28.7,0-49.5-20.4-49.5-49.3c0-27,23.7-46,49.5-46
				c27.9,0,49.5,18.9,49.5,47.9c0,11.9-4,22.2-11.5,31.4l15.1,15.3L535.3,156.1z M524.8,119.4c2.7-3.8,4.2-8.7,4.2-13.2
				c0-13.4-11.2-25.5-25.2-25.5c-13.9,0-25.4,11.3-25.4,23.6c0,15.4,11.5,26.7,25.4,26.7c2.4,0,4.7-0.4,7.1-1.2l-14.3-14.2l21.9-2.7
				L524.8,119.4z"/>
			<path class="st0" d="M638,60.1V111c0,11.6-0.5,23.2-9.5,31.9c-7.6,7.4-19.4,10.1-30,10.1s-22.4-2.6-30-10.1
				c-9-8.8-9.5-20.3-9.5-31.9V60.1h23.5v47.6c0,11.8,0.8,24.6,16,24.6s16-12.8,16-24.6V60.1L638,60.1L638,60.1z"/>
			<path class="st0" d="M669.6,80v15.1h26.5v19.9h-26.5v15.6h28v19.9h-51.5V60.1h51.5V80L669.6,80L669.6,80z"/>
		</g>
		<g>
			<path class="st0" d="M3.6,0h31.6v5.6H9.7v13.9h22.4v5.4H9.7v20.7H3.5L3.6,0L3.6,0z"/>
			<path class="st0" d="M56.5,25.5c1.3-0.2,2.1-0.7,2.6-1.6c0.2-0.5,0.4-1.2,0.4-2.1c0-1.9-0.7-3.3-2-4.2s-3.3-1.3-5.8-1.3
				c-2.9,0-5,0.8-6.2,2.4c-0.7,0.9-1.1,2.2-1.3,3.9h-5.2c0.1-4.1,1.4-7,4-8.6s5.5-2.4,8.9-2.4c3.9,0,7.1,0.8,9.5,2.2
				c2.4,1.5,3.6,3.8,3.6,6.9v19.2c0,0.6,0.1,1.1,0.4,1.4c0.2,0.4,0.7,0.5,1.5,0.5c0.2,0,0.5,0,0.8-0.1s0.6-0.1,1-0.1v4.1
				c-0.9,0.2-1.5,0.4-2,0.5c-0.5,0.1-1.1,0.1-1.9,0.1c-1.9,0-3.3-0.7-4.2-2.1c-0.5-0.7-0.8-1.8-1-3.1c-1.1,1.5-2.8,2.8-4.9,3.9
				c-2.1,1.1-4.5,1.6-7.1,1.6c-3.1,0-5.6-0.9-7.6-2.8s-2.9-4.2-2.9-7c0-3.1,1-5.5,2.9-7.2c1.9-1.7,4.4-2.7,7.6-3.1L56.5,25.5z
				 M44.8,40.6c1.2,0.9,2.6,1.4,4.2,1.4c2,0,3.9-0.4,5.7-1.4c3.1-1.5,4.7-4,4.7-7.4v-4.5c-0.7,0.4-1.6,0.8-2.6,1.1s-2.1,0.5-3.2,0.6
				l-3.4,0.4c-2,0.3-3.6,0.7-4.6,1.3c-1.7,1-2.6,2.5-2.6,4.6C43,38.4,43.6,39.6,44.8,40.6z"/>
			<path class="st0" d="M73.1,12.4h5.3v5.7c0.4-1.1,1.5-2.5,3.2-4.1s3.6-2.4,5.9-2.4c0.1,0,0.3,0,0.5,0s0.7,0.1,1.3,0.1v5.9
				c-0.3-0.1-0.6-0.1-0.9-0.1c-0.3,0-0.6,0-0.9,0c-2.8,0-5,0.9-6.5,2.7c-1.5,1.8-2.3,3.9-2.3,6.3v19.1h-5.6L73.1,12.4L73.1,12.4
				L73.1,12.4z"/>
			<path class="st0" d="M94.3,12.4h5.5v4.7c1.3-1.6,2.5-2.8,3.6-3.6c1.8-1.3,3.9-1.9,6.3-1.9c2.6,0,4.8,0.6,6.4,2
				c0.9,0.8,1.7,1.8,2.5,3.3c1.2-1.8,2.7-3.1,4.4-4c1.7-0.9,3.6-1.3,5.6-1.3c4.5,0,7.5,1.6,9.1,4.8c0.9,1.7,1.3,4.1,1.3,7v22.1h-5.8
				V22.5c0-2.2-0.5-3.7-1.7-4.6c-1.1-0.8-2.5-1.2-4-1.2c-2.2,0-4.1,0.7-5.7,2.2s-2.4,3.9-2.4,7.4v19.3h-5.7V23.9
				c0-2.3-0.3-3.9-0.8-4.9c-0.9-1.6-2.4-2.3-4.8-2.3c-2.1,0-4,0.8-5.8,2.4c-1.7,1.6-2.6,4.6-2.6,8.9v17.6h-5.6L94.3,12.4L94.3,12.4
				L94.3,12.4z"/>
			<path class="st0" d="M164,25.5c1.3-0.2,2.1-0.7,2.6-1.6c0.2-0.5,0.4-1.2,0.4-2.1c0-1.9-0.7-3.3-2-4.2s-3.3-1.3-5.8-1.3
				c-2.9,0-5,0.8-6.2,2.4c-0.7,0.9-1.1,2.2-1.3,3.9h-5.2c0.1-4.1,1.4-7,4-8.6c2.5-1.6,5.5-2.4,8.9-2.4c3.9,0,7.1,0.8,9.5,2.2
				c2.4,1.5,3.6,3.8,3.6,6.9v19.2c0,0.6,0.1,1.1,0.4,1.4c0.2,0.4,0.7,0.5,1.5,0.5c0.2,0,0.5,0,0.8-0.1s0.6-0.1,1-0.1v4.1
				c-0.9,0.2-1.5,0.4-2,0.5c-0.5,0.1-1.1,0.1-1.9,0.1c-1.9,0-3.3-0.7-4.2-2.1c-0.5-0.7-0.8-1.8-1-3.1c-1.1,1.5-2.8,2.8-4.9,3.9
				s-4.5,1.6-7,1.6c-3.1,0-5.6-0.9-7.6-2.8s-2.9-4.2-2.9-7c0-3.1,1-5.5,2.9-7.2c1.9-1.7,4.5-2.7,7.6-3.1L164,25.5z M152.3,40.6
				c1.2,0.9,2.6,1.4,4.2,1.4c2,0,3.9-0.4,5.7-1.4c3.1-1.5,4.7-4,4.7-7.4v-4.5c-0.7,0.4-1.6,0.8-2.6,1.1s-2.1,0.5-3.2,0.6l-3.4,0.4
				c-2,0.3-3.5,0.7-4.6,1.3c-1.7,1-2.6,2.5-2.6,4.6C150.5,38.4,151.1,39.6,152.3,40.6z"/>
			<path class="st0" d="M202.5,14.1c2.4,1.8,3.8,5,4.2,9.4h-5.4c-0.3-2.1-1.1-3.8-2.3-5.1s-3.1-2-5.7-2c-3.6,0-6.1,1.7-7.6,5.2
				c-1,2.2-1.5,5-1.5,8.3c0,3.3,0.7,6.1,2.1,8.4c1.4,2.3,3.6,3.4,6.6,3.4c2.3,0,4.1-0.7,5.5-2.1c1.4-1.4,2.3-3.3,2.8-5.8h5.4
				c-0.6,4.4-2.2,7.6-4.7,9.7c-2.5,2-5.7,3.1-9.5,3.1c-4.4,0-7.8-1.6-10.4-4.8c-2.6-3.2-3.9-7.1-3.9-11.9c0-5.8,1.4-10.4,4.2-13.6
				s6.5-4.9,10.8-4.9C197.1,11.4,200.1,12.3,202.5,14.1z"/>
			<path class="st0" d="M211.2,0h5.7v6.3h-5.7V0z M211.2,12.5h5.7v33.1h-5.7V12.5z"/>
			<path class="st0" d="M242.1,25.5c1.3-0.2,2.1-0.7,2.6-1.6c0.2-0.5,0.4-1.2,0.4-2.1c0-1.9-0.7-3.3-2-4.2s-3.3-1.3-5.8-1.3
				c-2.9,0-5,0.8-6.2,2.4c-0.7,0.9-1.1,2.2-1.3,3.9h-5.2c0.1-4.1,1.4-7,4-8.6c2.5-1.6,5.5-2.4,8.9-2.4c3.9,0,7.1,0.8,9.5,2.2
				c2.4,1.5,3.6,3.8,3.6,6.9v19.2c0,0.6,0.1,1.1,0.4,1.4c0.2,0.4,0.7,0.5,1.5,0.5c0.2,0,0.5,0,0.8-0.1s0.6-0.1,1-0.1v4.1
				c-0.9,0.2-1.5,0.4-2,0.5c-0.5,0.1-1.1,0.1-1.9,0.1c-1.9,0-3.3-0.7-4.2-2.1c-0.5-0.7-0.8-1.8-1-3.1c-1.1,1.5-2.8,2.8-4.9,3.9
				s-4.5,1.6-7,1.6c-3.1,0-5.6-0.9-7.6-2.8s-2.9-4.2-2.9-7c0-3.1,1-5.5,2.9-7.2c1.9-1.7,4.5-2.7,7.6-3.1L242.1,25.5z M230.3,40.6
				c1.2,0.9,2.6,1.4,4.2,1.4c2,0,3.9-0.4,5.7-1.4c3.1-1.5,4.7-4,4.7-7.4v-4.5c-0.7,0.4-1.6,0.8-2.6,1.1s-2.1,0.5-3.2,0.6l-3.4,0.4
				c-2,0.3-3.5,0.7-4.6,1.3c-1.7,1-2.6,2.5-2.6,4.6C228.5,38.4,229.1,39.6,230.3,40.6z"/>
		</g>
	</g>
</g>
</svg>
