
<svg xmlns="http://www.w3.org/2000/svg" version="1.1" xmlns:xlink="http://www.w3.org/1999/xlink" preserveAspectRatio="none" x="0px" y="0px" width="310px" height="110px" viewBox="0 0 310 110">
<defs>
<g id="psc_logo_0_Layer0_0_FILL">
<path fill="#068107" stroke="none" d="
M 106.2 54.7
L 143.6 69.65 143.6 39.75 106.2 54.7
M -10.35 149.45
L -19.95 153.25 -6.9 158.45 -6.9 150.85 -10.35 149.45
M -33.4 147.9
L -23.9 144.1 -33.45 140.3 -33.45 147.9 -33.4 147.9
M -100.35 57
L -139.9 41.2 -139.9 117.1 -100.35 101.35 -100.35 57
M -139.9 -37.75
L -139.9 -4.55 -98.3 -21.15 -139.9 -37.75
M 2.55 -61.4
L 44.2 -78.05 44.2 -155.3 -94.2 -100.05 2.55 -61.4 Z"/>

<path fill="#069D0A" stroke="none" d="
M -40 111
L -20 119 0 126.95 143.6 69.65 106.2 54.7 0 97.05 -2.55 96.05 -40 111
M -98.3 -21.15
L -139.9 -4.55 -40.2 35.25 -40.2 2.05 -98.3 -21.15
M 185.35 -22.7
L 144.55 -39 42 1.95 42.05 34.55 185.35 -22.7 Z"/>

<path fill="#3EEB3D" stroke="none" d="
M -6.9 143.05
L -19.95 137.85 -20 137.85 -20 145.65 -10.35 149.45 -6.9 150.85 -6.9 158.45 -19.95 153.25 -20 153.25 -20 165 0 172.95 0 126.95 -20 119 -20 130.2 -10.35 134.05 -6.9 135.4 -6.9 143.05
M -40 111
L -40 122.2 -30.4 126.05 -26.9 127.45 -26.9 135.1 -40 129.85 -40 157 -20 165 -20 153.25 -33.4 147.9 -33.45 147.9 -33.45 140.3 -23.9 144.1 -20 145.65 -20 137.85 -20 130.2 -20 119 -40 111
M 44.2 -155.3
L 0 -172.95 -185.35 -98.95 -183.85 -98.35 0 -24.95 184.15 -98.5 185.35 -98.95 141.15 -116.6 2.8 -61.3 2.55 -61.4 -94.2 -100.05 44.2 -155.3 Z"/>

<path fill="#069106" stroke="none" d="
M -10.35 134.05
L -19.95 137.85 -6.9 143.05 -6.9 135.4 -10.35 134.05
M -26.9 127.45
L -30.4 126.05 -40 129.85 -26.9 135.1 -26.9 127.45
M -23.9 144.1
L -33.4 147.9 -20 153.25 -19.95 153.25 -10.35 149.45 -20 145.65 -23.9 144.1 Z"/>

<path fill="#06D705" stroke="none" d="
M -20 130.2
L -20 137.85 -19.95 137.85 -10.35 134.05 -20 130.2
M -183.85 -98.35
L -185.35 -98.95 -185.35 98.95 -139.9 117.1 -139.9 41.2 -100.35 57 -2.55 96.05 0 97.05 0 -24.95 -183.85 -98.35
M -139.9 -4.55
L -139.9 -37.75 -98.3 -21.15 -40.2 2.05 -40.2 35.25 -139.9 -4.55
M 185.35 -98.95
L 184.15 -98.5 0 -24.95 0 97.05 106.2 54.7 143.6 39.75 143.6 69.65 0 126.95 0 172.95 185.35 98.95 185.35 -22.7 42.05 34.55 42 1.95 144.55 -39 185.35 -55.3 185.35 -98.95 Z"/>
</g>

<g id="logoiso_black_0_Layer0_0_MEMBER_1_FILL">
<path fill="#069D0A" stroke="none" d="
M 50.85 23.45
L 50.85 7.5 24.35 7.5 24.35 34.95 29.8 34.95 29.8 23.45 50.85 23.45
M 45.4 12.95
L 45.4 18 29.8 18 29.8 12.95 45.4 12.95
M 85.8 12.95
L 85.8 7.5 59.35 7.5 59.35 23.95 80.4 23.95 80.4 29.5 59.35 29.5 59.35 34.95 85.7 34.95 85.75 18.5 64.8 18.5 64.8 12.95 85.8 12.95
M 121.75 12.95
L 121.75 7.5 94.3 7.5 94.3 34.95 121.75 34.95 121.75 29.5 99.75 29.5 99.75 12.95 121.75 12.95
M 140.95 22.05
L 140.95 24.65 147.05 24.65 147.05 27.25 140.95 27.25 140.95 29.8 147.05 29.8 147.05 32.4 140.95 32.4 140.95 34.95 149.65 34.95 149.65 22.05 140.95 22.05
M 130.15 22.05
L 130.15 24.65 136.25 24.65 136.25 27.25 130.15 27.25 130.2 34.95 138.85 34.95 138.85 32.4 132.55 32.4 132.55 29.8 138.85 29.8 138.85 22.05 130.15 22.05 Z"/>
</g>

<g id="paleta_0_Layer0_0_FILL">
<path fill="#3EEB3D" stroke="none" d="
M 72.65 -102.7
Q 65.35 -110 55 -110 44.65 -110 37.3 -102.7 30 -95.35 30 -85 30 -74.65 37.3 -67.35 44.65 -60 55 -60 65.35 -60 72.65 -67.35 80 -74.65 80 -85 80 -95.35 72.65 -102.7 Z"/>
</g>

<g id="paleta_0_Layer0_1_FILL">
<path fill="#06D705" stroke="none" d="
M 72.65 -102.7
Q 65.35 -110 55 -110 44.65 -110 37.3 -102.7 30 -95.35 30 -85 30 -74.65 37.3 -67.35 44.65 -60 55 -60 65.35 -60 72.65 -67.35 80 -74.65 80 -85 80 -95.35 72.65 -102.7 Z"/>
</g>

<g id="paleta_0_Layer0_2_FILL">
<path fill="#069D0A" stroke="none" d="
M 72.65 -102.7
Q 65.35 -110 55 -110 44.65 -110 37.3 -102.7 30 -95.35 30 -85 30 -74.65 37.3 -67.35 44.65 -60 55 -60 65.35 -60 72.65 -67.35 80 -74.65 80 -85 80 -95.35 72.65 -102.7 Z"/>
</g>

<g id="paleta_0_Layer0_3_FILL">
<path fill="#068107" stroke="none" d="
M 72.65 -102.7
Q 65.35 -110 55 -110 44.65 -110 37.3 -102.7 30 -95.35 30 -85 30 -74.65 37.3 -67.35 44.65 -60 55 -60 65.35 -60 72.65 -67.35 80 -74.65 80 -85 80 -95.35 72.65 -102.7 Z"/>
</g>

<g id="paleta_0_Layer0_4_FILL">
<path fill="#83ED88" stroke="none" d="
M 72.65 -102.7
Q 65.35 -110 55 -110 44.65 -110 37.3 -102.7 30 -95.35 30 -85 30 -74.65 37.3 -67.35 44.65 -60 55 -60 65.35 -60 72.65 -67.35 80 -74.65 80 -85 80 -95.35 72.65 -102.7 Z"/>
</g>

<g id="paleta_0_Layer0_5_FILL">
<path fill="#5A708F" stroke="none" d="
M 72.65 -102.7
Q 65.35 -110 55 -110 44.65 -110 37.3 -102.7 30 -95.35 30 -85 30 -74.65 37.3 -67.35 44.65 -60 55 -60 65.35 -60 72.65 -67.35 80 -74.65 80 -85 80 -95.35 72.65 -102.7 Z"/>
</g>

<g id="paleta_0_Layer0_6_FILL">
<path fill="#374D6B" stroke="none" d="
M 72.65 -102.7
Q 65.35 -110 55 -110 44.65 -110 37.3 -102.7 30 -95.35 30 -85 30 -74.65 37.3 -67.35 44.65 -60 55 -60 65.35 -60 72.65 -67.35 80 -74.65 80 -85 80 -95.35 72.65 -102.7 Z"/>
</g>

<g id="paleta_0_Layer0_7_FILL">
<path fill="#05090D" stroke="none" d="
M 72.65 -102.7
Q 65.35 -110 55 -110 44.65 -110 37.3 -102.7 30 -95.35 30 -85 30 -74.65 37.3 -67.35 44.65 -60 55 -60 65.35 -60 72.65 -67.35 80 -74.65 80 -85 80 -95.35 72.65 -102.7 Z"/>
</g>

<g id="paleta_0_Layer0_8_FILL">
<path fill="#191F27" stroke="none" d="
M 72.65 -102.7
Q 65.35 -110 55 -110 44.65 -110 37.3 -102.7 30 -95.35 30 -85 30 -74.65 37.3 -67.35 44.65 -60 55 -60 65.35 -60 72.65 -67.35 80 -74.65 80 -85 80 -95.35 72.65 -102.7 Z"/>
</g>

<g id="paleta_0_Layer0_9_FILL">
<path fill="#88A0C2" stroke="none" d="
M 72.65 -102.7
Q 65.35 -110 55 -110 44.65 -110 37.3 -102.7 30 -95.35 30 -85 30 -74.65 37.3 -67.35 44.65 -60 55 -60 65.35 -60 72.65 -67.35 80 -74.65 80 -85 80 -95.35 72.65 -102.7 Z"/>
</g>

<path id="psc_logo_0_Layer0_0_1_STROKES" stroke="#83ED88" stroke-width="1" stroke-linejoin="round" stroke-linecap="round" fill="none" d="
M -183.85 -98.35
L 0 -24.95 184.15 -98.475
M 0 -24.95
L 0 97.05"/>

<path id="psc_logo_0_Layer0_0_2_STROKES" stroke="#069D0A" stroke-width="1" stroke-linejoin="round" stroke-linecap="round" fill="none" d="
M 0 172.95
L -20 165 -40 157 -40 129.85 -30.4 126.05 -40 122.2 -40 111 -2.55 96.05
M -98.3 -21.15
L -40.2 2.05 -40.2 35.25 -139.9 -4.55 -98.3 -21.15 Z
M -23.9 144.1
L -33.45 140.3 -33.45 147.9 -33.4 147.9 -20 153.25 -19.95 153.25
M -10.35 149.45
L -20 145.65 -23.9 144.1
M -30.4 126.05
L -26.9 127.45 -26.9 135.1 -40 129.85
M -20 130.2
L -20 119 -40 111
M -19.95 137.85
L -10.35 134.05 -20 130.2
M -10.35 134.05
L -6.9 135.4 -6.9 143.05 -19.95 137.85 -20 137.85 -20 145.65
M -20 153.25
L -20 165
M -10.35 149.45
L -6.9 150.85 -6.9 158.45 -19.95 153.25
M 106.2 54.7
L 143.6 69.65 0 126.95 0 172.95
M 0 126.95
L -20 119"/>

<path id="psc_logo_0_Layer0_0_3_STROKES" stroke="#06D705" stroke-width="1" stroke-linejoin="round" stroke-linecap="round" fill="none" d="
M -100.35 57
L -2.55 96.05
M 106.2 54.7
L 0 97.05 -2.55 96.05
M 106.2 54.7
L 143.6 39.75 143.6 69.65"/>

<path id="logoiso_black_0_Layer0_0_1_STROKES" stroke="#068107" stroke-width="2" stroke-linejoin="round" stroke-linecap="round" fill="none" d="
M -4.8 -40.1
L -4.8 40.15"/>
</defs>

<g transform="matrix( 1, 0, 0, 1, 1466.15,593.55) ">
<g transform="matrix( 1, 0, 0, 1, 0,0) ">
<use xlink:href="#psc_logo_0_Layer0_0_FILL"/>

<use xlink:href="#psc_logo_0_Layer0_0_1_STROKES"/>

<use xlink:href="#psc_logo_0_Layer0_0_2_STROKES"/>

<use xlink:href="#psc_logo_0_Layer0_0_3_STROKES"/>
</g>
</g>

<g transform="matrix( 1.0106353759765625, 0, 0, 1.009979248046875, 153.75,55) ">
<g transform="matrix( 1, 0, 0, 1, 0,0) ">
<use xlink:href="#logoiso_black_0_Layer0_0_1_STROKES"/>
</g>

<g transform="matrix( 0.3039703369140625, 0, 0, 0.303924560546875, -90.85,0) ">
<g transform="matrix( 1, 0, 0, 1, 0,0) ">
<use xlink:href="#psc_logo_0_Layer0_0_FILL"/>

<use xlink:href="#psc_logo_0_Layer0_0_1_STROKES"/>

<use xlink:href="#psc_logo_0_Layer0_0_2_STROKES"/>

<use xlink:href="#psc_logo_0_Layer0_0_3_STROKES"/>
</g>
</g>

<g transform="matrix( 1, 0, 0, 1, 0,0) ">
<use xlink:href="#logoiso_black_0_Layer0_0_MEMBER_1_FILL"/>
</g>

<g transform="matrix( 0.6536712646484375, 0, 0, 0.6526031494140625, 25.2,-33.65) ">
<clipPath id="Mask_Mask_1">
<rect x="-2" y="-2" width="101" height="55.25" fill="#FFFFFF" stroke="none"/>
</clipPath>

<text clip-path="url(#Mask_Mask_1)" writing-mode="lr"><tspan x="0" y="12.9" baseline-shift="0%" font-family="Century Gothic" font-weight="bold" font-size="13" fill="#191F27" xml:space="preserve">GESTION </tspan><tspan x="0" y="30.65" baseline-shift="0%" font-family="Century Gothic" font-weight="bold" font-size="13" fill="#191F27" xml:space="preserve">RESPONSABLE </tspan><tspan x="0" y="48.4" baseline-shift="0%" font-family="Century Gothic" font-weight="bold" font-size="13" fill="#191F27" xml:space="preserve">DE RESIDUOS</tspan></text>
</g>
</g>

<g transform="matrix( 1, 0, 0, 1, 115,-121.9) ">
<g transform="matrix( 1, 0, 0, 1, -115,53.1) ">
<use xlink:href="#paleta_0_Layer0_0_FILL"/>
</g>

<g transform="matrix( 1, 0, 0, 1, -52.5,53.1) ">
<use xlink:href="#paleta_0_Layer0_1_FILL"/>
</g>

<g transform="matrix( 1, 0, 0, 1, 10,53.1) ">
<use xlink:href="#paleta_0_Layer0_2_FILL"/>
</g>

<g transform="matrix( 1, 0, 0, 1, 70,53.1) ">
<use xlink:href="#paleta_0_Layer0_3_FILL"/>
</g>

<g transform="matrix( 1, 0, 0, 1, -180,53.1) ">
<use xlink:href="#paleta_0_Layer0_4_FILL"/>
</g>

<g transform="matrix( 1, 0, 0, 1, -115,116.9) ">
<use xlink:href="#paleta_0_Layer0_5_FILL"/>
</g>

<g transform="matrix( 1, 0, 0, 1, -52.5,116.9) ">
<use xlink:href="#paleta_0_Layer0_6_FILL"/>
</g>

<g transform="matrix( 1, 0, 0, 1, 70,116.9) ">
<use xlink:href="#paleta_0_Layer0_7_FILL"/>
</g>

<g transform="matrix( 1, 0, 0, 1, 10,116.9) ">
<use xlink:href="#paleta_0_Layer0_8_FILL"/>
</g>

<g transform="matrix( 1, 0, 0, 1, -180,116.9) ">
<use xlink:href="#paleta_0_Layer0_9_FILL"/>
</g>
</g>
</svg>
