
<svg xmlns="http://www.w3.org/2000/svg" version="1.1" xmlns:xlink="http://www.w3.org/1999/xlink" preserveAspectRatio="none" x="0px" y="0px" width="122px" height="158px" viewBox="0 0 122 158">
<defs>
<g id="tachos_camion_5_Layer0_0_MEMBER_0_FILL">
<path fill="#D52D20" stroke="none" d="
M -32.75 -60.9
Q -34.8 -62.95 -37.7 -62.95
L -59.75 -62.95
Q -62.65 -62.95 -64.7 -60.9 -66.75 -58.85 -66.75 -55.95
L -57.05 210.9
Q -39.25 211.95 -18.15 212.1
L -30.7 -55.95
Q -30.7 -58.85 -32.75 -60.9
M -115.95 -61.65
Q -115.95 -64.65 -118.95 -64.65
L -127.1 -64.65
Q -130.1 -64.65 -130.1 -61.65
L -103.2 202.65
Q -101.4 204.8 -98.9 206.35 -93.1 207.35 -86.7 208.2
L -115.95 -61.65
M -49.35 -105.3
Q -33.45 -106.05 -35.35 -112.4 -82.95 -111.4 -131.25 -107.85 -116.45 -101.6 -49.35 -105.3
M 127.85 -64.65
L 122.95 -64.65
Q 120.1 -64.2 119.25 -60.8
L 88.65 208.15
Q 92.25 207.9 95.9 207.65 100.3 206.15 103.35 202.05
L 130.9 -61.5
Q 131.1 -64.9 127.85 -64.65
M 68.2 -63.3
L 43.6 -63.3
Q 40.4 -63.3 38.15 -61.05 35.9 -58.8 35.9 -55.6
L 24.25 211.45 25 211.45
Q 42.45 210.9 61.6 209.85
L 70.2 -61.3
Q 70.2 -63.3 68.2 -63.3
M 41.5 -112.3
Q 39.7 -106.05 55.5 -105.3 120.2 -101.75 136.3 -107.4 89.25 -111.2 41.5 -112.3 Z"/>

<path fill="#F72502" stroke="none" d="
M 138.9 -107.2
Q 137.6 -107.3 136.3 -107.4 120.2 -101.75 55.5 -105.3 39.7 -106.05 41.5 -112.3 3.3 -113.2 -35.35 -112.4 -33.45 -106.05 -49.35 -105.3 -116.45 -101.6 -131.25 -107.85 -135.5 -107.55 -139.8 -107.2
L -107.65 192.15
Q -106.7 198.5 -103.2 202.65
L -130.1 -61.65
Q -130.1 -64.65 -127.1 -64.65
L -118.95 -64.65
Q -115.95 -64.65 -115.95 -61.65
L -86.7 208.2
Q -73.2 209.95 -57.05 210.9
L -66.75 -55.95
Q -66.75 -58.85 -64.7 -60.9 -62.65 -62.95 -59.75 -62.95
L -37.7 -62.95
Q -34.8 -62.95 -32.75 -60.9 -30.7 -58.85 -30.7 -55.95
L -18.15 212.1
Q 1.6 212.2 24.25 211.5
L 24.25 211.45 35.9 -55.6
Q 35.9 -58.8 38.15 -61.05 40.4 -63.3 43.6 -63.3
L 68.2 -63.3
Q 70.2 -63.3 70.2 -61.3
L 61.6 209.85
Q 74.7 209.1 88.65 208.15
L 119.25 -60.8
Q 120.1 -64.2 122.95 -64.65
L 127.85 -64.65
Q 131.1 -64.9 130.9 -61.5
L 103.35 202.05
Q 106.1 198.2 107.65 192.15 108.85 172.65 113.95 132.2 122.85 60.95 138.9 -107.2 Z"/>
</g>

<g id="tachos_camion_5_Layer0_0_MEMBER_1_FILL">
<path fill="#000000" fill-opacity="0.17647058823529413" stroke="none" d="
M 138.9 -107.75
Q 137.6 -107.85 136.3 -107.95 89.25 -111.75 41.5 -112.85 16.3 -113.45 -9.05 -113.3 -22.15 -113.2 -35.35 -112.95 -82.95 -111.95 -131.25 -108.4 -135.5 -108.1 -139.8 -107.75
L -138.8 -98.75
Q -0.4 -111.2 138.05 -98.75 138.45 -103.2 138.9 -107.75 Z"/>
</g>

<g id="tachos_camion_5_Layer0_0_MEMBER_2_FILL">
<path fill="#F72502" stroke="none" d="
M -69.2 -141.15
Q -69.35 -159.9 -53.75 -176.45 -76.85 -175.55 -96.05 -173.7 -99.8 -173.35 -103.15 -172.9 -104.55 -172.7 -105.85 -172.6 -106.1 -172.55 -106.35 -172.55 -107.5 -172.4 -108.65 -172.25 -118.65 -170.6 -126.2 -162.75 -127.35 -161.55 -128.3 -160.3 -135.7 -151.1 -135.7 -138.7
L -135.6 -136.6
Q -130.65 -137.15 -125.1 -137.65 -99.6 -140 -69.2 -141.15
M 30.5 -177.2
Q 16.05 -177.5 0.35 -177.5 -13.5 -177.5 -26.3 -177.25 -31.55 -159.7 -29.7 -142.1 -12.3 -142.35 6.45 -142.25 22.4 -142.15 37.4 -141.85 38.1 -160.5 30.5 -177.2
M 155.85 -134.25
Q 153.65 -134.55 151.3 -134.85 145.1 -135.6 137.95 -136.35 136.9 -136.45 135.85 -136.55 107.65 -139.3 73.55 -140.75 56.25 -141.5 37.4 -141.85 22.4 -142.15 6.45 -142.25 -12.3 -142.35 -29.7 -142.1 -50.4 -141.85 -69.2 -141.15 -99.6 -140 -125.1 -137.65 -130.65 -137.15 -135.6 -136.6 -135.65 -136.6 -135.7 -136.6 -143.55 -135.75 -150 -134.85 -153.6 -134.35 -156.75 -133.85 -158.85 -132.4 -158.85 -128.85
L -158.85 -110.3
Q -158.65 -110.25 -158.45 -110.15 -149.15 -111.5 -135.7 -112.75 -131.8 -113.1 -127.55 -113.45 -126.35 -113.55 -125.1 -113.65 -70.6 -117.9 6.45 -117.9 82 -117.9 135.85 -113.8 136.9 -113.75 137.95 -113.65 143 -113.25 147.6 -112.85 153.55 -112.3 158.7 -111.75
L 158.7 -128.85
Q 158.7 -133 155.85 -134.25
M 128.75 -159.9
Q 127.65 -161.35 126.3 -162.75 119 -170.4 109.45 -172.35 106.85 -172.7 104 -173 103.75 -173 103.55 -173.05 100.45 -173.35 97.05 -173.7 79.6 -175.35 59 -176.3 75.8 -160.95 73.55 -140.75 107.65 -139.3 135.85 -136.55
L 135.85 -138.7
Q 135.85 -150.7 128.95 -159.7 128.9 -159.75 128.85 -159.8 128.8 -159.85 128.75 -159.9
M 41.1 -207.7
Q 36.8 -212.1 30.7 -212.1
L -30.9 -212.1
Q -37 -212.1 -41.3 -207.7 -45.6 -203.3 -45.6 -197.1
L -45.6 -176.75
Q -36.25 -177.1 -26.3 -177.25 -13.5 -177.5 0.35 -177.5 16.05 -177.5 30.5 -177.2 38.15 -177.05 45.4 -176.8
L 45.4 -197.1
Q 45.4 -203.3 41.1 -207.7 Z"/>

<path fill="#D52D20" stroke="none" d="
M -45.6 -176.75
Q -49.75 -176.65 -53.75 -176.45 -69.35 -159.9 -69.2 -141.15 -50.4 -141.85 -29.7 -142.1 -31.55 -159.7 -26.3 -177.25 -36.25 -177.1 -45.6 -176.75
M 59 -176.3
Q 52.35 -176.6 45.4 -176.8 38.15 -177.05 30.5 -177.2 38.1 -160.5 37.4 -141.85 56.25 -141.5 73.55 -140.75 75.8 -160.95 59 -176.3
M 135.85 -107.05
Q 136.9 -107 137.95 -106.9 152.45 -105.75 163.1 -104.5 166.55 -110.6 158.7 -111.75 153.55 -112.3 147.6 -112.85 143 -113.25 137.95 -113.65 136.9 -113.75 135.85 -113.8 82 -117.9 6.45 -117.9 -70.6 -117.9 -125.1 -113.65 -126.35 -113.55 -127.55 -113.45 -131.8 -113.1 -135.7 -112.75 -149.15 -111.5 -158.45 -110.15
L -158.85 -110.15 -158.85 -110.3
Q -166.3 -108.85 -163.35 -105.45 -161.15 -102.9 -150.2 -104.5 -143.7 -105.25 -135.7 -106 -130.7 -106.45 -125.1 -106.9 -103.45 -108.6 -78.25 -109.6 -70.75 -109.9 -62.9 -110.15 -30.85 -111.15 6.45 -111.15 43.8 -111.15 75.85 -110.15 88.5 -109.75 100.4 -109.2 119.15 -108.35 135.85 -107.05 Z"/>
</g>

<path id="tachos_camion_5_Layer0_0_1_STROKES" stroke="#005DA6" stroke-opacity="0.3686274509803922" stroke-width="1" stroke-linejoin="round" stroke-linecap="round" fill="none" d="
M 4.95 -5.7
L -5.05 4.3"/>

<path id="tachos_camion_5_Layer0_0_MEMBER_2_1_STROKES" stroke="#FFFFFF" stroke-opacity="0.24705882352941178" stroke-width="1" stroke-linejoin="round" stroke-linecap="round" fill="none" d="
M -45.6 -176.75
Q -36.25 -177.1 -26.3 -177.25 -13.5 -177.5 0.35 -177.5 16.05 -177.5 30.5 -177.2 38.15 -177.05 45.4 -176.8
M -29.7 -142.1
Q -12.3 -142.35 6.45 -142.25 22.4 -142.15 37.4 -141.85 56.25 -141.5 73.55 -140.75 107.65 -139.3 135.85 -136.55
M -29.7 -142.1
Q -50.4 -141.85 -69.2 -141.15 -99.6 -140 -125.1 -137.65 -130.65 -137.15 -135.6 -136.6"/>
</defs>

<g transform="matrix( 0.36529541015625, 0, 0, 0.36529541015625, 60,80.5) ">
<g transform="matrix( 1, 0, 0, 1, 0,0) ">
<use xlink:href="#tachos_camion_5_Layer0_0_1_STROKES"/>
</g>

<g transform="matrix( 1, 0, 0, 1, 0,0) ">
<use xlink:href="#tachos_camion_5_Layer0_0_MEMBER_0_FILL"/>
</g>

<g transform="matrix( 1, 0, 0, 1, 0,0) ">
<use xlink:href="#tachos_camion_5_Layer0_0_MEMBER_1_FILL"/>
</g>

<g transform="matrix( 1, 0, 0, 1, 0,0) ">
<use xlink:href="#tachos_camion_5_Layer0_0_MEMBER_2_FILL"/>

<use xlink:href="#tachos_camion_5_Layer0_0_MEMBER_2_1_STROKES"/>
</g>
</g>
</svg>
