
<svg xmlns="http://www.w3.org/2000/svg" version="1.1" xmlns:xlink="http://www.w3.org/1999/xlink" preserveAspectRatio="none" x="0px" y="0px" width="122px" height="158px" viewBox="0 0 122 158">
<defs>
<g id="tachos_camion_4_Layer0_0_MEMBER_0_FILL">
<path fill="#057755" stroke="none" d="
M -32.7 -60.9
Q -34.75 -62.95 -37.65 -62.95
L -59.7 -62.95
Q -62.6 -62.95 -64.65 -60.9 -66.7 -58.85 -66.7 -55.95
L -57 210.9
Q -39.2 211.95 -18.1 212.1
L -30.65 -55.95
Q -30.65 -58.85 -32.7 -60.9
M -115.9 -61.65
Q -115.9 -64.65 -118.9 -64.65
L -127.05 -64.65
Q -130.05 -64.65 -130.05 -61.65
L -103.15 202.65
Q -101.35 204.8 -98.85 206.35 -93.05 207.35 -86.65 208.2
L -115.9 -61.65
M -49.3 -105.3
Q -33.4 -106.05 -35.3 -112.4 -82.9 -111.4 -131.2 -107.85 -116.4 -101.6 -49.3 -105.3
M 127.9 -64.65
L 123 -64.65
Q 120.15 -64.2 119.3 -60.8
L 88.7 208.15
Q 92.3 207.9 95.95 207.65 100.35 206.15 103.4 202.05
L 130.95 -61.5
Q 131.15 -64.9 127.9 -64.65
M 68.25 -63.3
L 43.65 -63.3
Q 40.45 -63.3 38.2 -61.05 35.95 -58.8 35.95 -55.6
L 24.3 211.45 25.05 211.45
Q 42.5 210.9 61.65 209.85
L 70.25 -61.3
Q 70.25 -63.3 68.25 -63.3
M 41.55 -112.3
Q 39.75 -106.05 55.55 -105.3 120.25 -101.75 136.35 -107.4 89.3 -111.2 41.55 -112.3 Z"/>

<path fill="#01A67B" stroke="none" d="
M 138.95 -107.2
Q 137.65 -107.3 136.35 -107.4 120.25 -101.75 55.55 -105.3 39.75 -106.05 41.55 -112.3 3.35 -113.2 -35.3 -112.4 -33.4 -106.05 -49.3 -105.3 -116.4 -101.6 -131.2 -107.85 -135.45 -107.55 -139.75 -107.2
L -107.6 192.15
Q -106.65 198.5 -103.15 202.65
L -130.05 -61.65
Q -130.05 -64.65 -127.05 -64.65
L -118.9 -64.65
Q -115.9 -64.65 -115.9 -61.65
L -86.65 208.2
Q -73.15 209.95 -57 210.9
L -66.7 -55.95
Q -66.7 -58.85 -64.65 -60.9 -62.6 -62.95 -59.7 -62.95
L -37.65 -62.95
Q -34.75 -62.95 -32.7 -60.9 -30.65 -58.85 -30.65 -55.95
L -18.1 212.1
Q 1.65 212.2 24.3 211.5
L 24.3 211.45 35.95 -55.6
Q 35.95 -58.8 38.2 -61.05 40.45 -63.3 43.65 -63.3
L 68.25 -63.3
Q 70.25 -63.3 70.25 -61.3
L 61.65 209.85
Q 74.75 209.1 88.7 208.15
L 119.3 -60.8
Q 120.15 -64.2 123 -64.65
L 127.9 -64.65
Q 131.15 -64.9 130.95 -61.5
L 103.4 202.05
Q 106.15 198.2 107.7 192.15 108.9 172.65 114 132.2 122.9 60.95 138.95 -107.2 Z"/>
</g>

<g id="tachos_camion_4_Layer0_0_MEMBER_1_FILL">
<path fill="#000000" fill-opacity="0.17647058823529413" stroke="none" d="
M 138.95 -107.75
Q 137.65 -107.85 136.35 -107.95 89.3 -111.75 41.55 -112.85 16.35 -113.45 -9 -113.3 -22.1 -113.2 -35.3 -112.95 -82.9 -111.95 -131.2 -108.4 -135.45 -108.1 -139.75 -107.75
L -138.75 -98.75
Q -0.35 -111.2 138.1 -98.75 138.5 -103.2 138.95 -107.75 Z"/>
</g>

<g id="tachos_camion_4_Layer0_0_MEMBER_2_FILL">
<path fill="#01A67B" stroke="none" d="
M -69.15 -141.15
Q -69.3 -159.9 -53.7 -176.45 -76.8 -175.55 -96 -173.7 -99.75 -173.35 -103.1 -172.9 -104.5 -172.7 -105.8 -172.6 -106.05 -172.55 -106.3 -172.55 -107.45 -172.4 -108.6 -172.25 -118.6 -170.6 -126.15 -162.75 -127.3 -161.55 -128.25 -160.3 -135.65 -151.1 -135.65 -138.7
L -135.55 -136.6
Q -130.6 -137.15 -125.05 -137.65 -99.55 -140 -69.15 -141.15
M 30.55 -177.2
Q 16.1 -177.5 0.4 -177.5 -13.45 -177.5 -26.25 -177.25 -31.5 -159.7 -29.65 -142.1 -12.25 -142.35 6.5 -142.25 22.45 -142.15 37.45 -141.85 38.15 -160.5 30.55 -177.2
M 158.75 -128.85
Q 158.75 -133 155.9 -134.25 153.7 -134.55 151.35 -134.85 145.15 -135.6 138 -136.35 136.95 -136.45 135.9 -136.55 107.7 -139.3 73.6 -140.75 56.3 -141.5 37.45 -141.85 22.45 -142.15 6.5 -142.25 -12.25 -142.35 -29.65 -142.1 -50.35 -141.85 -69.15 -141.15 -99.55 -140 -125.05 -137.65 -130.6 -137.15 -135.55 -136.6 -135.6 -136.6 -135.65 -136.6 -143.5 -135.75 -149.95 -134.85 -153.55 -134.35 -156.7 -133.85 -158.8 -132.4 -158.8 -128.85
L -158.8 -110.3
Q -158.6 -110.25 -158.4 -110.15 -149.1 -111.5 -135.65 -112.75 -131.75 -113.1 -127.5 -113.45 -126.3 -113.55 -125.05 -113.65 -70.55 -117.9 6.5 -117.9 82.05 -117.9 135.9 -113.8 136.95 -113.75 138 -113.65 143.05 -113.25 147.65 -112.85 153.6 -112.3 158.75 -111.75
L 158.75 -128.85
M 128.8 -159.9
Q 127.7 -161.35 126.35 -162.75 119.05 -170.4 109.5 -172.35 106.9 -172.7 104.05 -173 103.8 -173 103.6 -173.05 100.5 -173.35 97.1 -173.7 79.65 -175.35 59.05 -176.3 75.85 -160.95 73.6 -140.75 107.7 -139.3 135.9 -136.55
L 135.9 -138.7
Q 135.9 -150.7 129 -159.7 128.95 -159.75 128.9 -159.8 128.85 -159.85 128.8 -159.9
M 41.15 -207.7
Q 36.85 -212.1 30.75 -212.1
L -30.85 -212.1
Q -36.95 -212.1 -41.25 -207.7 -45.55 -203.3 -45.55 -197.1
L -45.55 -176.75
Q -36.2 -177.1 -26.25 -177.25 -13.45 -177.5 0.4 -177.5 16.1 -177.5 30.55 -177.2 38.2 -177.05 45.45 -176.8
L 45.45 -197.1
Q 45.45 -203.3 41.15 -207.7 Z"/>

<path fill="#057755" stroke="none" d="
M -45.55 -176.75
Q -49.7 -176.65 -53.7 -176.45 -69.3 -159.9 -69.15 -141.15 -50.35 -141.85 -29.65 -142.1 -31.5 -159.7 -26.25 -177.25 -36.2 -177.1 -45.55 -176.75
M 59.05 -176.3
Q 52.4 -176.6 45.45 -176.8 38.2 -177.05 30.55 -177.2 38.15 -160.5 37.45 -141.85 56.3 -141.5 73.6 -140.75 75.85 -160.95 59.05 -176.3
M 135.9 -107.05
Q 136.95 -107 138 -106.9 152.5 -105.75 163.15 -104.5 166.6 -110.6 158.75 -111.75 153.6 -112.3 147.65 -112.85 143.05 -113.25 138 -113.65 136.95 -113.75 135.9 -113.8 82.05 -117.9 6.5 -117.9 -70.55 -117.9 -125.05 -113.65 -126.3 -113.55 -127.5 -113.45 -131.75 -113.1 -135.65 -112.75 -149.1 -111.5 -158.4 -110.15
L -158.8 -110.15 -158.8 -110.3
Q -166.25 -108.85 -163.3 -105.45 -161.1 -102.9 -150.15 -104.5 -143.65 -105.25 -135.65 -106 -130.65 -106.45 -125.05 -106.9 -103.4 -108.6 -78.2 -109.6 -70.7 -109.9 -62.85 -110.15 -30.8 -111.15 6.5 -111.15 43.85 -111.15 75.9 -110.15 88.55 -109.75 100.45 -109.2 119.2 -108.35 135.9 -107.05 Z"/>
</g>

<path id="tachos_camion_4_Layer0_0_1_STROKES" stroke="#005DA6" stroke-opacity="0.3686274509803922" stroke-width="1" stroke-linejoin="round" stroke-linecap="round" fill="none" d="
M 5 -5.7
L -5 4.3"/>

<path id="tachos_camion_4_Layer0_0_MEMBER_2_1_STROKES" stroke="#FFFFFF" stroke-opacity="0.24705882352941178" stroke-width="1" stroke-linejoin="round" stroke-linecap="round" fill="none" d="
M -45.55 -176.75
Q -36.2 -177.1 -26.25 -177.25 -13.45 -177.5 0.4 -177.5 16.1 -177.5 30.55 -177.2 38.2 -177.05 45.45 -176.8
M -29.65 -142.1
Q -12.25 -142.35 6.5 -142.25 22.45 -142.15 37.45 -141.85 56.3 -141.5 73.6 -140.75 107.7 -139.3 135.9 -136.55
M -29.65 -142.1
Q -50.35 -141.85 -69.15 -141.15 -99.55 -140 -125.05 -137.65 -130.6 -137.15 -135.55 -136.6"/>
</defs>

<g transform="matrix( 0.36529541015625, 0, 0, 0.36529541015625, 61,79) ">
<g transform="matrix( 1, 0, 0, 1, 0,0) ">
<use xlink:href="#tachos_camion_4_Layer0_0_1_STROKES"/>
</g>

<g transform="matrix( 1, 0, 0, 1, 0,0) ">
<use xlink:href="#tachos_camion_4_Layer0_0_MEMBER_0_FILL"/>
</g>

<g transform="matrix( 1, 0, 0, 1, 0,0) ">
<use xlink:href="#tachos_camion_4_Layer0_0_MEMBER_1_FILL"/>
</g>

<g transform="matrix( 1, 0, 0, 1, 0,0) ">
<use xlink:href="#tachos_camion_4_Layer0_0_MEMBER_2_FILL"/>

<use xlink:href="#tachos_camion_4_Layer0_0_MEMBER_2_1_STROKES"/>
</g>
</g>
</svg>
