
<svg xmlns="http://www.w3.org/2000/svg" version="1.1" xmlns:xlink="http://www.w3.org/1999/xlink" preserveAspectRatio="none" x="0px" y="0px" width="795px" height="951px" viewBox="0 0 795 951">
<defs>
<g id="Layer0_0_FILL">
<path fill="#FFFFFF" stroke="none" d="
M 108.6 663.25
L 108.5 663.25 108.5 663.35 112.65 672 112.7 672.2 118.7 683.65
Q 121.3 688.5 124.7 694.1
L 137.85 714.4 151.3 732.5 151.5 732.7 151.75 733.05 156.3 738.6
Q 156.8 739.25 157.05 739.55
L 170.55 754.9 188.1 772.35
Q 192.6 776.55 196.7 780.1
L 216.65 796.05 247.15 815.95 263.05 824.5 282.75 833.55
Q 288.05 835.8 295.25 838.5
L 319.35 846.5 340.65 852
Q 345.05 853 347.25 853.4
L 376.55 858.35 384.95 859.35 385.15 859.35 399.85 860.65
Q 401.95 860.8 403.1 860.85
L 404.7 860.95
Q 405.25 860.95 405.55 861
L 412.85 861.35
Q 425.2 861.8 438.45 861.4 451.15 860.95 463.25 859.8
L 486.85 856.6
Q 498 854.75 508.85 852.15
L 529 846.75
Q 534.4 845.15 538.25 843.85
L 561.1 835.4 580.7 826.75 587 823.6 587.05 823.6 587.2 823.55 599.1 817.35 599.1 817.3
Q 606.25 813.6 612.15 808.4 615.45 805.35 618.35 801.85 619.95 800 621.4 798.05
L 730.05 873.25 724.75 544.95 415.6 655.6 517.1 725.85 507.45 733.3 507.35 733.45 507.15 733.5 506.9 733.7 493.35 742.9
Q 492.1 743.75 487.6 746.45
L 483.2 748.95 483.05 749.1 474.8 753.45
Q 467.5 757.2 460.35 760.3
L 444.15 766.7
Q 435.35 769.8 426.35 772.3 416.45 775.05 407.1 776.9
L 385.5 780.55 385.6 780.55 385.4 780.6 378.15 781.4 378.05 781.45 377.85 781.45 370.45 782.15
Q 366.85 782.5 365.05 782.6 363.2 782.75 359.6 782.9 354.3 783.15 354.15 783.15
L 337.95 783.3 337.6 783.25 326.5 782.8
Q 324.65 782.7 323.7 782.65
L 309.85 781.35
Q 304.75 780.7 298.8 779.75
L 285.1 777.15 271.6 773.9 257.65 769.75 235.25 761.25
Q 216.25 753.15 197.85 742
L 187.8 735.65 169.8 722.9
Q 168.6 721.95 167.95 721.55
L 164.95 719.2
Q 164.95 719.15 164.9 719.15
L 157 712.75 156.8 712.55 148.95 705.9
Q 148.75 705.65 148.25 705.2
L 131.25 689.05
Q 126.8 684.4 123.15 680.45
L 121.45 678.5 121.2 678.3 114.95 671.05 114.8 670.85 114.65 670.7 108.6 663.25
M 665.75 334.55
Q 662.95 328.45 660.05 322.9 656.4 315.7 652.7 309.4
L 638.3 286.45
Q 635 281.7 632.55 278.25
L 613.15 253.8 604.4 244
Q 595.75 234.7 587.1 226.65 577.75 217.85 567.6 209.65 562.65 205.7 557 201.5
L 544.4 192.7 534.15 186.15
Q 529.2 183.1 521.95 179.05
L 507.35 171.45 496.3 166.3
Q 490.6 163.75 482.9 160.7
L 469.2 155.7
Q 461.6 153.15 455.25 151.3
L 426.95 144.2
Q 418.65 142.5 412.7 141.5 405.4 140.3 398.45 139.4
L 385.8 137.9 385.65 137.85
Q 385.35 137.85 385.2 137.85
L 384.3 137.75
Q 377.35 137.1 370.25 136.65 364.35 136.25 356.2 136.05 328.45 135.4 301.9 138.7 294.35 139.65 289.05 140.5
L 264.5 145.35
Q 257 147.2 252.95 148.3
L 232.75 154.45 212.4 162.05
Q 207.5 164.05 201.55 166.7
L 106.05 78.75 65.85 404.7 387.35 337.85 288.45 246.75 289.6 246.05
Q 293.25 244.15 297.1 242.15
L 313.55 234.85
Q 319.05 232.65 322.45 231.45 328.25 229.4 331.8 228.25 337.6 226.45 341.55 225.35 352.1 222.45 362.3 220.45 373.3 218.25 384.5 216.85
L 396.05 215.65
Q 400.85 215.15 407.65 214.8 412.85 214.5 419.45 214.4
L 435.7 214.6
Q 436.2 214.6 436.45 214.65
L 437.2 214.65
Q 438.2 214.7 438.7 214.7
L 443.2 214.95
Q 449.8 215.45 455.1 216
L 466.95 217.6
Q 472.35 218.4 478.8 219.7
L 502.1 225.4
Q 524.9 232.05 546.3 242.65
L 566.65 253.65
Q 576.25 259.35 585.45 265.7
L 596.4 273.6 618.1 291.35
Q 621.55 294.3 625.15 297.7
L 643.35 316.15
Q 648.25 321.45 653.15 327.45 657.45 332.55 661 337.4
L 674.9 357.25
Q 675 357.35 675 357.3 675.1 357.2 675.05 357.2
L 665.75 334.55 Z"/>
</g>
</defs>

<g transform="matrix( 1, 0, 0, 1, 0,0) ">
<use xlink:href="#Layer0_0_FILL"/>
</g>
</svg>
