
<svg xmlns="http://www.w3.org/2000/svg" version="1.1" xmlns:xlink="http://www.w3.org/1999/xlink" preserveAspectRatio="none" x="0px" y="0px" width="550px" height="120px" viewBox="0 0 550 120">
<defs>
<g id="Links_0_Layer2_0_FILL">
<path fill="#C1F6C4" stroke="none" d="
M 117.25 -18.55
Q 111.25 -18.55 107.85 -14.4 104.45 -10.3 104.45 -3
L 104.45 3.1
Q 104.5 10.15 107.9 14.1 111.35 18 117.3 18 123.3 18 126.7 14.05 130.1 10.1 130.1 2.9
L 130.1 -3.15
Q 130.05 -10.45 126.6 -14.5 123.2 -18.55 117.25 -18.55
M 111.6 -3.4
Q 111.65 -8 113.05 -10.25 114.4 -12.55 117.25 -12.55 120.15 -12.55 121.5 -10.2 122.9 -7.85 122.9 -3.05
L 122.9 3.15
Q 122.85 7.7 121.5 9.85 120.1 12 117.3 12 114.4 12 113 9.8 111.6 7.6 111.6 2.9
L 111.6 -3.4
M 76.3 -18.05
L 76.3 -12.05 84.95 -12.05 84.95 17.5 92.15 17.5 92.15 -12.05 100.95 -12.05 100.95 -18.05 76.3 -18.05
M 52.05 -14.55
Q 48.75 -10.6 48.75 -3.3
L 48.75 2.7
Q 48.75 10.05 51.95 14.05 55.15 18 61.2 18 66.95 18 70.1 14.85 73.25 11.75 73.5 5.65
L 66.35 5.65
Q 66.2 9.25 65.1 10.65 64.05 12.05 61.2 12.05 58.3 12.05 57.15 10.05 55.95 8.1 55.95 2.8
L 55.95 -3.95
Q 56 -8.55 57.2 -10.55 58.4 -12.6 61.3 -12.6 64.15 -12.6 65.2 -11.15 66.25 -9.7 66.35 -5.95
L 73.55 -5.95
Q 73.15 -12.05 70.15 -15.3 67.1 -18.55 61.3 -18.55 55.4 -18.55 52.05 -14.55
M 34.9 -18.05
L 28.35 -18.05 17.25 17.5 24.85 17.5 26.75 10.2 36.5 10.2 38.45 17.5 46.1 17.5 34.9 -18.05
M 34.95 4.25
L 28.3 4.25 31.6 -8.45 34.95 4.25
M 15.45 -12.05
L 15.45 -18.05 -9.2 -18.05 -9.2 -12.05 -0.55 -12.05 -0.55 17.5 6.65 17.5 6.65 -12.05 15.45 -12.05
M -13.35 -18.05
L -20.5 -18.05 -20.5 5.3 -31 -18.05 -38.2 -18.05 -38.2 17.5 -31 17.5 -31 -5.8 -20.5 17.5 -13.35 17.5 -13.35 -18.05
M -65.6 -14.4
Q -69 -10.3 -69 -3
L -69 3.1
Q -68.95 10.15 -65.55 14.1 -62.1 18 -56.15 18 -50.15 18 -46.75 14.05 -43.35 10.1 -43.35 2.9
L -43.35 -3.15
Q -43.4 -10.45 -46.85 -14.5 -50.25 -18.55 -56.2 -18.55 -62.2 -18.55 -65.6 -14.4
M -51.95 -10.2
Q -50.55 -7.85 -50.55 -3.05
L -50.55 3.15
Q -50.6 7.7 -51.95 9.85 -53.35 12 -56.15 12 -59.05 12 -60.45 9.8 -61.85 7.6 -61.85 2.9
L -61.85 -3.4
Q -61.8 -8 -60.4 -10.25 -59.05 -12.55 -56.2 -12.55 -53.3 -12.55 -51.95 -10.2
M -90.35 -3.95
Q -90.3 -8.55 -89.1 -10.55 -87.9 -12.6 -85 -12.6 -82.15 -12.6 -81.1 -11.15 -80.05 -9.7 -79.95 -5.95
L -72.75 -5.95
Q -73.15 -12.05 -76.15 -15.3 -79.2 -18.55 -85 -18.55 -90.9 -18.55 -94.25 -14.55 -97.55 -10.6 -97.55 -3.3
L -97.55 2.7
Q -97.55 10.05 -94.35 14.05 -91.15 18 -85.1 18 -79.35 18 -76.2 14.85 -73.05 11.75 -72.8 5.65
L -79.95 5.65
Q -80.1 9.25 -81.2 10.65 -82.25 12.05 -85.1 12.05 -88 12.05 -89.15 10.05 -90.35 8.1 -90.35 2.8
L -90.35 -3.95 Z"/>
</g>

<g id="Links_0_Layer0_0_MEMBER_0_MEMBER_0_MEMBER_0_MEMBER_0_FILL">
<path fill="#C1F6C4" stroke="none" d="
M 96.3 34.4
L 96.3 34.25
Q 94.95 31.15 92.55 28.15
L 91.4 26.85
Q 90.6 26.05 90.25 25.55 88.2 23.55 86.45 22.35 80.85 18.45 73.7 18.3
L 73.25 18.3
Q 68.4 18.3 64.3 20.05 62.3 20.8 60.1 22.35 58.2 23.5 56.3 25.4
L 54.85 26.85
Q 51.5 30.65 49.65 35.1 47.3 40.85 47.3 47.45 47.3 50.2 47.75 52.8 49.3 58.3 52.95 65.7 54.15 67.7 55 69.3 55.45 69.9 55.6 70.5 62.2 82.3 73.15 97.3 83.9 82.3 90.4 70.65 90.9 69.6 91.7 68.6 92.25 67.15 93 66 96.95 58.15 98.8 51.95 98.95 49.8 98.95 47.45 98.95 40.25 96.3 34.4
M 83.7 35.7
Q 88.2 40.05 88.2 46.15 88.2 52.35 83.7 56.7 79.35 61.05 73.25 61.05 67.2 61.05 62.7 56.7 58.35 52.35 58.35 46.15 58.35 40.05 62.7 35.7 67.2 31.35 73.25 31.35 79.35 31.35 83.7 35.7 Z"/>
</g>

<path id="Links_0_Layer1_0_MEMBER_0_MEMBER_0_1_STROKES" stroke="#3EEB3D" stroke-width="2" stroke-linejoin="round" stroke-linecap="round" fill="none" d="
M 145.6 10
L 145.6 110"/>
</defs>

<g transform="matrix( 1, 0, 0, 1, 273.9,64) ">
<g transform="matrix( 1, 0, 0, 1, 0,0) ">
<use xlink:href="#Links_0_Layer2_0_FILL"/>
</g>

<g transform="matrix( 1, 0, 0, 1, -275,-60) ">
<use xlink:href="#Links_0_Layer1_0_MEMBER_0_MEMBER_0_1_STROKES"/>
</g>

<g transform="matrix( 1, 0, 0, 1, -275,-60) ">
<use xlink:href="#Links_0_Layer0_0_MEMBER_0_MEMBER_0_MEMBER_0_MEMBER_0_FILL"/>
</g>
</g>
</svg>
