
<svg xmlns="http://www.w3.org/2000/svg" version="1.1" xmlns:xlink="http://www.w3.org/1999/xlink" preserveAspectRatio="none" x="0px" y="0px" width="190px" height="45px" viewBox="0 0 190 45">
<defs>
<g id="Layer1_0_FILL">
<path fill="#9DE4E4" stroke="none" d="
M -489.8 89.2
L -492.05 82.55
Q -497.1 85.2 -501.5 92.1 -505.95 99 -508.15 107.75 -510.4 116.5 -510.4 126
L -510.4 127.7
Q -510.3 137.05 -508.05 145.65 -505.85 154.3 -501.4 161.05 -497.05 167.8 -492.05 170.4
L -489.8 163.85
Q -494.75 159.1 -497.5 149.5 -500.3 139.8 -500.3 127.1
L -500.3 124.55
Q -500.2 112.3 -497.4 103 -494.6 93.7 -489.8 89.2
M -405.35 139.6
Q -407.3 137.25 -407.55 132.15
L -383.7 132.15 -383.7 126.25
Q -383.75 115.4 -388.15 109.85 -392.5 104.35 -401.15 104.35 -410.05 104.35 -414.8 110.25 -419.55 116.15 -419.55 127
L -419.55 130.65
Q -419.55 140.9 -414.35 146.45 -409.2 151.95 -399.95 151.95 -395 151.95 -390.8 150.1 -386.6 148.15 -384.4 145.1
L -389.1 137.85
Q -393.15 142 -399.15 142 -403.35 142 -405.35 139.6
M -407.5 123.75
Q -407.25 118.8 -405.8 116.55 -404.4 114.3 -401.25 114.3 -398.1 114.3 -396.85 116.45 -395.55 118.55 -395.5 122.65
L -395.5 123.75 -407.5 123.75
M -427.85 85.95
L -439.9 85.95 -439.9 151.1 -427.85 151.1 -427.85 85.95
M -447.1 89.3
L -482.5 89.3 -482.5 151.1 -447 151.1 -447 140.75 -470 140.75 -470 124.35 -450.6 124.35 -450.6 114.3 -470 114.3 -470 99.7 -447.1 99.7 -447.1 89.3
M -184.3 104.35
Q -193 104.35 -197.9 110.3 -202.85 116.2 -202.85 126.65
L -202.85 129.6
Q -202.85 140.1 -197.9 146.05 -193.05 151.95 -184.2 151.95 -175.4 151.95 -170.55 146.05 -165.65 140.15 -165.65 129.65
L -165.65 126.75
Q -165.65 116.2 -170.6 110.3 -175.5 104.35 -184.3 104.35
M -189.05 117.35
Q -187.35 114.3 -184.3 114.3 -181.1 114.3 -179.35 117.35 -177.65 120.4 -177.65 126.65
L -177.65 131.7
Q -178.15 142 -184.2 142 -190.8 142 -190.8 129.65
L -190.8 126.65
Q -190.8 120.4 -189.05 117.35
M -321.35 151.1
L -321.35 121
Q -321.65 104.35 -333.7 104.35 -341 104.35 -344.95 110.55 -347.8 104.35 -354.65 104.35 -361.25 104.35 -365.3 109.45
L -365.65 105.2 -376.9 105.2 -376.9 151.1 -364.9 151.1 -364.9 117.75
Q -363.05 114.4 -359.95 114.4 -357.25 114.4 -356.2 116.2 -355.1 117.9 -355.1 121.85
L -355.1 151.1 -343.1 151.1 -343.1 119.95 -343.2 118.5
Q -341.55 114.4 -338.2 114.4 -335.55 114.4 -334.45 116.1 -333.35 117.8 -333.35 121.8
L -333.35 151.1 -321.35 151.1
M -277.7 132.15
L -277.7 126.25
Q -277.75 115.4 -282.15 109.85 -286.5 104.35 -295.15 104.35 -304.05 104.35 -308.8 110.25 -313.55 116.15 -313.55 127
L -313.55 130.65
Q -313.55 140.9 -308.35 146.45 -303.2 151.95 -293.95 151.95 -289 151.95 -284.8 150.1 -280.6 148.15 -278.4 145.1
L -283.1 137.85
Q -287.15 142 -293.15 142 -297.35 142 -299.35 139.6 -301.3 137.25 -301.55 132.15
L -277.7 132.15
M -299.8 116.55
Q -298.4 114.3 -295.25 114.3 -292.1 114.3 -290.85 116.45 -289.55 118.55 -289.5 122.65
L -289.5 123.75 -301.5 123.75
Q -301.25 118.8 -299.8 116.55
M -259.55 109.75
L -259.9 105.2 -271.2 105.2 -271.2 151.1 -259.15 151.1 -259.15 117.75
Q -257.3 114.4 -254.05 114.4 -251.1 114.4 -249.9 116.2 -248.75 117.9 -248.75 121.8
L -248.75 151.1 -236.7 151.1 -236.7 120.95
Q -237.05 104.35 -248.9 104.35 -255.5 104.35 -259.55 109.75
M -214.15 93.9
L -226.2 93.9 -226.2 105.2 -231.5 105.2 -231.5 114.2 -226.2 114.2 -226.2 138.65
Q -226.05 151.95 -214.4 151.95 -210.85 151.95 -207.8 150.8
L -207.7 141.45
Q -208.8 141.75 -210.55 141.75 -212.7 141.75 -213.4 140.75 -214.15 139.75 -214.15 137
L -214.15 114.2 -208 114.2 -208 105.2 -214.15 105.2 -214.15 93.9
M -21.55 145.1
L -26.25 137.85
Q -30.3 142 -36.3 142 -40.5 142 -42.5 139.6 -44.45 137.25 -44.7 132.15
L -20.85 132.15 -20.85 126.25
Q -20.9 115.4 -25.3 109.85 -29.65 104.35 -38.3 104.35 -47.2 104.35 -51.95 110.25 -56.7 116.15 -56.7 127
L -56.7 130.65
Q -56.7 140.9 -51.5 146.45 -46.35 151.95 -37.1 151.95 -32.15 151.95 -27.95 150.1 -23.75 148.15 -21.55 145.1
M -38.4 114.3
Q -35.25 114.3 -34 116.45 -32.7 118.55 -32.65 122.65
L -32.65 123.75 -44.65 123.75
Q -44.4 118.8 -42.95 116.55 -41.55 114.3 -38.4 114.3
M -126.3 118.7
Q -126.3 112.15 -130.85 108.25 -135.4 104.35 -142.95 104.35 -150.1 104.35 -154.45 108.3 -158.8 112.2 -158.8 118.2 -158.8 123 -156 126.25 -153.25 129.45 -145.85 132.45 -140.8 134.7 -139.3 136 -137.85 137.25 -137.85 138.8 -137.85 143.15 -142.7 143.15 -145.85 143.15 -147.2 141.6 -148.6 140.05 -148.65 136.9
L -160.1 136.9
Q -160.1 140.95 -157.9 144.5 -155.7 148 -151.85 150 -148 151.95 -142.95 151.95 -135.45 151.95 -130.8 148.2 -126.2 144.5 -126.2 138.35 -126.2 133 -129.2 129.7 -132.25 126.35 -139.6 123.65 -144.65 121.5 -146 120.35 -147.35 119.15 -147.35 117.6 -147.35 115.5 -146.15 114.3 -144.9 113.1 -143 113.1 -138.3 113.1 -138.3 118.7
L -126.3 118.7
M -64.45 85.95
L -76.55 85.95 -76.55 108.9
Q -80.05 104.35 -85.35 104.35 -92.65 104.35 -96.45 109.9 -100.3 115.45 -100.3 126.75
L -100.3 130.2
Q -100.2 140.9 -96.4 146.45 -92.6 151.95 -85.4 151.95 -79.6 151.95 -75.9 146.45
L -75.35 151.1 -64.45 151.1 -64.45 85.95
M -86.7 117.05
Q -85.2 114.4 -81.9 114.4 -78.3 114.4 -76.55 117.8
L -76.55 138.75
Q -78.35 141.95 -81.9 141.95 -85.35 141.95 -86.8 139.25 -88.25 136.55 -88.25 129.75
L -88.25 126.55
Q -88.25 119.75 -86.7 117.05
M 681.3 119.5
Q 681.3 112.2 677.15 108.3 673 104.35 665.45 104.35 658.15 104.35 653.4 108.5 648.6 112.6 648.6 119
L 660.6 119
Q 660.6 113.7 665.1 113.7 667.15 113.7 668.2 115 669.25 116.25 669.25 119.35
L 669.25 123.05 665.6 123.05
Q 656.95 123.15 652.4 127.1 647.75 131.05 647.75 138.25 647.75 144.3 651.55 148.15 655.35 151.95 661.1 151.95 666.65 151.95 669.85 147.55 670.35 150.05 670.9 151.1
L 682.95 151.1 682.95 150.4
Q 681.35 147.05 681.3 141.1
L 681.3 119.5
M 659.8 137.45
Q 659.8 134.15 661.6 132.2 663.35 130.25 666.4 130.25
L 669.25 130.25 669.25 139.8
Q 668.6 140.9 667.2 141.7 665.8 142.55 663.8 142.55 659.8 142.55 659.8 137.45
M 702.55 85.95
L 690.5 85.95 690.5 151.1 702.55 151.1 702.55 85.95
M 724.95 97.65
Q 722.2 91.95 718.8 88.1 715.35 84.25 712.1 82.55
L 709.9 89.1
Q 714.85 94.05 717.65 103.85 720.4 113.55 720.4 125.9
L 720.4 128.15
Q 720.3 140.2 717.5 149.75 714.7 159.25 709.9 163.85
L 712.1 170.4
Q 717.1 167.85 721.6 161.2 726.05 154.55 728.6 145.7 731.1 136.9 731.1 127 731.1 117.55 729.4 110.45 727.7 103.3 724.95 97.65
M 115.1 110.3
Q 110.2 104.35 101.4 104.35 92.7 104.35 87.8 110.3 82.85 116.2 82.85 126.65
L 82.85 129.6
Q 82.85 140.1 87.8 146.05 92.65 151.95 101.5 151.95 110.3 151.95 115.15 146.05 120.05 140.15 120.05 129.65
L 120.05 126.75
Q 120.05 116.2 115.1 110.3
M 101.4 114.3
Q 104.6 114.3 106.35 117.35 108.05 120.4 108.05 126.65
L 108.05 131.7
Q 107.55 142 101.5 142 94.9 142 94.9 129.65
L 94.9 126.65
Q 94.9 120.4 96.65 117.35 98.35 114.3 101.4 114.3
M 78.15 116.75
L 78.25 104.9
Q 77 104.35 74.95 104.35 69.95 104.35 67.1 110.15
L 66.75 105.2 55.45 105.2 55.45 151.1 67.5 151.1 67.5 120.75
Q 69.2 116.45 74.15 116.45
L 78.15 116.75
M 27.6 89.3
L 6.55 89.3 6.55 151.1 19.05 151.1 19.05 129.4 27.35 129.4
Q 36.9 129.4 42.3 124.1 47.7 118.85 47.7 109.75 47.7 100.7 42.25 95 36.8 89.3 27.6 89.3
M 19.05 119
L 19.05 99.7 27.75 99.7
Q 31.1 99.75 33.1 102.5 35.1 105.25 35.1 109.85 35.1 114.3 33.15 116.65 31.15 119 27.6 119
L 19.05 119
M 141.5 93.9
L 129.45 93.9 129.45 105.2 124.15 105.2 124.15 114.2 129.45 114.2 129.45 138.65
Q 129.6 151.95 141.25 151.95 144.8 151.95 147.85 150.8
L 147.95 141.45
Q 146.85 141.75 145.1 141.75 142.95 141.75 142.25 140.75 141.5 139.75 141.5 137
L 141.5 114.2 147.65 114.2 147.65 105.2 141.5 105.2 141.5 93.9
M 288.3 151.1
L 288.3 105.2 276.25 105.2 276.25 151.1 288.3 151.1
M 308.8 99.1
L 318.8 99.1 330.6 85.95 317.1 85.95 308.8 99.1
M 173.5 142
Q 169.3 142 167.3 139.6 165.35 137.25 165.1 132.15
L 188.95 132.15 188.95 126.25
Q 188.9 115.4 184.5 109.85 180.15 104.35 171.5 104.35 162.6 104.35 157.85 110.25 153.1 116.15 153.1 127
L 153.1 130.65
Q 153.1 140.9 158.3 146.45 163.45 151.95 172.7 151.95 177.65 151.95 181.85 150.1 186.05 148.15 188.25 145.1
L 183.55 137.85
Q 179.5 142 173.5 142
M 175.8 116.45
Q 177.1 118.55 177.15 122.65
L 177.15 123.75 165.15 123.75
Q 165.4 118.8 166.85 116.55 168.25 114.3 171.4 114.3 174.55 114.3 175.8 116.45
M 234.3 126.55
L 234.3 130.2
Q 234.35 140.9 239.05 146.45 243.7 151.95 252.55 151.95 259.75 151.95 264.3 147.3 268.8 142.7 268.9 135.2
L 257.6 135.2
Q 257.55 142 252.3 142 250 142 248.7 140.95 247.45 139.9 246.9 137.7 246.35 135.45 246.35 129.85
L 246.35 125.15
Q 246.4 118.75 247.75 116.55 249.15 114.3 252.25 114.3 255.1 114.3 256.35 116.4 257.55 118.45 257.6 122.35
L 268.9 122.35
Q 268.8 113.7 264.45 109.05 260.1 104.35 252.5 104.35 243.5 104.35 238.9 110.05 234.3 115.7 234.3 126.55
M 228.95 122.35
Q 228.85 113.7 224.5 109.05 220.15 104.35 212.55 104.35 203.55 104.35 198.95 110.05 194.35 115.7 194.35 126.55
L 194.35 130.2
Q 194.4 140.9 199.1 146.45 203.75 151.95 212.6 151.95 219.8 151.95 224.35 147.3 228.85 142.7 228.95 135.2
L 217.65 135.2
Q 217.6 142 212.35 142 210.05 142 208.75 140.95 207.5 139.9 206.95 137.7 206.4 135.45 206.4 129.85
L 206.4 125.15
Q 206.45 118.75 207.8 116.55 209.2 114.3 212.3 114.3 215.15 114.3 216.4 116.4 217.6 118.45 217.65 122.35
L 228.95 122.35
M 275.7 93.3
Q 275.7 96.05 277.5 97.9 279.25 99.7 282.25 99.7 285.25 99.7 287.05 97.9 288.8 96.05 288.8 93.3 288.8 90.5 287 88.75 285.25 86.95 282.25 86.95 279.3 86.95 277.5 88.75 275.7 90.5 275.7 93.3
M 333.4 129.65
L 333.4 126.75
Q 333.4 116.2 328.45 110.3 323.55 104.35 314.75 104.35 306.05 104.35 301.15 110.3 296.2 116.2 296.2 126.65
L 296.2 129.6
Q 296.2 140.1 301.15 146.05 306 151.95 314.85 151.95 323.65 151.95 328.5 146.05 333.4 140.15 333.4 129.65
M 310 117.35
Q 311.7 114.3 314.75 114.3 317.95 114.3 319.7 117.35 321.4 120.4 321.4 126.65
L 321.4 131.7
Q 320.9 142 314.85 142 308.25 142 308.25 129.65
L 308.25 126.65
Q 308.25 120.4 310 117.35
M 352.2 109.75
L 351.85 105.2 340.55 105.2 340.55 151.1 352.6 151.1 352.6 117.75
Q 354.45 114.4 357.7 114.4 360.65 114.4 361.85 116.2 363 117.9 363 121.8
L 363 151.1 375.05 151.1 375.05 120.95
Q 374.7 104.35 362.85 104.35 356.25 104.35 352.2 109.75
M 440 95
Q 434.55 89.3 425.35 89.3
L 404.3 89.3 404.3 151.1 416.8 151.1 416.8 129.4 425.1 129.4
Q 434.65 129.4 440.05 124.1 445.45 118.85 445.45 109.75 445.45 100.7 440 95
M 430.9 116.65
Q 428.9 119 425.35 119
L 416.8 119 416.8 99.7 425.5 99.7
Q 428.85 99.75 430.85 102.5 432.85 105.25 432.85 109.85 432.85 114.3 430.9 116.65
M 618 117.75
Q 619.85 114.4 623.1 114.4 626.05 114.4 627.25 116.2 628.4 117.9 628.4 121.8
L 628.4 151.1 640.45 151.1 640.45 120.95
Q 640.1 104.35 628.25 104.35 621.65 104.35 617.6 109.75
L 617.25 105.2 605.95 105.2 605.95 151.1 618 151.1 618 117.75
M 487.95 132.15
L 487.95 126.25
Q 487.9 115.4 483.5 109.85 479.15 104.35 470.5 104.35 461.6 104.35 456.85 110.25 452.1 116.15 452.1 127
L 452.1 130.65
Q 452.1 140.9 457.3 146.45 462.45 151.95 471.7 151.95 476.65 151.95 480.85 150.1 485.05 148.15 487.25 145.1
L 482.55 137.85
Q 478.5 142 472.5 142 468.3 142 466.3 139.6 464.35 137.25 464.1 132.15
L 487.95 132.15
M 465.85 116.55
Q 467.25 114.3 470.4 114.3 473.55 114.3 474.8 116.45 476.1 118.55 476.15 122.65
L 476.15 123.75 464.15 123.75
Q 464.4 118.8 465.85 116.55
M 513.45 116.45
L 517.45 116.75 517.55 104.9
Q 516.3 104.35 514.25 104.35 509.25 104.35 506.4 110.15
L 506.05 105.2 494.75 105.2 494.75 151.1 506.8 151.1 506.8 120.75
Q 508.5 116.45 513.45 116.45
M 561.6 126.65
L 561.6 129.6
Q 561.6 140.1 566.55 146.05 571.4 151.95 580.25 151.95 589.05 151.95 593.9 146.05 598.8 140.15 598.8 129.65
L 598.8 126.75
Q 598.8 116.2 593.85 110.3 588.95 104.35 580.15 104.35 571.45 104.35 566.55 110.3 561.6 116.2 561.6 126.65
M 575.4 117.35
Q 577.1 114.3 580.15 114.3 583.35 114.3 585.1 117.35 586.8 120.4 586.8 126.65
L 586.8 131.7
Q 586.3 142 580.25 142 573.65 142 573.65 129.65
L 573.65 126.65
Q 573.65 120.4 575.4 117.35
M 555.45 118.7
Q 555.45 112.15 550.9 108.25 546.35 104.35 538.8 104.35 531.65 104.35 527.3 108.3 522.95 112.2 522.95 118.2 522.95 123 525.75 126.25 528.5 129.45 535.9 132.45 540.95 134.7 542.45 136 543.9 137.25 543.9 138.8 543.9 143.15 539.05 143.15 535.9 143.15 534.55 141.6 533.15 140.05 533.1 136.9
L 521.65 136.9
Q 521.65 140.95 523.85 144.5 526.05 148 529.9 150 533.75 151.95 538.8 151.95 546.3 151.95 550.95 148.2 555.55 144.5 555.55 138.35 555.55 133 552.55 129.7 549.5 126.35 542.15 123.65 537.1 121.5 535.75 120.35 534.4 119.15 534.4 117.6 534.4 115.5 535.6 114.3 536.85 113.1 538.75 113.1 543.45 113.1 543.45 118.7
L 555.45 118.7 Z"/>

<path fill="#64C8C8" stroke="none" d="
M -58.05 -0.3
L -58.05 -7.2
Q -57.9 -16.65 -55.9 -19.9 -53.9 -23.25 -49.25 -23.25 -45.05 -23.25 -43.25 -20.15 -41.4 -17.1 -41.35 -11.4
L -24.7 -11.4
Q -24.8 -24.1 -31.25 -31 -37.7 -37.95 -48.95 -37.95 -62.25 -37.95 -69 -29.55 -75.85 -21.15 -75.85 -5.2
L -75.85 0.2
Q -75.7 16.05 -68.8 24.2 -61.9 32.35 -48.8 32.35 -38.2 32.35 -31.5 25.5 -24.8 18.7 -24.7 7.6
L -41.35 7.6
Q -41.5 17.65 -49.2 17.65 -52.65 17.65 -54.5 16.1 -56.4 14.55 -57.2 11.3 -58.05 8 -58.05 -0.3
M -134.15 -9.45
Q -141.6 -12.65 -143.6 -14.35 -145.6 -16.1 -145.6 -18.35 -145.6 -21.5 -143.8 -23.25 -142 -25 -139.15 -25 -132.25 -25 -132.25 -16.7
L -114.55 -16.7
Q -114.55 -26.45 -121.25 -32.2 -127.95 -37.95 -139.1 -37.95 -149.7 -37.95 -156.1 -32.15 -162.55 -26.35 -162.55 -17.45 -162.55 -10.4 -158.4 -5.6 -154.35 -0.85 -143.35 3.6 -135.9 6.85 -133.7 8.8 -131.6 10.65 -131.6 12.95 -131.6 19.4 -138.7 19.4 -143.35 19.4 -145.35 17.05 -147.45 14.75 -147.55 10.1
L -164.4 10.1
Q -164.4 16.1 -161.15 21.3 -157.95 26.55 -152.25 29.45 -146.55 32.35 -139.1 32.35 -128 32.35 -121.15 26.85 -114.35 21.3 -114.35 12.25 -114.35 4.4 -118.8 -0.5 -123.3 -5.45 -134.15 -9.45
M -227.5 -5
L -227.5 -0.65
Q -227.5 14.85 -220.25 23.65 -213.05 32.35 -200 32.35 -187.05 32.35 -179.8 23.65 -172.6 14.95 -172.6 -0.55
L -172.6 -4.85
Q -172.6 -20.4 -179.9 -29.2 -187.15 -37.95 -200.15 -37.95 -212.95 -37.95 -220.25 -29.2 -227.5 -20.4 -227.5 -5
M -209.7 -0.55
L -209.7 -5
Q -209.7 -14.25 -207.15 -18.7 -204.65 -23.25 -200.15 -23.25 -195.45 -23.25 -192.85 -18.7 -190.3 -14.25 -190.3 -5
L -190.35 2.45
Q -191.05 17.65 -200 17.65 -209.7 17.65 -209.7 -0.55
M -304 -36.7
L -320.6 -36.7 -320.6 31.1 -302.85 31.1 -302.85 -18.15
Q -300.15 -23.1 -295.6 -23.1 -291.55 -23.1 -290 -20.5 -288.45 -17.9 -288.45 -12.1
L -288.45 31.1 -270.7 31.1 -270.8 -17.05
Q -268.4 -23.1 -263.45 -23.1 -259.55 -23.1 -257.9 -20.6 -256.3 -18.1 -256.3 -12.2
L -256.3 31.1 -238.55 31.1 -238.55 -13.35
Q -239 -37.95 -256.8 -37.95 -267.55 -37.95 -273.4 -28.8 -277.6 -37.95 -287.75 -37.95 -297.5 -37.95 -303.45 -30.45
L -304 -36.7
M -374.65 -31.8
Q -381.75 -25.75 -381.75 -16.35
L -364 -16.35
Q -364 -24.1 -357.35 -24.1 -354.35 -24.1 -352.8 -22.25 -351.2 -20.35 -351.2 -15.8
L -351.2 -10.3 -356.6 -10.3
Q -369.4 -10.2 -376.15 -4.35 -383 1.45 -383 12.1 -383 21.05 -377.35 26.7 -371.75 32.35 -363.25 32.35 -355.1 32.35 -350.35 25.85 -349.6 29.55 -348.85 31.1
L -330.95 31.1 -330.95 30.05
Q -333.35 25.1 -333.5 16.3
L -333.5 -15.6
Q -333.5 -26.35 -339.55 -32.15 -345.7 -37.95 -356.85 -37.95 -367.65 -37.95 -374.65 -31.8
M -362.55 3.2
Q -360 0.35 -355.5 0.35
L -351.2 0.35 -351.2 14.45
Q -352.2 16.05 -354.3 17.25 -356.35 18.45 -359.3 18.45 -365.2 18.45 -365.2 10.9 -365.2 6.1 -362.55 3.2
M -417.6 -36.7
L -425.45 -36.7 -425.45 -23.4 -417.6 -23.4 -417.6 12.7
Q -417.4 32.35 -400.25 32.35 -395 32.35 -390.5 30.65
L -390.35 16.85
Q -392 17.3 -394.55 17.3 -397.7 17.3 -398.75 15.8 -399.9 14.3 -399.9 10.3
L -399.9 -23.4 -390.8 -23.4 -390.8 -36.7 -399.9 -36.7 -399.9 -53.4 -417.6 -53.4 -417.6 -36.7
M -467.45 -36.7
L -484.15 -36.7 -484.15 31.1 -466.35 31.1 -466.35 -18.15
Q -463.65 -23.1 -458.8 -23.1 -454.5 -23.1 -452.75 -20.5 -451.05 -17.9 -451.05 -12.15
L -451.05 31.1 -433.25 31.1 -433.25 -13.45
Q -433.75 -37.95 -451.25 -37.95 -460.95 -37.95 -466.95 -30
L -467.45 -36.7
M -549.55 -5
L -549.55 -0.65
Q -549.55 14.85 -542.3 23.65 -535.1 32.35 -522.05 32.35 -509.1 32.35 -501.85 23.65 -494.65 14.95 -494.65 -0.55
L -494.65 -4.85
Q -494.65 -20.4 -501.95 -29.2 -509.2 -37.95 -522.2 -37.95 -535 -37.95 -542.3 -29.2 -549.55 -20.4 -549.55 -5
M -531.75 -0.55
L -531.75 -5
Q -531.75 -14.25 -529.2 -18.7 -526.7 -23.25 -522.2 -23.25 -517.5 -23.25 -514.9 -18.7 -512.35 -14.25 -512.35 -5
L -512.4 2.45
Q -513.1 17.65 -522.05 17.65 -531.75 17.65 -531.75 -0.55
M -621.5 -22.25
L -621.5 -6.9
Q -621.5 12 -613.25 22.2 -605.05 32.35 -589.55 32.35 -574.8 32.35 -566.75 24.35 -558.65 16.3 -557.95 0.7
L -576.4 0.7
Q -576.75 10 -579.5 13.55 -582.3 17.05 -589.55 17.05 -596.95 17.05 -599.95 12 -603 6.9 -603 -6.7
L -603 -23.9
Q -602.85 -35.75 -599.75 -40.9 -596.7 -46.1 -589.3 -46.1 -582.05 -46.1 -579.25 -42.4 -576.6 -38.8 -576.35 -29.1
L -557.85 -29.1
Q -558.9 -44.75 -566.6 -53.05 -574.4 -61.4 -589.3 -61.4 -604.45 -61.4 -613 -51.2 -621.5 -41.05 -621.5 -22.25
M 562.3 -32.15
Q 555.85 -26.35 555.85 -17.45 555.85 -10.4 560 -5.6 564.05 -0.85 575.05 3.6 582.5 6.85 584.7 8.8 586.8 10.65 586.8 12.95 586.8 19.4 579.7 19.4 575.05 19.4 573.05 17.05 570.95 14.75 570.85 10.1
L 554 10.1
Q 554 16.1 557.25 21.3 560.45 26.55 566.15 29.45 571.85 32.35 579.3 32.35 590.4 32.35 597.25 26.85 604.05 21.3 604.05 12.25 604.05 4.4 599.6 -0.5 595.1 -5.45 584.25 -9.45 576.8 -12.65 574.8 -14.35 572.8 -16.1 572.8 -18.35 572.8 -21.5 574.6 -23.25 576.4 -25 579.25 -25 586.15 -25 586.15 -16.7
L 603.85 -16.7
Q 603.85 -26.45 597.15 -32.2 590.45 -37.95 579.3 -37.95 568.7 -37.95 562.3 -32.15
M 490.9 -5
L 490.9 -0.65
Q 490.9 14.85 498.15 23.65 505.35 32.35 518.4 32.35 531.35 32.35 538.6 23.65 545.8 14.95 545.8 -0.55
L 545.8 -4.85
Q 545.8 -20.4 538.5 -29.2 531.25 -37.95 518.25 -37.95 505.45 -37.95 498.15 -29.2 490.9 -20.4 490.9 -5
M 508.7 -0.55
L 508.7 -5
Q 508.7 -14.25 511.25 -18.7 513.75 -23.25 518.25 -23.25 522.95 -23.25 525.55 -18.7 528.1 -14.25 528.1 -5
L 528.05 2.45
Q 527.35 17.65 518.4 17.65 508.7 17.65 508.7 -0.55
M 479.2 -65.15
L 461.4 -65.15 461.4 31.1 479.2 31.1 479.2 -65.15
M 400.15 -9.45
Q 392.7 -12.65 390.7 -14.35 388.7 -16.1 388.7 -18.35 388.7 -21.5 390.5 -23.25 392.3 -25 395.15 -25 402.05 -25 402.05 -16.7
L 419.75 -16.7
Q 419.75 -26.45 413.05 -32.2 406.35 -37.95 395.2 -37.95 384.6 -37.95 378.2 -32.15 371.75 -26.35 371.75 -17.45 371.75 -10.4 375.9 -5.6 379.95 -0.85 390.95 3.6 398.4 6.85 400.6 8.8 402.7 10.65 402.7 12.95 402.7 19.4 395.6 19.4 390.95 19.4 388.95 17.05 386.85 14.75 386.75 10.1
L 369.9 10.1
Q 369.9 16.1 373.15 21.3 376.35 26.55 382.05 29.45 387.75 32.35 395.2 32.35 406.3 32.35 413.15 26.85 419.95 21.3 419.95 12.25 419.95 4.4 415.5 -0.5 411 -5.45 400.15 -9.45
M 306.8 -5
L 306.8 -0.65
Q 306.8 14.85 314.05 23.65 321.25 32.35 334.3 32.35 347.25 32.35 354.5 23.65 361.7 14.95 361.7 -0.55
L 361.7 -4.85
Q 361.7 -20.4 354.4 -29.2 347.15 -37.95 334.15 -37.95 321.35 -37.95 314.05 -29.2 306.8 -20.4 306.8 -5
M 324.6 -0.55
L 324.6 -5
Q 324.6 -14.25 327.15 -18.7 329.65 -23.25 334.15 -23.25 338.85 -23.25 341.45 -18.7 344 -14.25 344 -5
L 343.95 2.45
Q 343.25 17.65 334.3 17.65 324.6 17.65 324.6 -0.55
M 277.9 -31.2
Q 272.7 -37.95 264.9 -37.95 254.1 -37.95 248.45 -29.75 242.8 -21.55 242.8 -4.85
L 242.8 0.25
Q 242.95 16.05 248.6 24.2 254.15 32.35 264.8 32.35 273.4 32.35 278.85 24.2
L 279.65 31.1 295.8 31.1 295.8 -65.15 277.9 -65.15 277.9 -31.2
M 260.6 -0.4
L 260.6 -5.1
Q 260.6 -15.2 262.9 -19.15 265.15 -23.1 270 -23.1 275.3 -23.1 277.9 -18.1
L 277.9 12.85
Q 275.2 17.55 269.95 17.55 264.9 17.55 262.75 13.6 260.6 9.6 260.6 -0.4
M 179.35 -5
L 179.35 -0.65
Q 179.35 14.85 186.6 23.65 193.8 32.35 206.85 32.35 219.8 32.35 227.05 23.65 234.25 14.95 234.25 -0.55
L 234.25 -4.85
Q 234.25 -20.4 226.95 -29.2 219.7 -37.95 206.7 -37.95 193.9 -37.95 186.6 -29.2 179.35 -20.4 179.35 -5
M 197.15 -0.55
L 197.15 -5
Q 197.15 -14.25 199.7 -18.7 202.2 -23.25 206.7 -23.25 211.4 -23.25 214 -18.7 216.55 -14.25 216.55 -5
L 216.5 2.45
Q 215.8 17.65 206.85 17.65 197.15 17.65 197.15 -0.55
M 144.85 -36.7
L 137 -36.7 137 -23.4 144.85 -23.4 144.85 12.7
Q 145.05 32.35 162.2 32.35 167.45 32.35 171.95 30.65
L 172.1 16.85
Q 170.45 17.3 167.9 17.3 164.75 17.3 163.7 15.8 162.55 14.3 162.55 10.3
L 162.55 -23.4 171.65 -23.4 171.65 -36.7 162.55 -36.7 162.55 -53.4 144.85 -53.4 144.85 -36.7
M 65.4 -36.7
L 48.7 -36.7 48.7 31.1 66.5 31.1 66.5 -18.15
Q 69.2 -23.1 74.05 -23.1 78.35 -23.1 80.1 -20.5 81.8 -17.9 81.8 -12.15
L 81.8 31.1 99.6 31.1 99.6 -13.45
Q 99.1 -37.95 81.6 -37.95 71.9 -37.95 65.9 -30
L 65.4 -36.7
M 38.15 -0.55
L 38.15 -4.85
Q 38.15 -20.4 30.85 -29.2 23.6 -37.95 10.6 -37.95 -2.2 -37.95 -9.5 -29.2 -16.75 -20.4 -16.75 -5
L -16.75 -0.65
Q -16.75 14.85 -9.5 23.65 -2.3 32.35 10.75 32.35 23.7 32.35 30.95 23.65 38.15 14.95 38.15 -0.55
M 1.05 -0.55
L 1.05 -5
Q 1.05 -14.25 3.6 -18.7 6.1 -23.25 10.6 -23.25 15.3 -23.25 17.9 -18.7 20.45 -14.25 20.45 -5
L 20.4 2.45
Q 19.7 17.65 10.75 17.65 1.05 17.65 1.05 -0.55
M 834.25 -51.75
Q 826.15 -60.15 812.6 -60.15
L 781.55 -60.15 781.55 31.1 799.95 31.1 799.95 -1 812.25 -1
Q 826.35 -1 834.3 -8.75 842.25 -16.55 842.25 -29.95 842.25 -43.35 834.25 -51.75
M 799.95 -16.35
L 799.95 -44.8 812.8 -44.8
Q 817.75 -44.75 820.7 -40.65 823.65 -36.65 823.65 -29.8 823.65 -23.25 820.75 -19.8 817.9 -16.35 812.6 -16.35
L 799.95 -16.35
M 761.25 -51.75
Q 753.15 -60.15 739.6 -60.15
L 708.55 -60.15 708.55 31.1 726.95 31.1 726.95 -1 739.25 -1
Q 753.35 -1 761.3 -8.75 769.25 -16.55 769.25 -29.95 769.25 -43.35 761.25 -51.75
M 726.95 -16.35
L 726.95 -44.8 739.8 -44.8
Q 744.75 -44.75 747.7 -40.65 750.65 -36.65 750.65 -29.8 750.65 -23.25 747.75 -19.8 744.9 -16.35 739.6 -16.35
L 726.95 -16.35
M 664 -23.25
L 664 -44.8 697.85 -44.8 697.85 -60.15 645.6 -60.15 645.6 31.1 697.95 31.1 697.95 15.8 664 15.8 664 -8.4 692.7 -8.4 692.7 -23.25 664 -23.25 Z"/>
</g>
</defs>

<g transform="matrix( 0.1229705810546875, 0, 0, 0.1229705810546875, 81.45,16.05) ">
<use xlink:href="#Layer1_0_FILL"/>
</g>
</svg>
