
<svg xmlns="http://www.w3.org/2000/svg" version="1.1" xmlns:xlink="http://www.w3.org/1999/xlink" preserveAspectRatio="none" x="0px" y="0px" width="70px" height="70px" viewBox="0 0 70 70">
<defs>
<g id="EPP_botas_0_Layer0_0_FILL">
<path fill="#336666" stroke="none" d="
M 447.5 368.2
Q 474.9 340.8 474.9 302.05 474.9 263.3 447.5 235.9 420.1 208.5 381.35 208.5 342.6 208.5 315.2 235.9 287.8 263.3 287.8 302.05 287.8 340.8 315.2 368.2 342.6 395.6 381.35 395.6 420.1 395.6 447.5 368.2 Z"/>
</g>

<g id="EPP_botas_0_Layer0_1_FILL">
<path fill="#FFFFFF" stroke="none" d="
M 221.7 246.65
Q 221.25 246.15 220.6 246
L 179 235.75
Q 178.35 235.55 177.75 235.75 177.05 235.95 176.65 236.45 176.2 236.95 176.05 237.6
L 172.25 256.95 176.95 257.85 180.25 241 217.05 250.05 206.5 288.25 206.5 288.3
Q 204.7 295.95 207.5 299.45
L 225.15 323.6
Q 227.15 327.25 232.75 329.9 232.9 329.95 233.05 330 244.85 333.8 246.05 338.15 246.75 342.85 244.4 347.2 244.25 347.45 244.2 347.75
L 239.1 346.5 237.95 351.15 250.2 354.2 252.45 349.15 249.65 347.45
Q 251.6 342.55 250.8 337.35 250 330.5 234.75 325.55
L 234.7 325.5
Q 230.8 323.65 229.3 321.15 229.2 321 229.15 320.9
L 211.4 296.6
Q 210 294.35 211.1 289.5
L 222.35 249
Q 222.55 248.3 222.4 247.7 222.2 247.05 221.7 246.65
M 139.2 309.65
Q 132 337.8 137.8 342.35
L 137.8 358.05 169.75 358.05
Q 170.75 357.85 170.65 356.75
L 170.65 348.55 190.5 358.05 235.6 358.05 235.6 353.6
Q 235.35 351.75 233.55 352.05 236.1 347.25 233.25 341.55 230.35 335.85 220.75 334.8 211.15 333.7 208.85 331.95 202.6 325.45 195.25 320.5 183.75 312.75 182.5 308.7
L 183.75 260.5 137.2 260.5
Q 141.65 306.7 139.2 309.65
M 141.3 344.85
L 141.3 342 176.05 342
Q 176.4 342 176.65 342.15
L 195.05 351.05 230.35 351.05 230.35 353.95 194.7 353.95
Q 194.4 353.95 194.1 353.8
L 175.7 344.85 141.3 344.85
M 219.2 341.95
Q 217.35 341.65 216.9 340 216.5 338.3 219.3 337.8 222.15 337.3 227.6 339.75 233.05 342.2 232.65 345.15 232.25 348.1 230.2 348.05 228.15 347.95 227 345.9 225.75 343.75 219.2 341.95 Z"/>
</g>

<path id="EPP_botas_0_Layer0_0_1_STROKES" stroke="#005DA6" stroke-opacity="0.3686274509803922" stroke-width="0.1" stroke-linejoin="round" stroke-linecap="round" fill="none" d="
M 474.9 302.05
Q 474.9 340.8 447.5 368.2 420.1 395.6 381.35 395.6 342.6 395.6 315.2 368.2 287.8 340.8 287.8 302.05 287.8 263.3 315.2 235.9 342.6 208.5 381.35 208.5 420.1 208.5 447.5 235.9 474.9 263.3 474.9 302.05 Z"/>
</defs>

<g transform="matrix( 0.34259033203125, 0, 0, 0.34259033203125, 35,35) ">
<g transform="matrix( 1, 0, 0, 1, 0,0) ">
<g transform="matrix( 1, 0, 0, 1, -381.35,-302.05) ">
<use xlink:href="#EPP_botas_0_Layer0_0_FILL"/>

<use xlink:href="#EPP_botas_0_Layer0_0_1_STROKES"/>
</g>

<g transform="matrix( 1, 0, 0, 1, -188.4,-305.85) ">
<use xlink:href="#EPP_botas_0_Layer0_1_FILL"/>
</g>
</g>
</g>
</svg>
