
<svg xmlns="http://www.w3.org/2000/svg" version="1.1" xmlns:xlink="http://www.w3.org/1999/xlink" preserveAspectRatio="none" x="0px" y="0px" width="70px" height="70px" viewBox="0 0 70 70">
<defs>
<g id="EPP_casco_0_Layer0_0_FILL">
<path fill="#336666" stroke="none" d="
M 447.5 368.2
Q 474.9 340.8 474.9 302.05 474.9 263.3 447.5 235.9 420.1 208.5 381.35 208.5 342.6 208.5 315.2 235.9 287.8 263.3 287.8 302.05 287.8 340.8 315.2 368.2 342.6 395.6 381.35 395.6 420.1 395.6 447.5 368.2 Z"/>
</g>

<g id="EPP_casco_0_Layer0_1_FILL">
<path fill="#FFFFFF" stroke="none" d="
M 330.5 99.05
L 324.95 118.65 325 118.65
Q 323 127.2 325.9 131.25 328.55 135.6 335.8 135.35 335.2 148.1 339.95 154.15 344.65 160.65 354.7 160.2
L 354.7 171
Q 354.7 174.7 356.45 177.3
L 356.4 177.3
Q 358.6 180.55 361.7 180.4
L 407.8 180.4
Q 410.9 180.55 413.05 177.3 414.8 174.7 414.8 171
L 414.8 166.35 414.95 166.35 414.8 163.85
Q 413.85 145 423.6 129.3 427.5 122.9 429.5 117.05 432.55 107.8 430.9 99.8
L 430.8 99.05 425.9 99.05 426.2 100.8
Q 427.55 107.6 424.9 115.5 423.1 120.9 419.5 126.8 409 143.7 410 164.05
L 410 171
Q 410 173.15 409.1 174.65
L 409.05 174.65
Q 408.5 175.45 407.8 175.6
L 361.7 175.6
Q 361 175.45 360.45 174.65 359.5 173.15 359.5 171
L 359.5 157.6
Q 359.5 156.95 359.1 156.35 358.7 155.75 358.15 155.45 357.5 155.2 356.8 155.25 347.85 156.35 343.8 151.25 339.7 145.55 340.8 132.95 340.85 132.2 340.5 131.6 340.1 130.9 339.45 130.55 338.75 130.25 338.05 130.4 332 131.2 329.9 128.6 328.15 125.55 329.9 118.9
L 335.55 99.05 330.5 99.05
M 434.65 94.85
Q 434.85 92.7 434.85 90.45 434.85 82.3 432.4 75.15 428.7 64.3 419.4 55.6 403.95 41.15 382.15 41.15 360.25 41.15 344.8 55.6 332.95 66.7 330.25 81.25 327.95 87.05 321.15 87.6 313.45 87.9 314.95 94.85
L 434.65 94.85 Z"/>
</g>

<g id="EPP_casco_0_Layer0_1_MEMBER_0_FILL">
<path fill="#FFFFFF" stroke="none" d="
M 359.2 108.85
Q 359.2 106.3 357.35 104.45 355.55 102.65 353 102.65 350.45 102.65 348.6 104.45 346.8 106.3 346.8 108.85 346.8 111.4 348.6 113.2 350.45 115.05 353 115.05 355.55 115.05 357.35 113.2 359.2 111.4 359.2 108.85 Z"/>
</g>

<path id="EPP_casco_0_Layer0_0_1_STROKES" stroke="#005DA6" stroke-opacity="0.3686274509803922" stroke-width="0.1" stroke-linejoin="round" stroke-linecap="round" fill="none" d="
M 474.9 302.05
Q 474.9 340.8 447.5 368.2 420.1 395.6 381.35 395.6 342.6 395.6 315.2 368.2 287.8 340.8 287.8 302.05 287.8 263.3 315.2 235.9 342.6 208.5 381.35 208.5 420.1 208.5 447.5 235.9 474.9 263.3 474.9 302.05 Z"/>
</defs>

<g transform="matrix( 0.34259033203125, 0, 0, 0.34259033203125, 35,35) ">
<g transform="matrix( 1, 0, 0, 1, 0,0) ">
<g transform="matrix( 1, 0, 0, 1, -381.35,-302.05) ">
<use xlink:href="#EPP_casco_0_Layer0_0_FILL"/>

<use xlink:href="#EPP_casco_0_Layer0_0_1_STROKES"/>
</g>

<g transform="matrix( 1, 0, 0, 1, -380.15,-116.15) ">
<use xlink:href="#EPP_casco_0_Layer0_1_FILL"/>
</g>

<g transform="matrix( 0.9594268798828125, 0, 0, 0.9593048095703125, -367.25,-114) ">
<use xlink:href="#EPP_casco_0_Layer0_1_MEMBER_0_FILL"/>
</g>
</g>
</g>
</svg>
