
<svg xmlns="http://www.w3.org/2000/svg" version="1.1" xmlns:xlink="http://www.w3.org/1999/xlink" preserveAspectRatio="none" x="0px" y="0px" width="190px" height="190px" viewBox="0 0 190 190">
<defs>
<g id="EPP_Gafas_0_Layer0_0_FILL">
<path fill="#336666" stroke="none" d="
M 447.5 368.2
Q 474.9 340.8 474.9 302.05 474.9 263.3 447.5 235.9 420.1 208.5 381.35 208.5 342.6 208.5 315.2 235.9 287.8 263.3 287.8 302.05 287.8 340.8 315.2 368.2 342.6 395.6 381.35 395.6 420.1 395.6 447.5 368.2 Z"/>
</g>

<g id="EPP_Gafas_0_Layer0_1_FILL">
<path fill="#FFFFFF" stroke="none" d="
M 239 98.95
Q 239 77.55 223.85 62.45 208.7 47.25 187.3 47.25 165.95 47.25 150.8 62.45 135.65 77.55 135.65 98.95 135.65 100.1 135.7 101.25 135.7 101.3 135.7 101.35
L 135.7 101.5
Q 135.8 103.25 135.95 105 131.05 104.6 129.05 109.65 126.8 114.8 128.75 123.15
L 128.75 123.2
Q 130.55 131.1 135.6 138.1 140.5 145 145.85 142.95 157.85 184.65 187.3 183.15 216.8 184.65 228.75 142.95 234.1 145 239.05 138.1 244.05 131.1 245.85 123.2
L 245.85 123.15
Q 247.85 114.8 245.6 109.65 243.6 104.6 238.65 105 238.85 103.25 238.95 101.5
L 238.95 101.35
Q 238.95 101.3 238.95 101.25 239 100.1 239 98.95
M 220.5 65.8
Q 234.25 79.55 234.25 98.95 234.25 99.45 234.25 99.9 229.75 102.35 224.8 105.1
L 224.8 110.3
Q 227.25 109.1 228.95 108.2 230.65 107.25 233.85 105.6 233.7 106.65 233.5 107.7 233.3 108.55 233.75 109.35 234.2 110.1 235 110.35 235.85 110.65 236.7 110.35 240 109.1 241.25 111.5 242.85 115.55 241.3 122.1 239.65 129.15 235.2 135.35 232.05 139.75 228.7 137.5 228.1 137 227.3 137 226.5 137 225.85 137.5 225.2 138 225 138.8 214.35 179.25 187.4 178.4 187.35 178.4 187.3 178.4 187.25 178.4 187.2 178.4 160.25 179.25 149.65 138.8 149.4 138 148.8 137.5 148.15 137 147.35 137 146.55 137 145.9 137.5 142.6 139.75 139.4 135.35 134.95 129.15 133.35 122.1 131.8 115.55 133.4 111.5 134.65 109.1 137.95 110.35 138.75 110.65 139.6 110.35 140.4 110.1 140.9 109.35 141.3 108.55 141.15 107.7 140.95 106.65 140.8 105.6 143.95 107.25 145.7 108.2 147.4 109.1 149.85 110.3
L 149.85 105.1
Q 144.85 102.35 140.35 99.9 140.35 99.45 140.35 98.95 140.35 79.55 154.15 65.8 167.95 52 187.3 52 206.7 52 220.5 65.8
M 144.7 100.85
L 150.35 104.65
Q 155.05 103.25 162.6 102.75 153.65 100.65 144.7 100.85
M 149.55 112.9
L 144.8 109.9
Q 144.1 118.7 149.55 125.8
L 149.55 112.9
M 176.8 123.65
Q 177.2 123.45 176.8 109.9
L 156.3 109.9 156.3 123.65
Q 156.45 126.95 159.6 129 162.45 130.8 166.45 130.8 170.5 130.8 173.35 129.05 176.55 127.05 176.8 123.65
M 183.6 115
L 191.05 115
Q 191.7 111.4 187.3 111.2 182.9 111.4 183.6 115
M 183.35 109.8
L 191.3 109.8
Q 191.8 106.3 187.3 106.5 182.8 106.3 183.35 109.8
M 218.35 123.65
L 218.35 109.9 197.85 109.9
Q 197.45 123.45 197.85 123.65 198.05 127.05 201.3 129.05 204.15 130.8 208.15 130.8 212.2 130.8 215.05 129 218.2 126.95 218.35 123.65
M 229.85 109.9
L 225.05 112.9 225.05 125.8
Q 230.5 118.7 229.85 109.9
M 224.25 104.65
L 229.95 100.85
Q 221 100.65 212.05 102.75 219.6 103.25 224.25 104.65 Z"/>
</g>

<path id="EPP_Gafas_0_Layer0_0_1_STROKES" stroke="#005DA6" stroke-opacity="0.3686274509803922" stroke-width="0.1" stroke-linejoin="round" stroke-linecap="round" fill="none" d="
M 474.9 302.05
Q 474.9 340.8 447.5 368.2 420.1 395.6 381.35 395.6 342.6 395.6 315.2 368.2 287.8 340.8 287.8 302.05 287.8 263.3 315.2 235.9 342.6 208.5 381.35 208.5 420.1 208.5 447.5 235.9 474.9 263.3 474.9 302.05 Z"/>

<path id="EPP_Gafas_0_Layer0_1_1_STROKES" stroke="#FFFFFF" stroke-width="4" stroke-linejoin="round" stroke-linecap="round" fill="none" d="
M 221.45 106.75
Q 206.9 105.8 194.85 106.75 194.4 124.35 194.85 124.6 195.15 129.05 199.3 131.6 203 133.9 208.25 133.9 213.45 133.85 217.15 131.55 221.25 128.95 221.45 124.6
L 221.45 106.75 Z
M 153.2 106.75
Q 167.75 105.8 179.8 106.75 180.25 124.35 179.8 124.6 179.5 129.05 175.35 131.6 171.65 133.9 166.4 133.9 161.15 133.85 157.45 131.55 153.4 128.95 153.2 124.6
L 153.2 106.75 Z"/>
</defs>

<g transform="matrix( 1, 0, 0, 1, 95,95) ">
<g transform="matrix( 1, 0, 0, 1, -381.35,-302.05) ">
<use xlink:href="#EPP_Gafas_0_Layer0_0_FILL"/>

<use xlink:href="#EPP_Gafas_0_Layer0_0_1_STROKES"/>
</g>

<g transform="matrix( 1, 0, 0, 1, -187.3,-115.2) ">
<use xlink:href="#EPP_Gafas_0_Layer0_1_FILL"/>

<use xlink:href="#EPP_Gafas_0_Layer0_1_1_STROKES"/>
</g>
</g>
</svg>
