
<svg xmlns="http://www.w3.org/2000/svg" version="1.1" xmlns:xlink="http://www.w3.org/1999/xlink" preserveAspectRatio="none" x="0px" y="0px" width="70px" height="70px" viewBox="0 0 70 70">
<defs>
<g id="EPP_chaleco_0_Layer0_0_FILL">
<path fill="#336666" stroke="none" d="
M 447.5 368.2
Q 474.9 340.8 474.9 302.05 474.9 263.3 447.5 235.9 420.1 208.5 381.35 208.5 342.6 208.5 315.2 235.9 287.8 263.3 287.8 302.05 287.8 340.8 315.2 368.2 342.6 395.6 381.35 395.6 420.1 395.6 447.5 368.2 Z"/>
</g>

<g id="EPP_chaleco_0_Layer0_1_FILL">
<path fill="#FFFFFF" stroke="none" d="
M 395.3 247.45
Q 379.6 254.1 365 247.45
L 380.05 278.75 395.3 247.45
M 333.9 350.25
L 333.9 356.95 378.3 356.95 378.3 350.25 333.9 350.25
M 378.3 341.25
L 378.3 333.6 333.9 333.6 333.9 341.25 378.3 341.25
M 348.45 245.15
Q 346.5 245.5 344.35 245.75 344.55 274.15 333.9 287
L 333.9 324.6 348.45 324.6 348.45 245.15
M 359.7 242.4
Q 359.65 242.3 357.75 243
L 357.75 324.6 378.3 324.6 378.3 283.2 359.7 242.4
M 381.95 350.25
L 381.95 356.95 426.4 356.95 426.4 350.25 381.95 350.25
M 381.95 333.6
L 381.95 341.25 426.4 341.25 426.4 333.6 381.95 333.6
M 402.55 243
Q 400.65 242.3 400.6 242.4
L 381.95 283.2 381.95 324.6 402.55 324.6 402.55 243
M 415.95 245.75
Q 413.75 245.5 411.85 245.15
L 411.85 324.6 426.4 324.6 426.4 287
Q 415.75 274.15 415.95 245.75 Z"/>
</g>

<path id="EPP_chaleco_0_Layer0_0_1_STROKES" stroke="#005DA6" stroke-opacity="0.3686274509803922" stroke-width="0.1" stroke-linejoin="round" stroke-linecap="round" fill="none" d="
M 474.9 302.05
Q 474.9 340.8 447.5 368.2 420.1 395.6 381.35 395.6 342.6 395.6 315.2 368.2 287.8 340.8 287.8 302.05 287.8 263.3 315.2 235.9 342.6 208.5 381.35 208.5 420.1 208.5 447.5 235.9 474.9 263.3 474.9 302.05 Z"/>

<path id="EPP_chaleco_0_Layer0_1_1_STROKES" stroke="#FFFFFF" stroke-opacity="0.3686274509803922" stroke-width="0.1" stroke-linejoin="round" stroke-linecap="round" fill="none" d="
M 411.85 244.75
L 411.85 245.15
Q 413.75 245.5 415.95 245.75 415.75 274.15 426.4 287
L 426.4 324.6 426.4 333.6 426.4 341.25 426.4 350.25 426.4 356.95 381.95 356.95 381.95 350.25 426.4 350.25
M 402.55 243
L 402.55 324.6 381.95 324.6 381.95 283.2 400.6 242.4
Q 400.65 242.3 402.55 243 406.35 244.3 411.85 245.15
L 411.85 324.6 426.4 324.6
M 348.45 244.75
L 348.45 245.15
Q 353.95 244.3 357.75 243 359.65 242.3 359.7 242.4
L 378.3 283.2 378.3 324.6 357.75 324.6 357.75 243
M 348.45 245.15
Q 346.5 245.5 344.35 245.75 344.55 274.15 333.9 287
L 333.9 324.6 348.45 324.6 348.45 245.15 Z
M 380.05 278.75
L 365 247.45
Q 379.6 254.1 395.3 247.45
L 380.05 278.75 Z
M 333.9 333.6
L 378.3 333.6 378.3 341.25 333.9 341.25 333.9 350.25 378.3 350.25 378.3 356.95 333.9 356.95 333.9 350.25
M 426.4 333.6
L 381.95 333.6 381.95 341.25 426.4 341.25
M 333.9 324.6
L 333.9 333.6 333.9 341.25"/>
</defs>

<g transform="matrix( 0.34259033203125, 0, 0, 0.34259033203125, 35,35) ">
<g transform="matrix( 1, 0, 0, 1, 0,0) ">
<g transform="matrix( 1, 0, 0, 1, -381.35,-302.05) ">
<use xlink:href="#EPP_chaleco_0_Layer0_0_FILL"/>

<use xlink:href="#EPP_chaleco_0_Layer0_0_1_STROKES"/>
</g>

<g transform="matrix( 1, 0, 0, 1, -380.15,-303.25) ">
<use xlink:href="#EPP_chaleco_0_Layer0_1_FILL"/>

<use xlink:href="#EPP_chaleco_0_Layer0_1_1_STROKES"/>
</g>
</g>
</g>
</svg>
