
<svg xmlns="http://www.w3.org/2000/svg" version="1.1" xmlns:xlink="http://www.w3.org/1999/xlink" preserveAspectRatio="none" x="0px" y="0px" width="70px" height="70px" viewBox="0 0 70 70">
<defs>
<g id="EPP_guantes_0_Layer0_0_FILL">
<path fill="#336666" stroke="none" d="
M 447.5 368.2
Q 474.9 340.8 474.9 302.05 474.9 263.3 447.5 235.9 420.1 208.5 381.35 208.5 342.6 208.5 315.2 235.9 287.8 263.3 287.8 302.05 287.8 340.8 315.2 368.2 342.6 395.6 381.35 395.6 420.1 395.6 447.5 368.2 Z"/>
</g>

<g id="EPP_guantes_0_Layer0_1_FILL">
<path fill="#FFFFFF" fill-opacity="0.9882352941176471" stroke="none" d="
M 17.3 342.4
L 17.3 341.1 -8.05 281.2
Q -8.95 279.1 -10.7 278.05 -12.5 277.05 -14.1 277.75 -15.75 278.4 -16.3 280.35 -16.9 282.4 -16.05 284.45
L -9.25 301.1
Q -9.6 303 -11.6 302.1
L -21.1 278.8
Q -22 276.7 -24.05 275.75 -26 274.85 -27.95 275.65 -29.95 276.5 -30.8 278.55 -31.55 280.65 -30.7 282.7
L -20.3 306
Q -20.6 308.5 -23.2 307.7
L -31.95 285.55
Q -32.8 283.5 -34.7 282.45 -36.45 281.45 -38.15 282.2 -39.85 282.85 -40.5 284.85 -41.1 286.9 -40.25 288.95
L -30.45 314.15
Q -30.3 317.2 -32.8 315.4
L -39.75 296.85
Q -40.5 294.7 -42.45 293.65 -44.45 292.65 -46.45 293.3 -48.4 294.05 -49.35 296.1 -50.3 298.1 -49.5 300.25
L -22 378.85
Q -17.25 376.35 -12.4 374.15 6.1 365.7 26 361.55
L 17.9 342.4 17.3 342.4
M 19.5 293.1
Q 21.05 282.7 12.45 278.95 7.6 276.75 4.05 279.65 1.2 281.75 -0.65 289.4
L 1.5 293.35
Q 4.65 284.1 6.4 282.65 8.35 281.3 10.9 282.45 16.85 285.2 15.75 292.55
L 15.75 292.5 11.15 318.95 14.25 325.55 19.5 293.15 19.5 293.1
M 13.75 234.8
L 13.7 234.8
Q 13.45 234.6 13.25 234.4 10.85 232.8 7.8 232.85 4.8 232.85 2.65 234.4 2.3 234.65 1.95 235 0.45 236.3 -0.2 237.8 -2.4 236.3 -5.3 236.35 -8.65 236.4 -10.95 238.55
L -11 238.6
Q -13.5 240.75 -13.5 243.65 -15.45 242.55 -17.8 242.6 -21.05 242.65 -23.4 244.85 -25.9 247.1 -25.8 250.25
L -25.8 271.3 -22 272.95 -22 250.15
Q -22 248.75 -20.85 247.7 -19.55 246.5 -17.7 246.45 -15.95 246.4 -14.55 247.55
L -14.55 247.6
Q -13.65 248.35 -13.4 249.45 -13.4 249.5 -13.35 249.6
L -13.35 249.65
Q -13.35 249.8 -13.35 249.95
L -13 269.15
Q -13 269.9 -12.45 270.5 -11.85 271 -11.05 271 -10.25 271 -9.7 270.45 -9.15 269.85 -9.15 269.1
L -9.5 249.95
Q -9.5 249.5 -9.55 249.2
L -9.65 243.85
Q -9.65 242.45 -8.4 241.4 -7.1 240.2 -5.25 240.15 -3.35 240.1 -1.95 241.3
L -1.9 241.3
Q -0.75 242.35 -0.6 243.8
L -0.3 261.15
Q -0.3 261.9 0.3 262.45 0.85 263 1.65 263 2.45 263 3 262.45 3.55 261.85 3.55 261.1
L 3.2 240.3
Q 3.2 238.9 4.45 237.9
L 4.5 237.85
Q 5.85 236.65 7.8 236.65
L 7.85 236.65
Q 9.85 236.6 11.35 237.8 12.501171875 238.830078125 12.55 240.15
L 12.9 259.45
Q 12.9 260.2 13.45 260.8 14.05 261.3 14.8 261.3
L 14.85 261.3
Q 15.7 261.3 16.25 260.75 16.8 260.15 16.8 259.4
L 16.6 247.85
Q 16.6 246.45 17.85 245.4 19.25 244.2 21.2 244.2
L 21.25 244.2
Q 23.2 244.15 24.75 245.35 25.85234375 246.2822265625 25.95 247.6 25.95 247.65 25.95 247.7 24.75 291.6 34.6 334.55 28.85 335.2 20.4 337.75
L 22.65 341.4
Q 30.65 338.65 37.1 338.15 37.65 338.1 38.1 337.8 38.5 337.45 38.75 336.9 38.95 336.35 38.8 335.8 28.55 292.25 29.8 247.7 29.8 247.65 29.8 247.6 29.75 244.5 27.15 242.35
L 27.1 242.35
Q 24.55 240.3 21.2 240.35 18.5 240.35 16.45 241.65
L 16.4 240.05
Q 16.35 236.95 13.75 234.8 Z"/>
</g>

<path id="EPP_guantes_0_Layer0_0_1_STROKES" stroke="#005DA6" stroke-opacity="0.3686274509803922" stroke-width="0.1" stroke-linejoin="round" stroke-linecap="round" fill="none" d="
M 474.9 302.05
Q 474.9 340.8 447.5 368.2 420.1 395.6 381.35 395.6 342.6 395.6 315.2 368.2 287.8 340.8 287.8 302.05 287.8 263.3 315.2 235.9 342.6 208.5 381.35 208.5 420.1 208.5 447.5 235.9 474.9 263.3 474.9 302.05 Z"/>

<path id="EPP_guantes_0_Layer0_1_1_STROKES" stroke="#009900" stroke-width="0.1" stroke-linejoin="round" stroke-linecap="round" fill="none" d="
M 26 361.55
Q 6.1 365.7 -12.4 374.15 -17.25 376.35 -22 378.85"/>
</defs>

<g transform="matrix( 0.34259033203125, 0, 0, 0.34259033203125, 35,35) ">
<g transform="matrix( 1, 0, 0, 1, 0,0) ">
<g transform="matrix( 1, 0, 0, 1, -381.35,-302.05) ">
<use xlink:href="#EPP_guantes_0_Layer0_0_FILL"/>

<use xlink:href="#EPP_guantes_0_Layer0_0_1_STROKES"/>
</g>

<g transform="matrix( 1, 0, 0, 1, 1.9,-305.85) ">
<use xlink:href="#EPP_guantes_0_Layer0_1_FILL"/>

<use xlink:href="#EPP_guantes_0_Layer0_1_1_STROKES"/>
</g>
</g>
</g>
</svg>
