
<svg xmlns="http://www.w3.org/2000/svg" version="1.1" xmlns:xlink="http://www.w3.org/1999/xlink" preserveAspectRatio="none" x="0px" y="0px" width="70px" height="70px" viewBox="0 0 70 70">
<defs>
<g id="EPP_mascarilla_0_Layer0_0_FILL">
<path fill="#336666" stroke="none" d="
M 447.5 368.2
Q 474.9 340.8 474.9 302.05 474.9 263.3 447.5 235.9 420.1 208.5 381.35 208.5 342.6 208.5 315.2 235.9 287.8 263.3 287.8 302.05 287.8 340.8 315.2 368.2 342.6 395.6 381.35 395.6 420.1 395.6 447.5 368.2 Z"/>
</g>

<g id="EPP_mascarilla_0_Layer0_1_FILL">
<path fill="#FFFFFF" stroke="none" d="
M 437.2 485.65
Q 437.05 479.25 433.95 477.55 432.15 476.2 429.35 476.75 429.75 473.5 429.75 470.15 429.75 450.4 415.85 436.5 402.45 423.1 383.75 422.6 382.95 422.55 382.2 422.55 381.4 422.55 380.7 422.6 361.95 423.1 348.55 436.5 334.6 450.4 334.6 470.15 334.6 473.5 335.05 476.7 332.35 476.15 330.6 477.45 327.45 479.05 327.25 485.5 326.9 495.85 333 505.25 336.25 510.15 339.1 511.65 341.75 513.05 344.05 512.2 343.9 512.7 343.75 512.5 345.05 524.85 353.7 534
L 353.7 545.95
Q 355.9 544.2 359.5 542.75 359.95 542.55 360.35 542.4 360.7 542.3 361 542.2 361.05 542.2 361.15 542.15 362.8 541.55 364.6 541.05 364.75 541 364.9 541 365.75 540.75 366.7 540.55 368.4 540.15 370.25 539.9
L 382 539
Q 382.1 539 382.2 539 382.3 539 382.35 539 390.85 539 397.7 540.55
L 396.45 541.8
Q 390.15 540.3 382.35 540.3 374.35 540.3 368 541.85
L 366.75 540.6
Q 365.8 540.8 364.9 541 363.1 541.55 361.4 542.15 361.25 542.2 361.1 542.3
L 362.45 543.65
Q 362.35 543.65 362.25 543.7 353.95 547.15 353.95 551.9 353.95 556.65 362.25 560.05 369.2 562.9 378.6 563.35 380.4 563.45 382.35 563.45 384.25 563.45 386.1 563.35 395.5 562.9 402.4 560.05 410.75 556.65 410.75 551.9 410.75 547.2 402.6 543.8
L 404 542.4
Q 404.4 542.55 404.9 542.75 408.5 544.2 410.7 545.95
L 410.7 534
Q 419.35 524.85 420.6 512.5 420.55 512.65 420.4 512.25 422.7 513.2 425.4 511.75 428.2 510.3 431.45 505.35 437.6 496 437.2 485.65
M 413.45 480.15
Q 413.45 485 409.5 488.5 405.55 491.95 400.05 491.95 394.5 491.95 390.55 488.5 386.65 485 386.65 480.15 386.65 475.3 390.55 471.85 394.5 468.4 400.05 468.4 405.55 468.4 409.5 471.85 413.45 475.3 413.45 480.15
M 424.2 479.8
Q 424 480.65 424.45 481.45 424.9 482.2 425.85 482.45 426.65 482.7 427.5 482.3 430.15 480.95 431.45 481.45 432.55 482.45 432.65 485.8 432.9 494.7 427.6 502.85 425.2 506.55 423.25 507.75 422.2 508.25 421.45 507.6 420.7 506.95 419.8 507 419.75 507 419.7 507 419.45 503.35 419.3 496.25 418.95 484 418.8 461.6 400.1 455.55 382.2 456.05 364.3 455.55 345.6 461.6 345.4 484 345.1 496.25 344.9 503.2 344.7 506.85
L 344.65 506.85
Q 343.65 506.85 343 507.45 342.2 508.1 341.25 507.6 339.3 506.4 336.85 502.7 331.55 494.55 331.8 485.65 331.9 482.35 333 481.35 334.25 480.85 336.9 482.25 337.7 482.7 338.55 482.5 339.4 482.2 339.9 481.45 340.4 480.65 340.2 479.8 339.2 475.15 339.2 470.15 339.2 452.35 351.8 439.75 363.9 427.65 380.9 427.2
L 381 427.2
Q 381.6 427.15 382.2 427.15 382.8 427.15 383.45 427.2
L 383.5 427.2
Q 400.5 427.65 412.6 439.75 425.2 452.35 425.2 470.15 425.2 475.15 424.2 479.8
M 350.95 480.15
Q 350.95 475.3 354.9 471.85 358.8 468.4 364.35 468.4 369.9 468.4 373.8 471.85 377.75 475.3 377.75 480.15 377.75 485 373.8 488.5 369.9 491.95 364.35 491.95 358.8 491.95 354.9 488.5 350.95 485 350.95 480.15
M 381.45 544.45
Q 380.6 543.95 380.6 543.2 380.6 542.45 381.45 541.95 382.3 541.45 383.45 541.45 384.65 541.45 385.5 541.95 386.35 542.45 386.35 543.2 386.35 543.95 385.5 544.45 384.65 544.95 383.45 544.95 382.3 544.95 381.45 544.45
M 403.55 525.65
Q 394.75 522.1 382.2 522.1 369.65 522.1 360.85 525.65 357.5 526.9 355.5 528.45
L 354.4 529.3 352.75 527.15 353.85 526.25
Q 356.1 524.55 359.8 523.05 369.05 519.35 382.2 519.35 395.3 519.35 404.55 523.05 408.25 524.55 410.55 526.25
L 411.65 527.15 410 529.3 408.9 528.45
Q 406.9 526.9 403.55 525.65
M 364.4 547.2
Q 363.55 546.65 363.55 545.95 363.55 545.2 364.4 544.7 365.2 544.2 366.4 544.2 367.6 544.2 368.4 544.7 369.3 545.2 369.3 545.95 369.3 546.65 368.4 547.2 367.6 547.7 366.4 547.7 365.2 547.7 364.4 547.2
M 356.65 552.45
Q 356.65 551.7 357.55 551.2 358.35 550.7 359.55 550.7 360.75 550.7 361.55 551.2 362.45 551.7 362.45 552.45 362.45 553.15 361.55 553.65 360.75 554.15 359.55 554.15 358.35 554.15 357.55 553.65 356.65 553.15 356.65 552.45
M 402.7 546.5
Q 402.7 547.2 401.8 547.7 401 548.25 399.8 548.25 398.6 548.25 397.8 547.7 396.9 547.2 396.9 546.5 396.9 545.75 397.8 545.25 398.6 544.75 399.8 544.75 401 544.75 401.8 545.25 402.7 545.75 402.7 546.5
M 395.3 549
Q 396.5 549 397.35 549.5 398.2 550 398.2 550.75 398.2 551.5 397.35 552 396.5 552.5 395.3 552.5 394.15 552.5 393.3 552 392.45 551.5 392.45 550.75 392.45 550 393.3 549.5 394.15 549 395.3 549
M 396.35 553.7
Q 397.2 554.2 397.2 554.95 397.2 555.7 396.35 556.2 395.5 556.7 394.3 556.7 393.1 556.7 392.3 556.2 391.45 555.7 391.45 554.95 391.45 554.2 392.3 553.7 393.1 553.2 394.3 553.2 395.5 553.2 396.35 553.7
M 404.6 555
Q 403.4 555 402.6 554.5 401.75 554 401.75 553.25 401.75 552.55 402.6 552 403.4 551.5 404.6 551.5 405.8 551.5 406.6 552 407.5 552.55 407.5 553.25 407.5 554 406.6 554.5 405.8 555 404.6 555
M 390.1 546.65
Q 390.95 547.15 390.95 547.85 390.95 548.6 390.1 549.1 389.3 549.6 388.1 549.6 386.9 549.6 386.1 549.1 385.2 548.6 385.2 547.85 385.2 547.15 386.1 546.65 386.9 546.1 388.1 546.1 389.3 546.1 390.1 546.65
M 387.05 555.55
Q 388.25 555.55 389.05 556.05 389.9 556.55 389.9 557.3 389.9 558 389.05 558.5 388.25 559 387.05 559 385.85 559 385.05 558.5 384.15 558 384.15 557.3 384.15 556.55 385.05 556.05 385.85 555.55 387.05 555.55
M 394.8 560.15
Q 393.95 559.65 393.95 558.95 393.95 558.2 394.8 557.7 395.65 557.2 396.85 557.2 398 557.2 398.85 557.7 399.7 558.2 399.7 558.95 399.7 559.65 398.85 560.15 398 560.65 396.85 560.65 395.65 560.65 394.8 560.15
M 375.5 548.65
Q 374.65 548.15 374.65 547.4 374.65 546.65 375.5 546.15 376.35 545.65 377.55 545.65 378.7 545.65 379.55 546.15 380.4 546.65 380.4 547.4 380.4 548.15 379.55 548.65 378.7 549.15 377.55 549.15 376.35 549.15 375.5 548.65
M 375.7 556.05
Q 376.5 555.55 377.7 555.55 378.9 555.55 379.7 556.05 380.6 556.55 380.6 557.3 380.6 558 379.7 558.5 378.9 559 377.7 559 376.5 559 375.7 558.5 374.85 558 374.85 557.3 374.85 556.55 375.7 556.05
M 382.35 554.15
Q 381.15 554.15 380.3 553.65 379.45 553.15 379.45 552.45 379.45 551.7 380.3 551.2 381.15 550.7 382.35 550.7 383.5 550.7 384.35 551.2 385.2 551.7 385.2 552.45 385.2 553.15 384.35 553.65 383.5 554.15 382.35 554.15
M 372.15 549.15
Q 373.05 549.65 373.05 550.4 373.05 551.1 372.15 551.6 371.35 552.1 370.15 552.1 368.95 552.1 368.15 551.6 367.3 551.1 367.3 550.4 367.3 549.65 368.15 549.15 368.95 548.65 370.15 548.65 371.35 548.65 372.15 549.15
M 367.55 554.95
Q 367.55 554.2 368.4 553.7 369.25 553.2 370.45 553.2 371.6 553.2 372.45 553.7 373.3 554.2 373.3 554.95 373.3 555.7 372.45 556.2 371.6 556.7 370.45 556.7 369.25 556.7 368.4 556.2 367.55 555.7 367.55 554.95
M 368.95 557.2
Q 369.85 557.7 369.85 558.45 369.85 559.15 368.95 559.65 368.15 560.15 366.95 560.15 365.75 560.15 364.95 559.65 364.1 559.15 364.1 558.45 364.1 557.7 364.95 557.2 365.75 556.7 366.95 556.7 368.15 556.7 368.95 557.2
M 382.35 559
Q 383.5 559 384.35 559.55 385.2 560.05 385.2 560.75 385.2 561.5 384.35 562 383.5 562.5 382.35 562.5 381.15 562.5 380.3 562 379.45 561.5 379.45 560.75 379.45 560.05 380.3 559.55 381.15 559 382.35 559 Z"/>
</g>

<path id="EPP_mascarilla_0_Layer0_0_1_STROKES" stroke="#005DA6" stroke-opacity="0.3686274509803922" stroke-width="0.1" stroke-linejoin="round" stroke-linecap="round" fill="none" d="
M 474.9 302.05
Q 474.9 340.8 447.5 368.2 420.1 395.6 381.35 395.6 342.6 395.6 315.2 368.2 287.8 340.8 287.8 302.05 287.8 263.3 315.2 235.9 342.6 208.5 381.35 208.5 420.1 208.5 447.5 235.9 474.9 263.3 474.9 302.05 Z"/>
</defs>

<g transform="matrix( 0.34259033203125, 0, 0, 0.34259033203125, 35,35) ">
<g transform="matrix( 1, 0, 0, 1, 0,0) ">
<g transform="matrix( 1, 0, 0, 1, -381.35,-302.05) ">
<use xlink:href="#EPP_mascarilla_0_Layer0_0_FILL"/>

<use xlink:href="#EPP_mascarilla_0_Layer0_0_1_STROKES"/>
</g>

<g transform="matrix( 1, 0, 0, 1, -382.4,-494.05) ">
<use xlink:href="#EPP_mascarilla_0_Layer0_1_FILL"/>
</g>
</g>
</g>
</svg>
