
<svg xmlns="http://www.w3.org/2000/svg" version="1.1" xmlns:xlink="http://www.w3.org/1999/xlink" preserveAspectRatio="none" x="0px" y="0px" width="550px" height="120px" viewBox="0 0 550 120">
<defs>
<g id="Links_1_Layer2_0_FILL">
<path fill="#C1F6C4" stroke="none" d="
M 193.8 -18.05
L 186.65 -18.05 186.65 5.3 176.15 -18.05 168.95 -18.05 168.95 17.5 176.15 17.5 176.15 -5.8 186.65 17.5 193.8 17.5 193.8 -18.05
M 160.3 -14.5
Q 156.9 -18.55 150.95 -18.55 144.95 -18.55 141.55 -14.4 138.15 -10.3 138.15 -3
L 138.15 3.1
Q 138.2 10.15 141.6 14.1 145.05 18 151 18 157 18 160.4 14.05 163.8 10.1 163.8 2.9
L 163.8 -3.15
Q 163.75 -10.45 160.3 -14.5
M 145.3 -3.4
Q 145.35 -8 146.75 -10.25 148.1 -12.55 150.95 -12.55 153.85 -12.55 155.2 -10.2 156.6 -7.85 156.6 -3.05
L 156.6 3.15
Q 156.55 7.7 155.2 9.85 153.8 12 151 12 148.1 12 146.7 9.8 145.3 7.6 145.3 2.9
L 145.3 -3.4
M 132.7 -18.05
L 125.5 -18.05 125.5 17.5 132.7 17.5 132.7 -18.05
M 99.35 -14.55
Q 96.05 -10.6 96.05 -3.3
L 96.05 2.7
Q 96.05 10.05 99.25 14.05 102.45 18 108.5 18 114.25 18 117.4 14.85 120.55 11.75 120.8 5.65
L 113.65 5.65
Q 113.5 9.25 112.4 10.65 111.35 12.05 108.5 12.05 105.6 12.05 104.45 10.05 103.25 8.1 103.25 2.8
L 103.25 -3.95
Q 103.3 -8.55 104.5 -10.55 105.7 -12.6 108.6 -12.6 111.45 -12.6 112.5 -11.15 113.55 -9.7 113.65 -5.95
L 120.85 -5.95
Q 120.45 -12.05 117.45 -15.3 114.4 -18.55 108.6 -18.55 102.7 -18.55 99.35 -14.55
M 82.2 -18.05
L 75.65 -18.05 64.55 17.5 72.15 17.5 74.05 10.2 83.8 10.2 85.75 17.5 93.4 17.5 82.2 -18.05
M 82.25 4.25
L 75.6 4.25 78.9 -8.45 82.25 4.25
M 38.35 -18.05
L 28.95 -18.05 28.95 17.5 36.15 17.5 36.15 7.9 35.5 -6.95 42.6 17.5 47.45 17.5 54.55 -6.95 53.9 7.9 53.9 17.5 61.1 17.5 61.1 -18.05 51.75 -18.05 45.05 7.65 38.35 -18.05
M 12.75 -18.05
L 1.3 -18.05 1.3 17.5 8.45 17.5 8.45 4.5 12 4.5 17.35 17.5 25.1 17.5 25.1 17.15 18.85 2.6
Q 24 -0.2 24 -7.3 24 -12.45 21.1 -15.25 18.15 -18.05 12.75 -18.05
M 12.55 -1.45
L 8.45 -1.45 8.45 -12.05 12.65 -12.05
Q 16.85 -12.05 16.85 -6.7 16.85 -4.35 15.75 -2.9 14.7 -1.45 12.55 -1.45
M -26.15 -14.4
Q -29.55 -10.3 -29.55 -3
L -29.55 3.1
Q -29.5 10.15 -26.1 14.1 -22.65 18 -16.7 18 -10.7 18 -7.3 14.05 -3.9 10.1 -3.9 2.9
L -3.9 -3.15
Q -3.95 -10.45 -7.4 -14.5 -10.8 -18.55 -16.75 -18.55 -22.75 -18.55 -26.15 -14.4
M -22.4 -3.4
Q -22.35 -8 -20.95 -10.25 -19.6 -12.55 -16.75 -12.55 -13.85 -12.55 -12.5 -10.2 -11.1 -7.85 -11.1 -3.05
L -11.1 3.15
Q -11.15 7.7 -12.5 9.85 -13.9 12 -16.7 12 -19.6 12 -21 9.8 -22.4 7.6 -22.4 2.9
L -22.4 -3.4
M -45.55 -2.95
L -45.55 -12.05 -33.05 -12.05 -33.05 -18.05 -52.75 -18.05 -52.75 17.5 -45.55 17.5 -45.55 3 -34.4 3 -34.4 -2.95 -45.55 -2.95
M -58.5 -18.05
L -65.65 -18.05 -65.65 5.3 -76.15 -18.05 -83.35 -18.05 -83.35 17.5 -76.15 17.5 -76.15 -5.8 -65.65 17.5 -58.5 17.5 -58.5 -18.05
M -89.4 -18.05
L -96.6 -18.05 -96.6 17.5 -89.4 17.5 -89.4 -18.05 Z"/>
</g>

<g id="Links_1_Layer0_0_MEMBER_0_MEMBER_0_MEMBER_0_MEMBER_0_FILL">
<path fill="#C1F6C4" stroke="none" d="
M 75.3 50.5
Q 74.25 50.55 72.25 51.05 70.4 51.35 68.65 51.95 66.8 52.45 65.6 53.25 64.45 54.05 64.45 54.95 64.45 56.2 64.85 56.4
L 66.15 57.15
Q 66.95 57.6 67.2 58.3
L 67.45 60.5 67.35 66.55
Q 67.35 68 66.9 68.75 66.65 69.25 66 69.9
L 64.85 70.65
Q 64.55 71.05 64.45 72.1
L 64.55 72.95
Q 64.8 73.5 65.6 73.8 66.4 74.4 68.2 74.55 69.95 75 73 75
L 75.15 75 77.9 74.55
Q 79.15 74.3 80.1 73.55 81.1 72.95 81.25 71.65 81.25 70.75 80.65 70.65 80.1 70.1 79.8 69.9 79.15 69.4 78.8 68.6 78.35 67.55 78.35 65.55
L 78.35 52.2
Q 78.5 51.5 78.05 51.05 77.9 50.2 76.75 50.2
L 75.3 50.5
M 66.9 48.45
Q 67.9 48.75 68.9 48.75 70.05 48.75 71.55 48.45 72.95 48.3 74.45 47.7 75.95 47.35 77.05 46.4 78.05 45.55 78.05 44.1 78.05 43 77.35 42.2 76.55 41.5 75.6 41.35 74.4 41.05 73.55 41.05 72.55 41.05 71.1 41.35 69.7 41.5 68.2 42.05 66.75 42.5 65.9 43.5 64.7 44.25 64.7 45.55 64.7 46.55 65.45 47.3 66.15 48.05 66.9 48.45 Z"/>
</g>

<path id="Links_1_Layer1_0_MEMBER_0_MEMBER_0_1_STROKES" stroke="#3EEB3D" stroke-width="2" stroke-linejoin="round" stroke-linecap="round" fill="none" d="
M 145.6 10
L 145.6 110"/>

<path id="Links_1_Layer0_0_MEMBER_0_MEMBER_1_MEMBER_0_1_STROKES" stroke="#C1F6C4" stroke-width="2" stroke-linejoin="round" stroke-linecap="round" fill="none" d="
M 110.8 57.75
Q 110.8 73.4 99.65 84.25 88.8 95.4 73.15 95.4 57.6 95.4 46.45 84.25 35.45 73.4 35.45 57.75 35.45 42.2 46.45 31.05 57.6 20.05 73.15 20.05 88.8 20.05 99.65 31.05 110.8 42.2 110.8 57.75 Z"/>
</defs>

<g transform="matrix( 1, 0, 0, 1, 273.9,64) ">
<g transform="matrix( 1, 0, 0, 1, 0,0) ">
<use xlink:href="#Links_1_Layer2_0_FILL"/>
</g>

<g transform="matrix( 1, 0, 0, 1, -275,-60) ">
<use xlink:href="#Links_1_Layer1_0_MEMBER_0_MEMBER_0_1_STROKES"/>
</g>

<g transform="matrix( 1, 0, 0, 1, -275,-60) ">
<use xlink:href="#Links_1_Layer0_0_MEMBER_0_MEMBER_0_MEMBER_0_MEMBER_0_FILL"/>
</g>

<g transform="matrix( 1, 0, 0, 1, -275,-60) ">
<use xlink:href="#Links_1_Layer0_0_MEMBER_0_MEMBER_1_MEMBER_0_1_STROKES"/>
</g>
</g>
</svg>
