

<svg xmlns="http://www.w3.org/2000/svg" version="1.1" xmlns:xlink="http://www.w3.org/1999/xlink" preserveAspectRatio="none" x="0px" y="0px" width="550px" height="120px" viewBox="0 0 550 120">
<defs>

<g id="ICONOS_0_Layer0_0_FILL">
<path fill="#C1F6C4" stroke="none" d="
M 3.25 5.9
L 3.25 13.05 8.45 13.05
Q 9.8 13.05 9.8 12.05
L 9.8 1.2 13 1.2 0.05 -13 -13 1.2 -9.75 1.2 -9.75 12.05
Q -9.75 13.05 -8.45 13.05
L -3.25 13.05 -3.25 5.9
Q -3.25 4.95 -2.3 4.25 -1.35 3.55 0.05 3.55 1.4 3.55 2.3 4.25 3.25 4.95 3.25 5.9 Z"/>
</g>

<path id="Layer0_0_1_STROKES" stroke="#3EEB3D" stroke-width="2" stroke-linejoin="round" stroke-linecap="round" fill="none" d="
M 145.6 10
L 145.6 110"/>
</defs>

<g transform="matrix( 1, 0, 0, 1, 0,0) ">
<use xlink:href="#Layer0_0_1_STROKES"/>
</g>

<g transform="matrix( 2.8993682861328125, 0, 0, 2.8993682861328125, 73.15,57.7) ">
<g transform="matrix( 1, 0, 0, 1, 0,0) ">
<use xlink:href="#ICONOS_0_Layer0_0_FILL"/>
</g>
</g>

<g transform="matrix( 1, 0, 0, 1, 175.25,30) ">
<clipPath id="Mask_Mask_1">
<rect x="-2" y="-2" width="170.15" height="64" fill="#FFFFFF" stroke="none"/>
</clipPath>

<text clip-path="url(#Mask_Mask_1)" writing-mode="lr"><tspan x="0" y="47.5" baseline-shift="0%" font-family="Roboto Condensed" font-weight="bold" font-size="50" fill="#C1F6C4" xml:space="preserve">INICIO</tspan></text>
</g>
</svg>
