
<svg xmlns="http://www.w3.org/2000/svg" version="1.1" xmlns:xlink="http://www.w3.org/1999/xlink" preserveAspectRatio="none" x="0px" y="0px" width="642px" height="642px" viewBox="0 0 642 642">
<defs>
<linearGradient id="Gradient_1" gradientUnits="userSpaceOnUse" x1="-1012.25" y1="-237.82500000000002" x2="-860.1500000000001" y2="-303.27500000000003" spreadMethod="pad">
<stop  offset="0%" stop-color="#2B3D54"/>

<stop  offset="9.411764705882353%" stop-color="#374D6B"/>

<stop  offset="78.03921568627452%" stop-color="#445974"/>

<stop  offset="96.86274509803921%" stop-color="#4E617B"/>
</linearGradient>

<linearGradient id="Gradient_2" gradientUnits="userSpaceOnUse" x1="-539.4000000000001" y1="-102.5375" x2="-676.5" y2="-200.86249999999998" spreadMethod="pad">
<stop  offset="0%" stop-color="#2B3D54"/>

<stop  offset="9.411764705882353%" stop-color="#374D6B"/>

<stop  offset="78.03921568627452%" stop-color="#445974"/>

<stop  offset="96.86274509803921%" stop-color="#4E617B"/>
</linearGradient>

<linearGradient id="Gradient_3" gradientUnits="userSpaceOnUse" x1="-802.25" y1="-605.475" x2="-565.8499999999999" y2="-535.3249999999999" spreadMethod="pad">
<stop  offset="0%" stop-color="#2B3D54"/>

<stop  offset="9.411764705882353%" stop-color="#374D6B"/>

<stop  offset="78.03921568627452%" stop-color="#445974"/>

<stop  offset="96.86274509803921%" stop-color="#4E617B"/>
</linearGradient>

<filter id="Filter_1" x="-22.072775943337106%" y="-20.999241749733912%" width="144.1455518866742%" height="141.99848349946782%" color-interpolation-filters="sRGB">
<feGaussianBlur in="SourceGraphic" stdDeviation="16.333333333333332,16.333333333333332" result="result1"/>
</filter>

<filter id="Filter_2" x="-20%" y="-20%" width="140%" height="140%" color-interpolation-filters="sRGB">
<feGaussianBlur in="SourceGraphic" stdDeviation="5.333333333333333,5.333333333333333" result="result1"/>
</filter>

<g id="mundo_Recargado_0_Layer0_0_MEMBER_0_FILL">
<path fill="#202D3F" stroke="none" d="
M -925.95 -125.85
Q -918.2 -117.55 -904.45 -114.25
L -749.5 -114.25 -749.5 -245.55 -907.55 -245.55
Q -946.1 -167.7 -931.95 -135.35 -929.65 -130.1 -925.95 -126.05
L -925.95 -125.85
M -819.8 -641.45
L -820 -641.6
Q -830.95 -639.4 -840.9 -629.4
L -922.1 -497.35 -810.2 -428.6 -727.55 -563.2
Q -773.5 -636.8 -808.6 -641.75 -814.45 -642.55 -819.8 -641.45
M -488.45 -462.5
L -602.9 -398.25 -525.55 -260.35
Q -438.7 -264.85 -417.55 -292.8 -414.15 -297.4 -412.3 -302.6
L -412.15 -302.8
Q -408.7 -313.45 -412.65 -327.2
L -488.45 -462.5 Z"/>
</g>

<g id="S_mbolo_13_0_Layer0_0_FILL">
<path fill="#000000" fill-opacity="0.2" stroke="none" d="
M 11.75 148.75
Q 23.030078125 164.080078125 37.15 178.2 98.1474609375 239.1974609375 181.45 246.45
L 181.45 123.55 23.4 123.55
Q 16.827734375 136.8224609375 11.75 148.75
M 422.6 -82.25
L 328.05 -29.15 405.4 108.75
Q 413.4984375 108.33046875 421 107.7 440.9 63.443359375 440.9 10.95 440.9 -39.440625 422.6 -82.25
M 37.15 -156.3
Q 22.889453125 -142.0498046875 11.55 -126.6
L 120.75 -59.5 203.4 -194.1
Q 192.678125 -211.2736328125 182.55 -224.7 98.5490234375 -217.743359375 37.15 -156.3 Z"/>
</g>

<g id="mundo_Recargado_0_Layer0_0_MEMBER_2_FILL">
<path fill="#5A708F" stroke="none" d="
M -578.95 -210.55
Q -517.85 -271.7 -517.85 -358.15 -517.85 -444.65 -578.95 -505.75 -640.1 -566.9 -726.55 -566.9 -813.05 -566.9 -874.15 -505.75 -935.3 -444.65 -935.3 -358.15 -935.3 -271.7 -874.15 -210.55 -813.05 -149.45 -726.55 -149.45 -640.1 -149.45 -578.95 -210.55 Z"/>
</g>

<g id="mundo_Recargado_0_Layer0_0_MEMBER_2_MEMBER_0_FILL">
<path fill="#83ED88" stroke="none" d="
M -687.3 -388.3
Q -687.55 -388.6 -687.95 -389.1
L -688.45 -390.15
Q -689.4 -391.65 -691.75 -391.65 -693.05 -391.8 -694.05 -391.2 -695.35 -390.4 -695.4 -389.25 -695.5 -388.2 -694.55 -387.3 -693.7 -386.65 -692.45 -386.85 -692.4 -385.95 -690.95 -385.3 -689.25 -384.55 -688.2 -385.15 -687.3 -385.5 -687 -386.5 -686.75 -387.55 -687.3 -388.3
M -718.7 -412.5
Q -719.15 -412 -719.2 -411.25 -719.3 -410.6 -718.95 -410.05 -718.5 -409.4 -717.25 -408.8 -714.8 -407.65 -713.15 -407.95 -713.45 -406.65 -712.2 -405.85 -711.55 -405.4 -709.8 -405.4 -708.8 -405.4 -708.45 -405.1
L -707.8 -404.6
Q -707.3 -404.3 -706.55 -404.15 -704.75 -403.95 -704.45 -403.75
L -703.95 -403.3
Q -703.6 -403 -702.65 -402.85 -701 -402.5 -700.4 -402.65 -699.95 -402.7 -699.7 -402.95 -699.25 -402.85 -698.9 -402.85 -697.5 -402.85 -697.3 -402.8 -696.65 -402.5 -695.9 -401.7
L -693.6 -399.3
Q -692.3 -398 -691.75 -397.8
L -690.35 -397.2
Q -689.7 -396.85 -689.2 -395.9 -688.55 -394.85 -688.25 -394.4 -687.55 -393.25 -686.3 -392.6
L -685.05 -391.85
Q -684.5 -390.95 -684.2 -390.5 -682.95 -388.75 -681 -389.25 -680.15 -389.5 -679.5 -390.2 -678.85 -390.95 -678.75 -391.8 -678.65 -393.6 -680.85 -396.15 -682.95 -398.25 -683.25 -398.45 -684.8 -399.7 -685.05 -400.05 -685.5 -400.7 -686 -402.35 -686.45 -403.35 -687.65 -404.4 -688.4 -404.95 -689.85 -406.05 -690.55 -406.7 -692 -408.2 -693.4 -409.45 -694.6 -409.65 -694.2 -410.55 -695.2 -411.55 -695.85 -412 -697.15 -412.4
L -700.4 -413.5
Q -702.3 -414.1 -703.3 -414.2 -704.4 -414.35 -706.55 -414.35
L -713.8 -414.15
Q -715.15 -413.95 -716.75 -413.5 -718.2 -413.05 -718.7 -412.5
M -637.15 -389.25
Q -636.95 -390.35 -637.55 -391.2 -638.05 -392 -639.2 -392.25 -640.3 -392.45 -641.15 -391.95
L -642.6 -390.65 -644.1 -389.75
Q -644.5 -389.5 -645.15 -388.7 -645.7 -387.95 -646.15 -387.65 -646.8 -387.25 -647.9 -387.25 -648.55 -387.25 -649.85 -387.4 -652.65 -387.55 -654.45 -385.8 -656.55 -383.85 -656 -381.3 -656.7 -381.4 -658.25 -381.4 -659.6 -381.45 -660.25 -382.1 -660.45 -382.3 -660.9 -383.05 -661.4 -383.85 -662.55 -385.3 -663.05 -386.1 -663.95 -387.75 -665.3 -389.7 -668.05 -389.7 -670.4 -389.7 -672.55 -388.3 -674.3 -387.25 -674.8 -387.1 -675.15 -386.95 -676 -386.75 -676.7 -386.5 -677.05 -386.15 -677.75 -385.45 -677.55 -384.35 -677.35 -383.35 -676.45 -382.75 -674.85 -381.75 -672.7 -382.7 -672.2 -382.95 -671.75 -383.2 -671.55 -382.9 -671.2 -382.75 -670.55 -382.55 -670.15 -382.4
L -669.5 -382.05
Q -668.55 -381.6 -667.5 -381.75 -667.25 -381.5 -667.2 -380.95 -667.05 -380.3 -667 -380.15 -666.75 -379.2 -665.75 -378.85 -665.15 -378.7 -664.95 -378.5 -664.9 -378.4 -664.75 -377.9 -664.6 -377.25 -663.95 -376.8 -663.35 -376.4 -662.7 -376.45 -661.65 -376.45 -661.05 -377.25 -660.9 -377.2 -660.75 -377.2 -655.85 -376.15 -650.9 -377.3 -648 -377.9 -647.3 -379.65 -647.1 -380.95 -646.65 -381.45 -646.2 -381.9 -645.35 -382.05 -645.15 -382.05 -643.75 -382.05 -641.95 -382.05 -641.3 -383.05 -641 -383.45 -640.85 -384.65 -640.8 -385.7 -640.45 -386.15 -640.05 -386.6 -639.35 -386.95 -638.4 -387.4 -638.2 -387.55 -637.4 -388.1 -637.15 -389.25
M -580.5 -482.95
Q -581 -483.2 -582.25 -483.4 -582.45 -483.45 -583.75 -484.4 -584.55 -485.2 -584.65 -485.4 -584.85 -485.95 -584.95 -487 -585.2 -487.75 -586.5 -488.7 -587.05 -489.2 -587.45 -490.8 -587.75 -491.95 -588.25 -492.5 -589.05 -493.45 -590.05 -493.1 -590.5 -492.85 -590.85 -492.35
L -592.4 -490.5
Q -593.55 -488.8 -594.25 -488.55 -594.5 -488.4 -595.2 -488.25 -595.85 -488.15 -596.15 -487.95 -596.45 -488.75 -597.3 -489.05 -598.25 -489.35 -599.05 -488.95 -600.1 -488.55 -601.05 -486.85 -601.35 -486.7 -601.5 -486.35 -601.8 -485.85 -601.65 -485.35
L -601.65 -485.3
Q -601.65 -485.05 -601.65 -484.85 -601.35 -483.6 -600.5 -483.75 -600.5 -482.65 -598.8 -482.4 -598.4 -482.3 -596.05 -482.25 -594.35 -482.15 -593.4 -481.75 -592.6 -481.45 -591.65 -480.65 -590.65 -479.7 -590.15 -479.25
L -588.5 -478.1
Q -586.6 -476.95 -585.6 -476.5 -584.3 -475.95 -583 -475.65 -581 -475.2 -578.8 -475.35 -577.25 -475.5 -576.45 -476 -575.8 -476.6 -575.4 -476.75 -574.3 -477.05 -573.85 -477.4 -573.05 -478.2 -573.95 -479.55 -574.45 -480.15 -575.5 -481.2
L -576.3 -482.4
Q -576.9 -483.1 -577.55 -483.1 -577.75 -483.1 -578.35 -482.8 -578.85 -482.6 -579.15 -482.6 -579.2 -482.6 -580.5 -482.95
M -577.6 -478.9
Q -578.05 -478.45 -579 -478.35 -580.25 -478.1 -582.7 -478.7
L -584 -479.05
Q -584.7 -479.25 -585.75 -479.9
L -587.6 -481
Q -588.6 -481.65 -588.85 -481.95
L -589.5 -482.8 -590.45 -483.3
Q -590.85 -483.6 -591.75 -484.35 -592.55 -484.7 -592.75 -484.75 -593.45 -485 -595.05 -485.15
L -592.55 -486
Q -591.15 -486.65 -590.55 -487.65 -590.3 -488.6 -589.85 -488.8 -590.2 -487.6 -588.7 -486.7 -587.95 -486.45 -587.8 -486.05 -587.75 -485.95 -587.55 -484.65 -587.3 -483.7 -586.6 -483.1
L -584.4 -481.15
Q -583.7 -480.55 -582.55 -480.45
L -581.4 -480.3 -580.75 -480
Q -579.6 -479.5 -578.2 -479.7 -578 -479.15 -577.6 -478.9
M -637.95 -547.8
Q -638.45 -548.1 -639 -548.3 -639.4 -548.45 -639.8 -548.5 -640.8 -548.75 -642.75 -548.65 -643.45 -548.95 -644.2 -549.1 -644.6 -549.15 -645.15 -549.15 -645.25 -549.25 -645.4 -549.3 -646.7 -549.8 -647.6 -549.8 -647.95 -549.8 -648.8 -549.75 -649.45 -549.75 -649.9 -550.05 -650.35 -550.3 -650.9 -551.35 -651.35 -552 -652 -552.35 -652.3 -552.85 -652.65 -553.3 -653.9 -554.8 -656.7 -555.1 -658.95 -555.25 -660.6 -554.3 -661.5 -553.85 -662.35 -553 -662.8 -552.95 -663.2 -552.8 -664.9 -552.3 -665.75 -550.9 -667.1 -548.8 -666.25 -546.4 -666.2 -546.25 -666.1 -546.15 -666.2 -545.85 -666.2 -545.45 -666.45 -540.7 -665.1 -535.7 -664.8 -535.05 -665.05 -534.6 -665.25 -533.9 -666.75 -533.9 -668.8 -533.9 -670.15 -533.1 -671.3 -532.45 -671.9 -531.35 -673.5 -531.5 -674.3 -532.5 -674.7 -533.1 -675.3 -534.4 -675.65 -534.9 -676.4 -535.35 -676.8 -535.55 -677.75 -536.05 -678.7 -536.6 -679.7 -537.6 -680.3 -538.15 -681.45 -539.4 -683.6 -541.7 -685.65 -542.05 -686.25 -542.2 -687.65 -542.2 -688.85 -542.2 -689.55 -542.35 -689.7 -543.75 -690.55 -544.75 -691.3 -545.6 -693.95 -547.2 -696.7 -549.25 -697.5 -549.65
L -699.9 -550.75
Q -700.35 -551.05 -701.8 -552.3 -703.9 -553.95 -706.5 -554.35 -706.7 -554.45 -708.8 -554.65 -710.25 -554.8 -711.05 -555.15 -711.55 -555.4 -713.05 -556.35 -714.3 -557.05 -715.15 -557.2 -715.75 -557.25 -717.05 -557.2 -718.2 -557.2 -718.8 -557.7 -719.2 -558.05 -719.5 -558.95 -719.65 -559.35 -719.95 -560.3 -719.95 -560.4 -720 -560.5 -717.2 -560.95 -715.1 -561.4 -709.9 -562.4 -708.35 -565.3 -708.15 -565.75 -708 -566.15 -717.2 -566.9 -726.6 -566.9 -737.8 -566.9 -748.65 -565.8 -772.35 -563.55 -793.9 -556.4 -824.2 -546.25 -850.45 -526.45 -851.4 -524.2 -850.4 -522.4 -850.2 -522.05 -849.95 -521.65 -850.05 -520.95 -850.05 -520.15
L -850.55 -503.1
Q -850.7 -498.65 -848.9 -497.15 -848.45 -496.8 -847.15 -496.15 -846 -495.55 -845.5 -494.95 -844.55 -493.95 -844.7 -492.35 -844.85 -491 -845.7 -489.55 -848.3 -486.5 -848.95 -484.65 -849.8 -481.95 -848.25 -477.9 -845.75 -471.15 -841.15 -470.25 -840.65 -470.15 -838.75 -470 -837.3 -470 -836.45 -469.65 -835.8 -469.35 -834.85 -468.65 -833.6 -467.7 -833.25 -467.5 -833.2 -467.5 -833.2 -467.4 -833.1 -465.75 -832.55 -464.35 -831.8 -463 -831.65 -462.4
L -831.6 -460.9
Q -831.15 -459.75 -831.1 -459.15 -830.95 -458.65 -830.95 -456.9 -830.7 -455.2 -829.9 -454 -829.2 -452.95 -829.05 -452.5
L -828.85 -450.85
Q -828.2 -449.15 -828.05 -448.4 -827.9 -447.15 -827.75 -447
L -826.95 -446.3
Q -826.95 -446.2 -826.75 -445.25 -826.6 -444.6 -826 -443.95 -824.65 -442.6 -823.35 -442.6 -822.55 -442.5 -821.9 -442.95 -821.15 -443.4 -821 -444.1 -820.8 -444.75 -821.25 -446.05 -821.75 -447.5 -822.85 -449.1 -823.4 -449.9 -823.5 -450.05 -823.65 -450.45 -823.7 -451.2
L -823.7 -452.45
Q -823.85 -453.1 -824.35 -454.15 -824.85 -455.4 -825 -455.95 -825.05 -456.35 -825.2 -457.8 -825.3 -458.95 -825.65 -459.6 -825.95 -460 -825.95 -460.4
L -825.5 -461.05
Q -825.5 -461.1 -825.3 -462.2 -825.05 -462.9 -824.65 -463.55
L -823.55 -465.5
Q -823.25 -466.1 -823.05 -466.55 -822.6 -465.8 -821.75 -465.15 -819.5 -463.55 -818.65 -462.7 -817.5 -461.6 -816.55 -459.45 -815.6 -456.9 -815 -455.75 -813.85 -453.45 -809.45 -448.6 -809.15 -448.25 -808.85 -447.95 -808.85 -446.4 -808.15 -445.05 -807.8 -444.3 -806.85 -443.1 -805.95 -441.85 -805.6 -441.2 -804.6 -439.35 -804.15 -435.15 -803.45 -427.85 -804.25 -424.3 -804.65 -422.45 -804.8 -421.55 -805.2 -420 -805.05 -418.85 -804.45 -415.3 -800.05 -412.8 -797.65 -411.55 -796.5 -410.9 -794.4 -409.75 -793.15 -408.65 -792.6 -408.15 -791.05 -406.4 -789.85 -404.95 -788.9 -404.3 -786.85 -402.85 -783.6 -402.5 -780.35 -402.15 -779.55 -401.8 -778.7 -401.25 -777.7 -400.2 -776.6 -398.9 -776 -398.3 -773.85 -396.3 -770.15 -395.7 -768.65 -395.4 -766.4 -395.4 -761.55 -393.3 -755.9 -393.9 -756.1 -393.3 -756.2 -392.75 -756.4 -391 -755.6 -389.4 -755.05 -388.3 -754.9 -387.65
L -754.6 -386.1
Q -754.4 -385.15 -753.1 -384 -751.55 -382.6 -748.75 -381 -746.65 -379.65 -745.1 -379.2 -743.25 -378.85 -742.25 -378.55 -741.7 -378.4 -741.3 -378.25 -740.65 -377.4 -740 -377.05 -739.55 -376.8 -737.9 -376.45 -736.85 -376.3 -736.3 -375.8 -736.65 -375.3 -736.85 -374.8
L -737 -373.35 -736.95 -370.5
Q -736.95 -369.6 -736.8 -369.15
L -736.35 -368.05
Q -736.15 -367.1 -736.15 -367.05 -736.1 -366.75 -735.65 -366.2
L -734.35 -364.65
Q -733.05 -363.05 -731.9 -362.85 -730.85 -362.55 -729.85 -363.15
L -729.2 -362.5
Q -728.5 -361.55 -728.35 -361.5 -727.7 -361.25 -727.4 -361.1 -726.9 -360.7 -726.6 -360.45 -726.4 -360.25 -725.45 -359.75 -724.65 -359.4 -724.35 -358.95 -724.05 -358.5 -724 -357.95 -723.9 -357.55 -723.85 -356.85 -723.65 -355.85 -722.9 -355.1 -722.75 -354.95 -720.8 -353.35
L -719.75 -352.3
Q -718.65 -351.4 -718.5 -351.2 -718.3 -350.9 -718.15 -350.35 -718.35 -350.2 -718.4 -349.9 -718.95 -348.65 -718.05 -347.75 -717.5 -347.1 -716.4 -346.95 -714.95 -346.7 -713.6 -347.3
L -712.35 -347.9
Q -711.75 -348.1 -709.8 -348.1 -709.45 -346.85 -708.75 -346.05
L -708.2 -345.5 -707.55 -343.4
Q -707.45 -342.75 -707.3 -341.45 -707.2 -341.05 -707.15 -340.8 -707.45 -340.05 -707.65 -339.2 -708.45 -336.1 -709.25 -335.05 -710.05 -334.05 -711.9 -332.95 -714.3 -331.65 -714.9 -331.15 -716.25 -330.1 -718 -327.1 -719.8 -324.15 -721.1 -323.05 -721.4 -322.85 -723.4 -321.45 -724.85 -320.6 -725.5 -319.75 -726.8 -318 -726.65 -314.8 -726.55 -312.05 -725.5 -310.25 -725.8 -309.55 -726.45 -307.7 -726.95 -306.35 -728.1 -304.25 -729.7 -301.2 -729.7 -299.4 -729.85 -296.85 -728.05 -295.05 -726.95 -293.95 -726.9 -293.85 -726.45 -293.1 -726.3 -291.5 -726.15 -289.85 -726.15 -286.45 -726.25 -285.6 -726.15 -284.85 -726.75 -283.05 -726.1 -279.65 -725.15 -275.3 -724.2 -273.65 -724.05 -273.35 -723.05 -271.75 -722.9 -271.45 -722.7 -271.2 -722.6 -270.9 -722.55 -270.55 -722.25 -269.75 -721.95 -269 -721.9 -267.7 -722.05 -265.4 -721.8 -262.3 -718.35 -258.3 -714.25 -253.55 -713.45 -251.65 -713.05 -250.85 -712.4 -249.2 -711.85 -247.9 -710.95 -247.25 -710.3 -246.7 -708.95 -246.3 -707.45 -245.85 -706.85 -245.5 -705.4 -244.55 -704.15 -241.1 -703.75 -239.7 -703.15 -237.7 -703.35 -237.3 -703.5 -236.8
L -703.95 -234.4
Q -704.25 -232.7 -704.55 -231.8 -704.7 -231.1 -705.05 -230.6 -705.4 -230.1 -706.5 -229.35 -707.45 -228.65 -708.2 -226.75 -708.3 -226.6 -708.35 -226.4 -708.6 -226.05 -708.8 -225.6 -708.95 -225.3 -709 -224.95 -709.45 -224.2 -709.65 -223.95 -710.25 -223.05 -711.7 -221.55 -712.2 -220.9 -712.8 -219.5 -713.95 -218.65 -714.35 -217.35 -715.25 -217.05 -715.8 -216.35 -717.4 -214.6 -717.4 -209.9 -717.35 -207.85 -717.25 -203.75 -717.25 -200.2 -717.55 -197.65 -718 -194.25 -719.5 -192.8 -720.45 -192 -723.15 -191.25 -726 -190.5 -727.45 -189.95 -729.8 -189 -731.15 -187.45 -731.9 -186.6 -732.6 -185.2 -733.05 -184.45 -733.85 -182.85 -734.55 -181.75 -736.95 -178.85 -739.1 -176.2 -741.85 -171.85 -744.05 -168.5 -744.75 -166.7 -745.65 -164.7 -746.15 -161.25
L -747.5 -154.1
Q -747.95 -151.8 -747.95 -150.35 -744.75 -150.05 -741.5 -149.85 -739.7 -149.75 -737.8 -149.65 -733.55 -149.5 -729.15 -149.4 -729.15 -150.8 -728.9 -151.5 -728.65 -152.3 -726.55 -154.9 -725.1 -156.85 -723.65 -161.65 -720.45 -160.55 -716.85 -163.9 -716.7 -164 -714.15 -166.55 -712.55 -168.15 -711.25 -168.85 -709.75 -169.75 -707.05 -170.4 -690.35 -175.1 -680.15 -180 -674.5 -182.9 -670.95 -185.15 -667.9 -187.05 -667.05 -188.85 -666.55 -189.95 -666.55 -191 -662.8 -191.15 -657.7 -191.5
L -651.95 -192.3
Q -648.8 -192.75 -647.75 -193.25 -645.85 -194.1 -645 -195.85
L -644.75 -196
Q -643.6 -196.5 -642.9 -197.15 -641.6 -198.45 -641.5 -200.15 -641.65 -202.15 -641.3 -203 -641 -203.65 -639.1 -205.25 -637.45 -206.55 -637.7 -207.85 -635.45 -208.1 -632.2 -210.25 -628.4 -212.85 -626.8 -213.35 -624.5 -213.9 -623.4 -214.4 -622.4 -214.9 -620.8 -216.5 -619.1 -218.2 -618.5 -219.5 -618.35 -219.9 -618.2 -220.25 -617.2 -221.05 -616.55 -221.35 -615.85 -221.6 -614.6 -221.75
L -612.65 -222
Q -608.1 -222.55 -604.1 -226.25 -601.15 -228.95 -599.4 -232.6 -598.1 -235.95 -597.1 -237.45 -596.6 -238.25 -594.75 -240.55 -593.2 -242.55 -592.65 -243.9 -591.75 -243.9 -589.15 -243.25 -586.9 -242.75 -585.6 -243.1 -584.35 -243.4 -582.9 -244.65 -581.3 -246.05 -580.45 -246.7 -578.2 -247.95 -577.1 -248.7 -574.3 -250.4 -572.8 -253.55 -571.45 -256.5 -571.45 -263 -571.45 -268.05 -572.8 -270.1 -573.5 -271.25 -575.25 -273.2 -575.8 -274.15 -576.7 -276.1 -577.55 -277.6 -579.2 -279.5 -581.9 -282.75 -583.85 -283.55 -584.5 -283.85 -585.15 -283.9 -585.3 -284 -585.45 -284.05 -586.8 -284.7 -589.4 -284.7
L -592.3 -284.8
Q -593.45 -285 -593.7 -285.05 -594.05 -285.3 -594.75 -286 -595.35 -286.5 -596.7 -287.25 -597.45 -287.8 -597.9 -289.4 -598.45 -291.3 -598.75 -291.8 -599.55 -293.05 -601.3 -293.75 -602.6 -294.5 -603.9 -294.5 -605.2 -294.5 -606.35 -293.75 -607.6 -293.1 -608.15 -291.95 -608.75 -290.85 -608.8 -289.8 -609.55 -289.7 -610.7 -289 -612 -288.2 -612.85 -288.35 -612.5 -289.4 -613.2 -291.1 -614.25 -293.55 -614.3 -293.85 -614.45 -295.05 -614.65 -295.65 -614.95 -296.45 -614.9 -296.8 -614.8 -297.3 -614.15 -297.8 -613.2 -298.45 -613.1 -298.6 -612.35 -299.85 -611.75 -300.2 -611.2 -300.5 -610.25 -300.35 -606.7 -300.05 -604.75 -301.7 -602.95 -303.1 -602.95 -305.4 -602.95 -305.75 -602.95 -306.05 -602.15 -307.5 -602.6 -309.45 -603.25 -312.35 -606.55 -313.85 -608.5 -314.8 -612.55 -315.1 -615.6 -315.1 -616.6 -316.4 -617.05 -317.05 -617.55 -318.45 -618.2 -319.5 -620.6 -320.75 -623.35 -322.05 -624.95 -322.25 -626.1 -322.5 -628.4 -322.4 -629.8 -322.4 -630.75 -322.35 -630.75 -323.95 -631.3 -325.95 -632.7 -330.95 -634.3 -332.7 -635.45 -334 -638.45 -336 -639.2 -336.6 -642.65 -340.05 -645.15 -342.5 -647.25 -343.45 -649.05 -344.25 -651.65 -344.5 -653.25 -344.55 -656.35 -344.6 -659.95 -344.75 -661.2 -346.5 -661.7 -347.15 -662.05 -348.4 -662.5 -349.9 -662.7 -350.25 -663.6 -351.85 -665.45 -352.45 -667.4 -352.95 -668.95 -352 -669.75 -351.5 -672.1 -348.65 -673.85 -346.55 -675.5 -346.65 -675 -349.7 -676.55 -352.6 -678.05 -355.45 -680.8 -356.8 -683.55 -358.15 -686.8 -357.45 -690 -356.8 -692 -354.45 -692.6 -353.8 -694.4 -350.65
L -694.85 -350.55 -699.3 -347.45 -699.95 -347.35
Q -700.75 -347.2 -701.35 -347.45
L -702.35 -347.9
Q -703.1 -348.25 -704.55 -348.25 -705.35 -348.95 -705.55 -349.45 -705.85 -349.9 -705.9 -350.9 -706 -351.95 -706.2 -352.35 -706.75 -353.45 -708.15 -353.6 -709.15 -353.65 -710.4 -353.1
L -711.35 -352.7
Q -711.75 -352.6 -712.55 -352.6 -713.5 -352.6 -714.1 -352.45 -714.25 -352.85 -714.35 -353.35 -714.95 -355.05 -715.65 -355.4
L -716.7 -355.9
Q -717 -356.1 -717.35 -356.85 -717.7 -357.5 -718.05 -357.7 -718.4 -357.95 -719.3 -358.2 -719.5 -358.45 -719.65 -359.1 -719.95 -360.85 -720 -360.9 -720.25 -361.9 -720.8 -362.5 -721.25 -362.95 -722.4 -363.5
L -724.2 -364.75
Q -723.35 -365.55 -722.9 -366.55 -721.9 -368.65 -722.7 -371.95 -723.15 -373.2 -722.9 -373.9 -722.7 -374.5 -722.05 -375 -721.25 -375.6 -720.9 -375.9 -719.45 -377.1 -719.45 -379.3 -719.45 -379.7 -719.5 -380.05 -719.45 -380.2 -719.35 -380.3 -718.95 -380.85 -719 -381.6 -719.1 -382.3 -719.65 -382.9 -720.15 -383.85 -721.4 -384
L -721.45 -383.9
Q -721.6 -384 -721.75 -384
L -722.05 -383.85
Q -722.1 -383.85 -722.2 -383.85 -722.25 -383.85 -722.4 -383.75 -723.25 -384.2 -724.3 -384.35 -726.3 -384.55 -728.1 -383.7 -729.35 -383.05 -729.95 -383.35 -730.45 -383.55 -730.95 -384.55 -731.3 -385.05 -732.1 -385.45 -732.55 -385.7 -733.45 -386.15 -734.7 -386.85 -735.85 -388.05
L -736.6 -388.7
Q -736.45 -389.1 -736.3 -389.6 -735.95 -391.3 -736.6 -392.65 -736.65 -392.9 -736.8 -393.1 -736.15 -393.15 -735.5 -393.15 -732.1 -393.25 -730.7 -394.6 -728.85 -396.45 -729.4 -401.5
L -729.95 -405.7
Q -730.2 -409 -731.4 -410.3 -732.95 -412.15 -737 -412.4 -741.45 -413 -743.4 -411.2 -744.45 -410.3 -744.75 -408.8 -745.1 -407.35 -744.7 -406.05 -744.2 -404.45 -744.45 -404 -745.05 -403.1 -747.2 -403.75 -749.3 -404.3 -754.75 -404.1 -757 -404 -758.65 -404.15 -759.45 -405.05 -759.5 -405.2 -759.9 -405.75 -760.15 -407.35 -761.1 -411.05 -764.65 -414.75 -766.3 -416.4 -766.55 -417.4 -766.7 -418 -766.4 -419.85 -765.4 -423.8 -766.6 -425.95 -767.2 -426.8 -768 -427.4 -767.9 -429.8 -766.9 -433.85 -765.6 -438.8 -763.85 -440.55 -761.6 -442.15 -760.8 -443.25 -760.05 -444.55 -759.4 -444.95 -758.6 -445.5 -757.05 -445.5
L -747.95 -445.55
Q -747.15 -443.45 -743.95 -442.75 -740.2 -441.85 -737.45 -443.95 -736.1 -445.05 -735.45 -446.8 -735.45 -446.85 -735.35 -446.85 -733.75 -446.4 -731 -446.55 -725.6 -446.8 -719.65 -447.8 -720.15 -446.3 -719.65 -444.75 -719.15 -443.25 -717.9 -442.15 -716.4 -440.85 -713.8 -440.55 -712.15 -440.35 -709.1 -440.55 -709 -434.25 -706.1 -427.95 -704.55 -424.5 -702.35 -423.2 -701.05 -422.35 -699.45 -422.25 -697.75 -422.25 -696.65 -423.25 -695.2 -424.55 -694.9 -428.1 -694.9 -428.5 -694.9 -436.3 -694.9 -441.2 -694.1 -444.4 -693.7 -446 -692.9 -446.5 -691.6 -446.85 -690.95 -447.05 -690.15 -447.45 -689.1 -448.5 -687.95 -449.9 -687.55 -450.25 -686.75 -450.85 -685.3 -451.15 -683.7 -451.35 -682.9 -451.55 -680.6 -452.15 -678.35 -454 -676.9 -455.25 -674.65 -457.85 -672.6 -460.15 -671.75 -461.4 -670.3 -463.45 -669.8 -465.4
L -668.95 -468.65
Q -667.9 -470.6 -666.35 -470.5 -665.8 -470.5 -665.1 -470.15 -664.3 -469.65 -663.85 -469.45 -662 -468.4 -659.65 -469.3 -657.45 -470.15 -656.7 -472.2 -656.5 -472.7 -656.4 -473.25 -656.15 -473.25 -655.9 -473.25 -654.45 -473.2 -649.45 -471.95 -645.5 -471 -643.05 -471.55 -642.3 -471.65 -639 -472.9 -634.15 -474.3 -631.9 -475.45 -631.65 -475.5 -631.45 -475.65
L -630.9 -474.7
Q -629.65 -473.1 -627.85 -472.4 -625.95 -471.6 -624.05 -472.05 -623.35 -472.2 -620.95 -473.2 -619.35 -473.75 -616.55 -474.05 -613.1 -474.5 -612.05 -474.7 -610.4 -475.15 -609.55 -475.75 -608.3 -476.5 -607.7 -477.9 -607.05 -479.25 -607.35 -480.7 -607.6 -482.1 -608.6 -483.2 -609.6 -484.25 -611.05 -484.65 -612 -484.85 -614 -484.7 -616.25 -484.5 -618.15 -484.2 -618.2 -484.35 -618.2 -484.4 -618.35 -485 -619 -486.35 -619.6 -487.6 -619.65 -488.4 -619.75 -488.8 -619.35 -491.3 -619.1 -493 -619.5 -494.6 -620 -496.4 -621.3 -497.3 -622.2 -497.85 -623.95 -498.15 -626.1 -498.5 -626.75 -498.75 -627.7 -499 -627.9 -499.55 -628.2 -499.9 -628.2 -500.6 -628.2 -501.55 -627.4 -503.1 -626.1 -502.95 -624.85 -503.35 -623.65 -503.8 -622.85 -504.9
L -620.15 -502.2 -618.2 -501
Q -617 -499.8 -616.2 -499.4 -615.4 -498.95 -614.4 -498.75 -614.4 -498.6 -613.95 -498
L -612.95 -496.55 -612.45 -496
Q -611.85 -495.6 -611 -495.6 -610.85 -495.6 -610.6 -495.6 -609.8 -495.1 -608.6 -494.85 -606 -494.1 -604.1 -494.3 -603.75 -493.8 -603.25 -493.8 -602.3 -494.2 -601.8 -494.3 -601.2 -494.6 -599.35 -494.6
L -597.3 -494.75
Q -596.45 -494.9 -596.05 -495.1 -595.4 -495.5 -595.35 -496.35 -595.2 -497.15 -595.65 -497.85 -596.15 -498.9 -598.1 -499.75 -599.05 -500.1 -599.75 -500.1 -600 -500.1 -600.1 -500.05 -600.2 -500.2 -600.2 -500.25 -600.35 -500.9 -600.9 -502.2
L -601.8 -504.15
Q -603.65 -508.45 -605.1 -510.6 -606.3 -512.25 -606.5 -512.9 -606.7 -513.5 -606.85 -514.8 -607 -516.1 -607.2 -516.75 -607.5 -517.55 -608.45 -518.7 -609.6 -520.1 -609.9 -520.5 -610.55 -521.55 -611.4 -523.7 -612.65 -526.1 -615.15 -527 -617.15 -527.75 -618.7 -527.15 -618.95 -527.25 -619.15 -527.4 -621.05 -528.45 -624.65 -530.95 -625.6 -531.6 -626.15 -532.1 -626.4 -533.6 -627.25 -534.75 -627.7 -535.4 -629.05 -536.65
L -629.15 -536.7
Q -629.5 -537.3 -629.85 -537.65 -630.1 -537.9 -630.35 -538.1 -630.6 -538.4 -630.75 -538.6 -630.95 -538.9 -631.4 -540 -631.75 -540.85 -632.1 -541.35 -632.9 -542.5 -634.3 -542.95 -635.15 -543.1 -635.45 -543.45 -635.7 -543.8 -635.7 -544.45 -635.95 -546 -637.1 -547.15 -637.55 -547.55 -637.95 -547.8
M -645.2 -537.75
Q -644.7 -537 -644.4 -536.65 -644.2 -536.2 -643.85 -535.8 -642.9 -534.6 -641.45 -533.95 -641.2 -533.55 -640.95 -532.9 -640.5 -531.6 -640 -531.15 -639.65 -530.8 -638.7 -530.35 -637.75 -529.9 -637.45 -529.7 -636.65 -529.1 -636.1 -527.8 -635.2 -525.7 -635.15 -525.65 -634.5 -524.65 -633.1 -523.7 -632.85 -523.5 -630.6 -522.25 -628.35 -521 -626.75 -519.8 -624.5 -518.25 -623.15 -516.45
L -624.8 -516.45
Q -626.45 -516.45 -627.25 -516.15 -628.7 -515.8 -629.7 -514.6 -629.95 -514.3 -630.1 -514 -631.3 -514.05 -632.3 -513.5 -633.2 -513.05 -633.75 -512.35 -634.8 -511.85 -635.35 -510.95
L -637.75 -505.3
Q -638.05 -504.25 -638.05 -502
L -637.95 -496.8
Q -637.8 -494.75 -637.4 -493.8 -636.65 -492.3 -633.7 -490.7
L -630.5 -488.95
Q -629.95 -488.7 -629.8 -488.4 -629.5 -488.05 -629.5 -487.1 -629.55 -486.35 -629.55 -485.7 -630.75 -485.55 -631.6 -485 -632.9 -485.5 -634.3 -485.3 -635 -485.2 -636.75 -484.65
L -642.1 -482.6
Q -644.75 -481.65 -645.95 -481.65 -646.5 -481.75 -648.8 -482.25 -654.6 -483.55 -660.3 -483.25 -662.3 -483.1 -663.45 -482.6 -664.5 -482 -665.25 -480.95 -666.1 -480.95 -667 -480.85 -670.45 -480.65 -673.35 -479 -676.45 -477.15 -677.7 -474.3 -678 -473.7 -678.75 -470.75 -679.45 -468.5 -680.35 -467.4 -680.85 -466.85 -682.25 -465.75 -683.6 -464.75 -684.15 -464 -684.4 -463.55 -684.9 -462.65 -685.45 -461.85 -685.95 -461.45 -686.5 -461.1 -687.45 -461.05 -688.05 -461.05 -689.1 -460.95 -690.65 -460.75 -692.75 -459.25 -695.25 -457.4 -696.2 -457.05 -696.8 -456.85 -698.45 -456.5 -699.9 -456.2 -700.7 -455.85 -702.3 -455.05 -703.15 -453.2 -703.95 -451.4 -703.45 -449.7 -706.1 -450.85 -708.85 -450.85 -709.9 -456.05 -712.5 -457.95 -715.15 -459.75 -719.45 -458.8 -720.4 -458.6 -722.85 -457.95 -725 -457.3 -726.3 -457.15 -727.45 -457 -730.5 -457 -733.2 -457 -734.7 -456.6 -736.85 -456.1 -738.4 -454.55 -738.7 -454.25 -738.9 -453.85 -740.35 -454.8 -741.65 -455.2 -743.25 -455.6 -746.45 -455.6
L -755.9 -455.6
Q -759.8 -455.6 -762.05 -455.1 -765.4 -454.45 -767.25 -452.5 -768.15 -451.7 -769.5 -449.8
L -771.6 -447.7
Q -774.35 -444.75 -776.4 -437.8 -779.05 -427.75 -777.7 -421.1 -777.55 -420.3 -777.25 -419.6 -777.45 -419 -777.6 -418.55 -777.75 -416.3 -778.1 -415.25 -778.25 -414.35 -778.9 -414 -779.2 -413.85 -780.6 -414.1 -780.85 -414.15 -781.9 -414.1 -782.75 -414 -783.2 -414.2 -783.55 -414.45 -784 -414.95 -784.2 -415.25 -784.7 -415.9 -785.4 -416.75 -787.8 -418.05
L -794.2 -421.25
Q -794.4 -422.4 -793.6 -424.05 -792.6 -426.3 -792.45 -426.9 -792.1 -428.5 -792.8 -430.7 -792.95 -431.25 -793.25 -432 -792.95 -433.75 -793.25 -436.1 -794.45 -446.85 -800.25 -453.85 -801.1 -454.95 -803.1 -457 -804.75 -458.85 -805.6 -460.3 -806.35 -461.45 -807.85 -465.15 -809.15 -468.2 -810.45 -469.7 -810.95 -470.3 -812.35 -471.55 -813.55 -472.7 -814.15 -473.4 -814.35 -473.65 -815.8 -475.75 -816.85 -477.15 -817.7 -477.75 -818.85 -478.55 -820.65 -478.75 -821.4 -478.85 -823.85 -478.85 -830.55 -478.7 -836.85 -480.2 -838.1 -480.5 -838.1 -481.2 -838.1 -481.6 -837.3 -482.25 -835.05 -483.95 -834.9 -489.35 -834.6 -496.85 -836.5 -500.55 -836.85 -501.2 -837.65 -502.5 -838.3 -503.75 -838.4 -504.65 -838.45 -505.55 -838.05 -506.9 -837.5 -508.8 -837.45 -509.25 -837.25 -511.1 -838.45 -514.15 -839.9 -517.6 -840.05 -519.05 -840.1 -519.7 -839.85 -522.25 -839.75 -522.9 -839.75 -523.4 -839.75 -523.6 -839.75 -523.7 -839.35 -524.2 -838.95 -524.7 -836.45 -528.35 -835.15 -530.05 -832.8 -533.1 -830.45 -534.55 -828.45 -535.65 -824.7 -536.6 -820.35 -537.6 -818.85 -538.25 -815.6 -539.6 -811.45 -543.65 -808.6 -546.35 -807.95 -546.85 -805.9 -548.1 -803.65 -549 -796.55 -551.85 -790.2 -552.35 -788.15 -552.5 -784.05 -552.4 -780 -552.4 -777.95 -552.55 -772.1 -552.95 -765.15 -555.05 -763.95 -555.4 -762.35 -555.95
L -735.95 -558.65
Q -735.8 -557.1 -734.9 -555.95 -733.9 -554.75 -732.25 -554.15 -730.65 -553.65 -729.05 -553.85 -729.3 -551.6 -727.1 -550.1 -726 -549.15 -723.15 -548.3
L -717.9 -546.65
Q -712.7 -545.1 -711.2 -544.8 -708.5 -544.15 -707.95 -543.75 -707.45 -543.4 -706.2 -542.05 -705.2 -541 -704.4 -540.7 -702.7 -540.4 -701.95 -540.2 -701.2 -540 -700.35 -539.3 -700.25 -537.75 -699.3 -536.6 -697.75 -535.35 -697 -534.7 -695.2 -533.05 -694.75 -532.8 -693.7 -532.25 -690.5 -532.25 -689.4 -532.25 -689 -532 -688.4 -531.8 -687.45 -530.85 -685 -528.9 -683.9 -527.8 -681.95 -525.7 -680.95 -524.65 -679.2 -522.85 -677.6 -522.2 -676.55 -521.65 -674.95 -521.55 -673.05 -521.45 -672.1 -521.45 -669.85 -521.4 -669 -521.45 -667.4 -521.6 -666.25 -522.2 -664.1 -520.85 -660.9 -522.1 -658.5 -523.2 -656 -526.25 -653.1 -529.5 -652.2 -532.3 -651.05 -536.3 -652.8 -539.85 -651.8 -539.85 -651.3 -539.75 -650.55 -539.7 -648 -538.95 -646.8 -538.6 -645.85 -538.55 -645.55 -538.25 -645.2 -537.75
M -647.45 -328.25
L -645.15 -322.75
Q -643.6 -319.3 -642.3 -318.3 -640.35 -316.7 -636.75 -316.85 -636.35 -316.85 -635.95 -316.85 -635.85 -315.55 -635 -314.45 -634 -313.15 -632.45 -312.7 -631.65 -312.5 -629.8 -312.4 -628 -312.35 -627.1 -312 -626.4 -311.55 -626.1 -311.2 -625.65 -310.4 -625.45 -310.05 -624.35 -308 -620.4 -306.35 -621.75 -304.95 -622.4 -304.25 -624.05 -302.3 -624.75 -300.4 -625.4 -298.55 -625.4 -296.65 -625.4 -295.05 -624.85 -293.05
L -624.3 -290.95
Q -624 -289.35 -623.65 -288.6
L -622.9 -287.25
Q -622.85 -287.05 -622.65 -284.8 -622.65 -283.2 -622.2 -281.65 -621.45 -279.05 -620 -278.15 -618.85 -277.4 -616.6 -277.35 -613.65 -277.35 -613 -277.2 -612.45 -277.1 -611.25 -276.7 -609.15 -276.1 -607.2 -276.1 -604.05 -276.25 -602.6 -277.7 -602.3 -278 -602 -278.35 -601.15 -277.75 -600.9 -277.55
L -598.9 -275.9
Q -597.3 -274.8 -594.75 -274.65 -591.9 -274.75 -590.35 -274.75 -589.8 -274.75 -589.25 -274.75 -588.7 -273.8 -587.8 -272.7 -586.25 -270.65 -585.65 -269.25 -585.45 -268.7 -585.15 -267.7 -584.85 -266.75 -584.5 -266.25 -583.1 -265.15 -582.4 -264.6 -581 -263.35 -581.55 -262.3 -585.85 -261.25 -588.35 -257.65 -589.05 -256.5 -589.7 -256.15 -590.05 -256 -592.15 -256 -593.85 -256 -596.45 -254.45 -599.9 -252.5 -601 -251 -601.3 -250.55 -602.85 -247.25 -603.8 -245.4 -606.05 -242.1 -606.55 -241.25 -607.65 -239.15 -608.65 -237.25 -609.3 -236.25 -611.55 -232.85 -614.4 -232.2 -615.15 -231.95 -616.9 -231.9 -618.65 -231.8 -619.5 -231.6 -620.9 -231.25 -622.4 -230.25 -622.7 -230 -625.1 -228.25 -626.9 -226.85 -627.35 -226.3 -628.4 -225.3 -628.85 -224.15 -629.05 -224 -629.35 -223.8 -630.3 -223.2 -632.25 -222.5 -633.35 -222 -635.8 -220.25 -637.9 -218.7 -639.35 -218.3 -639.8 -218.15 -641.3 -217.85 -642.5 -217.55 -643.25 -217.2 -644.6 -216.5 -646.15 -214.25 -648.45 -211 -649.55 -209.05
L -650.9 -206.2
Q -651.2 -205.35 -651.55 -204.9 -652.15 -204.2 -653.5 -203.6 -655.35 -202.65 -656.25 -201.95
L -659 -201.65
Q -660.85 -201.65 -662.55 -201.45
L -669.3 -201.15
Q -671.4 -201 -673.15 -201.2 -673.85 -201.35 -675.3 -201.7 -676.6 -202 -677.55 -201.95 -680.3 -201.7 -681.5 -199.1 -682.6 -196.5 -681.1 -194.2 -680.45 -193.2 -679.35 -192.55 -680.85 -191.65 -683.05 -190.35 -687.45 -187.75 -690.5 -186.55 -691.8 -185.95 -697.2 -184.2
L -710.45 -180.15
Q -710.85 -181.3 -711.7 -182.35 -708 -185.2 -706.55 -188.35 -705.35 -190.95 -704.9 -196.35 -704.6 -202.3 -704.8 -206.4 -704.8 -209.8 -703.95 -210.9 -702.65 -212 -702.05 -212.55 -700.5 -213.8 -699.75 -215.75 -699.05 -217.7 -699.4 -219.65 -696.5 -220.6 -694.45 -223.5 -692.6 -226.2 -692.25 -229.6 -691.75 -233.9 -693.9 -242.25 -695.35 -247.95 -697.2 -250.5 -698.45 -252 -701.4 -254.6 -704.9 -257.85 -709.8 -264.9 -711.55 -267.2 -712 -268.95 -712.2 -269.8 -712.2 -272.35 -712.25 -274.45 -712.8 -275.6 -712.85 -275.65 -712.85 -275.75 -713 -277.5 -713.15 -278.4 -713.35 -280.2 -713.95 -282.4 -714.5 -284.85 -715.15 -285.85 -716.1 -287.6 -716.2 -287.75 -716.35 -288.35 -716.35 -289.55 -716.05 -295.25 -718.05 -301.15 -716.25 -304.4 -716.25 -307.05 -716.25 -308.75 -717 -310.2
L -717 -310.25
Q -716.75 -310.6 -716.55 -311
L -711.7 -318.2
Q -709.4 -321.7 -707.7 -323.15 -705.05 -324.85 -703.8 -325.95 -702.05 -327.45 -700.05 -331.4 -698.4 -334.05 -697.65 -334.65 -696.95 -335.2 -694.2 -336.45 -689.7 -338.55 -686.65 -342.45 -684.35 -338.55 -679.85 -336.75 -675.35 -334.9 -671.05 -336.3 -668.8 -336.95 -668.55 -336.95 -667.35 -337 -665.55 -336.5 -663.6 -335.7 -662.65 -335.35 -660.9 -334.7 -659.6 -334.65 -658.15 -334.65 -657.5 -334.65 -656.2 -334.65 -655.5 -334.25 -654.9 -334 -654.05 -332.95 -653.15 -332.05 -652.6 -331.75 -652.1 -331.45 -650.85 -331.25 -649.7 -331.1 -649.2 -330.75 -648.4 -330.3 -647.45 -328.25
M -828.45 -466.75
Q -828.25 -466.75 -827.95 -466.85 -828.25 -466.55 -828.45 -466.3
L -828.45 -466.75
M -722.85 -180.3
Q -723.55 -179.3 -724 -178.8 -724.15 -178.65 -724.3 -178.4 -723.55 -179.8 -723.4 -179.95 -723.2 -180.15 -722.85 -180.3 Z"/>

<path fill="#74D178" stroke="none" d="
M -579 -478.35
Q -578.05 -478.45 -577.6 -478.9 -578 -479.15 -578.2 -479.7 -579.6 -479.5 -580.75 -480
L -581.4 -480.3 -582.55 -480.45
Q -583.7 -480.55 -584.4 -481.15
L -586.6 -483.1
Q -587.3 -483.7 -587.55 -484.65 -587.75 -485.95 -587.8 -486.05 -587.95 -486.45 -588.7 -486.7 -590.2 -487.6 -589.85 -488.8 -590.3 -488.6 -590.55 -487.65 -591.15 -486.65 -592.55 -486
L -595.05 -485.15
Q -593.45 -485 -592.75 -484.75 -592.55 -484.7 -591.75 -484.35 -590.85 -483.6 -590.45 -483.3
L -589.5 -482.8 -588.85 -481.95
Q -588.6 -481.65 -587.6 -481
L -585.75 -479.9
Q -584.7 -479.25 -584 -479.05
L -582.7 -478.7
Q -580.25 -478.1 -579 -478.35
M -645.15 -322.75
L -647.45 -328.25
Q -648.4 -330.3 -649.2 -330.75 -649.7 -331.1 -650.85 -331.25 -652.1 -331.45 -652.6 -331.75 -653.15 -332.05 -654.05 -332.95 -654.9 -334 -655.5 -334.25 -656.2 -334.65 -657.5 -334.65 -658.15 -334.65 -659.6 -334.65 -660.9 -334.7 -662.65 -335.35 -663.6 -335.7 -665.55 -336.5 -667.35 -337 -668.55 -336.95 -668.8 -336.95 -671.05 -336.3 -675.35 -334.9 -679.85 -336.75 -684.35 -338.55 -686.65 -342.45 -689.7 -338.55 -694.2 -336.45 -696.95 -335.2 -697.65 -334.65 -698.4 -334.05 -700.05 -331.4 -702.05 -327.45 -703.8 -325.95 -705.05 -324.85 -707.7 -323.15 -709.4 -321.7 -711.7 -318.2
L -716.55 -311
Q -716.75 -310.6 -717 -310.25
L -717 -310.2
Q -716.25 -308.75 -716.25 -307.05 -716.25 -304.4 -718.05 -301.15 -716.05 -295.25 -716.35 -289.55 -716.35 -288.35 -716.2 -287.75 -716.1 -287.6 -715.15 -285.85 -714.5 -284.85 -713.95 -282.4 -713.35 -280.2 -713.15 -278.4 -713 -277.5 -712.85 -275.75 -712.85 -275.65 -712.8 -275.6 -712.25 -274.45 -712.2 -272.35 -712.2 -269.8 -712 -268.95 -711.55 -267.2 -709.8 -264.9 -704.9 -257.85 -701.4 -254.6 -698.45 -252 -697.2 -250.5 -695.35 -247.95 -693.9 -242.25 -691.75 -233.9 -692.25 -229.6 -692.6 -226.2 -694.45 -223.5 -696.5 -220.6 -699.4 -219.65 -699.05 -217.7 -699.75 -215.75 -700.5 -213.8 -702.05 -212.55 -702.65 -212 -703.95 -210.9 -704.8 -209.8 -704.8 -206.4 -704.6 -202.3 -704.9 -196.35 -705.35 -190.95 -706.55 -188.35 -708 -185.2 -711.7 -182.35 -710.85 -181.3 -710.45 -180.15
L -697.2 -184.2
Q -691.8 -185.95 -690.5 -186.55 -687.45 -187.75 -683.05 -190.35 -680.85 -191.65 -679.35 -192.55 -680.45 -193.2 -681.1 -194.2 -682.6 -196.5 -681.5 -199.1 -680.3 -201.7 -677.55 -201.95 -676.6 -202 -675.3 -201.7 -673.85 -201.35 -673.15 -201.2 -671.4 -201 -669.3 -201.15
L -662.55 -201.45
Q -660.85 -201.65 -659 -201.65
L -656.25 -201.95
Q -655.35 -202.65 -653.5 -203.6 -652.15 -204.2 -651.55 -204.9 -651.2 -205.35 -650.9 -206.2
L -649.55 -209.05
Q -648.45 -211 -646.15 -214.25 -644.6 -216.5 -643.25 -217.2 -642.5 -217.55 -641.3 -217.85 -639.8 -218.15 -639.35 -218.3 -637.9 -218.7 -635.8 -220.25 -633.35 -222 -632.25 -222.5 -630.3 -223.2 -629.35 -223.8 -629.05 -224 -628.85 -224.15 -628.4 -225.3 -627.35 -226.3 -626.9 -226.85 -625.1 -228.25 -622.7 -230 -622.4 -230.25 -620.9 -231.25 -619.5 -231.6 -618.65 -231.8 -616.9 -231.9 -615.15 -231.95 -614.4 -232.2 -611.55 -232.85 -609.3 -236.25 -608.65 -237.25 -607.65 -239.15 -606.55 -241.25 -606.05 -242.1 -603.8 -245.4 -602.85 -247.25 -601.3 -250.55 -601 -251 -599.9 -252.5 -596.45 -254.45 -593.85 -256 -592.15 -256 -590.05 -256 -589.7 -256.15 -589.05 -256.5 -588.35 -257.65 -585.85 -261.25 -581.55 -262.3 -581 -263.35 -582.4 -264.6 -583.1 -265.15 -584.5 -266.25 -584.85 -266.75 -585.15 -267.7 -585.45 -268.7 -585.65 -269.25 -586.25 -270.65 -587.8 -272.7 -588.7 -273.8 -589.25 -274.75 -589.8 -274.75 -590.35 -274.75 -591.9 -274.75 -594.75 -274.65 -597.3 -274.8 -598.9 -275.9
L -600.9 -277.55
Q -601.15 -277.75 -602 -278.35 -602.3 -278 -602.6 -277.7 -604.05 -276.25 -607.2 -276.1 -609.15 -276.1 -611.25 -276.7 -612.45 -277.1 -613 -277.2 -613.65 -277.35 -616.6 -277.35 -618.85 -277.4 -620 -278.15 -621.45 -279.05 -622.2 -281.65 -622.65 -283.2 -622.65 -284.8 -622.85 -287.05 -622.9 -287.25
L -623.65 -288.6
Q -624 -289.35 -624.3 -290.95
L -624.85 -293.05
Q -625.4 -295.05 -625.4 -296.65 -625.4 -298.55 -624.75 -300.4 -624.05 -302.3 -622.4 -304.25 -621.75 -304.95 -620.4 -306.35 -624.35 -308 -625.45 -310.05 -625.65 -310.4 -626.1 -311.2 -626.4 -311.55 -627.1 -312 -628 -312.35 -629.8 -312.4 -631.65 -312.5 -632.45 -312.7 -634 -313.15 -635 -314.45 -635.85 -315.55 -635.95 -316.85 -636.35 -316.85 -636.75 -316.85 -640.35 -316.7 -642.3 -318.3 -643.6 -319.3 -645.15 -322.75
M -644.4 -536.65
Q -644.7 -537 -645.2 -537.75 -645.55 -538.25 -645.85 -538.55 -646.8 -538.6 -648 -538.95 -650.55 -539.7 -651.3 -539.75 -651.8 -539.85 -652.8 -539.85 -651.05 -536.3 -652.2 -532.3 -653.1 -529.5 -656 -526.25 -658.5 -523.2 -660.9 -522.1 -664.1 -520.85 -666.25 -522.2 -667.4 -521.6 -669 -521.45 -669.85 -521.4 -672.1 -521.45 -673.05 -521.45 -674.95 -521.55 -676.55 -521.65 -677.6 -522.2 -679.2 -522.85 -680.95 -524.65 -681.95 -525.7 -683.9 -527.8 -685 -528.9 -687.45 -530.85 -688.4 -531.8 -689 -532 -689.4 -532.25 -690.5 -532.25 -693.7 -532.25 -694.75 -532.8 -695.2 -533.05 -697 -534.7 -697.75 -535.35 -699.3 -536.6 -700.25 -537.75 -700.35 -539.3 -701.2 -540 -701.95 -540.2 -702.7 -540.4 -704.4 -540.7 -705.2 -541 -706.2 -542.05 -707.45 -543.4 -707.95 -543.75 -708.5 -544.15 -711.2 -544.8 -712.7 -545.1 -717.9 -546.65
L -723.15 -548.3
Q -726 -549.15 -727.1 -550.1 -729.3 -551.6 -729.05 -553.85 -730.65 -553.65 -732.25 -554.15 -733.9 -554.75 -734.9 -555.95 -735.8 -557.1 -735.95 -558.65
L -762.35 -555.95
Q -763.95 -555.4 -765.15 -555.05 -772.1 -552.95 -777.95 -552.55 -780 -552.4 -784.05 -552.4 -788.15 -552.5 -790.2 -552.35 -796.55 -551.85 -803.65 -549 -805.9 -548.1 -807.95 -546.85 -808.6 -546.35 -811.45 -543.65 -815.6 -539.6 -818.85 -538.25 -820.35 -537.6 -824.7 -536.6 -828.45 -535.65 -830.45 -534.55 -832.8 -533.1 -835.15 -530.05 -836.45 -528.35 -838.95 -524.7 -839.35 -524.2 -839.75 -523.7 -839.75 -523.6 -839.75 -523.4 -839.75 -522.9 -839.85 -522.25 -840.1 -519.7 -840.05 -519.05 -839.9 -517.6 -838.45 -514.15 -837.25 -511.1 -837.45 -509.25 -837.5 -508.8 -838.05 -506.9 -838.45 -505.55 -838.4 -504.65 -838.3 -503.75 -837.65 -502.5 -836.85 -501.2 -836.5 -500.55 -834.6 -496.85 -834.9 -489.35 -835.05 -483.95 -837.3 -482.25 -838.1 -481.6 -838.1 -481.2 -838.1 -480.5 -836.85 -480.2 -830.55 -478.7 -823.85 -478.85 -821.4 -478.85 -820.65 -478.75 -818.85 -478.55 -817.7 -477.75 -816.85 -477.15 -815.8 -475.75 -814.35 -473.65 -814.15 -473.4 -813.55 -472.7 -812.35 -471.55 -810.95 -470.3 -810.45 -469.7 -809.15 -468.2 -807.85 -465.15 -806.35 -461.45 -805.6 -460.3 -804.75 -458.85 -803.1 -457 -801.1 -454.95 -800.25 -453.85 -794.45 -446.85 -793.25 -436.1 -792.95 -433.75 -793.25 -432 -792.95 -431.25 -792.8 -430.7 -792.1 -428.5 -792.45 -426.9 -792.6 -426.3 -793.6 -424.05 -794.4 -422.4 -794.2 -421.25
L -787.8 -418.05
Q -785.4 -416.75 -784.7 -415.9 -784.2 -415.25 -784 -414.95 -783.55 -414.45 -783.2 -414.2 -782.75 -414 -781.9 -414.1 -780.85 -414.15 -780.6 -414.1 -779.2 -413.85 -778.9 -414 -778.25 -414.35 -778.1 -415.25 -777.75 -416.3 -777.6 -418.55 -777.45 -419 -777.25 -419.6 -777.55 -420.3 -777.7 -421.1 -779.05 -427.75 -776.4 -437.8 -774.35 -444.75 -771.6 -447.7
L -769.5 -449.8
Q -768.15 -451.7 -767.25 -452.5 -765.4 -454.45 -762.05 -455.1 -759.8 -455.6 -755.9 -455.6
L -746.45 -455.6
Q -743.25 -455.6 -741.65 -455.2 -740.35 -454.8 -738.9 -453.85 -738.7 -454.25 -738.4 -454.55 -736.85 -456.1 -734.7 -456.6 -733.2 -457 -730.5 -457 -727.45 -457 -726.3 -457.15 -725 -457.3 -722.85 -457.95 -720.4 -458.6 -719.45 -458.8 -715.15 -459.75 -712.5 -457.95 -709.9 -456.05 -708.85 -450.85 -706.1 -450.85 -703.45 -449.7 -703.95 -451.4 -703.15 -453.2 -702.3 -455.05 -700.7 -455.85 -699.9 -456.2 -698.45 -456.5 -696.8 -456.85 -696.2 -457.05 -695.25 -457.4 -692.75 -459.25 -690.65 -460.75 -689.1 -460.95 -688.05 -461.05 -687.45 -461.05 -686.5 -461.1 -685.95 -461.45 -685.45 -461.85 -684.9 -462.65 -684.4 -463.55 -684.15 -464 -683.6 -464.75 -682.25 -465.75 -680.85 -466.85 -680.35 -467.4 -679.45 -468.5 -678.75 -470.75 -678 -473.7 -677.7 -474.3 -676.45 -477.15 -673.35 -479 -670.45 -480.65 -667 -480.85 -666.1 -480.95 -665.25 -480.95 -664.5 -482 -663.45 -482.6 -662.3 -483.1 -660.3 -483.25 -654.6 -483.55 -648.8 -482.25 -646.5 -481.75 -645.95 -481.65 -644.75 -481.65 -642.1 -482.6
L -636.75 -484.65
Q -635 -485.2 -634.3 -485.3 -632.9 -485.5 -631.6 -485 -630.75 -485.55 -629.55 -485.7 -629.55 -486.35 -629.5 -487.1 -629.5 -488.05 -629.8 -488.4 -629.95 -488.7 -630.5 -488.95
L -633.7 -490.7
Q -636.65 -492.3 -637.4 -493.8 -637.8 -494.75 -637.95 -496.8
L -638.05 -502
Q -638.05 -504.25 -637.75 -505.3
L -635.35 -510.95
Q -634.8 -511.85 -633.75 -512.35 -633.2 -513.05 -632.3 -513.5 -631.3 -514.05 -630.1 -514 -629.95 -514.3 -629.7 -514.6 -628.7 -515.8 -627.25 -516.15 -626.45 -516.45 -624.8 -516.45
L -623.15 -516.45
Q -624.5 -518.25 -626.75 -519.8 -628.35 -521 -630.6 -522.25 -632.85 -523.5 -633.1 -523.7 -634.5 -524.65 -635.15 -525.65 -635.2 -525.7 -636.1 -527.8 -636.65 -529.1 -637.45 -529.7 -637.75 -529.9 -638.7 -530.35 -639.65 -530.8 -640 -531.15 -640.5 -531.6 -640.95 -532.9 -641.2 -533.55 -641.45 -533.95 -642.9 -534.6 -643.85 -535.8 -644.2 -536.2 -644.4 -536.65 Z"/>
</g>

<g id="S_mbolo_12_0_Layer0_0_FILL">
<path fill="#000000" fill-opacity="0.2196078431372549" stroke="none" d="
M -325.75 -87.55
Q -325.9 -86.85 -326 -86.15 -330.5 -56.85 -330.5 -25.75 -330.5 78.05 -280.65 161.3 -263.5 131.6 -219.95 66
L -159.4 102 -260.75 -91.15 -325.75 -87.55
M 258 146.65
Q 226.05 146.9 189.6 145.3
L 191.5 75.1 72.45 257.8 121.6 335.1
Q 122.3 334.95 123 334.8 222.95 312.65 300.15 235.5 341.75 193.9 367.35 145.65 277.2 146.5 258 146.65
M 315.4 -362.35
L 245.95 -321.9
Q 244.3 -325.7 242.75 -329.4 241.85 -331.4 241 -333.4 240.2 -335.15 239.45 -336.9 151.25 -395.15 38.95 -395.15 -1.4 -395.15 -38.65 -387.6 25.3 -273.65 54.7 -215.4
L -7.65 -182.55 210 -167.7 315.4 -362.35 Z"/>

<path fill="#2A2A2A" fill-opacity="0.23921568627450981" stroke="none" d="
M -481.4 -79.05
L -410.75 -41.2
Q -480.5 57.15 -471.05 83.15 -461.9 108.8 -393.95 219.9 -326.35 330.65 -304.75 350.15 -292.95 362.85 -271.95 367.9
L -35.6 367.9 -35.6 336.8
Q -39.65 336 -43.65 335.15
L -44.05 343.35
Q -52.05 337.2 -59.8 331.25 -150.85 306.95 -222.3 235.5 -227.7 230.1 -232.8 224.6 -255.95 199.75 -273.6 172.6 -275 170.4 -276.35 168.25 -278.55 164.8 -280.65 161.3 -330.5 78.05 -330.5 -25.75 -330.5 -56.85 -326 -86.15 -325.9 -86.85 -325.75 -87.55
L -481.4 -79.05
M 403.15 -90.75
Q 408.35 -59.3 408.35 -25.75 408.35 44.35 385.65 105.05 379.1 122.6 370.6 139.4 369 142.55 367.35 145.65 341.75 193.9 300.15 235.5 222.95 312.65 123 334.8 122.3 334.95 121.6 335.1
L 190.95 444.15 189.35 364.35
Q 262.85 372.2 298.05 367.4 320.15 364.3 327.1 356.25 345.4 335.55 408.85 221.95 472.35 108.8 478.9 80.3 484.15 64.05 478.15 43.05
L 403.15 -90.75
M 171.55 -438.15
Q 144.8 -444.15 14.75 -444.15 -115.05 -444.7 -143.15 -436.45 -159.9 -433.05 -175.05 -417.8
L -298.8 -216.4 -283.9 -207.25
Q -283.4 -208.15 -282.85 -209.05 -258.7 -250.55 -222.3 -286.95 -143 -366.25 -39.65 -387.4
L -39.25 -388.65
Q -38.95 -388.15 -38.65 -387.6 -1.4 -395.15 38.95 -395.15 151.25 -395.15 239.45 -336.9 196.7 -433.15 171.55 -438.15 Z"/>
</g>

<g id="mundo_Recargado_0_Layer0_0_MEMBER_4_FILL">
<path fill="url(#Gradient_1)" stroke="none" d="
M -995.5 -382.45
Q -1041.2 -317.95 -1035 -300.9 -1029 -284.05 -984.45 -211.25 -940.1 -138.6 -925.95 -125.85
L -925.95 -126
Q -929.65 -130.1 -931.95 -135.3 -946.1 -167.65 -907.55 -245.5 -892.85 -275.55 -870.35 -312.15
L -830.65 -288.55 -897.1 -415.2 -1041.8 -407.25 -995.5 -382.45 Z"/>

<path fill="url(#Gradient_2)" stroke="none" d="
M -412.15 -302.8
L -412.3 -302.55
Q -414.15 -297.35 -417.55 -292.75 -438.7 -264.8 -525.55 -260.3 -559.05 -258.25 -601.8 -260.15
L -600.55 -306.2 -678.65 -186.4 -600.95 -64.2 -602 -116.5
Q -523.45 -108.15 -511.65 -121.8 -499.7 -135.4 -458.1 -209.9 -416.4 -284.05 -412.15 -302.8 Z"/>

<path fill="url(#Gradient_3)" stroke="none" d="
M -519.35 -593
L -564.85 -566.5
Q -595.9 -639.15 -613.65 -642.7 -631.2 -646.65 -716.5 -646.65 -801.55 -647 -820 -641.6
L -819.8 -641.4
Q -814.45 -642.55 -808.6 -641.7 -773.5 -636.8 -727.55 -563.2 -709.65 -535 -690.3 -496.65
L -731.15 -475.1 -588.45 -465.4 -519.35 -593 Z"/>
</g>

<path id="mundo_Recargado_0_Layer0_0_MEMBER_2_MEMBER_1_1_STROKES" stroke="#374D6B" stroke-width="0.1" stroke-linejoin="round" stroke-linecap="round" fill="none" d="
M -850.45 -526.45
Q -824.2 -546.25 -793.9 -556.4 -772.35 -563.55 -748.65 -565.8 -737.8 -566.9 -726.6 -566.9 -717.2 -566.9 -708 -566.15 -708.15 -565.75 -708.35 -565.3 -709.9 -562.4 -715.1 -561.4 -717.2 -560.95 -720 -560.5 -719.95 -560.4 -719.95 -560.3 -719.65 -559.35 -719.5 -558.95 -719.2 -558.05 -718.8 -557.7 -718.2 -557.2 -717.05 -557.2 -715.75 -557.25 -715.15 -557.2 -714.3 -557.05 -713.05 -556.35 -711.55 -555.4 -711.05 -555.15 -710.25 -554.8 -708.8 -554.65 -706.7 -554.45 -706.5 -554.35 -703.9 -553.95 -701.8 -552.3 -700.35 -551.05 -699.9 -550.75
L -697.5 -549.65
Q -696.7 -549.25 -693.95 -547.2 -691.3 -545.6 -690.55 -544.75 -689.7 -543.75 -689.55 -542.35 -688.85 -542.2 -687.65 -542.2 -686.25 -542.2 -685.65 -542.05 -683.6 -541.7 -681.45 -539.4 -680.3 -538.15 -679.7 -537.6 -678.7 -536.6 -677.75 -536.05 -676.8 -535.55 -676.4 -535.35 -675.65 -534.9 -675.3 -534.4 -674.7 -533.1 -674.3 -532.5 -673.5 -531.5 -671.9 -531.35 -671.3 -532.45 -670.15 -533.1 -668.8 -533.9 -666.75 -533.9 -665.25 -533.9 -665.05 -534.6 -664.8 -535.05 -665.1 -535.7 -666.45 -540.7 -666.2 -545.45 -666.2 -545.85 -666.1 -546.15 -666.2 -546.25 -666.25 -546.4 -667.1 -548.8 -665.75 -550.9 -664.9 -552.3 -663.2 -552.8 -662.8 -552.95 -662.35 -553 -661.5 -553.85 -660.6 -554.3 -658.95 -555.25 -656.7 -555.1 -653.9 -554.8 -652.65 -553.3 -652.3 -552.85 -652 -552.35 -651.35 -552 -650.9 -551.35 -650.35 -550.3 -649.9 -550.05 -649.45 -549.75 -648.8 -549.75 -647.95 -549.8 -647.6 -549.8 -646.7 -549.8 -645.4 -549.3 -645.25 -549.25 -645.15 -549.15 -644.6 -549.15 -644.2 -549.1 -643.45 -548.95 -642.75 -548.65 -640.8 -548.75 -639.8 -548.5 -639.4 -548.45 -639 -548.3 -638.45 -548.1 -637.95 -547.8 -637.55 -547.55 -637.1 -547.15 -635.95 -546 -635.7 -544.45 -635.7 -543.8 -635.45 -543.45 -635.15 -543.1 -634.3 -542.95 -632.9 -542.5 -632.1 -541.35 -631.75 -540.85 -631.4 -540 -630.95 -538.9 -630.75 -538.6 -630.6 -538.4 -630.35 -538.1 -630.1 -537.9 -629.85 -537.65 -629.5 -537.3 -629.15 -536.7
L -629.05 -536.65
Q -627.7 -535.4 -627.25 -534.75 -626.4 -533.6 -626.15 -532.1 -625.6 -531.6 -624.65 -530.95 -621.05 -528.45 -619.15 -527.4 -618.95 -527.25 -618.7 -527.15 -617.15 -527.75 -615.15 -527 -612.65 -526.1 -611.4 -523.7 -610.55 -521.55 -609.9 -520.5 -609.6 -520.1 -608.45 -518.7 -607.5 -517.55 -607.2 -516.75 -607 -516.1 -606.85 -514.8 -606.7 -513.5 -606.5 -512.9 -606.3 -512.25 -605.1 -510.6 -603.65 -508.45 -601.8 -504.15
L -600.9 -502.2
Q -600.35 -500.9 -600.2 -500.25 -600.2 -500.2 -600.1 -500.05 -600 -500.1 -599.75 -500.1 -599.05 -500.1 -598.1 -499.75 -596.15 -498.9 -595.65 -497.85 -595.2 -497.15 -595.35 -496.35 -595.4 -495.5 -596.05 -495.1 -596.45 -494.9 -597.3 -494.75
L -599.35 -494.6
Q -601.2 -494.6 -601.8 -494.3 -602.3 -494.2 -603.25 -493.8 -603.75 -493.8 -604.1 -494.3 -606 -494.1 -608.6 -494.85 -609.8 -495.1 -610.6 -495.6 -610.85 -495.6 -611 -495.6 -611.85 -495.6 -612.45 -496
L -612.95 -496.55 -613.95 -498
Q -614.4 -498.6 -614.4 -498.75 -615.4 -498.95 -616.2 -499.4 -617 -499.8 -618.2 -501
L -620.15 -502.2 -622.85 -504.9
Q -623.65 -503.8 -624.85 -503.35 -626.1 -502.95 -627.4 -503.1 -628.2 -501.55 -628.2 -500.6 -628.2 -499.9 -627.9 -499.55 -627.7 -499 -626.75 -498.75 -626.1 -498.5 -623.95 -498.15 -622.2 -497.85 -621.3 -497.3 -620 -496.4 -619.5 -494.6 -619.1 -493 -619.35 -491.3 -619.75 -488.8 -619.65 -488.4 -619.6 -487.6 -619 -486.35 -618.35 -485 -618.2 -484.4 -618.2 -484.35 -618.15 -484.2 -616.25 -484.5 -614 -484.7 -612 -484.85 -611.05 -484.65 -609.6 -484.25 -608.6 -483.2 -607.6 -482.1 -607.35 -480.7 -607.05 -479.25 -607.7 -477.9 -608.3 -476.5 -609.55 -475.75 -610.4 -475.15 -612.05 -474.7 -613.1 -474.5 -616.55 -474.05 -619.35 -473.75 -620.95 -473.2 -623.35 -472.2 -624.05 -472.05 -625.95 -471.6 -627.85 -472.4 -629.65 -473.1 -630.9 -474.7
L -631.45 -475.65
Q -631.65 -475.5 -631.9 -475.45 -634.15 -474.3 -639 -472.9 -642.3 -471.65 -643.05 -471.55 -645.5 -471 -649.45 -471.95 -654.45 -473.2 -655.9 -473.25 -656.15 -473.25 -656.4 -473.25 -656.5 -472.7 -656.7 -472.2 -657.45 -470.15 -659.65 -469.3 -662 -468.4 -663.85 -469.45 -664.3 -469.65 -665.1 -470.15 -665.8 -470.5 -666.35 -470.5 -667.9 -470.6 -668.95 -468.65
L -669.8 -465.4
Q -670.3 -463.45 -671.75 -461.4 -672.6 -460.15 -674.65 -457.85 -676.9 -455.25 -678.35 -454 -680.6 -452.15 -682.9 -451.55 -683.7 -451.35 -685.3 -451.15 -686.75 -450.85 -687.55 -450.25 -687.95 -449.9 -689.1 -448.5 -690.15 -447.45 -690.95 -447.05 -691.6 -446.85 -692.9 -446.5 -693.7 -446 -694.1 -444.4 -694.9 -441.2 -694.9 -436.3 -694.9 -431.25 -694.9 -429.25 -694.9 -428.25 -694.9 -428.1 -695.2 -424.55 -696.65 -423.25 -697.75 -422.25 -699.45 -422.25 -701.05 -422.35 -702.35 -423.2 -704.55 -424.5 -706.1 -427.95 -706.4 -428.6 -706.7 -429.25 -709 -434.9 -709.1 -440.55 -712.15 -440.35 -713.8 -440.55 -716.4 -440.85 -717.9 -442.15 -719.15 -443.25 -719.65 -444.75 -720.15 -446.3 -719.65 -447.8 -725.6 -446.8 -731 -446.55 -733.75 -446.4 -735.35 -446.85 -735.45 -446.85 -735.45 -446.8 -736.1 -445.05 -737.45 -443.95 -740.2 -441.85 -743.95 -442.75 -747.15 -443.45 -747.95 -445.55
L -757.05 -445.5
Q -758.6 -445.5 -759.4 -444.95 -760.05 -444.55 -760.8 -443.25 -761.6 -442.15 -763.85 -440.55 -765.6 -438.8 -766.9 -433.85 -767.55 -431.25 -767.85 -429.25 -768 -428.25 -768 -427.4 -767.2 -426.8 -766.6 -425.95 -765.4 -423.8 -766.4 -419.85 -766.7 -418 -766.55 -417.4 -766.3 -416.4 -764.65 -414.75 -761.1 -411.05 -760.15 -407.35 -759.9 -405.75 -759.5 -405.2 -759.45 -405.05 -758.65 -404.15 -757 -404 -754.75 -404.1 -749.3 -404.3 -747.2 -403.75 -745.05 -403.1 -744.45 -404 -744.2 -404.45 -744.7 -406.05 -745.1 -407.35 -744.75 -408.8 -744.45 -410.3 -743.4 -411.2 -741.45 -413 -737 -412.4 -732.95 -412.15 -731.4 -410.3 -730.2 -409 -729.95 -405.7
L -729.4 -401.5
Q -728.85 -396.45 -730.7 -394.6 -732.1 -393.25 -735.5 -393.15 -736.15 -393.15 -736.8 -393.1 -736.65 -392.9 -736.6 -392.65 -735.95 -391.3 -736.3 -389.6 -736.45 -389.1 -736.6 -388.7
L -735.85 -388.05
Q -734.7 -386.85 -733.45 -386.15 -732.55 -385.7 -732.1 -385.45 -731.3 -385.05 -730.95 -384.55 -730.45 -383.55 -729.95 -383.35 -729.35 -383.05 -728.1 -383.7 -726.3 -384.55 -724.3 -384.35 -723.25 -384.2 -722.4 -383.75 -722.25 -383.85 -722.2 -383.85 -722.1 -383.85 -722.05 -383.85
L -721.75 -384
Q -721.6 -384 -721.45 -383.9
L -721.4 -384
Q -720.15 -383.85 -719.65 -382.9 -719.1 -382.3 -719 -381.6 -718.95 -380.85 -719.35 -380.3 -719.45 -380.2 -719.5 -380.05 -719.45 -379.7 -719.45 -379.3 -719.45 -377.1 -720.9 -375.9 -721.25 -375.6 -722.05 -375 -722.7 -374.5 -722.9 -373.9 -723.15 -373.2 -722.7 -371.95 -721.9 -368.65 -722.9 -366.55 -723.35 -365.55 -724.2 -364.75
L -722.4 -363.5
Q -721.25 -362.95 -720.8 -362.5 -720.25 -361.9 -720 -360.9 -719.95 -360.85 -719.65 -359.1 -719.5 -358.45 -719.3 -358.2 -718.4 -357.95 -718.05 -357.7 -717.7 -357.5 -717.35 -356.85 -717 -356.1 -716.7 -355.9
L -715.65 -355.4
Q -714.95 -355.05 -714.35 -353.35 -714.25 -352.85 -714.1 -352.45 -713.5 -352.6 -712.55 -352.6 -711.75 -352.6 -711.35 -352.7
L -710.4 -353.1
Q -709.15 -353.65 -708.15 -353.6 -706.75 -353.45 -706.2 -352.35 -706 -351.95 -705.9 -350.9 -705.85 -349.9 -705.55 -349.45 -705.35 -348.95 -704.55 -348.25 -703.1 -348.25 -702.35 -347.9
L -701.35 -347.45
Q -700.75 -347.2 -699.95 -347.35
L -699.3 -347.45 -694.85 -350.55 -694.4 -350.65
Q -692.6 -353.8 -692 -354.45 -690 -356.8 -686.8 -357.45 -683.55 -358.15 -680.8 -356.8 -678.05 -355.45 -676.55 -352.6 -675 -349.7 -675.5 -346.65 -673.85 -346.55 -672.1 -348.65 -669.75 -351.5 -668.95 -352 -667.4 -352.95 -665.45 -352.45 -663.6 -351.85 -662.7 -350.25 -662.5 -349.9 -662.05 -348.4 -661.7 -347.15 -661.2 -346.5 -659.95 -344.75 -656.35 -344.6 -653.25 -344.55 -651.65 -344.5 -649.05 -344.25 -647.25 -343.45 -645.15 -342.5 -642.65 -340.05 -639.2 -336.6 -638.45 -336 -635.45 -334 -634.3 -332.7 -632.7 -330.95 -631.3 -325.95 -630.75 -323.95 -630.75 -322.35 -629.8 -322.4 -628.4 -322.4 -626.1 -322.5 -624.95 -322.25 -623.35 -322.05 -620.6 -320.75 -618.2 -319.5 -617.55 -318.45 -617.05 -317.05 -616.6 -316.4 -615.6 -315.1 -612.55 -315.1 -608.5 -314.8 -606.55 -313.85 -603.25 -312.35 -602.6 -309.45 -602.15 -307.5 -602.95 -306.05 -602.95 -305.75 -602.95 -305.4 -602.95 -303.1 -604.75 -301.7 -606.7 -300.05 -610.25 -300.35 -611.2 -300.5 -611.75 -300.2 -612.35 -299.85 -613.1 -298.6 -613.2 -298.45 -614.15 -297.8 -614.8 -297.3 -614.9 -296.8 -614.95 -296.45 -614.65 -295.65 -614.45 -295.05 -614.3 -293.85 -614.25 -293.55 -613.2 -291.1 -612.5 -289.4 -612.85 -288.35 -612 -288.2 -610.7 -289 -609.55 -289.7 -608.8 -289.8 -608.75 -290.85 -608.15 -291.95 -607.6 -293.1 -606.35 -293.75 -605.2 -294.5 -603.9 -294.5 -602.6 -294.5 -601.3 -293.75 -599.55 -293.05 -598.75 -291.8 -598.45 -291.3 -597.9 -289.4 -597.45 -287.8 -596.7 -287.25 -595.35 -286.5 -594.75 -286 -594.05 -285.3 -593.7 -285.05 -593.45 -285 -592.3 -284.8
L -589.4 -284.7
Q -586.8 -284.7 -585.45 -284.05 -585.3 -284 -585.15 -283.9 -584.5 -283.85 -583.85 -283.55 -581.9 -282.75 -579.2 -279.5 -577.55 -277.6 -576.7 -276.1 -575.8 -274.15 -575.25 -273.2 -573.5 -271.25 -572.8 -270.1 -571.45 -268.05 -571.45 -263 -571.45 -256.5 -572.8 -253.55 -574.3 -250.4 -577.1 -248.7 -578.2 -247.95 -580.45 -246.7 -581.3 -246.05 -582.9 -244.65 -584.35 -243.4 -585.6 -243.1 -586.9 -242.75 -589.15 -243.25 -591.75 -243.9 -592.65 -243.9 -593.2 -242.55 -594.75 -240.55 -596.6 -238.25 -597.1 -237.45 -598.1 -235.95 -599.4 -232.6 -601.15 -228.95 -604.1 -226.25 -608.1 -222.55 -612.65 -222
L -614.6 -221.75
Q -615.85 -221.6 -616.55 -221.35 -617.2 -221.05 -618.2 -220.25 -618.35 -219.9 -618.5 -219.5 -619.1 -218.2 -620.8 -216.5 -622.4 -214.9 -623.4 -214.4 -624.5 -213.9 -626.8 -213.35 -628.4 -212.85 -632.2 -210.25 -635.45 -208.1 -637.7 -207.85 -637.45 -206.55 -639.1 -205.25 -641 -203.65 -641.3 -203 -641.65 -202.15 -641.5 -200.15 -641.6 -198.45 -642.9 -197.15 -643.6 -196.5 -644.75 -196
L -645 -195.85
Q -645.85 -194.1 -647.75 -193.25 -648.8 -192.75 -651.95 -192.3
L -657.7 -191.5
Q -662.8 -191.15 -666.55 -191 -666.55 -189.95 -667.05 -188.85 -667.9 -187.05 -670.95 -185.15 -674.5 -182.9 -680.15 -180 -690.35 -175.1 -707.05 -170.4 -709.75 -169.75 -711.25 -168.85 -712.55 -168.15 -714.15 -166.55 -716.7 -164 -716.85 -163.9 -720.45 -160.55 -723.65 -161.65 -724.95 -157.3 -726.25 -155.25 -726.4 -155.05 -726.55 -154.9 -728.65 -152.3 -728.9 -151.5 -729.15 -150.8 -729.15 -149.4 -733.55 -149.5 -737.8 -149.65 -739.7 -149.75 -741.5 -149.85 -744.75 -150.05 -747.95 -150.35 -747.95 -151.8 -747.5 -154.1
L -746.15 -161.25
Q -745.65 -164.7 -744.75 -166.7 -744.05 -168.5 -741.85 -171.85 -739.1 -176.2 -736.95 -178.85 -734.55 -181.75 -733.85 -182.85 -733.05 -184.45 -732.6 -185.2 -731.9 -186.6 -731.15 -187.45 -729.8 -189 -727.45 -189.95 -726 -190.5 -723.15 -191.25 -720.45 -192 -719.5 -192.8 -718 -194.25 -717.55 -197.65 -717.25 -200.2 -717.25 -203.75 -717.35 -207.85 -717.4 -209.9 -717.4 -214.6 -715.8 -216.35 -715.25 -217.05 -714.35 -217.35 -713.95 -218.65 -712.8 -219.5 -712.2 -220.9 -711.7 -221.55 -710.25 -223.05 -709.65 -223.95 -709.45 -224.2 -709 -224.95 -708.95 -225.3 -708.8 -225.6 -708.6 -226.05 -708.35 -226.4 -708.3 -226.6 -708.2 -226.75 -707.45 -228.65 -706.5 -229.35 -705.4 -230.1 -705.05 -230.6 -704.7 -231.1 -704.55 -231.8 -704.25 -232.7 -703.95 -234.4
L -703.5 -236.8
Q -703.35 -237.3 -703.15 -237.7 -703.75 -239.7 -704.15 -241.1 -705.4 -244.55 -706.85 -245.5 -707.45 -245.85 -708.95 -246.3 -710.3 -246.7 -710.95 -247.25 -711.85 -247.9 -712.4 -249.2 -713.05 -250.85 -713.45 -251.65 -714.25 -253.55 -718.35 -258.3 -721.8 -262.3 -722.05 -265.4 -721.9 -267.7 -721.95 -269 -722.25 -269.75 -722.55 -270.55 -722.6 -270.9 -722.7 -271.2 -722.9 -271.45 -723.05 -271.75 -724.05 -273.35 -724.2 -273.65 -725.15 -275.3 -726.1 -279.65 -726.75 -283.05 -726.15 -284.85 -726.25 -285.6 -726.15 -286.45 -726.15 -289.85 -726.3 -291.5 -726.45 -293.1 -726.9 -293.85 -726.95 -293.95 -728.05 -295.05 -729.85 -296.85 -729.7 -299.4 -729.7 -301.2 -728.1 -304.25 -726.95 -306.35 -726.45 -307.7 -725.8 -309.55 -725.5 -310.25 -726.55 -312.05 -726.65 -314.8 -726.8 -318 -725.5 -319.75 -724.85 -320.6 -723.4 -321.45 -721.4 -322.85 -721.1 -323.05 -719.8 -324.15 -718 -327.1 -716.25 -330.1 -714.9 -331.15 -714.3 -331.65 -711.9 -332.95 -710.05 -334.05 -709.25 -335.05 -708.45 -336.1 -707.65 -339.2 -707.45 -340.05 -707.15 -340.8 -707.2 -341.05 -707.3 -341.45 -707.45 -342.75 -707.55 -343.4
L -708.2 -345.5 -708.75 -346.05
Q -709.45 -346.85 -709.8 -348.1 -711.75 -348.1 -712.35 -347.9
L -713.6 -347.3
Q -714.95 -346.7 -716.4 -346.95 -717.5 -347.1 -718.05 -347.75 -718.95 -348.65 -718.4 -349.9 -718.35 -350.2 -718.15 -350.35 -718.3 -350.9 -718.5 -351.2 -718.65 -351.4 -719.75 -352.3
L -720.8 -353.35
Q -722.75 -354.95 -722.9 -355.1 -723.65 -355.85 -723.85 -356.85 -723.9 -357.55 -724 -357.95 -724.05 -358.5 -724.35 -358.95 -724.65 -359.4 -725.45 -359.75 -726.4 -360.25 -726.6 -360.45 -726.9 -360.7 -727.4 -361.1 -727.7 -361.25 -728.35 -361.5 -728.5 -361.55 -729.2 -362.5
L -729.85 -363.15
Q -730.85 -362.55 -731.9 -362.85 -733.05 -363.05 -734.35 -364.65
L -735.65 -366.2
Q -736.1 -366.75 -736.15 -367.05 -736.15 -367.1 -736.35 -368.05
L -736.8 -369.15
Q -736.95 -369.6 -736.95 -370.5
L -737 -373.35 -736.85 -374.8
Q -736.65 -375.3 -736.3 -375.8 -736.85 -376.3 -737.9 -376.45 -739.55 -376.8 -740 -377.05 -740.65 -377.4 -741.3 -378.25 -741.7 -378.4 -742.25 -378.55 -743.25 -378.85 -745.1 -379.2 -746.65 -379.65 -748.75 -381 -751.55 -382.6 -753.1 -384 -754.4 -385.15 -754.6 -386.1
L -754.9 -387.65
Q -755.05 -388.3 -755.6 -389.4 -756.4 -391 -756.2 -392.75 -756.1 -393.3 -755.9 -393.9 -761.55 -393.3 -766.4 -395.4 -768.65 -395.4 -770.15 -395.7 -773.85 -396.3 -776 -398.3 -776.6 -398.9 -777.7 -400.2 -778.7 -401.25 -779.55 -401.8 -780.35 -402.15 -783.6 -402.5 -786.85 -402.85 -788.9 -404.3 -789.85 -404.95 -791.05 -406.4 -792.6 -408.15 -793.15 -408.65 -794.4 -409.75 -796.5 -410.9 -797.65 -411.55 -800.05 -412.8 -804.45 -415.3 -805.05 -418.85 -805.2 -420 -804.8 -421.55 -804.65 -422.45 -804.25 -424.3 -803.8 -426.25 -803.8 -429.25 -803.8 -431.8 -804.15 -435.15 -804.6 -439.35 -805.6 -441.2 -805.95 -441.85 -806.85 -443.1 -807.8 -444.3 -808.15 -445.05 -808.85 -446.4 -808.85 -447.95 -809.15 -448.25 -809.45 -448.6 -813.85 -453.45 -815 -455.75 -815.6 -456.9 -816.55 -459.45 -817.5 -461.6 -818.65 -462.7 -819.5 -463.55 -821.75 -465.15 -822.6 -465.8 -823.05 -466.55 -823.25 -466.1 -823.55 -465.5
L -824.65 -463.55
Q -825.05 -462.9 -825.3 -462.2 -825.5 -461.1 -825.5 -461.05
L -825.95 -460.4
Q -825.95 -460 -825.65 -459.6 -825.3 -458.95 -825.2 -457.8 -825.05 -456.35 -825 -455.95 -824.85 -455.4 -824.35 -454.15 -823.85 -453.1 -823.7 -452.45
L -823.7 -451.2
Q -823.65 -450.45 -823.5 -450.05 -823.4 -449.9 -822.85 -449.1 -821.75 -447.5 -821.25 -446.05 -820.8 -444.75 -821 -444.1 -821.15 -443.4 -821.9 -442.95 -822.55 -442.5 -823.35 -442.6 -824.65 -442.6 -826 -443.95 -826.6 -444.6 -826.75 -445.25 -826.95 -446.2 -826.95 -446.3
L -827.75 -447
Q -827.9 -447.15 -828.05 -448.4 -828.2 -449.15 -828.85 -450.85
L -829.05 -452.5
Q -829.2 -452.95 -829.9 -454 -830.7 -455.2 -830.95 -456.9 -830.95 -458.65 -831.1 -459.15 -831.15 -459.75 -831.6 -460.9
L -831.65 -462.4
Q -831.8 -463 -832.55 -464.35 -833.1 -465.75 -833.2 -467.4 -833.2 -467.5 -833.25 -467.5 -833.6 -467.7 -834.85 -468.65 -835.8 -469.35 -836.45 -469.65 -837.3 -470 -838.75 -470 -840.65 -470.15 -841.15 -470.25 -845.75 -471.15 -848.25 -477.9 -849.8 -481.95 -848.95 -484.65 -848.3 -486.5 -845.7 -489.55 -844.85 -491 -844.7 -492.35 -844.55 -493.95 -845.5 -494.95 -846 -495.55 -847.15 -496.15 -848.45 -496.8 -848.9 -497.15 -850.7 -498.65 -850.55 -503.1
L -850.05 -520.15
Q -850.05 -520.95 -849.95 -521.65 -850.2 -522.05 -850.4 -522.4 -851.4 -524.2 -850.45 -526.45 Z
M -601.65 -485.35
Q -601.8 -485.85 -601.5 -486.35 -601.35 -486.7 -601.05 -486.85 -600.1 -488.55 -599.05 -488.95 -598.25 -489.35 -597.3 -489.05 -596.45 -488.75 -596.15 -487.95 -595.85 -488.15 -595.2 -488.25 -594.5 -488.4 -594.25 -488.55 -593.55 -488.8 -592.4 -490.5
L -590.85 -492.35
Q -590.5 -492.85 -590.05 -493.1 -589.05 -493.45 -588.25 -492.5 -587.75 -491.95 -587.45 -490.8 -587.05 -489.2 -586.5 -488.7 -585.2 -487.75 -584.95 -487 -584.85 -485.95 -584.65 -485.4 -584.55 -485.2 -583.75 -484.4 -582.45 -483.45 -582.25 -483.4 -581 -483.2 -580.5 -482.95 -579.2 -482.6 -579.15 -482.6 -578.85 -482.6 -578.35 -482.8 -577.75 -483.1 -577.55 -483.1 -576.9 -483.1 -576.3 -482.4
L -575.5 -481.2
Q -574.45 -480.15 -573.95 -479.55 -573.05 -478.2 -573.85 -477.4 -574.3 -477.05 -575.4 -476.75 -575.8 -476.6 -576.45 -476 -577.25 -475.5 -578.8 -475.35 -581 -475.2 -583 -475.65 -584.3 -475.95 -585.6 -476.5 -586.6 -476.95 -588.5 -478.1
L -590.15 -479.25
Q -590.65 -479.7 -591.65 -480.65 -592.6 -481.45 -593.4 -481.75 -594.35 -482.15 -596.05 -482.25 -598.4 -482.3 -598.8 -482.4 -600.5 -482.65 -600.5 -483.75 -601.35 -483.6 -601.65 -484.85 -601.65 -485.05 -601.65 -485.3
L -601.65 -485.35 Z
M -642.6 -390.65
L -641.15 -391.95
Q -640.3 -392.45 -639.2 -392.25 -638.05 -392 -637.55 -391.2 -636.95 -390.35 -637.15 -389.25 -637.4 -388.1 -638.2 -387.55 -638.4 -387.4 -639.35 -386.95 -640.05 -386.6 -640.45 -386.15 -640.8 -385.7 -640.85 -384.65 -641 -383.45 -641.3 -383.05 -641.95 -382.05 -643.75 -382.05 -645.15 -382.05 -645.35 -382.05 -646.2 -381.9 -646.65 -381.45 -647.1 -380.95 -647.3 -379.65 -648 -377.9 -650.9 -377.3 -655.85 -376.15 -660.75 -377.2 -660.9 -377.2 -661.05 -377.25 -661.65 -376.45 -662.7 -376.45 -663.35 -376.4 -663.95 -376.8 -664.6 -377.25 -664.75 -377.9 -664.9 -378.4 -664.95 -378.5 -665.15 -378.7 -665.75 -378.85 -666.75 -379.2 -667 -380.15 -667.05 -380.3 -667.2 -380.95 -667.25 -381.5 -667.5 -381.75 -668.55 -381.6 -669.5 -382.05
L -670.15 -382.4
Q -670.55 -382.55 -671.2 -382.75 -671.55 -382.9 -671.75 -383.2 -672.2 -382.95 -672.7 -382.7 -674.85 -381.75 -676.45 -382.75 -677.35 -383.35 -677.55 -384.35 -677.75 -385.45 -677.05 -386.15 -676.7 -386.5 -676 -386.75 -675.15 -386.95 -674.8 -387.1 -674.3 -387.25 -672.55 -388.3 -670.4 -389.7 -668.05 -389.7 -665.3 -389.7 -663.95 -387.75 -663.05 -386.1 -662.55 -385.3 -661.4 -383.85 -660.9 -383.05 -660.45 -382.3 -660.25 -382.1 -659.6 -381.45 -658.25 -381.4 -656.7 -381.4 -656 -381.3 -656.55 -383.85 -654.45 -385.8 -652.65 -387.55 -649.85 -387.4 -648.55 -387.25 -647.9 -387.25 -646.8 -387.25 -646.15 -387.65 -645.7 -387.95 -645.15 -388.7 -644.5 -389.5 -644.1 -389.75
L -642.6 -390.65 Z
M -685.05 -391.85
L -686.3 -392.6
Q -687.55 -393.25 -688.25 -394.4 -688.55 -394.85 -689.2 -395.9 -689.7 -396.85 -690.35 -397.2
L -691.75 -397.8
Q -692.3 -398 -693.6 -399.3
L -695.9 -401.7
Q -696.65 -402.5 -697.3 -402.8 -697.5 -402.85 -698.9 -402.85 -699.25 -402.85 -699.7 -402.95 -699.95 -402.7 -700.4 -402.65 -701 -402.5 -702.65 -402.85 -703.6 -403 -703.95 -403.3
L -704.45 -403.75
Q -704.75 -403.95 -706.55 -404.15 -707.3 -404.3 -707.8 -404.6
L -708.45 -405.1
Q -708.8 -405.4 -709.8 -405.4 -711.55 -405.4 -712.2 -405.85 -713.45 -406.65 -713.15 -407.95 -714.8 -407.65 -717.25 -408.8 -718.5 -409.4 -718.95 -410.05 -719.3 -410.6 -719.2 -411.25 -719.15 -412 -718.7 -412.5 -718.2 -413.05 -716.75 -413.5 -715.15 -413.95 -713.8 -414.15
L -706.55 -414.35
Q -704.4 -414.35 -703.3 -414.2 -702.3 -414.1 -700.4 -413.5
L -697.15 -412.4
Q -695.85 -412 -695.2 -411.55 -694.2 -410.55 -694.6 -409.65 -693.4 -409.45 -692 -408.2 -690.55 -406.7 -689.85 -406.05 -688.4 -404.95 -687.65 -404.4 -686.45 -403.35 -686 -402.35 -685.5 -400.7 -685.05 -400.05 -684.8 -399.7 -683.25 -398.45 -682.95 -398.25 -680.85 -396.15 -678.65 -393.6 -678.75 -391.8 -678.85 -390.95 -679.5 -390.2 -680.15 -389.5 -681 -389.25 -682.95 -388.75 -684.2 -390.5 -684.5 -390.95 -685.05 -391.85 Z
M -687.3 -388.3
Q -686.75 -387.55 -687 -386.5 -687.3 -385.5 -688.2 -385.15 -689.25 -384.55 -690.95 -385.3 -692.4 -385.95 -692.45 -386.85 -693.7 -386.65 -694.55 -387.3 -695.5 -388.2 -695.4 -389.25 -695.35 -390.4 -694.05 -391.2 -693.05 -391.8 -691.75 -391.65 -689.4 -391.65 -688.45 -390.15
L -687.95 -389.1
Q -687.55 -388.6 -687.3 -388.3 Z"/>
</defs>

<g transform="matrix( 1, 0, 0, 1, 321.05,321.05) ">
<g transform="matrix( 1, 0, 0, 1, 726.15,355.4) ">
<use xlink:href="#mundo_Recargado_0_Layer0_0_MEMBER_0_FILL"/>
</g>

<g filter="url(#Filter_1)" transform="matrix( 1, 0, 0, 1, -321.05,-321.05) ">
<g transform="matrix( 1, 0, 0, 1, 342.5,318.25) ">
<g transform="matrix( 1, 0, 0, 1, -226.25,-10.9) ">
<use xlink:href="#S_mbolo_13_0_Layer0_0_FILL"/>
</g>
</g>
</g>

<g transform="matrix( 1, 0, 0, 1, 726.15,355.4) ">
<use xlink:href="#mundo_Recargado_0_Layer0_0_MEMBER_2_FILL"/>
</g>

<g transform="matrix( 1, 0, 0, 1, 726.15,355.4) ">
<use xlink:href="#mundo_Recargado_0_Layer0_0_MEMBER_2_MEMBER_0_FILL"/>
</g>

<g transform="matrix( 1, 0, 0, 1, 726.15,355.4) ">
<use xlink:href="#mundo_Recargado_0_Layer0_0_MEMBER_2_MEMBER_1_1_STROKES"/>
</g>

<g filter="url(#Filter_2)" transform="matrix( 1, 0, 0, 1, -321.05,-321.05) ">
<g transform="matrix( 0.5644378662109375, 0, 0, 0.5644378662109375, 321,321) ">
<g transform="matrix( 1, 0, 0, 1, 0,0) ">
<use xlink:href="#S_mbolo_12_0_Layer0_0_FILL"/>
</g>
</g>
</g>

<g transform="matrix( 1, 0, 0, 1, 726.15,355.4) ">
<use xlink:href="#mundo_Recargado_0_Layer0_0_MEMBER_4_FILL"/>
</g>
</g>
</svg>
