
<svg xmlns="http://www.w3.org/2000/svg" version="1.1" xmlns:xlink="http://www.w3.org/1999/xlink" preserveAspectRatio="none" x="0px" y="0px" width="550px" height="120px" viewBox="0 0 550 120">
<defs>
<g id="Links_3_Layer2_0_FILL">
<path fill="#C1F6C4" stroke="none" d="
M 106 -8.6
Q 106 -4.9 108.35 -2.15 110.65 0.55 116 2.6 118.95 3.8 120.05 4.9 121.15 6 121.15 8.15 121.15 12.15 117.4 12.15 114.7 12.15 113.5 10.75 112.3 9.35 112.3 6.3
L 105.1 6.3
Q 105.1 9.9 106.7 12.5 108.3 15.15 111.15 16.55 113.95 18 117.4 18 122.5 18 125.45 15.4 128.4 12.75 128.4 8.15 128.4 3.9 126.05 1.15 123.7 -1.55 118.5 -3.45 115.5 -4.7 114.35 -5.9 113.15 -7.1 113.15 -8.55 113.15 -10.45 114.2 -11.55 115.25 -12.65 117.15 -12.65 119.15 -12.65 120.2 -11.35 121.25 -10.05 121.25 -7.55
L 128.4 -7.55
Q 128.4 -10.75 127.05 -13.25 125.65 -15.8 123.1 -17.15 120.55 -18.55 117.25 -18.55 112.35 -18.55 109.2 -15.8 106 -13.1 106 -8.6
M 78.75 -14.4
Q 75.35 -10.3 75.35 -3
L 75.35 3.1
Q 75.4 10.15 78.8 14.1 82.25 18 88.2 18 94.2 18 97.6 14.05 101 10.1 101 2.9
L 101 -3.15
Q 100.95 -10.45 97.5 -14.5 94.1 -18.55 88.15 -18.55 82.15 -18.55 78.75 -14.4
M 82.5 -3.4
Q 82.55 -8 83.95 -10.25 85.3 -12.55 88.15 -12.55 91.05 -12.55 92.4 -10.2 93.8 -7.85 93.8 -3.05
L 93.8 3.15
Q 93.75 7.7 92.4 9.85 91 12 88.2 12 85.3 12 83.9 9.8 82.5 7.6 82.5 2.9
L 82.5 -3.4
M 59.75 -18.05
L 48.3 -18.05 48.3 17.5 55.45 17.5 55.45 4.5 59 4.5 64.35 17.5 72.1 17.5 72.1 17.15 65.85 2.6
Q 71 -0.2 71 -7.3 71 -12.45 68.1 -15.25 65.15 -18.05 59.75 -18.05
M 59.55 -1.45
L 55.45 -1.45 55.45 -12.05 59.65 -12.05
Q 63.85 -12.05 63.85 -6.7 63.85 -4.35 62.75 -2.9 61.7 -1.45 59.55 -1.45
M 19.5 -18.05
L 19.5 -12.05 28.15 -12.05 28.15 17.5 35.35 17.5 35.35 -12.05 44.15 -12.05 44.15 -18.05 19.5 -18.05
M 15.95 -3.15
Q 15.9 -10.45 12.45 -14.5 9.05 -18.55 3.1 -18.55 -2.9 -18.55 -6.3 -14.4 -9.7 -10.3 -9.7 -3
L -9.7 3.1
Q -9.65 10.15 -6.25 14.1 -2.8 18 3.15 18 9.15 18 12.55 14.05 15.95 10.1 15.95 2.9
L 15.95 -3.15
M 3.1 -12.55
Q 6 -12.55 7.35 -10.2 8.75 -7.85 8.75 -3.05
L 8.75 3.15
Q 8.7 7.7 7.35 9.85 5.95 12 3.15 12 0.25 12 -1.15 9.8 -2.55 7.6 -2.55 2.9
L -2.55 -3.4
Q -2.5 -8 -1.1 -10.25 0.25 -12.55 3.1 -12.55
M -36.25 -8.6
Q -36.25 -4.9 -33.9 -2.15 -31.6 0.55 -26.25 2.6 -23.3 3.8 -22.2 4.9 -21.1 6 -21.1 8.15 -21.1 12.15 -24.85 12.15 -27.55 12.15 -28.75 10.75 -29.95 9.35 -29.95 6.3
L -37.15 6.3
Q -37.15 9.9 -35.55 12.5 -33.95 15.15 -31.1 16.55 -28.3 18 -24.85 18 -19.75 18 -16.8 15.4 -13.85 12.75 -13.85 8.15 -13.85 3.9 -16.2 1.15 -18.55 -1.55 -23.75 -3.45 -26.75 -4.7 -27.9 -5.9 -29.1 -7.1 -29.1 -8.55 -29.1 -10.45 -28.05 -11.55 -27 -12.65 -25.1 -12.65 -23.1 -12.65 -22.05 -11.35 -21 -10.05 -21 -7.55
L -13.85 -7.55
Q -13.85 -10.75 -15.2 -13.25 -16.6 -15.8 -19.15 -17.15 -21.7 -18.55 -25 -18.55 -29.9 -18.55 -33.05 -15.8 -36.25 -13.1 -36.25 -8.6
M -63.5 -14.4
Q -66.9 -10.3 -66.9 -3
L -66.9 3.1
Q -66.85 10.15 -63.45 14.1 -60 18 -54.05 18 -48.05 18 -44.65 14.05 -41.25 10.1 -41.25 2.9
L -41.25 -3.15
Q -41.3 -10.45 -44.75 -14.5 -48.15 -18.55 -54.1 -18.55 -60.1 -18.55 -63.5 -14.4
M -49.85 -10.2
Q -48.45 -7.85 -48.45 -3.05
L -48.45 3.15
Q -48.5 7.7 -49.85 9.85 -51.25 12 -54.05 12 -56.95 12 -58.35 9.8 -59.75 7.6 -59.75 2.9
L -59.75 -3.4
Q -59.7 -8 -58.3 -10.25 -56.95 -12.55 -54.1 -12.55 -51.2 -12.55 -49.85 -10.2
M -89.7 -18.05
L -96.9 -18.05 -96.9 17.5 -89.7 17.5 -89.7 -5.8 -79.2 17.5 -72.05 17.5 -72.05 -18.05 -79.2 -18.05 -79.2 5.3 -89.7 -18.05 Z"/>
</g>

<g id="Links_3_Layer0_0_MEMBER_0_MEMBER_0_MEMBER_0_MEMBER_0_MEMBER_0_FILL">
<path fill="#C1F6C4" stroke="none" d="
M 60.5 77
Q 50.15 76.55 48.65 76.25 45.35 84.25 46.75 88.55 47.9 92 51.8 92.85 53.6 93.05 63.4 93.75
L 69.8 94.1 70.55 77.4 60.5 77
M 36.95 69.2
L 39.7 74.2
Q 41.4 77.2 44.75 83.75 46.1 77.1 50.6 70.65 51.85 68.75 53.7 66.6
L 55.4 64.55 61.55 68.45 53.85 52.25 35.35 51.55 41.3 55.2 39.05 58.7
Q 36.7 62.45 36.15 64 35.75 65.7 35.9 66.55 35.95 67.45 36.95 69.2
M 57.1 29.6
Q 54.95 32.75 50.8 39.4 50.1 40.5 47.45 44.8
L 61.8 53.4 66.95 44.75
Q 72.3 35.9 73.25 34.7 67.75 28 63.25 27.2 59.75 26.55 57.1 29.6
M 98 91.35
Q 98.7 90.7 99.5 88.95
L 101.9 83.75
Q 104.35 78.6 106.7 74.1 100.55 76.9 92.65 77.1 90.2 77.2 87.55 76.95
L 84.9 76.75 84.4 69.5 75.85 85.25 86.15 100.6 85.6 93.65 89.8 93.4
Q 94.25 93.1 95.8 92.65 97.3 92 98 91.35
M 109.4 69.6
Q 111.55 66.65 109.9 63 106.75 57.8 103.8 53.1
L 100.35 47.75 86.35 56.95 91.95 65.3
Q 97.9 74.35 98.3 75.35 106.7 73.3 109.4 69.6
M 87.85 28.05
Q 86.95 27.75 85 27.75
L 79.3 27.8
Q 74.85 27.85 68.45 27.7 73.6 31.95 77.25 39.05 78.4 41.25 79.35 43.7
L 80.35 46.15 73.95 49.75 91.9 50.65 101.3 34.75 95.25 38.25 93.25 34.6
Q 91 30.7 89.95 29.5 88.8 28.5 87.85 28.05 Z"/>
</g>

<path id="Links_3_Layer1_0_MEMBER_0_MEMBER_0_1_STROKES" stroke="#3EEB3D" stroke-width="2" stroke-linejoin="round" stroke-linecap="round" fill="none" d="
M 145.6 10
L 145.6 110"/>
</defs>

<g transform="matrix( 1, 0, 0, 1, 273.9,64) ">
<g transform="matrix( 1, 0, 0, 1, 0,0) ">
<use xlink:href="#Links_3_Layer2_0_FILL"/>
</g>

<g transform="matrix( 1, 0, 0, 1, -275,-60) ">
<use xlink:href="#Links_3_Layer1_0_MEMBER_0_MEMBER_0_1_STROKES"/>
</g>

<g transform="matrix( 1, 0, 0, 1, -275,-60) ">
<use xlink:href="#Links_3_Layer0_0_MEMBER_0_MEMBER_0_MEMBER_0_MEMBER_0_MEMBER_0_FILL"/>
</g>
</g>
</svg>
