
<svg xmlns="http://www.w3.org/2000/svg" version="1.1" xmlns:xlink="http://www.w3.org/1999/xlink" preserveAspectRatio="none" x="0px" y="0px" width="168px" height="168px" viewBox="0 0 168 168">
<defs>
<g id="S_mbolo_14_0_Layer1_0_FILL">
<path fill="#374D6B" stroke="none" d="
M 111.85 -111.95
Q 65.55 -158.25 0 -158.25 -65.55 -158.25 -111.95 -111.95 -158.3 -65.55 -158.3 0 -158.3 65.55 -111.95 111.85 -65.55 158.25 0 158.25 65.55 158.25 111.85 111.85 158.25 65.55 158.25 0 158.25 -65.55 111.85 -111.95 Z"/>
</g>

<g id="S_mbolo_14_0_Layer0_0_MEMBER_0_FILL">
<path fill="#FFFFFF" stroke="none" d="
M 122.4 -67.4
Q 108.35 -81.45 88.45 -81.45
L 18.45 -81.45
Q -1.45 -81.45 -15.5 -67.4 -29.55 -53.3 -29.55 -33.4
L -29.55 37
Q -29.55 56.9 -15.5 70.95 -1.45 85 18.45 85
L 88.45 85
Q 108.35 85 122.4 70.95 136.45 56.9 136.45 37
L 136.45 -33.4
Q 136.45 -53.3 122.4 -67.4
M 82.7 -67.6
Q 99.3 -67.6 111 -55.9 122.7 -44.15 122.7 -27.55
L 122.7 31.15
Q 122.7 47.75 111 59.45 99.3 71.15 82.7 71.15
L 24.3 71.15
Q 7.7 71.15 -4 59.45 -15.7 47.75 -15.7 31.15
L -15.7 -27.55
Q -15.7 -44.15 -4 -55.9 7.7 -67.6 24.3 -67.6
L 82.7 -67.6
M 96.4 -55.6
Q 91.95 -55.6 88.8 -52.5 85.7 -49.35 85.7 -44.9 85.7 -40.45 88.8 -37.35 91.95 -34.2 96.4 -34.2 100.85 -34.2 103.95 -37.35 107.1 -40.45 107.1 -44.9 107.1 -49.35 103.95 -52.5 100.85 -55.6 96.4 -55.6
M 52.6 -45.3
Q 32.95 -45.3 19.1 -31.4 5.2 -17.55 5.2 2.15 5.2 21.8 19.1 35.65 32.95 49.55 52.6 49.55 72.25 49.55 86.15 35.65 100.05 21.8 100.05 2.15 100.05 -17.55 86.15 -31.4 72.25 -45.3 52.6 -45.3
M 52.6 -29.7
Q 65.8 -29.7 75.1 -20.35 84.4 -11.05 84.4 2.1 84.4 15.3 75.1 24.6 65.8 33.9 52.6 33.9 39.4 33.9 30.1 24.6 20.8 15.3 20.8 2.1 20.8 -11.05 30.1 -20.35 39.4 -29.7 52.6 -29.7 Z"/>
</g>

<path id="S_mbolo_14_0_Layer1_0_1_STROKES" stroke="#88A0C2" stroke-width="3" stroke-linejoin="round" stroke-linecap="round" fill="none" d="
M 158.25 0
Q 158.25 65.55 111.85 111.85 65.55 158.25 0 158.25 -65.55 158.25 -111.95 111.85 -158.3 65.55 -158.3 0 -158.3 -65.55 -111.95 -111.95 -65.55 -158.25 0 -158.25 65.55 -158.25 111.85 -111.95 158.25 -65.55 158.25 0 Z"/>
</defs>

<g transform="matrix( 0.49462890625, 0, 0, 0.49462890625, 84,84) ">
<g transform="matrix( 1, 0, 0, 1, 0,0) ">
<use xlink:href="#S_mbolo_14_0_Layer1_0_FILL"/>

<use xlink:href="#S_mbolo_14_0_Layer1_0_1_STROKES"/>
</g>

<g transform="matrix( 1, 0, 0, 1, -53.45,-1.75) ">
<use xlink:href="#S_mbolo_14_0_Layer0_0_MEMBER_0_FILL"/>
</g>
</g>
</svg>
