
<svg xmlns="http://www.w3.org/2000/svg" version="1.1" xmlns:xlink="http://www.w3.org/1999/xlink" preserveAspectRatio="none" x="0px" y="0px" width="168px" height="168px" viewBox="0 0 168 168">
<defs>
<g id="S_mbolo_14_1_Layer1_0_FILL">
<path fill="#283e28" stroke="none" d="
M 111.85 -111.95
Q 65.55 -158.25 0 -158.25 -65.55 -158.25 -111.95 -111.95 -158.3 -65.55 -158.3 0 -158.3 65.55 -111.95 111.85 -65.55 158.25 0 158.25 65.55 158.25 111.85 111.85 158.25 65.55 158.25 0 158.25 -65.55 111.85 -111.95 Z"/>
</g>

<g id="S_mbolo_14_1_Layer0_0_MEMBER_0_FILL">
<path fill="#FFFFFF" stroke="none" d="
M 437.4 -36.8
L 410.95 -36.8 410.95 54.35 438.1 54.35 438.1 3.95
Q 439.65 -5.05 444.95 -9.7 449.7 -13.85 455.7 -13.2 461.65 -12.6 465.65 -7.7 469.75 -2.65 469.9 4.95
L 469.9 5.45
Q 469.9 5.6 469.9 5.75
L 469.9 54.7 496.7 54.7 496.7 -10.7
Q 493.45 -32.05 473.15 -35.05 446.25 -39.2 438.05 -24.45
L 437.4 -24.3 437.4 -36.8
M 394.25 -35.7
L 362.35 -35.7 362.35 54.3 394.25 54.3 394.25 -35.7
M 369.45 -78.9
Q 367.65 -77.85 366.1 -76.3 361.3 -71.45 361.3 -64.65 361.3 -64.45 361.3 -64.3 361.4 -57.75 366.1 -53.05 370.95 -48.2 377.75 -48.2 384.55 -48.2 389.35 -53.05 394.05 -57.75 394.2 -64.3 394.2 -64.45 394.2 -64.65 394.2 -71.45 389.35 -76.3 387.8 -77.85 386.05 -78.9 382.35 -81.1 377.75 -81.1 373.15 -81.1 369.45 -78.9 Z"/>
</g>

<path id="S_mbolo_14_1_Layer1_0_1_STROKES" stroke="#283e28" stroke-width="3" stroke-linejoin="round" stroke-linecap="round" fill="none" d="
M 158.25 0
Q 158.25 65.55 111.85 111.85 65.55 158.25 0 158.25 -65.55 158.25 -111.95 111.85 -158.3 65.55 -158.3 0 -158.3 -65.55 -111.95 -111.95 -65.55 -158.25 0 -158.25 65.55 -158.25 111.85 -111.95 158.25 -65.55 158.25 0 Z"/>
</defs>

<g transform="matrix( 0.49462890625, 0, 0, 0.49462890625, 84,84) ">
<g transform="matrix( 1, 0, 0, 1, 0,0) ">
<use xlink:href="#S_mbolo_14_1_Layer1_0_FILL"/>

<use xlink:href="#S_mbolo_14_1_Layer1_0_1_STROKES"/>
</g>

<g transform="matrix( 1, 0, 0, 1, -424.7,6.75) ">
<use xlink:href="#S_mbolo_14_1_Layer0_0_MEMBER_0_FILL"/>
</g>
</g>
</svg>
