
<svg xmlns="http://www.w3.org/2000/svg" version="1.1" xmlns:xlink="http://www.w3.org/1999/xlink" preserveAspectRatio="none" x="0px" y="0px" width="550px" height="120px" viewBox="0 0 550 120">
<defs>
<g id="Links_4_Layer2_0_FILL">
<path fill="#C1F6C4" stroke="none" d="
M -0.5 -12.05
L -0.5 -18.05 -20.85 -18.05 -20.85 17.5 -0.45 17.5 -0.45 11.55 -13.65 11.55 -13.65 2.1 -2.5 2.1 -2.5 -3.65 -13.65 -3.65 -13.65 -12.05 -0.5 -12.05
M -24.95 -12.05
L -24.95 -18.05 -44.65 -18.05 -44.65 17.5 -37.45 17.5 -37.45 3 -26.3 3 -26.3 -2.95 -37.45 -2.95 -37.45 -12.05 -24.95 -12.05
M -48.85 -18.05
L -69.2 -18.05 -69.2 17.5 -48.8 17.5 -48.8 11.55 -62 11.55 -62 2.1 -50.85 2.1 -50.85 -3.65 -62 -3.65 -62 -12.05 -48.85 -12.05 -48.85 -18.05
M -85.4 -18.05
L -96.85 -18.05 -96.85 17.5 -89.7 17.5 -89.7 4.5 -86.15 4.5 -80.8 17.5 -73.05 17.5 -73.05 17.15 -79.3 2.6
Q -74.15 -0.2 -74.15 -7.3 -74.15 -12.45 -77.05 -15.25 -80 -18.05 -85.4 -18.05
M -85.6 -1.45
L -89.7 -1.45 -89.7 -12.05 -85.5 -12.05
Q -81.3 -12.05 -81.3 -6.7 -81.3 -4.35 -82.4 -2.9 -83.45 -1.45 -85.6 -1.45
M 122.55 -18.05
L 115.35 -18.05 115.35 17.5 122.55 17.5 122.55 -18.05
M 158.3 -8.6
Q 158.3 -4.9 160.65 -2.15 162.95 0.55 168.3 2.6 171.25 3.8 172.35 4.9 173.45 6 173.45 8.15 173.45 12.15 169.7 12.15 167 12.15 165.8 10.75 164.6 9.35 164.6 6.3
L 157.4 6.3
Q 157.4 9.9 159 12.5 160.6 15.15 163.45 16.55 166.25 18 169.7 18 174.8 18 177.75 15.4 180.7 12.75 180.7 8.15 180.7 3.9 178.35 1.15 176 -1.55 170.8 -3.45 167.8 -4.7 166.65 -5.9 165.45 -7.1 165.45 -8.55 165.45 -10.45 166.5 -11.55 167.55 -12.65 169.45 -12.65 171.45 -12.65 172.5 -11.35 173.55 -10.05 173.55 -7.55
L 180.7 -7.55
Q 180.7 -10.75 179.35 -13.25 177.95 -15.8 175.4 -17.15 172.85 -18.55 169.55 -18.55 164.65 -18.55 161.5 -15.8 158.3 -13.1 158.3 -8.6
M 143.95 -18.05
L 137.4 -18.05 126.3 17.5 133.9 17.5 135.8 10.2 145.55 10.2 147.5 17.5 155.15 17.5 143.95 -18.05
M 144 4.25
L 137.35 4.25 140.65 -8.45 144 4.25
M 89.2 -14.55
Q 85.9 -10.6 85.9 -3.3
L 85.9 2.7
Q 85.9 10.05 89.1 14.05 92.3 18 98.35 18 104.1 18 107.25 14.85 110.4 11.75 110.65 5.65
L 103.5 5.65
Q 103.35 9.25 102.25 10.65 101.2 12.05 98.35 12.05 95.45 12.05 94.3 10.05 93.1 8.1 93.1 2.8
L 93.1 -3.95
Q 93.15 -8.55 94.35 -10.55 95.55 -12.6 98.45 -12.6 101.3 -12.6 102.35 -11.15 103.4 -9.7 103.5 -5.95
L 110.7 -5.95
Q 110.3 -12.05 107.3 -15.3 104.25 -18.55 98.45 -18.55 92.55 -18.55 89.2 -14.55
M 63.15 -18.05
L 55.95 -18.05 55.95 17.5 63.15 17.5 63.15 -5.8 73.65 17.5 80.8 17.5 80.8 -18.05 73.65 -18.05 73.65 5.3 63.15 -18.05
M 38.6 -3.65
L 38.6 -12.05 51.75 -12.05 51.75 -18.05 31.4 -18.05 31.4 17.5 51.8 17.5 51.8 11.55 38.6 11.55 38.6 2.1 49.75 2.1 49.75 -3.65 38.6 -3.65
M 15.2 -18.05
L 3.75 -18.05 3.75 17.5 10.9 17.5 10.9 4.5 14.45 4.5 19.8 17.5 27.55 17.5 27.55 17.15 21.3 2.6
Q 26.45 -0.2 26.45 -7.3 26.45 -12.45 23.55 -15.25 20.6 -18.05 15.2 -18.05
M 15 -1.45
L 10.9 -1.45 10.9 -12.05 15.1 -12.05
Q 19.3 -12.05 19.3 -6.7 19.3 -4.35 18.2 -2.9 17.15 -1.45 15 -1.45 Z"/>
</g>

<g id="Links_4_Layer0_0_MEMBER_0_MEMBER_0_MEMBER_0_MEMBER_0_MEMBER_0_FILL">
<path fill="#C1F6C4" stroke="none" d="
M 99.75 84.35
Q 110.8 73.25 110.8 57.75 110.8 42.15 99.75 31 88.8 20.05 73.15 20.05 57.6 20.05 46.5 31 35.45 42.15 35.45 57.75 35.45 73.25 46.5 84.35 57.65 95.4 73.15 95.4 88.8 95.4 99.75 84.35
M 106.4 57.75
Q 106.4 71.45 96.65 81.25 87 91 73.15 91 59.45 91 49.6 81.25 39.85 71.45 39.85 57.75 39.85 43.95 49.6 34.1 59.4 24.45 73.15 24.45 87 24.45 96.65 34.1 106.4 43.95 106.4 57.75
M 65.45 40.45
Q 62.35 43.55 62.35 47.95 62.35 52.6 65.45 55.75 68.7 58.85 73.25 58.85 77.65 58.85 80.9 55.75 84 52.6 84 47.95 84 43.55 80.9 40.45 77.65 37.2 73.25 37.2 68.7 37.2 65.45 40.45
M 93.55 75
Q 93.55 69.35 87.55 65.5 81.5 61.5 73.15 61.5 64.75 61.5 58.7 65.5 52.85 69.35 52.85 75 52.85 76.05 52.95 76.55
L 53.95 77.45
Q 61.9 85.45 73.15 85.45 84.5 85.45 92.4 77.45
L 93.4 76.55
Q 93.55 75.8 93.55 75 Z"/>
</g>

<path id="Links_4_Layer1_0_MEMBER_0_MEMBER_0_1_STROKES" stroke="#3EEB3D" stroke-width="2" stroke-linejoin="round" stroke-linecap="round" fill="none" d="
M 145.6 10
L 145.6 110"/>
</defs>

<g transform="matrix( 1, 0, 0, 1, 273.9,64) ">
<g transform="matrix( 1, 0, 0, 1, 0,0) ">
<use xlink:href="#Links_4_Layer2_0_FILL"/>
</g>

<g transform="matrix( 1, 0, 0, 1, -275,-60) ">
<use xlink:href="#Links_4_Layer1_0_MEMBER_0_MEMBER_0_1_STROKES"/>
</g>

<g transform="matrix( 1, 0, 0, 1, -275,-60) ">
<use xlink:href="#Links_4_Layer0_0_MEMBER_0_MEMBER_0_MEMBER_0_MEMBER_0_MEMBER_0_FILL"/>
</g>
</g>
</svg>
