
<svg xmlns="http://www.w3.org/2000/svg" version="1.1" xmlns:xlink="http://www.w3.org/1999/xlink" preserveAspectRatio="none" x="0px" y="0px" width="485px" height="385px" viewBox="0 0 485 385">
<defs>
<filter id="Filter_1" x="-20%" y="-20%" width="140%" height="140%" color-interpolation-filters="sRGB">
<feGaussianBlur in="SourceGraphic" stdDeviation="3.3333333333333335,3.3333333333333335" result="result1"/>
</filter>

<g id="S_mbolo_15_0_Layer0_0_FILL">
<path fill="#000000" fill-opacity="0.24705882352941178" stroke="none" d="
M 234.2 114.85
Q 232.1466796875 119.9533203125 227.95 124.15 219.75 132.35 208.15 132.35
L 114.95 132.35
Q 113.694921875 138.354296875 113.4 144.3
L 204.2 144.3
Q 216.65 144.3 225.45 135.55 234.000390625 126.95078125 234.2 114.85
M -236.2 -156.2
Q -236.2 -161.6703125 -234.4 -166.4 -242.15 -157.9513671875 -242.15 -146.25
L -242.15 114.3
Q -242.15 126.75 -233.35 135.55 -224.6 144.3 -212.15 144.3
L 57.95 144.3
Q 74.75 174.2 117.55 196.05 118.15 196.35 118.8 196.25 119.4 196.1 119.9 195.65 120.35 195.2 120.45 194.55 120.5 193.9 120.25 193.35 116.9146484375 186.8419921875 114.8 180.25 78.0068359375 159.672265625 63.05 132.35
L -208.2 132.35
Q -219.8 132.35 -228 124.15 -236.2 115.95 -236.2 104.35
L -236.2 -156.2 Z"/>
</g>

<g id="S_mbolo_16_0_Layer0_0_FILL">
<path fill="#DCE6C4" fill-opacity="0.8196078431372549" stroke="none" d="
M -208.15 -184.25
Q -219.75 -184.25 -227.95 -176.05 -236.15 -167.85 -236.15 -156.25
L -236.15 104.3
Q -236.15 115.9 -227.95 124.1 -219.75 132.3 -208.15 132.3
L 63.1 132.3
Q 79.55 162.35 122.45 184.25 109.45 158.85 115 132.3
L 208.2 132.3
Q 219.8 132.3 228 124.1 236.2 115.9 236.2 104.3
L 236.2 -156.25
Q 236.2 -167.85 228 -176.05 219.8 -184.25 208.2 -184.25
L -208.15 -184.25 Z"/>
</g>
</defs>

<g filter="url(#Filter_1)" transform="matrix( 1, 0, 0, 1, 0,0) ">
<g transform="matrix( 1, 0, 0, 1, 245.5,187.75) ">
<g transform="matrix( 1, 0, 0, 1, 0,0) ">
<use xlink:href="#S_mbolo_15_0_Layer0_0_FILL"/>
</g>
</g>
</g>

<g transform="matrix( 1, 0, 0, 1, 245.5,187.75) ">
<g transform="matrix( 1, 0, 0, 1, 0,0) ">
<use xlink:href="#S_mbolo_16_0_Layer0_0_FILL"/>
</g>
</g>

<g transform="matrix( 1, 0, 0, 1, 405.2,75.2) ">
<clipPath id="Mask_Mask_1">
<rect x="-339.25" y="-2" width="352.25" height="159.2" fill="#FFFFFF" stroke="none"/>
</clipPath>

<text clip-path="url(#Mask_Mask_1)" writing-mode="lr"><tspan x="-282.65" y="39.9" baseline-shift="0%" font-family="Roboto Condensed" font-weight="bold" font-size="42" fill="#003300" xml:space="preserve">Visita Nuestra </tspan><tspan x="-329.35" y="92.3" baseline-shift="0%" font-family="Roboto Condensed" font-weight="bold" font-size="42" fill="#003300" xml:space="preserve">sección informativa </tspan><tspan x="-334.25" y="144.7" baseline-shift="0%" font-family="Roboto Condensed" font-weight="bold" font-size="42" fill="#003300" xml:space="preserve">y aprende a reciclar!</tspan></text>
</g>
</svg>
