
<svg xmlns="http://www.w3.org/2000/svg" version="1.1" xmlns:xlink="http://www.w3.org/1999/xlink" preserveAspectRatio="none" x="0px" y="0px" width="1905px" height="1384px" viewBox="0 0 1905 1384">
<defs>
<filter id="Filter_1" x="-20%" y="-22.323915360766662%" width="140%" height="144.64783072153332%" color-interpolation-filters="sRGB">
<feFlood flood-color="#000000" flood-opacity="1" in="SourceGraphic" result="result1"/>

<feComposite in2="SourceGraphic" in="result1" operator="in" result="result2"/>

<feGaussianBlur in="result2" stdDeviation="13.666666666666666,13.666666666666666" result="result3"/>

<feOffset dx="-2.119677056932819" dy="3.3921923846257043" in="result3" result="result4"/>

<feComposite in2="result4" in="SourceGraphic" operator="over" result="result5"/>

<feGaussianBlur in="result5" stdDeviation="32.333333333333336,32.333333333333336" result="result6"/>
</filter>

<g id="S_mbolo_19_0_Layer0_0_FILL">
<path fill="#FFFFFF" fill-opacity="0.8392156862745098" stroke="none" d="
M 785.4 -524.9
Q 756.15 -554.15 714.7 -554.15
L -714.7 -554.15
Q -756.15 -554.15 -785.45 -524.9 -814.7 -495.6 -814.7 -454.15
L -814.7 286.35
Q -814.7 327.8 -785.45 357.05 -756.15 386.35 -714.7 386.35
L 341.45 386.35 509.2 554.1 515.2 386.35 714.7 386.35
Q 756.15 386.35 785.4 357.05 814.7 327.8 814.7 286.35
L 814.7 -454.15
Q 814.7 -495.6 785.4 -524.9 Z"/>
</g>

<g id="S_mbolo_20_0_Layer0_0_FILL">
<path fill="#000000" fill-opacity="0.2980392156862745" stroke="none" d="
M 807.35 -546.8
Q 769 -585.15 714.7 -585.15
L -714.7 -585.15
Q -769 -585.15 -807.35 -546.85
L -807.4 -546.8
Q -845.7 -508.45 -845.7 -454.15
L -845.7 286.35
Q -845.7 340.65 -807.35 379 -769 417.35 -714.7 417.35
L 328.6 417.35 487.3 576.05
Q 496.25 584.95 508.8 585.1 521.35 585.25 530.55 576.5 539.75 567.75 540.2 555.2
L 545.1 417.35 714.7 417.35
Q 769 417.35 807.3 379
L 807.35 378.95
Q 845.7 340.65 845.7 286.35
L 845.7 -454.15
Q 845.7 -508.45 807.35 -546.8
M 714.7 -554.15
Q 756.15 -554.15 785.4 -524.9 814.7 -495.6 814.7 -454.15
L 814.7 286.35
Q 814.7 327.8 785.4 357.05 756.15 386.35 714.7 386.35
L 515.2 386.35 509.2 554.1 341.45 386.35 -714.7 386.35
Q -756.15 386.35 -785.45 357.05 -814.7 327.8 -814.7 286.35
L -814.7 -454.15
Q -814.7 -495.6 -785.45 -524.9 -756.15 -554.15 -714.7 -554.15
L 714.7 -554.15 Z"/>
</g>
</defs>

<g transform="matrix( 1, 0, 0, 1, 953.7,687.15) ">
<g transform="matrix( 1, 0, 0, 1, 0,0) ">
<use xlink:href="#S_mbolo_19_0_Layer0_0_FILL"/>
</g>
</g>

<g filter="url(#Filter_1)" transform="matrix( 1, 0, 0, 1, 0,0) ">
<g transform="matrix( 1, 0, 0, 1, 953.7,687.15) ">
<g transform="matrix( 1, 0, 0, 1, 0,0) ">
<use xlink:href="#S_mbolo_20_0_Layer0_0_FILL"/>
</g>
</g>
</g>
</svg>
