
<svg xmlns="http://www.w3.org/2000/svg" version="1.1" xmlns:xlink="http://www.w3.org/1999/xlink" preserveAspectRatio="none" x="0px" y="0px" width="861px" height="134px" viewBox="0 0 861 134">
<defs>
<g id="Layer0_0_FILL">
<path fill="#374D6B" stroke="none" d="
M -20.75 -9.45
Q -24.7 -9.45 -28.9 -6.05 -33.1 -2.65 -36.75 2.5 -40.35 7.6 -42.65 13.6 -44.95 19.55 -44.95 24.95 -44.95 29.95 -42.75 33.2 -40.5 36.4 -36.95 36.4 -34.75 36.05 -32.15 34.2 -29.45 32.4 -26.9 29.45 -24.3 26.55 -21.75 22.75 -19.3 18.95 -17.35 14.55 -21 23.95 -21 29.35 -21 36.3 -15.8 36.3 -14.4 36.3 -12.6 35.85 -10.75 35.4 -9.6 34.65 -10.95 33.9 -11.5 32.1 -12.1 30.35 -12.1 27.75 -12.1 25.35 -11.45 22.15 -10.85 18.95 -9.7 15.25 -8.55 11.55 -6.9 7.55 -5.25 3.5 -3.35 -0.45 -3.35 -1 -4.1 -1.7 -4.8 -2.35 -5.85 -2.95 -6.9 -3.6 -8.25 -4 -9.5 -4.35 -10.5 -4.35 -11.5 -2.15 -12.75 0.2 -13.95 2.55 -15.15 4.85 -16.45 7.15 -17.6 9.3 -18.8 11.4 -19.75 13.1 -24.95 21.9 -28.6 26.05 -32.25 30.3 -35.05 30.85 -36.4 30.35 -36.4 28.55 -36.4 24.15 -34.3 19.05 -32.2 13.95 -28.85 9.45 -25.5 5 -21.45 1.85 -17.35 -1.3 -13.5 -1.9 -13.6 -2.75 -14.4 -3.95 -15.15 -5.15 -16.3 -6.3 -17.35 -7.45 -18.6 -8.3 -19.75 -9.2 -20.75 -9.45
M -46.6 -0.1
Q -45.9 -0.45 -45.9 -0.6 -46.85 -2.45 -48.55 -4.15 -50.25 -5.8 -52.7 -5.8 -55 -5.8 -57.85 -4.2 -60.6 -2.65 -63.3 -0.4 -66.1 1.85 -68.55 4.4 -71.05 7 -72.85 8.85 -73.7 9.75 -75.25 11.55 -76.8 13.3 -78.6 15.45 -80.35 17.6 -82.25 19.8 -84.1 21.95 -85.6 23.55 -85.35 21.35 -83.55 17.95 -81.85 14.55 -79.6 10.75 -77.35 7 -75.15 3.3 -72.95 -0.35 -71.95 -2.95 -72.95 -6.1 -75.15 -8.7 -77.35 -11.4 -79.9 -12.15 -80.65 -11.75 -83.65 -7 -86.7 -2.15 -90.35 6.3 -92 10.05 -93.3 13.8 -94.65 17.55 -95.55 20.95 -96.5 24.3 -97 27.15 -97.55 29.9 -97.55 31.75 -97.05 33.95 -96.1 36 -95.15 38.05 -93.1 39.25 -92 38.55 -90.4 36.5 -88.8 34.4 -86.7 31.45 -82.95 26.25 -79.35 22.05 -75.75 17.8 -71.25 13.5 -68.45 10.7 -66.1 9.35 -63.65 8 -63.45 8 -65.1 11.85 -66.15 14.55 -67.2 17.35 -67.8 19.3 -68.35 21.3 -68.55 22.7 -68.75 24.15 -68.75 25.3 -68.75 27.4 -68.35 29.3 -68 31.15 -66.95 32.5 -66 33.85 -64.2 34.7 -62.4 35.5 -59.6 35.5 -58.75 35.5 -57.65 35.1 -56.55 34.75 -55.4 34.1 -54.25 33.55 -53.2 32.9 -52.15 32.2 -51.35 31.55 -51.35 31.05 -51.6 30.4 -51.85 29.8 -52.25 29.6 -52.9 29.6 -54.1 30.1 -55.2 30.6 -56.3 30.6 -57.4 30.6 -58.05 29.9 -58.65 29.25 -58.65 26.85 -58.65 23.85 -57.6 20.2 -56.55 16.55 -54.95 13.05 -53.35 9.55 -51.7 6.5 -50.05 3.5 -48.7 1.8 -47.35 0.25 -46.6 -0.1
M -122.8 -7.05
Q -126.2 -4.55 -129.05 -1.1 -131.9 2.35 -134 6.25 -136.2 10.1 -137.3 14.25 -138.45 18.35 -138.45 22.2 -138.45 28.8 -135.2 33 -131.9 37.2 -126.45 37.8 -120.7 36.55 -115.85 33.5 -111 30.5 -107.5 26.05 -103.95 21.65 -102 16.2 -100.05 10.8 -100.05 4.8 -100.05 -4.25 -105.15 -4.25 -105.6 -4.25 -106 -4.2 -106.4 -4.2 -106.9 -4.2 -109.85 -9.4 -112.95 -10.95 -117.5 -10.95 -122.8 -7.05
M -108.55 14.75
Q -110 19.75 -112.7 23.65 -115.3 27.6 -118.95 30.25 -122.55 32.9 -126.85 33.85 -127.8 33.55 -128.6 31.45 -129.35 29.35 -129.35 27.05 -129.35 25.1 -128.75 22.7 -128.2 20.2 -127.15 17.55 -126.05 14.95 -124.65 12.3 -123.2 9.75 -121.55 7.55 -119.15 4.45 -115.85 1.7 -112.55 -1.1 -108.35 -2.35 -107.65 -1.3 -107.35 0.15 -107.05 1.6 -107.05 4.05 -107.05 9.75 -108.55 14.75
M -147.95 -5.65
Q -150.15 -4.6 -151.75 -2.35 -153.35 -0.15 -154.4 2.2 -155.55 4.55 -156.2 6.65 -156.9 8.75 -157.1 9.75 -158.05 14.05 -158.65 17.1 -159.3 20.2 -159.65 22.35 -160.05 24.5 -160.2 25.8 -160.35 27.1 -160.35 28 -160.35 30.1 -159.4 31.65 -158.4 33.2 -157.25 34.15 -156 35.2 -154.9 35.65 -153.7 36.15 -153.35 36.15 -152.85 36.15 -152.85 35.45 -152.75 34.7 -152.75 32.95 -152.65 30.85 -151.8 28.05 -150.95 25.15 -149.85 22.5 -148.6 19.35 -147.6 16.45 -146.6 13.6 -145.4 10.85 -144.2 8.2 -142.7 5.7 -141.25 3.2 -139.05 0.7 -140.95 -2.05 -143.65 -3.65 -146.3 -5.25 -147.95 -5.65
M -130.45 -26.7
Q -131.9 -27.9 -133.65 -28.95 -135.4 -29.9 -137.1 -30.55 -138.7 -31.2 -139.9 -31.2 -140.45 -29.65 -141.05 -27.75 -141.6 -25.9 -142 -24.15 -142.35 -22.45 -142.6 -20.95 -142.9 -19.45 -142.9 -18.6 -142.9 -17.8 -142.5 -16.9 -142.2 -15.9 -141.7 -15.45 -142 -14.25 -142 -13.7 -142 -12.95 -141.15 -12.1 -140.25 -11.3 -139.15 -11.1 -138.7 -11.85 -137.4 -13.7 -136.05 -15.5 -134.4 -17.6 -132.8 -19.65 -131.1 -21.5 -129.35 -23.4 -128.25 -24.45 -129.05 -25.5 -130.45 -26.7
M -175.5 -4.1
Q -172.6 -5.9 -170.65 -5.9 -168.45 -5.9 -168.45 -3.1 -168.45 1.7 -174.9 7.6 -174.15 8.7 -172.9 9.4 -171.75 10.1 -170.6 10.1 -169.25 10.1 -167.9 9.1 -166.55 8.1 -165.55 6.45 -164.55 4.8 -163.9 2.75 -163.3 0.7 -163.3 -1.5 -163.3 -6.1 -166 -8.65 -168.65 -11.1 -173.65 -11.1 -178.75 -11.1 -183.5 -8.7 -188.25 -6.2 -191.95 -2.2 -195.65 1.8 -197.9 6.9 -200.15 12.05 -200.15 17.55 -200.15 21.3 -198.95 24.7 -197.75 28.15 -195.7 30.85 -193.65 33.55 -190.85 35.25 -188.05 36.95 -184.9 37.2 -183.3 36.95 -181.15 35.8 -178.9 34.7 -176.65 33.15 -174.35 31.55 -172.2 29.6 -170.1 27.7 -168.45 25.7 -168.45 25.2 -168.75 24.6 -169.05 24.05 -169.45 23.75 -171.65 25.4 -174 26.8 -176.35 28.25 -178.55 29.4 -180.75 30.45 -182.65 31.15 -184.6 31.8 -186.05 32 -189.5 30.45 -189.5 22.7 -189.5 16.55 -187.35 10.9 -185.2 5.35 -181.05 0.7 -178.35 -2.25 -175.5 -4.1
M -224.7 -9.5
Q -225.75 -10.05 -227 -10.45 -228.15 -10.85 -229.3 -10.95 -230.5 -11.1 -231.35 -11.1 -234.4 -8.9 -237.15 -5 -239.85 -1.15 -242.05 3.3 -244.3 7.8 -245.95 12.4 -247.65 17 -248.55 20.65 -249 22.7 -249.15 24.4 -249.3 26.15 -249.3 28.8 -248.9 30.55 -247.8 31.9 -246.7 33.3 -245.2 34.25 -243.7 35.2 -242.05 35.75 -240.35 36.3 -238.85 36.3 -238.15 36.2 -237.05 35.45 -235.95 34.65 -234.7 33.3 -233.9 32.35 -232.35 30.3 -230.85 28.35 -229.3 26.25 -227.7 24.15 -226.3 22.6 -225 21.05 -224.65 21.05 -225.1 22.5 -225.1 24.5 -225.1 26.15 -224.5 28.45 -223.85 30.75 -222 32.3 -220.9 33.05 -219.55 33.75 -218.25 34.4 -217 34.9 -215.7 35.5 -214.65 35.75 -213.55 36.05 -212.9 36.05 -212.8 36.05 -212.75 35.95 -212.55 35.75 -212.55 35.65 -212.55 35.15 -212.85 34.5 -213.2 33.85 -213.55 32.8 -213.95 31.8 -214.3 30.3 -214.65 28.8 -214.65 26.8 -214.65 23.05 -213.4 19.1 -212.1 15.2 -210.3 11.2 -208.5 7.2 -206.35 3.1 -204.25 -1.05 -202.55 -5.25 -203.05 -5.8 -203.95 -6.4 -204.95 -6.9 -206.2 -7.3 -207.55 -7.75 -209 -8 -210.4 -8.35 -211.65 -8.35 -213.3 -6.8 -214.5 -5 -215.7 -3.25 -216.6 -1.5 -217.5 0.25 -218.1 1.8 -218.8 3.35 -219.15 4.55 -219.9 6.65 -221.1 8.75 -222.3 10.85 -223.65 12.85 -225 14.8 -226.3 16.55 -227.6 18.3 -228.55 19.65 -232.5 25 -234.7 27.6 -236.9 30.2 -238.3 30.75 -238.55 30.55 -238.8 30.2 -239.05 29.8 -239.05 29 -239.05 27.8 -238.6 25.7 -238.15 23.55 -237.5 21.3 -236.8 19.1 -236.1 17.1 -235.45 15.1 -235 14.05 -230.7 3.8 -227.15 -1.7 -223.65 -7.2 -222.8 -8.1 -223.55 -9 -224.7 -9.5
M -252 -28.45
Q -257.25 -17.65 -263.2 -1.4 -266.85 8.75 -268.85 16.4 -270.85 24.05 -270.85 28.25 -270.85 31.3 -270.3 33.8 -269.75 36.25 -268.85 36.8 -268.2 37.25 -267.35 38.2 -266.45 39.1 -266.25 39.6 -266 40.25 -265 40.75 -264.05 41.2 -262.7 41.45 -262.8 41 -262.8 40.65 -262.8 40.25 -262.8 38.6 -262.8 32.55 -260.7 23.5 -258.6 14.45 -254.55 3.1 -249.85 -10.05 -244.2 -20.25 -238.5 -30.45 -231 -39.25 -231.45 -39.8 -232.7 -40.8 -234 -41.7 -235.65 -42.65 -237.3 -43.55 -238.95 -44.35 -240.65 -45.1 -241.8 -45.3 -246.75 -39.25 -252 -28.45
M -288.3 -10.95
Q -292.85 -10.95 -298.15 -7.05 -301.55 -4.55 -304.4 -1.1 -307.25 2.35 -309.35 6.25 -311.55 10.1 -312.65 14.25 -313.8 18.35 -313.8 22.2 -313.8 28.8 -310.55 33 -307.25 37.2 -301.8 37.8 -296.05 36.55 -291.2 33.5 -286.35 30.5 -282.85 26.05 -279.3 21.65 -277.35 16.2 -275.4 10.8 -275.4 4.8 -275.4 -4.25 -280.5 -4.25 -280.95 -4.25 -281.35 -4.2 -281.75 -4.2 -282.25 -4.2 -285.2 -9.4 -288.3 -10.95
M -282.7 0.15
Q -282.4 1.6 -282.4 4.05 -282.4 9.75 -283.9 14.75 -285.35 19.75 -288.05 23.65 -290.65 27.6 -294.3 30.25 -297.9 32.9 -302.2 33.85 -303.15 33.55 -303.95 31.45 -304.7 29.35 -304.7 27.05 -304.7 25.1 -304.1 22.7 -303.55 20.2 -302.5 17.55 -301.4 14.95 -300 12.3 -298.55 9.75 -296.9 7.55 -294.5 4.45 -291.2 1.7 -287.9 -1.1 -283.7 -2.35 -283 -1.3 -282.7 0.15
M -339.5 -0.9
Q -339.35 -2.35 -339.1 -3.6 -338.85 -4.9 -338.5 -6.5 -339.25 -7.25 -340.95 -7.55 -342.6 -7.85 -343.95 -7.85 -346.15 -7.85 -347.5 -7.2 -348.85 -6.6 -349.6 -5.5 -350.35 -4.4 -350.65 -2.85 -350.85 -1.3 -350.85 0.4 -350.85 2.15 -350.75 5.35 -350.6 8.55 -350.6 11.7 -350.6 17.2 -351.1 20.75 -351.6 24.3 -352.3 26.65 -353 29 -353.5 30.5 -354 32 -354 33.15 -354 34.85 -352.6 36.45 -351.15 38.05 -348.65 39 -342.2 35.05 -337.55 30.85 -332.9 26.6 -328.3 21.3 -326 18.65 -323.2 15.1 -320.4 11.55 -317.9 7.55 -315.45 3.5 -313.65 -0.85 -311.85 -5.15 -311.7 -9.3 -311.95 -9.55 -312.7 -9.95 -313.4 -10.3 -314.3 -10.7 -315.25 -11 -316.15 -11.25 -317.05 -11.5 -317.65 -11.5 -319.45 -4.6 -322.25 1.5 -325.05 7.55 -327.35 11.55 -329.05 14.35 -331.1 17.2 -333.1 20.1 -335.1 22.65 -337.15 25.15 -338.95 27.2 -340.8 29.2 -342.2 30.3 -342.55 30.3 -342.55 29.9 -341 24.8 -340.55 19.7 -340.1 14.55 -339.9 8 -339.8 4.75 -339.7 2.65 -339.6 0.6 -339.5 -0.9
M -368.8 -10.85
Q -372 -10.85 -375.2 -9.45 -378.4 -7.95 -381.45 -5.5 -384.45 -2.95 -387.1 0.35 -389.75 3.75 -391.75 7.55 -393.7 11.35 -394.8 15.4 -395.9 19.5 -395.9 23.45 -395.9 29.2 -392.2 33.3 -388.5 37.35 -381.9 38.1 -377.3 37.05 -372.15 33.3 -367 29.5 -362.65 23.7 -363.35 22.95 -364.3 22.05 -365.85 23.7 -367.85 25.7 -369.8 27.65 -372.05 29.35 -374.3 31.05 -376.8 32.15 -379.3 33.3 -381.9 33.3 -383.2 33.3 -384.1 32.6 -384.95 31.85 -385.45 30.75 -385.9 29.55 -386.1 28.2 -386.3 26.9 -386.3 25.65 -386.3 25 -386.25 24.3 -386.2 23.7 -386.2 23.15 -380.05 20.75 -375.45 18.15 -370.85 15.55 -367.65 12.3 -364.4 9.15 -362.65 4.85 -360.95 0.55 -360.55 -5.4 -364.4 -10.25 -368.8 -10.85
M -372.55 -0.1
Q -369.8 -1.85 -367.15 -2.2 -367.6 4.4 -372.65 10.05 -377.75 15.65 -385.45 19.5 -384.3 15.1 -382.25 11.25 -380.25 7.4 -377.8 4.5 -375.35 1.65 -372.55 -0.1
M 406.95 41.8
Q 408.4 41.8 409.4 40.85 410.5 39.9 411.35 38.5 412.2 37.1 413.05 35.55 413.9 33.95 415.1 32.65 413.7 30.35 411 28.5 408.25 26.6 405.55 26.6 404.55 26.6 403.65 27.85 402.8 29 402.2 30.7 401.65 32.4 401.35 34.2 401.05 36.05 401.05 37.2 401.05 37.7 401.55 38.5 402 39.3 402.85 40.05 403.65 40.75 404.7 41.3 405.75 41.8 406.95 41.8
M 434.6 -41.55
Q 432.65 -40.2 430.05 -36.15 427.45 -32.05 424.65 -26.5 421.8 -20.9 419 -14.55 416.2 -8.15 414 -2.15 411.8 3.85 410.45 8.8 409.05 13.75 409.05 16.35 409.05 18.45 409.5 19.8 409.95 21.15 410.75 21.9 411.5 22.7 412.65 23.1 413.7 23.55 414.9 23.8 416.45 15.2 419.5 6.9 422.6 -1.4 426.65 -8.7 430.75 -16.05 435.5 -22.05 440.35 -28.05 445.2 -32.05 445.05 -33.2 443.85 -34.75 442.75 -36.3 441.2 -37.65 439.65 -39.05 437.85 -40.2 436.1 -41.25 434.6 -41.55
M 404.5 -3.8
Q 404.25 -4.95 402.9 -6.75 401.55 -8.5 399.85 -10.2 398.1 -11.95 396.3 -13.35 394.55 -14.75 393.5 -15.05 391 -14.45 388.7 -12.95 386.4 -11.4 384.65 -9.2 382.9 -7.05 381.9 -4.5 380.8 -1.95 380.8 0.7 380.8 2.7 381.3 4.8 381.8 6.85 382.3 9.05 382.8 11.2 383.35 13.5 383.8 15.85 383.8 18.25 379.6 18.25 376 19.8 372.35 21.4 369.75 24 367.1 26.55 365.55 29.9 364 33.25 364 36.9 364.4 38.25 365.4 39.55 366.3 40.8 367.65 41.9 368.9 42.95 370.35 43.65 371.8 44.3 373.15 44.4 380.9 43.65 385.3 38.7 389.65 33.85 389.65 25.8 389.65 24.65 389.6 23.9 389.55 23.15 389.55 22.4 389.55 21.8 389.7 21.45 389.85 21.15 390.5 20.85 391.2 20.55 392.5 20.25 393.8 19.9 396 19.4 396.35 19.05 396.35 18.2 396.35 17.6 396.25 17.45 394.75 17.45 393.2 17.45 391.6 17.45 389.55 17.45 389.5 17.2 389.5 16.25 389.5 7 391.5 2.2 393.5 -2.55 397.35 -2.55 398.4 -2.55 399 -1.65 399.65 -0.75 399.65 0.6 399.65 1.15 399.4 1.95 399.2 2.7 398.85 3.5 398.55 4.25 398.35 4.85 398.1 5.55 398.1 5.8 398.3 7.1 399.35 7.25 400.1 7.25 400.95 6.2 401.85 5.1 402.6 3.55 403.4 1.95 403.9 0 404.45 -1.95 404.5 -3.8
M 383.3 28.15
Q 382.35 30.75 380.8 33.05 379.3 35.4 377.25 37.2 375.2 39 372.85 40 370.9 38.6 370.9 36.5 370.9 34.85 372.25 32.65 373.65 30.45 375.65 28.4 377.65 26.35 379.95 24.85 382.25 23.4 384.2 23.05 384.2 25.6 383.3 28.15
M 344.05 -7.05
Q 340.65 -4.55 337.8 -1.1 334.95 2.35 332.85 6.25 330.65 10.1 329.55 14.25 328.4 18.35 328.4 22.2 328.4 28.8 331.65 33 334.95 37.2 340.4 37.8 346.15 36.55 351 33.5 355.85 30.5 359.35 26.05 362.9 21.65 364.85 16.2 366.8 10.8 366.8 4.8 366.8 -4.25 361.7 -4.25 361.25 -4.25 360.85 -4.2 360.45 -4.2 359.95 -4.2 357 -9.4 353.9 -10.95 349.35 -10.95 344.05 -7.05
M 345.3 7.55
Q 347.7 4.45 351 1.7 354.3 -1.1 358.5 -2.35 359.2 -1.3 359.5 0.15 359.8 1.6 359.8 4.05 359.8 9.75 358.3 14.75 356.85 19.75 354.15 23.65 351.55 27.6 347.9 30.25 344.3 32.9 340 33.85 339.05 33.55 338.25 31.45 337.5 29.35 337.5 27.05 337.5 25.1 338.1 22.7 338.65 20.2 339.7 17.55 340.8 14.95 342.2 12.3 343.65 9.75 345.3 7.55
M 300.05 -4.85
Q 300.45 -2.95 300.9 -2.4
L 306.4 -2.4
Q 304.55 2 303.05 6.55 301.5 11.05 300.35 15.2 299.2 19.35 298.55 22.8 297.95 26.35 297.95 28.7 297.95 30.4 299.2 32.15 300.45 33.95 302.4 35.4 304.35 36.85 306.75 37.8 309.2 38.75 311.6 38.75 312.35 38.65 313.9 37.9 315.45 37.1 317.1 36.05 318.65 34.95 320.1 33.8 321.5 32.65 322.05 31.8 321.95 31.2 321.4 30.35 319.35 32 316.75 33.05 314.15 34.1 311.3 34.5 308.1 34.05 308.1 29.75 308.1 26.8 308.85 23 309.6 19.25 310.85 15.05 312.15 10.8 314.05 6.25 315.9 1.7 318.3 -2.95 325.05 -2.95 329.75 -4.75 329.75 -5.55 329.45 -6.3 329.15 -7 328.65 -7.5 326.65 -7.2 324.65 -7.2 322.7 -7.2 320.8 -7.2 323.2 -11.1 325.3 -14.2 327.35 -17.25 330.2 -20.8 329.75 -21.45 328.45 -22.05 327.25 -22.65 325.7 -23.2 324.15 -23.75 322.65 -24.1 321.2 -24.45 320.2 -24.45 319.45 -24 318.05 -22.4 316.65 -20.75 315.1 -18.45 313.5 -16.15 311.85 -13.3 310.15 -10.55 308.7 -7.7 306.75 -7.7 304.45 -7.7 302.15 -7.7 299.7 -8.05 299.7 -6.7 300.05 -4.85
M 258.95 -12.15
Q 258.2 -11.75 255.2 -7 252.15 -2.15 248.5 6.3 246.85 10.05 245.55 13.8 244.2 17.55 243.3 20.95 242.35 24.3 241.85 27.15 241.3 29.9 241.3 31.75 241.8 33.95 242.75 36 243.7 38.05 245.75 39.25 246.85 38.55 248.45 36.5 250.05 34.4 252.15 31.45 255.9 26.25 259.5 22.05 263.1 17.8 267.6 13.5 270.4 10.7 272.75 9.35 275.2 8 275.4 8 273.75 11.85 272.7 14.55 271.65 17.35 271.05 19.3 270.5 21.3 270.3 22.7 270.1 24.15 270.1 25.3 270.1 27.4 270.5 29.3 270.85 31.15 271.9 32.5 272.85 33.85 274.65 34.7 276.45 35.5 279.25 35.5 280.1 35.5 281.2 35.1 282.3 34.75 283.45 34.1 284.6 33.55 285.65 32.9 286.7 32.2 287.5 31.55 287.5 31.05 287.25 30.4 287 29.8 286.6 29.6 285.95 29.6 284.75 30.1 283.65 30.6 282.55 30.6 281.45 30.6 280.8 29.9 280.2 29.25 280.2 26.85 280.2 23.85 281.25 20.2 282.3 16.55 283.9 13.05 285.5 9.55 287.15 6.5 288.8 3.5 290.15 1.8 291.5 0.25 292.25 -0.1 292.95 -0.45 292.95 -0.6 292 -2.45 290.3 -4.15 288.6 -5.8 286.15 -5.8 283.85 -5.8 281 -4.2 278.25 -2.65 275.55 -0.4 272.75 1.85 270.3 4.4 267.8 7 266 8.85 265.15 9.75 263.6 11.55 262.05 13.3 260.25 15.45 258.5 17.6 256.6 19.8 254.75 21.95 253.25 23.55 253.5 21.35 255.3 17.95 257 14.55 259.25 10.75 261.5 7 263.7 3.3 265.9 -0.35 266.9 -2.95 265.9 -6.1 263.7 -8.7 261.5 -11.4 258.95 -12.15
M 212.8 -11.1
Q 209.75 -8.9 207 -5 204.3 -1.15 202.1 3.3 199.85 7.8 198.2 12.4 196.5 17 195.6 20.65 195.15 22.7 195 24.4 194.85 26.15 194.85 28.8 195.25 30.55 196.35 31.9 197.45 33.3 198.95 34.25 200.45 35.2 202.1 35.75 203.8 36.3 205.3 36.3 206 36.2 207.1 35.45 208.2 34.65 209.45 33.3 210.25 32.35 211.8 30.3 213.3 28.35 214.85 26.25 216.45 24.15 217.85 22.6 219.15 21.05 219.5 21.05 219.05 22.5 219.05 24.5 219.05 26.15 219.65 28.45 220.3 30.75 222.15 32.3 223.25 33.05 224.6 33.75 225.9 34.4 227.15 34.9 228.45 35.5 229.5 35.75 230.6 36.05 231.25 36.05 231.35 36.05 231.4 35.95 231.6 35.75 231.6 35.65 231.6 35.15 231.3 34.5 230.95 33.85 230.6 32.8 230.2 31.8 229.85 30.3 229.5 28.8 229.5 26.8 229.5 23.05 230.75 19.1 232.05 15.2 233.85 11.2 235.65 7.2 237.8 3.1 239.9 -1.05 241.6 -5.25 241.1 -5.8 240.2 -6.4 239.2 -6.9 237.95 -7.3 236.6 -7.75 235.15 -8 233.75 -8.35 232.5 -8.35 230.85 -6.8 229.65 -5 228.45 -3.25 227.55 -1.5 226.65 0.25 226.05 1.8 225.35 3.35 225 4.55 224.25 6.65 223.05 8.75 221.85 10.85 220.5 12.85 219.15 14.8 217.85 16.55 216.55 18.3 215.6 19.65 211.65 25 209.45 27.6 207.25 30.2 205.85 30.75 205.6 30.55 205.35 30.2 205.1 29.8 205.1 29 205.1 27.8 205.55 25.7 206 23.55 206.65 21.3 207.35 19.1 208.05 17.1 208.7 15.1 209.15 14.05 213.45 3.8 217 -1.7 220.5 -7.2 221.35 -8.1 220.6 -9 219.45 -9.5 218.4 -10.05 217.15 -10.45 216 -10.85 214.85 -10.95 213.65 -11.1 212.8 -11.1
M 189.6 -10.9
Q 185.85 -10.9 182.45 -4.3 179 2.25 175.5 16.45 171.55 31.8 168.75 41.3 165.95 50.75 163.6 55.95 161.2 61.2 158.8 63.05 156.45 64.85 153.4 64.85 150.9 64.85 149.15 64.1 147.35 63.3 145.7 61.6 145.25 61.7 144.7 62.35 144.2 62.95 144.1 63.6 144.95 64.8 146.4 65.8 147.85 66.9 149.65 67.6 151.5 68.35 153.55 68.75 155.6 69.2 157.7 69.2 160.6 69.2 163 68 165.5 66.9 167.7 64.4 169.9 61.85 171.95 57.95 174.05 54 176.15 48.35 177 45.95 178.5 41.4 180 36.85 181.75 31.15 183.55 25.5 185.4 19.3 187.2 13.1 188.8 7.35 189.6 4.35 191.3 0.8 192.95 -2.8 196 -8.3 192.25 -10.9 189.6 -10.9
M 199.5 -33.5
Q 197.75 -34.55 196.05 -35.2 194.4 -35.85 193.25 -35.85 192.65 -34.5 192.15 -32.7 191.6 -30.85 191.2 -29 190.7 -27.25 190.5 -25.7 190.25 -24.15 190.25 -23.25 190.25 -21.15 191.45 -19.95 191.15 -18.85 191.15 -18.4 191.15 -17.55 192 -16.75 192.85 -15.9 194 -15.7 194.3 -16.45 195.65 -18.25 196.95 -19.95 198.6 -22 200.25 -24.05 201.95 -25.95 203.7 -27.8 204.85 -28.9 204.1 -29.95 202.65 -31.2 201.2 -32.45 199.5 -33.5
M 150.4 -3.8
Q 150.15 -4.95 148.8 -6.75 147.45 -8.5 145.75 -10.2 144 -11.95 142.2 -13.35 140.45 -14.75 139.4 -15.05 136.9 -14.45 134.6 -12.95 132.3 -11.4 130.55 -9.2 128.8 -7.05 127.8 -4.5 126.7 -1.95 126.7 0.7 126.7 2.7 127.2 4.8 127.7 6.85 128.2 9.05 128.7 11.2 129.25 13.5 129.7 15.85 129.7 18.25 125.5 18.25 121.9 19.8 118.25 21.4 115.65 24 113 26.55 111.45 29.9 109.9 33.25 109.9 36.9 110.3 38.25 111.3 39.55 112.2 40.8 113.55 41.9 114.8 42.95 116.25 43.65 117.7 44.3 119.05 44.4 126.8 43.65 131.2 38.7 135.55 33.85 135.55 25.8 135.55 24.65 135.5 23.9 135.45 23.15 135.45 22.4 135.45 21.8 135.6 21.45 135.75 21.15 136.4 20.85 137.1 20.55 138.4 20.25 139.7 19.9 141.9 19.4 142.25 19.05 142.25 18.2 142.25 17.6 142.15 17.45 140.65 17.45 139.1 17.45 137.5 17.45 135.45 17.45 135.4 17.2 135.4 16.25 135.4 7 137.4 2.2 139.4 -2.55 143.25 -2.55 144.3 -2.55 144.9 -1.65 145.55 -0.75 145.55 0.6 145.55 1.15 145.3 1.95 145.1 2.7 144.75 3.5 144.45 4.25 144.25 4.85 144 5.55 144 5.8 144.2 7.1 145.25 7.25 146 7.25 146.85 6.2 147.75 5.1 148.5 3.55 149.3 1.95 149.8 0 150.35 -1.95 150.4 -3.8
M 121.55 28.4
Q 123.55 26.35 125.85 24.85 128.15 23.4 130.1 23.05 130.1 25.6 129.2 28.15 128.25 30.75 126.7 33.05 125.2 35.4 123.15 37.2 121.1 39 118.75 40 116.8 38.6 116.8 36.5 116.8 34.85 118.15 32.65 119.55 30.45 121.55 28.4
M 107.6 -4.25
Q 107.15 -4.25 106.75 -4.2 106.35 -4.2 105.85 -4.2 102.9 -9.4 99.8 -10.95 95.25 -10.95 89.95 -7.05 86.55 -4.55 83.7 -1.1 80.85 2.35 78.75 6.25 76.55 10.1 75.45 14.25 74.3 18.35 74.3 22.2 74.3 28.8 77.55 33 80.85 37.2 86.3 37.8 92.05 36.55 96.9 33.5 101.75 30.5 105.25 26.05 108.8 21.65 110.75 16.2 112.7 10.8 112.7 4.8 112.7 -4.25 107.6 -4.25
M 105.4 0.15
Q 105.7 1.6 105.7 4.05 105.7 9.75 104.2 14.75 102.75 19.75 100.05 23.65 97.45 27.6 93.8 30.25 90.2 32.9 85.9 33.85 84.95 33.55 84.15 31.45 83.4 29.35 83.4 27.05 83.4 25.1 84 22.7 84.55 20.2 85.6 17.55 86.7 14.95 88.1 12.3 89.55 9.75 91.2 7.55 93.6 4.45 96.9 1.7 100.2 -1.1 104.4 -2.35 105.1 -1.3 105.4 0.15
M 39.85 -6.15
Q 36.75 -6.15 32.9 -3.05 29.05 0 25.15 4.4 21.3 8.85 17.6 13.8 13.9 18.85 11.25 22.65 11.8 18.75 13.6 14.9 15.45 11.1 17.65 7.45 19.85 3.85 21.85 0.5 23.9 -2.75 24.85 -5.7 22.45 -8.2 20.3 -9.45 18.1 -10.75 15.45 -11.3 12.15 -5.6 8.65 1.35 5.15 8.25 2.95 15.3 1.8 18.95 1.15 22.35 0.55 25.8 0.45 28.1 0.9 30.75 1.9 32.85 2.85 34.95 5.35 36.8 6.4 36.1 8.75 32.35 11.1 28.6 14.65 23.6 17.35 19.85 20.4 16 23.5 12.05 26.35 8.95 29.3 5.8 31.75 3.85 34.25 1.85 35.7 1.85 32.7 6.1 30.65 9.9 28.6 13.7 27.15 17.1 25.8 20.55 24.9 23.75 24.1 27 23.6 29.95 24.25 32.45 25.8 34.1 27.35 35.8 29.45 36.7 30.95 34.85 33.15 31.8 35.4 28.7 37.95 25.15 40.5 21.7 43.25 18.15 45.95 14.55 48.5 11.6 51.05 8.7 53.3 6.85 55.5 4.95 57 4.95 56.05 6.95 54.7 9.5 53.35 12.05 52.15 14.95 50.95 17.9 50.1 21.1 49.25 24.3 49.25 27.55 49.25 29.55 49.6 31.3 50 33.05 50.95 34.4 51.9 35.7 53.4 36.5 54.85 37.25 57.2 37.25 59.7 37.25 61.7 36.25 63.75 35.25 65.65 33.7 65.65 33.25 65.55 32.65 65.45 32.05 64.85 31.7 64.4 31.7 63.4 32.1 62.35 32.55 61.25 32.55 60.15 32.55 59.6 31.9 59 31.3 59 29.3 59 25.8 60.6 21.5 62.2 17.2 64.2 12.75 66.2 8.3 68.2 4.25 70.15 0.3 71 -2.65 70.35 -4.55 68.65 -5.6 66.95 -6.6 65.05 -6.6 62.3 -6.6 59.15 -4.6 56.05 -2.6 52.4 1.15 48.75 4.9 44.6 10.1 40.5 15.35 35.8 21.8 36.1 19.8 37.8 16.4 39.55 13 41.55 9.35 43.6 5.7 45.35 2.4 47.1 -0.9 47.6 -2.8 47.5 -3.1 46.7 -3.65 45.95 -4.2 44.8 -4.8 43.65 -5.35 42.3 -5.75 40.95 -6.15 39.85 -6.15 Z"/>
</g>
</defs>

<g transform="matrix( 1, 0, 0, 1, 405.85,55.05) ">
<use xlink:href="#Layer0_0_FILL"/>
</g>
</svg>
