<svg xmlns="http://www.w3.org/2000/svg" xmlns:xlink="http://www.w3.org/1999/xlink" viewBox="0 0 604.82 64.44"><defs><symbol id="Nuevo_símbolo_11" data-name="Nuevo símbolo 11" viewBox="0 0 604.82 64.44"><path d="M26.39,26.26a4.6,4.6,0,0,1,3.35,1.17,4.32,4.32,0,0,1,1.2,3.25,5.69,5.69,0,0,1-.1,1.07,5.76,5.76,0,0,1-.23,1c-.56-.09-1.19-.17-1.88-.23s-1.52-.1-2.47-.1a33.22,33.22,0,0,0-5.66.49c-1.9.32-3.72.6-5.45.81-1,2.3-1.91,4.53-2.73,6.67s-1.53,4.12-2.12,5.9-1,3.32-1.36,4.62a18.83,18.83,0,0,0-.56,2.93q5.28-1.2,10.63-2a72.93,72.93,0,0,1,11.28-.85,11.73,11.73,0,0,1,1.2,2.34A7.42,7.42,0,0,1,32,56v.82a3.09,3.09,0,0,1-.13.89H18.69a36.09,36.09,0,0,0-3.87.2c-1.3.14-2.68.33-4.13.56s-3.09.5-4.9.83q-3-1.17-5.79-5.72,1.11-2.34,3.09-7.13t5-12.79a5.56,5.56,0,0,1-3.84-3.25,5.7,5.7,0,0,1,1.88-.82c1-.32,2.32-.66,3.84-1,.65-1.69,1.2-3.17,1.66-4.42s.85-2.44,1.2-3.55.66-2.19.94-3.25.55-2.22.82-3.47a5.21,5.21,0,0,1-3.58-1.16,3.81,3.81,0,0,1-1.3-3,5.69,5.69,0,0,1,.16-1.25,9.88,9.88,0,0,1,.36-1.26c.87.07,1.7.1,2.5.1H23.6A57.37,57.37,0,0,0,30.06,7c1.93-.22,3.59-.42,5-.62A25.34,25.34,0,0,1,38.22,6a3.33,3.33,0,0,1,2.66,1.57A10.94,10.94,0,0,1,42.64,12a25.76,25.76,0,0,0-3.28-.27H37.11a54.43,54.43,0,0,0-6.53.35c-2,.24-3.87.49-5.68.75A14.12,14.12,0,0,0,24,14.35c-.33.61-.75,1.45-1.27,2.53S21.59,19.32,20.83,21s-1.68,3.69-2.76,6.15c1.65-.26,3.2-.47,4.65-.62S25.39,26.26,26.39,26.26Z" style="fill:#374d6b"/><path d="M40.89,30.94a14.09,14.09,0,0,1,.16-2.21,4.24,4.24,0,0,1,.68-1.79,3.54,3.54,0,0,1,1.43-1.17,5.82,5.82,0,0,1,2.41-.42,13.34,13.34,0,0,1,2,.19,3.09,3.09,0,0,1,1.66.72q-.26,1.11-.42,1.95a17.93,17.93,0,0,0-.26,1.85c-.07.67-.12,1.48-.16,2.41s-.09,2.13-.13,3.61c-.09,2.94-.23,5.58-.43,7.89a33.42,33.42,0,0,1-1.33,6.92c0,.18.07.27.2.27A16,16,0,0,0,49,49.08c.82-.91,1.69-1.94,2.6-3.09s1.82-2.37,2.73-3.67,1.75-2.58,2.53-3.84c1-1.82,2.19-4.1,3.45-6.82a55.07,55.07,0,0,0,3.12-8.78,4.5,4.5,0,0,1,1,.16c.41.11.83.24,1.24.39a8.8,8.8,0,0,1,1.1.49,2.88,2.88,0,0,1,.69.46,17.32,17.32,0,0,1-1.34,5.72,38.59,38.59,0,0,1-2.89,5.65,58.12,58.12,0,0,1-3.57,5.13Q57.72,43.3,56.16,45a71.11,71.11,0,0,1-6.27,6.5,50.08,50.08,0,0,1-7.51,5.53,6.82,6.82,0,0,1-2.66-1.72,3.34,3.34,0,0,1-1-2.24,5.36,5.36,0,0,1,.36-1.79c.24-.67.51-1.54.81-2.6a33.18,33.18,0,0,0,.81-4,42.53,42.53,0,0,0,.36-6.11c0-1.43,0-2.87-.1-4.32S40.89,31.72,40.89,30.94Z" style="fill:#374d6b"/><path d="M74.1,56.22A8.23,8.23,0,0,1,68.19,53,11.49,11.49,0,0,1,66,45.7a20,20,0,0,1,.78-5.4A25.81,25.81,0,0,1,69,34.87a30.46,30.46,0,0,1,3.38-5,24.6,24.6,0,0,1,4.22-4,11.41,11.41,0,0,1,6.7-2.66,11.5,11.5,0,0,1,4.09,4.61,5.28,5.28,0,0,0,.59,0,5,5,0,0,1,.58,0c2.3,0,3.45,2,3.45,6.11a22.48,22.48,0,0,1-1.34,7.76,23.56,23.56,0,0,1-3.7,6.66,21.83,21.83,0,0,1-5.66,5A22.24,22.24,0,0,1,74.1,56.22Zm3.32-20.47A29.66,29.66,0,0,0,75.34,39a30,30,0,0,0-1.69,3.54A23.69,23.69,0,0,0,72.54,46a13,13,0,0,0-.39,3,8.63,8.63,0,0,0,.52,3q.52,1.43,1.17,1.62a14.11,14.11,0,0,0,5.36-2.44,17.45,17.45,0,0,0,4.23-4.45,22.16,22.16,0,0,0,2.79-6,25.25,25.25,0,0,0,1-7.22A14.17,14.17,0,0,0,87,30.75a5.06,5.06,0,0,0-.65-1.7,14.13,14.13,0,0,0-5.11,2.74A26.11,26.11,0,0,0,77.42,35.75Z" style="fill:#374d6b"/><path d="M95,49.79a33.46,33.46,0,0,1,1.37-8q1.36-5.16,3.83-12,4-11,7.57-18.3A57.19,57.19,0,0,1,114.73,0a8,8,0,0,1,1.91.65q1.14.52,2.25,1.14a19.94,19.94,0,0,1,2,1.26,5,5,0,0,1,1.13,1A80.66,80.66,0,0,0,113.1,17a105.27,105.27,0,0,0-7,15.8,128.27,128.27,0,0,0-4.16,13.81,47,47,0,0,0-1.43,10.24v1.37a1.91,1.91,0,0,0,.07.52A5,5,0,0,1,99,58.24a1.68,1.68,0,0,1-.85-.78,3.56,3.56,0,0,0-.71-.94,8,8,0,0,0-1-.94,3.44,3.44,0,0,1-1-2A16.4,16.4,0,0,1,95,49.79Z" style="fill:#374d6b"/><path d="M128.11,52.52a5,5,0,0,1-1.65-2.6,10.17,10.17,0,0,1-.43-2.66,7.33,7.33,0,0,1,.33-2.34c-.17,0-.56.34-1.17,1s-1.27,1.51-2,2.47l-2.12,2.78q-1,1.36-1.56,2a9.81,9.81,0,0,1-1.59,1.42,3.23,3.23,0,0,1-1.2.59,7.25,7.25,0,0,1-2.18-.36,8.58,8.58,0,0,1-2.14-1,7.34,7.34,0,0,1-1.76-1.57,5,5,0,0,1-1-2.09c0-1.21,0-2.21.1-3a18.75,18.75,0,0,1,.42-2.53,49.61,49.61,0,0,1,1.73-5.59,58.89,58.89,0,0,1,2.63-6.15,42.48,42.48,0,0,1,3.35-5.65,17,17,0,0,1,3.93-4.13,10.24,10.24,0,0,1,1.36.1,8.13,8.13,0,0,1,1.6.36,11.74,11.74,0,0,1,1.56.61,4,4,0,0,1,1.26.95,51.05,51.05,0,0,0-3,4.35,72.23,72.23,0,0,0-5.3,10.66,21.18,21.18,0,0,0-.78,2.08c-.3.91-.61,1.86-.91,2.86s-.55,2-.75,2.93a12.35,12.35,0,0,0-.29,2.27,1.47,1.47,0,0,0,.16.78,3.28,3.28,0,0,0,.29.39,7.39,7.39,0,0,0,2.47-2.15q1.5-1.74,4.16-5.39c.44-.61,1-1.3,1.53-2.08s1.18-1.61,1.79-2.5,1.18-1.81,1.72-2.76a18.75,18.75,0,0,0,1.33-2.86c.18-.53.4-1.14.69-1.86a20.84,20.84,0,0,1,1-2.24,23.32,23.32,0,0,1,1.43-2.37A13.42,13.42,0,0,1,135.13,25a9.23,9.23,0,0,1,1.82.19,14.87,14.87,0,0,1,1.86.49,8.67,8.67,0,0,1,1.52.65,3.39,3.39,0,0,1,1,.75c-.78,1.9-1.65,3.79-2.6,5.65s-1.84,3.7-2.67,5.49A49,49,0,0,0,134,43.62a17.22,17.22,0,0,0-.84,5.2,10.4,10.4,0,0,0,.23,2.37,13.35,13.35,0,0,0,.48,1.69c.18.45.34.83.49,1.14a1.82,1.82,0,0,1,.23.77c0,.05,0,.11-.13.2a.19.19,0,0,1-.13.06,4.65,4.65,0,0,1-1.17-.19,15.23,15.23,0,0,1-1.59-.55c-.59-.24-1.17-.51-1.76-.81A19.08,19.08,0,0,1,128.11,52.52Z" style="fill:#374d6b"/><path d="M142.61,42.51a17.65,17.65,0,0,1,1.53-7.18,21.84,21.84,0,0,1,4-6.18,20.51,20.51,0,0,1,5.72-4.35,14.28,14.28,0,0,1,6.66-1.66,7.35,7.35,0,0,1,5.2,1.69,6.26,6.26,0,0,1,1.82,4.81,10,10,0,0,1-.42,2.89A10.84,10.84,0,0,1,166,35a6.26,6.26,0,0,1-1.59,1.78,3,3,0,0,1-1.82.69A3.13,3.13,0,0,1,161,37a4.18,4.18,0,0,1-1.34-1.27c2.91-2.64,4.36-5.05,4.36-7.21q0-1.89-1.5-1.89a6.55,6.55,0,0,0-3.25,1.23,18.88,18.88,0,0,0-3.77,3.25,22.23,22.23,0,0,0-4.25,6.93,21.87,21.87,0,0,0-1.47,8q0,5.26,2.34,6.31a12.42,12.42,0,0,0,2.28-.59,22.53,22.53,0,0,0,2.79-1.2c1-.5,2-1.08,3.09-1.72s2.09-1.35,3.09-2.08a1.92,1.92,0,0,1,.65,1.3,24.17,24.17,0,0,1-2.54,2.66,26.8,26.8,0,0,1-3,2.37,26.32,26.32,0,0,1-3,1.82,9,9,0,0,1-2.57.94,9.21,9.21,0,0,1-4-1.33,11.65,11.65,0,0,1-3.28-3,14.5,14.5,0,0,1-2.21-4.16A14.72,14.72,0,0,1,142.61,42.51Z" style="fill:#374d6b"/><path d="M169.58,49.6c0-.39,0-.88.1-1.47s.19-1.36.36-2.34.4-2.15.68-3.54.64-3,1.07-5c.09-.44.29-1.13.59-2.08a24.33,24.33,0,0,1,1.2-3,20.32,20.32,0,0,1,1.82-3.09,6.71,6.71,0,0,1,2.57-2.2,11,11,0,0,1,2.92,1.33A9.72,9.72,0,0,1,184,31.13a23,23,0,0,0-2.5,3.39A32.31,32.31,0,0,0,179.69,38c-.54,1.21-1,2.47-1.49,3.76s-1,2.67-1.53,4.1c-.48,1.21-.91,2.46-1.3,3.74a13.71,13.71,0,0,0-.65,3.34c0,.79,0,1.34,0,1.66s-.14.49-.36.49a3.56,3.56,0,0,1-1-.33,6.12,6.12,0,0,1-1.59-1,7.36,7.36,0,0,1-1.47-1.72A4.62,4.62,0,0,1,169.58,49.6ZM182,21.38a5.43,5.43,0,0,1,.19-1.17,2.58,2.58,0,0,1-.55-1,3.61,3.61,0,0,1-.23-1.17,10.52,10.52,0,0,1,.17-1.59c.1-.67.25-1.4.42-2.18s.39-1.59.65-2.44.52-1.61.78-2.31a5.81,5.81,0,0,1,1.92.43,15.44,15.44,0,0,1,2.3,1.1,16.39,16.39,0,0,1,2.15,1.5,8.4,8.4,0,0,1,1.49,1.53c-.47.47-1.1,1.13-1.88,2s-1.54,1.73-2.28,2.66-1.4,1.81-2,2.63A14,14,0,0,0,184,23.14a2.58,2.58,0,0,1-1.37-.68A1.54,1.54,0,0,1,182,21.38Z" style="fill:#374d6b"/><path d="M192.53,56.22A8.27,8.27,0,0,1,186.61,53a11.55,11.55,0,0,1-2.21-7.27,20,20,0,0,1,.78-5.4,26.36,26.36,0,0,1,2.21-5.43,31.11,31.11,0,0,1,3.38-5,24.65,24.65,0,0,1,4.23-4,11.38,11.38,0,0,1,6.69-2.66c1.39.73,2.75,2.27,4.1,4.61a5.09,5.09,0,0,0,.58,0,5.28,5.28,0,0,1,.59,0c2.29,0,3.44,2,3.44,6.11a22.48,22.48,0,0,1-1.33,7.76,23.56,23.56,0,0,1-3.7,6.66,22,22,0,0,1-5.66,5A22.24,22.24,0,0,1,192.53,56.22Zm3.31-20.47A31.23,31.23,0,0,0,193.76,39a31.68,31.68,0,0,0-1.69,3.54A24.88,24.88,0,0,0,191,46a13,13,0,0,0-.39,3,8.63,8.63,0,0,0,.52,3q.51,1.43,1.17,1.62a14.11,14.11,0,0,0,5.36-2.44,17.63,17.63,0,0,0,4.23-4.45,22.16,22.16,0,0,0,2.79-6,25.25,25.25,0,0,0,1-7.22,14,14,0,0,0-.2-2.66,4.86,4.86,0,0,0-.65-1.7,14.17,14.17,0,0,0-5.1,2.74A26.67,26.67,0,0,0,195.84,35.75Z" style="fill:#374d6b"/><path d="M224.05,22.43a6.84,6.84,0,0,1,3.19,2.3,12.2,12.2,0,0,1,2.21,3.94,33.37,33.37,0,0,1-2.21,4.22q-1.5,2.47-3,5c-1,1.71-1.9,3.34-2.7,4.87a12.26,12.26,0,0,0-1.4,3.81c.7-.74,1.47-1.6,2.31-2.57s1.67-1.95,2.47-2.93,1.55-1.86,2.24-2.66,1.24-1.4,1.63-1.79c.82-.87,1.8-1.87,2.92-3a45.41,45.41,0,0,1,3.55-3.25,26,26,0,0,1,3.73-2.6,7.07,7.07,0,0,1,3.45-1.08,3.89,3.89,0,0,1,2.83,1.14,10.07,10.07,0,0,1,1.78,2.37q0,.13-.48.36a5.22,5.22,0,0,0-1.4,1.27,25.23,25.23,0,0,0-2.05,3.22c-.76,1.36-1.49,2.84-2.21,4.42a37,37,0,0,0-1.79,4.84,16.52,16.52,0,0,0-.71,4.49,3.33,3.33,0,0,0,.42,2.07,1.53,1.53,0,0,0,1.2.46,4,4,0,0,0,1.5-.32,3.42,3.42,0,0,1,1.23-.33,1,1,0,0,1,.43.55,2.35,2.35,0,0,1,.16.75,10.24,10.24,0,0,1-1.24.91,16.49,16.49,0,0,1-1.49.85,14,14,0,0,1-1.53.65,4.2,4.2,0,0,1-1.33.26,7.39,7.39,0,0,1-3.09-.56,4.65,4.65,0,0,1-1.88-1.46,5.41,5.41,0,0,1-1-2.18,13.57,13.57,0,0,1-.26-2.69,14.75,14.75,0,0,1,.13-1.76,16.42,16.42,0,0,1,.52-2.31c.26-.88.63-2,1.11-3.18s1.08-2.72,1.82-4.45a12.77,12.77,0,0,0-1.76.91,16.5,16.5,0,0,0-3.51,2.79q-3,2.92-5.49,5.79c-1.62,1.9-3.28,4-5,6.37-1,1.34-1.79,2.48-2.5,3.41a7.36,7.36,0,0,1-1.86,1.85,4.76,4.76,0,0,1-2-2.18,13.49,13.49,0,0,1-1-2.89,17.31,17.31,0,0,1,.36-3.12c.24-1.26.56-2.65,1-4.19s.92-3.15,1.52-4.85,1.28-3.37,2-5.06a65.62,65.62,0,0,1,4.52-9C222.85,23.77,223.71,22.6,224.05,22.43Z" style="fill:#374d6b"/><path d="M271.05,27.69a6.38,6.38,0,0,1,1.53.23,8.74,8.74,0,0,1,1.59.58,6.91,6.91,0,0,1,1.2.75c.33.26.49.5.49.71q-1.31,2.74-2.41,5.5t-1.88,5.3a44.56,44.56,0,0,0-1.2,4.74,20.15,20.15,0,0,0-.43,3.83,10,10,0,0,0,.39,3,3,3,0,0,0,1.3,1.72,6.71,6.71,0,0,1-2,.85,9.12,9.12,0,0,1-2.21.32q-3.51,0-3.51-4.81,0-3.7,2.47-10.14a40.46,40.46,0,0,1-6.44,10.23,20.66,20.66,0,0,1-3.54,3.26,8.52,8.52,0,0,1-3.28,1.53,4.52,4.52,0,0,1-3.9-2.19,9.66,9.66,0,0,1-1.5-5.58,21.36,21.36,0,0,1,1.56-7.7,34.84,34.84,0,0,1,4-7.51,28.57,28.57,0,0,1,5.3-5.78,8.88,8.88,0,0,1,5.52-2.31,5.1,5.1,0,0,1,1.47.77,12.25,12.25,0,0,1,1.56,1.36A10.57,10.57,0,0,1,268.38,28a3.51,3.51,0,0,1,.59,1.4,11.66,11.66,0,0,0-5.36,2.53,26.1,26.1,0,0,0-5,5.15,30.32,30.32,0,0,0-3.67,6.45,16.73,16.73,0,0,0-1.43,6.42,1.45,1.45,0,0,0,.91,1.56c1.25-.26,2.71-1.33,4.35-3.22a61.69,61.69,0,0,0,6-8.74c.44-.78.92-1.65,1.47-2.6s1.09-2,1.65-3,1.12-2.09,1.66-3.15S270.57,28.69,271.05,27.69Z" style="fill:#374d6b"/><path d="M316.74,34a4.27,4.27,0,0,0-2.53,1.27A30,30,0,0,0,311,38.55c-1.15,1.33-2.34,2.79-3.58,4.4s-2.42,3.2-3.57,4.78l-3.22,4.46c-1,1.39-1.84,2.5-2.53,3.32a6.8,6.8,0,0,1-2.47-1.72,6.58,6.58,0,0,1-1.5-2.83,42.12,42.12,0,0,1,.91-4.18,38.75,38.75,0,0,1,1.53-4.51,47.67,47.67,0,0,1,2.34-4.9A55.53,55.53,0,0,1,302.31,32a4.94,4.94,0,0,0-2.66,1.33A32.07,32.07,0,0,0,296,36.73c-1.3,1.41-2.65,3-4,4.75s-2.69,3.49-3.9,5.18c-1.61,2.25-2.94,4.23-4,5.92a11.55,11.55,0,0,1-2.31,3,7,7,0,0,1-2.34-2.67,13.54,13.54,0,0,1-1-3.19,29.06,29.06,0,0,1,.48-3.89A40.31,40.31,0,0,1,280.15,41,61.35,61.35,0,0,1,284,31.59c1.59-3.12,3.11-6,4.59-8.58a11.1,11.1,0,0,1,3.28,1.24A15.62,15.62,0,0,1,295,26.71,20.33,20.33,0,0,1,293,31l-2.86,4.72a53.72,53.72,0,0,0-2.73,5.07A18.46,18.46,0,0,0,285.74,46c1.21-1.73,2.65-3.73,4.32-6s3.38-4.38,5.13-6.37a42.46,42.46,0,0,1,5.24-5.07,7.81,7.81,0,0,1,4.68-2.08,6.33,6.33,0,0,1,1.69.26,9.71,9.71,0,0,1,1.69.65,11,11,0,0,1,1.3.75c.34.24.54.42.58.55a16.42,16.42,0,0,1-1.53,3.54q-1.2,2.25-2.56,4.72t-2.54,4.77a12.87,12.87,0,0,0-1.36,3.68q3.18-4.36,6-7.9a76.85,76.85,0,0,1,5.26-6.08,27.81,27.81,0,0,1,4.58-3.9,7.43,7.43,0,0,1,4-1.36,4.61,4.61,0,0,1,2.44.68,3.57,3.57,0,0,1,1.59,2,31.89,31.89,0,0,1-1.92,4.68q-1.32,2.73-2.69,5.75c-.91,2-1.73,4-2.44,6a15.39,15.39,0,0,0-1.07,5.27,2.78,2.78,0,0,0,.39,1.78,1.38,1.38,0,0,0,1.1.42,3.56,3.56,0,0,0,1.46-.29,3.06,3.06,0,0,1,1-.29,1,1,0,0,1,.46.65,4.76,4.76,0,0,1,.06.72,15.6,15.6,0,0,1-2.66,1.72,6.81,6.81,0,0,1-3.06.68,5.57,5.57,0,0,1-2.57-.52A4.47,4.47,0,0,1,312.65,54a5.39,5.39,0,0,1-.91-2.07,11.3,11.3,0,0,1-.26-2.53,16.86,16.86,0,0,1,.58-4.39,34.84,34.84,0,0,1,1.4-4.15c.54-1.32,1.11-2.55,1.72-3.7S316.31,34.94,316.74,34Z" style="fill:#374d6b"/><path d="M336.57,56.22A8.25,8.25,0,0,1,330.65,53a11.55,11.55,0,0,1-2.21-7.27,20,20,0,0,1,.78-5.4,26.36,26.36,0,0,1,2.21-5.43,31.11,31.11,0,0,1,3.38-5,24.65,24.65,0,0,1,4.23-4,11.38,11.38,0,0,1,6.69-2.66c1.39.73,2.75,2.27,4.1,4.61a5.09,5.09,0,0,0,.58,0,5.15,5.15,0,0,1,.59,0c2.29,0,3.44,2,3.44,6.11a22.48,22.48,0,0,1-1.33,7.76,23.35,23.35,0,0,1-3.71,6.66,21.79,21.79,0,0,1-5.65,5A22.24,22.24,0,0,1,336.57,56.22Zm3.31-20.47A31.23,31.23,0,0,0,337.8,39a31.68,31.68,0,0,0-1.69,3.54A24.88,24.88,0,0,0,335,46a13,13,0,0,0-.39,3,8.63,8.63,0,0,0,.52,3q.51,1.43,1.17,1.62a14.18,14.18,0,0,0,5.36-2.44,17.8,17.8,0,0,0,4.23-4.45,22.16,22.16,0,0,0,2.79-6,25.25,25.25,0,0,0,1-7.22,14,14,0,0,0-.2-2.66,5.06,5.06,0,0,0-.65-1.7,14,14,0,0,0-5.1,2.74A26.19,26.19,0,0,0,339.88,35.75Z" style="fill:#374d6b"/><path d="M380,28a12.78,12.78,0,0,1-.43,2.57,14.43,14.43,0,0,1-.87,2.41,9.11,9.11,0,0,1-1.11,1.78,1.57,1.57,0,0,1-1.1.72c-.48,0-.76-.37-.85-1a2.18,2.18,0,0,1,.16-.61l.36-.95c.13-.34.25-.69.36-1a3,3,0,0,0,.16-.91,2.64,2.64,0,0,0-.42-1.52,1.3,1.3,0,0,0-1.14-.62q-2.6,0-4,3.23t-1.37,9.51a2.31,2.31,0,0,0,.07.78h4.55a1.43,1.43,0,0,1,.06.52,1.19,1.19,0,0,1-.26.84c-1,.21-1.79.4-2.37.55a9.29,9.29,0,0,0-1.33.42,1,1,0,0,0-.56.42,1.67,1.67,0,0,0-.09.61c0,.35,0,.69,0,1s0,.77,0,1.29a12.58,12.58,0,0,1-3,8.74,12.1,12.1,0,0,1-8.22,3.83,5.12,5.12,0,0,1-1.88-.52A8.77,8.77,0,0,1,355,58.92a8.46,8.46,0,0,1-1.52-1.59,5.33,5.33,0,0,1-.91-1.79,11.14,11.14,0,0,1,1-4.75,13.28,13.28,0,0,1,2.82-4A14.23,14.23,0,0,1,360.65,44,12.91,12.91,0,0,1,366,42.9a15.51,15.51,0,0,0-.33-3.2c-.22-1-.44-2.05-.68-3s-.47-1.94-.68-2.88a12,12,0,0,1-.33-2.77,9,9,0,0,1,.72-3.49,12.88,12.88,0,0,1,1.88-3.2,12.11,12.11,0,0,1,2.73-2.52,9.85,9.85,0,0,1,3.25-1.43,6.09,6.09,0,0,1,1.92,1.14,25.29,25.29,0,0,1,2.37,2.11A23.53,23.53,0,0,1,378.88,26,6,6,0,0,1,380,28ZM358.54,57.62a10.58,10.58,0,0,0,2.95-1.88,14.15,14.15,0,0,0,2.44-2.8,14.87,14.87,0,0,0,1.66-3.31,10.4,10.4,0,0,0,.62-3.45,7.44,7.44,0,0,0-2.86,1.2,17.45,17.45,0,0,0-2.93,2.41,16.07,16.07,0,0,0-2.27,2.89,5.18,5.18,0,0,0-.91,2.6A2.73,2.73,0,0,0,358.54,57.62Z" style="fill:#374d6b"/><path d="M428.16,6.92a15.79,15.79,0,0,1,5.13.91A17.67,17.67,0,0,1,438,10.17q-.64,3.32-1.2,6l-1,4.85c-.3,1.45-.6,2.77-.88,4s-.55,2.31-.81,3.35q-1.56,5.85-3.22,10.56a76.74,76.74,0,0,1-3.51,8.49,49.6,49.6,0,0,1-3.9,6.69,33.32,33.32,0,0,1-4.38,5.14,27.16,27.16,0,0,1-4.55,3.51,13.55,13.55,0,0,1-4.23,1.75,18.76,18.76,0,0,1-4.81-.58,13.93,13.93,0,0,1-3.8-1.6,7.68,7.68,0,0,1-2.47-2.4,5.65,5.65,0,0,1-.88-3.09,15.16,15.16,0,0,1,.91-4.58A51.3,51.3,0,0,1,402,45.66a8.8,8.8,0,0,1,1.83.38,20.49,20.49,0,0,1,2.08.79,12.32,12.32,0,0,1,1.88,1,4.93,4.93,0,0,1,1.24,1.08,18.79,18.79,0,0,0-3.38,4.71,10.12,10.12,0,0,0-1.3,4.45,4.5,4.5,0,0,0,.42,2,4.11,4.11,0,0,0,1.46,1.59A20.78,20.78,0,0,0,414,56.09,40.85,40.85,0,0,0,420.68,46a57.2,57.2,0,0,0,3.19-8.19c.95-3.08,1.76-6.16,2.43-9.26s1.19-6.07,1.56-8.91a57.09,57.09,0,0,0,.56-7.18c0-.3,0-.73,0-1.27s0-1.1-.06-1.69-.06-1.11-.1-1.59S428.16,7.09,428.16,6.92Z" style="fill:#374d6b"/><path d="M453.77,53.52a5,5,0,0,1-1.66-2.6,10.53,10.53,0,0,1-.42-2.66,7.35,7.35,0,0,1,.32-2.34c-.17,0-.56.34-1.17,1s-1.27,1.51-2,2.47l-2.11,2.78-1.56,2a10.27,10.27,0,0,1-1.6,1.42,3.23,3.23,0,0,1-1.2.59,7.25,7.25,0,0,1-2.18-.36,8.58,8.58,0,0,1-2.14-1,7.54,7.54,0,0,1-1.76-1.57,4.89,4.89,0,0,1-1-2.09c0-1.21,0-2.21.09-3a17.4,17.4,0,0,1,.43-2.53,49.38,49.38,0,0,1,1.72-5.59,61.1,61.1,0,0,1,2.63-6.15,42.48,42.48,0,0,1,3.35-5.65,17,17,0,0,1,3.93-4.13,10.38,10.38,0,0,1,1.37.1,7.88,7.88,0,0,1,1.59.36,11.74,11.74,0,0,1,1.56.61,4,4,0,0,1,1.27.95,50,50,0,0,0-3,4.35A73.23,73.23,0,0,0,445,41.17a21.18,21.18,0,0,0-.78,2.08c-.3.91-.61,1.86-.91,2.86s-.55,2-.75,2.93a12.35,12.35,0,0,0-.29,2.27,1.47,1.47,0,0,0,.16.78,2.42,2.42,0,0,0,.3.39,7.49,7.49,0,0,0,2.47-2.15q1.49-1.74,4.16-5.39c.43-.61.94-1.3,1.52-2.08s1.18-1.61,1.79-2.5,1.18-1.81,1.72-2.76a19.84,19.84,0,0,0,1.34-2.86c.17-.53.4-1.14.68-1.86a23,23,0,0,1,1-2.24,25.3,25.3,0,0,1,1.43-2.37A13,13,0,0,1,460.79,26a9.31,9.31,0,0,1,1.82.19,14.72,14.72,0,0,1,1.85.49,9.14,9.14,0,0,1,1.53.65,3.47,3.47,0,0,1,1,.75c-.78,1.9-1.65,3.79-2.6,5.65s-1.84,3.7-2.66,5.49a45.24,45.24,0,0,0-2.08,5.37,16.93,16.93,0,0,0-.85,5.2,11,11,0,0,0,.23,2.37,11.76,11.76,0,0,0,.49,1.69q.25.67.48,1.14a1.82,1.82,0,0,1,.23.77c0,.05,0,.11-.13.2a.19.19,0,0,1-.13.06,4.65,4.65,0,0,1-1.17-.19,15.23,15.23,0,0,1-1.59-.55c-.59-.24-1.17-.51-1.76-.81A18.89,18.89,0,0,1,453.77,53.52Z" style="fill:#374d6b"/><path d="M478.73,23.43a6.87,6.87,0,0,1,3.18,2.3,12,12,0,0,1,2.21,3.94,32.1,32.1,0,0,1-2.21,4.22c-1,1.65-2,3.33-3,5s-1.9,3.34-2.7,4.87a12.53,12.53,0,0,0-1.4,3.81c.7-.74,1.47-1.6,2.31-2.57s1.67-1.95,2.47-2.93,1.55-1.86,2.25-2.66,1.23-1.4,1.62-1.79c.82-.87,1.8-1.87,2.93-3a43.55,43.55,0,0,1,3.54-3.25,25.49,25.49,0,0,1,3.74-2.6,7,7,0,0,1,3.44-1.08A3.88,3.88,0,0,1,500,28.85a9.81,9.81,0,0,1,1.78,2.37q0,.13-.48.36a5.38,5.38,0,0,0-1.4,1.27,25.23,25.23,0,0,0-2.05,3.22c-.76,1.36-1.49,2.84-2.21,4.42a35.59,35.59,0,0,0-1.78,4.84,16.18,16.18,0,0,0-.72,4.49,3.33,3.33,0,0,0,.42,2.07,1.54,1.54,0,0,0,1.21.46,4,4,0,0,0,1.49-.32,3.42,3.42,0,0,1,1.23-.33,1,1,0,0,1,.43.55A2.11,2.11,0,0,1,498,53a10.92,10.92,0,0,1-1.23.91c-.48.3-1,.59-1.5.85a14,14,0,0,1-1.53.65,4.2,4.2,0,0,1-1.33.26,7.39,7.39,0,0,1-3.09-.56,4.65,4.65,0,0,1-1.88-1.46,5.41,5.41,0,0,1-1-2.18,13.58,13.58,0,0,1-.25-2.69A12.92,12.92,0,0,1,486.4,47a14,14,0,0,1,.52-2.31c.26-.88.62-2,1.1-3.18s1.08-2.72,1.82-4.45a12.39,12.39,0,0,0-1.75.91,16.28,16.28,0,0,0-3.52,2.79q-3,2.92-5.49,5.79c-1.62,1.9-3.28,4-5,6.37-.95,1.34-1.79,2.48-2.5,3.41a7.52,7.52,0,0,1-1.85,1.85,4.79,4.79,0,0,1-2-2.18,13.46,13.46,0,0,1-1-2.89,17.17,17.17,0,0,1,.35-3.12c.24-1.26.57-2.65,1-4.19s.92-3.15,1.53-4.85,1.27-3.37,2-5.06a66.79,66.79,0,0,1,4.52-9Q478.2,23.69,478.73,23.43Z" style="fill:#374d6b"/><path d="M507.13,30.05a4.21,4.21,0,0,1-.59-1.65,11.38,11.38,0,0,1-.26-2.18,21.85,21.85,0,0,0,3.25.26h2.87c.64-1.28,1.35-2.56,2.11-3.82s1.49-2.42,2.21-3.47a28.85,28.85,0,0,1,2-2.67,7.64,7.64,0,0,1,1.46-1.41,7.81,7.81,0,0,1,1.66.22,18.75,18.75,0,0,1,2,.59c.69.24,1.32.49,1.88.75a3.26,3.26,0,0,1,1.17.78q-2,2.44-3.34,4.55t-3,4.8h2.64a19,19,0,0,0,2.69-.19,2.42,2.42,0,0,1,.53.81,2.92,2.92,0,0,1,.19,1,21.48,21.48,0,0,1-7.73,1.24c-1.09,2.08-2,4.16-2.9,6.22s-1.56,4-2.14,6a52.39,52.39,0,0,0-1.37,5.41,25,25,0,0,0-.49,4.56c0,1.91.72,3,2.15,3.2a15,15,0,0,0,3.7-1A12.53,12.53,0,0,0,521,52.22a2.81,2.81,0,0,1,.45,1,6.84,6.84,0,0,1-1.33,1.35c-.63.52-1.31,1-2.05,1.52a20.58,20.58,0,0,1-2.15,1.26,5.93,5.93,0,0,1-1.55.58,8.72,8.72,0,0,1-3.25-.65,13.39,13.39,0,0,1-3-1.63A9.39,9.39,0,0,1,506,53.45a4.15,4.15,0,0,1-.85-2.38,23.49,23.49,0,0,1,.43-3.93c.28-1.59.68-3.31,1.2-5.18s1.13-3.81,1.82-5.85,1.45-4.06,2.27-6.06Z" style="fill:#374d6b"/><path d="M533.84,57.22A8.23,8.23,0,0,1,527.93,54a11.49,11.49,0,0,1-2.21-7.27,20,20,0,0,1,.78-5.4,26.36,26.36,0,0,1,2.21-5.43,30.46,30.46,0,0,1,3.38-5,25,25,0,0,1,4.22-4,11.43,11.43,0,0,1,6.7-2.66,11.43,11.43,0,0,1,4.09,4.61,5.15,5.15,0,0,0,.59,0,5.09,5.09,0,0,1,.58,0c2.3,0,3.45,2,3.45,6.11a22.72,22.72,0,0,1-1.33,7.76,23.59,23.59,0,0,1-3.71,6.66,22,22,0,0,1-5.65,5A22.3,22.3,0,0,1,533.84,57.22Zm3.32-20.47A29.66,29.66,0,0,0,535.08,40a30,30,0,0,0-1.69,3.54A23.69,23.69,0,0,0,532.28,47a13,13,0,0,0-.39,3,8.87,8.87,0,0,0,.52,3q.52,1.43,1.17,1.62A14.22,14.22,0,0,0,539,52.12a17.59,17.59,0,0,0,4.22-4.45,22.48,22.48,0,0,0,2.8-6,25.25,25.25,0,0,0,1-7.22,14.17,14.17,0,0,0-.19-2.66,5.06,5.06,0,0,0-.65-1.7,14,14,0,0,0-5.1,2.74A25.72,25.72,0,0,0,537.16,36.75Z" style="fill:#374d6b"/><path d="M577.26,29a12.07,12.07,0,0,1-.42,2.57A13.59,13.59,0,0,1,576,34a8.65,8.65,0,0,1-1.1,1.78,1.56,1.56,0,0,1-1.11.72c-.47,0-.76-.37-.84-1a1.87,1.87,0,0,1,.16-.61l.36-.95c.13-.34.25-.69.36-1A3.36,3.36,0,0,0,574,32a2.64,2.64,0,0,0-.42-1.52,1.32,1.32,0,0,0-1.14-.62q-2.61,0-4,3.23t-1.36,9.51a2.79,2.79,0,0,0,.06.78h4.55a1.63,1.63,0,0,1-.19,1.36c-1,.21-1.79.4-2.37.55a10,10,0,0,0-1.34.42,1,1,0,0,0-.55.42,1.65,1.65,0,0,0-.1.61c0,.35,0,.69,0,1s0,.77,0,1.29a12.62,12.62,0,0,1-3,8.74A12.1,12.1,0,0,1,556,61.61a5.17,5.17,0,0,1-1.89-.52,8.7,8.7,0,0,1-1.85-1.17,8.85,8.85,0,0,1-1.53-1.59,5.72,5.72,0,0,1-.91-1.79,11.29,11.29,0,0,1,1-4.75,13.49,13.49,0,0,1,2.83-4A14.23,14.23,0,0,1,557.93,45a12.9,12.9,0,0,1,5.29-1.08,16.23,16.23,0,0,0-.32-3.2c-.22-1-.45-2.05-.68-3s-.47-1.94-.69-2.88a12.6,12.6,0,0,1-.32-2.77,9.15,9.15,0,0,1,.71-3.49,13.23,13.23,0,0,1,1.89-3.2,12.11,12.11,0,0,1,2.73-2.52,9.85,9.85,0,0,1,3.25-1.43,6.2,6.2,0,0,1,1.92,1.14,25.29,25.29,0,0,1,2.37,2.11A23.53,23.53,0,0,1,576.16,27,5.93,5.93,0,0,1,577.26,29ZM555.81,58.62a10.62,10.62,0,0,0,3-1.88,14.48,14.48,0,0,0,2.44-2.8,15.31,15.31,0,0,0,1.66-3.31,10.38,10.38,0,0,0,.61-3.45,7.51,7.51,0,0,0-2.86,1.2,17.39,17.39,0,0,0-2.92,2.41,16.6,16.6,0,0,0-2.28,2.89,5.28,5.28,0,0,0-.91,2.6A2.75,2.75,0,0,0,555.81,58.62Z" style="fill:#374d6b"/><path d="M578.89,60a3.31,3.31,0,0,1-1.5-.36,5.68,5.68,0,0,1-1.26-.85,4,4,0,0,1-.88-1,1.89,1.89,0,0,1-.33-.88,13.61,13.61,0,0,1,.2-2,14.15,14.15,0,0,1,.58-2.37,7.41,7.41,0,0,1,1-2,1.63,1.63,0,0,1,1.3-.81A6.5,6.5,0,0,1,581.65,51a8.9,8.9,0,0,1,2.76,2.83,9.33,9.33,0,0,0-1.36,1.92q-.59,1.06-1.17,2a7.48,7.48,0,0,1-1.3,1.59A2.41,2.41,0,0,1,578.89,60Zm1.43-17.23a20.47,20.47,0,0,1,.94-5.1q.94-3.35,2.44-7.41t3.38-8.39q1.88-4.32,3.8-8.09t3.67-6.53a13.18,13.18,0,0,1,3.06-3.67,6.61,6.61,0,0,1,2.24.94,15.47,15.47,0,0,1,2.24,1.69,14,14,0,0,1,1.82,2,4.34,4.34,0,0,1,.91,1.82,45.43,45.43,0,0,0-6.56,6.79,65,65,0,0,0-6,9,73.89,73.89,0,0,0-4.85,10.56,67.85,67.85,0,0,0-3.12,11.47,11.23,11.23,0,0,1-1.52-.49,3.46,3.46,0,0,1-1.27-.81,3.8,3.8,0,0,1-.85-1.43A7.29,7.29,0,0,1,580.32,42.73Z" style="fill:#374d6b"/></symbol></defs><title>ev</title><g id="Capa_2" data-name="Capa 2"><g id="Capa_3" data-name="Capa 3"><use id="Nuevo_símbolo_11-3" data-name="Nuevo símbolo 11" width="604.82" height="64.44" xlink:href="#Nuevo_símbolo_11"/></g></g></svg>