
<svg xmlns="http://www.w3.org/2000/svg" version="1.1" xmlns:xlink="http://www.w3.org/1999/xlink" preserveAspectRatio="none" x="0px" y="0px" width="485px" height="53px" viewBox="0 0 485 53">
<defs>
<g id="Layer0_0_MEMBER_0_FILL">
<path fill="#000000" fill-opacity="0.24705882352941178" stroke="none" d="
M 102.35 105.15
Q 103.7 105.1 103.7 104.3 103.7 103.55 100.65 103.55 98.2 103.55 95.8 104.7 93.35 105.8 91.4 107.75 89.35 109.7 88.2 112.05 87.05 114.45 87.05 116.8 87.05 119.85 88.65 121.45 89.9 122.7 92 123.4 94.1 124.15 96.25 124.15 98.45 124.15 100.85 123.1 103.3 122.05 105 120.4 106.35 119.05 107.15 116.95 108 114.85 108 112.65 108 111.35 107.65 110.2 107.3 109 106.65 108.15 106.05 107.25 105.2 106.75 104.4 106.3 103.45 106.3 102.65 106.3 101.5 106.7 100.3 107.15 99.35 107.75 98.55 108.35 98.55 108.65 98.55 108.85 99.15 109.35 100.5 110.4 101.25 111.9 102 113.45 102 115.2 102 117.3 100.8 118.9 99.65 120.5 98.1 120.5 96.4 120.5 95.35 119.15 94.3 117.8 94.3 115.55 94.3 113.5 94.95 111.7 95.55 109.85 96.7 108.4 97.8 106.95 99.25 106.1 100.65 105.25 102.35 105.15
M 147.75 107.75
Q 146.9 107.75 145.6 108.7 144.3 109.6 142.2 111.65
L 140.8 113.1
Q 139.6 114.25 138.95 115.05 137.95 116.2 137.45 116.65 136.95 117.05 136.65 117.05 136.35 117.05 136.35 116.6 136.35 115.8 138.1 112.05
L 138.35 111.45
Q 139 110.05 139.3 109.05 139.65 108.05 139.65 107.15 139.65 105.85 138.85 105.05 138.05 104.25 136.75 104.25 135.8 104.25 135.1 104.55 133.15 105.35 131.75 108.85 130.5 112.05 129.75 115.3 129.05 118.6 129.05 121.05 129.05 122.5 129.7 123.4 130.35 124.3 131.45 124.3 132.1 124.3 133.2 123.8 134.25 123.3 135.85 122.15 137.45 121.05 139.9 119.1 141.2 118.15 141.3 118.05
L 141.65 117.8
Q 141.6 118.5 141.55 119 141.5 119.45 141.5 119.65 141.5 121.1 142 122.15 142.5 123.15 143.45 123.7 144.4 124.2 145.75 124.2 147.2 124.2 148.3 123.75 149.4 123.25 149.4 122.65
L 149.25 121.45
Q 149.2 120.75 149.05 119.35 149.05 118.85 149.05 118.5 149.05 118.15 149 117.75 149 115.7 149.25 112.75 149.4 111.2 149.4 110.6 149.4 107.75 147.75 107.75
M 73.05 104.05
Q 72.25 104.05 71.55 104.45 70.75 105 70.3 106.8 69.8 108.55 69.8 111.15 69.8 113 70.05 115 70.3 117 70.75 118.95 71.2 120.9 71.75 122.25 72.5 124.45 74.25 124.45 75.25 124.45 76.65 123.25 78.05 122.05 80.1 119.4 81.25 118 82.3 116.6 83.3 115.2 84.1 113.95 84.9 112.65 85.35 111.7 85.75 110.95 85.9 110.15 86.1 109.35 86.1 108.25 86.1 104.45 84.4 104.45 83.85 104.45 83.5 104.8 83.15 105.15 82.65 106.2
L 81.9 107.75
Q 80.8 110.15 80.4 111 78.5 115.2 77.85 116.45 77.6 116.95 77.2 117.8
L 77.15 117.8 77.15 112.5
Q 77.15 109.95 77.1 108.5 77 107.05 76.8 106.35 76.55 105.65 76.15 105.2 75.65 104.65 74.85 104.35 74 104.05 73.05 104.05
M 58.5 96.7
Q 56.55 97.45 54.5 98.85 52.45 100.25 50.8 102 48.85 103.95 47.35 106.4 45.85 108.8 45 111.2 44.15 113.6 44.15 115.65 44.15 118.05 45.45 120.05 46.7 122.05 49.05 123.2 51.35 124.3 54.2 124.3 55 124.3 56 124.1 58.9 123.4 61.75 122.2 64.55 120.95 65.75 119.9 66.15 119.55 66.55 118.7 66.95 117.8 67.2 116.85 67.5 115.9 67.5 115.2 67.5 114.5 67.1 114.5 66.8 114.5 65.6 115.25 65.35 115.45 64.6 115.85
L 63.9 116.3
Q 61.3 117.75 59.3 118.55 57.25 119.3 56.2 119.3 55.15 119.3 54.3 118.1 53.4 116.9 53.4 115.4
L 53.4 114.85 60.9 114.9
Q 62.55 114.9 64.55 113.1 66.55 111.15 66.55 110.3 66.55 109.35 64.75 109.35
L 53.8 109.35
Q 54.05 107.95 54.7 106.45 55.35 104.95 56.4 103.55 57.45 102 59.35 100.4 61.2 98.85 61.9 98.85 62.35 98.85 62.35 99.6 62.35 100.5 61.85 102.15 61.4 103.8 60.7 105 60.05 106.15 59.3 106.8 58.65 107.55 58.65 107.9 58.65 108.5 59.85 108.5 61.05 108.5 62.75 107.8 64.15 107.2 65.3 106.4 66.45 105.6 67 104.7 67.55 103.9 67.9 102.85 68.2 101.8 68.2 100.9 68.2 98.85 66.4 97.4 64.6 95.95 62.05 95.95 60.4 95.95 58.5 96.7
M 125.55 96.6
Q 124.65 95.9 123.5 95.9 122.05 95.9 120.85 96.8 118.95 98.15 117 100.7 115 103.2 113.35 106.35 111.7 109.5 110.7 112.55 109.75 115.65 109.75 117.95 109.75 120.75 111.5 122.5 113.2 124.25 116 124.25 118.25 124.25 120.4 122.95 122.55 121.65 123.95 119.55 125.3 117.45 125.3 115.25 125.3 114.25 124.7 114.25 124.2 114.25 123.3 115.45 122.2 117.1 120.8 118.1 119.4 119.05 118.25 119.05 117.6 119.05 117.3 118.45 117 117.85 117 116.5 117 114.95 117.25 113.45 117.5 111.95 118.15 109.75 118.8 107.55 120 104.2 120.55 102.7 121.35 101.25 122.2 99.75 122.5 99.75 122.7 99.75 122.7 100.1 122.7 101.5 122.15 104 121.6 106.55 120.8 108.85 120.65 109.3 120.55 109.6 120.45 109.8 120.35 110.05 119.4 112.35 118.7 113.45 118.15 114.3 118.15 114.6 118.15 115.2 118.85 115.2 119.6 115.2 120.6 114.55 121.55 113.95 122.65 112.85 124.9 110.6 126.15 107.55 127.4 104.45 127.4 101.25 127.4 99.75 126.9 98.5 126.45 97.25 125.55 96.6
M 275.65 110.8
Q 275.65 109.1 275 108.25 274.3 107.35 273.05 107.35 272.25 107.35 271.45 108 270.6 108.55 269.1 110.2 266.85 112.5 266.3 113 266.05 113.25 265.8 113.5 265.5 113.75 265.3 114 265.05 114.2 264.8 114.5
L 264.7 114.4
Q 264.8 114.1 264.95 113.7 265.1 113.25 265.35 112.5 266.65 108.85 266.65 108 266.65 107.1 266.25 106.35 265.85 105.55 265.25 105.05 264.6 104.6 263.9 104.6 262.3 104.6 260.4 106.35 258.95 107.65 256.05 111.2 254.35 113.25 253.6 114.1
L 253.5 114.05
Q 254 112.55 254.45 111.4 255.6 108.2 255.6 106.7 255.6 105.85 254.9 105.3 254.15 104.8 253.05 104.8 251.25 104.8 249.8 106.95 248.85 108.45 247.1 113 245.1 118.05 245.1 120.35 245.1 122.15 245.9 123.2 246.65 124.25 248 124.25 248.6 124.25 249.35 123.75 250.1 123.3 251.05 122.35 252 121.4 253.6 119.5 255.5 117.2 257.5 115.1
L 257.6 115.2
Q 257.5 115.4 257.4 115.7 257.25 116 257.1 116.4 256.35 118.35 256.1 119.35 255.8 120.35 255.8 121.2 255.8 122.55 256.7 123.5 257.5 124.4 258.75 124.4 259.55 124.4 260.25 124 260.9 123.6 262 122.5
L 267.6 116.8 267.95 116.25 268.05 116.35
Q 267.8 119.65 267.8 120.65 267.8 122.25 267.95 123.25 268.1 124.2 268.45 124.95 268.8 125.65 269.5 126.35 270.95 127.85 272.65 127.85 273.7 127.85 274.6 127.35 275.55 126.85 275.7 126.1 275.6 125.45 275.35 124.3 275.15 123.4 275.05 122.65 274.9 121.9 274.85 121.25 274.8 120.55 274.8 120.1 274.8 119.55 274.95 118.1 275.05 116.65 275.3 114.1 275.65 111.85 275.65 110.8
M 298.3 110.2
Q 297.95 109 297.3 108.15 296.7 107.25 295.85 106.75 295.05 106.3 294.1 106.3 293.3 106.3 292.15 106.7 290.95 107.15 290 107.75 289.2 108.35 289.2 108.65 289.2 108.85 289.8 109.35 291.15 110.4 291.9 111.9 292.65 113.45 292.65 115.2 292.65 117.3 291.45 118.9 290.3 120.5 288.75 120.5 287.05 120.5 286 119.15 284.95 117.8 284.95 115.55 284.95 113.5 285.6 111.7 286.2 109.85 287.35 108.4 288.45 106.95 289.9 106.1 291.3 105.25 293 105.15 294.35 105.1 294.35 104.3 294.35 103.55 291.3 103.55 288.85 103.55 286.45 104.7 284 105.8 282.05 107.75 280 109.7 278.85 112.05 277.7 114.45 277.7 116.8 277.7 119.85 279.3 121.45 280.55 122.7 282.65 123.4 284.75 124.15 286.9 124.15 289.1 124.15 291.5 123.1 293.95 122.05 295.65 120.4 297 119.05 297.8 116.95 298.65 114.85 298.65 112.65 298.65 111.35 298.3 110.2
M 316.75 111.2
Q 317.5 109.95 317.5 108.8 317.5 107.6 316.8 106.6 316.15 105.55 315 104.95 313.85 104.35 312.55 104.35 309.8 104.35 307.15 105.85 304.5 107.35 302.8 109.7 301.05 112.05 301.05 114.4 301.05 115.75 302 116.65 302.95 117.85 306.25 118.8 308.45 119.4 309.1 120.05 309.7 120.55 309.7 121.45 309.7 122.8 308.7 123.9 307.7 125 306.5 125.1 305.85 124.3 305.85 123.45 305.85 122.25 306.65 120.8 306.9 120.3 306.9 120.1 306.9 119.7 306 119.7 304.75 119.7 303.5 120.45 302.2 121.15 301.35 122.3 300.45 123.4 300.45 124.55 300.45 126.1 301.8 127 303.05 127.9 305.35 127.9 307.7 127.9 309.65 127.15 311.6 126.45 313.55 124.8 315.4 123.25 316.3 121.8 317.2 120.35 317.2 118.95 317.2 117.6 316.4 116.8 315.9 116.35 315.65 116.2 314.6 115.6 311.95 114.95 310.4 114.6 309.65 114.25 308.9 113.95 308.55 113.5 308.2 113.1 308.2 112.35 308.2 111.3 308.65 110.15 309.1 109 309.9 108.1 310.2 107.65 311.2 106.95 311.95 108.1 311.95 109.4 311.95 110.75 311.5 112.5 311.35 113.05 311.35 113.35 311.35 113.6 311.8 113.85 312.2 114.1 312.75 114.1 313.8 114.1 314.9 113.3 316 112.45 316.75 111.2
M 162.5 104.4
L 162.4 104.4
Q 160.85 104.4 159.2 105.5 156.95 107.1 155.15 109.4 153.35 111.7 152.35 114.3 151.3 116.85 151.3 119.2 151.3 121.55 152.9 123.05 154.55 124.6 156.95 124.6 158.35 124.6 160.15 123.8 161.85 122.95 163.2 121.6 165.2 119.55 165.2 117 165.2 116.45 164.7 116.45 164.35 116.45 163.95 117 162.9 118.1 161.75 118.85 160.55 119.6 159.85 119.6 159.1 119.6 158.7 118.8 158.25 118 158.25 116.6 158.25 115.35 158.7 113.6 159.1 111.8 159.75 110.2 160.1 109.2 160.65 108.45 161.15 107.75 161.45 107.75 161.65 107.75 161.65 108.6 161.65 110.4 160.85 111.75 160.6 112.3 160.6 112.45 160.6 112.9 161.25 112.9 162.35 112.9 163.45 112.1 164.5 111.3 165.2 110.05 165.9 108.8 165.9 107.55 165.9 106.15 165 105.3 164.05 104.45 162.5 104.4
M 175.9 108.65
Q 175.9 106.9 175.15 105.8 174.45 104.7 173.25 104.7 172.1 104.7 171.5 105.5 169.9 107.4 168.65 111.7 167.35 115.95 167.35 119.3 167.35 120.85 167.65 121.8 168 122.75 168.75 123.55 169.5 124.35 170.45 124.4 171.2 124.4 171.7 124.1 172.5 123.55 173.05 122.05 174.4 118.25 175.15 114.75 175.9 111.25 175.9 108.65
M 193.3 105.15
Q 194.65 105.1 194.65 104.3 194.65 103.55 191.6 103.55 189.15 103.55 186.75 104.7 184.3 105.8 182.35 107.75 180.3 109.7 179.15 112.05 178 114.45 178 116.8 178 119.85 179.6 121.45 180.85 122.7 182.95 123.4 185.05 124.15 187.2 124.15 189.4 124.15 191.8 123.1 194.25 122.05 195.95 120.4 197.3 119.05 198.1 116.95 198.95 114.85 198.95 112.65 198.95 111.35 198.6 110.2 198.25 109 197.6 108.15 197 107.25 196.15 106.75 195.35 106.3 194.4 106.3 193.6 106.3 192.45 106.7 191.25 107.15 190.3 107.75 189.5 108.35 189.5 108.65 189.5 108.85 190.1 109.35 191.45 110.4 192.2 111.9 192.95 113.45 192.95 115.2 192.95 117.3 191.75 118.9 190.6 120.5 189.05 120.5 187.35 120.5 186.3 119.15 185.25 117.8 185.25 115.55 185.25 113.5 185.9 111.7 186.5 109.85 187.65 108.4 188.75 106.95 190.2 106.1 191.6 105.25 193.3 105.15
M 215.65 107.4
Q 214.75 107.85 213.65 108.85 212.55 109.85 210.7 111.95
L 209.45 113.4 209.4 113.3
Q 210.2 109.5 210.2 107.5 210.2 104.7 208.1 104.7 206.8 104.7 205.85 105.65 204.5 107.05 203.55 109.6 202.95 111.1 202.45 112.8 201.9 114.45 201.55 116.05 201.15 117.65 200.9 119.05 200.7 120.45 200.7 121.4 200.7 122.95 201.5 123.95 202.35 124.9 203.65 124.9 204.6 124.9 205.35 124.15 205.9 123.55 206.5 122.7 208.1 120.6 210.4 118 210.85 117.45 211.4 116.9 211.95 116.35 212.85 115.35
L 212.9 115.4
Q 212.65 117.05 212.65 118.25 212.65 120 213.2 121.45 213.7 122.85 214.65 123.65 215.6 124.45 216.8 124.45 217.5 124.45 218.55 124.05 219.6 123.65 220.25 123.05 220.5 122.9 220.5 122.55 220.5 122.3 220.25 121.55 220 120.8 219.85 120 219.65 118.7 219.65 116.65 219.65 114.85 219.9 112.8 220.05 111.2 220.05 110.4 220.05 108.5 219.45 107.7 218.85 106.95 217.4 106.95 216.5 106.95 215.65 107.4
M 240.85 105.55
Q 239.15 104.45 236.5 104.45 233.4 104.45 230 106.7 226.75 108.85 224.6 112 223.3 113.9 222.6 115.85 221.85 117.85 221.85 119.3 221.85 121.7 223.35 123.2 224.85 124.75 227.15 124.75 228.25 124.75 229.6 124.05 230.95 123.3 232.55 121.9 234.15 120.45 236.05 118.25
L 236.1 118.3
Q 236.05 118.6369140625 236.05 119.2 236.05 124.5 239.25 124.5 240.4 124.5 241.55 123.95 242.65 123.35 243.9 122.15 243.5 121.2 243.35 120.25 243.3 119.85 243.25 119.25 243.15 118.65 243.15 118.15 243.15 117.7 243.15 116.8 243.15 115 243.25 113
L 243.35 112.15
Q 243.35 111.3 243.05 111.05 242.8 110.8 241.65 110.8 242.5 109.45 242.5 108.25 242.5 106.6 240.85 105.55
M 235.2 108
Q 235.5 108.75 235.5 109.6 235.5 111.15 234.35 112.9 234 113.5 234 113.65 234 114.05 234.8 114.05 235.5 114.05 236.95 113.65
L 237.35 113.55 237.45 113.6 236.85 114.05
Q 234.85 116.15 233.2 117.45 231.6 118.7 231 118.7 230.3 118.7 229.85 117.95 229.35 117.25 229.35 116.1 229.35 114.4 230.5 112.2 231.6 110.05 233.5 108 234.2 107.3 234.5 107.3 234.9 107.3 235.2 108
M 172.8 96.65
Q 172.1 97.4 171.55 98.85 170.95 100.35 170.95 101.5 170.95 103.75 172.9 103.8
L 172.95 103.8
Q 173.85 103.8 174.7 103 175.5 102.15 176.05 100.9 176.5 99.55 176.5 98.1 176.5 96.95 176.05 96.45 175.55 95.95 174.55 95.95 173.95 95.95 173.55 96.1 173.2 96.25 172.8 96.65
M 439.9 106.6
Q 439.25 105.55 438.1 104.95 436.95 104.35 435.65 104.35 432.9 104.35 430.25 105.85 427.6 107.35 425.9 109.7 424.15 112.05 424.15 114.4 424.15 115.75 425.1 116.65 426.05 117.85 429.35 118.8 431.55 119.4 432.2 120.05 432.8 120.55 432.8 121.45 432.8 122.8 431.8 123.9 430.8 125 429.6 125.1 428.95 124.3 428.95 123.45 428.95 122.25 429.75 120.8 430 120.3 430 120.1 430 119.7 429.1 119.7 427.85 119.7 426.6 120.45 425.3 121.15 424.45 122.3 423.55 123.4 423.55 124.55 423.55 126.1 424.9 127 426.15 127.9 428.45 127.9 430.8 127.9 432.75 127.15 434.7 126.45 436.65 124.8 438.5 123.25 439.4 121.8 440.3 120.35 440.3 118.95 440.3 117.6 439.5 116.8 439 116.35 438.75 116.2 437.7 115.6 435.05 114.95 433.5 114.6 432.75 114.25 432 113.95 431.65 113.5 431.3 113.1 431.3 112.35 431.3 111.3 431.75 110.15 432.2 109 433 108.1 433.3 107.65 434.3 106.95 435.05 108.1 435.05 109.4 435.05 110.75 434.6 112.5 434.45 113.05 434.45 113.35 434.45 113.6 434.9 113.85 435.3 114.1 435.85 114.1 436.9 114.1 438 113.3 439.1 112.45 439.85 111.2 440.6 109.95 440.6 108.8 440.6 107.6 439.9 106.6
M 449.45 118.6
Q 449.45 118 448.95 117.65 448.45 117.3 447.65 117.3 446.75 117.3 445.8 117.7 444.9 118.1 444.25 118.7 444 118.95 443.75 119.3 442.4 121.4 442.4 122.7 442.4 123.4 442.9 123.85 443.4 124.3 444.2 124.3 445.55 124.3 447.2 123.15 447.9 122.7 448.2 122.25 448.7 121.4 449.05 120.35 449.45 119.3 449.45 118.6
M 336.05 105.8
Q 335.1 106.9 334.65 107.95 333.9 109.55 333.45 111.85 332.95 114.1 332.6 118.2 332.6 118.5 332.55 118.95 332.5 119.4 332.45 119.8 332.4 119.75 332.35 119.75 332.3 119.7 332.25 119.65 331.95 119.4 331.75 119.4 331.25 119.4 330.8 121.2 330.35 123 330.35 125.35 330.35 127.45 331 129 331.6 130.55 332.5 130.55 332.95 130.55 333.2 130.2 334.1 129.2 334.95 127.55 335.8 125.9 336.45 124.05 338.3 118.6 339.2 115.85 340.05 113.05 340.4 111.15 340.75 109.25 340.75 107.5 340.75 106.25 340.05 105.5 339.35 104.7 338.25 104.7 337.2 104.7 336.05 105.8
M 361.35 107.75
Q 360.5 107.75 359.2 108.7 357.9 109.6 355.8 111.65
L 354.4 113.1
Q 353.2 114.25 352.55 115.05 351.55 116.2 351.05 116.65 350.55 117.05 350.25 117.05 349.95 117.05 349.95 116.6 349.95 115.8 351.7 112.05
L 351.95 111.45
Q 352.6 110.05 352.9 109.05 353.25 108.05 353.25 107.15 353.25 105.85 352.45 105.05 351.65 104.25 350.35 104.25 349.4 104.25 348.7 104.55 346.75 105.35 345.35 108.85 344.1 112.05 343.35 115.3 342.65 118.6 342.65 121.05 342.65 122.5 343.3 123.4 343.95 124.3 345.05 124.3 345.7 124.3 346.8 123.8 347.85 123.3 349.45 122.15 351.05 121.05 353.5 119.1 354.8 118.15 354.9 118.05
L 355.25 117.8
Q 355.2 118.5 355.15 119 355.1 119.45 355.1 119.65 355.1 121.1 355.6 122.15 356.1 123.15 357.05 123.7 358 124.2 359.35 124.2 360.8 124.2 361.9 123.75 363 123.25 363 122.65
L 362.85 121.45
Q 362.8 120.75 362.65 119.35 362.65 118.85 362.65 118.5 362.65 118.15 362.6 117.75 362.6 115.7 362.85 112.75 363 111.2 363 110.6 363 107.75 361.35 107.75
M 379.85 107.4
Q 378.95 107.85 377.85 108.85 376.75 109.85 374.9 111.95
L 373.65 113.4 373.6 113.3
Q 374.4 109.5 374.4 107.5 374.4 104.7 372.3 104.7 371 104.7 370.05 105.65 368.7 107.05 367.75 109.6 367.15 111.1 366.65 112.8 366.1 114.45 365.75 116.05 365.35 117.65 365.1 119.05 364.9 120.45 364.9 121.4 364.9 122.95 365.7 123.95 366.55 124.9 367.85 124.9 368.8 124.9 369.55 124.15 370.1 123.55 370.7 122.7 372.3 120.6 374.6 118 375.05 117.45 375.6 116.9 376.15 116.35 377.05 115.35
L 377.1 115.4
Q 376.85 117.05 376.85 118.25 376.85 120 377.4 121.45 377.9 122.85 378.85 123.65 379.8 124.45 381 124.45 381.7 124.45 382.75 124.05 383.8 123.65 384.45 123.05 384.7 122.9 384.7 122.55 384.7 122.3 384.45 121.55 384.2 120.8 384.05 120 383.85 118.7 383.85 116.65 383.85 114.85 384.1 112.8 384.25 111.2 384.25 110.4 384.25 108.5 383.65 107.7 383.05 106.95 381.6 106.95 380.7 106.95 379.85 107.4
M 400.8 116.8
Q 400.8 119.85 402.4 121.45 403.65 122.7 405.75 123.4 407.85 124.15 410 124.15 412.2 124.15 414.6 123.1 417.05 122.05 418.75 120.4 420.1 119.05 420.9 116.95 421.75 114.85 421.75 112.65 421.75 111.35 421.4 110.2 421.05 109 420.4 108.15 419.8 107.25 418.95 106.75 418.15 106.3 417.2 106.3 416.4 106.3 415.25 106.7 414.05 107.15 413.1 107.75 412.3 108.35 412.3 108.65 412.3 108.85 412.9 109.35 414.25 110.4 415 111.9 415.75 113.45 415.75 115.2 415.75 117.3 414.55 118.9 413.4 120.5 411.85 120.5 410.15 120.5 409.1 119.15 408.05 117.8 408.05 115.55 408.05 113.5 408.7 111.7 409.3 109.85 410.45 108.4 411.55 106.95 413 106.1 414.4 105.25 416.1 105.15 417.45 105.1 417.45 104.3 417.45 103.55 414.4 103.55 411.95 103.55 409.55 104.7 407.1 105.8 405.15 107.75 403.1 109.7 401.95 112.05 400.8 114.45 400.8 116.8
M 393.9 97.45
Q 393.05 98 392.6 98.75 391.6 100.3 390.25 104.1
L 390.15 104.35
Q 388.85 104.65 387.85 105.8 386.85 106.95 386.85 108.25 386.85 109 387.2 109.3 387.55 109.65 388.35 109.65 388.35 109.75 388.2 110.3 388.05 110.85 387.95 111.35 387.15 114.15 386.8 115.8 386.45 117.45 386.45 118.5 386.45 120.9 387.8 122.35 389.15 123.8 391.3 123.8 392.15 123.8 393.25 123.4 394.3 123.05 395.2 122.45 396.05 121.85 396.75 121.05 397.45 120.3 397.45 119.95 397.45 119.85 397.05 119.85
L 396.9 119.85
Q 393.75 119.85 393.75 116.6 393.75 115.9 393.85 115.1 394.1 112.9 394.25 111.7 394.6 110.3 394.85 109.5 396.4 109.4 397.05 109.1 397.95 108.65 398.5 107.75 399.05 106.8 399.05 105.7 399.05 105.1 398.65 104.85 398.3 104.65 397.05 104.45 396.75 104.35 396.4 104.35 396.9 102.2 397.95 99.8 398.55 98.35 398.55 97.85 398.55 97.15 398.1 96.8 397.7 96.45 396.85 96.45 395.45 96.45 393.9 97.45
M 337.5 96.65
Q 336.8 97.4 336.25 98.85 335.7 100.25 335.7 101.5 335.7 102.5 336.25 103.1 336.7 103.7 337.55 103.75
L 337.65 103.75
Q 339.05 103.75 340.1 102.1 341.15 100.45 341.15 98.2 341.15 97 340.7 96.5 340.25 96 339.2 96 338.2 96 337.5 96.65
M 454.6 97.3
Q 453.1 97.3 451.5 97.9 449.95 98.5 449.2 99.3 448.55 100 448.1 101.3 446.15 106.6 444.5 113.9 444.25 114.9 444.25 115.25 444.25 116.65 445.65 116.65 446.15 116.65 447 116.25 447.85 115.85 448.65 115.25 449.5 114.65 449.9 114.05 450.35 113.45 453.25 106.35 456 99.4 456 98.3 456 97.3 454.6 97.3 Z"/>
</g>

<g id="Layer0_0_MEMBER_1_FILL">
<path fill="#DCE6C4" stroke="none" d="
M 36.7 7.3
Q 34.65 5.65 31.8 5.65 29.9 5.65 27.75 6.5 25.55 7.35 23.25 8.9 20.95 10.5 19.1 12.45 16.9 14.65 15.2 17.45 13.5 20.15 12.55 22.85 11.6 25.55 11.6 27.85 11.6 30.6 13.05 32.85 14.45 35.1 17.1 36.4 19.7 37.65 22.9 37.65 23.8 37.65 24.95 37.4 28.25 36.6 31.45 35.25 34.6 33.85 35.95 32.65 36.4 32.3 36.85 31.3 37.3 30.3 37.6 29.25 37.95 28.15 37.95 27.35 37.95 26.6 37.5 26.6 37.15 26.6 35.8 27.4 35.5 27.65 34.65 28.1
L 33.85 28.6
Q 30.95 30.25 28.7 31.15 26.35 32 25.2 32 24 32 23.05 30.65 22 29.3 22 27.6
L 22 26.95 30.5 27.05
Q 32.35 27.05 34.6 25 36.85 22.8 36.85 21.85 36.85 20.75 34.85 20.75
L 22.45 20.75
Q 22.75 19.2 23.5 17.5 24.2 15.8 25.4 14.2 26.6 12.45 28.75 10.65 30.8 8.9 31.6 8.9 32.1 8.9 32.1 9.75 32.1 10.8 31.55 12.65 31.05 14.5 30.25 15.85 29.5 17.15 28.7 17.9 27.95 18.75 27.95 19.15 27.95 19.8 29.3 19.8 30.65 19.8 32.55 19 34.15 18.35 35.45 17.45 36.75 16.55 37.35 15.5 38 14.6 38.4 13.45 38.7 12.25 38.7 11.25 38.7 8.9 36.7 7.3
M 44.2 14.8
Q 43.3 14.8 42.5 15.25 41.6 15.85 41.1 17.9 40.55 19.85 40.55 22.8 40.55 24.9 40.8 27.15 41.1 29.4 41.6 31.6 42.1 33.8 42.75 35.3 43.55 37.8 45.55 37.8 46.7 37.8 48.25 36.45 49.85 35.1 52.15 32.1 53.45 30.55 54.65 28.95 55.75 27.35 56.65 25.95 57.55 24.5 58.1 23.4 58.55 22.55 58.7 21.65 58.9 20.75 58.9 19.5 58.9 15.25 57 15.25 56.4 15.25 56 15.65 55.6 16 55.05 17.2
L 54.2 18.95
Q 52.95 21.65 52.5 22.65 50.35 27.35 49.6 28.8 49.35 29.35 48.9 30.3
L 48.8 30.3 48.8 24.3
Q 48.8 21.45 48.75 19.8 48.65 18.15 48.45 17.4 48.15 16.6 47.7 16.1 47.15 15.45 46.25 15.1 45.25 14.8 44.2 14.8
M 83.65 24.5
Q 83.65 23 83.25 21.7 82.85 20.35 82.1 19.4 81.45 18.4 80.5 17.85 79.6 17.3 78.5 17.3 77.6 17.3 76.3 17.75 74.95 18.3 73.9 18.95 73 19.65 73 19.95 73 20.2 73.65 20.75 75.2 21.95 76 23.65 76.85 25.4 76.85 27.35 76.85 29.75 75.5 31.55 74.2 33.35 72.45 33.35 70.55 33.35 69.35 31.8 68.2 30.3 68.2 27.75 68.2 25.45 68.9 23.4 69.6 21.35 70.9 19.7 72.15 18.05 73.75 17.1 75.35 16.15 77.25 16 78.8 15.95 78.8 15.05 78.8 14.2 75.35 14.2 72.6 14.2 69.85 15.5 67.1 16.75 64.9 18.95 62.6 21.15 61.3 23.8 60 26.5 60 29.15 60 32.6 61.8 34.4 63.2 35.85 65.6 36.6 67.95 37.45 70.4 37.45 72.85 37.45 75.55 36.3 78.35 35.1 80.25 33.25 81.8 31.7 82.7 29.35 83.65 26.95 83.65 24.5
M 104.95 8.5
Q 104.45 7.1 103.45 6.35 102.45 5.6 101.15 5.6 99.5 5.6 98.15 6.6 96 8.1 93.8 11 91.55 13.8 89.7 17.4 87.8 20.95 86.7 24.4 85.6 27.85 85.6 30.45 85.6 33.65 87.6 35.6 89.5 37.6 92.65 37.6 95.2 37.6 97.65 36.1 100.05 34.65 101.65 32.3 103.15 29.9 103.15 27.4 103.15 26.3 102.5 26.3 101.9 26.3 100.9 27.65 99.65 29.5 98.1 30.65 96.5 31.7 95.2 31.7 94.5 31.7 94.15 31.05 93.8 30.35 93.8 28.85 93.8 27.1 94.1 25.4 94.35 23.7 95.1 21.2 95.85 18.75 97.2 14.95 97.8 13.25 98.7 11.6 99.65 9.95 100 9.95 100.25 9.95 100.25 10.3 100.25 11.9 99.6 14.75 99 17.6 98.1 20.2 97.9 20.7 97.8 21.05 97.7 21.25 97.6 21.55 96.5 24.15 95.7 25.4 95.1 26.35 95.1 26.7 95.1 27.35 95.9 27.35 96.75 27.35 97.85 26.65 98.95 25.95 100.15 24.7 102.7 22.15 104.1 18.75 105.55 15.25 105.55 11.6 105.55 9.95 104.95 8.5
M 128.5 18.95
Q 127.55 18.95 126.1 20.05 124.6 21.05 122.25 23.35
L 120.65 25
Q 119.3 26.3 118.55 27.2 117.45 28.5 116.9 29 116.3 29.45 116 29.45 115.65 29.45 115.65 28.95 115.65 28.05 117.6 23.8
L 117.9 23.15
Q 118.65 21.55 118.95 20.45 119.35 19.3 119.35 18.3 119.35 16.8 118.45 15.9 117.55 15 116.1 15 115 15 114.25 15.35 112.05 16.25 110.45 20.2 109.05 23.8 108.2 27.5 107.4 31.2 107.4 33.95 107.4 35.6 108.15 36.6 108.85 37.65 110.1 37.65 110.85 37.65 112.1 37.05 113.25 36.5 115.05 35.2 116.9 33.95 119.65 31.75 121.1 30.7 121.2 30.6
L 121.6 30.3
Q 121.55 31.1 121.5 31.65 121.45 32.15 121.45 32.4 121.45 34.05 122 35.2 122.6 36.35 123.65 36.95 124.7 37.5 126.25 37.5 127.9 37.5 129.1 37 130.35 36.45 130.35 35.75
L 130.2 34.4
Q 130.15 33.65 129.95 32.05 129.95 31.5 129.95 31.1 129.95 30.7 129.9 30.25 129.9 27.95 130.2 24.6 130.35 22.85 130.35 22.15 130.35 18.95 128.5 18.95
M 160.25 19.95
Q 160.25 18 159.45 16.75 158.65 15.5 157.3 15.5 156 15.5 155.3 16.4 153.5 18.55 152.1 23.4 150.6 28.2 150.6 32 150.6 33.75 150.95 34.8 151.35 35.9 152.2 36.8 153.05 37.7 154.1 37.75 154.95 37.75 155.55 37.4 156.45 36.8 157.05 35.1 158.6 30.8 159.45 26.85 160.25 22.9 160.25 19.95
M 145.15 15.2
L 145.05 15.2
Q 143.3 15.2 141.45 16.4 138.9 18.2 136.85 20.8 134.8 23.4 133.7 26.35 132.5 29.25 132.5 31.9 132.5 34.55 134.3 36.25 136.2 38 138.9 38 140.45 38 142.5 37.05 144.4 36.1 145.95 34.6 148.2 32.3 148.2 29.4 148.2 28.8 147.65 28.8 147.25 28.8 146.8 29.4 145.6 30.65 144.3 31.5 142.95 32.35 142.15 32.35 141.3 32.35 140.85 31.45 140.35 30.55 140.35 28.95 140.35 27.55 140.85 25.55 141.3 23.55 142.05 21.7 142.45 20.6 143.05 19.75 143.65 18.95 143.95 18.95 144.2 18.95 144.2 19.9 144.2 21.95 143.3 23.45 143 24.1 143 24.25 143 24.75 143.75 24.75 145 24.75 146.2 23.85 147.4 22.95 148.2 21.55 149 20.15 149 18.75 149 17.15 147.95 16.2 146.9 15.25 145.15 15.2
M 160.95 8.05
Q 160.95 6.75 160.45 6.2 159.9 5.65 158.75 5.65 158.05 5.65 157.6 5.8 157.25 6 156.75 6.45 156 7.3 155.35 8.9 154.7 10.6 154.7 11.9 154.7 14.45 156.9 14.5
L 156.95 14.5
Q 157.95 14.5 158.9 13.6 159.8 12.65 160.45 11.25 160.95 9.7 160.95 8.05
M 185.9 21.7
Q 185.5 20.35 184.75 19.4 184.1 18.4 183.15 17.85 182.25 17.3 181.15 17.3 180.25 17.3 178.95 17.75 177.6 18.3 176.55 18.95 175.6 19.65 175.6 19.95 175.6 20.2 176.3 20.75 177.8 21.95 178.65 23.65 179.5 25.4 179.5 27.35 179.5 29.75 178.15 31.55 176.85 33.35 175.1 33.35 173.2 33.35 172 31.8 170.85 30.3 170.85 27.75 170.85 25.45 171.55 23.4 172.25 21.35 173.55 19.7 174.8 18.05 176.4 17.1 178 16.15 179.9 16 181.45 15.95 181.45 15.05 181.45 14.2 178 14.2 175.25 14.2 172.5 15.5 169.75 16.75 167.55 18.95 165.25 21.15 163.95 23.8 162.65 26.5 162.65 29.15 162.65 32.6 164.45 34.4 165.85 35.85 168.25 36.6 170.6 37.45 173.05 37.45 175.5 37.45 178.2 36.3 181 35.1 182.9 33.25 184.45 31.7 185.35 29.35 186.3 26.95 186.3 24.5 186.3 23 185.9 21.7
M 210.1 21.95
Q 210.1 19.8 209.4 18.9 208.75 18.05 207.1 18.05 206.1 18.05 205.15 18.55 204.1 19.05 202.9 20.2 201.65 21.35 199.55 23.7
L 198.15 25.35 198.1 25.2
Q 199 20.95 199 18.7 199 15.5 196.6 15.5 195.15 15.5 194.1 16.6 192.55 18.15 191.5 21.05 190.8 22.75 190.25 24.65 189.6 26.5 189.2 28.35 188.75 30.15 188.5 31.7 188.25 33.3 188.25 34.35 188.25 36.1 189.15 37.25 190.15 38.3 191.6 38.3 192.65 38.3 193.5 37.45 194.15 36.8 194.8 35.85 196.6 33.45 199.2 30.55 199.7 29.9 200.35 29.3 200.95 28.65 202 27.55
L 202.05 27.6
Q 201.75 29.45 201.75 30.8 201.75 32.8 202.35 34.4 202.95 36 204 36.9 205.1 37.8 206.45 37.8 207.2 37.8 208.4 37.35 209.6 36.9 210.35 36.25 210.6 36.05 210.6 35.65 210.6 35.4 210.35 34.55 210.05 33.7 209.9 32.8 209.65 31.3 209.65 29 209.65 26.95 209.95 24.65 210.1 22.85 210.1 21.95
M 235.45 19.5
Q 235.45 17.65 233.6 16.5 231.65 15.25 228.65 15.25 225.15 15.25 221.35 17.75 217.65 20.2 215.25 23.75 213.75 25.9 213 28.1 212.15 30.35 212.15 32 212.15 34.7 213.85 36.4 215.5 38.15 218.1 38.15 219.35 38.15 220.9 37.35 222.4 36.5 224.2 34.95 226 33.3 228.15 30.8
L 228.2 30.85
Q 228.15 31.25 228.15 31.9 228.15 37.85 231.75 37.85 233.05 37.85 234.35 37.25 235.6 36.55 237 35.2 236.55 34.15 236.4 33.05 236.35 32.6 236.3 31.95 236.15 31.25 236.15 30.7 236.15 30.2 236.15 29.15 236.15 27.15 236.3 24.9
L 236.4 23.9
Q 236.4 22.95 236.05 22.7 235.8 22.4 234.5 22.4 235.45 20.9 235.45 19.5
M 226.4 18.45
Q 226.85 18.45 227.2 19.25 227.55 20.1 227.55 21.05 227.55 22.8 226.25 24.75 225.85 25.45 225.85 25.6 225.85 26.05 226.75 26.05 227.55 26.05 229.2 25.6
L 229.65 25.5 229.75 25.55 229.05 26.05
Q 226.8 28.45 224.95 29.9 223.15 31.3 222.45 31.3 221.65 31.3 221.15 30.45 220.6 29.7 220.6 28.4 220.6 26.45 221.9 24 223.15 21.55 225.3 19.25 226.05 18.45 226.4 18.45
M 272.85 22.4
Q 272.85 20.5 272.1 19.5 271.35 18.5 269.9 18.5 269 18.5 268.1 19.25 267.15 19.85 265.45 21.7 262.9 24.3 262.3 24.9 262 25.15 261.75 25.45 261.4 25.75 261.15 26 260.9 26.25 260.6 26.6
L 260.5 26.45
Q 260.6 26.15 260.8 25.65 260.95 25.15 261.25 24.3 262.7 20.2 262.7 19.25 262.7 18.2 262.25 17.4 261.8 16.5 261.1 15.9 260.4 15.4 259.6 15.4 257.8 15.4 255.65 17.4 254 18.85 250.75 22.85 248.8 25.15 247.95 26.15
L 247.85 26.05
Q 248.4 24.4 248.95 23.1 250.2 19.45 250.2 17.75 250.2 16.8 249.45 16.2 248.6 15.65 247.35 15.65 245.3 15.65 243.7 18.05 242.6 19.75 240.65 24.9 238.35 30.6 238.35 33.2 238.35 35.2 239.3 36.4 240.1 37.6 241.65 37.6 242.3 37.6 243.15 37 244 36.5 245.1 35.45 246.15 34.35 247.95 32.2 250.1 29.6 252.35 27.25
L 252.5 27.35
Q 252.35 27.6 252.25 27.95 252.1 28.25 251.9 28.7 251.05 30.9 250.8 32.05 250.45 33.2 250.45 34.15 250.45 35.65 251.45 36.75 252.35 37.75 253.8 37.75 254.7 37.75 255.45 37.3 256.2 36.85 257.45 35.6
L 263.75 29.15 264.15 28.55 264.3 28.65
Q 264 32.4 264 33.5 264 35.3 264.15 36.45 264.35 37.5 264.75 38.35 265.1 39.15 265.9 39.95 267.55 41.65 269.45 41.65 270.65 41.65 271.65 41.1 272.75 40.5 272.9 39.65 272.8 38.95 272.5 37.65 272.3 36.6 272.2 35.75 272 34.95 271.95 34.2 271.9 33.4 271.9 32.9 271.9 32.3 272.05 30.65 272.2 29 272.45 26.15 272.85 23.6 272.85 22.4
M 288.15 19.95
Q 288.15 20.2 288.8 20.75 290.35 21.95 291.2 23.65 292.05 25.4 292.05 27.35 292.05 29.75 290.7 31.55 289.4 33.35 287.65 33.35 285.7 33.35 284.55 31.8 283.35 30.3 283.35 27.75 283.35 25.45 284.1 23.4 284.75 21.35 286.05 19.7 287.3 18.05 288.95 17.1 290.5 16.15 292.45 16 293.95 15.95 293.95 15.05 293.95 14.2 290.5 14.2 287.75 14.2 285.05 15.5 282.3 16.75 280.1 18.95 277.75 21.15 276.45 23.8 275.15 26.5 275.15 29.15 275.15 32.6 276.95 34.4 278.4 35.85 280.75 36.6 283.1 37.45 285.55 37.45 288.05 37.45 290.75 36.3 293.5 35.1 295.45 33.25 296.95 31.7 297.85 29.35 298.8 26.95 298.8 24.5 298.8 23 298.4 21.7 298 20.35 297.3 19.4 296.6 18.4 295.65 17.85 294.75 17.3 293.7 17.3 292.75 17.3 291.5 17.75 290.1 18.3 289.05 18.95 288.15 19.65 288.15 19.95
M 309.6 24.15
Q 309.6 22.95 310.1 21.65 310.6 20.35 311.5 19.35 311.85 18.85 313 18.05 313.8 19.35 313.8 20.8 313.8 22.35 313.3 24.3 313.15 24.95 313.15 25.3 313.15 25.55 313.65 25.85 314.1 26.15 314.7 26.15 315.9 26.15 317.15 25.2 318.4 24.25 319.25 22.85 320.1 21.45 320.1 20.15 320.1 18.8 319.3 17.65 318.55 16.5 317.25 15.8 315.95 15.1 314.5 15.1 311.4 15.1 308.4 16.8 305.4 18.5 303.5 21.15 301.5 23.8 301.5 26.45 301.5 28 302.6 29 303.65 30.35 307.4 31.45 309.85 32.1 310.6 32.85 311.3 33.4 311.3 34.4 311.3 35.95 310.15 37.2 309.05 38.45 307.65 38.55 306.95 37.65 306.95 36.7 306.95 35.3 307.85 33.7 308.1 33.1 308.1 32.9 308.1 32.45 307.1 32.45 305.7 32.45 304.3 33.3 302.8 34.1 301.85 35.4 300.85 36.6 300.85 37.9 300.85 39.65 302.35 40.7 303.8 41.7 306.35 41.7 309.05 41.7 311.25 40.85 313.45 40.05 315.65 38.2 317.7 36.45 318.75 34.8 319.75 33.2 319.75 31.6 319.75 30.1 318.85 29.15 318.3 28.65 318 28.5 316.8 27.8 313.8 27.1 312.05 26.7 311.25 26.3 310.4 25.95 310 25.45 309.6 25 309.6 24.15
M 345.95 22.8
Q 346.35 20.65 346.35 18.7 346.35 17.25 345.55 16.4 344.75 15.5 343.5 15.5 342.3 15.5 341 16.75 339.95 18 339.45 19.2 338.6 21 338.1 23.6 337.5 26.15 337.15 30.75 337.15 31.1 337.05 31.6 337 32.1 336.95 32.55 336.9 32.5 336.85 32.5 336.8 32.45 336.75 32.4 336.4 32.1 336.15 32.1 335.6 32.1 335.1 34.15 334.6 36.15 334.6 38.8 334.6 41.2 335.3 42.95 336 44.7 337 44.7 337.5 44.7 337.8 44.3 338.8 43.15 339.8 41.3 340.75 39.45 341.45 37.35 343.55 31.2 344.6 28.1 345.55 24.95 345.95 22.8
M 346.25 6.25
Q 345.75 5.7 344.6 5.7 343.45 5.7 342.65 6.45 341.85 7.3 341.25 8.9 340.65 10.5 340.65 11.9 340.65 13.05 341.25 13.7 341.75 14.4 342.7 14.45
L 342.85 14.45
Q 344.4 14.45 345.6 12.6 346.8 10.7 346.8 8.2 346.8 6.85 346.25 6.25
M 369.6 18.95
Q 368.6 18.95 367.15 20.05 365.7 21.05 363.3 23.35
L 361.75 25
Q 360.4 26.3 359.65 27.2 358.5 28.5 357.95 29 357.4 29.45 357.05 29.45 356.7 29.45 356.7 28.95 356.7 28.05 358.7 23.8
L 358.95 23.15
Q 359.7 21.55 360.05 20.45 360.45 19.3 360.45 18.3 360.45 16.8 359.55 15.9 358.65 15 357.15 15 356.1 15 355.3 15.35 353.1 16.25 351.5 20.2 350.1 23.8 349.25 27.5 348.45 31.2 348.45 33.95 348.45 35.6 349.2 36.6 349.95 37.65 351.2 37.65 351.9 37.65 353.15 37.05 354.35 36.5 356.15 35.2 357.95 33.95 360.7 31.75 362.2 30.7 362.3 30.6
L 362.7 30.3
Q 362.65 31.1 362.6 31.65 362.5 32.15 362.5 32.4 362.5 34.05 363.1 35.2 363.65 36.35 364.7 36.95 365.8 37.5 367.3 37.5 368.95 37.5 370.2 37 371.45 36.45 371.45 35.75
L 371.25 34.4
Q 371.2 33.65 371.05 32.05 371.05 31.5 371.05 31.1 371.05 30.7 371 30.25 371 27.95 371.25 24.6 371.45 22.85 371.45 22.15 371.45 18.95 369.6 18.95
M 388.2 20.2
Q 386.95 21.35 384.85 23.7
L 383.45 25.35 383.4 25.2
Q 384.3 20.95 384.3 18.7 384.3 15.5 381.95 15.5 380.45 15.5 379.4 16.6 377.85 18.15 376.8 21.05 376.1 22.75 375.55 24.65 374.95 26.5 374.55 28.35 374.1 30.15 373.8 31.7 373.6 33.3 373.6 34.35 373.6 36.1 374.5 37.25 375.45 38.3 376.9 38.3 378 38.3 378.85 37.45 379.45 36.8 380.15 35.85 381.95 33.45 384.55 30.55 385.05 29.9 385.65 29.3 386.3 28.65 387.3 27.55
L 387.35 27.6
Q 387.05 29.45 387.05 30.8 387.05 32.8 387.7 34.4 388.25 36 389.35 36.9 390.4 37.8 391.75 37.8 392.55 37.8 393.75 37.35 394.9 36.9 395.65 36.25 395.95 36.05 395.95 35.65 395.95 35.4 395.65 34.55 395.35 33.7 395.2 32.8 394.95 31.3 394.95 29 394.95 26.95 395.25 24.65 395.4 22.85 395.4 21.95 395.4 19.8 394.75 18.9 394.05 18.05 392.45 18.05 391.4 18.05 390.45 18.55 389.45 19.05 388.2 20.2
M 409.65 6.2
Q 408.05 6.2 406.3 7.35 405.35 7.95 404.85 8.8 403.7 10.55 402.2 14.85
L 402.1 15.1
Q 400.6 15.45 399.5 16.75 398.35 18.05 398.35 19.5 398.35 20.35 398.75 20.7 399.15 21.1 400.05 21.1 400.05 21.2 399.9 21.85 399.7 22.45 399.6 23 398.7 26.2 398.3 28.05 397.9 29.9 397.9 31.1 397.9 33.8 399.45 35.45 400.95 37.05 403.4 37.05 404.35 37.05 405.6 36.6 406.75 36.25 407.8 35.55 408.75 34.85 409.55 33.95 410.3 33.1 410.3 32.75 410.3 32.6 409.85 32.6
L 409.7 32.6
Q 406.15 32.6 406.15 28.95 406.15 28.15 406.25 27.25 406.55 24.75 406.7 23.4 407.1 21.85 407.4 20.95 409.15 20.8 409.85 20.5 410.9 19.95 411.5 18.95 412.1 17.9 412.1 16.65 412.1 15.95 411.65 15.7 411.3 15.45 409.85 15.25 409.55 15.1 409.15 15.1 409.7 12.7 410.9 10 411.55 8.35 411.55 7.8 411.55 7 411.05 6.6 410.6 6.2 409.65 6.2
M 434.6 17.85
Q 433.7 17.3 432.6 17.3 431.7 17.3 430.4 17.75 429.05 18.3 428 18.95 427.1 19.65 427.1 19.95 427.1 20.2 427.75 20.75 429.3 21.95 430.15 23.65 430.95 25.4 430.95 27.35 430.95 29.75 429.6 31.55 428.3 33.35 426.55 33.35 424.65 33.35 423.45 31.8 422.3 30.3 422.3 27.75 422.3 25.45 423 23.4 423.7 21.35 425 19.7 426.25 18.05 427.85 17.1 429.45 16.15 431.35 16 432.9 15.95 432.9 15.05 432.9 14.2 429.45 14.2 426.7 14.2 423.95 15.5 421.2 16.75 419 18.95 416.7 21.15 415.4 23.8 414.1 26.5 414.1 29.15 414.1 32.6 415.9 34.4 417.3 35.85 419.7 36.6 422.05 37.45 424.5 37.45 426.95 37.45 429.65 36.3 432.45 35.1 434.35 33.25 435.9 31.7 436.8 29.35 437.75 26.95 437.75 24.5 437.75 23 437.35 21.7 436.95 20.35 436.2 19.4 435.55 18.4 434.6 17.85
M 462.55 32
Q 461.05 34.35 461.05 35.85 461.05 36.6 461.6 37.15 462.2 37.65 463.1 37.65 464.6 37.65 466.45 36.35 467.25 35.85 467.6 35.3 468.15 34.35 468.55 33.2 469 32 469 31.2 469 30.55 468.45 30.15 467.9 29.75 467 29.75 465.95 29.75 464.9 30.2 463.85 30.65 463.15 31.3 462.85 31.6 462.55 32
M 448.5 24.15
Q 448.5 22.95 449.05 21.65 449.55 20.35 450.45 19.35 450.8 18.85 451.9 18.05 452.75 19.35 452.75 20.8 452.75 22.35 452.25 24.3 452.1 24.95 452.1 25.3 452.1 25.55 452.6 25.85 453.05 26.15 453.65 26.15 454.85 26.15 456.1 25.2 457.35 24.25 458.15 22.85 459 21.45 459 20.15 459 18.8 458.25 17.65 457.5 16.5 456.2 15.8 454.9 15.1 453.45 15.1 450.35 15.1 447.35 16.8 444.35 18.5 442.45 21.15 440.45 23.8 440.45 26.45 440.45 28 441.5 29 442.6 30.35 446.3 31.45 448.8 32.1 449.55 32.85 450.2 33.4 450.2 34.4 450.2 35.95 449.1 37.2 447.95 38.45 446.6 38.55 445.85 37.65 445.85 36.7 445.85 35.3 446.75 33.7 447.05 33.1 447.05 32.9 447.05 32.45 446.05 32.45 444.65 32.45 443.2 33.3 441.75 34.1 440.8 35.4 439.8 36.6 439.8 37.9 439.8 39.65 441.3 40.7 442.7 41.7 445.3 41.7 447.95 41.7 450.15 40.85 452.35 40.05 454.55 38.2 456.65 36.45 457.65 34.8 458.7 33.2 458.7 31.6 458.7 30.1 457.8 29.15 457.2 28.65 456.95 28.5 455.75 27.8 452.75 27.1 451 26.7 450.15 26.3 449.3 25.95 448.9 25.45 448.5 25 448.5 24.15
M 474.8 7.15
Q 473.15 7.15 471.3 7.85 469.55 8.5 468.7 9.4 468 10.2 467.5 11.7 465.3 17.65 463.4 25.9 463.15 27.05 463.15 27.4 463.15 29 464.7 29 465.3 29 466.25 28.55 467.2 28.1 468.1 27.4 469.05 26.75 469.5 26.05 470 25.4 473.3 17.4 476.4 9.55 476.4 8.3 476.4 7.15 474.8 7.15 Z"/>
</g>
</defs>

<g transform="matrix( 1.1286163330078125, 0, 0, 1.1286163330078125, -41.05,-99.8) ">
<use xlink:href="#Layer0_0_MEMBER_0_FILL"/>
</g>

<g transform="matrix( 1, 0, 0, 1, 0,0) ">
<use xlink:href="#Layer0_0_MEMBER_1_FILL"/>
</g>
</svg>
