
<svg xmlns="http://www.w3.org/2000/svg" version="1.1" xmlns:xlink="http://www.w3.org/1999/xlink" preserveAspectRatio="none" x="0px" y="0px" width="336px" height="70px" viewBox="0 0 336 70">
<defs>
<linearGradient id="Gradient_1" gradientUnits="userSpaceOnUse" x1="17.5" y1="36.95" x2="32.6" y2="36.95" spreadMethod="pad">
<stop  offset="0%" stop-color="#FFFFFF"/>

<stop  offset="100%" stop-color="#A4A4A4"/>
</linearGradient>

<linearGradient id="Gradient_2" gradientUnits="userSpaceOnUse" x1="33.75" y1="39.15" x2="47.650000000000006" y2="39.15" spreadMethod="pad">
<stop  offset="0%" stop-color="#FFFFFF"/>

<stop  offset="100%" stop-color="#A4A4A4"/>
</linearGradient>

<linearGradient id="Gradient_3" gradientUnits="userSpaceOnUse" x1="47.675" y1="38.8" x2="61.425" y2="38.8" spreadMethod="pad">
<stop  offset="0%" stop-color="#FFFFFF"/>

<stop  offset="100%" stop-color="#A4A4A4"/>
</linearGradient>

<linearGradient id="Gradient_4" gradientUnits="userSpaceOnUse" x1="63.800000000000004" y1="35.1" x2="70.60000000000001" y2="35.1" spreadMethod="pad">
<stop  offset="0%" stop-color="#FFFFFF"/>

<stop  offset="100%" stop-color="#A4A4A4"/>
</linearGradient>

<linearGradient id="Gradient_5" gradientUnits="userSpaceOnUse" x1="103.3" y1="37.35" x2="108.8" y2="37.35" spreadMethod="pad">
<stop  offset="0%" stop-color="#FFFFFF"/>

<stop  offset="100%" stop-color="#A4A4A4"/>
</linearGradient>

<linearGradient id="Gradient_6" gradientUnits="userSpaceOnUse" x1="72.35" y1="38.25" x2="85.75" y2="38.25" spreadMethod="pad">
<stop  offset="0%" stop-color="#FFFFFF"/>

<stop  offset="100%" stop-color="#A4A4A4"/>
</linearGradient>

<linearGradient id="Gradient_7" gradientUnits="userSpaceOnUse" x1="89.02499999999999" y1="37.65" x2="101.575" y2="37.65" spreadMethod="pad">
<stop  offset="0%" stop-color="#FFFFFF"/>

<stop  offset="100%" stop-color="#A4A4A4"/>
</linearGradient>

<linearGradient id="Gradient_8" gradientUnits="userSpaceOnUse" x1="106.65" y1="25.85" x2="109.85" y2="25.85" spreadMethod="pad">
<stop  offset="0%" stop-color="#FFFFFF"/>

<stop  offset="100%" stop-color="#A4A4A4"/>
</linearGradient>

<linearGradient id="Gradient_9" gradientUnits="userSpaceOnUse" x1="144.15" y1="36.15" x2="158.95000000000002" y2="36.15" spreadMethod="pad">
<stop  offset="0%" stop-color="#FFFFFF"/>

<stop  offset="100%" stop-color="#A4A4A4"/>
</linearGradient>

<linearGradient id="Gradient_10" gradientUnits="userSpaceOnUse" x1="111.075" y1="37.05" x2="124.825" y2="37.05" spreadMethod="pad">
<stop  offset="0%" stop-color="#FFFFFF"/>

<stop  offset="100%" stop-color="#A4A4A4"/>
</linearGradient>

<linearGradient id="Gradient_11" gradientUnits="userSpaceOnUse" x1="127.19999999999999" y1="36.45" x2="141.5" y2="36.45" spreadMethod="pad">
<stop  offset="0%" stop-color="#FFFFFF"/>

<stop  offset="100%" stop-color="#A4A4A4"/>
</linearGradient>

<linearGradient id="Gradient_12" gradientUnits="userSpaceOnUse" x1="187.35" y1="34.95" x2="201.15" y2="34.95" spreadMethod="pad">
<stop  offset="0%" stop-color="#FFFFFF"/>

<stop  offset="100%" stop-color="#A4A4A4"/>
</linearGradient>

<linearGradient id="Gradient_13" gradientUnits="userSpaceOnUse" x1="161.6" y1="35.35" x2="184.70000000000002" y2="35.35" spreadMethod="pad">
<stop  offset="0%" stop-color="#FFFFFF"/>

<stop  offset="100%" stop-color="#A4A4A4"/>
</linearGradient>

<linearGradient id="Gradient_14" gradientUnits="userSpaceOnUse" x1="202.95000000000002" y1="34.5" x2="214.65" y2="34.5" spreadMethod="pad">
<stop  offset="0%" stop-color="#FFFFFF"/>

<stop  offset="100%" stop-color="#A4A4A4"/>
</linearGradient>

<linearGradient id="Gradient_15" gradientUnits="userSpaceOnUse" x1="222.525" y1="33.25" x2="235.67499999999998" y2="33.25" spreadMethod="pad">
<stop  offset="0%" stop-color="#FFFFFF"/>

<stop  offset="100%" stop-color="#A4A4A4"/>
</linearGradient>

<linearGradient id="Gradient_16" gradientUnits="userSpaceOnUse" x1="237.775" y1="33.65" x2="251.225" y2="33.65" spreadMethod="pad">
<stop  offset="0%" stop-color="#FFFFFF"/>

<stop  offset="100%" stop-color="#A4A4A4"/>
</linearGradient>

<linearGradient id="Gradient_17" gradientUnits="userSpaceOnUse" x1="254.70000000000002" y1="32.9" x2="269" y2="32.9" spreadMethod="pad">
<stop  offset="0%" stop-color="#FFFFFF"/>

<stop  offset="100%" stop-color="#A4A4A4"/>
</linearGradient>

<linearGradient id="Gradient_18" gradientUnits="userSpaceOnUse" x1="272.875" y1="31.3" x2="281.92499999999995" y2="31.3" spreadMethod="pad">
<stop  offset="0%" stop-color="#FFFFFF"/>

<stop  offset="100%" stop-color="#A4A4A4"/>
</linearGradient>

<linearGradient id="Gradient_19" gradientUnits="userSpaceOnUse" x1="312.65" y1="37.7" x2="315.85" y2="37.7" spreadMethod="pad">
<stop  offset="0%" stop-color="#FFFFFF"/>

<stop  offset="100%" stop-color="#A4A4A4"/>
</linearGradient>

<linearGradient id="Gradient_20" gradientUnits="userSpaceOnUse" x1="282.45000000000005" y1="32.3" x2="296.25" y2="32.3" spreadMethod="pad">
<stop  offset="0%" stop-color="#FFFFFF"/>

<stop  offset="100%" stop-color="#A4A4A4"/>
</linearGradient>

<linearGradient id="Gradient_21" gradientUnits="userSpaceOnUse" x1="314" y1="26.1" x2="319.20000000000005" y2="26.1" spreadMethod="pad">
<stop  offset="0%" stop-color="#FFFFFF"/>

<stop  offset="100%" stop-color="#A4A4A4"/>
</linearGradient>

<linearGradient id="Gradient_22" gradientUnits="userSpaceOnUse" x1="298.04999999999995" y1="31.85" x2="309.75" y2="31.85" spreadMethod="pad">
<stop  offset="0%" stop-color="#FFFFFF"/>

<stop  offset="100%" stop-color="#A4A4A4"/>
</linearGradient>

<g id="Layer0_0_FILL">
<path fill="#000000" fill-opacity="0.5568627450980392" stroke="none" d="
M 27.95 34.95
L 28.2 33.75 21.95 33.75 21.7 34.95 27.95 34.95
M 31.2 26.3
L 31.45 25.1 23.65 25.1 23.4 26.3 31.2 26.3
M 33.8 29.55
L 32.75 29.55 34.65 44.4 37.4 44.4 38.15 43.2 35.55 43.2 33.8 29.55
M 21 24.15
L 20.35 24.15 16.3 44.4 28.2 44.4 28.45 43.2 17.2 43.2 21 24.15
M 74.25 29.55
L 73.55 29.55 71.45 40.2
Q 71.3 41 71.3 41.9 71.3 43.4 71.95 44.1 72.55 44.75 73.55 44.75 75.4 44.75 77.15 42.9 78.15 41.9 79.05 40.6 78.55 41.2 78.05 41.7 76.3 43.55 74.45 43.55 73.45 43.55 72.85 42.9 72.2 42.2 72.2 40.7 72.2 39.8 72.35 39
L 74.25 29.55
M 44.25 29.55
L 44.05 29.55 37.7 40 37.7 40.2 44.25 29.55
M 49.6 31.9
Q 48.65 32.95 47.9 34.5 46.6 37.1 46.6 39.75 46.6 41.85 47.85 43.3 49.05 44.75 51.5 44.75 54.15 44.75 56.05 43.35 57.4 42.35 58.45 40.8 57.75 41.55 56.95 42.15 55.05 43.55 52.4 43.55 49.95 43.55 48.75 42.1 47.5 40.65 47.5 38.55 47.5 35.9 48.8 33.3 49.15 32.55 49.6 31.9
M 55.75 30.05
Q 53.6 30.05 52 32.5 51.95 32.6 51.9 32.7 53.2 31.25 54.85 31.25 56.2 31.25 56.9 32.1 57.6 33 57.6 34.8 57.6 37.65 56.15 40.05 56.55 39.6 56.9 39.05 58.5 36.6 58.5 33.6 58.5 31.8 57.8 30.9 57.1 30.05 55.75 30.05
M 67.65 22.8
L 67 22.8 62.7 44.4 65.4 44.4 65.65 43.2 63.6 43.2 67.65 22.8
M 105.9 29.55
L 105.25 29.55 102.3 44.4 105 44.4 105.25 43.2 103.2 43.2 105.9 29.55
M 113.15 31.9
Q 112.2 32.95 111.45 34.5 110.15 37.1 110.15 39.75 110.15 41.85 111.4 43.3 112.6 44.75 115.05 44.75 117.7 44.75 119.6 43.35 120.95 42.35 122 40.8 121.3 41.55 120.5 42.15 118.6 43.55 115.95 43.55 113.5 43.55 112.3 42.1 111.05 40.65 111.05 38.55 111.05 35.9 112.35 33.3 112.7 32.55 113.15 31.9
M 121.35 30.9
Q 120.65 30.05 119.3 30.05 117.15 30.05 115.55 32.5 115.5 32.6 115.45 32.7 116.75 31.25 118.4 31.25 119.75 31.25 120.45 32.1 121.15 33 121.15 34.8 121.15 37.65 119.7 40.05 120.1 39.6 120.45 39.05 122.05 36.6 122.05 33.6 122.05 31.8 121.35 30.9
M 81.9 44.4
L 82.15 43.2 80.1 43.2 81.3 37.15
Q 80.8 38.05 80.3 38.85
L 79.2 44.4 81.9 44.4
M 82.05 33.6
L 82.85 29.55 82.15 29.55 81.15 34.8
Q 79.8 36.95 78.7 38.45 80.1 36.7 82.05 33.6
M 90.75 32.5
Q 89.95 33.4 89.35 34.5 88.05 36.85 88.05 39.5 88.05 42 89.3 43.35 90.55 44.75 92.85 44.75 95.25 44.75 98.35 43.4
L 98.55 42.5
Q 95.85 43.55 93.75 43.55 91.45 43.55 90.2 42.15 88.95 40.8 88.95 38.3 88.95 35.65 90.25 33.3 90.5 32.9 90.75 32.5
M 94.15 32.25
Q 95.55 31.25 97.2 31.25 98.7 31.25 100.3 31.85
L 100.6 30.45
Q 99.3 30.05 98.1 30.05 96.45 30.05 95.05 31.05 94 31.8 93.25 33.05 93.65 32.6 94.15 32.25
M 107 24.15
L 106.35 24.15 105.8 26.85 108.5 26.85 108.75 25.65 106.7 25.65 107 24.15
M 153.45 43.2
L 154.65 37.15
Q 154.2 37.95 153.7 38.65
L 152.55 44.4 155.3 44.4 155.55 43.2 153.45 43.2
M 144.2 43.8
Q 144.95 44.75 146.15 44.75 147.95 44.75 150 43 151.5 41.75 152.8 39.85 151.9 40.95 150.9 41.8 148.85 43.55 147.05 43.55 145.75 43.55 145 42.45 144.25 41.4 144.2 40.05
L 144.2 43.8
M 146.75 32.6
Q 145.7 33.85 144.85 35.45 144.5 36.15 144.2 36.85
L 144.2 39.75
Q 144.25 37.15 145.75 34.25 146.2 33.35 146.75 32.6
M 156 30.45
Q 155.5 30.2 155 30.1 154.45 29.95 153.9 29.95 152.4 29.95 150.8 31.25 149.8 32 149.05 33.25 149.45 32.8 149.9 32.45 151.5 31.15 153 31.15 153.55 31.15 154.1 31.3 154.6 31.4 155.1 31.65
L 154.4 35.1
Q 154.25 35.3 154.15 35.5 154.7 34.75 155.3 33.9
L 156 30.45
M 129.85 29.55
L 129.2 29.55 126.25 44.4 128.95 44.4 129.2 43.2 127.15 43.2 129.85 29.55
M 132.85 35.35
Q 133.65 34.35 134.3 33.65 135.95 31.9 137.05 31.9 137.4 31.9 137.65 32.2 137.9 32.5 137.9 32.95 137.9 33.35 137.8 33.7
L 135.7 44.4 138.4 44.4 138.65 43.2 136.6 43.2 138.7 32.5
Q 138.8 32.15 138.8 31.75 138.8 31.3 138.55 31 138.3 30.7 137.95 30.7 136.85 30.7 135.2 32.45 134.25 33.5 132.85 35.35
M 132.65 32.8
Q 132.15 33.4 131.65 34.1
L 131.6 34.4
Q 132.1 33.55 132.65 32.8
M 188.8 33.3
Q 189.15 32.55 189.6 31.9 188.65 32.95 187.9 34.5 186.6 37.1 186.6 39.75 186.6 41.85 187.85 43.3 189.05 44.75 191.5 44.75 194.15 44.75 196.05 43.35 197.4 42.35 198.45 40.8 197.75 41.55 196.95 42.15 195.05 43.55 192.4 43.55 189.95 43.55 188.75 42.1 187.5 40.65 187.5 38.55 187.5 35.9 188.8 33.3
M 194.85 31.25
Q 196.2 31.25 196.9 32.1 197.6 33 197.6 34.8 197.6 37.65 196.15 40.05 196.55 39.6 196.9 39.05 198.5 36.6 198.5 33.6 198.5 31.8 197.8 30.9 197.1 30.05 195.75 30.05 193.6 30.05 192 32.5 191.95 32.6 191.9 32.7 193.2 31.25 194.85 31.25
M 164.3 29.55
L 163.65 29.55 160.7 44.4 163.4 44.4 163.65 43.2 161.6 43.2 164.3 29.55
M 166.05 34.4
Q 166.4 33.7 166.9 33 166.5 33.5 166.15 34
L 166.05 34.4
M 181.1 32.9
Q 181.1 33.3 181.05 33.6
L 178.9 44.4 181.6 44.4 181.85 43.2 179.8 43.2 181.95 32.4
Q 182 32.1 182 31.7 182 31.2 181.75 30.95 181.55 30.7 181.25 30.7 179.85 30.7 175.9 35.9 179.1 31.9 180.35 31.9 180.65 31.9 180.85 32.15 181.1 32.4 181.1 32.9
M 175.15 34.4
Q 175.6 33.6 176.15 32.85 175.65 33.4 175.25 34.05
L 175.15 34.4
M 172.85 32.4
Q 172.9 32.1 172.9 31.7 172.9 31.2 172.65 30.95 172.4 30.7 172.15 30.7 170.7 30.7 166.85 35.85 170 31.9 171.25 31.9 171.5 31.9 171.75 32.15 172 32.4 172 32.9 172 33.3 171.95 33.6
L 169.8 44.4 172.5 44.4 172.75 43.2 170.7 43.2 172.85 32.4
M 222.3 45.6
L 221.8 48
Q 223.65 48.45 224.6 48.45 226.55 48.45 227.9 47.75 229.3 47 230.25 45.6 230.35 45.45 230.5 45.25 229.75 46.05 228.8 46.55 227.45 47.25 225.5 47.25 224.55 47.25 222.7 46.8
L 222.9 45.85
Q 222.6 45.7 222.3 45.6
M 212 42.3
Q 211.95 42.35 211.85 42.4 210.4 43.55 207.95 43.55 207.25 43.55 206.45 43.45 205.7 43.3 204.95 43.1 204.25 42.9 203.05 42.4
L 203.2 41.65
Q 202.9 41.5 202.6 41.35
L 202.15 43.6
Q 203.35 44.1 204.05 44.3 204.8 44.5 205.55 44.65 206.35 44.75 207.05 44.75 209.5 44.75 210.95 43.6 211.65 43 212 42.3
M 206.15 30.45
Q 206.1 30.45 206.05 30.5 204.8 31.85 204.8 33.25 204.8 34.05 205.2 34.9 205.6 35.75 207.2 37.35
L 208.4 38.65
Q 209.15 39.4 209.4 39.85 209.7 40.25 209.7 40.8 209.7 41 209.7 41.2 209.8 41.1 209.95 41 210.6 40.45 210.6 39.6 210.6 39.05 210.3 38.65 210.05 38.2 209.3 37.45
L 208.1 36.15
Q 206.5 34.55 206.1 33.7 205.7 32.85 205.7 32.05 205.7 31.2 206.15 30.45
M 213.6 32.35
L 213.9 30.9
Q 212.65 30.3 212.1 30.2 211.35 30.05 210.65 30.05 209.5 30.05 208.95 30.55 208.5 30.95 208.45 31.5 208.95 31.25 209.75 31.25 210.45 31.25 211.2 31.4 211.9 31.55 213.6 32.35
M 233 24.15
L 232.35 24.15 228.7 42.45
Q 228.45 43.6 228.1 44.45 229.15 43.5 229.6 41.25
L 233 24.15
M 272.75 29.55
L 272.35 31.6 274.6 31.6 273.05 39.45
Q 272.8 40.7 272.8 41.6 272.8 42.95 273.8 43.85 274.8 44.75 276.75 44.75 277.55 44.75 278.5 44.45
L 278.7 43.45
Q 278.15 43.55 277.65 43.55 275.7 43.55 274.7 42.65 273.7 41.75 273.7 40.4 273.7 39.5 273.95 38.25
L 275.5 30.4 273.25 30.4 273.45 29.55 272.75 29.55
M 281.05 31.6
L 281.35 30.4 278.2 30.4 277.95 31.6 281.05 31.6
M 275.25 28.35
L 275.9 28.35 276.25 26.8 275.55 26.85 275.25 28.35
M 244.9 40.6
Q 244.4 41.2 243.9 41.7 242.15 43.55 240.3 43.55 239.3 43.55 238.7 42.9 238.05 42.2 238.05 40.7 238.05 39.8 238.2 39
L 240.1 29.55 239.4 29.55 237.3 40.2
Q 237.15 41 237.15 41.9 237.15 43.4 237.8 44.1 238.4 44.75 239.4 44.75 241.25 44.75 243 42.9 244 41.9 244.9 40.6
M 247.15 37.15
Q 246.65 38.05 246.15 38.85
L 245.05 44.4 247.75 44.4 248 43.2 245.95 43.2 247.15 37.15
M 248 29.55
L 247 34.8
Q 245.65 36.95 244.55 38.45 245.95 36.7 247.9 33.6
L 248.7 29.55 248 29.55
M 263 32.45
Q 262.05 33.5 260.65 35.35 261.45 34.35 262.1 33.65 263.75 31.9 264.85 31.9 265.2 31.9 265.45 32.2 265.7 32.5 265.7 32.95 265.7 33.35 265.6 33.7
L 263.5 44.4 266.2 44.4 266.45 43.2 264.4 43.2 266.5 32.5
Q 266.6 32.15 266.6 31.75 266.6 31.3 266.35 31 266.1 30.7 265.75 30.7 264.65 30.7 263 32.45
M 257.65 29.55
L 257 29.55 254.05 44.4 256.75 44.4 257 43.2 254.95 43.2 257.65 29.55
M 259.45 34.1
L 259.4 34.4
Q 259.9 33.6 260.4 32.85 259.9 33.45 259.45 34.1
M 313.3 41.7
L 312.65 41.7 312.1 44.4 314.8 44.4 315.05 43.2 313 43.2 313.3 41.7
M 307.4 30.2
Q 306.65 30.05 305.95 30.05 304.8 30.05 304.25 30.55 303.8 30.95 303.75 31.5 304.25 31.25 305.05 31.25 305.75 31.25 306.5 31.4 307.2 31.55 308.9 32.35
L 309.2 30.9
Q 307.95 30.3 307.4 30.2
M 298.35 42.4
L 298.5 41.65
Q 298.2 41.5 297.9 41.35
L 297.45 43.6
Q 298.65 44.1 299.35 44.3 300.1 44.5 300.85 44.65 301.65 44.75 302.35 44.75 304.8 44.75 306.25 43.6 306.95 43 307.3 42.3 307.25 42.35 307.15 42.4 305.7 43.55 303.25 43.55 302.55 43.55 301.75 43.45 301 43.3 300.25 43.1 299.55 42.9 298.35 42.4
M 284.1 33.3
Q 284.45 32.55 284.9 31.9 283.95 32.95 283.2 34.5 281.9 37.1 281.9 39.75 281.9 41.85 283.15 43.3 284.35 44.75 286.8 44.75 289.45 44.75 291.35 43.35 292.7 42.35 293.75 40.8 293.05 41.55 292.25 42.15 290.35 43.55 287.7 43.55 285.25 43.55 284.05 42.1 282.8 40.65 282.8 38.55 282.8 35.9 284.1 33.3
M 293.1 30.9
Q 292.4 30.05 291.05 30.05 288.9 30.05 287.3 32.5 287.25 32.6 287.2 32.7 288.5 31.25 290.15 31.25 291.5 31.25 292.2 32.1 292.9 33 292.9 34.8 292.9 37.65 291.45 40.05 291.85 39.6 292.2 39.05 293.8 36.6 293.8 33.6 293.8 31.8 293.1 30.9
M 301.45 30.45
Q 301.4 30.45 301.35 30.5 300.1 31.85 300.1 33.25 300.1 34.05 300.5 34.9 300.9 35.75 302.5 37.35
L 303.7 38.65
Q 304.45 39.4 304.7 39.85 305 40.25 305 40.8 305 41 305 41.2 305.1 41.1 305.25 41 305.9 40.45 305.9 39.6 305.9 39.05 305.6 38.65 305.35 38.2 304.6 37.45
L 303.4 36.15
Q 301.8 34.55 301.4 33.7 301 32.85 301 32.05 301 31.2 301.45 30.45
M 316.8 24.15
L 316.1 24.15 313.5 39 315.55 39 315.85 37.8 314.4 37.8 316.8 24.15 Z"/>
</g>

<g id="Layer0_0_MEMBER_0_FILL">
<path fill="url(#Gradient_1)" stroke="none" d="
M 32.2 28.75
L 32.6 26.6 21.35 26.9 17.5 47.3 29.4 47 29.75 44.8 20.75 45.05 22.15 37.75 29.05 37.55 29.5 35.35 22.55 35.55 23.8 29 32.2 28.75 Z"/>

<path fill="url(#Gradient_2)" stroke="none" d="
M 47.65 31.55
L 45.05 31.65 37.9 43.75 36.3 31.9 33.75 31.95 35.8 46.8 38.55 46.7 47.65 31.55 Z"/>

<path fill="url(#Gradient_3)" stroke="none" d="
M 60.2 32.35
Q 59.05 30.9 56.45 30.95 53.9 31.05 52 32.5 50.75 33.5 49.75 35.1 49.3 35.75 48.95 36.55 47.7 39.15 47.7 41.8 47.7 43.9 49 45.35 50.2 46.75 52.6 46.7 55.25 46.6 57.15 45.15 57.95 44.55 58.6 43.75 59.5 42.65 60.25 41.1 61.5 38.55 61.45 35.9 61.45 33.8 60.2 32.35
M 57.9 33.9
Q 58.6 34.75 58.6 36.55 58.65 39.55 57.05 42.05 56.7 42.6 56.3 43.1 55 44.55 53.2 44.6 52 44.65 51.25 43.75 50.6 42.9 50.6 41.15 50.55 38.25 52.05 35.85 52.05 35.75 52.1 35.65 53.7 33.15 55.85 33.1 57.2 33.05 57.9 33.9 Z"/>

<path fill="url(#Gradient_4)" stroke="none" d="
M 70.6 24.2
L 67.9 24.25 63.8 46 66.5 45.95 70.6 24.2 Z"/>

<path fill="url(#Gradient_5)" stroke="none" d="
M 108.8 29.85
L 106.1 29.95 103.3 44.9 106 44.85 108.8 29.85 Z"/>

<path fill="url(#Gradient_6)" stroke="none" d="
M 85.75 30.5
L 83.05 30.6 82.1 35.9
Q 80.2 39.05 78.8 40.85 78.55 41.15 78.35 41.4 76.85 43.3 75.85 43.35 75.5 43.35 75.3 43.05 75.05 42.8 75.05 42.3 75.05 41.9 75.15 41.55
L 77.2 30.75 74.45 30.8 72.5 41.6
Q 72.35 42.4 72.35 43.3 72.4 44.8 73.05 45.45 73.65 46.1 74.6 46.05 76.45 46 78.2 44.1 78.65 43.6 79.15 43 79.8 42.2 80.4 41.2 80.9 40.4 81.4 39.5
L 80.25 45.55 82.95 45.5 85.75 30.5 Z"/>

<path fill="url(#Gradient_7)" stroke="none" d="
M 100.6 32.25
Q 100.9 32.35 101.2 32.45
L 101.6 30.2
Q 99.65 29.75 98.1 29.8 95.85 29.9 93.7 31.45 92 32.7 90.8 34.55 90.55 35 90.3 35.4 89.05 37.75 89.05 40.4 89.05 42.9 90.35 44.25 91.6 45.6 93.9 45.55 96 45.5 98.65 44.35 99 44.2 99.35 44.05
L 99.85 41.4
Q 98.75 42.1 97.8 42.5 96.9 42.8 96.05 43.05 95.25 43.25 94.7 43.25 93.55 43.3 92.7 42.55 91.9 41.85 91.9 40.2 91.9 38.1 92.75 36.05 93 35.5 93.3 35.05 94.05 33.8 95.1 33 96.5 31.95 98.1 31.9 99.3 31.9 100.6 32.25 Z"/>

<path fill="url(#Gradient_8)" stroke="none" d="
M 109.85 24.45
L 107.15 24.5 106.65 27.25 109.35 27.15 109.85 24.45 Z"/>

<path fill="url(#Gradient_9)" stroke="none" d="
M 155.05 28.35
Q 154.5 28.25 154.05 28.25 151.55 28.35 149.35 30.1 147.8 31.3 146.65 33.1 146.1 33.9 145.65 34.8 144.15 37.85 144.15 40.55 144.2 41.95 145 43 145.75 44.1 147.05 44.05 148.85 44 150.9 42.2 151.85 41.3 152.75 40.2 153.2 39.65 153.65 38.95 154.15 38.25 154.6 37.45
L 153.45 43.55 156.2 43.45 158.95 28.45 156.25 28.55
Q 155.65 28.35 155.05 28.35
M 153.8 30.25
Q 154.35 30.25 154.9 30.4 155.4 30.45 155.9 30.7
L 155.2 34.2
Q 154.6 35.05 154.1 35.8
L 153.95 36
Q 149.9 41.35 148.15 41.4 147.6 41.4 147.3 41 147.05 40.55 147.05 39.95 147.05 37.95 148.05 35.5 148.45 34.5 148.95 33.7 149.7 32.45 150.7 31.65 152.3 30.3 153.8 30.25 Z"/>

<path fill="url(#Gradient_10)" stroke="none" d="
M 124.85 34.1
Q 124.85 32 123.6 30.6 122.45 29.15 119.85 29.2 117.35 29.3 115.45 30.75 114.15 31.7 113.15 33.35 112.7 34 112.35 34.75 111.1 37.4 111.1 40.05 111.1 42.15 112.4 43.55 113.6 45 116.05 44.9 118.7 44.85 120.55 43.4 121.35 42.75 122 42 122.9 40.9 123.65 39.35 124.9 36.75 124.85 34.1
M 115.45 34.1
Q 115.5 34 115.55 33.9 117.15 31.4 119.25 31.35 120.6 31.3 121.3 32.1 122 33 122 34.8 122.05 37.8 120.45 40.3 120.1 40.85 119.7 41.3 118.45 42.8 116.65 42.85 115.4 42.9 114.65 42 114 41.15 114 39.4 113.95 36.5 115.45 34.1 Z"/>

<path fill="url(#Gradient_11)" stroke="none" d="
M 140.75 29.35
Q 140.1 28.65 139 28.7 137 28.75 135.1 30.7 133.75 32.05 132.6 33.7 132.05 34.45 131.55 35.35
L 132.7 29.2 130 29.3 127.2 44.25 129.9 44.2 130.9 38.95
Q 131.6 37.9 132.3 37 134 34.55 135.15 33.3 136.8 31.5 137.9 31.45 138.25 31.45 138.5 31.75 138.75 32.05 138.75 32.5 138.75 32.9 138.65 33.25
L 136.65 44 139.35 43.9 141.35 33.25
Q 141.5 32.45 141.5 31.5 141.45 30 140.75 29.35 Z"/>

<path fill="url(#Gradient_12)" stroke="none" d="
M 201.15 32
Q 201.15 29.9 199.9 28.5 198.75 27 196.15 27.1 193.6 27.15 191.7 28.6 190.4 29.6 189.4 31.25 188.95 31.9 188.6 32.65 187.35 35.3 187.35 37.95 187.35 40.05 188.65 41.45 189.85 42.85 192.3 42.8 194.95 42.75 196.85 41.25 197.65 40.65 198.3 39.9 199.2 38.75 199.95 37.25 201.2 34.65 201.15 32
M 197.6 30
Q 198.3 30.9 198.3 32.7 198.35 35.7 196.75 38.15 196.4 38.75 196 39.2 194.7 40.7 192.9 40.75 191.65 40.75 190.9 39.9 190.25 39 190.25 37.25 190.2 34.35 191.7 31.95 191.75 31.85 191.8 31.75 193.4 29.25 195.55 29.2 196.9 29.15 197.6 30 Z"/>

<path fill="url(#Gradient_13)" stroke="none" d="
M 181.1 30.25
Q 181.4 30.25 181.6 30.5 181.85 30.75 181.85 31.25 181.85 31.65 181.8 31.95
L 179.75 42.8 182.45 42.7 184.5 31.85
Q 184.7 30.8 184.7 30.05 184.65 28.6 184 28.05 183.3 27.45 182.4 27.45 180.45 27.55 178.5 29.55 177.1 30.85 176 32.55 175.45 33.3 175 34.15
L 175.4 32.1
Q 175.6 31.05 175.6 30.3 175.55 28.85 174.85 28.3 174.2 27.7 173.3 27.7 171.3 27.8 169.2 30 167.75 31.45 166.75 32.95 166.25 33.65 165.9 34.4
L 167.05 28.25 164.35 28.3 161.6 43.3 164.25 43.25 165.3 37.8 166.75 35.8
Q 170.55 30.55 172 30.5 172.25 30.5 172.5 30.75 172.75 31 172.75 31.5 172.75 31.9 172.7 32.2
L 170.65 43.05 173.35 43 174.35 37.55
Q 174.5 37.35 174.65 37.2
L 175.8 35.6
Q 179.7 30.3 181.1 30.25 Z"/>

<path fill="url(#Gradient_14)" stroke="none" d="
M 213.65 29.55
Q 213.95 29.65 214.25 29.8
L 214.65 27.4
Q 212.95 26.85 212.1 26.8 211.3 26.65 210.5 26.7 207.95 26.75 206.7 28.1 206.25 28.7 205.95 29.3 205.5 30.1 205.5 30.95 205.5 31.75 205.9 32.55 206.3 33.4 207.95 34.95
L 209.1 36.25
Q 209.85 36.95 210.1 37.4 210.4 37.8 210.4 38.35 210.4 39.2 209.75 39.75 209.6 39.85 209.5 39.95 208.9 40.3 208.05 40.3 206.2 40.35 203.35 39.1
L 202.95 41.35
Q 204.15 41.8 204.85 42 205.6 42.2 206.35 42.3 207.15 42.4 207.85 42.35 210.25 42.3 211.7 41.1 211.8 41.05 211.85 41 213.05 39.8 213.05 38.05 213.05 37 212.6 36.2 212.15 35.3 211 34.25
L 209.6 32.85
Q 208.65 31.9 208.4 31.45 208.2 31.05 208.2 30.55 208.2 30.4 208.25 30.3 208.3 29.75 208.75 29.35 209.25 28.85 210.4 28.8 211.1 28.75 211.85 28.9 212.4 29 213.65 29.55 Z"/>

<path fill="url(#Gradient_15)" stroke="none" d="
M 235.7 20.95
L 232.85 21 229.45 39.45
Q 229 41.75 227.95 42.7 227.2 43.35 226.15 43.35 224.7 43.4 223.05 42.8
L 222.55 45.2
Q 224.45 45.6 225.4 45.6 227.35 45.55 228.65 44.8 229.6 44.25 230.35 43.45 230.7 43.05 231 42.55 231.95 41.15 232.6 37.35
L 235.7 20.95 Z"/>

<path fill="url(#Gradient_16)" stroke="none" d="
M 251.25 25.9
L 248.55 26 247.6 31.3
Q 245.7 34.45 244.3 36.25 244.05 36.55 243.85 36.8 242.35 38.7 241.35 38.75 241 38.75 240.8 38.45 240.55 38.2 240.55 37.7 240.55 37.3 240.65 36.95
L 242.7 26.15 239.95 26.2 237.95 37
Q 237.8 37.8 237.8 38.7 237.85 40.2 238.5 40.85 239.1 41.5 240.1 41.45 241.95 41.4 243.7 39.5 244.15 39 244.65 38.4 245.3 37.6 245.9 36.6 246.4 35.8 246.9 34.9
L 245.75 40.95 248.45 40.9 251.25 25.9 Z"/>

<path fill="url(#Gradient_17)" stroke="none" d="
M 260.05 30.2
Q 259.55 31 259.05 31.8
L 260.2 25.65 257.5 25.75 254.7 40.7 257.4 40.65 258.4 35.4
Q 259.1 34.35 259.8 33.45 261.5 31 262.65 29.75 264.3 27.95 265.4 27.9 265.75 27.9 266 28.2 266.25 28.5 266.25 28.95 266.25 29.35 266.15 29.7
L 264.15 40.45 266.85 40.4 268.85 29.7
Q 269 28.9 269 27.95 268.95 26.45 268.25 25.8 267.6 25.1 266.5 25.15 264.5 25.2 262.6 27.15 261.25 28.5 260.05 30.2 Z"/>

<path fill="url(#Gradient_18)" stroke="none" d="
M 278.75 22.15
L 276 22.5 275.5 25.25 273.25 25.3 272.9 27.4 275.15 27.35 273.65 35.25
Q 273.4 36.5 273.4 37.4 273.45 38.75 274.45 39.6 275.45 40.5 277.35 40.45 277.85 40.4 278.4 40.3 278.75 40.2 279.1 40.1
L 279.5 38.1
Q 278.6 38.35 277.9 38.35 276.85 38.4 276.4 37.95 276.05 37.5 276.05 36.95 276.05 36.55 276.2 35.45
L 277.8 27.25 281.55 27.15 281.95 25.05 278.15 25.15 278.75 22.15 Z"/>

<path fill="url(#Gradient_19)" stroke="none" d="
M 315.35 39.05
L 315.85 36.3 313.15 36.4 312.65 39.1 315.35 39.05 Z"/>

<path fill="url(#Gradient_20)" stroke="none" d="
M 295.05 34.6
Q 296.3 32 296.25 29.35 296.25 27.25 295 25.85 293.85 24.35 291.25 24.45 288.7 24.5 286.8 25.95 285.5 26.95 284.5 28.6 284.05 29.25 283.7 30 282.45 32.65 282.45 35.3 282.45 37.4 283.75 38.8 284.95 40.2 287.4 40.15 290.05 40.1 291.95 38.65 292.75 38 293.4 37.25 294.3 36.1 295.05 34.6
M 290.65 26.55
Q 292 26.55 292.7 27.35 293.4 28.25 293.4 30.05 293.45 33.05 291.85 35.55 291.5 36.1 291.1 36.55 289.8 38.05 288 38.1 286.75 38.1 286 37.25 285.35 36.35 285.35 34.6 285.3 31.7 286.8 29.3 286.85 29.2 286.9 29.1 288.5 26.6 290.65 26.55 Z"/>

<path fill="url(#Gradient_21)" stroke="none" d="
M 319.2 18.6
L 316.45 18.7 314 33.65 316.05 33.6 319.2 18.6 Z"/>

<path fill="url(#Gradient_22)" stroke="none" d="
M 307.2 24.15
Q 306.4 24 305.6 24.05 303 24.1 301.75 25.45 301.3 26.05 301 26.65 300.55 27.45 300.55 28.3 300.55 29.1 300.95 29.95 301.35 30.75 303 32.3
L 304.2 33.6
Q 304.95 34.3 305.2 34.75 305.5 35.15 305.5 35.7 305.5 36.55 304.85 37.1 304.7 37.2 304.6 37.35 304 37.65 303.1 37.65 301.25 37.7 298.4 36.45
L 298.05 38.7
Q 299.2 39.2 299.9 39.35 300.65 39.55 301.4 39.65 302.2 39.75 302.9 39.7 305.35 39.65 306.8 38.45 306.9 38.4 306.95 38.35 308.15 37.2 308.15 35.45 308.15 34.4 307.7 33.55 307.25 32.65 306.1 31.6
L 304.7 30.2
Q 303.7 29.25 303.45 28.8 303.25 28.4 303.25 27.9 303.25 27.75 303.3 27.65 303.35 27.1 303.8 26.7 304.35 26.2 305.5 26.15 306.2 26.15 306.95 26.25 307.5 26.35 308.75 26.9 309.05 27 309.35 27.15
L 309.75 24.8
Q 308.05 24.25 307.2 24.15 Z"/>
</g>
</defs>

<g transform="matrix( 1, 0, 0, 1, 0,0) ">
<use xlink:href="#Layer0_0_FILL"/>
</g>

<g transform="matrix( 1, 0, 0, 1, 0,0) ">
<use xlink:href="#Layer0_0_MEMBER_0_FILL"/>
</g>
</svg>
