<svg xmlns="http://www.w3.org/2000/svg" xmlns:xlink="http://www.w3.org/1999/xlink" viewBox="0 0 597.93 64.48"><defs><symbol id="Nuevo_símbolo_11" data-name="Nuevo símbolo 11" viewBox="0 0 597.93 64.48"><path d="M27,26.8A4.58,4.58,0,0,1,30.3,28a4.31,4.31,0,0,1,1.21,3.25,5.61,5.61,0,0,1-.1,1.07,7,7,0,0,1-.23,1c-.56-.09-1.19-.17-1.88-.23s-1.52-.1-2.47-.1a33.13,33.13,0,0,0-5.66.49c-1.9.32-3.73.6-5.46.81Q14.23,37.66,13,40.89t-2.11,5.89c-.59,1.78-1,3.32-1.36,4.62A18.83,18.83,0,0,0,9,54.33q5.27-1.2,10.63-2a72.77,72.77,0,0,1,11.28-.84,11.91,11.91,0,0,1,1.2,2.33,7.63,7.63,0,0,1,.49,2.72v.82a3.42,3.42,0,0,1-.13.89H19.26c-1.28,0-2.57.07-3.87.2s-2.68.33-4.13.56-3.09.51-4.91.83q-3-1.17-5.78-5.72,1.1-2.34,3.08-7.13c1.33-3.19,3-7.45,5-12.79A5.55,5.55,0,0,1,4.86,30.9a5.6,5.6,0,0,1,1.88-.82c1-.32,2.32-.66,3.84-1,.65-1.69,1.2-3.17,1.66-4.42s.85-2.44,1.2-3.55.66-2.18.94-3.25.55-2.22.81-3.47a5.16,5.16,0,0,1-3.57-1.16,3.81,3.81,0,0,1-1.3-3A5.69,5.69,0,0,1,10.48,9a9.88,9.88,0,0,1,.36-1.26c.86.07,1.7.1,2.5.1H24.16a57.43,57.43,0,0,0,6.47-.33c1.93-.22,3.59-.42,5-.61a23.81,23.81,0,0,1,3.19-.29,3.33,3.33,0,0,1,2.66,1.56,11.09,11.09,0,0,1,1.76,4.43,25.9,25.9,0,0,0-3.29-.27H37.68a54.43,54.43,0,0,0-6.53.35q-3,.36-5.69.75c-.26.39-.55.88-.87,1.48s-.75,1.45-1.27,2.53-1.16,2.44-1.92,4.08-1.68,3.69-2.76,6.15c1.64-.26,3.19-.47,4.64-.62S26,26.8,27,26.8Z" style="fill:#17c61a;stroke:#2d440d;stroke-miterlimit:10"/><path d="M41.45,31.48a14.06,14.06,0,0,1,.17-2.21,4.11,4.11,0,0,1,.68-1.79,3.55,3.55,0,0,1,1.43-1.17,5.77,5.77,0,0,1,2.4-.42,12.3,12.3,0,0,1,2,.2,3.09,3.09,0,0,1,1.66.71q-.27,1.11-.42,1.95a17.93,17.93,0,0,0-.26,1.85c-.07.68-.12,1.48-.17,2.41s-.08,2.13-.13,3.61c-.08,2.94-.22,5.58-.42,7.89a33.63,33.63,0,0,1-1.33,6.93c0,.17.06.26.19.26a15.49,15.49,0,0,0,2.21-2.08c.83-.91,1.69-1.94,2.6-3.09s1.82-2.37,2.73-3.67S56.6,40.28,57.38,39q1.56-2.73,3.44-6.82a53.17,53.17,0,0,0,3.12-8.78,4.58,4.58,0,0,1,1,.16c.41.11.82.24,1.24.39a10.55,10.55,0,0,1,1.1.49,2.78,2.78,0,0,1,.68.46,17,17,0,0,1-1.33,5.72,39.08,39.08,0,0,1-2.89,5.65,57.73,57.73,0,0,1-3.58,5.14q-1.87,2.4-3.44,4.16a73.79,73.79,0,0,1-6.27,6.5A51.29,51.29,0,0,1,43,57.61a6.86,6.86,0,0,1-2.67-1.72,3.31,3.31,0,0,1-1-2.24,5.41,5.41,0,0,1,.36-1.79c.23-.67.5-1.54.81-2.6a32.78,32.78,0,0,0,.81-4,42.53,42.53,0,0,0,.36-6.11c0-1.43,0-2.87-.1-4.32S41.45,32.26,41.45,31.48Z" style="fill:#17c61a;stroke:#2d440d;stroke-miterlimit:10"/><path d="M74.67,56.77a8.3,8.3,0,0,1-5.92-3.25,11.6,11.6,0,0,1-2.21-7.28,20.08,20.08,0,0,1,.78-5.4,26.36,26.36,0,0,1,2.21-5.43,31.11,31.11,0,0,1,3.38-5,24.65,24.65,0,0,1,4.23-4,11.38,11.38,0,0,1,6.69-2.66c1.39.73,2.75,2.27,4.1,4.61a5.09,5.09,0,0,0,.58,0,5.28,5.28,0,0,1,.59,0c2.29,0,3.44,2,3.44,6.11a22.48,22.48,0,0,1-1.33,7.76,23.76,23.76,0,0,1-3.7,6.67,22.14,22.14,0,0,1-5.66,5A22.49,22.49,0,0,1,74.67,56.77ZM78,36.29a31.23,31.23,0,0,0-2.08,3.25,31.68,31.68,0,0,0-1.69,3.54,25.31,25.31,0,0,0-1.1,3.45,13,13,0,0,0-.39,3,8.63,8.63,0,0,0,.52,3q.51,1.43,1.17,1.62a14,14,0,0,0,5.36-2.44A17.63,17.63,0,0,0,84,47.21a22,22,0,0,0,2.79-6,25.25,25.25,0,0,0,1-7.22,14.1,14.1,0,0,0-.2-2.66A4.73,4.73,0,0,0,87,29.6a14,14,0,0,0-5.1,2.73A26.67,26.67,0,0,0,78,36.29Z" style="fill:#17c61a;stroke:#2d440d;stroke-miterlimit:10"/><path d="M95.6,50.33a33.85,33.85,0,0,1,1.36-8q1.37-5.16,3.84-12,4-11,7.57-18.3A57.68,57.68,0,0,1,115.29.54a8,8,0,0,1,1.92.65c.76.35,1.51.73,2.24,1.14a17.53,17.53,0,0,1,2,1.27,5,5,0,0,1,1.13,1,79,79,0,0,0-8.9,12.87,105.13,105.13,0,0,0-7,15.79,129,129,0,0,0-4.16,13.81,46.41,46.41,0,0,0-1.43,10.24v1.37a2.37,2.37,0,0,0,.06.52,5.21,5.21,0,0,1-1.56-.46,1.7,1.7,0,0,1-.84-.78,3.67,3.67,0,0,0-.72-.94,6.86,6.86,0,0,0-1-.94,3.5,3.5,0,0,1-1-2A16.4,16.4,0,0,1,95.6,50.33Z" style="fill:#17c61a;stroke:#2d440d;stroke-miterlimit:10"/><path d="M128.68,53.06a5.11,5.11,0,0,1-1.66-2.6,10.53,10.53,0,0,1-.42-2.66,7.33,7.33,0,0,1,.33-2.34c-.18,0-.57.34-1.17,1s-1.27,1.52-2,2.47-1.42,1.88-2.11,2.78-1.21,1.58-1.56,2a9.92,9.92,0,0,1-1.59,1.43,3.34,3.34,0,0,1-1.2.58,7.2,7.2,0,0,1-2.18-.36,8.82,8.82,0,0,1-2.15-1,7.27,7.27,0,0,1-1.75-1.57,4.85,4.85,0,0,1-1-2.09c0-1.21,0-2.21.1-3a16,16,0,0,1,.42-2.53,52.2,52.2,0,0,1,1.72-5.59,61.18,61.18,0,0,1,2.64-6.15,42.43,42.43,0,0,1,3.34-5.65,17.21,17.21,0,0,1,3.94-4.13,10.24,10.24,0,0,1,1.36.1,7.88,7.88,0,0,1,1.59.36,12,12,0,0,1,1.56.61,4,4,0,0,1,1.27.95c-.39.43-1.37,1.88-3,4.35a73.36,73.36,0,0,0-5.29,10.66,21.18,21.18,0,0,0-.78,2.08c-.31.91-.61,1.86-.91,2.86a28.69,28.69,0,0,0-.75,2.93,11.53,11.53,0,0,0-.29,2.27,1.47,1.47,0,0,0,.16.78,2.06,2.06,0,0,0,.29.39,7.55,7.55,0,0,0,2.47-2.14c1-1.17,2.38-3,4.16-5.4.43-.6.94-1.3,1.53-2.08s1.18-1.61,1.79-2.5,1.18-1.81,1.72-2.76a19.75,19.75,0,0,0,1.33-2.86c.17-.52.4-1.14.68-1.86s.63-1.46,1-2.24a27.64,27.64,0,0,1,1.43-2.37,13.48,13.48,0,0,1,1.92-2.24,9.31,9.31,0,0,1,1.82.19,14.27,14.27,0,0,1,1.85.49,8.48,8.48,0,0,1,1.53.65,3.53,3.53,0,0,1,1,.75c-.78,1.9-1.65,3.79-2.6,5.65s-1.85,3.7-2.67,5.49a47,47,0,0,0-2.08,5.37,17.22,17.22,0,0,0-.84,5.2,11,11,0,0,0,.22,2.37,15.06,15.06,0,0,0,.49,1.69c.17.45.34.83.49,1.14a1.82,1.82,0,0,1,.23.78s-.05.1-.13.19a.24.24,0,0,1-.13.07,4.6,4.6,0,0,1-1.17-.2,13.94,13.94,0,0,1-1.6-.55c-.58-.24-1.17-.51-1.75-.81A17.7,17.7,0,0,1,128.68,53.06Z" style="fill:#17c61a;stroke:#2d440d;stroke-miterlimit:10"/><path d="M143.18,43.05a17.81,17.81,0,0,1,1.52-7.18,22.28,22.28,0,0,1,4-6.18,20.8,20.8,0,0,1,5.72-4.35,14.35,14.35,0,0,1,6.67-1.66,7.41,7.41,0,0,1,5.2,1.69,6.26,6.26,0,0,1,1.82,4.81,9.63,9.63,0,0,1-.43,2.89,10.64,10.64,0,0,1-1.1,2.51A6.57,6.57,0,0,1,165,37.36a3,3,0,0,1-1.82.69,3.19,3.19,0,0,1-1.6-.49,4.25,4.25,0,0,1-1.33-1.27c2.9-2.64,4.36-5.05,4.36-7.21q0-1.89-1.5-1.89a6.46,6.46,0,0,0-3.25,1.24,18,18,0,0,0-3.77,3.25,22.41,22.41,0,0,0-4.26,6.92,22.07,22.07,0,0,0-1.46,8q0,5.27,2.34,6.31a11.66,11.66,0,0,0,2.28-.59,23.91,23.91,0,0,0,2.79-1.2c1-.5,2-1.07,3.09-1.72S163,48,164,47.28a1.92,1.92,0,0,1,.65,1.3,24.21,24.21,0,0,1-2.54,2.66,26.8,26.8,0,0,1-3,2.37,25.76,25.76,0,0,1-3,1.82,9.45,9.45,0,0,1-2.57,1,9.35,9.35,0,0,1-4-1.34,11.63,11.63,0,0,1-3.28-2.95,15,15,0,0,1-3-9Z" style="fill:#17c61a;stroke:#2d440d;stroke-miterlimit:10"/><path d="M170.15,50.14a12.73,12.73,0,0,1,.1-1.47q.09-.87.36-2.34c.17-1,.4-2.15.68-3.54s.64-3,1.07-5a20.73,20.73,0,0,1,.59-2.08,24.33,24.33,0,0,1,1.2-3A19,19,0,0,1,176,29.6a6.59,6.59,0,0,1,2.57-2.21,11.16,11.16,0,0,1,2.92,1.33,9.85,9.85,0,0,1,3.12,3,21.75,21.75,0,0,0-2.5,3.38,32.31,32.31,0,0,0-1.82,3.51c-.54,1.21-1,2.47-1.5,3.77s-1,2.66-1.52,4.09c-.48,1.21-.91,2.46-1.3,3.74a13.69,13.69,0,0,0-.65,3.35c0,.78,0,1.33,0,1.65s-.14.49-.35.49a3.66,3.66,0,0,1-1-.32,6.7,6.7,0,0,1-1.6-1,7.33,7.33,0,0,1-1.46-1.72A4.62,4.62,0,0,1,170.15,50.14Zm12.42-28.21a5.26,5.26,0,0,1,.19-1.17,2.58,2.58,0,0,1-.55-1,3.61,3.61,0,0,1-.23-1.17,11.71,11.71,0,0,1,.16-1.59c.11-.67.25-1.4.43-2.18s.39-1.59.65-2.44.52-1.61.78-2.3a5.66,5.66,0,0,1,1.91.42,15.08,15.08,0,0,1,2.31,1.1,16.39,16.39,0,0,1,2.15,1.5,8.75,8.75,0,0,1,1.49,1.53c-.48.47-1.1,1.13-1.88,2s-1.54,1.73-2.28,2.66-1.41,1.81-2,2.64a14.16,14.16,0,0,0-1.17,1.75,2.58,2.58,0,0,1-1.37-.68A1.54,1.54,0,0,1,182.57,21.93Z" style="fill:#17c61a;stroke:#2d440d;stroke-miterlimit:10"/><path d="M193.1,56.77a8.28,8.28,0,0,1-5.92-3.25A11.6,11.6,0,0,1,185,46.24a20.08,20.08,0,0,1,.78-5.4A26.36,26.36,0,0,1,188,35.41a30.46,30.46,0,0,1,3.38-5,24.65,24.65,0,0,1,4.23-4,11.38,11.38,0,0,1,6.69-2.66c1.39.73,2.75,2.27,4.1,4.61a5.09,5.09,0,0,0,.58,0,5.15,5.15,0,0,1,.59,0c2.29,0,3.44,2,3.44,6.11a22.48,22.48,0,0,1-1.33,7.76,23.54,23.54,0,0,1-3.71,6.67,21.93,21.93,0,0,1-5.65,5A22.49,22.49,0,0,1,193.1,56.77Zm3.31-20.48a29.66,29.66,0,0,0-2.08,3.25,31.68,31.68,0,0,0-1.69,3.54,24,24,0,0,0-1.1,3.45,13,13,0,0,0-.39,3,8.63,8.63,0,0,0,.52,3q.51,1.43,1.17,1.62a14,14,0,0,0,5.36-2.44,17.59,17.59,0,0,0,4.22-4.45,22,22,0,0,0,2.8-6,25.25,25.25,0,0,0,1-7.22,14.1,14.1,0,0,0-.2-2.66,4.93,4.93,0,0,0-.65-1.69,13.83,13.83,0,0,0-5.1,2.73A25.72,25.72,0,0,0,196.41,36.29Z" style="fill:#17c61a;stroke:#2d440d;stroke-miterlimit:10"/><path d="M224.62,23a6.84,6.84,0,0,1,3.19,2.3A12.31,12.31,0,0,1,230,29.21a32.06,32.06,0,0,1-2.21,4.22q-1.5,2.48-3,5c-1,1.71-1.9,3.34-2.7,4.87a12.26,12.26,0,0,0-1.4,3.81c.69-.74,1.46-1.6,2.31-2.57s1.67-1.95,2.47-2.93,1.55-1.86,2.24-2.66,1.24-1.4,1.63-1.79c.82-.86,1.79-1.87,2.92-3a47.14,47.14,0,0,1,3.54-3.25,26,26,0,0,1,3.74-2.6A7.05,7.05,0,0,1,243,27.26a3.86,3.86,0,0,1,2.82,1.13,9.71,9.71,0,0,1,1.79,2.38c0,.08-.16.2-.49.35a5.59,5.59,0,0,0-1.39,1.27,25.23,25.23,0,0,0-2.05,3.22c-.76,1.36-1.5,2.84-2.21,4.42a35.64,35.64,0,0,0-1.79,4.84,16.14,16.14,0,0,0-.71,4.49,3.39,3.39,0,0,0,.42,2.08,1.56,1.56,0,0,0,1.2.45,4,4,0,0,0,1.5-.32,3.42,3.42,0,0,1,1.23-.33,1,1,0,0,1,.42.55,2.15,2.15,0,0,1,.17.75,10.24,10.24,0,0,1-1.24.91,15.52,15.52,0,0,1-1.49.85,14,14,0,0,1-1.53.65,4.2,4.2,0,0,1-1.33.26,7.39,7.39,0,0,1-3.09-.56,4.76,4.76,0,0,1-1.89-1.46,5.34,5.34,0,0,1-.94-2.18,13.57,13.57,0,0,1-.26-2.69,12.92,12.92,0,0,1,.13-1.76,16.42,16.42,0,0,1,.52-2.31c.26-.88.63-2,1.11-3.18s1.08-2.72,1.82-4.45a12.14,12.14,0,0,0-1.76.91,16.5,16.5,0,0,0-3.51,2.79A76.53,76.53,0,0,0,225,46.11c-1.63,1.9-3.28,4-5,6.37-1,1.34-1.79,2.48-2.51,3.41a7.19,7.19,0,0,1-1.85,1.85,4.72,4.72,0,0,1-2-2.18,13.49,13.49,0,0,1-1-2.89,17.31,17.31,0,0,1,.36-3.12c.24-1.25.56-2.65,1-4.19s.92-3.15,1.53-4.84,1.28-3.38,2-5.07a66.92,66.92,0,0,1,4.51-9C223.42,24.31,224.27,23.14,224.62,23Z" style="fill:#17c61a;stroke:#2d440d;stroke-miterlimit:10"/><path d="M271.62,28.23a6.24,6.24,0,0,1,1.52.23,8.58,8.58,0,0,1,1.6.58,7.32,7.32,0,0,1,1.2.75c.32.26.49.5.49.72Q275.13,33.24,274,36t-1.88,5.3A44.74,44.74,0,0,0,270.93,46a20.9,20.9,0,0,0-.42,3.84,9.93,9.93,0,0,0,.39,3,2.88,2.88,0,0,0,1.3,1.72,6.71,6.71,0,0,1-2,.85,9.12,9.12,0,0,1-2.21.32q-3.51,0-3.51-4.81,0-3.7,2.47-10.14a39.34,39.34,0,0,1-3,5.6,39,39,0,0,1-3.44,4.63A20.35,20.35,0,0,1,257,54.34a8.48,8.48,0,0,1-3.28,1.52,4.52,4.52,0,0,1-3.9-2.19,9.66,9.66,0,0,1-1.5-5.58,21.4,21.4,0,0,1,1.56-7.7,34.41,34.41,0,0,1,4-7.51,28.29,28.29,0,0,1,5.3-5.78,8.88,8.88,0,0,1,5.52-2.31,5.13,5.13,0,0,1,1.46.78,10.85,10.85,0,0,1,1.56,1.36A10.6,10.6,0,0,1,269,28.51a3.33,3.33,0,0,1,.58,1.4,11.71,11.71,0,0,0-5.36,2.53,26.33,26.33,0,0,0-5,5.15,29.72,29.72,0,0,0-3.67,6.46,16.64,16.64,0,0,0-1.43,6.41A1.44,1.44,0,0,0,255,52q1.88-.39,4.35-3.22a61.1,61.1,0,0,0,6-8.74c.43-.78.92-1.64,1.46-2.6s1.1-2,1.66-3,1.12-2.09,1.66-3.15S271.14,29.23,271.62,28.23Z" style="fill:#17c61a;stroke:#2d440d;stroke-miterlimit:10"/><path d="M317.31,34.57a4.32,4.32,0,0,0-2.54,1.27,31,31,0,0,0-3.21,3.25c-1.15,1.33-2.34,2.79-3.58,4.4s-2.43,3.2-3.57,4.78l-3.22,4.46c-1,1.39-1.84,2.5-2.54,3.32a6.85,6.85,0,0,1-2.47-1.72,6.68,6.68,0,0,1-1.49-2.83,42.74,42.74,0,0,1,.91-4.18,38.75,38.75,0,0,1,1.53-4.51,43.83,43.83,0,0,1,2.34-4.9,55.53,55.53,0,0,1,3.41-5.42,5,5,0,0,0-2.67,1.33,32.93,32.93,0,0,0-3.64,3.45c-1.3,1.41-2.64,3-4,4.75s-2.68,3.49-3.9,5.18q-2.4,3.39-4,5.92a11.79,11.79,0,0,1-2.31,3A7,7,0,0,1,280,53.45a13.94,13.94,0,0,1-1-3.18,31.21,31.21,0,0,1,.49-3.9,38.39,38.39,0,0,1,1.2-4.81,62.44,62.44,0,0,1,3.87-9.43q2.37-4.68,4.58-8.58a11.06,11.06,0,0,1,3.29,1.24,15,15,0,0,1,3.08,2.47,19.93,19.93,0,0,1-2,4.25l-2.86,4.72a53.72,53.72,0,0,0-2.73,5.07,18.58,18.58,0,0,0-1.63,5.26q1.83-2.6,4.33-6c1.66-2.25,3.38-4.37,5.13-6.37A43.13,43.13,0,0,1,301,29.14a7.93,7.93,0,0,1,4.68-2.08,6.27,6.27,0,0,1,1.69.26,10.62,10.62,0,0,1,3,1.4c.35.24.55.42.59.55a17,17,0,0,1-1.53,3.54q-1.2,2.25-2.57,4.72c-.91,1.64-1.75,3.24-2.53,4.77A13,13,0,0,0,302.94,46q3.19-4.36,6-7.9A78.93,78.93,0,0,1,314.19,32a27.4,27.4,0,0,1,4.58-3.9,7.43,7.43,0,0,1,4-1.36,4.61,4.61,0,0,1,2.44.68,3.65,3.65,0,0,1,1.59,2,31.89,31.89,0,0,1-1.92,4.68q-1.33,2.73-2.7,5.75t-2.43,6a15.42,15.42,0,0,0-1.08,5.27,2.78,2.78,0,0,0,.39,1.78,1.41,1.41,0,0,0,1.11.43,3.57,3.57,0,0,0,1.46-.3,3.06,3.06,0,0,1,1-.29.94.94,0,0,1,.45.65,3.8,3.8,0,0,1,.07.72,15.67,15.67,0,0,1-2.67,1.72,6.77,6.77,0,0,1-3.05.68,5.54,5.54,0,0,1-2.57-.52,4.58,4.58,0,0,1-1.66-1.43,5.71,5.71,0,0,1-.91-2.07,11.84,11.84,0,0,1-.26-2.53,16.8,16.8,0,0,1,.59-4.38,33.29,33.29,0,0,1,1.4-4.16c.54-1.32,1.11-2.55,1.72-3.7S316.88,35.48,317.31,34.57Z" style="fill:#17c61a;stroke:#2d440d;stroke-miterlimit:10"/><path d="M337.13,56.77a8.26,8.26,0,0,1-5.91-3.25A11.6,11.6,0,0,1,329,46.24a20.08,20.08,0,0,1,.78-5.4A26.36,26.36,0,0,1,332,35.41a30.46,30.46,0,0,1,3.38-5,24.65,24.65,0,0,1,4.23-4,11.38,11.38,0,0,1,6.69-2.66c1.39.73,2.75,2.27,4.1,4.61a5.09,5.09,0,0,0,.58,0,5.15,5.15,0,0,1,.59,0c2.29,0,3.44,2,3.44,6.11a22.48,22.48,0,0,1-1.33,7.76A23.78,23.78,0,0,1,350,48.84a22.1,22.1,0,0,1-5.65,5A22.45,22.45,0,0,1,337.13,56.77Zm3.32-20.48a29.66,29.66,0,0,0-2.08,3.25,31.68,31.68,0,0,0-1.69,3.54,24.08,24.08,0,0,0-1.11,3.45,13.56,13.56,0,0,0-.38,3,8.86,8.86,0,0,0,.51,3q.53,1.43,1.17,1.62a14.07,14.07,0,0,0,5.37-2.44,17.59,17.59,0,0,0,4.22-4.45,22.34,22.34,0,0,0,2.8-6,25.25,25.25,0,0,0,1-7.22,14.1,14.1,0,0,0-.2-2.66,4.93,4.93,0,0,0-.65-1.69,13.83,13.83,0,0,0-5.1,2.73A25.72,25.72,0,0,0,340.45,36.29Z" style="fill:#17c61a;stroke:#2d440d;stroke-miterlimit:10"/><path d="M380.55,28.52a12.07,12.07,0,0,1-.42,2.57,13.59,13.59,0,0,1-.88,2.41,8.65,8.65,0,0,1-1.1,1.78A1.56,1.56,0,0,1,377,36c-.47,0-.76-.37-.84-1a1.87,1.87,0,0,1,.16-.61c.11-.28.23-.6.36-.95s.25-.69.36-1a3.36,3.36,0,0,0,.16-.91,2.64,2.64,0,0,0-.42-1.52,1.32,1.32,0,0,0-1.14-.62q-2.61,0-4,3.23t-1.36,9.51a2.74,2.74,0,0,0,.06.78H375a1.19,1.19,0,0,1,.07.52,1.16,1.16,0,0,1-.26.84c-1,.21-1.79.4-2.37.55a10,10,0,0,0-1.34.42,1,1,0,0,0-.55.42,1.65,1.65,0,0,0-.1.61c0,.35,0,.69,0,1s0,.77,0,1.29a12.62,12.62,0,0,1-3,8.74,12.1,12.1,0,0,1-8.22,3.83,5.17,5.17,0,0,1-1.89-.52,8.7,8.7,0,0,1-1.85-1.17A8.85,8.85,0,0,1,354,57.87a5.72,5.72,0,0,1-.91-1.79,11.29,11.29,0,0,1,1-4.75,13.49,13.49,0,0,1,2.83-4,14.23,14.23,0,0,1,4.23-2.82,12.9,12.9,0,0,1,5.29-1.08,16.23,16.23,0,0,0-.32-3.2c-.22-1-.45-2.05-.68-3s-.47-1.94-.69-2.88a12.6,12.6,0,0,1-.32-2.77,9.15,9.15,0,0,1,.71-3.49,13.23,13.23,0,0,1,1.89-3.2,11.84,11.84,0,0,1,2.73-2.51,9.68,9.68,0,0,1,3.25-1.44A6.2,6.2,0,0,1,375,22.06a26.79,26.79,0,0,1,2.37,2.11,23.53,23.53,0,0,1,2.08,2.37A5.93,5.93,0,0,1,380.55,28.52ZM359.1,58.16a10.62,10.62,0,0,0,3-1.88,14.19,14.19,0,0,0,2.44-2.8,15.31,15.31,0,0,0,1.66-3.31,10.38,10.38,0,0,0,.61-3.45,7.54,7.54,0,0,0-2.86,1.21,16.85,16.85,0,0,0-2.92,2.4,16.6,16.6,0,0,0-2.28,2.89,5.31,5.31,0,0,0-.91,2.6A2.75,2.75,0,0,0,359.1,58.16Z" style="fill:#17c61a;stroke:#2d440d;stroke-miterlimit:10"/><path d="M420.72,6.46a15.8,15.8,0,0,1,5.14.91,18,18,0,0,1,4.68,2.34q-.66,3.31-1.2,6c-.37,1.77-.71,3.39-1,4.84s-.6,2.77-.88,4-.55,2.31-.81,3.35q-1.56,5.85-3.22,10.56a76,76,0,0,1-3.51,8.49,49.6,49.6,0,0,1-3.9,6.69,33.37,33.37,0,0,1-4.39,5.14,26.38,26.38,0,0,1-4.55,3.51A13.41,13.41,0,0,1,402.85,64,18.71,18.71,0,0,1,398,63.4a13.5,13.5,0,0,1-3.8-1.6,7.58,7.58,0,0,1-2.47-2.4,5.65,5.65,0,0,1-.88-3.09,15.16,15.16,0,0,1,.91-4.58,49.89,49.89,0,0,1,2.79-6.53,8.2,8.2,0,0,1,1.82.39,17,17,0,0,1,2.08.78,13.4,13.4,0,0,1,1.89,1,4.86,4.86,0,0,1,1.23,1.08,19.5,19.5,0,0,0-3.38,4.71,10.26,10.26,0,0,0-1.3,4.45,4.37,4.37,0,0,0,.43,2,4.12,4.12,0,0,0,1.46,1.6,20.82,20.82,0,0,0,7.73-5.56,40.85,40.85,0,0,0,6.7-10.11,56.07,56.07,0,0,0,3.18-8.19q1.44-4.61,2.44-9.26t1.56-8.91A56.84,56.84,0,0,0,421,12c0-.3,0-.72,0-1.27s0-1.1-.06-1.69-.06-1.11-.1-1.59S420.72,6.63,420.72,6.46Z" style="fill:#17c61a;stroke:#2d440d;stroke-miterlimit:10"/><path d="M446.33,53.06a5,5,0,0,1-1.65-2.6,10.17,10.17,0,0,1-.43-2.66,7.33,7.33,0,0,1,.33-2.34c-.18,0-.57.34-1.17,1s-1.27,1.52-2,2.47-1.42,1.88-2.12,2.78-1.21,1.58-1.56,2a9.92,9.92,0,0,1-1.59,1.43,3.34,3.34,0,0,1-1.2.58,7.2,7.2,0,0,1-2.18-.36,8.58,8.58,0,0,1-2.14-1,7.14,7.14,0,0,1-1.76-1.57,5,5,0,0,1-1-2.09c0-1.21,0-2.21.1-3a18.75,18.75,0,0,1,.42-2.53,50.25,50.25,0,0,1,1.73-5.59,58.89,58.89,0,0,1,2.63-6.15,41.43,41.43,0,0,1,3.35-5.65A17,17,0,0,1,440,23.68a10.24,10.24,0,0,1,1.36.1,8.13,8.13,0,0,1,1.6.36,13.29,13.29,0,0,1,1.56.61,4,4,0,0,1,1.26.95,51.05,51.05,0,0,0-2.95,4.35,72.23,72.23,0,0,0-5.3,10.66,21.18,21.18,0,0,0-.78,2.08c-.31.91-.61,1.86-.91,2.86s-.55,2-.75,2.93a12.35,12.35,0,0,0-.29,2.27,1.47,1.47,0,0,0,.16.78,2.61,2.61,0,0,0,.29.39,7.45,7.45,0,0,0,2.47-2.14q1.5-1.76,4.16-5.4l1.53-2.08c.59-.78,1.18-1.61,1.79-2.5s1.18-1.81,1.72-2.76a18.75,18.75,0,0,0,1.33-2.86c.18-.52.4-1.14.69-1.86a20.84,20.84,0,0,1,1-2.24,23.32,23.32,0,0,1,1.43-2.37,13.42,13.42,0,0,1,1.91-2.24,9.23,9.23,0,0,1,1.82.19,14.87,14.87,0,0,1,1.86.49,8.67,8.67,0,0,1,1.52.65,3.39,3.39,0,0,1,1,.75c-.78,1.9-1.65,3.79-2.6,5.65s-1.84,3.7-2.67,5.49a49,49,0,0,0-2.08,5.37,17.22,17.22,0,0,0-.84,5.2,10.34,10.34,0,0,0,.23,2.37,13.35,13.35,0,0,0,.48,1.69c.18.45.34.83.49,1.14a1.82,1.82,0,0,1,.23.78s0,.1-.13.19a.24.24,0,0,1-.13.07,4.67,4.67,0,0,1-1.17-.2,13.21,13.21,0,0,1-1.59-.55c-.59-.24-1.17-.51-1.76-.81A19.08,19.08,0,0,1,446.33,53.06Z" style="fill:#17c61a;stroke:#2d440d;stroke-miterlimit:10"/><path d="M471.29,23a6.84,6.84,0,0,1,3.19,2.3,12.31,12.31,0,0,1,2.21,3.94,32.06,32.06,0,0,1-2.21,4.22q-1.5,2.48-3,5c-1,1.71-1.9,3.34-2.7,4.87a12.26,12.26,0,0,0-1.4,3.81c.7-.74,1.47-1.6,2.31-2.57s1.67-1.95,2.47-2.93,1.55-1.86,2.24-2.66,1.24-1.4,1.63-1.79c.82-.86,1.8-1.87,2.92-3a45.41,45.41,0,0,1,3.55-3.25,26,26,0,0,1,3.73-2.6,7.05,7.05,0,0,1,3.45-1.07,3.88,3.88,0,0,1,2.83,1.13,9.92,9.92,0,0,1,1.78,2.38c0,.08-.16.2-.48.35a5.41,5.41,0,0,0-1.4,1.27,25.23,25.23,0,0,0-2.05,3.22c-.76,1.36-1.49,2.84-2.21,4.42a35.64,35.64,0,0,0-1.79,4.84,16.52,16.52,0,0,0-.71,4.49,3.39,3.39,0,0,0,.42,2.08,1.56,1.56,0,0,0,1.2.45,4,4,0,0,0,1.5-.32,3.42,3.42,0,0,1,1.23-.33,1,1,0,0,1,.43.55,2.35,2.35,0,0,1,.16.75,10.24,10.24,0,0,1-1.24.91,14.39,14.39,0,0,1-1.49.85,14,14,0,0,1-1.53.65,4.2,4.2,0,0,1-1.33.26,7.39,7.39,0,0,1-3.09-.56A4.76,4.76,0,0,1,480,53.19a5.47,5.47,0,0,1-.94-2.18,13.57,13.57,0,0,1-.26-2.69,14.75,14.75,0,0,1,.13-1.76,16.42,16.42,0,0,1,.52-2.31c.26-.88.63-2,1.11-3.18s1.08-2.72,1.82-4.45a12.77,12.77,0,0,0-1.76.91,16.5,16.5,0,0,0-3.51,2.79q-3,2.93-5.49,5.79c-1.62,1.9-3.28,4-5,6.37-1,1.34-1.79,2.48-2.5,3.41a7.36,7.36,0,0,1-1.86,1.85,4.72,4.72,0,0,1-2-2.18,13.49,13.49,0,0,1-1-2.89,17.31,17.31,0,0,1,.36-3.12c.24-1.25.56-2.65,1-4.19s.93-3.15,1.53-4.84,1.28-3.38,2-5.07a65.62,65.62,0,0,1,4.52-9Q470.77,23.23,471.29,23Z" style="fill:#17c61a;stroke:#2d440d;stroke-miterlimit:10"/><path d="M499.7,29.6a4.12,4.12,0,0,1-.59-1.66,11.38,11.38,0,0,1-.26-2.18,20.59,20.59,0,0,0,3.25.26H505c.65-1.28,1.36-2.56,2.11-3.82s1.5-2.42,2.21-3.47a30.68,30.68,0,0,1,2-2.67,7.35,7.35,0,0,1,1.46-1.41,7.89,7.89,0,0,1,1.66.22c.67.16,1.35.35,2.05.59s1.32.49,1.88.75a3.35,3.35,0,0,1,1.17.78c-1.3,1.63-2.41,3.15-3.35,4.55s-1.93,3-3,4.81h2.63a19.09,19.09,0,0,0,2.7-.2A2.4,2.4,0,0,1,519,27a2.75,2.75,0,0,1,.2,1,21.36,21.36,0,0,1-7.74,1.24c-1.08,2.08-2,4.16-2.89,6.22s-1.56,4-2.15,6a52.21,52.21,0,0,0-1.36,5.41,25,25,0,0,0-.49,4.56c0,1.91.72,3,2.15,3.2a15.17,15.17,0,0,0,3.7-1,12,12,0,0,0,3.12-1.82,2.86,2.86,0,0,1,.46,1,7,7,0,0,1-1.34,1.35c-.62.52-1.31,1-2,1.52a21.67,21.67,0,0,1-2.15,1.26,5.5,5.5,0,0,1-1.56.58,8.76,8.76,0,0,1-3.25-.65,13.86,13.86,0,0,1-3-1.63A9.54,9.54,0,0,1,498.53,53a4.07,4.07,0,0,1-.85-2.37,22.48,22.48,0,0,1,.43-3.94c.28-1.58.68-3.31,1.2-5.17s1.12-3.82,1.82-5.86,1.45-4.06,2.27-6Z" style="fill:#17c61a;stroke:#2d440d;stroke-miterlimit:10"/><path d="M526.41,56.77a8.26,8.26,0,0,1-5.91-3.25,11.54,11.54,0,0,1-2.21-7.28,20.08,20.08,0,0,1,.78-5.4,25.81,25.81,0,0,1,2.21-5.43,30.46,30.46,0,0,1,3.38-5,24.6,24.6,0,0,1,4.22-4,11.41,11.41,0,0,1,6.7-2.66,11.5,11.5,0,0,1,4.09,4.61,5.28,5.28,0,0,0,.59,0,5,5,0,0,1,.58,0c2.3,0,3.45,2,3.45,6.11A22.48,22.48,0,0,1,543,42.17a23.51,23.51,0,0,1-3.7,6.67,22,22,0,0,1-5.66,5A22.49,22.49,0,0,1,526.41,56.77Zm3.32-20.48a29.66,29.66,0,0,0-2.08,3.25A30,30,0,0,0,526,43.08a24.08,24.08,0,0,0-1.11,3.45,13,13,0,0,0-.39,3,8.63,8.63,0,0,0,.52,3q.53,1.43,1.17,1.62a14,14,0,0,0,5.36-2.44,17.45,17.45,0,0,0,4.23-4.45,22,22,0,0,0,2.79-6,25.25,25.25,0,0,0,1-7.22,14.25,14.25,0,0,0-.19-2.66,4.93,4.93,0,0,0-.65-1.69,14,14,0,0,0-5.11,2.73A26.11,26.11,0,0,0,529.73,36.29Z" style="fill:#17c61a;stroke:#2d440d;stroke-miterlimit:10"/><path d="M569.83,28.52a12.07,12.07,0,0,1-.42,2.57,13.59,13.59,0,0,1-.88,2.41,9.1,9.1,0,0,1-1.1,1.78,1.56,1.56,0,0,1-1.11.72c-.48,0-.76-.37-.84-1a1.87,1.87,0,0,1,.16-.61c.11-.28.23-.6.36-.95s.24-.69.35-1a3.06,3.06,0,0,0,.17-.91,2.64,2.64,0,0,0-.43-1.52,1.29,1.29,0,0,0-1.13-.62q-2.61,0-4,3.23t-1.36,9.51a2.74,2.74,0,0,0,.06.78h4.55a1.37,1.37,0,0,1,.07.52,1.16,1.16,0,0,1-.26.84c-1,.21-1.79.4-2.38.55a9.74,9.74,0,0,0-1.33.42,1,1,0,0,0-.55.42,1.46,1.46,0,0,0-.1.61c0,.35,0,.69,0,1s0,.77,0,1.29a12.62,12.62,0,0,1-3,8.74,12.1,12.1,0,0,1-8.22,3.83,5.17,5.17,0,0,1-1.89-.52,8.46,8.46,0,0,1-1.85-1.17,8.21,8.21,0,0,1-1.53-1.59,5.52,5.52,0,0,1-.91-1.79,11.29,11.29,0,0,1,1-4.75,13.31,13.31,0,0,1,2.83-4,14.31,14.31,0,0,1,4.22-2.82,13,13,0,0,1,5.3-1.08,16.23,16.23,0,0,0-.32-3.2q-.33-1.56-.69-3c-.24-1-.46-1.94-.68-2.88a12,12,0,0,1-.32-2.77,9,9,0,0,1,.71-3.49,13.23,13.23,0,0,1,1.89-3.2,11.84,11.84,0,0,1,2.73-2.51,9.68,9.68,0,0,1,3.25-1.44,6.18,6.18,0,0,1,1.91,1.14,26.88,26.88,0,0,1,2.38,2.11,23.53,23.53,0,0,1,2.08,2.37A6.12,6.12,0,0,1,569.83,28.52ZM548.38,58.16a10.62,10.62,0,0,0,3-1.88,14.52,14.52,0,0,0,2.44-2.8,14.83,14.83,0,0,0,1.65-3.31,10.15,10.15,0,0,0,.62-3.45,7.48,7.48,0,0,0-2.86,1.21,16.85,16.85,0,0,0-2.92,2.4A16.6,16.6,0,0,0,548,53.22a5.21,5.21,0,0,0-.91,2.6A2.73,2.73,0,0,0,548.38,58.16Z" style="fill:#17c61a;stroke:#2d440d;stroke-miterlimit:10"/><path d="M571.46,59.5a3.31,3.31,0,0,1-1.5-.36,5.75,5.75,0,0,1-1.27-.85,4,4,0,0,1-.87-1,1.9,1.9,0,0,1-.33-.87,13.6,13.6,0,0,1,.2-2,14.15,14.15,0,0,1,.58-2.37,7.41,7.41,0,0,1,1-2,1.63,1.63,0,0,1,1.3-.81,6.52,6.52,0,0,1,3.67,1.26A9.12,9.12,0,0,1,577,53.32a9.33,9.33,0,0,0-1.36,1.92c-.39.71-.78,1.39-1.17,2a7.81,7.81,0,0,1-1.3,1.6A2.45,2.45,0,0,1,571.46,59.5Zm1.43-17.23a20.47,20.47,0,0,1,.94-5.1q.95-3.35,2.44-7.41c1-2.71,2.12-5.5,3.38-8.39s2.52-5.57,3.8-8.09,2.5-4.69,3.67-6.53a13.18,13.18,0,0,1,3.06-3.67,6.61,6.61,0,0,1,2.24.94,15.47,15.47,0,0,1,2.24,1.69,14.57,14.57,0,0,1,1.82,2,4.46,4.46,0,0,1,.91,1.82,45.91,45.91,0,0,0-6.56,6.79,65.08,65.08,0,0,0-6,9A75,75,0,0,0,580,35.87a66,66,0,0,0-3.12,11.47,11.84,11.84,0,0,1-1.53-.49,3.42,3.42,0,0,1-1.26-.81,3.72,3.72,0,0,1-.85-1.43A7,7,0,0,1,572.89,42.27Z" style="fill:#17c61a;stroke:#2d440d;stroke-miterlimit:10"/></symbol></defs><title>eppsEvolucionamos-juntos</title><g id="Capa_2" data-name="Capa 2"><g id="Capa_3" data-name="Capa 3"><use width="597.93" height="64.48" xlink:href="#Nuevo_símbolo_11"/></g></g></svg>