
<svg xmlns="http://www.w3.org/2000/svg" version="1.1" xmlns:xlink="http://www.w3.org/1999/xlink" preserveAspectRatio="none" x="0px" y="0px" width="310px" height="110px" viewBox="0 0 310 110">
<defs>
<g id="Layer0_0_FILL">
<path fill="#069D0A" stroke="none" d="
M 8.1 87.2
L 20.9 87.2 20.9 60.2 70.25 60.2 70.25 22.8 8.1 22.8 8.1 87.2
M 57.45 35.6
L 57.45 47.45 20.9 47.45 20.9 35.6 57.45 35.6
M 152.2 35.6
L 152.2 22.8 90.15 22.8 90.15 61.4 139.55 61.4 139.55 74.4 90.15 74.4 90.15 87.2 151.95 87.2 152.1 48.6 102.95 48.6 102.95 35.6 152.2 35.6
M 236.5 35.6
L 236.5 22.8 172.15 22.8 172.15 87.2 236.5 87.2 236.5 74.4 184.9 74.4 184.9 35.6 236.5 35.6
M 270.5 63
L 270.5 69.1 256.2 69.1 256.3 87.2 276.6 87.2 276.6 81.2 261.85 81.2 261.85 75.1 276.6 75.1 276.6 56.95 256.2 56.95 256.2 63 270.5 63
M 281.55 56.95
L 281.55 63 295.85 63 295.85 69.1 281.55 69.1 281.55 75.1 295.85 75.1 295.85 81.2 281.55 81.2 281.55 87.2 301.95 87.2 301.95 56.95 281.55 56.95 Z"/>

<path fill="#374D6B" stroke="none" d="
M 576.2 -83.75
Q 575.3 -82.7 575.3 -80.7
L 575.3 -80
Q 575.3 -78.1 576.25 -77.1 577.2 -76.1 578.9 -76.1 579.85 -76.1 580.6 -76.45 581.35 -76.8 581.8 -77.35
L 580.9 -78.7
Q 580.15 -77.95 579.05 -77.95 578.3 -77.95 577.95 -78.35 577.55 -78.8 577.5 -79.75
L 581.9 -79.75 581.9 -80.85
Q 581.9 -82.8 581.1 -83.85 580.3 -84.85 578.7 -84.85 577.05 -84.85 576.2 -83.75
M 579.75 -81.3
L 577.55 -81.3
Q 577.6 -82.2 577.85 -82.6 578.1 -83 578.7 -83 579.25 -83 579.5 -82.65 579.7 -82.25 579.75 -81.5
L 579.75 -81.3
M 574.4 -82.55
L 574.4 -84.75
Q 574.15 -84.85 573.8 -84.85 572.85 -84.85 572.35 -83.8
L 572.3 -84.7 570.2 -84.7 570.2 -76.25 572.4 -76.25 572.4 -81.85
Q 572.75 -82.65 573.65 -82.65
L 574.4 -82.55
M 600.75 -84.7
L 598.5 -84.7 598.5 -76.25 600.75 -76.25 600.75 -84.7
M 587.25 -76.25
L 589.45 -76.25 589.45 -81.8
Q 589.4 -84.85 587.2 -84.85 586 -84.85 585.25 -83.85
L 585.2 -84.7 583.1 -84.7 583.1 -76.25 585.3 -76.25 585.3 -82.4
Q 585.65 -83 586.25 -83 586.8 -83 587 -82.7 587.25 -82.35 587.25 -81.65
L 587.25 -76.25
M 596.35 -84
Q 595.55 -84.85 594.15 -84.85 592.5 -84.85 591.65 -83.8 590.8 -82.75 590.8 -80.75
L 590.8 -80.1
Q 590.8 -78.1 591.65 -77.1 592.5 -76.1 594.15 -76.1 595.5 -76.1 596.3 -76.95 597.15 -77.8 597.15 -79.2
L 595.1 -79.2
Q 595.05 -77.95 594.1 -77.95 593.7 -77.95 593.45 -78.1 593.2 -78.3 593.1 -78.7 593 -79.15 593 -80.15
L 593 -81
Q 593 -82.2 593.25 -82.6 593.5 -83 594.1 -83 594.65 -83 594.85 -82.65 595.1 -82.25 595.1 -81.55
L 597.15 -81.55
Q 597.15 -83.15 596.35 -84
M 598.75 -87.75
Q 598.4 -87.4 598.4 -86.9 598.4 -86.4 598.75 -86.05 599.05 -85.7 599.6 -85.7 600.15 -85.7 600.5 -86.05 600.8 -86.4 600.8 -86.9 600.8 -87.4 600.5 -87.75 600.15 -88.05 599.6 -88.05 599.05 -88.05 598.75 -87.75
M 608.4 -82.05
Q 608.4 -83.4 607.65 -84.15 606.85 -84.85 605.45 -84.85 604.15 -84.85 603.25 -84.1 602.35 -83.35 602.35 -82.15
L 604.6 -82.15
Q 604.6 -83.15 605.4 -83.15 605.8 -83.15 606 -82.9 606.15 -82.65 606.15 -82.1
L 606.15 -81.4 605.5 -81.4
Q 603.9 -81.4 603.05 -80.65 602.2 -79.95 602.2 -78.6 602.2 -77.5 602.9 -76.8 603.6 -76.1 604.65 -76.1 605.7 -76.1 606.3 -76.9 606.4 -76.45 606.45 -76.25
L 608.7 -76.25 608.7 -76.4
Q 608.4 -77 608.4 -78.1
L 608.4 -82.05
M 606.15 -80.1
L 606.15 -78.35
Q 606.05 -78.1 605.8 -78 605.55 -77.85 605.15 -77.85 604.45 -77.85 604.45 -78.75 604.45 -79.35 604.75 -79.75 605.1 -80.1 605.65 -80.1
L 606.15 -80.1
M 502.7 -83.15
Q 503.1 -83.15 503.3 -82.9 503.45 -82.65 503.45 -82.1
L 503.45 -81.4 502.8 -81.4
Q 501.2 -81.4 500.35 -80.65 499.5 -79.95 499.5 -78.6 499.5 -77.5 500.2 -76.8 500.9 -76.1 501.95 -76.1 503 -76.1 503.6 -76.9 503.7 -76.45 503.75 -76.25
L 506 -76.25 506 -76.4
Q 505.7 -77 505.7 -78.1
L 505.7 -82.05
Q 505.7 -83.4 504.95 -84.15 504.15 -84.85 502.75 -84.85 501.45 -84.85 500.55 -84.1 499.65 -83.35 499.65 -82.15
L 501.9 -82.15
Q 501.9 -83.15 502.7 -83.15
M 503.45 -80.1
L 503.45 -78.35
Q 503.35 -78.1 503.1 -78 502.85 -77.85 502.45 -77.85 501.75 -77.85 501.75 -78.75 501.75 -79.35 502.05 -79.75 502.4 -80.1 502.95 -80.1
L 503.45 -80.1
M 492.4 -82.85
L 495.6 -82.85 492.35 -77.65 492.35 -76.25 498.3 -76.25 498.3 -78.1 494.95 -78.1 498.25 -83.35 498.25 -84.7 492.4 -84.7 492.4 -82.85
M 513.7 -79.95
L 512.7 -84.7 510.35 -84.7 512.75 -76.15 512.6 -75.6
Q 512.45 -75.1 512.2 -74.9 511.95 -74.7 511.4 -74.7
L 511.15 -74.7 511.15 -73
Q 511.65 -72.85 512.05 -72.85 513.8 -72.85 514.4 -75
L 517.2 -84.7 514.85 -84.7 513.7 -79.95
M 524.45 -86.8
L 522.2 -86.8 522.2 -84.7 521.25 -84.7 521.25 -83.05 522.2 -83.05 522.2 -78.55
Q 522.25 -76.1 524.4 -76.1 525.05 -76.1 525.6 -76.3
L 525.6 -78
Q 525.4 -77.95 525.1 -77.95 524.7 -77.95 524.55 -78.15 524.45 -78.35 524.45 -78.85
L 524.45 -83.05 525.55 -83.05 525.55 -84.7 524.45 -84.7 524.45 -86.8
M 543.45 -82.7
Q 543.7 -82.35 543.7 -81.65
L 543.7 -76.25 545.9 -76.25 545.9 -81.8
Q 545.85 -84.85 543.65 -84.85 542.45 -84.85 541.7 -83.85
L 541.65 -84.7 539.55 -84.7 539.55 -76.25 541.75 -76.25 541.75 -82.4
Q 542.1 -83 542.7 -83 543.25 -83 543.45 -82.7
M 530.95 -82.55
L 530.95 -84.75
Q 530.7 -84.85 530.35 -84.85 529.4 -84.85 528.9 -83.8
L 528.85 -84.7 526.75 -84.7 526.75 -76.25 528.95 -76.25 528.95 -81.85
Q 529.3 -82.65 530.2 -82.65
L 530.95 -82.55
M 535 -83.15
Q 535.4 -83.15 535.6 -82.9 535.75 -82.65 535.75 -82.1
L 535.75 -81.4 535.1 -81.4
Q 533.5 -81.4 532.65 -80.65 531.8 -79.95 531.8 -78.6 531.8 -77.5 532.5 -76.8 533.2 -76.1 534.25 -76.1 535.3 -76.1 535.9 -76.9 536 -76.45 536.05 -76.25
L 538.3 -76.25 538.3 -76.4
Q 538 -77 538 -78.1
L 538 -82.05
Q 538 -83.4 537.25 -84.15 536.45 -84.85 535.05 -84.85 533.75 -84.85 532.85 -84.1 531.95 -83.35 531.95 -82.15
L 534.2 -82.15
Q 534.2 -83.15 535 -83.15
M 534.35 -79.75
Q 534.7 -80.1 535.25 -80.1
L 535.75 -80.1 535.75 -78.35
Q 535.65 -78.1 535.4 -78 535.15 -77.85 534.75 -77.85 534.05 -77.85 534.05 -78.75 534.05 -79.35 534.35 -79.75
M 565.6 -83.15
Q 566 -83.15 566.2 -82.9 566.35 -82.65 566.35 -82.1
L 566.35 -81.4 565.7 -81.4
Q 564.1 -81.4 563.25 -80.65 562.4 -79.95 562.4 -78.6 562.4 -77.5 563.1 -76.8 563.8 -76.1 564.85 -76.1 565.9 -76.1 566.5 -76.9 566.6 -76.45 566.65 -76.25
L 568.9 -76.25 568.9 -76.4
Q 568.6 -77 568.6 -78.1
L 568.6 -82.05
Q 568.6 -83.4 567.85 -84.15 567.05 -84.85 565.65 -84.85 564.35 -84.85 563.45 -84.1 562.55 -83.35 562.55 -82.15
L 564.8 -82.15
Q 564.8 -83.15 565.6 -83.15
M 565.85 -80.1
L 566.35 -80.1 566.35 -78.35
Q 566.25 -78.1 566 -78 565.75 -77.85 565.35 -77.85 564.65 -77.85 564.65 -78.75 564.65 -79.35 564.95 -79.75 565.3 -80.1 565.85 -80.1
M 553.35 -82.2
Q 553.35 -83.4 552.55 -84.15 551.7 -84.85 550.3 -84.85 549 -84.85 548.2 -84.15 547.4 -83.4 547.4 -82.3 547.4 -81.4 547.9 -80.85 548.4 -80.25 549.8 -79.7 550.7 -79.25 551 -79.05 551.25 -78.8 551.25 -78.5 551.25 -77.7 550.35 -77.7 549.8 -77.7 549.55 -78 549.25 -78.3 549.25 -78.85
L 547.15 -78.85
Q 547.15 -78.1 547.55 -77.45 547.95 -76.8 548.65 -76.45 549.4 -76.1 550.3 -76.1 551.7 -76.1 552.55 -76.8 553.4 -77.45 553.4 -78.6 553.4 -79.6 552.85 -80.2 552.3 -80.8 550.95 -81.3 550 -81.7 549.75 -81.9 549.5 -82.15 549.5 -82.4 549.5 -82.8 549.7 -83 549.95 -83.25 550.3 -83.25 551.15 -83.25 551.15 -82.2
L 553.35 -82.2
M 556.8 -84.7
L 554.75 -84.7 554.75 -73 556.95 -73 556.95 -76.95
Q 557.6 -76.1 558.6 -76.1 559.95 -76.1 560.65 -77.15 561.35 -78.2 561.35 -80.2
L 561.35 -80.85
Q 561.35 -82.9 560.65 -83.85 559.95 -84.85 558.6 -84.85 557.5 -84.85 556.9 -83.95
L 556.8 -84.7
M 556.95 -82.45
Q 557.3 -83 557.95 -83 558.6 -83 558.85 -82.5 559.15 -82 559.15 -80.75
L 559.15 -80.2
Q 559.15 -79.05 558.9 -78.5 558.65 -77.95 557.95 -77.95 557.25 -77.95 556.95 -78.5
L 556.95 -82.45
M 563.25 -99.8
Q 562.9 -99.15 562.15 -99.15 561.35 -99.15 561.3 -100.35
L 561.3 -105.9 559.1 -105.9 559.1 -100.45
Q 559.1 -98.9 559.7 -98.1 560.3 -97.3 561.45 -97.3 562.6 -97.3 563.3 -98.2
L 563.35 -97.45 565.45 -97.45 565.45 -105.9 563.25 -105.9 563.25 -99.8
M 551.6 -105.05
Q 550.9 -104.05 550.9 -101.95
L 550.9 -101.3
Q 550.9 -99.35 551.65 -98.3 552.3 -97.3 553.65 -97.3 554.65 -97.3 555.3 -98.1
L 555.3 -94.2 557.5 -94.2 557.5 -105.9 555.55 -105.9 555.45 -105.05
Q 554.8 -106.05 553.65 -106.05 552.3 -106.05 551.6 -105.05
M 553.15 -101.4
L 553.15 -102
Q 553.15 -103.2 553.4 -103.7 553.65 -104.2 554.3 -104.2 554.95 -104.2 555.3 -103.7
L 555.3 -99.65
Q 554.95 -99.15 554.3 -99.15 553.65 -99.15 553.4 -99.65 553.15 -100.15 553.15 -101.4
M 545.75 -99.35
L 543.85 -99.35 543.85 -97.6
Q 543.85 -96.7 543.35 -95.75
L 543.05 -95.2 544.2 -94.6
Q 544.9 -95.2 545.35 -96.1 545.75 -96.95 545.75 -97.8
L 545.75 -99.35
M 536.6 -101.85
Q 535.75 -101.15 535.75 -99.8 535.75 -98.7 536.45 -98 537.15 -97.3 538.2 -97.3 539.25 -97.3 539.85 -98.1 539.95 -97.65 540 -97.45
L 542.25 -97.45 542.25 -97.6
Q 541.95 -98.2 541.95 -99.3
L 541.95 -103.25
Q 541.95 -104.6 541.2 -105.35 540.4 -106.05 539 -106.05 537.7 -106.05 536.8 -105.3 535.9 -104.55 535.9 -103.35
L 538.15 -103.35
Q 538.15 -104.35 538.95 -104.35 539.35 -104.35 539.55 -104.1 539.7 -103.85 539.7 -103.3
L 539.7 -102.6 539.05 -102.6
Q 537.45 -102.6 536.6 -101.85
M 538.7 -99.05
Q 538 -99.05 538 -99.95 538 -100.55 538.3 -100.95 538.65 -101.3 539.2 -101.3
L 539.7 -101.3 539.7 -99.55
Q 539.6 -99.3 539.35 -99.2 539.1 -99.05 538.7 -99.05
M 530.15 -105.9
L 528.05 -105.9 528.05 -97.45 530.25 -97.45 530.25 -103.6
Q 530.6 -104.2 531.2 -104.2 531.75 -104.2 531.95 -103.9 532.2 -103.55 532.2 -102.85
L 532.2 -97.45 534.4 -97.45 534.4 -103
Q 534.35 -106.05 532.15 -106.05 530.95 -106.05 530.2 -105.05
L 530.15 -105.9
M 524.9 -105.9
L 522.8 -105.9 522.8 -97.45 525 -97.45 525 -103.05
Q 525.35 -103.85 526.25 -103.85
L 527 -103.75 527 -105.95
Q 526.75 -106.05 526.4 -106.05 525.45 -106.05 524.95 -105
L 524.9 -105.9
M 515.85 -104.95
Q 514.95 -103.9 514.95 -101.9
L 514.95 -101.2
Q 514.95 -99.3 515.9 -98.3 516.85 -97.3 518.55 -97.3 519.5 -97.3 520.25 -97.65 521 -98 521.45 -98.55
L 520.55 -99.9
Q 519.8 -99.15 518.7 -99.15 517.95 -99.15 517.6 -99.55 517.2 -100 517.15 -100.95
L 521.55 -100.95 521.55 -102.05
Q 521.55 -104 520.75 -105.05 519.95 -106.05 518.35 -106.05 516.7 -106.05 515.85 -104.95
M 519.15 -103.85
Q 519.35 -103.45 519.4 -102.7
L 519.4 -102.5 517.2 -102.5
Q 517.25 -103.4 517.5 -103.8 517.75 -104.2 518.35 -104.2 518.9 -104.2 519.15 -103.85
M 511.3 -109.45
L 511.3 -105.2
Q 510.65 -106.05 509.65 -106.05 508.3 -106.05 507.6 -105.05 506.9 -104 506.9 -101.95
L 506.9 -101.3
Q 506.9 -99.3 507.65 -98.3 508.3 -97.3 509.65 -97.3 510.7 -97.3 511.4 -98.3
L 511.5 -97.45 513.5 -97.45 513.5 -109.45 511.3 -109.45
M 510.3 -104.2
Q 510.95 -104.2 511.3 -103.6
L 511.3 -99.7
Q 510.95 -99.15 510.3 -99.15 509.65 -99.15 509.4 -99.65 509.15 -100.15 509.15 -101.4
L 509.15 -101.95
Q 509.15 -103.2 509.4 -103.7 509.7 -104.2 510.3 -104.2
M 499.9 -104.95
Q 499 -103.85 499 -101.95
L 499 -101.4
Q 499 -99.45 499.9 -98.4 500.8 -97.3 502.45 -97.3 504.05 -97.3 504.95 -98.4 505.85 -99.45 505.85 -101.4
L 505.85 -101.95
Q 505.85 -103.85 504.95 -104.95 504.05 -106.05 502.4 -106.05 500.8 -106.05 499.9 -104.95
M 502.4 -104.2
Q 503 -104.2 503.3 -103.65 503.65 -103.1 503.65 -101.95
L 503.65 -101
Q 503.55 -99.15 502.45 -99.15 501.2 -99.15 501.2 -101.4
L 501.2 -101.95
Q 501.2 -103.1 501.55 -103.65 501.85 -104.2 502.4 -104.2
M 489.5 -105.9
L 487.4 -105.9 487.4 -97.45 489.6 -97.45 489.6 -103.6
Q 489.95 -104.2 490.55 -104.2 491.05 -104.2 491.25 -103.9 491.4 -103.55 491.4 -102.85
L 491.4 -97.45 493.65 -97.45 493.65 -103.2 493.6 -103.45
Q 493.9 -104.2 494.55 -104.2 495 -104.2 495.25 -103.9 495.45 -103.6 495.45 -102.85
L 495.45 -97.45 497.65 -97.45 497.65 -103
Q 497.6 -106.05 495.35 -106.05 494 -106.05 493.3 -104.9 492.75 -106.05 491.5 -106.05 490.3 -106.05 489.55 -105.1
L 489.5 -105.9
M 607.85 -105.9
L 605.6 -105.9 605.6 -97.45 607.85 -97.45 607.85 -105.9
M 614.75 -103.35
L 617 -103.35
Q 617 -104.35 617.8 -104.35 618.2 -104.35 618.4 -104.1 618.55 -103.85 618.55 -103.3
L 618.55 -102.6 617.9 -102.6
Q 616.3 -102.6 615.45 -101.85 614.6 -101.15 614.6 -99.8 614.6 -98.7 615.3 -98 616 -97.3 617.05 -97.3 618.1 -97.3 618.7 -98.1 618.8 -97.65 618.85 -97.45
L 621.1 -97.45 621.1 -97.6
Q 620.8 -98.2 620.8 -99.3
L 620.8 -103.25
Q 620.8 -104.6 620.05 -105.35 619.25 -106.05 617.85 -106.05 616.55 -106.05 615.65 -105.3 614.75 -104.55 614.75 -103.35
M 616.85 -99.95
Q 616.85 -100.55 617.15 -100.95 617.5 -101.3 618.05 -101.3
L 618.55 -101.3 618.55 -99.55
Q 618.45 -99.3 618.2 -99.2 617.95 -99.05 617.55 -99.05 616.85 -99.05 616.85 -99.95
M 613.75 -105.95
Q 613.5 -106.05 613.15 -106.05 612.2 -106.05 611.7 -105
L 611.65 -105.9 609.55 -105.9 609.55 -97.45 611.75 -97.45 611.75 -103.05
Q 612.1 -103.85 613 -103.85
L 613.75 -103.75 613.75 -105.95
M 599.65 -105.9
L 597.6 -105.9 597.6 -94.2 599.8 -94.2 599.8 -98.15
Q 600.45 -97.3 601.45 -97.3 602.8 -97.3 603.5 -98.35 604.2 -99.4 604.2 -101.4
L 604.2 -102.05
Q 604.2 -104.1 603.5 -105.05 602.8 -106.05 601.45 -106.05 600.35 -106.05 599.75 -105.15
L 599.65 -105.9
M 601.75 -99.7
Q 601.5 -99.15 600.8 -99.15 600.1 -99.15 599.8 -99.7
L 599.8 -103.65
Q 600.15 -104.2 600.8 -104.2 601.45 -104.2 601.7 -103.7 602 -103.2 602 -101.95
L 602 -101.4
Q 602 -100.25 601.75 -99.7
M 605.85 -108.95
Q 605.5 -108.6 605.5 -108.1 605.5 -107.6 605.85 -107.25 606.15 -106.9 606.7 -106.9 607.25 -106.9 607.6 -107.25 607.9 -107.6 607.9 -108.1 607.9 -108.6 607.6 -108.95 607.25 -109.25 606.7 -109.25 606.15 -109.25 605.85 -108.95
M 595.4 -105.35
Q 594.55 -106.05 593.15 -106.05 591.85 -106.05 591.05 -105.35 590.25 -104.6 590.25 -103.5 590.25 -102.6 590.75 -102.05 591.25 -101.45 592.65 -100.9 593.55 -100.45 593.85 -100.25 594.1 -100 594.1 -99.7 594.1 -98.9 593.2 -98.9 592.65 -98.9 592.4 -99.2 592.1 -99.5 592.1 -100.05
L 590 -100.05
Q 590 -99.3 590.4 -98.65 590.8 -98 591.5 -97.65 592.25 -97.3 593.15 -97.3 594.55 -97.3 595.4 -98 596.25 -98.65 596.25 -99.8 596.25 -100.8 595.7 -101.4 595.15 -102 593.8 -102.5 592.85 -102.9 592.6 -103.1 592.35 -103.35 592.35 -103.6 592.35 -104 592.55 -104.2 592.8 -104.45 593.15 -104.45 594 -104.45 594 -103.4
L 596.2 -103.4
Q 596.2 -104.6 595.4 -105.35
M 580.75 -105.9
L 578.5 -105.9 578.5 -97.45 580.75 -97.45 580.75 -105.9
M 579.6 -109.25
Q 579.05 -109.25 578.75 -108.95 578.4 -108.6 578.4 -108.1 578.4 -107.6 578.75 -107.25 579.05 -106.9 579.6 -106.9 580.15 -106.9 580.5 -107.25 580.8 -107.6 580.8 -108.1 580.8 -108.6 580.5 -108.95 580.15 -109.25 579.6 -109.25
M 584.5 -105.9
L 582.4 -105.9 582.4 -97.45 584.6 -97.45 584.6 -103.6
Q 584.95 -104.2 585.55 -104.2 586.1 -104.2 586.3 -103.9 586.55 -103.55 586.55 -102.85
L 586.55 -97.45 588.75 -97.45 588.75 -103
Q 588.7 -106.05 586.5 -106.05 585.3 -106.05 584.55 -105.05
L 584.5 -105.9
M 570.6 -99.15
Q 569.85 -99.15 569.5 -99.55 569.1 -100 569.05 -100.95
L 573.45 -100.95 573.45 -102.05
Q 573.45 -104 572.65 -105.05 571.85 -106.05 570.25 -106.05 568.6 -106.05 567.75 -104.95 566.85 -103.9 566.85 -101.9
L 566.85 -101.2
Q 566.85 -99.3 567.8 -98.3 568.75 -97.3 570.45 -97.3 571.4 -97.3 572.15 -97.65 572.9 -98 573.35 -98.55
L 572.45 -99.9
Q 571.7 -99.15 570.6 -99.15
M 571.05 -103.85
Q 571.25 -103.45 571.3 -102.7
L 571.3 -102.5 569.1 -102.5
Q 569.15 -103.4 569.4 -103.8 569.65 -104.2 570.25 -104.2 570.8 -104.2 571.05 -103.85
M 421 -82.05
Q 421 -83.4 420.25 -84.15 419.45 -84.85 418.05 -84.85 416.75 -84.85 415.85 -84.1 414.95 -83.35 414.95 -82.15
L 417.2 -82.15
Q 417.2 -83.15 418 -83.15 418.4 -83.15 418.6 -82.9 418.75 -82.65 418.75 -82.1
L 418.75 -81.4 418.1 -81.4
Q 416.5 -81.4 415.65 -80.65 414.8 -79.95 414.8 -78.6 414.8 -77.5 415.5 -76.8 416.2 -76.1 417.25 -76.1 418.3 -76.1 418.9 -76.9 419 -76.45 419.05 -76.25
L 421.3 -76.25 421.3 -76.4
Q 421 -77 421 -78.1
L 421 -82.05
M 418.75 -80.1
L 418.75 -78.35
Q 418.65 -78.1 418.4 -78 418.15 -77.85 417.75 -77.85 417.05 -77.85 417.05 -78.75 417.05 -79.35 417.35 -79.75 417.7 -80.1 418.25 -80.1
L 418.75 -80.1
M 413.35 -84.7
L 411.1 -84.7 411.1 -76.25 413.35 -76.25 413.35 -84.7
M 413.4 -86.9
Q 413.4 -87.4 413.1 -87.75 412.75 -88.05 412.2 -88.05 411.65 -88.05 411.35 -87.75 411 -87.4 411 -86.9 411 -86.4 411.35 -86.05 411.65 -85.7 412.2 -85.7 412.75 -85.7 413.1 -86.05 413.4 -86.4 413.4 -86.9
M 410 -88.25
Q 409.4 -88.4 409 -88.4 407.75 -88.4 407 -87.65 406.25 -86.85 406.25 -85.45
L 406.25 -84.7 405.25 -84.7 405.25 -83.05 406.25 -83.05 406.25 -76.25 408.5 -76.25 408.5 -83.05 409.8 -83.05 409.8 -84.7 408.5 -84.7 408.5 -85.4
Q 408.5 -86.55 409.45 -86.55 409.8 -86.55 410 -86.5
L 410 -88.25
M 440.7 -83.15
Q 441.1 -83.15 441.3 -82.9 441.45 -82.65 441.45 -82.1
L 441.45 -81.4 440.8 -81.4
Q 439.2 -81.4 438.35 -80.65 437.5 -79.95 437.5 -78.6 437.5 -77.5 438.2 -76.8 438.9 -76.1 439.95 -76.1 441 -76.1 441.6 -76.9 441.7 -76.45 441.75 -76.25
L 444 -76.25 444 -76.4
Q 443.7 -77 443.7 -78.1
L 443.7 -82.05
Q 443.7 -83.4 442.95 -84.15 442.15 -84.85 440.75 -84.85 439.45 -84.85 438.55 -84.1 437.65 -83.35 437.65 -82.15
L 439.9 -82.15
Q 439.9 -83.15 440.7 -83.15
M 439.75 -78.75
Q 439.75 -79.35 440.05 -79.75 440.4 -80.1 440.95 -80.1
L 441.45 -80.1 441.45 -78.35
Q 441.35 -78.1 441.1 -78 440.85 -77.85 440.45 -77.85 439.75 -77.85 439.75 -78.75
M 425.7 -83
Q 426.25 -83 426.45 -82.7 426.7 -82.35 426.7 -81.65
L 426.7 -76.25 428.9 -76.25 428.9 -81.8
Q 428.85 -84.85 426.65 -84.85 425.45 -84.85 424.7 -83.85
L 424.65 -84.7 422.55 -84.7 422.55 -76.25 424.75 -76.25 424.75 -82.4
Q 425.1 -83 425.7 -83
M 430.4 -84.7
L 430.4 -82.85 433.6 -82.85 430.35 -77.65 430.35 -76.25 436.3 -76.25 436.3 -78.1 432.95 -78.1 436.25 -83.35 436.25 -84.7 430.4 -84.7
M 459.35 -84.7
L 457.1 -84.7 457.1 -76.25 459.35 -76.25 459.35 -84.7
M 445.6 -78.15
L 445.6 -76.4
Q 445.6 -75.5 445.1 -74.55
L 444.8 -74 445.95 -73.4
Q 446.65 -74 447.1 -74.9 447.5 -75.75 447.5 -76.6
L 447.5 -78.15 445.6 -78.15
M 455.3 -88.25
L 453.05 -88.25 453.05 -76.25 455.3 -76.25 455.3 -88.25
M 459.1 -87.75
Q 458.75 -88.05 458.2 -88.05 457.65 -88.05 457.35 -87.75 457 -87.4 457 -86.9 457 -86.4 457.35 -86.05 457.65 -85.7 458.2 -85.7 458.75 -85.7 459.1 -86.05 459.4 -86.4 459.4 -86.9 459.4 -87.4 459.1 -87.75
M 480.9 -76.25
L 483.15 -76.25 483.15 -84.7 480.9 -84.7 480.9 -76.25
M 485.55 -83.75
Q 484.65 -82.7 484.65 -80.7
L 484.65 -80
Q 484.65 -78.1 485.6 -77.1 486.25 -76.4 487.25 -76.2 487.7 -76.1 488.25 -76.1 489.2 -76.1 489.95 -76.45 490.7 -76.8 491.15 -77.35
L 490.25 -78.7
Q 489.5 -77.95 488.4 -77.95 487.65 -77.95 487.3 -78.35
L 487.25 -78.4
Q 486.9 -78.85 486.85 -79.75
L 491.25 -79.75 491.25 -80.85
Q 491.25 -82.8 490.45 -83.85 489.65 -84.85 488.05 -84.85 487.6 -84.85 487.25 -84.75 486.2 -84.55 485.55 -83.75
M 486.9 -81.3
Q 486.95 -82.2 487.2 -82.6 487.2 -82.65 487.25 -82.65 487.5 -83 488.05 -83 488.6 -83 488.85 -82.65 489.05 -82.25 489.1 -81.5
L 489.1 -81.3 486.9 -81.3
M 469 -84.85
Q 467.65 -84.85 466.95 -83.7 466.4 -84.85 465.15 -84.85 463.95 -84.85 463.2 -83.9
L 463.15 -84.7 461.05 -84.7 461.05 -76.25 463.25 -76.25 463.25 -82.4
Q 463.6 -83 464.2 -83 464.7 -83 464.9 -82.7 465.05 -82.35 465.05 -81.65
L 465.05 -76.25 467.3 -76.25 467.3 -82 467.25 -82.25
Q 467.55 -83 468.2 -83 468.65 -83 468.9 -82.7 469.1 -82.4 469.1 -81.65
L 469.1 -76.25 471.3 -76.25 471.3 -81.8
Q 471.25 -84.85 469 -84.85
M 475.05 -83.95
L 474.95 -84.7 472.9 -84.7 472.9 -73 475.1 -73 475.1 -76.95
Q 475.75 -76.1 476.75 -76.1 478.1 -76.1 478.8 -77.15 479.5 -78.2 479.5 -80.2
L 479.5 -80.85
Q 479.5 -82.9 478.8 -83.85 478.1 -84.85 476.75 -84.85 475.65 -84.85 475.05 -83.95
M 475.1 -78.5
L 475.1 -82.45
Q 475.45 -83 476.1 -83 476.75 -83 477 -82.5 477.3 -82 477.3 -80.75
L 477.3 -80.2
Q 477.3 -79.05 477.05 -78.5 476.8 -77.95 476.1 -77.95 475.4 -77.95 475.1 -78.5
M 482.9 -87.75
Q 482.55 -88.05 482 -88.05 481.45 -88.05 481.15 -87.75 480.8 -87.4 480.8 -86.9 480.8 -86.4 481.15 -86.05 481.45 -85.7 482 -85.7 482.55 -85.7 482.9 -86.05 483.2 -86.4 483.2 -86.9 483.2 -87.4 482.9 -87.75
M 401.9 -84.85
Q 400.7 -84.85 399.95 -83.85
L 399.9 -84.7 397.8 -84.7 397.8 -76.25 400 -76.25 400 -82.4
Q 400.35 -83 400.95 -83 401.5 -83 401.7 -82.7 401.95 -82.35 401.95 -81.65
L 401.95 -76.25 404.15 -76.25 404.15 -81.8
Q 404.1 -84.85 401.9 -84.85
M 384.75 -82.6
Q 385 -83 385.6 -83 386.15 -83 386.35 -82.65 386.6 -82.25 386.6 -81.55
L 388.65 -81.55
Q 388.65 -83.15 387.85 -84 387.05 -84.85 385.65 -84.85 384 -84.85 383.15 -83.8 382.3 -82.75 382.3 -80.75
L 382.3 -80.1
Q 382.3 -78.1 383.15 -77.1 384 -76.1 385.65 -76.1 387 -76.1 387.8 -76.95 388.65 -77.8 388.65 -79.2
L 386.6 -79.2
Q 386.55 -77.95 385.6 -77.95 385.2 -77.95 384.95 -78.1 384.7 -78.3 384.6 -78.7 384.5 -79.15 384.5 -80.15
L 384.5 -81
Q 384.5 -82.2 384.75 -82.6
M 393.05 -84.85
Q 391.45 -84.85 390.55 -83.75 389.65 -82.65 389.65 -80.75
L 389.65 -80.2
Q 389.65 -78.25 390.55 -77.2 391.45 -76.1 393.1 -76.1 394.7 -76.1 395.6 -77.2 396.5 -78.25 396.5 -80.2
L 396.5 -80.75
Q 396.5 -82.65 395.6 -83.75 394.7 -84.85 393.05 -84.85
M 393.95 -82.45
Q 394.3 -81.9 394.3 -80.75
L 394.3 -79.8
Q 394.2 -77.95 393.1 -77.95 391.85 -77.95 391.85 -80.2
L 391.85 -80.75
Q 391.85 -81.9 392.2 -82.45 392.5 -83 393.05 -83 393.65 -83 393.95 -82.45
M 394.65 -101.95
L 394.65 -101.3
Q 394.65 -99.4 395.4 -98.35 396.15 -97.3 397.5 -97.3 398.5 -97.3 399.15 -98.1
L 399.15 -97.4
Q 399.1 -96.6 398.8 -96.25 398.5 -95.9 397.75 -95.9 397.3 -95.9 396.8 -96.1 396.3 -96.3 396 -96.65
L 395.25 -95.1
Q 395.6 -94.7 396.35 -94.4 397.15 -94.1 397.85 -94.1 399.55 -94.1 400.45 -94.95 401.35 -95.85 401.35 -97.45
L 401.35 -105.9 399.35 -105.9 399.25 -105.15
Q 398.65 -106.05 397.5 -106.05 396.15 -106.05 395.4 -105.05 394.65 -104 394.65 -101.95
M 397.15 -103.65
Q 397.5 -104.2 398.15 -104.2 398.8 -104.2 399.15 -103.65
L 399.15 -99.65
Q 398.8 -99.15 398.1 -99.15 397.45 -99.15 397.15 -99.65 396.85 -100.2 396.85 -101.4
L 396.85 -101.95
Q 396.85 -103.15 397.15 -103.65
M 386.7 -101.95
L 386.7 -101.4
Q 386.7 -99.45 387.6 -98.4 388.5 -97.3 390.15 -97.3 391.75 -97.3 392.65 -98.4 393.55 -99.45 393.55 -101.4
L 393.55 -101.95
Q 393.55 -103.85 392.65 -104.95 391.75 -106.05 390.1 -106.05 388.5 -106.05 387.6 -104.95 386.7 -103.85 386.7 -101.95
M 388.9 -101.4
L 388.9 -101.95
Q 388.9 -103.1 389.25 -103.65 389.55 -104.2 390.1 -104.2 390.7 -104.2 391 -103.65 391.35 -103.1 391.35 -101.95
L 391.35 -101
Q 391.25 -99.15 390.15 -99.15 388.9 -99.15 388.9 -101.4
M 381.1 -105.9
L 379.05 -105.9 379.05 -94.2 381.25 -94.2 381.25 -98.15
Q 381.9 -97.3 382.9 -97.3 384.25 -97.3 384.95 -98.35 385.65 -99.4 385.65 -101.4
L 385.65 -102.05
Q 385.65 -104.1 384.95 -105.05 384.25 -106.05 382.9 -106.05 381.8 -106.05 381.2 -105.15
L 381.1 -105.9
M 383.45 -101.4
Q 383.45 -100.25 383.2 -99.7 382.95 -99.15 382.25 -99.15 381.55 -99.15 381.25 -99.7
L 381.25 -103.65
Q 381.6 -104.2 382.25 -104.2 382.9 -104.2 383.15 -103.7 383.45 -103.2 383.45 -101.95
L 383.45 -101.4
M 377.35 -105.9
L 375.1 -105.9 375.1 -97.45 377.35 -97.45 377.35 -105.9
M 377.1 -108.95
Q 376.75 -109.25 376.2 -109.25 375.65 -109.25 375.35 -108.95 375 -108.6 375 -108.1 375 -107.6 375.35 -107.25 375.65 -106.9 376.2 -106.9 376.75 -106.9 377.1 -107.25 377.4 -107.6 377.4 -108.1 377.4 -108.6 377.1 -108.95
M 372.7 -105.9
L 372.7 -108 370.45 -108 370.45 -105.9 369.5 -105.9 369.5 -104.25 370.45 -104.25 370.45 -99.75
Q 370.5 -97.3 372.65 -97.3 373.3 -97.3 373.85 -97.5
L 373.85 -99.2
Q 373.65 -99.15 373.35 -99.15 372.95 -99.15 372.8 -99.35 372.7 -99.55 372.7 -100.05
L 372.7 -104.25 373.8 -104.25 373.8 -105.9 372.7 -105.9
M 481.95 -99.35
L 480.05 -99.35 480.05 -97.6
Q 480.05 -96.7 479.55 -95.75
L 479.25 -95.2 480.4 -94.6
Q 481.1 -95.2 481.55 -96.1 481.95 -96.95 481.95 -97.8
L 481.95 -99.35
M 471.9 -101.9
L 471.9 -101.2
Q 471.9 -99.3 472.85 -98.3 473.8 -97.3 475.5 -97.3 476.45 -97.3 477.2 -97.65 477.95 -98 478.4 -98.55
L 477.5 -99.9
Q 476.75 -99.15 475.65 -99.15 474.9 -99.15 474.55 -99.55 474.15 -100 474.1 -100.95
L 478.5 -100.95 478.5 -102.05
Q 478.5 -104 477.7 -105.05 476.9 -106.05 475.3 -106.05 473.65 -106.05 472.8 -104.95 471.9 -103.9 471.9 -101.9
M 474.15 -102.5
Q 474.2 -103.4 474.45 -103.8 474.7 -104.2 475.3 -104.2 475.85 -104.2 476.1 -103.85 476.3 -103.45 476.35 -102.7
L 476.35 -102.5 474.15 -102.5
M 470.4 -109.45
L 468.15 -109.45 468.15 -97.45 470.4 -97.45 470.4 -109.45
M 458.45 -105.9
L 456.2 -105.9 456.2 -97.45 458.45 -97.45 458.45 -105.9
M 457.3 -109.25
Q 456.75 -109.25 456.45 -108.95 456.1 -108.6 456.1 -108.1 456.1 -107.6 456.45 -107.25 456.75 -106.9 457.3 -106.9 457.85 -106.9 458.2 -107.25 458.5 -107.6 458.5 -108.1 458.5 -108.6 458.2 -108.95 457.85 -109.25 457.3 -109.25
M 464 -106.05
Q 463 -106.05 462.35 -105.2
L 462.35 -109.45 460.15 -109.45 460.15 -97.45 462.2 -97.45 462.25 -98.3
Q 462.95 -97.3 464.05 -97.3 465.45 -97.3 466.1 -98.3 466.75 -99.35 466.75 -101.4
L 466.75 -102.05
Q 466.75 -104 466.1 -105.05 465.4 -106.05 464 -106.05
M 464.55 -101.95
L 464.55 -101.15
Q 464.5 -99.95 464.3 -99.55 464.05 -99.15 463.4 -99.15 462.65 -99.15 462.35 -99.7
L 462.35 -103.55
Q 462.7 -104.2 463.4 -104.2 464 -104.2 464.3 -103.75 464.55 -103.3 464.55 -101.95
M 454.5 -105.9
L 452.5 -105.9 452.4 -105.15
Q 451.8 -106.05 450.65 -106.05 449.3 -106.05 448.55 -105.05 447.8 -104 447.8 -101.95
L 447.8 -101.3
Q 447.8 -99.4 448.55 -98.35 449.3 -97.3 450.65 -97.3 451.65 -97.3 452.3 -98.1
L 452.3 -97.4
Q 452.25 -96.6 451.95 -96.25 451.65 -95.9 450.9 -95.9 450.45 -95.9 449.95 -96.1 449.45 -96.3 449.15 -96.65
L 448.4 -95.1
Q 448.75 -94.7 449.5 -94.4 450.3 -94.1 451 -94.1 452.7 -94.1 453.6 -94.95 454.5 -95.85 454.5 -97.45
L 454.5 -105.9
M 450.3 -99.65
Q 450 -100.2 450 -101.4
L 450 -101.95
Q 450 -103.15 450.3 -103.65 450.65 -104.2 451.3 -104.2 451.95 -104.2 452.3 -103.65
L 452.3 -99.65
Q 451.95 -99.15 451.25 -99.15 450.6 -99.15 450.3 -99.65
M 440.2 -101.9
L 440.2 -101.2
Q 440.2 -99.3 441.15 -98.3 442.1 -97.3 443.8 -97.3 444.75 -97.3 445.5 -97.65 446.25 -98 446.7 -98.55
L 445.8 -99.9
Q 445.05 -99.15 443.95 -99.15 443.2 -99.15 442.85 -99.55 442.45 -100 442.4 -100.95
L 446.8 -100.95 446.8 -102.05
Q 446.8 -104 446 -105.05 445.2 -106.05 443.6 -106.05 441.95 -106.05 441.1 -104.95 440.2 -103.9 440.2 -101.9
M 442.45 -102.5
Q 442.5 -103.4 442.75 -103.8 443 -104.2 443.6 -104.2 444.15 -104.2 444.4 -103.85 444.6 -103.45 444.65 -102.7
L 444.65 -102.5 442.45 -102.5
M 438.7 -109.45
L 436.45 -109.45 436.45 -97.45 438.7 -97.45 438.7 -109.45
M 428.1 -106.05
Q 426.8 -106.05 425.9 -105.3 425 -104.55 425 -103.35
L 427.25 -103.35
Q 427.25 -104.35 428.05 -104.35 428.45 -104.35 428.65 -104.1 428.8 -103.85 428.8 -103.3
L 428.8 -102.6 428.15 -102.6
Q 426.55 -102.6 425.7 -101.85 424.85 -101.15 424.85 -99.8 424.85 -98.7 425.55 -98 426.25 -97.3 427.3 -97.3 428.35 -97.3 428.95 -98.1 429.05 -97.65 429.1 -97.45
L 431.35 -97.45 431.35 -97.6
Q 431.05 -98.2 431.05 -99.3
L 431.05 -103.25
Q 431.05 -104.6 430.3 -105.35 429.5 -106.05 428.1 -106.05
M 427.1 -99.95
Q 427.1 -100.55 427.4 -100.95 427.75 -101.3 428.3 -101.3
L 428.8 -101.3 428.8 -99.55
Q 428.7 -99.3 428.45 -99.2 428.2 -99.05 427.8 -99.05 427.1 -99.05 427.1 -99.95
M 420.05 -109.45
Q 419.45 -109.6 419.05 -109.6 417.8 -109.6 417.05 -108.85 416.3 -108.05 416.3 -106.65
L 416.3 -105.9 415.3 -105.9 415.3 -104.25 416.3 -104.25 416.3 -97.45 418.55 -97.45 418.55 -104.25 419.85 -104.25 419.85 -105.9 418.55 -105.9 418.55 -106.6
Q 418.55 -107.75 419.5 -107.75 419.85 -107.75 420.05 -107.7
L 420.05 -109.45
M 423.4 -105.9
L 421.15 -105.9 421.15 -97.45 423.4 -97.45 423.4 -105.9
M 422.25 -109.25
Q 421.7 -109.25 421.4 -108.95 421.05 -108.6 421.05 -108.1 421.05 -107.6 421.4 -107.25 421.7 -106.9 422.25 -106.9 422.8 -106.9 423.15 -107.25 423.45 -107.6 423.45 -108.1 423.45 -108.6 423.15 -108.95 422.8 -109.25 422.25 -109.25
M 407.15 -105.95
Q 406.9 -106.05 406.55 -106.05 405.6 -106.05 405.1 -105
L 405.05 -105.9 402.95 -105.9 402.95 -97.45 405.15 -97.45 405.15 -103.05
Q 405.5 -103.85 406.4 -103.85
L 407.15 -103.75 407.15 -105.95
M 413.45 -105.35
Q 412.65 -106.05 411.25 -106.05 409.95 -106.05 409.05 -105.3 408.15 -104.55 408.15 -103.35
L 410.4 -103.35
Q 410.4 -104.35 411.2 -104.35 411.6 -104.35 411.8 -104.1 411.95 -103.85 411.95 -103.3
L 411.95 -102.6 411.3 -102.6
Q 409.7 -102.6 408.85 -101.85 408 -101.15 408 -99.8 408 -98.7 408.7 -98 409.4 -97.3 410.45 -97.3 411.5 -97.3 412.1 -98.1 412.2 -97.65 412.25 -97.45
L 414.5 -97.45 414.5 -97.6
Q 414.2 -98.2 414.2 -99.3
L 414.2 -103.25
Q 414.2 -104.6 413.45 -105.35
M 411.6 -99.2
Q 411.35 -99.05 410.95 -99.05 410.25 -99.05 410.25 -99.95 410.25 -100.55 410.55 -100.95 410.9 -101.3 411.45 -101.3
L 411.95 -101.3 411.95 -99.55
Q 411.85 -99.3 411.6 -99.2 Z"/>

<path fill="#068107" stroke="none" d="
M 535.65 -127.15
L 532.8 -127.15 532.8 -124.5
Q 532.75 -123.1 532 -121.7
L 531.55 -120.85 533.35 -119.95
Q 534.4 -120.85 535.05 -122.2 535.65 -123.55 535.65 -124.8
L 535.65 -127.15
M 547.15 -134.4
Q 547.5 -134.75 548 -134.75 549.3 -134.75 549.3 -133.2
L 552.6 -133.2
Q 552.6 -135 551.35 -136.1 550.1 -137.15 548 -137.15 546.05 -137.15 544.85 -136.05 543.65 -135 543.65 -133.35 543.65 -132 544.4 -131.1 545.15 -130.25 547.2 -129.4 548.6 -128.8 549 -128.4 549.4 -128.05 549.4 -127.65 549.4 -126.45 548.1 -126.45 547.2 -126.45 546.85 -126.85 546.45 -127.3 546.45 -128.2
L 543.3 -128.2
Q 543.3 -127.05 543.9 -126.1 544.5 -125.1 545.55 -124.55 546.6 -124 548 -124 550.1 -124 551.35 -125.05 552.65 -126.1 552.65 -127.8 552.65 -129.25 551.8 -130.15 550.95 -131.1 548.95 -131.85 547.55 -132.45 547.15 -132.75 546.8 -133.05 546.8 -133.5 546.8 -134.1 547.15 -134.4
M 555.9 -136
Q 554.6 -134.9 554.6 -133.1
L 557.9 -133.1
Q 557.9 -134.55 559.15 -134.55 559.7 -134.55 560 -134.2 560.3 -133.85 560.3 -133
L 560.3 -132 559.3 -132
Q 556.9 -131.95 555.6 -130.9 554.35 -129.8 554.35 -127.8 554.35 -126.1 555.4 -125.05 556.45 -124 558.05 -124 559.55 -124 560.45 -125.25 560.6 -124.55 560.75 -124.25
L 564.05 -124.25 564.05 -124.45
Q 563.65 -125.35 563.6 -127
L 563.6 -133
Q 563.6 -135 562.45 -136.05 561.3 -137.15 559.25 -137.15 557.2 -137.15 555.9 -136
M 559.5 -130
L 560.3 -130 560.3 -127.35
Q 560.1 -127.05 559.7 -126.85 559.3 -126.6 558.75 -126.6 557.65 -126.6 557.65 -128 557.65 -128.95 558.15 -129.45 558.65 -130 559.5 -130
M 506.05 -130.15
Q 505.2 -131.1 503.2 -131.85 501.8 -132.45 501.4 -132.75 501.05 -133.05 501.05 -133.5 501.05 -134.1 501.4 -134.4 501.75 -134.75 502.25 -134.75 503.55 -134.75 503.55 -133.2
L 506.85 -133.2
Q 506.85 -135 505.6 -136.1 504.35 -137.15 502.25 -137.15 500.3 -137.15 499.1 -136.05 497.9 -135 497.9 -133.35 497.9 -132 498.65 -131.1 499.4 -130.25 501.45 -129.4 502.85 -128.8 503.25 -128.4 503.65 -128.05 503.65 -127.65 503.65 -126.45 502.35 -126.45 501.45 -126.45 501.1 -126.85 500.7 -127.3 500.7 -128.2
L 497.55 -128.2
Q 497.55 -127.05 498.15 -126.1 498.75 -125.1 499.8 -124.55 500.85 -124 502.25 -124 504.35 -124 505.6 -125.05 506.9 -126.1 506.9 -127.8 506.9 -129.25 506.05 -130.15
M 489.3 -136.95
L 486.2 -136.95 486.2 -124.25 489.5 -124.25 489.5 -133.45
Q 490 -134.4 490.9 -134.4 491.7 -134.4 492.05 -133.9 492.35 -133.4 492.35 -132.35
L 492.35 -124.25 495.7 -124.25 495.7 -132.6
Q 495.6 -137.15 492.35 -137.15 490.5 -137.15 489.4 -135.7
L 489.3 -136.95
M 520 -131
L 520 -130
Q 520.05 -127.05 521.1 -125.55 522.15 -124 524.15 -124 525.75 -124 526.75 -125.55
L 526.9 -124.25 529.9 -124.25 529.9 -142.25 526.55 -142.25 526.55 -135.9
Q 525.6 -137.15 524.15 -137.15 522.1 -137.15 521.05 -135.65 520 -134.1 520 -131
M 523.75 -133.65
Q 524.2 -134.4 525.1 -134.4 526.1 -134.4 526.55 -133.45
L 526.55 -127.65
Q 526.05 -126.8 525.1 -126.8 524.15 -126.8 523.75 -127.5 523.35 -128.25 523.35 -130.15
L 523.35 -131
Q 523.35 -132.9 523.75 -133.65
M 510 -135.55
Q 508.65 -133.9 508.65 -130.9
L 508.65 -129.9
Q 508.65 -127.05 510.1 -125.55 511.5 -124 514.1 -124 515.45 -124 516.6 -124.55 517.75 -125.05 518.35 -125.9
L 517.05 -127.9
Q 515.95 -126.75 514.3 -126.75 513.15 -126.75 512.6 -127.45 512.05 -128.05 511.95 -129.5
L 518.55 -129.5 518.55 -131.1
Q 518.55 -134.1 517.35 -135.65 516.15 -137.15 513.75 -137.15 511.3 -137.15 510 -135.55
M 513.7 -134.4
Q 514.6 -134.4 514.95 -133.8 515.3 -133.25 515.3 -132.1
L 515.3 -131.8 512 -131.8
Q 512.05 -133.15 512.45 -133.8 512.85 -134.4 513.7 -134.4
M 609.35 -135.55
Q 608 -133.9 608 -130.9
L 608 -129.9
Q 608 -127.05 609.45 -125.55 610.85 -124 613.45 -124 614.8 -124 615.95 -124.55 617.1 -125.05 617.7 -125.9
L 616.4 -127.9
Q 615.3 -126.75 613.65 -126.75 612.5 -126.75 611.95 -127.45 611.4 -128.05 611.3 -129.5
L 617.9 -129.5 617.9 -131.1
Q 617.9 -134.1 616.7 -135.65 615.5 -137.15 613.1 -137.15 610.65 -137.15 609.35 -135.55
M 614.65 -132.1
L 614.65 -131.8 611.35 -131.8
Q 611.4 -133.15 611.8 -133.8 612.2 -134.4 613.05 -134.4 613.95 -134.4 614.3 -133.8 614.65 -133.25 614.65 -132.1
M 626.1 -137
Q 625.75 -137.15 625.2 -137.15 623.8 -137.15 623 -135.55
L 622.9 -136.95 619.8 -136.95 619.8 -124.25 623.1 -124.25 623.1 -132.65
Q 623.6 -133.8 624.95 -133.8
L 626.05 -133.75 626.1 -137
M 631.25 -136.95
L 627.9 -136.95 627.9 -124.25 631.25 -124.25 631.25 -136.95
M 631.35 -140.2
Q 631.35 -141 630.85 -141.5 630.4 -141.95 629.55 -141.95 628.75 -141.95 628.25 -141.5 627.75 -141 627.75 -140.2 627.75 -139.45 628.25 -138.95 628.75 -138.45 629.55 -138.45 630.4 -138.45 630.9 -138.95 631.35 -139.45 631.35 -140.2
M 640.2 -142.25
Q 639.3 -142.5 638.7 -142.5 636.75 -142.5 635.7 -141.3 634.6 -140.15 634.55 -138.05
L 634.55 -136.95 633.05 -136.95 633.05 -134.45 634.55 -134.45 634.55 -124.25 637.9 -124.25 637.9 -134.45 639.9 -134.45 639.9 -136.95 637.9 -136.95 637.9 -137.95
Q 637.9 -139.7 639.35 -139.7 639.85 -139.7 640.2 -139.6
L 640.2 -142.25
M 583.3 -133.2
L 586.6 -133.2
Q 586.6 -135 585.35 -136.1 584.1 -137.15 582 -137.15 580.05 -137.15 578.85 -136.05 577.65 -135 577.65 -133.35 577.65 -132 578.4 -131.1 579.15 -130.25 581.2 -129.4 582.6 -128.8 583 -128.4 583.4 -128.05 583.4 -127.65 583.4 -126.45 582.1 -126.45 581.2 -126.45 580.85 -126.85 580.45 -127.3 580.45 -128.2
L 577.3 -128.2
Q 577.3 -127.05 577.9 -126.1 578.5 -125.1 579.55 -124.55 580.6 -124 582 -124 584.1 -124 585.35 -125.05 586.65 -126.1 586.65 -127.8 586.65 -129.25 585.8 -130.15 584.95 -131.1 582.95 -131.85 581.55 -132.45 581.15 -132.75 580.8 -133.05 580.8 -133.5 580.8 -134.1 581.15 -134.4 581.5 -134.75 582 -134.75 583.3 -134.75 583.3 -133.2
M 571.8 -133.9
Q 572.1 -133.4 572.1 -132.35
L 572.1 -124.25 575.45 -124.25 575.45 -132.6
Q 575.35 -137.15 572.1 -137.15 570.25 -137.15 569.15 -135.7
L 569.05 -136.95 565.95 -136.95 565.95 -124.25 569.25 -124.25 569.25 -133.45
Q 569.75 -134.4 570.65 -134.4 571.45 -134.4 571.8 -133.9
M 606.2 -133.2
Q 606.2 -135 604.95 -136.1 603.7 -137.15 601.6 -137.15 599.65 -137.15 598.45 -136.05 597.25 -135 597.25 -133.35 597.25 -132 598 -131.1 598.75 -130.25 600.8 -129.4 602.2 -128.8 602.6 -128.4 603 -128.05 603 -127.65 603 -126.45 601.7 -126.45 600.8 -126.45 600.45 -126.85 600.05 -127.3 600.05 -128.2
L 596.9 -128.2
Q 596.9 -127.05 597.5 -126.1 598.1 -125.1 599.15 -124.55 600.2 -124 601.6 -124 603.7 -124 604.95 -125.05 606.25 -126.1 606.25 -127.8 606.25 -129.25 605.4 -130.15 604.55 -131.1 602.55 -131.85 601.15 -132.45 600.75 -132.75 600.4 -133.05 600.4 -133.5 600.4 -134.1 600.75 -134.4 601.1 -134.75 601.6 -134.75 602.9 -134.75 602.9 -133.2
L 606.2 -133.2
M 588.95 -132.95
L 588.95 -130.2 594.65 -130.2 594.65 -132.95 588.95 -132.95
M 389.6 -135.5
Q 388.2 -133.9 388.2 -131
L 388.2 -130.2
Q 388.2 -127.3 389.6 -125.65 390.95 -124 393.35 -124 395.8 -124 397.15 -125.65 398.5 -127.25 398.5 -130.15
L 398.5 -131
Q 398.5 -133.9 397.15 -135.5 395.75 -137.15 393.35 -137.15 390.95 -137.15 389.6 -135.5
M 392.05 -133.55
Q 392.5 -134.4 393.35 -134.4 394.2 -134.4 394.7 -133.55 395.2 -132.75 395.2 -131
L 395.15 -129.6
Q 395.05 -126.75 393.35 -126.75 391.55 -126.75 391.55 -130.15
L 391.55 -131
Q 391.55 -132.75 392.05 -133.55
M 386.6 -131.15
Q 386.55 -134.1 385.6 -135.65 384.6 -137.15 382.5 -137.15 380.95 -137.15 380 -135.9
L 380 -142.25 376.7 -142.25 376.7 -124.25 379.75 -124.25 379.85 -125.5
Q 380.85 -124 382.5 -124 384.65 -124 385.6 -125.55 386.6 -127.1 386.6 -130.2
L 386.6 -131.15
M 381.55 -134.4
Q 382.5 -134.4 382.9 -133.7 383.3 -133 383.3 -131
L 383.3 -129.8
Q 383.25 -128 382.9 -127.4 382.5 -126.75 381.55 -126.75 380.45 -126.75 380 -127.65
L 380 -133.45
Q 380.5 -134.4 381.55 -134.4
M 364.35 -131
L 364.35 -130.2
Q 364.35 -127.3 365.75 -125.65 367.1 -124 369.5 -124 371.95 -124 373.3 -125.65 374.65 -127.25 374.65 -130.15
L 374.65 -131
Q 374.65 -133.9 373.3 -135.5 371.9 -137.15 369.5 -137.15 367.1 -137.15 365.75 -135.5 364.35 -133.9 364.35 -131
M 370.85 -133.55
Q 371.35 -132.75 371.35 -131
L 371.3 -129.6
Q 371.2 -126.75 369.5 -126.75 367.7 -126.75 367.7 -130.15
L 367.7 -131
Q 367.7 -132.75 368.2 -133.55 368.65 -134.4 369.5 -134.4 370.35 -134.4 370.85 -133.55
M 361.15 -139.95
Q 359.7 -141.3 357.15 -141.3
L 351.65 -141.3 351.65 -124.25 355.1 -124.25 355.1 -130.5 356.8 -130.5 359.35 -124.25 363.05 -124.25 363.05 -124.4 360.05 -131.4
Q 362.55 -132.75 362.55 -136.15 362.55 -138.65 361.15 -139.95
M 355.1 -138.45
L 357.1 -138.45
Q 359.1 -138.45 359.1 -135.85 359.1 -134.75 358.6 -134.05 358.05 -133.35 357.05 -133.35
L 355.1 -133.35 355.1 -138.45
M 454.1 -136.95
L 451 -136.95 451 -124.25 454.3 -124.25 454.3 -133.45
Q 454.8 -134.4 455.7 -134.4 456.5 -134.4 456.85 -133.9 457.15 -133.4 457.15 -132.35
L 457.15 -124.25 460.5 -124.25 460.5 -132.6
Q 460.4 -137.15 457.15 -137.15 455.3 -137.15 454.2 -135.7
L 454.1 -136.95
M 475.8 -135.55
Q 474.45 -133.9 474.45 -130.9
L 474.45 -129.9
Q 474.45 -127.05 475.9 -125.55 477.3 -124 479.9 -124 481.25 -124 482.4 -124.55 483.55 -125.05 484.15 -125.9
L 482.85 -127.9
Q 481.75 -126.75 480.1 -126.75 478.95 -126.75 478.4 -127.45 477.85 -128.05 477.75 -129.5
L 484.35 -129.5 484.35 -131.1
Q 484.35 -134.1 483.15 -135.65 481.95 -137.15 479.55 -137.15 477.1 -137.15 475.8 -135.55
M 481.1 -132.1
L 481.1 -131.8 477.8 -131.8
Q 477.85 -133.15 478.25 -133.8 478.65 -134.4 479.5 -134.4 480.4 -134.4 480.75 -133.8 481.1 -133.25 481.1 -132.1
M 472.3 -142.25
L 468.95 -142.25 468.95 -135.9
Q 468 -137.15 466.55 -137.15 464.5 -137.15 463.45 -135.65 462.4 -134.1 462.4 -131
L 462.4 -130
Q 462.45 -127.05 463.5 -125.55 464.55 -124 466.55 -124 468.15 -124 469.15 -125.55
L 469.3 -124.25 472.3 -124.25 472.3 -142.25
M 466.15 -133.65
Q 466.6 -134.4 467.5 -134.4 468.5 -134.4 468.95 -133.45
L 468.95 -127.65
Q 468.45 -126.8 467.5 -126.8 466.55 -126.8 466.15 -127.5 465.75 -128.25 465.75 -130.15
L 465.75 -131
Q 465.75 -132.9 466.15 -133.65
M 406.2 -126.9
Q 405.9 -126.85 405.4 -126.85 404.8 -126.85 404.6 -127.1 404.4 -127.4 404.4 -128.15
L 404.4 -134.45 406.1 -134.45 406.1 -136.95 404.4 -136.95 404.4 -140.05 401.1 -140.05 401.1 -136.95 399.65 -136.95 399.65 -134.45 401.1 -134.45 401.1 -127.7
Q 401.15 -124 404.35 -124 405.35 -124 406.15 -124.35
L 406.2 -126.9
M 407.5 -131
L 407.5 -130.2
Q 407.5 -127.3 408.9 -125.65 410.25 -124 412.65 -124 415.1 -124 416.45 -125.65 417.8 -127.25 417.8 -130.15
L 417.8 -131
Q 417.8 -133.9 416.45 -135.5 415.05 -137.15 412.65 -137.15 410.25 -137.15 408.9 -135.5 407.5 -133.9 407.5 -131
M 410.85 -130.15
L 410.85 -131
Q 410.85 -132.75 411.35 -133.55 411.8 -134.4 412.65 -134.4 413.5 -134.4 414 -133.55 414.5 -132.75 414.5 -131
L 414.45 -129.6
Q 414.35 -126.75 412.65 -126.75 410.85 -126.75 410.85 -130.15
M 440.1 -135.5
Q 438.7 -133.9 438.7 -131
L 438.7 -130.2
Q 438.7 -127.3 440.1 -125.65 441.45 -124 443.85 -124 446.3 -124 447.65 -125.65 449 -127.25 449 -130.15
L 449 -131
Q 449 -133.9 447.65 -135.5 446.25 -137.15 443.85 -137.15 441.45 -137.15 440.1 -135.5
M 442.55 -133.55
Q 443 -134.4 443.85 -134.4 444.7 -134.4 445.2 -133.55 445.7 -132.75 445.7 -131
L 445.65 -129.6
Q 445.55 -126.75 443.85 -126.75 442.05 -126.75 442.05 -130.15
L 442.05 -131
Q 442.05 -132.75 442.55 -133.55
M 431.3 -138.7
Q 432.65 -138.7 433.15 -138 433.65 -137.3 433.7 -135.5
L 437.15 -135.5
Q 436.95 -138.45 435.5 -140 434.05 -141.55 431.3 -141.55 428.45 -141.55 426.85 -139.65 425.25 -137.75 425.25 -134.2
L 425.25 -131.35
Q 425.25 -127.8 426.8 -125.9 428.35 -124 431.25 -124 434 -124 435.5 -125.5 437 -127 437.15 -129.95
L 433.7 -129.95
Q 433.6 -128.2 433.1 -127.55 432.6 -126.85 431.25 -126.85 429.85 -126.85 429.3 -127.8 428.7 -128.75 428.7 -131.3
L 428.7 -134.55
Q 428.75 -136.75 429.3 -137.7 429.9 -138.7 431.3 -138.7 Z"/>
</g>

<g id="psc_logo_0_Layer0_0_FILL">
<path fill="#068107" stroke="none" d="
M 106.2 54.7
L 143.6 69.65 143.6 39.75 106.2 54.7
M -10.35 149.45
L -19.95 153.25 -6.9 158.45 -6.9 150.85 -10.35 149.45
M -33.4 147.9
L -23.9 144.1 -33.45 140.3 -33.45 147.9 -33.4 147.9
M -100.35 57
L -139.9 41.2 -139.9 117.1 -100.35 101.35 -100.35 57
M -139.9 -37.75
L -139.9 -4.55 -98.3 -21.15 -139.9 -37.75
M 2.55 -61.4
L 44.2 -78.05 44.2 -155.3 -94.2 -100.05 2.55 -61.4 Z"/>

<path fill="#069D0A" stroke="none" d="
M -40 111
L -20 119 0 126.95 143.6 69.65 106.2 54.7 0 97.05 -2.55 96.05 -40 111
M -98.3 -21.15
L -139.9 -4.55 -40.2 35.25 -40.2 2.05 -98.3 -21.15
M 185.35 -22.7
L 144.55 -39 42 1.95 42.05 34.55 185.35 -22.7 Z"/>

<path fill="#3EEB3D" stroke="none" d="
M -6.9 143.05
L -19.95 137.85 -20 137.85 -20 145.65 -10.35 149.45 -6.9 150.85 -6.9 158.45 -19.95 153.25 -20 153.25 -20 165 0 172.95 0 126.95 -20 119 -20 130.2 -10.35 134.05 -6.9 135.4 -6.9 143.05
M -40 111
L -40 122.2 -30.4 126.05 -26.9 127.45 -26.9 135.1 -40 129.85 -40 157 -20 165 -20 153.25 -33.4 147.9 -33.45 147.9 -33.45 140.3 -23.9 144.1 -20 145.65 -20 137.85 -20 130.2 -20 119 -40 111
M 44.2 -155.3
L 0 -172.95 -185.35 -98.95 -183.85 -98.35 0 -24.95 184.15 -98.5 185.35 -98.95 141.15 -116.6 2.8 -61.3 2.55 -61.4 -94.2 -100.05 44.2 -155.3 Z"/>

<path fill="#069106" stroke="none" d="
M -10.35 134.05
L -19.95 137.85 -6.9 143.05 -6.9 135.4 -10.35 134.05
M -26.9 127.45
L -30.4 126.05 -40 129.85 -26.9 135.1 -26.9 127.45
M -23.9 144.1
L -33.4 147.9 -20 153.25 -19.95 153.25 -10.35 149.45 -20 145.65 -23.9 144.1 Z"/>

<path fill="#06D705" stroke="none" d="
M -20 130.2
L -20 137.85 -19.95 137.85 -10.35 134.05 -20 130.2
M -183.85 -98.35
L -185.35 -98.95 -185.35 98.95 -139.9 117.1 -139.9 41.2 -100.35 57 -2.55 96.05 0 97.05 0 -24.95 -183.85 -98.35
M -139.9 -4.55
L -139.9 -37.75 -98.3 -21.15 -40.2 2.05 -40.2 35.25 -139.9 -4.55
M 185.35 -98.95
L 184.15 -98.5 0 -24.95 0 97.05 106.2 54.7 143.6 39.75 143.6 69.65 0 126.95 0 172.95 185.35 98.95 185.35 -22.7 42.05 34.55 42 1.95 144.55 -39 185.35 -55.3 185.35 -98.95 Z"/>
</g>

<g id="paleta_0_Layer0_0_FILL">
<path fill="#3EEB3D" stroke="none" d="
M 72.65 -102.7
Q 65.35 -110 55 -110 44.65 -110 37.3 -102.7 30 -95.35 30 -85 30 -74.65 37.3 -67.35 44.65 -60 55 -60 65.35 -60 72.65 -67.35 80 -74.65 80 -85 80 -95.35 72.65 -102.7 Z"/>
</g>

<g id="paleta_0_Layer0_1_FILL">
<path fill="#06D705" stroke="none" d="
M 72.65 -102.7
Q 65.35 -110 55 -110 44.65 -110 37.3 -102.7 30 -95.35 30 -85 30 -74.65 37.3 -67.35 44.65 -60 55 -60 65.35 -60 72.65 -67.35 80 -74.65 80 -85 80 -95.35 72.65 -102.7 Z"/>
</g>

<g id="paleta_0_Layer0_2_FILL">
<path fill="#069D0A" stroke="none" d="
M 72.65 -102.7
Q 65.35 -110 55 -110 44.65 -110 37.3 -102.7 30 -95.35 30 -85 30 -74.65 37.3 -67.35 44.65 -60 55 -60 65.35 -60 72.65 -67.35 80 -74.65 80 -85 80 -95.35 72.65 -102.7 Z"/>
</g>

<g id="paleta_0_Layer0_3_FILL">
<path fill="#068107" stroke="none" d="
M 72.65 -102.7
Q 65.35 -110 55 -110 44.65 -110 37.3 -102.7 30 -95.35 30 -85 30 -74.65 37.3 -67.35 44.65 -60 55 -60 65.35 -60 72.65 -67.35 80 -74.65 80 -85 80 -95.35 72.65 -102.7 Z"/>
</g>

<g id="paleta_0_Layer0_4_FILL">
<path fill="#83ED88" stroke="none" d="
M 72.65 -102.7
Q 65.35 -110 55 -110 44.65 -110 37.3 -102.7 30 -95.35 30 -85 30 -74.65 37.3 -67.35 44.65 -60 55 -60 65.35 -60 72.65 -67.35 80 -74.65 80 -85 80 -95.35 72.65 -102.7 Z"/>
</g>

<g id="paleta_0_Layer0_5_FILL">
<path fill="#5A708F" stroke="none" d="
M 72.65 -102.7
Q 65.35 -110 55 -110 44.65 -110 37.3 -102.7 30 -95.35 30 -85 30 -74.65 37.3 -67.35 44.65 -60 55 -60 65.35 -60 72.65 -67.35 80 -74.65 80 -85 80 -95.35 72.65 -102.7 Z"/>
</g>

<g id="paleta_0_Layer0_6_FILL">
<path fill="#374D6B" stroke="none" d="
M 72.65 -102.7
Q 65.35 -110 55 -110 44.65 -110 37.3 -102.7 30 -95.35 30 -85 30 -74.65 37.3 -67.35 44.65 -60 55 -60 65.35 -60 72.65 -67.35 80 -74.65 80 -85 80 -95.35 72.65 -102.7 Z"/>
</g>

<g id="paleta_0_Layer0_7_FILL">
<path fill="#05090D" stroke="none" d="
M 72.65 -102.7
Q 65.35 -110 55 -110 44.65 -110 37.3 -102.7 30 -95.35 30 -85 30 -74.65 37.3 -67.35 44.65 -60 55 -60 65.35 -60 72.65 -67.35 80 -74.65 80 -85 80 -95.35 72.65 -102.7 Z"/>
</g>

<g id="paleta_0_Layer0_8_FILL">
<path fill="#191F27" stroke="none" d="
M 72.65 -102.7
Q 65.35 -110 55 -110 44.65 -110 37.3 -102.7 30 -95.35 30 -85 30 -74.65 37.3 -67.35 44.65 -60 55 -60 65.35 -60 72.65 -67.35 80 -74.65 80 -85 80 -95.35 72.65 -102.7 Z"/>
</g>

<g id="paleta_0_Layer0_9_FILL">
<path fill="#88A0C2" stroke="none" d="
M 72.65 -102.7
Q 65.35 -110 55 -110 44.65 -110 37.3 -102.7 30 -95.35 30 -85 30 -74.65 37.3 -67.35 44.65 -60 55 -60 65.35 -60 72.65 -67.35 80 -74.65 80 -85 80 -95.35 72.65 -102.7 Z"/>
</g>

<path id="psc_logo_0_Layer0_0_1_STROKES" stroke="#83ED88" stroke-width="1" stroke-linejoin="round" stroke-linecap="round" fill="none" d="
M -183.85 -98.35
L 0 -24.95 184.15 -98.475
M 0 -24.95
L 0 97.05"/>

<path id="psc_logo_0_Layer0_0_2_STROKES" stroke="#069D0A" stroke-width="1" stroke-linejoin="round" stroke-linecap="round" fill="none" d="
M 0 172.95
L -20 165 -40 157 -40 129.85 -30.4 126.05 -40 122.2 -40 111 -2.55 96.05
M -98.3 -21.15
L -40.2 2.05 -40.2 35.25 -139.9 -4.55 -98.3 -21.15 Z
M -23.9 144.1
L -33.45 140.3 -33.45 147.9 -33.4 147.9 -20 153.25 -19.95 153.25
M -10.35 149.45
L -20 145.65 -23.9 144.1
M -30.4 126.05
L -26.9 127.45 -26.9 135.1 -40 129.85
M -20 130.2
L -20 119 -40 111
M -19.95 137.85
L -10.35 134.05 -20 130.2
M -10.35 134.05
L -6.9 135.4 -6.9 143.05 -19.95 137.85 -20 137.85 -20 145.65
M -20 153.25
L -20 165
M -10.35 149.45
L -6.9 150.85 -6.9 158.45 -19.95 153.25
M 106.2 54.7
L 143.6 69.65 0 126.95 0 172.95
M 0 126.95
L -20 119"/>

<path id="psc_logo_0_Layer0_0_3_STROKES" stroke="#06D705" stroke-width="1" stroke-linejoin="round" stroke-linecap="round" fill="none" d="
M -100.35 57
L -2.55 96.05
M 106.2 54.7
L 0 97.05 -2.55 96.05
M 106.2 54.7
L 143.6 39.75 143.6 69.65"/>
</defs>

<g transform="matrix( 1, 0, 0, 1, 0,0) ">
<use xlink:href="#Layer0_0_FILL"/>
</g>

<g transform="matrix( 1, 0, 0, 1, 1466.15,593.55) ">
<g transform="matrix( 1, 0, 0, 1, 0,0) ">
<use xlink:href="#psc_logo_0_Layer0_0_FILL"/>

<use xlink:href="#psc_logo_0_Layer0_0_1_STROKES"/>

<use xlink:href="#psc_logo_0_Layer0_0_2_STROKES"/>

<use xlink:href="#psc_logo_0_Layer0_0_3_STROKES"/>
</g>
</g>

<g transform="matrix( 1, 0, 0, 1, 115,-121.9) ">
<g transform="matrix( 1, 0, 0, 1, -115,53.1) ">
<use xlink:href="#paleta_0_Layer0_0_FILL"/>
</g>

<g transform="matrix( 1, 0, 0, 1, -52.5,53.1) ">
<use xlink:href="#paleta_0_Layer0_1_FILL"/>
</g>

<g transform="matrix( 1, 0, 0, 1, 10,53.1) ">
<use xlink:href="#paleta_0_Layer0_2_FILL"/>
</g>

<g transform="matrix( 1, 0, 0, 1, 70,53.1) ">
<use xlink:href="#paleta_0_Layer0_3_FILL"/>
</g>

<g transform="matrix( 1, 0, 0, 1, -180,53.1) ">
<use xlink:href="#paleta_0_Layer0_4_FILL"/>
</g>

<g transform="matrix( 1, 0, 0, 1, -115,116.9) ">
<use xlink:href="#paleta_0_Layer0_5_FILL"/>
</g>

<g transform="matrix( 1, 0, 0, 1, -52.5,116.9) ">
<use xlink:href="#paleta_0_Layer0_6_FILL"/>
</g>

<g transform="matrix( 1, 0, 0, 1, 70,116.9) ">
<use xlink:href="#paleta_0_Layer0_7_FILL"/>
</g>

<g transform="matrix( 1, 0, 0, 1, 10,116.9) ">
<use xlink:href="#paleta_0_Layer0_8_FILL"/>
</g>

<g transform="matrix( 1, 0, 0, 1, -180,116.9) ">
<use xlink:href="#paleta_0_Layer0_9_FILL"/>
</g>
</g>
</svg>
