
<svg xmlns="http://www.w3.org/2000/svg" version="1.1" xmlns:xlink="http://www.w3.org/1999/xlink" preserveAspectRatio="none" x="0px" y="0px" width="70px" height="70px" viewBox="0 0 70 70">
<defs>
<g id="imc_0_Layer0_0_FILL">
<path fill="#FFFFFF" stroke="none" d="
M -12.9 -29.8
Q -23.75 -21.35 -26.35 -10 -28.55 -0.4 -25.7 10.55 -23.7 18.15 -19.85 24.45 -14.15 33.7 -7.4 33.85 -5.4 33.35 -4.4 31.8 -3.3 29.6 -2.5 28.1 -0.35 23.95 -0.5 18.15 -0.65 12.45 -2.95 7.5 -5.45 2.25 -9.25 -0.8 -22.95 -11.75 -12.9 -29.8
M 17.35 -30
L 13.15 -33.8 17.1 -28.9
Q 20 -25.5 21.55 -17.4 23.1 -9.3 14.55 -2.2 6 4.9 4.25 13.55 2.45 22.15 7.35 29.9 11 34.55 17.45 27.6 20.5 24.3 23.05 16.45 25.35 9.4 26.65 1.9 28 -5.6 26.65 -13.3 25.4 -20.4 21.95 -25.2 19.95 -28.05 17.35 -30
M 12.75 -27.9
Q 8.2 -32.45 1.8 -32.45 -4.6 -32.45 -9.15 -27.9 -13.7 -23.35 -13.7 -16.95 -13.7 -10.55 -9.15 -6 -4.6 -1.45 1.8 -1.45 8.2 -1.45 12.75 -6 17.3 -10.55 17.3 -16.95 17.3 -23.35 12.75 -27.9 Z"/>
</g>
</defs>

<g transform="matrix( 1, 0, 0, 0.9164886474609375, 35.05,34.95) ">
<g transform="matrix( 1, 0, 0, 1, 0,0) ">
<use xlink:href="#imc_0_Layer0_0_FILL"/>
</g>
</g>
</svg>
