
<svg xmlns="http://www.w3.org/2000/svg" version="1.1" xmlns:xlink="http://www.w3.org/1999/xlink" preserveAspectRatio="none" x="0px" y="0px" width="320px" height="120px" viewBox="0 0 320 120">
<defs>
<g id="psc_logo_0_Layer0_0_FILL">
<path fill="#068107" stroke="none" d="
M 106.2 54.7
L 143.6 69.65 143.6 39.75 106.2 54.7
M -19.95 153.25
L -6.9 158.45 -6.9 150.85 -10.35 149.45 -19.95 153.25
M -33.4 147.9
L -23.9 144.1 -33.45 140.3 -33.45 147.9 -33.4 147.9
M -100.35 57
L -139.9 41.2 -139.9 117.1 -100.35 101.35 -100.35 57
M -139.9 -37.75
L -139.9 -4.55 -98.3 -21.15 -139.9 -37.75
M 2.55 -61.4
L 44.2 -78.05 44.2 -155.3 -94.2 -100.05 2.55 -61.4 Z"/>

<path fill="#069D0A" stroke="none" d="
M -40 111
L -20 119 0 126.95 143.6 69.65 106.2 54.7 0 97.05 -2.55 96.05 -40 111
M -98.3 -21.15
L -139.9 -4.55 -40.2 35.25 -40.2 2.05 -98.3 -21.15
M 185.35 -22.7
L 144.55 -39 42 1.95 42.05 34.55 185.35 -22.7 Z"/>

<path fill="#069106" stroke="none" d="
M -19.95 137.85
L -6.9 143.05 -6.9 135.4 -10.35 134.05 -19.95 137.85
M -30.4 126.05
L -40 129.85 -26.9 135.1 -26.9 127.45 -30.4 126.05
M -23.9 144.1
L -33.4 147.9 -20 153.25 -19.95 153.25 -10.35 149.45 -20 145.65 -23.9 144.1 Z"/>

<path fill="#06D705" stroke="none" d="
M -10.35 134.05
L -20 130.2 -20 137.85 -19.95 137.85 -10.35 134.05
M -183.85 -98.35
L -185.35 -98.95 -185.35 98.95 -139.9 117.1 -139.9 41.2 -100.35 57 -2.55 96.05 0 97.05 0 -24.95 -183.85 -98.35
M -139.9 -4.55
L -139.9 -37.75 -98.3 -21.15 -40.2 2.05 -40.2 35.25 -139.9 -4.55
M 185.35 -55.3
L 185.35 -98.95 184.15 -98.5 0 -24.95 0 97.05 106.2 54.7 143.6 39.75 143.6 69.65 0 126.95 0 172.95 185.35 98.95 185.35 -22.7 42.05 34.55 42 1.95 144.55 -39 185.35 -55.3 Z"/>

<path fill="#3EEB3D" stroke="none" d="
M -20 130.2
L -10.35 134.05 -6.9 135.4 -6.9 143.05 -19.95 137.85 -20 137.85 -20 145.65 -10.35 149.45 -6.9 150.85 -6.9 158.45 -19.95 153.25 -20 153.25 -20 165 0 172.95 0 126.95 -20 119 -20 130.2
M -40 111
L -40 122.2 -30.4 126.05 -26.9 127.45 -26.9 135.1 -40 129.85 -40 157 -20 165 -20 153.25 -33.4 147.9 -33.45 147.9 -33.45 140.3 -23.9 144.1 -20 145.65 -20 137.85 -20 130.2 -20 119 -40 111
M 44.2 -155.3
L 0 -172.95 -185.35 -98.95 -183.85 -98.35 0 -24.95 184.15 -98.5 185.35 -98.95 141.15 -116.6 2.8 -61.3 2.55 -61.4 -94.2 -100.05 44.2 -155.3 Z"/>
</g>

<g id="iso_0_Layer0_0_FILL">
<path fill="#C1F6C4" stroke="none" d="
M 65.8 8.55
L 65.8 0.8 57.1 0.8 57.1 3.4 63.2 3.4 63.2 6 57.1 6 57.15 13.7 65.8 13.7 65.8 11.15 59.5 11.15 59.5 8.55 65.8 8.55
M 74 8.55
L 74 11.15 67.9 11.15 67.9 13.7 76.6 13.7 76.6 0.8 67.9 0.8 67.9 3.4 74 3.4 74 6 67.9 6 67.9 8.55 74 8.55
M -22.2 -13.75
L -48.7 -13.75 -48.7 13.7 -43.25 13.7 -43.25 2.2 -22.2 2.2 -22.2 -13.75
M -43.25 -3.25
L -43.25 -8.3 -27.65 -8.3 -27.65 -3.25 -43.25 -3.25
M 48.7 -8.3
L 48.7 -13.75 21.25 -13.75 21.25 13.7 48.7 13.7 48.7 8.25 26.7 8.25 26.7 -8.3 48.7 -8.3
M 12.75 -8.3
L 12.75 -13.75 -13.7 -13.75 -13.7 2.7 7.35 2.7 7.35 8.25 -13.7 8.25 -13.7 13.7 12.65 13.7 12.7 -2.75 -8.25 -2.75 -8.25 -8.3 12.75 -8.3 Z"/>
</g>

<g id="logoiso_0_Layer0_0_MEMBER_1_MEMBER_1_FILL">
<path fill="#C1F6C4" stroke="none" d="
M 68.95 -8.1
L 67.75 -8.1 66.6 -5.9 65.45 -8.1 64.2 -8.1 66 -4.65 66 -2 67.2 -2 67.2 -4.65 68.95 -8.1
M 55.15 -8.1
L 53.95 -8.1 51.6 -2 52.8 -2 53.3 -3.25 55.8 -3.25 56.3 -2 57.5 -2 55.15 -8.1
M 55.35 -4.4
L 53.75 -4.4 54.55 -6.5 55.35 -4.4
M 59.45 -8.1
L 58.35 -8.1 58.35 -2 59.5 -2 59.5 -6 62.1 -2 63.25 -2 63.25 -8.1 62.1 -8.1 62.1 -4.1 59.45 -8.1
M 49.95 -7.9
Q 49.5 -8.1 48.55 -8.1
L 47.3 -8.1 47.3 -2 48.45 -2 48.45 -4.6
Q 49.35 -4.6 49.7 -4.7 50.25 -4.85 50.6 -5.25 50.9 -5.7 50.9 -6.3 50.9 -6.9 50.65 -7.3 50.4 -7.7 49.95 -7.9
M 49.5 -6.85
Q 49.8 -6.7 49.8 -6.3 49.8 -6.1 49.7 -6 49.6 -5.85 49.45 -5.75 49.25 -5.7 48.8 -5.7
L 48.45 -5.7 48.45 -6.95 48.8 -6.95
Q 49.3 -6.95 49.5 -6.85
M 39.2 -2
L 40.3 -2 41 -5.85 42.25 -2 43.3 -2 44.6 -5.85 45.25 -2 46.35 -2 45.35 -8.1 44.2 -8.1 42.8 -3.85 41.35 -8.1 40.25 -8.1 39.2 -2
M 37.65 -7.3
Q 36.7 -8.25 35.45 -8.25 34.55 -8.25 33.85 -7.8 33.1 -7.4 32.65 -6.65 32.25 -5.9 32.25 -5.05 32.25 -3.75 33.15 -2.8 34.05 -1.85 35.45 -1.85 36.75 -1.85 37.65 -2.75 38.6 -3.7 38.6 -5.05 38.6 -6.35 37.65 -7.3
M 34 -6.5
Q 34.55 -7.1 35.4 -7.1 36.25 -7.1 36.85 -6.5 37.45 -5.9 37.45 -5.05 37.45 -4.15 36.85 -3.55 36.25 -2.95 35.45 -2.95 34.7 -2.95 34.15 -3.45 33.4 -4 33.4 -5.05 33.4 -5.95 34 -6.5
M 83.25 -31.3
L 82.1 -31.3 82.1 -25.2 84.95 -25.2 84.95 -26.3 83.25 -26.3 83.25 -31.3
M 46.65 -19.7
L 45.5 -19.7 45.5 -13.6 46.65 -13.6 46.65 -19.7
M 55.8 -18.55
L 58 -18.55 58 -19.7 54.65 -19.7 54.65 -13.6 58 -13.6 58 -14.75 55.8 -14.75 55.8 -16.35 58 -16.35 58 -17.45 55.8 -17.45 55.8 -18.55
M 53.6 -18.6
Q 53.1 -19.2 52.4 -19.55 51.7 -19.85 50.95 -19.85 50.05 -19.85 49.3 -19.4 48.5 -19 48.1 -18.3 47.7 -17.55 47.7 -16.65 47.7 -15.25 48.6 -14.35 49.5 -13.45 50.95 -13.45 51.7 -13.45 52.3 -13.7 52.9 -13.95 53.6 -14.6
L 52.8 -15.45
Q 52.3 -14.95 51.85 -14.75 51.45 -14.55 50.95 -14.55 50.35 -14.55 49.85 -14.85 49.4 -15.1 49.1 -15.55 48.85 -16.05 48.85 -16.65 48.85 -17.55 49.45 -18.15 50.05 -18.7 50.95 -18.7 51.95 -18.7 52.8 -17.85
L 53.6 -18.6
M 60.5 -19.85
Q 59.75 -19.85 59.3 -19.4 58.8 -18.95 58.8 -18.3 58.8 -17.85 59.1 -17.4 59.4 -17 60.4 -16.15 60.9 -15.75 61.05 -15.55 61.2 -15.35 61.2 -15.1 61.2 -14.9 61 -14.7 60.8 -14.55 60.5 -14.55 59.95 -14.55 59.5 -15.35
L 58.5 -14.75
Q 58.85 -14.1 59.35 -13.75 59.85 -13.45 60.5 -13.45 61.3 -13.45 61.85 -13.95 62.35 -14.4 62.35 -15.15 62.35 -15.55 62.2 -15.9 62.05 -16.2 61.7 -16.55 61.55 -16.7 60.9 -17.25 60.2 -17.85 60.05 -18.05 59.95 -18.2 59.95 -18.35 59.95 -18.5 60.1 -18.6 60.25 -18.75 60.45 -18.75 60.95 -18.75 61.4 -18.1
L 62.25 -18.85
Q 61.75 -19.4 61.35 -19.65 60.95 -19.85 60.5 -19.85
M 78.9 -31.3
L 77.7 -31.3 75.35 -25.2 76.55 -25.2 77.05 -26.45 79.55 -26.45 80.05 -25.2 81.25 -25.2 78.9 -31.3
M 78.3 -29.7
L 79.1 -27.6 77.5 -27.6 78.3 -29.7
M 30.3 -7.95
Q 29.6 -8.25 28.85 -8.25 27.95 -8.25 27.2 -7.8 26.4 -7.4 26 -6.7 25.6 -5.95 25.6 -5.05 25.6 -3.65 26.5 -2.75 27.4 -1.85 28.85 -1.85 29.6 -1.85 30.2 -2.1 30.8 -2.35 31.5 -3
L 30.7 -3.85
Q 30.2 -3.35 29.75 -3.15 29.35 -2.95 28.85 -2.95 28.25 -2.95 27.75 -3.25 27.3 -3.5 27 -3.95 26.75 -4.45 26.75 -5.05 26.75 -5.95 27.35 -6.55 27.95 -7.1 28.85 -7.1 29.85 -7.1 30.7 -6.25
L 31.5 -7
Q 31 -7.6 30.3 -7.95
M 29.1 -18.85
Q 28.6 -19.4 28.2 -19.65 27.8 -19.85 27.35 -19.85 26.6 -19.85 26.15 -19.4 25.65 -18.95 25.65 -18.3 25.65 -17.85 25.95 -17.4 26.25 -17 27.25 -16.15 27.75 -15.75 27.9 -15.55 28.05 -15.35 28.05 -15.1 28.05 -14.9 27.85 -14.7 27.65 -14.55 27.35 -14.55 26.8 -14.55 26.35 -15.35
L 25.35 -14.75
Q 25.7 -14.1 26.2 -13.75 26.7 -13.45 27.35 -13.45 28.15 -13.45 28.7 -13.95 29.2 -14.4 29.2 -15.15 29.2 -15.55 29.05 -15.9 28.9 -16.2 28.55 -16.55 28.4 -16.7 27.75 -17.25 27.05 -17.85 26.9 -18.05 26.8 -18.2 26.8 -18.35 26.8 -18.5 26.95 -18.6 27.1 -18.75 27.3 -18.75 27.8 -18.75 28.25 -18.1
L 29.1 -18.85
M 33.65 -13.6
L 33.65 -14.75 31.45 -14.75 31.45 -16.35 33.65 -16.35 33.65 -17.45 31.45 -17.45 31.45 -18.55 33.65 -18.55 33.65 -19.7 30.3 -19.7 30.3 -13.6 33.65 -13.6
M 40.4 -19.7
L 39.2 -19.7 41.35 -13.6 42.45 -13.6 44.65 -19.7 43.45 -19.7 41.9 -15.35 40.4 -19.7
M 37.45 -19.5
Q 37 -19.7 36 -19.7
L 34.8 -19.7 34.8 -13.6 35.95 -13.6 35.95 -16.2 36.05 -16.2 37.4 -13.6 38.7 -13.6 37.25 -16.3
Q 37.8 -16.5 38.1 -16.9 38.4 -17.3 38.4 -17.9 38.4 -18.5 38.15 -18.9 37.9 -19.35 37.45 -19.5
M 37.25 -17.95
Q 37.25 -17.6 37.05 -17.45 36.85 -17.3 36.3 -17.3
L 35.95 -17.3 35.95 -18.55 36.25 -18.55
Q 36.7 -18.55 36.9 -18.5 37.05 -18.45 37.15 -18.3 37.25 -18.15 37.25 -17.95
M 70.65 -31.3
L 69.55 -31.3 69.55 -25.2 70.7 -25.2 70.7 -29.2 73.3 -25.2 74.45 -25.2 74.45 -31.3 73.3 -31.3 73.3 -27.3 70.65 -31.3
M 65.35 -31.45
Q 64.45 -31.45 63.75 -31 63 -30.6 62.55 -29.85 62.15 -29.1 62.15 -28.25 62.15 -26.95 63.05 -26 63.95 -25.05 65.35 -25.05 66.65 -25.05 67.55 -25.95 68.5 -26.9 68.5 -28.25 68.5 -29.55 67.55 -30.5 66.6 -31.45 65.35 -31.45
M 63.9 -29.7
Q 64.45 -30.3 65.3 -30.3 66.15 -30.3 66.75 -29.7 67.35 -29.1 67.35 -28.25 67.35 -27.35 66.75 -26.75 66.15 -26.15 65.35 -26.15 64.6 -26.15 64.05 -26.65 63.3 -27.2 63.3 -28.25 63.3 -29.15 63.9 -29.7
M 61.1 -25.2
L 61.1 -31.3 59.95 -31.3 59.95 -25.2 61.1 -25.2
M 57.1 -31.45
Q 56.35 -31.45 55.9 -31 55.4 -30.55 55.4 -29.9 55.4 -29.45 55.7 -29 56 -28.6 57 -27.75 57.5 -27.35 57.65 -27.15 57.8 -26.95 57.8 -26.7 57.8 -26.5 57.6 -26.3 57.4 -26.15 57.1 -26.15 56.55 -26.15 56.1 -26.95
L 55.1 -26.35
Q 55.45 -25.7 55.95 -25.35 56.45 -25.05 57.1 -25.05 57.9 -25.05 58.45 -25.55 58.95 -26 58.95 -26.75 58.95 -27.15 58.8 -27.5 58.65 -27.8 58.3 -28.15 58.15 -28.3 57.5 -28.85 56.8 -29.45 56.65 -29.65 56.55 -29.8 56.55 -29.95 56.55 -30.1 56.7 -30.2 56.85 -30.35 57.05 -30.35 57.55 -30.35 58 -29.7
L 58.85 -30.45
Q 58.35 -31 57.95 -31.25 57.55 -31.45 57.1 -31.45
M 53.55 -31.25
Q 53.15 -31.45 52.7 -31.45 51.95 -31.45 51.5 -31 51 -30.55 51 -29.9 51 -29.45 51.3 -29 51.6 -28.6 52.6 -27.75 53.1 -27.35 53.25 -27.15 53.4 -26.95 53.4 -26.7 53.4 -26.5 53.2 -26.3 53 -26.15 52.7 -26.15 52.15 -26.15 51.7 -26.95
L 50.7 -26.35
Q 51.05 -25.7 51.55 -25.35 52.05 -25.05 52.7 -25.05 53.5 -25.05 54.05 -25.55 54.55 -26 54.55 -26.75 54.55 -27.15 54.4 -27.5 54.25 -27.8 53.9 -28.15 53.75 -28.3 53.1 -28.85 52.4 -29.45 52.25 -29.65 52.15 -29.8 52.15 -29.95 52.15 -30.1 52.3 -30.2 52.45 -30.35 52.65 -30.35 53.15 -30.35 53.6 -29.7
L 54.45 -30.45
Q 53.95 -31 53.55 -31.25
M 50.15 -31.3
L 46.8 -31.3 46.8 -25.2 50.15 -25.2 50.15 -26.35 47.95 -26.35 47.95 -27.95 50.15 -27.95 50.15 -29.05 47.95 -29.05 47.95 -30.15 50.15 -30.15 50.15 -31.3
M 43.9 -29.05
L 43.9 -30.15 45.8 -30.15 45.8 -31.3 42.75 -31.3 42.75 -25.2 43.9 -25.2 43.9 -27.95 45.8 -27.95 45.8 -29.05 43.9 -29.05
M 38.5 -31.45
Q 37.6 -31.45 36.9 -31 36.15 -30.6 35.7 -29.85 35.3 -29.1 35.3 -28.25 35.3 -26.95 36.2 -26 37.1 -25.05 38.5 -25.05 39.8 -25.05 40.7 -25.95 41.65 -26.9 41.65 -28.25 41.65 -29.55 40.7 -30.5 39.75 -31.45 38.5 -31.45
M 38.5 -26.15
Q 37.75 -26.15 37.2 -26.65 36.45 -27.2 36.45 -28.25 36.45 -29.15 37.05 -29.7 37.6 -30.3 38.45 -30.3 39.3 -30.3 39.9 -29.7 40.5 -29.1 40.5 -28.25 40.5 -27.35 39.9 -26.75 39.3 -26.15 38.5 -26.15
M 31.95 -31.3
L 30.75 -31.3 30.75 -25.2 31.9 -25.2 31.9 -27.8 32 -27.8 33.35 -25.2 34.65 -25.2 33.2 -27.9
Q 33.75 -28.1 34.05 -28.5 34.35 -28.9 34.35 -29.5 34.35 -30.1 34.1 -30.5 33.85 -30.95 33.4 -31.1 32.95 -31.3 31.95 -31.3
M 33.1 -29.9
Q 33.2 -29.75 33.2 -29.55 33.2 -29.2 33 -29.05 32.8 -28.9 32.25 -28.9
L 31.9 -28.9 31.9 -30.15 32.2 -30.15
Q 32.65 -30.15 32.85 -30.1 33 -30.05 33.1 -29.9
M 27.15 -31.3
L 25.9 -31.3 25.9 -25.2 27.05 -25.2 27.05 -27.8
Q 27.95 -27.8 28.3 -27.9 28.85 -28.05 29.2 -28.45 29.5 -28.9 29.5 -29.5 29.5 -30.1 29.25 -30.5 29 -30.9 28.55 -31.1 28.1 -31.3 27.15 -31.3
M 28.1 -30.05
Q 28.4 -29.9 28.4 -29.5 28.4 -29.3 28.3 -29.2 28.2 -29.05 28.05 -28.95 27.85 -28.9 27.4 -28.9
L 27.05 -28.9 27.05 -30.15 27.4 -30.15
Q 27.9 -30.15 28.1 -30.05 Z"/>
</g>

<path id="logoiso_0_Layer0_0_1_STROKES" stroke="#3EEB3D" stroke-width="2" stroke-linejoin="round" stroke-linecap="round" fill="none" d="
M -4.8 -40.1
L -4.8 40.15"/>

<path id="psc_logo_0_Layer0_0_1_STROKES" stroke="#83ED88" stroke-width="1" stroke-linejoin="round" stroke-linecap="round" fill="none" d="
M -183.85 -98.35
L 0 -24.95 184.15 -98.475
M 0 -24.95
L 0 97.05"/>

<path id="psc_logo_0_Layer0_0_2_STROKES" stroke="#069D0A" stroke-width="1" stroke-linejoin="round" stroke-linecap="round" fill="none" d="
M 0 172.95
L -20 165 -40 157 -40 129.85 -30.4 126.05 -40 122.2 -40 111 -2.55 96.05
M -98.3 -21.15
L -40.2 2.05 -40.2 35.25 -139.9 -4.55 -98.3 -21.15 Z
M -23.9 144.1
L -33.45 140.3 -33.45 147.9 -33.4 147.9 -20 153.25 -19.95 153.25
M -10.35 149.45
L -20 145.65 -23.9 144.1
M -30.4 126.05
L -26.9 127.45 -26.9 135.1 -40 129.85
M -20 130.2
L -10.35 134.05 -6.9 135.4 -6.9 143.05 -19.95 137.85 -20 137.85 -20 145.65
M -19.95 137.85
L -10.35 134.05
M -20 130.2
L -20 119 -40 111
M -10.35 149.45
L -6.9 150.85 -6.9 158.45 -19.95 153.25
M -20 153.25
L -20 165
M 106.2 54.7
L 143.6 69.65 0 126.95 0 172.95
M 0 126.95
L -20 119"/>

<path id="psc_logo_0_Layer0_0_3_STROKES" stroke="#06D705" stroke-width="1" stroke-linejoin="round" stroke-linecap="round" fill="none" d="
M -100.35 57
L -2.55 96.05
M 106.2 54.7
L 0 97.05 -2.55 96.05
M 106.2 54.7
L 143.6 39.75 143.6 69.65"/>
</defs>

<g transform="matrix( 1, 0, 0, 1, 158.8,60) ">
<g transform="matrix( 1, 0, 0, 1, 0,0) ">
<use xlink:href="#logoiso_0_Layer0_0_1_STROKES"/>
</g>

<g transform="matrix( 0.3039703369140625, 0, 0, 0.303924560546875, -90.85,0) ">
<g transform="matrix( 1, 0, 0, 1, 0,0) ">
<use xlink:href="#psc_logo_0_Layer0_0_FILL"/>

<use xlink:href="#psc_logo_0_Layer0_0_1_STROKES"/>

<use xlink:href="#psc_logo_0_Layer0_0_2_STROKES"/>

<use xlink:href="#psc_logo_0_Layer0_0_3_STROKES"/>
</g>
</g>

<g transform="matrix( 1, 0, 0, 1, 73.05,21.25) ">
<g transform="matrix( 1, 0, 0, 1, 0,0) ">
<use xlink:href="#iso_0_Layer0_0_FILL"/>
</g>
</g>

<g transform="matrix( 1, 0, 0, 1, 0,0) ">
<use xlink:href="#logoiso_0_Layer0_0_MEMBER_1_MEMBER_1_FILL"/>
</g>
</g>
</svg>
