
<svg xmlns="http://www.w3.org/2000/svg" version="1.1" xmlns:xlink="http://www.w3.org/1999/xlink" preserveAspectRatio="none" x="0px" y="0px" width="70px" height="70px" viewBox="0 0 70 70">
<defs>
<g id="imm_0_Layer0_0_FILL">
<path fill="#FFFFFF" stroke="none" d="
M -92.1 208.75
Q -92.21015625 207.2818359375 -93.55 206.9 -93.8765625 206.7 -94.3 206.7
L -99.55 206.7
Q -100.4998046875 206.8173828125 -101 207.55
L -101.05 207.65
Q -101.230859375 207.9666015625 -101.35 208.4
L -108.6 234.8 -115.8 208.4
Q -115.862109375 208.1685546875 -115.95 207.95 -116.1150390625 207.6107421875 -116.4 207.3 -116.6923828125 206.9810546875 -117.05 206.8 -117.58671875 206.6373046875 -122.8 206.75 -123.389453125 206.75 -123.85 206.85 -125.2369140625 207.2412109375 -125.35 208.75
L -128.45 245.85
Q -128.6 247.85 -126.2 247.85
L -123.75 247.85
Q -121.35 247.85 -121.2 245.85
L -119.1 220.4 -111.75 246.85
Q -111.4904296875 248.2 -110.1 248.2
L -107 248.2
Q -106.059765625 248.2 -105.65 247.6 -105.608984375 247.5419921875 -105.6 247.45 -105.4685546875 247.1314453125 -105.4 246.85 -105.275 246.5181640625 -105.25 246.35 -105.20390625 246.3013671875 -105.2 246.2
L -97.85 220.4 -96.25 245.85
Q -96.1 247.85 -93.7 247.85
L -91.25 247.85
Q -88.85 247.85 -89 245.85
L -92.1 208.75
M -129.95 195.35
Q -130.15 196.6 -129.45 197.8 -128.8 199 -127.6 199.45 -126.3 199.85 -125.2 199.2
L -108.85 189.75 -92.45 199.2
Q -91.35 199.85 -90.05 199.45 -88.85 199 -88.2 197.8 -87.5 196.6 -87.7 195.35 -88 194.05 -89.1 193.4
L -107.4 182.85
Q -108.092578125 182.440625 -108.85 182.45 -109.557421875 182.440625 -110.25 182.85
L -128.55 193.4
Q -129.65 194.05 -129.95 195.35 Z"/>
</g>
</defs>

<g transform="matrix( 1, 0, 0, 1, 35.05,35) ">
<g transform="matrix( 1, 0, 0, 1, 108.8,-215.35) ">
<use xlink:href="#imm_0_Layer0_0_FILL"/>
</g>
</g>
</svg>
