
<svg xmlns="http://www.w3.org/2000/svg" version="1.1" xmlns:xlink="http://www.w3.org/1999/xlink" preserveAspectRatio="none" x="0px" y="0px" width="70px" height="70px" viewBox="0 0 70 70">
<defs>
<g id="MUNDO_0_Layer0_0_FILL">
<path fill="#374D6B" stroke="none" d="
M -210.85 -127.95
Q -270.6 -127.95 -312.85 -85.7 -355.1 -43.45 -355.1 16.3 -355.1 76.05 -312.85 118.3 -270.6 160.55 -210.85 160.55 -151.1 160.55 -108.85 118.3 -66.6 76.05 -66.6 16.3 -66.6 -43.45 -108.85 -85.7 -151.1 -127.95 -210.85 -127.95 Z"/>
</g>

<g id="MUNDO_0_Layer0_0_MEMBER_0_FILL">
<path fill="#83ED88" stroke="none" d="
M -114.7 -75.35
Q -114.9 -76.15 -115.25 -76.55 -115.8 -77.2 -116.5 -76.95 -116.8 -76.8 -117.05 -76.45
L -118.1 -75.15
Q -118.9 -74 -119.4 -73.8 -119.55 -73.7 -120.05 -73.6 -120.5 -73.55 -120.7 -73.4 -120.9 -73.95 -121.5 -74.15 -122.15 -74.35 -122.7 -74.1 -123.466796875 -73.784375 -124.1 -72.65 -124.3001953125 -72.5330078125 -124.4 -72.3 -124.6 -71.95 -124.5 -71.6
L -124.5 -71.6
Q -124.518359375 -71.378125 -124.5 -71.25 -124.3 -70.4 -123.7 -70.5 -123.7 -69.75 -122.55 -69.55 -122.25 -69.5 -120.65 -69.45 -119.45 -69.4 -118.8 -69.1 -118.25 -68.9 -117.6 -68.35 -116.9 -67.7 -116.55 -67.4
L -115.4 -66.6
Q -114.1 -65.8 -113.4 -65.5 -112.5 -65.1 -111.6 -64.9 -110.25 -64.6 -108.7 -64.7 -107.65 -64.8 -107.1 -65.15 -106.65 -65.55 -106.35 -65.65 -105.6 -65.85 -105.3 -66.1 -104.75 -66.65 -105.35 -67.6 -105.7 -68 -106.45 -68.75
L -107 -69.55
Q -107.4 -70.05 -107.85 -70.05 -108 -70.05 -108.4 -69.85 -108.75 -69.7 -108.95 -69.7 -109 -69.7 -109.9 -69.95 -110.25 -70.1 -111.1 -70.25 -111.25 -70.3 -112.15 -70.95 -112.7 -71.5 -112.75 -71.65 -112.9 -72 -112.95 -72.75 -113.15 -73.25 -114.05 -73.9 -114.4 -74.25 -114.7 -75.35
M -111.3 -68.2
L -110.5 -68.1 -110.05 -67.9
Q -109.25 -67.55 -108.3 -67.7 -108.15 -67.3 -107.9 -67.15 -108.2 -66.85 -108.85 -66.75 -109.7 -66.6 -111.4 -67
L -112.3 -67.25
Q -112.8 -67.4 -113.5 -67.85
L -114.8 -68.6
Q -115.5 -69.05 -115.65 -69.25
L -116.1 -69.85 -116.75 -70.2
Q -117.05 -70.4 -117.65 -70.9 -118.2 -71.15 -118.35 -71.2 -118.85 -71.35 -119.95 -71.45
L -118.2 -72.05
Q -117.25 -72.5 -116.85 -73.2 -116.65 -73.85 -116.35 -74 -116.6 -73.15 -115.55 -72.55 -115.05 -72.35 -114.95 -72.1 -114.9 -72 -114.75 -71.1 -114.6 -70.45 -114.1 -70.05
L -112.6 -68.7
Q -112.1 -68.3 -111.3 -68.2
M -176.2 -0.7
Q -175.1 0 -173.6 -0.65 -173.2568359375 -0.8537109375 -172.95 -1.05 -172.7837890625 -0.8001953125 -172.55 -0.7 -172.1 -0.55 -171.85 -0.45
L -171.4 -0.2
Q -170.75 0.1 -170 0 -169.85 0.15 -169.8 0.55 -169.7 1 -169.65 1.1 -169.5 1.75 -168.8 2 -168.4 2.1 -168.25 2.25 -168.2 2.3 -168.1 2.65 -168 3.1 -167.55 3.4 -167.15 3.7 -166.7 3.65 -165.943359375 3.65 -165.55 3.1 -165.45234375 3.128125 -165.35 3.15 -161.95 3.85 -158.55 3.05 -156.55 2.65 -156.05 1.45 -155.9 0.55 -155.6 0.2 -155.3 -0.1 -154.7 -0.2 -154.55 -0.2 -153.6 -0.2 -152.35 -0.2 -151.9 -0.9 -151.7 -1.2 -151.6 -2 -151.55 -2.75 -151.3 -3.05 -151.05 -3.35 -150.55 -3.6 -149.9 -3.9 -149.75 -4 -149.2 -4.4 -149.05 -5.2 -148.9 -5.95 -149.3 -6.55 -149.65 -7.1 -150.45 -7.25 -151.2 -7.4 -151.8 -7.05
L -152.8 -6.15 -153.85 -5.55
Q -154.1 -5.35 -154.55 -4.8 -154.95 -4.3 -155.25 -4.1 -155.7 -3.8 -156.45 -3.8 -156.9 -3.8 -157.8 -3.9 -159.75 -4 -161 -2.8 -162.45 -1.45 -162.05 0.3 -162.55 0.25 -163.6 0.25 -164.55 0.2 -165 -0.25 -165.15 -0.4 -165.45 -0.9 -165.8 -1.45 -166.6 -2.45 -166.95 -3 -167.55 -4.15 -168.5 -5.5 -170.4 -5.5 -172 -5.5 -173.5 -4.55 -174.7 -3.8 -175.05 -3.7 -175.3 -3.6 -175.9 -3.45 -176.35 -3.3 -176.6 -3.05 -177.1 -2.55 -176.95 -1.8 -176.8 -1.1 -176.2 -0.7
M -189.3 -5.2
Q -189.35 -4.45 -188.7 -3.85 -188.1 -3.4 -187.25 -3.55 -187.2 -2.9 -186.2 -2.45 -185.05 -1.95 -184.3 -2.35 -183.7 -2.6 -183.5 -3.3 -183.3 -4 -183.7 -4.55 -183.85 -4.75 -184.15 -5.1
L -184.5 -5.8
Q -185.15 -6.85 -186.75 -6.85 -187.65 -6.95 -188.35 -6.55 -189.25 -6 -189.3 -5.2
M -204.05 -21.95
Q -205.05 -21.65 -205.4 -21.25 -205.7 -20.9 -205.75 -20.4 -205.8 -19.95 -205.55 -19.55 -205.25 -19.1 -204.4 -18.7 -202.6935546875 -17.8873046875 -201.55 -18.15 -201.772265625 -17.2009765625 -200.9 -16.65 -200.45 -16.35 -199.25 -16.35 -198.55 -16.35 -198.3 -16.15
L -197.85 -15.8
Q -197.5 -15.6 -197 -15.5 -195.75 -15.35 -195.55 -15.2
L -195.2 -14.9
Q -194.95 -14.7 -194.3 -14.6 -193.15 -14.35 -192.75 -14.45 -192.465234375 -14.5212890625 -192.25 -14.65 -191.9748046875 -14.6 -191.7 -14.6 -190.75 -14.6 -190.6 -14.55 -190.15 -14.35 -189.65 -13.8
L -188.05 -12.15
Q -187.15 -11.25 -186.75 -11.1
L -185.8 -10.7
Q -185.35 -10.45 -185 -9.8 -184.55 -9.05 -184.35 -8.75 -183.85 -7.95 -183 -7.5
L -182.15 -7
Q -181.75 -6.35 -181.55 -6.05 -180.7 -4.85 -179.35 -5.2 -178.75 -5.35 -178.3 -5.85 -177.85 -6.35 -177.8 -6.95 -177.7 -8.2 -179.25 -9.95 -180.7 -11.4 -180.9 -11.55 -181.95 -12.4 -182.15 -12.65 -182.45 -13.1 -182.8 -14.25 -183.1 -14.95 -183.95 -15.65 -184.45 -16.05 -185.45 -16.8 -185.95 -17.25 -186.95 -18.3 -187.9 -19.15 -188.75 -19.3 -188.45 -19.9 -189.15 -20.6 -189.6 -20.9 -190.5 -21.2
L -192.75 -21.95
Q -194.05 -22.35 -194.75 -22.45 -195.5 -22.55 -197 -22.55
L -202 -22.4
Q -202.95 -22.25 -204.05 -21.95
M -205.45 -121.6
Q -205.75 -121.85 -205.95 -122.45 -206.05 -122.75 -206.25 -123.4 -206.2732421875 -123.4720703125 -206.3 -123.55 -204.3453125 -123.8427734375 -202.9 -124.15 -199.3 -124.85 -198.25 -126.85 -198.0978515625 -127.1435546875 -198 -127.45 -204.3267578125 -127.95 -210.85 -127.95 -218.621484375 -127.95 -226.1 -127.25 -242.4421875 -125.665625 -257.4 -120.7 -278.314453125 -113.7078125 -296.5 -100 -297.115625 -98.4720703125 -296.4 -97.2 -296.2658203125 -96.94375 -296.1 -96.75 -296.1357421875 -96.2146484375 -296.15 -95.65
L -296.5 -83.85
Q -296.6 -80.8 -295.35 -79.75 -295.05 -79.5 -294.15 -79.05 -293.35 -78.65 -293 -78.25 -292.35 -77.55 -292.45 -76.45 -292.55 -75.5 -293.15 -74.5 -294.95 -72.4 -295.4 -71.1 -296 -69.25 -294.9 -66.45 -293.2 -61.8 -290 -61.15 -289.65 -61.1 -288.35 -61 -287.35 -61 -286.75 -60.75 -286.3 -60.55 -285.65 -60.05 -284.8 -59.4 -284.55 -59.25 -284.523828125 -59.235546875 -284.5 -59.25 -284.4677734375 -58.074609375 -284.05 -57.1 -283.55 -56.15 -283.45 -55.75
L -283.4 -54.7
Q -283.1 -53.9 -283.05 -53.5 -282.95 -53.15 -282.95 -51.95 -282.8 -50.75 -282.25 -49.95 -281.75 -49.2 -281.65 -48.9
L -281.5 -47.75
Q -281.05 -46.6 -280.95 -46.05 -280.85 -45.2 -280.75 -45.1
L -280.2 -44.6
Q -280.2 -44.55 -280.05 -43.9 -279.95 -43.45 -279.55 -43 -278.6 -42.05 -277.7 -42.05 -277.15 -42 -276.7 -42.3 -276.2 -42.6 -276.1 -43.1 -275.95 -43.55 -276.25 -44.45 -276.6 -45.45 -277.35 -46.55 -277.75 -47.1 -277.8 -47.2 -277.9 -47.5 -277.95 -48
L -277.95 -48.85
Q -278.05 -49.3 -278.4 -50.05 -278.75 -50.9 -278.85 -51.3 -278.9 -51.55 -279 -52.55 -279.05 -53.35 -279.3 -53.8 -279.5 -54.1 -279.5 -54.35
L -279.2 -54.8
Q -279.2 -54.85 -279.05 -55.6 -278.9 -56.1 -278.6 -56.55
L -277.85 -57.9
Q -277.65390625 -58.2783203125 -277.5 -58.6 -277.1830078125 -58.11640625 -276.6 -57.65 -275.05 -56.55 -274.45 -55.95 -273.65 -55.2 -273 -53.7 -272.35 -51.95 -271.95 -51.15 -271.15 -49.55 -268.1 -46.2 -267.89609375 -45.973046875 -267.7 -45.75 -267.7142578125 -44.6849609375 -267.2 -43.75 -266.95 -43.25 -266.3 -42.4 -265.7 -41.55 -265.45 -41.1 -264.75 -39.8 -264.45 -36.9 -263.95 -31.85 -264.5 -29.4 -264.8 -28.15 -264.9 -27.5 -265.15 -26.45 -265.05 -25.65 -264.65 -23.2 -261.6 -21.45 -259.95 -20.6 -259.15 -20.15 -257.7 -19.35 -256.85 -18.6 -256.45 -18.25 -255.4 -17.05 -254.55 -16.05 -253.9 -15.6 -252.5 -14.6 -250.25 -14.35 -248 -14.1 -247.45 -13.85 -246.85 -13.5 -246.15 -12.75 -245.4 -11.85 -245 -11.45 -243.5 -10.05 -240.95 -9.65 -239.8853515625 -9.462109375 -238.35 -9.45 -235.0189453125 -8.0095703125 -231.15 -8.4 -231.2498046875 -8.0189453125 -231.3 -7.6 -231.45 -6.4 -230.9 -5.3 -230.5 -4.55 -230.4 -4.1
L -230.2 -3
Q -230.05 -2.35 -229.15 -1.55 -228.1 -0.6 -226.15 0.5 -224.7 1.45 -223.65 1.75 -222.35 2 -221.65 2.2 -221.3142578125 2.2994140625 -221.05 2.35
L -221 2.4
Q -220.55 3 -220.1 3.25 -219.8 3.4 -218.65 3.65 -217.9287109375 3.7703125 -217.55 4.05 -217.815625 4.4416015625 -217.95 4.8
L -218.05 5.8 -218 7.75
Q -218 8.4 -217.9 8.7
L -217.6 9.45
Q -217.45 10.1 -217.45 10.15 -217.4 10.35 -217.1 10.75
L -216.2 11.8
Q -215.3 12.9 -214.5 13.05 -213.7771484375 13.2626953125 -213.15 12.85
L -212.65 13.3
Q -212.15 13.95 -212.05 14 -211.6 14.15 -211.4 14.25 -211.05 14.55 -210.85 14.7 -210.7 14.85 -210.05 15.2 -209.5 15.45 -209.3 15.75 -209.1 16.05 -209.05 16.45 -209 16.7 -208.95 17.2 -208.8 17.9 -208.3 18.4 -208.2 18.5 -206.85 19.6
L -206.1 20.35
Q -205.35 20.95 -205.25 21.1 -205.1177734375 21.2982421875 -205.05 21.65 -205.1259765625 21.8201171875 -205.2 22 -205.55 22.85 -204.95 23.5 -204.55 23.95 -203.8 24.05 -202.8 24.2 -201.85 23.8
L -201 23.4
Q -200.6 23.25 -199.25 23.25 -199 24.1 -198.5 24.65
L -198.15 25.05 -197.7 26.5
Q -197.6 26.95 -197.5 27.85 -197.4564453125 28.0828125 -197.4 28.25 -197.58671875 28.7794921875 -197.75 29.4 -198.3 31.55 -198.85 32.25 -199.4 32.95 -200.7 33.7 -202.35 34.6 -202.75 34.95 -203.7 35.7 -204.9 37.75 -206.15 39.8 -207.05 40.55 -207.25 40.7 -208.65 41.65 -209.65 42.25 -210.1 42.85 -211 44.05 -210.9 46.25 -210.8193359375 48.14375 -210.1 49.4 -210.2904296875 49.902734375 -210.75 51.15 -211.1 52.1 -211.9 53.55 -213 55.65 -213 56.9 -213.1 58.65 -211.85 59.9 -211.1 60.65 -211.05 60.75 -210.75 61.25 -210.65 62.35 -210.55 63.5 -210.55 65.85 -210.577734375 66.4310546875 -210.6 66.9 -210.9419921875 68.207421875 -210.5 70.55 -209.85 73.55 -209.2 74.7 -209.1 74.9 -208.4 76 -208.28203125 76.188671875 -208.2 76.35 -208.12265625 76.595703125 -208.05 76.85 -207.864453125 77.4064453125 -207.7 77.85 -207.5830078125 78.8009765625 -207.7 80.4 -207.55 82.55 -205.15 85.3 -202.3 88.6 -201.75 89.9 -201.5 90.45 -201.05 91.6 -200.65 92.5 -200.05 92.95 -199.6 93.3 -198.65 93.6 -197.6 93.9 -197.2 94.15 -196.2 94.8 -195.35 97.2 -195.0392578125 98.1603515625 -194.7 99.5 -194.8056640625 99.81953125 -194.9 100.15
L -195.2 101.8
Q -195.4 103 -195.6 103.6 -195.7 104.1 -195.95 104.45 -196.2 104.8 -196.95 105.3 -197.6 105.8 -198.15 107.1 -198.2025390625 107.2212890625 -198.25 107.3 -198.4138671875 107.60234375 -198.55 107.9 -198.647265625 108.1189453125 -198.75 108.3 -198.975390625 108.8255859375 -199.15 109.05 -199.55 109.65 -200.55 110.7 -200.8865234375 111.1626953125 -201.35 112.05 -202.0765625 112.6861328125 -202.45 113.55 -202.9810546875 113.81484375 -203.4 114.3 -204.5 115.5 -204.5 118.75 -204.45 120.15 -204.4 123 -204.4 125.45 -204.6 127.2 -204.9 129.55 -205.95 130.55 -206.6 131.1 -208.45 131.65 -210.45 132.15 -211.45 132.55 -213.05 133.2 -214 134.25 -214.5 134.85 -215 135.8 -215.3 136.35 -215.85 137.45 -216.35 138.2 -218 140.2 -219.5 142.05 -221.4 145.05 -222.9 147.35 -223.4 148.6 -224 150 -224.35 152.35
L -225.3 157.3
Q -225.5912109375 158.8849609375 -225.65 159.85 -223.400390625 160.0873046875 -221.15 160.2 -219.878125 160.314453125 -218.6 160.35 -215.637109375 160.51015625 -212.65 160.55 -212.618359375 159.605078125 -212.45 159.1 -212.25 158.55 -210.8 156.75 -209.8 155.4 -208.8 152.1 -206.6 152.85 -204.1 150.55 -204 150.45 -202.25 148.7 -201.15 147.6 -200.25 147.1 -199.2 146.5 -197.35 146.05 -185.8 142.8 -178.75 139.4 -174.85 137.4 -172.4 135.85 -170.3 134.55 -169.7 133.3 -169.3423828125 132.53984375 -169.35 131.8 -166.7466796875 131.7033203125 -163.25 131.45
L -159.25 130.9
Q -157.1 130.6 -156.35 130.25 -155.0388671875 129.6330078125 -154.5 128.4
L -154.3 128.35
Q -153.5 128 -153 127.55 -152.1 126.65 -152.05 125.5 -152.15 124.1 -151.9 123.5 -151.7 123.05 -150.4 121.95 -149.25 121.05 -149.4 120.15 -147.85 120 -145.6 118.5 -143 116.7 -141.9 116.35 -140.3 116 -139.55 115.65 -138.85 115.3 -137.75 114.2 -136.55 113 -136.15 112.1 -136.0318359375 111.8341796875 -135.95 111.55 -135.2705078125 111.0638671875 -134.8 110.85 -134.3 110.65 -133.45 110.55
L -132.1 110.4
Q -128.95 110 -126.2 107.45 -124.15 105.6 -122.95 103.05 -122.05 100.75 -121.35 99.7 -121 99.15 -119.75 97.55 -118.65 96.2 -118.3 95.25 -117.65 95.25 -115.85 95.7 -114.3 96.05 -113.4 95.8 -112.55 95.6 -111.55 94.75 -110.45 93.75 -109.85 93.3 -108.3 92.45 -107.55 91.95 -105.6 90.75 -104.55 88.6 -103.65 86.55 -103.65 82.05 -103.65 78.55 -104.55 77.15 -105.05 76.35 -106.25 75 -106.65 74.35 -107.25 73 -107.85 71.95 -109 70.65 -110.85 68.4 -112.2 67.85 -112.6416015625 67.6732421875 -113.1 67.6 -113.1923828125 67.5478515625 -113.3 67.5 -114.25 67.05 -116.05 67.05
L -118.05 67
Q -118.85 66.85 -119 66.8 -119.25 66.65 -119.75 66.15 -120.15 65.8 -121.1 65.3 -121.6 64.9 -121.9 63.8 -122.3 62.5 -122.5 62.15 -123.05 61.3 -124.25 60.8 -125.15 60.3 -126.05 60.3 -126.95 60.3 -127.75 60.8 -128.6 61.25 -129 62.05 -129.40703125 62.7783203125 -129.5 63.5 -129.953515625 63.6220703125 -130.75 64.1 -131.65 64.65 -132.25 64.55 -132 63.8 -132.5 62.65 -133.2 60.95 -133.25 60.75 -133.35 59.9 -133.5 59.5 -133.7 58.95 -133.65 58.7 -133.6 58.35 -133.15 58 -132.5 57.55 -132.4 57.45 -131.9 56.6 -131.5 56.35 -131.1 56.15 -130.45 56.25 -128 56.45 -126.65 55.3 -125.4 54.35 -125.4 52.75 -125.4 52.5076171875 -125.45 52.25 -124.8685546875 51.2765625 -125.15 49.95 -125.6 47.95 -127.9 46.9 -129.25 46.25 -132.05 46.05 -134.15 46.05 -134.85 45.15 -135.15 44.7 -135.5 43.75 -135.95 43 -137.6 42.15 -139.5 41.25 -140.6 41.1 -141.4 40.95 -143 41 -143.92890625 41 -144.6 41 -144.6197265625 39.9509765625 -145 38.55 -145.95 35.1 -147.05 33.9 -147.85 33 -149.95 31.6 -150.45 31.2 -152.85 28.8 -154.55 27.1 -156 26.45 -157.25 25.9 -159.05 25.75 -160.15 25.7 -162.3 25.65 -164.8 25.55 -165.65 24.35 -166 23.9 -166.25 23.05 -166.55 22 -166.7 21.75 -167.3 20.65 -168.6 20.25 -169.95 19.9 -171 20.55 -171.55 20.9 -173.2 22.85 -174.4 24.3 -175.55 24.25 -175.2 22.15 -176.25 20.15 -177.3 18.15 -179.2 17.25 -181.1 16.3 -183.35 16.8 -185.55 17.25 -186.95 18.85 -187.3400390625 19.2833984375 -188.65 21.45
L -188.9 21.55 -192 23.7 -192.45 23.75
Q -193 23.85 -193.4 23.7
L -194.1 23.4
Q -194.61171875 23.1673828125 -195.6 23.15 -196.15 22.65 -196.3 22.3 -196.5 22 -196.55 21.3 -196.6 20.6 -196.75 20.3 -197.15 19.55 -198.1 19.45 -198.8 19.4 -199.65 19.8
L -200.3 20.05
Q -200.6 20.15 -201.15 20.15 -201.811328125 20.15 -202.2 20.25 -202.292578125 19.9546875 -202.4 19.6 -202.8 18.45 -203.3 18.2
L -204 17.85
Q -204.2 17.7 -204.45 17.2 -204.7 16.75 -204.95 16.6 -205.2 16.45 -205.8 16.25 -205.95 16.1 -206.05 15.65 -206.25 14.45 -206.3 14.4 -206.45 13.7 -206.85 13.3 -207.15 13 -207.95 12.6
L -209.2 11.7
Q -208.612890625 11.222265625 -208.3 10.5 -207.6 9.05 -208.15 6.75 -208.45 5.9 -208.3 5.4 -208.15 5 -207.7 4.65 -207.15 4.25 -206.9 4.05 -205.9 3.2 -205.9 1.7 -205.9 1.408984375 -205.95 1.15 -205.89140625 1.0744140625 -205.85 1 -205.55 0.6 -205.6 0.1 -205.65 -0.4 -206.05 -0.8 -206.4 -1.45 -207.25 -1.55
L -207.35 -1.55
Q -207.408203125 -1.55 -207.5 -1.55
L -207.7 -1.5
Q -207.748046875 -1.4623046875 -207.8 -1.45 -207.8748046875 -1.4451171875 -207.95 -1.45 -208.535546875 -1.7015625 -209.25 -1.8 -210.65 -1.95 -211.9 -1.35 -212.75 -0.9 -213.15 -1.1 -213.5 -1.25 -213.85 -1.95 -214.1 -2.3 -214.65 -2.55 -214.95 -2.75 -215.6 -3.05 -216.45 -3.55 -217.25 -4.35
L -217.8 -4.8
Q -217.627734375 -5.1076171875 -217.55 -5.45 -217.3 -6.6 -217.75 -7.55 -217.8134765625 -7.708984375 -217.9 -7.85 -217.4732421875 -7.8830078125 -217 -7.9 -214.65 -7.95 -213.7 -8.9 -212.4 -10.15 -212.8 -13.65
L -213.15 -16.55
Q -213.35 -18.85 -214.15 -19.75 -215.25 -21 -218.05 -21.2 -221.1 -21.6 -222.45 -20.35 -223.2 -19.75 -223.4 -18.7 -223.65 -17.7 -223.35 -16.8 -223 -15.7 -223.2 -15.4 -223.6 -14.75 -225.1 -15.2 -226.55 -15.6 -230.3 -15.45 -231.8416015625 -15.3810546875 -233.05 -15.55 -233.529296875 -16.0939453125 -233.6 -16.2 -233.85 -16.6 -234.05 -17.7 -234.7 -20.25 -237.15 -22.8 -238.3 -23.95 -238.45 -24.65 -238.55 -25.05 -238.35 -26.35 -237.65 -29.05 -238.5 -30.55 -238.8845703125 -31.165234375 -239.5 -31.55 -239.4033203125 -33.223828125 -238.7 -36 -237.8 -39.45 -236.6 -40.65 -235.05 -41.75 -234.5 -42.5 -233.95 -43.4 -233.5 -43.7 -232.95 -44.05 -231.9 -44.05
L -225.6 -44.1
Q -225.05 -42.65 -222.85 -42.15 -220.25 -41.55 -218.35 -43 -217.4 -43.75 -216.95 -44.95 -216.939453125 -44.981640625 -216.95 -45.05 -215.7849609375 -44.721484375 -213.9 -44.8 -210.15 -44.95 -206.05 -45.65 -206.4 -44.6 -206.05 -43.55 -205.7 -42.5 -204.85 -41.75 -203.8 -40.85 -202 -40.65 -200.85 -40.5 -198.75 -40.65 -198.7 -36.3 -196.7 -31.95 -195.6 -29.55 -194.1 -28.65 -193.2 -28.05 -192.1 -28 -190.9 -28 -190.15 -28.7 -189.15 -29.6 -188.95 -32.05 -188.95 -32.3 -188.95 -37.7 -188.95 -41.1 -188.4 -43.3 -188.1 -44.4 -187.55 -44.75 -186.65 -45 -186.2 -45.15 -185.65 -45.4 -184.95 -46.15 -184.15 -47.1 -183.85 -47.35 -183.3 -47.75 -182.3 -47.95 -181.2 -48.1 -180.65 -48.25 -179.05 -48.65 -177.5 -49.95 -176.5 -50.8 -174.95 -52.6 -173.55 -54.2 -172.95 -55.05 -171.95 -56.45 -171.6 -57.8
L -171 -60.05
Q -170.3 -61.4 -169.2 -61.35 -168.85 -61.35 -168.35 -61.1 -167.8 -60.75 -167.5 -60.6 -166.2 -59.9 -164.6 -60.5 -163.05 -61.1 -162.55 -62.5 -162.4158203125 -62.8728515625 -162.4 -63.3 -162.16796875 -63.259375 -162 -63.25 -161 -63.2 -157.55 -62.35 -154.8 -61.7 -153.1 -62.05 -152.6 -62.15 -150.3 -63 -146.95 -63.95 -145.4 -64.75 -145.2482421875 -64.8173828125 -145.1 -64.9
L -144.7 -64.25
Q -143.85 -63.15 -142.6 -62.65 -141.3 -62.1 -140 -62.4 -139.5 -62.5 -137.85 -63.2 -136.75 -63.6 -134.8 -63.8 -132.4 -64.1 -131.7 -64.25 -130.55 -64.55 -129.95 -64.95 -129.1 -65.5 -128.7 -66.45 -128.25 -67.4 -128.45 -68.4 -128.6 -69.35 -129.3 -70.1 -130 -70.85 -131 -71.1 -131.65 -71.25 -133.05 -71.15 -134.5912109375 -71.0001953125 -135.95 -70.85 -135.933984375 -70.8818359375 -135.95 -70.95 -136.05 -71.35 -136.5 -72.3 -136.9 -73.15 -136.95 -73.7 -137 -74 -136.75 -75.7 -136.55 -76.9 -136.85 -78 -137.2 -79.25 -138.1 -79.85 -138.7 -80.25 -139.9 -80.45 -141.4 -80.7 -141.85 -80.85 -142.5 -81.05 -142.65 -81.4 -142.85 -81.65 -142.85 -82.15 -142.85 -82.8205078125 -142.35 -83.9 -141.3830078125 -83.7525390625 -140.55 -84.05 -139.7017578125 -84.3451171875 -139.15 -85.1
L -137.3 -83.25 -135.95 -82.4
Q -135.1 -81.6 -134.55 -81.3 -133.983203125 -81.0017578125 -133.3 -80.9
L -133.3 -80.85
Q -133.3 -80.75 -133 -80.35
L -132.3 -79.35 -131.95 -78.95
Q -131.55 -78.7 -130.95 -78.7 -130.8279296875 -78.7 -130.75 -78.7 -130.1658203125 -78.3734375 -129.3 -78.15 -127.491796875 -77.64921875 -126.2 -77.85
L -126.2 -77.8
Q -125.95 -77.45 -125.6 -77.45 -124.95 -77.7 -124.6 -77.8 -124.2 -78 -122.9 -78
L -121.5 -78.1
Q -120.9 -78.2 -120.65 -78.35 -120.2 -78.6 -120.15 -79.2 -120.05 -79.75 -120.35 -80.25 -120.7 -80.95 -122.05 -81.55 -122.7 -81.8 -123.2 -81.8 -123.3431640625 -81.8 -123.5 -81.8 -123.48359375 -81.840625 -123.5 -81.9 -123.6 -82.35 -124 -83.25
L -124.6 -84.6
Q -125.9 -87.55 -126.9 -89.05 -127.7 -90.2 -127.85 -90.65 -128 -91.05 -128.1 -91.95 -128.2 -92.85 -128.35 -93.3 -128.55 -93.85 -129.2 -94.65 -130 -95.6 -130.2 -95.9 -130.65 -96.6 -131.25 -98.1 -132.1 -99.75 -133.85 -100.4 -135.1896484375 -100.8935546875 -136.3 -100.5 -136.449609375 -100.5705078125 -136.6 -100.65 -137.9 -101.4 -140.4 -103.1 -141.041015625 -103.5486328125 -141.5 -103.95 -141.60625 -104.93359375 -142.2 -105.75 -142.5 -106.2 -143.45 -107.05 -143.4875 -107.0853515625 -143.55 -107.15 -143.7619140625 -107.5119140625 -144 -107.75 -144.153515625 -107.889453125 -144.4 -108.05 -144.5083984375 -108.23203125 -144.6 -108.4 -144.75 -108.6 -145.05 -109.35 -145.3 -109.95 -145.55 -110.3 -146.1 -111.1 -147.05 -111.4 -147.65 -111.5 -147.85 -111.75 -148.05 -112 -148.05 -112.45 -148.2 -113.5 -149 -114.3 -149.2857421875 -114.5857421875 -149.6 -114.8 -149.962890625 -114.9568359375 -150.35 -115.15 -150.5828125 -115.2119140625 -150.85 -115.25 -151.5623046875 -115.38359375 -152.9 -115.35 -153.4080078125 -115.5494140625 -153.9 -115.65 -154.223828125 -115.7078125 -154.55 -115.75 -154.6427734375 -115.7609375 -154.75 -115.8 -155.65 -116.15 -156.25 -116.15 -156.5 -116.15 -157.1 -116.1 -157.55 -116.1 -157.85 -116.3 -158.15 -116.5 -158.55 -117.2 -158.828125 -117.6265625 -159.3 -117.9 -159.4783203125 -118.245703125 -159.75 -118.55 -160.6 -119.6 -162.55 -119.8 -164.1 -119.9 -165.25 -119.25 -165.836328125 -118.96953125 -166.5 -118.35 -166.75859375 -118.3013671875 -167.05 -118.2 -168.2 -117.85 -168.8 -116.9 -169.75 -115.45 -169.15 -113.8 -169.1181640625 -113.7166015625 -169.1 -113.65 -169.1 -113.3982421875 -169.1 -113.15 -169.3 -109.85 -168.35 -106.4 -168.15 -105.95 -168.3 -105.65 -168.45 -105.15 -169.5 -105.15 -170.9 -105.15 -171.85 -104.6 -172.6484375 -104.140234375 -173.05 -103.4 -174.1712890625 -103.4951171875 -174.7 -104.2 -175 -104.6 -175.4 -105.5 -175.65 -105.85 -176.15 -106.15 -176.45 -106.3 -177.1 -106.65 -177.75 -107 -178.45 -107.7 -178.85 -108.1 -179.65 -108.95 -181.15 -110.55 -182.55 -110.8 -182.95 -110.9 -183.95 -110.9 -184.7587890625 -110.9 -185.25 -111.05 -185.33671875 -111.93984375 -185.95 -112.65 -186.45 -113.25 -188.3 -114.35 -190.2 -115.75 -190.75 -116.05
L -192.4 -116.8
Q -192.7 -117 -193.7 -117.85 -195.15 -119 -196.95 -119.3 -197.1 -119.35 -198.55 -119.5 -199.55 -119.6 -200.1 -119.85 -200.45 -120 -201.5 -120.65 -202.35 -121.15 -202.95 -121.25 -203.35 -121.3 -204.25 -121.25 -205.05 -121.25 -205.45 -121.6
M -237.5 -119.75
Q -236.641796875 -120.0119140625 -235.55 -120.4
L -217.35 -122.25
Q -217.22421875 -121.2025390625 -216.6 -120.4 -215.9 -119.55 -214.75 -119.15 -213.65 -118.8 -212.55 -118.95 -212.7 -117.4 -211.2 -116.35 -210.45 -115.7 -208.45 -115.1
L -204.85 -113.95
Q -201.25 -112.9 -200.2 -112.7 -198.35 -112.25 -197.95 -111.95 -197.6 -111.7 -196.75 -110.8 -196.05 -110.05 -195.5 -109.85 -194.35 -109.65 -193.8 -109.5 -193.3 -109.35 -192.7 -108.9 -192.673828125 -107.80859375 -192 -107 -190.9 -106.15 -190.4 -105.7 -189.15 -104.55 -188.85 -104.4 -188.1 -104 -185.9 -104 -185.15 -104 -184.85 -103.85 -184.45 -103.7 -183.8 -103.05 -182.1 -101.7 -181.35 -100.95 -180 -99.5 -179.3 -98.75 -178.1 -97.5 -177 -97.05 -176.25 -96.7 -175.15 -96.6 -173.85 -96.55 -173.2 -96.55 -171.65 -96.5 -171.05 -96.55 -169.9275390625 -96.64765625 -169.15 -97.1 -167.6275390625 -96.1625 -165.45 -97 -163.8 -97.75 -162.05 -99.85 -160.05 -102.1 -159.45 -104.05 -158.6263671875 -106.7953125 -159.85 -109.25 -159.1556640625 -109.239453125 -158.8 -109.2 -158.3 -109.15 -156.55 -108.65 -155.7185546875 -108.4037109375 -155.1 -108.4 -154.8595703125 -108.1568359375 -154.6 -107.8 -154.2650390625 -107.3162109375 -154.1 -107.1 -153.9060546875 -106.7572265625 -153.65 -106.45 -153.0125 -105.6654296875 -152 -105.25 -151.8263671875 -104.9037109375 -151.65 -104.45 -151.35 -103.55 -151 -103.25 -150.75 -103 -150.1 -102.7 -149.45 -102.4 -149.25 -102.25 -148.7 -101.85 -148.3 -100.95 -147.7 -99.5 -147.65 -99.45 -147.2 -98.75 -146.25 -98.1 -146.05 -97.95 -144.5 -97.1 -142.95 -96.25 -141.85 -95.4 -140.3228515625 -94.3357421875 -139.35 -93.1
L -140.5 -93.1
Q -141.65 -93.1 -142.2 -92.9 -143.2 -92.65 -143.9 -91.8 -144.0580078125 -91.608203125 -144.2 -91.4 -144.98515625 -91.426171875 -145.7 -91.05 -146.27890625 -90.7453125 -146.7 -90.3 -147.3759765625 -89.9234375 -147.8 -89.3
L -149.45 -85.4
Q -149.65 -84.65 -149.65 -83.1
L -149.6 -79.5
Q -149.5 -78.1 -149.2 -77.45 -148.7 -76.4 -146.65 -75.3
L -144.45 -74.1
Q -144.05 -73.9 -143.95 -73.7 -143.75 -73.45 -143.75 -72.8 -143.8017578125 -72.2998046875 -143.85 -71.85 -144.595703125 -71.729296875 -145.2 -71.35 -146.0869140625 -71.6875 -147.05 -71.55 -147.55 -71.5 -148.75 -71.1
L -152.45 -69.7
Q -154.3 -69.05 -155.1 -69.05 -155.5 -69.1 -157.1 -69.45 -161.1 -70.35 -165.05 -70.15 -166.4 -70.05 -167.2 -69.7 -167.96640625 -69.316796875 -168.45 -68.6 -169.0345703125 -68.568359375 -169.65 -68.5 -172.05 -68.35 -174.05 -67.2 -176.2 -65.95 -177.05 -63.95 -177.25 -63.55 -177.8 -61.5 -178.25 -59.95 -178.9 -59.2 -179.25 -58.8 -180.2 -58.05 -181.15 -57.35 -181.5 -56.85 -181.7 -56.55 -182.05 -55.9 -182.4 -55.35 -182.75 -55.1 -183.15 -54.85 -183.8 -54.8 -184.2 -54.8 -184.95 -54.75 -186 -54.6 -187.45 -53.55 -189.2 -52.3 -189.85 -52.05 -190.25 -51.9 -191.4 -51.65 -192.4 -51.45 -192.95 -51.2 -194.05 -50.65 -194.65 -49.4 -195.2 -48.15 -194.85 -46.95 -196.7 -47.75 -198.6 -47.75 -199.3 -51.35 -201.1 -52.65 -202.95 -53.9 -205.9 -53.25 -206.55 -53.1 -208.25 -52.65 -209.75 -52.2 -210.65 -52.1 -211.45 -52 -213.55 -52 -215.4 -52 -216.45 -51.75 -217.95 -51.4 -219 -50.3 -219.196875 -50.094140625 -219.35 -49.9 -220.328125 -50.491796875 -221.25 -50.75 -222.35 -51.05 -224.55 -51.05
L -231.1 -51.05
Q -233.8 -51.05 -235.35 -50.7 -237.65 -50.25 -238.95 -48.9 -239.55 -48.35 -240.5 -47.05
L -241.95 -45.6
Q -243.85 -43.55 -245.25 -38.75 -247.1 -31.8 -246.15 -27.2 -246.0404296875 -26.6326171875 -245.9 -26.15 -246.0220703125 -25.7421875 -246.1 -25.45 -246.2 -23.9 -246.45 -23.15 -246.55 -22.55 -247 -22.3 -247.2 -22.2 -248.15 -22.35 -248.35 -22.4 -249.05 -22.35 -249.65 -22.3 -249.95 -22.45 -250.2 -22.6 -250.5 -22.95 -250.65 -23.15 -251 -23.6 -251.5 -24.2 -253.15 -25.1
L -257.55 -27.3
Q -257.7 -28.1 -257.15 -29.25 -256.45 -30.8 -256.35 -31.2 -256.1 -32.3 -256.6 -33.85 -256.7103515625 -34.225 -256.9 -34.8 -256.6974609375 -35.9705078125 -256.9 -37.55 -257.75 -45 -261.75 -49.85 -262.35 -50.6 -263.7 -52 -264.85 -53.3 -265.45 -54.3 -265.95 -55.1 -267 -57.65 -267.9 -59.75 -268.8 -60.8 -269.15 -61.2 -270.1 -62.05 -270.95 -62.85 -271.35 -63.35 -271.5 -63.5 -272.5 -64.95 -273.2 -65.95 -273.8 -66.35 -274.6 -66.9 -275.85 -67.05 -276.35 -67.1 -278.05 -67.1 -282.7 -67 -287.05 -68.05 -287.9 -68.25 -287.9 -68.75 -287.9 -69 -287.35 -69.45 -285.8 -70.65 -285.7 -74.35 -285.5 -79.55 -286.8 -82.1 -287.05 -82.55 -287.6 -83.45 -288.05 -84.3 -288.1 -84.95 -288.15 -85.55 -287.85 -86.5 -287.5 -87.8 -287.45 -88.1 -287.3 -89.4 -288.15 -91.5 -289.15 -93.9 -289.25 -94.9 -289.3 -95.35 -289.1 -97.1 -289.067578125 -97.5369140625 -289.1 -97.95 -289.0578125 -98.0271484375 -289.05 -98.15 -288.7734375 -98.4453125 -288.5 -98.8 -286.75 -101.3 -285.85 -102.5 -284.25 -104.6 -282.6 -105.6 -281.25 -106.35 -278.65 -107 -275.65 -107.7 -274.6 -108.15 -272.35 -109.1 -269.5 -111.9 -267.5 -113.75 -267.05 -114.1 -265.65 -114.95 -264.1 -115.6 -259.2 -117.55 -254.8 -117.9 -253.4 -118 -250.55 -117.95 -247.75 -117.95 -246.35 -118.05 -242.3 -118.3 -237.5 -119.75
M -281.25 -58.45
L -281.3 -58.75
Q -281.1072265625 -58.7701171875 -280.95 -58.8 -281.075390625 -58.611328125 -281.25 -58.45
M -157.35 35.25
Q -156.8 35.55 -156.15 36.95
L -154.55 40.75
Q -153.5 43.15 -152.6 43.85 -151.25 44.95 -148.75 44.85 -148.4833984375 44.85 -148.25 44.8 -148.1421875 45.7384765625 -147.55 46.5 -146.85 47.4 -145.8 47.7 -145.25 47.85 -143.95 47.9 -142.7 47.95 -142.1 48.2 -141.6 48.5 -141.4 48.75 -141.1 49.3 -140.95 49.55 -140.215625 50.926953125 -137.45 52.1 -138.416015625 53.04375 -138.85 53.55 -140 54.9 -140.45 56.2 -140.9 57.5 -140.9 58.8 -140.9 59.9 -140.55 61.3
L -140.15 62.75
Q -139.95 63.85 -139.7 64.35
L -139.2 65.3
Q -139.15 65.45 -139 67 -139 68.1 -138.7 69.15 -138.2 70.95 -137.2 71.6 -136.4 72.1 -134.85 72.15 -132.8 72.15 -132.35 72.25 -131.95 72.3 -131.15 72.6 -129.7 73 -128.35 73 -126.15 72.9 -125.15 71.9 -124.96640625 71.71640625 -124.8 71.45 -124.1654296875 71.867578125 -124 72
L -122.6 73.15
Q -121.5 73.9 -119.75 74 -117.75 73.95 -116.7 73.95 -116.3111328125 73.95 -116 73.95 -115.55078125 74.5775390625 -114.95 75.35 -113.85 76.75 -113.45 77.75 -113.3 78.1 -113.1 78.8 -112.9 79.45 -112.65 79.8 -111.7 80.55 -111.2 80.95 -110.25 81.8 -110.6 82.55 -113.6 83.25 -115.3 85.75 -115.8 86.55 -116.25 86.8 -116.5 86.9 -117.95 86.9 -119.1 86.9 -120.9 87.95 -123.3 89.3 -124.05 90.35 -124.25 90.65 -125.35 92.95 -126 94.2 -127.55 96.5 -127.9 97.1 -128.65 98.55 -129.35 99.85 -129.8 100.55 -131.35 102.9 -133.3 103.35 -133.85 103.5 -135.05 103.55 -136.25 103.6 -136.85 103.75 -137.8 104 -138.85 104.7 -139.05 104.85 -140.7 106.05 -141.95 107.05 -142.25 107.4 -143.01328125 108.118359375 -143.3 108.85 -143.4640625 109.00625 -143.65 109.15 -144.3 109.55 -145.65 110.05 -146.4 110.4 -148.1 111.6 -149.55 112.65 -150.55 112.95 -150.85 113.05 -151.9 113.25 -152.75 113.45 -153.25 113.7 -154.2 114.2 -155.25 115.75 -156.85 118 -157.6 119.35
L -158.55 121.3
Q -158.75 121.9 -159 122.2 -159.4 122.7 -160.35 123.1 -161.5962890625 123.755859375 -162.25 124.25
L -164.15 124.45
Q -165.4 124.45 -166.6 124.6
L -171.25 124.8
Q -172.7 124.9 -173.9 124.75 -174.4 124.65 -175.4 124.4 -176.3 124.2 -176.95 124.25 -178.85 124.4 -179.7 126.2 -180.45 128 -179.4 129.6 -178.946484375 130.2935546875 -178.25 130.75 -179.2677734375 131.37421875 -180.75 132.25 -183.8 134.05 -185.9 134.9 -186.8 135.3 -190.55 136.5
L -199.7 139.3
Q -199.9734375 138.4796875 -200.55 137.8 -197.9908203125 135.780078125 -197 133.65 -196.15 131.85 -195.85 128.1 -195.65 124 -195.8 121.15 -195.8 118.8 -195.2 118.05 -194.3 117.3 -193.9 116.9 -192.8 116.05 -192.3 114.7 -191.8 113.35 -192.05 112 -190.05 111.35 -188.65 109.35 -187.35 107.5 -187.1 105.15 -186.75 102.15 -188.25 96.4 -189.25 92.45 -190.55 90.7 -191.4 89.65 -193.45 87.85 -195.85 85.6 -199.25 80.75 -200.45 79.15 -200.75 77.95 -200.9 77.35 -200.9 75.6 -200.95 74.15 -201.3 73.35 -201.33125 73.2875 -201.4 73.2 -201.4748046875 72.0396484375 -201.55 71.4 -201.7 70.15 -202.1 68.65 -202.5 66.95 -202.95 66.25 -203.6 65.05 -203.65 64.95 -203.75 64.55 -203.75 63.7 -203.55 59.75 -204.95 55.7 -203.7 53.45 -203.7 51.6 -203.7 50.45 -204.2 49.45 -204.2173828125 49.413671875 -204.25 49.35 -204.0685546875 49.1529296875 -203.9 48.9
L -200.55 43.9
Q -198.95 41.5 -197.8 40.5 -195.95 39.3 -195.1 38.55 -193.9 37.5 -192.5 34.8 -191.35 32.95 -190.85 32.55 -190.35 32.15 -188.45 31.3 -185.35 29.85 -183.25 27.15 -181.65 29.85 -178.55 31.1 -175.45 32.35 -172.45 31.4 -170.9 30.95 -170.75 30.95 -169.9 30.9 -168.65 31.25 -167.3 31.8 -166.65 32.05 -165.45 32.5 -164.55 32.55 -163.55 32.55 -163.1 32.55 -162.2 32.55 -161.7 32.8 -161.3 33 -160.7 33.7 -160.1 34.35 -159.7 34.55 -159.35 34.75 -158.5 34.9 -157.7 35 -157.35 35.25
M -209.25 140.45
Q -208.7271484375 139.5271484375 -208.65 139.45 -208.5072265625 139.3203125 -208.3 139.2 -208.7630859375 139.9220703125 -209.05 140.25 -209.142578125 140.355859375 -209.25 140.45 Z"/>

<path fill="#74D178" stroke="none" d="
M -110.5 -68.1
L -111.3 -68.2
Q -112.1 -68.3 -112.6 -68.7
L -114.1 -70.05
Q -114.6 -70.45 -114.75 -71.1 -114.9 -72 -114.95 -72.1 -115.05 -72.35 -115.55 -72.55 -116.6 -73.15 -116.35 -74 -116.65 -73.85 -116.85 -73.2 -117.25 -72.5 -118.2 -72.05
L -119.95 -71.45
Q -118.85 -71.35 -118.35 -71.2 -118.2 -71.15 -117.65 -70.9 -117.05 -70.4 -116.75 -70.2
L -116.1 -69.85 -115.65 -69.25
Q -115.5 -69.05 -114.8 -68.6
L -113.5 -67.85
Q -112.8 -67.4 -112.3 -67.25
L -111.4 -67
Q -109.7 -66.6 -108.85 -66.75 -108.2 -66.85 -107.9 -67.15 -108.15 -67.3 -108.3 -67.7 -109.25 -67.55 -110.05 -67.9
L -110.5 -68.1
M -156.15 36.95
Q -156.8 35.55 -157.35 35.25 -157.7 35 -158.5 34.9 -159.35 34.75 -159.7 34.55 -160.1 34.35 -160.7 33.7 -161.3 33 -161.7 32.8 -162.2 32.55 -163.1 32.55 -163.55 32.55 -164.55 32.55 -165.45 32.5 -166.65 32.05 -167.3 31.8 -168.65 31.25 -169.9 30.9 -170.75 30.95 -170.9 30.95 -172.45 31.4 -175.45 32.35 -178.55 31.1 -181.65 29.85 -183.25 27.15 -185.35 29.85 -188.45 31.3 -190.35 32.15 -190.85 32.55 -191.35 32.95 -192.5 34.8 -193.9 37.5 -195.1 38.55 -195.95 39.3 -197.8 40.5 -198.95 41.5 -200.55 43.9
L -203.9 48.9
Q -204.0685546875 49.1529296875 -204.25 49.35 -204.2173828125 49.413671875 -204.2 49.45 -203.7 50.45 -203.7 51.6 -203.7 53.45 -204.95 55.7 -203.55 59.75 -203.75 63.7 -203.75 64.55 -203.65 64.95 -203.6 65.05 -202.95 66.25 -202.5 66.95 -202.1 68.65 -201.7 70.15 -201.55 71.4 -201.4748046875 72.0396484375 -201.4 73.2 -201.33125 73.2875 -201.3 73.35 -200.95 74.15 -200.9 75.6 -200.9 77.35 -200.75 77.95 -200.45 79.15 -199.25 80.75 -195.85 85.6 -193.45 87.85 -191.4 89.65 -190.55 90.7 -189.25 92.45 -188.25 96.4 -186.75 102.15 -187.1 105.15 -187.35 107.5 -188.65 109.35 -190.05 111.35 -192.05 112 -191.8 113.35 -192.3 114.7 -192.8 116.05 -193.9 116.9 -194.3 117.3 -195.2 118.05 -195.8 118.8 -195.8 121.15 -195.65 124 -195.85 128.1 -196.15 131.85 -197 133.65 -197.9908203125 135.780078125 -200.55 137.8 -199.9734375 138.4796875 -199.7 139.3
L -190.55 136.5
Q -186.8 135.3 -185.9 134.9 -183.8 134.05 -180.75 132.25 -179.2677734375 131.37421875 -178.25 130.75 -178.946484375 130.2935546875 -179.4 129.6 -180.45 128 -179.7 126.2 -178.85 124.4 -176.95 124.25 -176.3 124.2 -175.4 124.4 -174.4 124.65 -173.9 124.75 -172.7 124.9 -171.25 124.8
L -166.6 124.6
Q -165.4 124.45 -164.15 124.45
L -162.25 124.25
Q -161.5962890625 123.755859375 -160.35 123.1 -159.4 122.7 -159 122.2 -158.75 121.9 -158.55 121.3
L -157.6 119.35
Q -156.85 118 -155.25 115.75 -154.2 114.2 -153.25 113.7 -152.75 113.45 -151.9 113.25 -150.85 113.05 -150.55 112.95 -149.55 112.65 -148.1 111.6 -146.4 110.4 -145.65 110.05 -144.3 109.55 -143.65 109.15 -143.4640625 109.00625 -143.3 108.85 -143.01328125 108.118359375 -142.25 107.4 -141.95 107.05 -140.7 106.05 -139.05 104.85 -138.85 104.7 -137.8 104 -136.85 103.75 -136.25 103.6 -135.05 103.55 -133.85 103.5 -133.3 103.35 -131.35 102.9 -129.8 100.55 -129.35 99.85 -128.65 98.55 -127.9 97.1 -127.55 96.5 -126 94.2 -125.35 92.95 -124.25 90.65 -124.05 90.35 -123.3 89.3 -120.9 87.95 -119.1 86.9 -117.95 86.9 -116.5 86.9 -116.25 86.8 -115.8 86.55 -115.3 85.75 -113.6 83.25 -110.6 82.55 -110.25 81.8 -111.2 80.95 -111.7 80.55 -112.65 79.8 -112.9 79.45 -113.1 78.8 -113.3 78.1 -113.45 77.75 -113.85 76.75 -114.95 75.35 -115.55078125 74.5775390625 -116 73.95 -116.3111328125 73.95 -116.7 73.95 -117.75 73.95 -119.75 74 -121.5 73.9 -122.6 73.15
L -124 72
Q -124.1654296875 71.867578125 -124.8 71.45 -124.96640625 71.71640625 -125.15 71.9 -126.15 72.9 -128.35 73 -129.7 73 -131.15 72.6 -131.95 72.3 -132.35 72.25 -132.8 72.15 -134.85 72.15 -136.4 72.1 -137.2 71.6 -138.2 70.95 -138.7 69.15 -139 68.1 -139 67 -139.15 65.45 -139.2 65.3
L -139.7 64.35
Q -139.95 63.85 -140.15 62.75
L -140.55 61.3
Q -140.9 59.9 -140.9 58.8 -140.9 57.5 -140.45 56.2 -140 54.9 -138.85 53.55 -138.416015625 53.04375 -137.45 52.1 -140.215625 50.926953125 -140.95 49.55 -141.1 49.3 -141.4 48.75 -141.6 48.5 -142.1 48.2 -142.7 47.95 -143.95 47.9 -145.25 47.85 -145.8 47.7 -146.85 47.4 -147.55 46.5 -148.1421875 45.7384765625 -148.25 44.8 -148.4833984375 44.85 -148.75 44.85 -151.25 44.95 -152.6 43.85 -153.5 43.15 -154.55 40.75
L -156.15 36.95
M -235.55 -120.4
Q -236.641796875 -120.0119140625 -237.5 -119.75 -242.3 -118.3 -246.35 -118.05 -247.75 -117.95 -250.55 -117.95 -253.4 -118 -254.8 -117.9 -259.2 -117.55 -264.1 -115.6 -265.65 -114.95 -267.05 -114.1 -267.5 -113.75 -269.5 -111.9 -272.35 -109.1 -274.6 -108.15 -275.65 -107.7 -278.65 -107 -281.25 -106.35 -282.6 -105.6 -284.25 -104.6 -285.85 -102.5 -286.75 -101.3 -288.5 -98.8 -288.7734375 -98.4453125 -289.05 -98.15 -289.0578125 -98.0271484375 -289.1 -97.95 -289.067578125 -97.5369140625 -289.1 -97.1 -289.3 -95.35 -289.25 -94.9 -289.15 -93.9 -288.15 -91.5 -287.3 -89.4 -287.45 -88.1 -287.5 -87.8 -287.85 -86.5 -288.15 -85.55 -288.1 -84.95 -288.05 -84.3 -287.6 -83.45 -287.05 -82.55 -286.8 -82.1 -285.5 -79.55 -285.7 -74.35 -285.8 -70.65 -287.35 -69.45 -287.9 -69 -287.9 -68.75 -287.9 -68.25 -287.05 -68.05 -282.7 -67 -278.05 -67.1 -276.35 -67.1 -275.85 -67.05 -274.6 -66.9 -273.8 -66.35 -273.2 -65.95 -272.5 -64.95 -271.5 -63.5 -271.35 -63.35 -270.95 -62.85 -270.1 -62.05 -269.15 -61.2 -268.8 -60.8 -267.9 -59.75 -267 -57.65 -265.95 -55.1 -265.45 -54.3 -264.85 -53.3 -263.7 -52 -262.35 -50.6 -261.75 -49.85 -257.75 -45 -256.9 -37.55 -256.6974609375 -35.9705078125 -256.9 -34.8 -256.7103515625 -34.225 -256.6 -33.85 -256.1 -32.3 -256.35 -31.2 -256.45 -30.8 -257.15 -29.25 -257.7 -28.1 -257.55 -27.3
L -253.15 -25.1
Q -251.5 -24.2 -251 -23.6 -250.65 -23.15 -250.5 -22.95 -250.2 -22.6 -249.95 -22.45 -249.65 -22.3 -249.05 -22.35 -248.35 -22.4 -248.15 -22.35 -247.2 -22.2 -247 -22.3 -246.55 -22.55 -246.45 -23.15 -246.2 -23.9 -246.1 -25.45 -246.0220703125 -25.7421875 -245.9 -26.15 -246.0404296875 -26.6326171875 -246.15 -27.2 -247.1 -31.8 -245.25 -38.75 -243.85 -43.55 -241.95 -45.6
L -240.5 -47.05
Q -239.55 -48.35 -238.95 -48.9 -237.65 -50.25 -235.35 -50.7 -233.8 -51.05 -231.1 -51.05
L -224.55 -51.05
Q -222.35 -51.05 -221.25 -50.75 -220.328125 -50.491796875 -219.35 -49.9 -219.196875 -50.094140625 -219 -50.3 -217.95 -51.4 -216.45 -51.75 -215.4 -52 -213.55 -52 -211.45 -52 -210.65 -52.1 -209.75 -52.2 -208.25 -52.65 -206.55 -53.1 -205.9 -53.25 -202.95 -53.9 -201.1 -52.65 -199.3 -51.35 -198.6 -47.75 -196.7 -47.75 -194.85 -46.95 -195.2 -48.15 -194.65 -49.4 -194.05 -50.65 -192.95 -51.2 -192.4 -51.45 -191.4 -51.65 -190.25 -51.9 -189.85 -52.05 -189.2 -52.3 -187.45 -53.55 -186 -54.6 -184.95 -54.75 -184.2 -54.8 -183.8 -54.8 -183.15 -54.85 -182.75 -55.1 -182.4 -55.35 -182.05 -55.9 -181.7 -56.55 -181.5 -56.85 -181.15 -57.35 -180.2 -58.05 -179.25 -58.8 -178.9 -59.2 -178.25 -59.95 -177.8 -61.5 -177.25 -63.55 -177.05 -63.95 -176.2 -65.95 -174.05 -67.2 -172.05 -68.35 -169.65 -68.5 -169.0345703125 -68.568359375 -168.45 -68.6 -167.96640625 -69.316796875 -167.2 -69.7 -166.4 -70.05 -165.05 -70.15 -161.1 -70.35 -157.1 -69.45 -155.5 -69.1 -155.1 -69.05 -154.3 -69.05 -152.45 -69.7
L -148.75 -71.1
Q -147.55 -71.5 -147.05 -71.55 -146.0869140625 -71.6875 -145.2 -71.35 -144.595703125 -71.729296875 -143.85 -71.85 -143.8017578125 -72.2998046875 -143.75 -72.8 -143.75 -73.45 -143.95 -73.7 -144.05 -73.9 -144.45 -74.1
L -146.65 -75.3
Q -148.7 -76.4 -149.2 -77.45 -149.5 -78.1 -149.6 -79.5
L -149.65 -83.1
Q -149.65 -84.65 -149.45 -85.4
L -147.8 -89.3
Q -147.3759765625 -89.9234375 -146.7 -90.3 -146.27890625 -90.7453125 -145.7 -91.05 -144.98515625 -91.426171875 -144.2 -91.4 -144.0580078125 -91.608203125 -143.9 -91.8 -143.2 -92.65 -142.2 -92.9 -141.65 -93.1 -140.5 -93.1
L -139.35 -93.1
Q -140.3228515625 -94.3357421875 -141.85 -95.4 -142.95 -96.25 -144.5 -97.1 -146.05 -97.95 -146.25 -98.1 -147.2 -98.75 -147.65 -99.45 -147.7 -99.5 -148.3 -100.95 -148.7 -101.85 -149.25 -102.25 -149.45 -102.4 -150.1 -102.7 -150.75 -103 -151 -103.25 -151.35 -103.55 -151.65 -104.45 -151.8263671875 -104.9037109375 -152 -105.25 -153.0125 -105.6654296875 -153.65 -106.45 -153.9060546875 -106.7572265625 -154.1 -107.1 -154.2650390625 -107.3162109375 -154.6 -107.8 -154.8595703125 -108.1568359375 -155.1 -108.4 -155.7185546875 -108.4037109375 -156.55 -108.65 -158.3 -109.15 -158.8 -109.2 -159.1556640625 -109.239453125 -159.85 -109.25 -158.6263671875 -106.7953125 -159.45 -104.05 -160.05 -102.1 -162.05 -99.85 -163.8 -97.75 -165.45 -97 -167.6275390625 -96.1625 -169.15 -97.1 -169.9275390625 -96.64765625 -171.05 -96.55 -171.65 -96.5 -173.2 -96.55 -173.85 -96.55 -175.15 -96.6 -176.25 -96.7 -177 -97.05 -178.1 -97.5 -179.3 -98.75 -180 -99.5 -181.35 -100.95 -182.1 -101.7 -183.8 -103.05 -184.45 -103.7 -184.85 -103.85 -185.15 -104 -185.9 -104 -188.1 -104 -188.85 -104.4 -189.15 -104.55 -190.4 -105.7 -190.9 -106.15 -192 -107 -192.673828125 -107.80859375 -192.7 -108.9 -193.3 -109.35 -193.8 -109.5 -194.35 -109.65 -195.5 -109.85 -196.05 -110.05 -196.75 -110.8 -197.6 -111.7 -197.95 -111.95 -198.35 -112.25 -200.2 -112.7 -201.25 -112.9 -204.85 -113.95
L -208.45 -115.1
Q -210.45 -115.7 -211.2 -116.35 -212.7 -117.4 -212.55 -118.95 -213.65 -118.8 -214.75 -119.15 -215.9 -119.55 -216.6 -120.4 -217.22421875 -121.2025390625 -217.35 -122.25
L -235.55 -120.4 Z"/>
</g>

<path id="MUNDO_0_Layer0_0_1_STROKES" stroke="#374D6B" stroke-width="0.1" stroke-linejoin="round" stroke-linecap="round" fill="none" d="
M -66.6 16.3
Q -66.6 76.05 -108.85 118.3 -151.1 160.55 -210.85 160.55 -270.6 160.55 -312.85 118.3 -355.1 76.05 -355.1 16.3 -355.1 -43.45 -312.85 -85.7 -270.6 -127.95 -210.85 -127.95 -151.1 -127.95 -108.85 -85.7 -66.6 -43.45 -66.6 16.3 Z"/>

<path id="MUNDO_0_Layer0_0_MEMBER_1_1_STROKES" stroke="#374D6B" stroke-width="0.1" stroke-linejoin="round" stroke-linecap="round" fill="none" d="
M -296.475 -100
Q -278.314453125 -113.7078125 -257.375 -120.7 -242.4421875 -125.665625 -226.1 -127.225 -218.621484375 -127.95 -210.85 -127.95 -204.3267578125 -127.95 -198 -127.45 -198.0978515625 -127.1435546875 -198.25 -126.85 -199.3 -124.85 -202.9 -124.15 -204.3453125 -123.8427734375 -206.3 -123.55 -206.2732421875 -123.4720703125 -206.25 -123.4 -206.05 -122.75 -205.95 -122.45 -205.75 -121.85 -205.45 -121.6 -205.05 -121.25 -204.25 -121.25 -203.35 -121.3 -202.95 -121.25 -202.35 -121.15 -201.5 -120.65 -200.45 -120 -200.1 -119.85 -199.55 -119.6 -198.55 -119.5 -197.1 -119.35 -196.95 -119.3 -195.15 -119 -193.7 -117.85 -192.7 -117 -192.4 -116.8
L -190.75 -116.05
Q -190.2 -115.75 -188.3 -114.35 -186.45 -113.25 -185.95 -112.65 -185.33671875 -111.93984375 -185.25 -111.025 -184.7587890625 -110.9 -183.95 -110.9 -182.95 -110.9 -182.55 -110.8 -181.15 -110.55 -179.65 -108.95 -178.85 -108.1 -178.45 -107.7 -177.75 -107 -177.1 -106.65 -176.45 -106.3 -176.15 -106.15 -175.65 -105.85 -175.4 -105.5 -175 -104.6 -174.7 -104.2 -174.1712890625 -103.4951171875 -173.05 -103.4 -172.6484375 -104.140234375 -171.85 -104.6 -170.9 -105.15 -169.5 -105.15 -168.45 -105.15 -168.3 -105.65 -168.15 -105.95 -168.35 -106.4 -169.3 -109.85 -169.1 -113.15 -169.1 -113.3982421875 -169.075 -113.625 -169.1181640625 -113.7166015625 -169.15 -113.8 -169.75 -115.45 -168.8 -116.9 -168.2 -117.85 -167.05 -118.2 -166.75859375 -118.3013671875 -166.475 -118.35 -165.836328125 -118.96953125 -165.25 -119.25 -164.1 -119.9 -162.55 -119.8 -160.6 -119.6 -159.75 -118.55 -159.4783203125 -118.245703125 -159.3 -117.9 -158.828125 -117.6265625 -158.55 -117.2 -158.15 -116.5 -157.85 -116.3 -157.55 -116.1 -157.1 -116.1 -156.5 -116.15 -156.25 -116.15 -155.65 -116.15 -154.75 -115.8 -154.6427734375 -115.7609375 -154.55 -115.725 -154.223828125 -115.7078125 -153.9 -115.65 -153.4080078125 -115.5494140625 -152.9 -115.35 -151.5623046875 -115.38359375 -150.85 -115.25 -150.5828125 -115.2119140625 -150.325 -115.125 -149.962890625 -114.9568359375 -149.6 -114.775 -149.2857421875 -114.5857421875 -149 -114.3 -148.2 -113.5 -148.05 -112.45 -148.05 -112 -147.85 -111.75 -147.65 -111.5 -147.05 -111.4 -146.1 -111.1 -145.55 -110.3 -145.3 -109.95 -145.05 -109.35 -144.75 -108.6 -144.6 -108.4 -144.5083984375 -108.23203125 -144.375 -108.05 -144.153515625 -107.889453125 -144 -107.75 -143.7619140625 -107.5119140625 -143.525 -107.125 -143.4875 -107.0853515625 -143.45 -107.05 -142.5 -106.2 -142.2 -105.75 -141.60625 -104.93359375 -141.475 -103.925 -141.041015625 -103.5486328125 -140.4 -103.1 -137.9 -101.4 -136.6 -100.65 -136.449609375 -100.5705078125 -136.3 -100.5 -135.1896484375 -100.8935546875 -133.85 -100.4 -132.1 -99.75 -131.25 -98.1 -130.65 -96.6 -130.2 -95.9 -130 -95.6 -129.2 -94.65 -128.55 -93.85 -128.35 -93.3 -128.2 -92.85 -128.1 -91.95 -128 -91.05 -127.85 -90.65 -127.7 -90.2 -126.9 -89.05 -125.9 -87.55 -124.6 -84.6
L -124 -83.25
Q -123.6 -82.35 -123.5 -81.9 -123.48359375 -81.840625 -123.475 -81.775 -123.3431640625 -81.8 -123.2 -81.8 -122.7 -81.8 -122.05 -81.55 -120.7 -80.95 -120.35 -80.25 -120.05 -79.75 -120.15 -79.2 -120.2 -78.6 -120.65 -78.35 -120.9 -78.2 -121.5 -78.1
L -122.9 -78
Q -124.2 -78 -124.6 -77.8 -124.95 -77.7 -125.6 -77.45 -125.95 -77.45 -126.2 -77.8
L -126.2 -77.825
Q -127.491796875 -77.64921875 -129.3 -78.15 -130.1658203125 -78.3734375 -130.725 -78.7 -130.8279296875 -78.7 -130.95 -78.7 -131.55 -78.7 -131.95 -78.95
L -132.3 -79.35 -133 -80.35
Q -133.3 -80.75 -133.3 -80.85
L -133.3 -80.875
Q -133.983203125 -81.0017578125 -134.55 -81.3 -135.1 -81.6 -135.95 -82.4
L -137.3 -83.25 -139.15 -85.1
Q -139.7017578125 -84.3451171875 -140.55 -84.05 -141.3830078125 -83.7525390625 -142.325 -83.875 -142.85 -82.8205078125 -142.85 -82.15 -142.85 -81.65 -142.65 -81.4 -142.5 -81.05 -141.85 -80.85 -141.4 -80.7 -139.9 -80.45 -138.7 -80.25 -138.1 -79.85 -137.2 -79.25 -136.85 -78 -136.55 -76.9 -136.75 -75.7 -137 -74 -136.95 -73.7 -136.9 -73.15 -136.5 -72.3 -136.05 -71.35 -135.95 -70.95 -135.933984375 -70.8818359375 -135.925 -70.825 -134.5912109375 -71.0001953125 -133.05 -71.15 -131.65 -71.25 -131 -71.1 -130 -70.85 -129.3 -70.1 -128.6 -69.35 -128.45 -68.4 -128.25 -67.4 -128.7 -66.45 -129.1 -65.5 -129.95 -64.95 -130.55 -64.55 -131.7 -64.25 -132.4 -64.1 -134.8 -63.8 -136.75 -63.6 -137.85 -63.2 -139.5 -62.5 -140 -62.4 -141.3 -62.1 -142.6 -62.65 -143.85 -63.15 -144.7 -64.25
L -145.1 -64.9
Q -145.2482421875 -64.8173828125 -145.4 -64.75 -146.95 -63.95 -150.3 -63 -152.6 -62.15 -153.1 -62.05 -154.8 -61.7 -157.55 -62.35 -161 -63.2 -162 -63.25 -162.16796875 -63.259375 -162.375 -63.275 -162.4158203125 -62.8728515625 -162.55 -62.5 -163.05 -61.1 -164.6 -60.5 -166.2 -59.9 -167.5 -60.6 -167.8 -60.75 -168.35 -61.1 -168.85 -61.35 -169.2 -61.35 -170.3 -61.4 -171 -60.05
L -171.6 -57.8
Q -171.95 -56.45 -172.95 -55.05 -173.55 -54.2 -174.95 -52.6 -176.5 -50.8 -177.5 -49.95 -179.05 -48.65 -180.65 -48.25 -181.2 -48.1 -182.3 -47.95 -183.3 -47.75 -183.85 -47.35 -184.15 -47.1 -184.95 -46.15 -185.65 -45.4 -186.2 -45.15 -186.65 -45 -187.55 -44.75 -188.1 -44.4 -188.4 -43.3 -188.95 -41.1 -188.95 -37.7 -188.95 -34.1818359375 -188.95 -32.85 -188.95 -32.137109375 -188.95 -32.05 -189.15 -29.6 -190.15 -28.7 -190.9 -28 -192.1 -28 -193.2 -28.05 -194.1 -28.65 -195.6 -29.55 -196.7 -31.95 -196.9068359375 -32.4 -197.1 -32.85 -198.705078125 -36.75 -198.75 -40.65 -200.85 -40.5 -202 -40.65 -203.8 -40.85 -204.85 -41.75 -205.7 -42.5 -206.05 -43.55 -206.4 -44.6 -206.05 -45.65 -210.15 -44.95 -213.9 -44.8 -215.7849609375 -44.721484375 -216.925 -45.025 -216.939453125 -44.981640625 -216.95 -44.95 -217.4 -43.75 -218.35 -43 -220.25 -41.55 -222.85 -42.15 -225.05 -42.65 -225.6 -44.1
L -231.9 -44.05
Q -232.95 -44.05 -233.5 -43.7 -233.95 -43.4 -234.5 -42.5 -235.05 -41.75 -236.6 -40.65 -237.8 -39.45 -238.7 -36 -239.1583984375 -34.190625 -239.35 -32.85 -239.45 -32.1330078125 -239.475 -31.55 -238.8845703125 -31.165234375 -238.5 -30.55 -237.65 -29.05 -238.35 -26.35 -238.55 -25.05 -238.45 -24.65 -238.3 -23.95 -237.15 -22.8 -234.7 -20.25 -234.05 -17.7 -233.85 -16.6 -233.6 -16.2 -233.529296875 -16.0939453125 -233.025 -15.525 -231.8416015625 -15.3810546875 -230.3 -15.45 -226.55 -15.6 -225.1 -15.2 -223.6 -14.75 -223.2 -15.4 -223 -15.7 -223.35 -16.8 -223.65 -17.7 -223.4 -18.7 -223.2 -19.75 -222.45 -20.35 -221.1 -21.6 -218.05 -21.2 -215.25 -21 -214.15 -19.75 -213.35 -18.85 -213.15 -16.55
L -212.8 -13.65
Q -212.4 -10.15 -213.7 -8.9 -214.65 -7.95 -217 -7.9 -217.4732421875 -7.8830078125 -217.9 -7.85 -217.8134765625 -7.708984375 -217.75 -7.55 -217.3 -6.6 -217.55 -5.45 -217.627734375 -5.1076171875 -217.775 -4.8
L -217.25 -4.35
Q -216.45 -3.55 -215.6 -3.05 -214.95 -2.75 -214.65 -2.55 -214.1 -2.3 -213.85 -1.95 -213.5 -1.25 -213.15 -1.1 -212.75 -0.9 -211.9 -1.35 -210.65 -1.95 -209.25 -1.8 -208.535546875 -1.7015625 -207.95 -1.425 -207.8748046875 -1.4451171875 -207.8 -1.45 -207.748046875 -1.4623046875 -207.7 -1.475
L -207.5 -1.55
Q -207.408203125 -1.55 -207.325 -1.525
L -207.25 -1.55
Q -206.4 -1.45 -206.05 -0.8 -205.65 -0.4 -205.6 0.1 -205.55 0.6 -205.85 1 -205.89140625 1.0744140625 -205.95 1.15 -205.9 1.408984375 -205.9 1.7 -205.9 3.2 -206.9 4.05 -207.15 4.25 -207.7 4.65 -208.15 5 -208.3 5.4 -208.45 5.9 -208.15 6.75 -207.6 9.05 -208.3 10.5 -208.612890625 11.222265625 -209.2 11.725
L -207.95 12.6
Q -207.15 13 -206.85 13.3 -206.45 13.7 -206.3 14.4 -206.25 14.45 -206.05 15.65 -205.95 16.1 -205.8 16.25 -205.2 16.45 -204.95 16.6 -204.7 16.75 -204.45 17.2 -204.2 17.7 -204 17.85
L -203.3 18.2
Q -202.8 18.45 -202.4 19.6 -202.292578125 19.9546875 -202.2 20.25 -201.811328125 20.15 -201.15 20.15 -200.6 20.15 -200.3 20.05
L -199.65 19.8
Q -198.8 19.4 -198.1 19.45 -197.15 19.55 -196.75 20.3 -196.6 20.6 -196.55 21.3 -196.5 22 -196.3 22.3 -196.15 22.65 -195.6 23.15 -194.61171875 23.1673828125 -194.1 23.4
L -193.4 23.7
Q -193 23.85 -192.45 23.75
L -192 23.7 -188.9 21.55 -188.625 21.475
Q -187.3400390625 19.2833984375 -186.95 18.85 -185.55 17.25 -183.35 16.8 -181.1 16.3 -179.2 17.25 -177.3 18.15 -176.25 20.15 -175.2 22.15 -175.55 24.25 -174.4 24.3 -173.2 22.85 -171.55 20.9 -171 20.55 -169.95 19.9 -168.6 20.25 -167.3 20.65 -166.7 21.75 -166.55 22 -166.25 23.05 -166 23.9 -165.65 24.35 -164.8 25.55 -162.3 25.65 -160.15 25.7 -159.05 25.75 -157.25 25.9 -156 26.45 -154.55 27.1 -152.85 28.8 -150.45 31.2 -149.95 31.6 -147.85 33 -147.05 33.9 -145.95 35.1 -145 38.55 -144.6197265625 39.9509765625 -144.6 41.025 -143.92890625 41 -143 41 -141.4 40.95 -140.6 41.1 -139.5 41.25 -137.6 42.15 -135.95 43 -135.5 43.75 -135.15 44.7 -134.85 45.15 -134.15 46.05 -132.05 46.05 -129.25 46.25 -127.9 46.9 -125.6 47.95 -125.15 49.95 -124.8685546875 51.2765625 -125.425 52.275 -125.4 52.5076171875 -125.4 52.75 -125.4 54.35 -126.65 55.3 -128 56.45 -130.45 56.25 -131.1 56.15 -131.5 56.35 -131.9 56.6 -132.4 57.45 -132.5 57.55 -133.15 58 -133.6 58.35 -133.65 58.7 -133.7 58.95 -133.5 59.5 -133.35 59.9 -133.25 60.75 -133.2 60.95 -132.5 62.65 -132 63.8 -132.25 64.55 -131.65 64.65 -130.75 64.1 -129.953515625 63.6220703125 -129.475 63.525 -129.40703125 62.7783203125 -129 62.05 -128.6 61.25 -127.75 60.8 -126.95 60.3 -126.05 60.3 -125.15 60.3 -124.25 60.8 -123.05 61.3 -122.5 62.15 -122.3 62.5 -121.9 63.8 -121.6 64.9 -121.1 65.3 -120.15 65.8 -119.75 66.15 -119.25 66.65 -119 66.8 -118.85 66.85 -118.05 67
L -116.05 67.05
Q -114.25 67.05 -113.3 67.5 -113.1923828125 67.5478515625 -113.1 67.6 -112.6416015625 67.6732421875 -112.2 67.85 -110.85 68.4 -109 70.65 -107.85 71.95 -107.25 73 -106.65 74.35 -106.25 75 -105.05 76.35 -104.55 77.15 -103.65 78.55 -103.65 82.05 -103.65 86.55 -104.55 88.6 -105.6 90.75 -107.55 91.95 -108.3 92.45 -109.85 93.3 -110.45 93.75 -111.55 94.75 -112.55 95.6 -113.4 95.8 -114.3 96.05 -115.85 95.7 -117.65 95.25 -118.3 95.25 -118.65 96.2 -119.75 97.55 -121 99.15 -121.35 99.7 -122.05 100.75 -122.95 103.05 -124.15 105.6 -126.2 107.45 -128.95 110 -132.1 110.4
L -133.45 110.55
Q -134.3 110.65 -134.8 110.85 -135.2705078125 111.0638671875 -135.95 111.575 -136.0318359375 111.8341796875 -136.15 112.1 -136.55 113 -137.75 114.2 -138.85 115.3 -139.55 115.65 -140.3 116 -141.9 116.35 -143 116.7 -145.6 118.5 -147.85 120 -149.4 120.15 -149.25 121.05 -150.4 121.95 -151.7 123.05 -151.9 123.5 -152.15 124.1 -152.05 125.5 -152.1 126.65 -153 127.55 -153.5 128 -154.3 128.35
L -154.475 128.425
Q -155.0388671875 129.6330078125 -156.35 130.25 -157.1 130.6 -159.25 130.9
L -163.25 131.45
Q -166.7466796875 131.7033203125 -169.35 131.8 -169.3423828125 132.53984375 -169.7 133.3 -170.3 134.55 -172.4 135.85 -174.85 137.4 -178.75 139.4 -185.8 142.8 -197.35 146.05 -199.2 146.5 -200.25 147.1 -201.15 147.6 -202.25 148.7 -204 150.45 -204.1 150.55 -206.6 152.85 -208.8 152.1 -209.712890625 155.1126953125 -210.625 156.5 -210.712890625 156.632421875 -210.8 156.75 -212.25 158.55 -212.45 159.1 -212.618359375 159.605078125 -212.625 160.55 -215.637109375 160.51015625 -218.6 160.375 -219.878125 160.314453125 -221.15 160.225 -223.400390625 160.0873046875 -225.625 159.875 -225.5912109375 158.8849609375 -225.3 157.3
L -224.35 152.35
Q -224 150 -223.4 148.6 -222.9 147.35 -221.4 145.05 -219.5 142.05 -218 140.2 -216.35 138.2 -215.85 137.45 -215.3 136.35 -215 135.8 -214.5 134.85 -214 134.25 -213.05 133.2 -211.45 132.55 -210.45 132.15 -208.45 131.65 -206.6 131.1 -205.95 130.55 -204.9 129.55 -204.6 127.2 -204.4 125.45 -204.4 123 -204.45 120.15 -204.5 118.75 -204.5 115.5 -203.4 114.3 -202.9810546875 113.81484375 -202.425 113.575 -202.0765625 112.6861328125 -201.325 112.075 -200.8865234375 111.1626953125 -200.55 110.7 -199.55 109.65 -199.15 109.05 -198.975390625 108.8255859375 -198.725 108.325 -198.647265625 108.1189453125 -198.55 107.9 -198.4138671875 107.60234375 -198.25 107.325 -198.2025390625 107.2212890625 -198.15 107.1 -197.6 105.8 -196.95 105.3 -196.2 104.8 -195.95 104.45 -195.7 104.1 -195.6 103.6 -195.4 103 -195.2 101.8
L -194.9 100.15
Q -194.8056640625 99.81953125 -194.675 99.525 -195.0392578125 98.1603515625 -195.35 97.2 -196.2 94.8 -197.2 94.15 -197.6 93.9 -198.65 93.6 -199.6 93.3 -200.05 92.95 -200.65 92.5 -201.05 91.6 -201.5 90.45 -201.75 89.9 -202.3 88.6 -205.15 85.3 -207.55 82.55 -207.7 80.4 -207.5830078125 78.8009765625 -207.675 77.875 -207.864453125 77.4064453125 -208.05 76.85 -208.12265625 76.595703125 -208.175 76.375 -208.28203125 76.188671875 -208.4 76 -209.1 74.9 -209.2 74.7 -209.85 73.55 -210.5 70.55 -210.9419921875 68.207421875 -210.575 66.925 -210.577734375 66.4310546875 -210.55 65.85 -210.55 63.5 -210.65 62.35 -210.75 61.25 -211.05 60.75 -211.1 60.65 -211.85 59.9 -213.1 58.65 -213 56.9 -213 55.65 -211.9 53.55 -211.1 52.1 -210.75 51.15 -210.2904296875 49.902734375 -210.1 49.4 -210.8193359375 48.14375 -210.9 46.25 -211 44.05 -210.1 42.85 -209.65 42.25 -208.65 41.65 -207.25 40.7 -207.05 40.55 -206.15 39.8 -204.9 37.75 -203.7 35.7 -202.75 34.95 -202.35 34.6 -200.7 33.7 -199.4 32.95 -198.85 32.25 -198.3 31.55 -197.75 29.4 -197.58671875 28.7794921875 -197.4 28.275 -197.4564453125 28.0828125 -197.5 27.85 -197.6 26.95 -197.7 26.5
L -198.15 25.05 -198.5 24.65
Q -199 24.1 -199.25 23.25 -200.6 23.25 -201 23.4
L -201.85 23.8
Q -202.8 24.2 -203.8 24.05 -204.55 23.95 -204.95 23.5 -205.55 22.85 -205.2 22 -205.1259765625 21.8201171875 -205.025 21.675 -205.1177734375 21.2982421875 -205.25 21.1 -205.35 20.95 -206.1 20.35
L -206.85 19.6
Q -208.2 18.5 -208.3 18.4 -208.8 17.9 -208.95 17.2 -209 16.7 -209.05 16.45 -209.1 16.05 -209.3 15.75 -209.5 15.45 -210.05 15.2 -210.7 14.85 -210.85 14.7 -211.05 14.55 -211.4 14.25 -211.6 14.15 -212.05 14 -212.15 13.95 -212.65 13.3
L -213.125 12.85
Q -213.7771484375 13.2626953125 -214.5 13.05 -215.3 12.9 -216.2 11.8
L -217.1 10.75
Q -217.4 10.35 -217.45 10.15 -217.45 10.1 -217.6 9.45
L -217.9 8.7
Q -218 8.4 -218 7.75
L -218.05 5.8 -217.95 4.8
Q -217.815625 4.4416015625 -217.55 4.075 -217.9287109375 3.7703125 -218.65 3.65 -219.8 3.4 -220.1 3.25 -220.55 3 -221 2.4
L -221.025 2.375
Q -221.3142578125 2.2994140625 -221.65 2.2 -222.35 2 -223.65 1.75 -224.7 1.45 -226.15 0.5 -228.1 -0.6 -229.15 -1.55 -230.05 -2.35 -230.2 -3
L -230.4 -4.1
Q -230.5 -4.55 -230.9 -5.3 -231.45 -6.4 -231.3 -7.6 -231.2498046875 -8.0189453125 -231.125 -8.4 -235.0189453125 -8.0095703125 -238.35 -9.45 -239.8853515625 -9.462109375 -240.95 -9.65 -243.5 -10.05 -245 -11.45 -245.4 -11.85 -246.15 -12.75 -246.85 -13.5 -247.45 -13.85 -248 -14.1 -250.25 -14.35 -252.5 -14.6 -253.9 -15.6 -254.55 -16.05 -255.4 -17.05 -256.45 -18.25 -256.85 -18.6 -257.7 -19.35 -259.15 -20.15 -259.95 -20.6 -261.6 -21.45 -264.65 -23.2 -265.05 -25.65 -265.15 -26.45 -264.9 -27.5 -264.8 -28.15 -264.5 -29.4 -264.1998046875 -30.7375 -264.2 -32.85 -264.223046875 -34.6068359375 -264.45 -36.9 -264.75 -39.8 -265.45 -41.1 -265.7 -41.55 -266.3 -42.4 -266.95 -43.25 -267.2 -43.75 -267.7142578125 -44.6849609375 -267.7 -45.75 -267.89609375 -45.973046875 -268.1 -46.2 -271.15 -49.55 -271.95 -51.15 -272.35 -51.95 -273 -53.7 -273.65 -55.2 -274.45 -55.95 -275.05 -56.55 -276.6 -57.65 -277.1830078125 -58.11640625 -277.5 -58.6 -277.65390625 -58.2783203125 -277.85 -57.9
L -278.6 -56.55
Q -278.9 -56.1 -279.05 -55.6 -279.2 -54.85 -279.2 -54.8
L -279.5 -54.35
Q -279.5 -54.1 -279.3 -53.8 -279.05 -53.35 -279 -52.55 -278.9 -51.55 -278.85 -51.3 -278.75 -50.9 -278.4 -50.05 -278.05 -49.3 -277.95 -48.85
L -277.95 -48
Q -277.9 -47.5 -277.8 -47.2 -277.75 -47.1 -277.35 -46.55 -276.6 -45.45 -276.25 -44.45 -275.95 -43.55 -276.1 -43.1 -276.2 -42.6 -276.7 -42.3 -277.15 -42 -277.7 -42.05 -278.6 -42.05 -279.55 -43 -279.95 -43.45 -280.05 -43.9 -280.2 -44.55 -280.2 -44.6
L -280.75 -45.1
Q -280.85 -45.2 -280.95 -46.05 -281.05 -46.6 -281.5 -47.75
L -281.65 -48.9
Q -281.75 -49.2 -282.25 -49.95 -282.8 -50.75 -282.95 -51.95 -282.95 -53.15 -283.05 -53.5 -283.1 -53.9 -283.4 -54.7
L -283.45 -55.75
Q -283.55 -56.15 -284.05 -57.1 -284.4677734375 -58.074609375 -284.5 -59.225 -284.523828125 -59.235546875 -284.55 -59.25 -284.8 -59.4 -285.65 -60.05 -286.3 -60.55 -286.75 -60.75 -287.35 -61 -288.35 -61 -289.65 -61.1 -290 -61.15 -293.2 -61.8 -294.9 -66.45 -296 -69.25 -295.4 -71.1 -294.95 -72.4 -293.15 -74.5 -292.55 -75.5 -292.45 -76.45 -292.35 -77.55 -293 -78.25 -293.35 -78.65 -294.15 -79.05 -295.05 -79.5 -295.35 -79.75 -296.6 -80.8 -296.5 -83.85
L -296.15 -95.65
Q -296.1357421875 -96.2146484375 -296.1 -96.725 -296.2658203125 -96.94375 -296.4 -97.2 -297.115625 -98.4720703125 -296.475 -100 Z
M -182.15 -7
L -183 -7.5
Q -183.85 -7.95 -184.35 -8.75 -184.55 -9.05 -185 -9.8 -185.35 -10.45 -185.8 -10.7
L -186.75 -11.1
Q -187.15 -11.25 -188.05 -12.15
L -189.65 -13.8
Q -190.15 -14.35 -190.6 -14.55 -190.75 -14.6 -191.7 -14.6 -191.9748046875 -14.6 -192.25 -14.65 -192.465234375 -14.5212890625 -192.75 -14.45 -193.15 -14.35 -194.3 -14.6 -194.95 -14.7 -195.2 -14.9
L -195.55 -15.2
Q -195.75 -15.35 -197 -15.5 -197.5 -15.6 -197.85 -15.8
L -198.3 -16.15
Q -198.55 -16.35 -199.25 -16.35 -200.45 -16.35 -200.9 -16.65 -201.772265625 -17.2009765625 -201.55 -18.125 -202.6935546875 -17.8873046875 -204.4 -18.7 -205.25 -19.1 -205.55 -19.55 -205.8 -19.95 -205.75 -20.4 -205.7 -20.9 -205.4 -21.25 -205.05 -21.65 -204.05 -21.95 -202.95 -22.25 -202 -22.4
L -197 -22.55
Q -195.5 -22.55 -194.75 -22.45 -194.05 -22.35 -192.75 -21.95
L -190.5 -21.2
Q -189.6 -20.9 -189.15 -20.6 -188.45 -19.9 -188.75 -19.3 -187.9 -19.15 -186.95 -18.3 -185.95 -17.25 -185.45 -16.8 -184.45 -16.05 -183.95 -15.65 -183.1 -14.95 -182.8 -14.25 -182.45 -13.1 -182.15 -12.65 -181.95 -12.4 -180.9 -11.55 -180.7 -11.4 -179.25 -9.95 -177.7 -8.2 -177.8 -6.95 -177.85 -6.35 -178.3 -5.85 -178.75 -5.35 -179.35 -5.2 -180.7 -4.85 -181.55 -6.05 -181.75 -6.35 -182.15 -7 Z
M -183.7 -4.55
Q -183.3 -4 -183.5 -3.3 -183.7 -2.6 -184.3 -2.35 -185.05 -1.95 -186.2 -2.45 -187.2 -2.9 -187.25 -3.55 -188.1 -3.4 -188.7 -3.85 -189.35 -4.45 -189.3 -5.2 -189.25 -6 -188.35 -6.55 -187.65 -6.95 -186.75 -6.85 -185.15 -6.85 -184.5 -5.8
L -184.15 -5.1
Q -183.85 -4.75 -183.7 -4.55 Z
M -152.8 -6.15
L -151.8 -7.05
Q -151.2 -7.4 -150.45 -7.25 -149.65 -7.1 -149.3 -6.55 -148.9 -5.95 -149.05 -5.2 -149.2 -4.4 -149.75 -4 -149.9 -3.9 -150.55 -3.6 -151.05 -3.35 -151.3 -3.05 -151.55 -2.75 -151.6 -2 -151.7 -1.2 -151.9 -0.9 -152.35 -0.2 -153.6 -0.2 -154.55 -0.2 -154.7 -0.2 -155.3 -0.1 -155.6 0.2 -155.9 0.55 -156.05 1.45 -156.55 2.65 -158.55 3.05 -161.95 3.85 -165.35 3.15 -165.45234375 3.128125 -165.55 3.1 -165.943359375 3.65 -166.7 3.65 -167.15 3.7 -167.55 3.4 -168 3.1 -168.1 2.65 -168.2 2.3 -168.25 2.25 -168.4 2.1 -168.8 2 -169.5 1.75 -169.65 1.1 -169.7 1 -169.8 0.55 -169.85 0.15 -170 0 -170.75 0.1 -171.4 -0.2
L -171.85 -0.45
Q -172.1 -0.55 -172.55 -0.7 -172.7837890625 -0.8001953125 -172.95 -1.025 -173.2568359375 -0.8537109375 -173.6 -0.65 -175.1 0 -176.2 -0.7 -176.8 -1.1 -176.95 -1.8 -177.1 -2.55 -176.6 -3.05 -176.35 -3.3 -175.9 -3.45 -175.3 -3.6 -175.05 -3.7 -174.7 -3.8 -173.5 -4.55 -172 -5.5 -170.4 -5.5 -168.5 -5.5 -167.55 -4.15 -166.95 -3 -166.6 -2.45 -165.8 -1.45 -165.45 -0.9 -165.15 -0.4 -165 -0.25 -164.55 0.2 -163.6 0.25 -162.55 0.25 -162.05 0.3 -162.45 -1.45 -161 -2.8 -159.75 -4 -157.8 -3.9 -156.9 -3.8 -156.45 -3.8 -155.7 -3.8 -155.25 -4.1 -154.95 -4.3 -154.55 -4.8 -154.1 -5.35 -153.85 -5.55
L -152.8 -6.15 Z
M -124.5 -71.6
Q -124.6 -71.95 -124.4 -72.3 -124.3001953125 -72.5330078125 -124.1 -72.65 -123.466796875 -73.784375 -122.7 -74.1 -122.15 -74.35 -121.5 -74.15 -120.9 -73.95 -120.7 -73.4 -120.5 -73.55 -120.05 -73.6 -119.55 -73.7 -119.4 -73.8 -118.9 -74 -118.1 -75.15
L -117.05 -76.45
Q -116.8 -76.8 -116.5 -76.95 -115.8 -77.2 -115.25 -76.55 -114.9 -76.15 -114.7 -75.35 -114.4 -74.25 -114.05 -73.9 -113.15 -73.25 -112.95 -72.75 -112.9 -72 -112.75 -71.65 -112.7 -71.5 -112.15 -70.95 -111.25 -70.3 -111.1 -70.25 -110.25 -70.1 -109.9 -69.95 -109 -69.7 -108.95 -69.7 -108.75 -69.7 -108.4 -69.85 -108 -70.05 -107.85 -70.05 -107.4 -70.05 -107 -69.55
L -106.45 -68.75
Q -105.7 -68 -105.35 -67.6 -104.75 -66.65 -105.3 -66.1 -105.6 -65.85 -106.35 -65.65 -106.65 -65.55 -107.1 -65.15 -107.65 -64.8 -108.7 -64.7 -110.25 -64.6 -111.6 -64.9 -112.5 -65.1 -113.4 -65.5 -114.1 -65.8 -115.4 -66.6
L -116.55 -67.4
Q -116.9 -67.7 -117.6 -68.35 -118.25 -68.9 -118.8 -69.1 -119.45 -69.4 -120.65 -69.45 -122.25 -69.5 -122.55 -69.55 -123.7 -69.75 -123.7 -70.5 -124.3 -70.4 -124.5 -71.25 -124.518359375 -71.378125 -124.5 -71.575
L -124.5 -71.6 Z"/>
</defs>

<g transform="matrix( 0.2252960205078125, 0, 0, 0.2252960205078125, 35,35) ">
<g transform="matrix( 1, 0, 0, 1, 210.85,-16.3) ">
<use xlink:href="#MUNDO_0_Layer0_0_FILL"/>

<use xlink:href="#MUNDO_0_Layer0_0_1_STROKES"/>
</g>

<g transform="matrix( 1, 0, 0, 1, 210.85,-16.3) ">
<use xlink:href="#MUNDO_0_Layer0_0_MEMBER_0_FILL"/>
</g>

<g transform="matrix( 1, 0, 0, 1, 210.85,-16.3) ">
<use xlink:href="#MUNDO_0_Layer0_0_MEMBER_1_1_STROKES"/>
</g>
</g>
</svg>
