
<svg xmlns="http://www.w3.org/2000/svg" version="1.1" xmlns:xlink="http://www.w3.org/1999/xlink" preserveAspectRatio="none" x="0px" y="0px" width="310px" height="110px" viewBox="0 0 310 110">
<defs>
<g id="psc_logo_0_Layer0_0_FILL">
<path fill="#068107" stroke="none" d="
M 106.2 54.7
L 143.6 69.65 143.6 39.75 106.2 54.7
M -10.35 149.45
L -19.95 153.25 -6.9 158.45 -6.9 150.85 -10.35 149.45
M -33.4 147.9
L -23.9 144.1 -33.45 140.3 -33.45 147.9 -33.4 147.9
M -100.35 57
L -139.9 41.2 -139.9 117.1 -100.35 101.35 -100.35 57
M -139.9 -37.75
L -139.9 -4.55 -98.3 -21.15 -139.9 -37.75
M 2.55 -61.4
L 44.2 -78.05 44.2 -155.3 -94.2 -100.05 2.55 -61.4 Z"/>

<path fill="#069D0A" stroke="none" d="
M -40 111
L -20 119 0 126.95 143.6 69.65 106.2 54.7 0 97.05 -2.55 96.05 -40 111
M -98.3 -21.15
L -139.9 -4.55 -40.2 35.25 -40.2 2.05 -98.3 -21.15
M 185.35 -22.7
L 144.55 -39 42 1.95 42.05 34.55 185.35 -22.7 Z"/>

<path fill="#3EEB3D" stroke="none" d="
M -6.9 143.05
L -19.95 137.85 -20 137.85 -20 145.65 -10.35 149.45 -6.9 150.85 -6.9 158.45 -19.95 153.25 -20 153.25 -20 165 0 172.95 0 126.95 -20 119 -20 130.2 -10.35 134.05 -6.9 135.4 -6.9 143.05
M -40 111
L -40 122.2 -30.4 126.05 -26.9 127.45 -26.9 135.1 -40 129.85 -40 157 -20 165 -20 153.25 -33.4 147.9 -33.45 147.9 -33.45 140.3 -23.9 144.1 -20 145.65 -20 137.85 -20 130.2 -20 119 -40 111
M 44.2 -155.3
L 0 -172.95 -185.35 -98.95 -183.85 -98.35 0 -24.95 184.15 -98.5 185.35 -98.95 141.15 -116.6 2.8 -61.3 2.55 -61.4 -94.2 -100.05 44.2 -155.3 Z"/>

<path fill="#069106" stroke="none" d="
M -10.35 134.05
L -19.95 137.85 -6.9 143.05 -6.9 135.4 -10.35 134.05
M -26.9 127.45
L -30.4 126.05 -40 129.85 -26.9 135.1 -26.9 127.45
M -23.9 144.1
L -33.4 147.9 -20 153.25 -19.95 153.25 -10.35 149.45 -20 145.65 -23.9 144.1 Z"/>

<path fill="#06D705" stroke="none" d="
M -20 130.2
L -20 137.85 -19.95 137.85 -10.35 134.05 -20 130.2
M -183.85 -98.35
L -185.35 -98.95 -185.35 98.95 -139.9 117.1 -139.9 41.2 -100.35 57 -2.55 96.05 0 97.05 0 -24.95 -183.85 -98.35
M -139.9 -4.55
L -139.9 -37.75 -98.3 -21.15 -40.2 2.05 -40.2 35.25 -139.9 -4.55
M 185.35 -98.95
L 184.15 -98.5 0 -24.95 0 97.05 106.2 54.7 143.6 39.75 143.6 69.65 0 126.95 0 172.95 185.35 98.95 185.35 -22.7 42.05 34.55 42 1.95 144.55 -39 185.35 -55.3 185.35 -98.95 Z"/>
</g>

<g id="paleta_0_Layer0_0_FILL">
<path fill="#3EEB3D" stroke="none" d="
M 72.65 -102.7
Q 65.35 -110 55 -110 44.65 -110 37.3 -102.7 30 -95.35 30 -85 30 -74.65 37.3 -67.35 44.65 -60 55 -60 65.35 -60 72.65 -67.35 80 -74.65 80 -85 80 -95.35 72.65 -102.7 Z"/>
</g>

<g id="paleta_0_Layer0_1_FILL">
<path fill="#06D705" stroke="none" d="
M 72.65 -102.7
Q 65.35 -110 55 -110 44.65 -110 37.3 -102.7 30 -95.35 30 -85 30 -74.65 37.3 -67.35 44.65 -60 55 -60 65.35 -60 72.65 -67.35 80 -74.65 80 -85 80 -95.35 72.65 -102.7 Z"/>
</g>

<g id="paleta_0_Layer0_2_FILL">
<path fill="#069D0A" stroke="none" d="
M 72.65 -102.7
Q 65.35 -110 55 -110 44.65 -110 37.3 -102.7 30 -95.35 30 -85 30 -74.65 37.3 -67.35 44.65 -60 55 -60 65.35 -60 72.65 -67.35 80 -74.65 80 -85 80 -95.35 72.65 -102.7 Z"/>
</g>

<g id="paleta_0_Layer0_3_FILL">
<path fill="#068107" stroke="none" d="
M 72.65 -102.7
Q 65.35 -110 55 -110 44.65 -110 37.3 -102.7 30 -95.35 30 -85 30 -74.65 37.3 -67.35 44.65 -60 55 -60 65.35 -60 72.65 -67.35 80 -74.65 80 -85 80 -95.35 72.65 -102.7 Z"/>
</g>

<g id="paleta_0_Layer0_4_FILL">
<path fill="#83ED88" stroke="none" d="
M 72.65 -102.7
Q 65.35 -110 55 -110 44.65 -110 37.3 -102.7 30 -95.35 30 -85 30 -74.65 37.3 -67.35 44.65 -60 55 -60 65.35 -60 72.65 -67.35 80 -74.65 80 -85 80 -95.35 72.65 -102.7 Z"/>
</g>

<g id="paleta_0_Layer0_5_FILL">
<path fill="#5A708F" stroke="none" d="
M 72.65 -102.7
Q 65.35 -110 55 -110 44.65 -110 37.3 -102.7 30 -95.35 30 -85 30 -74.65 37.3 -67.35 44.65 -60 55 -60 65.35 -60 72.65 -67.35 80 -74.65 80 -85 80 -95.35 72.65 -102.7 Z"/>
</g>

<g id="paleta_0_Layer0_6_FILL">
<path fill="#374D6B" stroke="none" d="
M 72.65 -102.7
Q 65.35 -110 55 -110 44.65 -110 37.3 -102.7 30 -95.35 30 -85 30 -74.65 37.3 -67.35 44.65 -60 55 -60 65.35 -60 72.65 -67.35 80 -74.65 80 -85 80 -95.35 72.65 -102.7 Z"/>
</g>

<g id="paleta_0_Layer0_7_FILL">
<path fill="#05090D" stroke="none" d="
M 72.65 -102.7
Q 65.35 -110 55 -110 44.65 -110 37.3 -102.7 30 -95.35 30 -85 30 -74.65 37.3 -67.35 44.65 -60 55 -60 65.35 -60 72.65 -67.35 80 -74.65 80 -85 80 -95.35 72.65 -102.7 Z"/>
</g>

<g id="paleta_0_Layer0_8_FILL">
<path fill="#191F27" stroke="none" d="
M 72.65 -102.7
Q 65.35 -110 55 -110 44.65 -110 37.3 -102.7 30 -95.35 30 -85 30 -74.65 37.3 -67.35 44.65 -60 55 -60 65.35 -60 72.65 -67.35 80 -74.65 80 -85 80 -95.35 72.65 -102.7 Z"/>
</g>

<g id="paleta_0_Layer0_9_FILL">
<path fill="#88A0C2" stroke="none" d="
M 72.65 -102.7
Q 65.35 -110 55 -110 44.65 -110 37.3 -102.7 30 -95.35 30 -85 30 -74.65 37.3 -67.35 44.65 -60 55 -60 65.35 -60 72.65 -67.35 80 -74.65 80 -85 80 -95.35 72.65 -102.7 Z"/>
</g>

<path id="psc_logo_0_Layer0_0_1_STROKES" stroke="#83ED88" stroke-width="1" stroke-linejoin="round" stroke-linecap="round" fill="none" d="
M -183.85 -98.35
L 0 -24.95 184.15 -98.475
M 0 -24.95
L 0 97.05"/>

<path id="psc_logo_0_Layer0_0_2_STROKES" stroke="#069D0A" stroke-width="1" stroke-linejoin="round" stroke-linecap="round" fill="none" d="
M 0 172.95
L -20 165 -40 157 -40 129.85 -30.4 126.05 -40 122.2 -40 111 -2.55 96.05
M -98.3 -21.15
L -40.2 2.05 -40.2 35.25 -139.9 -4.55 -98.3 -21.15 Z
M -23.9 144.1
L -33.45 140.3 -33.45 147.9 -33.4 147.9 -20 153.25 -19.95 153.25
M -10.35 149.45
L -20 145.65 -23.9 144.1
M -30.4 126.05
L -26.9 127.45 -26.9 135.1 -40 129.85
M -20 130.2
L -20 119 -40 111
M -19.95 137.85
L -10.35 134.05 -20 130.2
M -10.35 134.05
L -6.9 135.4 -6.9 143.05 -19.95 137.85 -20 137.85 -20 145.65
M -20 153.25
L -20 165
M -10.35 149.45
L -6.9 150.85 -6.9 158.45 -19.95 153.25
M 106.2 54.7
L 143.6 69.65 0 126.95 0 172.95
M 0 126.95
L -20 119"/>

<path id="psc_logo_0_Layer0_0_3_STROKES" stroke="#06D705" stroke-width="1" stroke-linejoin="round" stroke-linecap="round" fill="none" d="
M -100.35 57
L -2.55 96.05
M 106.2 54.7
L 0 97.05 -2.55 96.05
M 106.2 54.7
L 143.6 39.75 143.6 69.65"/>
</defs>

<g transform="matrix( 1, 0, 0, 1, 1466.15,593.55) ">
<g transform="matrix( 1, 0, 0, 1, 0,0) ">
<use xlink:href="#psc_logo_0_Layer0_0_FILL"/>

<use xlink:href="#psc_logo_0_Layer0_0_1_STROKES"/>

<use xlink:href="#psc_logo_0_Layer0_0_2_STROKES"/>

<use xlink:href="#psc_logo_0_Layer0_0_3_STROKES"/>
</g>
</g>

<g transform="matrix( 0.791046142578125, 0, 0, 0.791046142578125, 155,55.05) ">
<g transform="matrix( 1, 0, 0, 1, -115,53.1) ">
<use xlink:href="#paleta_0_Layer0_0_FILL"/>
</g>

<g transform="matrix( 1, 0, 0, 1, -52.5,53.1) ">
<use xlink:href="#paleta_0_Layer0_1_FILL"/>
</g>

<g transform="matrix( 1, 0, 0, 1, 10,53.1) ">
<use xlink:href="#paleta_0_Layer0_2_FILL"/>
</g>

<g transform="matrix( 1, 0, 0, 1, 70,53.1) ">
<use xlink:href="#paleta_0_Layer0_3_FILL"/>
</g>

<g transform="matrix( 1, 0, 0, 1, -180,53.1) ">
<use xlink:href="#paleta_0_Layer0_4_FILL"/>
</g>

<g transform="matrix( 1, 0, 0, 1, -115,116.9) ">
<use xlink:href="#paleta_0_Layer0_5_FILL"/>
</g>

<g transform="matrix( 1, 0, 0, 1, -52.5,116.9) ">
<use xlink:href="#paleta_0_Layer0_6_FILL"/>
</g>

<g transform="matrix( 1, 0, 0, 1, 70,116.9) ">
<use xlink:href="#paleta_0_Layer0_7_FILL"/>
</g>

<g transform="matrix( 1, 0, 0, 1, 10,116.9) ">
<use xlink:href="#paleta_0_Layer0_8_FILL"/>
</g>

<g transform="matrix( 1, 0, 0, 1, -180,116.9) ">
<use xlink:href="#paleta_0_Layer0_9_FILL"/>
</g>
</g>

<g transform="matrix( 1, 0, 0, 1, 115,-121.9) ">
<g transform="matrix( 1, 0, 0, 1, -115,53.1) ">
<use xlink:href="#paleta_0_Layer0_0_FILL"/>
</g>

<g transform="matrix( 1, 0, 0, 1, -52.5,53.1) ">
<use xlink:href="#paleta_0_Layer0_1_FILL"/>
</g>

<g transform="matrix( 1, 0, 0, 1, 10,53.1) ">
<use xlink:href="#paleta_0_Layer0_2_FILL"/>
</g>

<g transform="matrix( 1, 0, 0, 1, 70,53.1) ">
<use xlink:href="#paleta_0_Layer0_3_FILL"/>
</g>

<g transform="matrix( 1, 0, 0, 1, -180,53.1) ">
<use xlink:href="#paleta_0_Layer0_4_FILL"/>
</g>

<g transform="matrix( 1, 0, 0, 1, -115,116.9) ">
<use xlink:href="#paleta_0_Layer0_5_FILL"/>
</g>

<g transform="matrix( 1, 0, 0, 1, -52.5,116.9) ">
<use xlink:href="#paleta_0_Layer0_6_FILL"/>
</g>

<g transform="matrix( 1, 0, 0, 1, 70,116.9) ">
<use xlink:href="#paleta_0_Layer0_7_FILL"/>
</g>

<g transform="matrix( 1, 0, 0, 1, 10,116.9) ">
<use xlink:href="#paleta_0_Layer0_8_FILL"/>
</g>

<g transform="matrix( 1, 0, 0, 1, -180,116.9) ">
<use xlink:href="#paleta_0_Layer0_9_FILL"/>
</g>
</g>
</svg>
