
<svg xmlns="http://www.w3.org/2000/svg" version="1.1" xmlns:xlink="http://www.w3.org/1999/xlink" preserveAspectRatio="none" x="0px" y="0px" width="334px" height="141px" viewBox="0 0 334 141">
<defs>
<g id="psc_logo_0_Layer0_0_FILL">
<path fill="#068107" stroke="none" d="
M 106.2 54.7
L 143.6 69.65 143.6 39.75 106.2 54.7
M -19.95 153.25
L -6.9 158.45 -6.9 150.85 -10.35 149.45 -19.95 153.25
M -23.9 144.1
L -33.45 140.3 -33.45 147.9 -33.4 147.9 -23.9 144.1
M -100.35 57
L -139.9 41.2 -139.9 117.1 -100.35 101.35 -100.35 57
M -139.9 -37.75
L -139.9 -4.55 -98.3 -21.15 -139.9 -37.75
M 2.55 -61.4
L 44.2 -78.05 44.2 -155.3 -94.2 -100.05 2.55 -61.4 Z"/>

<path fill="#069D0A" stroke="none" d="
M -40 111
L -20 119 0 126.95 143.6 69.65 106.2 54.7 0 97.05 -2.55 96.05 -40 111
M -98.3 -21.15
L -139.9 -4.55 -40.2 35.25 -40.2 2.05 -98.3 -21.15
M 185.35 -22.7
L 144.55 -39 42 1.95 42.05 34.55 185.35 -22.7 Z"/>

<path fill="#069106" stroke="none" d="
M -19.95 137.85
L -6.9 143.05 -6.9 135.4 -10.35 134.05 -19.95 137.85
M -26.9 127.45
L -30.4 126.05 -40 129.85 -26.9 135.1 -26.9 127.45
M -23.9 144.1
L -33.4 147.9 -20 153.25 -19.95 153.25 -10.35 149.45 -20 145.65 -23.9 144.1 Z"/>

<path fill="#06D705" stroke="none" d="
M -10.35 134.05
L -20 130.2 -20 137.85 -19.95 137.85 -10.35 134.05
M -183.85 -98.35
L -185.35 -98.95 -185.35 98.95 -139.9 117.1 -139.9 41.2 -100.35 57 -2.55 96.05 0 97.05 0 -24.95 -183.85 -98.35
M -139.9 -4.55
L -139.9 -37.75 -98.3 -21.15 -40.2 2.05 -40.2 35.25 -139.9 -4.55
M 185.35 -55.3
L 185.35 -98.95 184.15 -98.5 0 -24.95 0 97.05 106.2 54.7 143.6 39.75 143.6 69.65 0 126.95 0 172.95 185.35 98.95 185.35 -22.7 42.05 34.55 42 1.95 144.55 -39 185.35 -55.3 Z"/>

<path fill="#3EEB3D" stroke="none" d="
M -20 130.2
L -10.35 134.05 -6.9 135.4 -6.9 143.05 -19.95 137.85 -20 137.85 -20 145.65 -10.35 149.45 -6.9 150.85 -6.9 158.45 -19.95 153.25 -20 153.25 -20 165 0 172.95 0 126.95 -20 119 -20 130.2
M -40 111
L -40 122.2 -30.4 126.05 -26.9 127.45 -26.9 135.1 -40 129.85 -40 157 -20 165 -20 153.25 -33.4 147.9 -33.45 147.9 -33.45 140.3 -23.9 144.1 -20 145.65 -20 137.85 -20 130.2 -20 119 -40 111
M 44.2 -155.3
L 0 -172.95 -185.35 -98.95 -183.85 -98.35 0 -24.95 184.15 -98.5 185.35 -98.95 141.15 -116.6 2.8 -61.3 2.55 -61.4 -94.2 -100.05 44.2 -155.3 Z"/>
</g>

<g id="iso_0_Layer0_0_FILL">
<path fill="#C1F6C4" stroke="none" d="
M 65.8 8.55
L 65.8 0.8 57.1 0.8 57.1 3.4 63.2 3.4 63.2 6 57.1 6 57.15 13.7 65.8 13.7 65.8 11.15 59.5 11.15 59.5 8.55 65.8 8.55
M 74 8.55
L 74 11.15 67.9 11.15 67.9 13.7 76.6 13.7 76.6 0.8 67.9 0.8 67.9 3.4 74 3.4 74 6 67.9 6 67.9 8.55 74 8.55
M -22.2 -13.75
L -48.7 -13.75 -48.7 13.7 -43.25 13.7 -43.25 2.2 -22.2 2.2 -22.2 -13.75
M -43.25 -3.25
L -43.25 -8.3 -27.65 -8.3 -27.65 -3.25 -43.25 -3.25
M 48.7 -8.3
L 48.7 -13.75 21.25 -13.75 21.25 13.7 48.7 13.7 48.7 8.25 26.7 8.25 26.7 -8.3 48.7 -8.3
M 12.75 -8.3
L 12.75 -13.75 -13.7 -13.75 -13.7 2.7 7.35 2.7 7.35 8.25 -13.7 8.25 -13.7 13.7 12.65 13.7 12.7 -2.75 -8.25 -2.75 -8.25 -8.3 12.75 -8.3 Z"/>
</g>

<path id="logoisoalt_0_Layer0_0_1_STROKES" stroke="#3EEB3D" stroke-width="2" stroke-linejoin="round" stroke-linecap="round" fill="none" d="
M -6.05 -40.1
L -6.05 40.15"/>

<path id="psc_logo_0_Layer0_0_1_STROKES" stroke="#83ED88" stroke-width="1" stroke-linejoin="round" stroke-linecap="round" fill="none" d="
M -183.85 -98.35
L 0 -24.95 184.15 -98.475
M 0 -24.95
L 0 97.05"/>

<path id="psc_logo_0_Layer0_0_2_STROKES" stroke="#069D0A" stroke-width="1" stroke-linejoin="round" stroke-linecap="round" fill="none" d="
M 0 172.95
L -20 165 -40 157 -40 129.85 -30.4 126.05 -40 122.2 -40 111 -2.55 96.05
M -98.3 -21.15
L -40.2 2.05 -40.2 35.25 -139.9 -4.55 -98.3 -21.15 Z
M -33.4 147.9
L -33.45 147.9 -33.45 140.3 -23.9 144.1 -20 145.65 -20 137.85
M -20 130.2
L -20 119 -40 111
M -30.4 126.05
L -26.9 127.45 -26.9 135.1 -40 129.85
M -20 130.2
L -10.35 134.05 -6.9 135.4 -6.9 143.05 -19.95 137.85 -20 137.85
M -19.95 137.85
L -10.35 134.05
M -19.95 153.25
L -20 153.25 -20 165
M -10.35 149.45
L -6.9 150.85 -6.9 158.45 -19.95 153.25
M -20 145.65
L -10.35 149.45
M -20 153.25
L -33.4 147.9
M 106.2 54.7
L 143.6 69.65 0 126.95 0 172.95
M 0 126.95
L -20 119"/>

<path id="psc_logo_0_Layer0_0_3_STROKES" stroke="#06D705" stroke-width="1" stroke-linejoin="round" stroke-linecap="round" fill="none" d="
M -100.35 57
L -2.55 96.05
M 106.2 54.7
L 0 97.05 -2.55 96.05
M 106.2 54.7
L 143.6 39.75 143.6 69.65"/>
</defs>

<g transform="matrix( 1, 0, 0, 1, 167.05,70.5) ">
<g transform="matrix( 1, 0, 0, 1, 0,0) ">
<use xlink:href="#logoisoalt_0_Layer0_0_1_STROKES"/>
</g>

<g transform="matrix( 0.3039703369140625, 0, 0, 0.303924560546875, -92.1,0) ">
<g transform="matrix( 1, 0, 0, 1, 0,0) ">
<use xlink:href="#psc_logo_0_Layer0_0_FILL"/>

<use xlink:href="#psc_logo_0_Layer0_0_1_STROKES"/>

<use xlink:href="#psc_logo_0_Layer0_0_2_STROKES"/>

<use xlink:href="#psc_logo_0_Layer0_0_3_STROKES"/>
</g>
</g>

<g transform="matrix( 1, 0, 0, 1, 71.8,21.25) ">
<g transform="matrix( 1, 0, 0, 1, 0,0) ">
<use xlink:href="#iso_0_Layer0_0_FILL"/>
</g>
</g>

<g transform="matrix( 0.6536712646484375, 0, 0, 0.6526031494140625, 23.95,-33.65) ">
<clipPath id="Mask_Mask_1">
<rect x="-2" y="-2" width="101" height="55.25" fill="#FFFFFF" stroke="none"/>
</clipPath>

<text clip-path="url(#Mask_Mask_1)" writing-mode="lr"><tspan x="0" y="12.9" baseline-shift="0%" font-family="Century Gothic" font-weight="bold" font-size="13" fill="#C1F6C4" xml:space="preserve">PROFESSIONAL  </tspan><tspan x="0" y="30.65" baseline-shift="0%" font-family="Century Gothic" font-weight="bold" font-size="13" fill="#C1F6C4" xml:space="preserve">SERVICES </tspan><tspan x="0" y="48.4" baseline-shift="0%" font-family="Century Gothic" font-weight="bold" font-size="13" fill="#C1F6C4" xml:space="preserve">COMPANY</tspan></text>
</g>
</g>
</svg>
