
<svg xmlns="http://www.w3.org/2000/svg" version="1.1" xmlns:xlink="http://www.w3.org/1999/xlink" preserveAspectRatio="none" x="0px" y="0px" width="316px" height="125px" viewBox="0 0 316 125">
<defs>
<g id="Layer0_0_FILL">
<path fill="#3EEB3D" stroke="none" d="
M 65.95 115.05
L 65.95 101.1 53.8 96.25 53.8 99.65 56.7 100.8 57.75 101.25 57.75 103.55 53.8 101.95 53.8 110.2 65.95 115.05
M 62.8 107.9
L 63.85 108.35 63.85 110.65 59.9 109.1 59.85 109.1 55.8 107.45 55.8 105.15 58.7 106.3 62.8 107.9
M 62.8 103.25
L 63.85 103.65 63.85 106 59.9 104.4 59.85 104.4 59.85 102.05 62.8 103.25
M 120.65 33.1
L 122.3 32.45 108.85 27.05 66.8 43.85 66.75 43.85 37.3 32.1 79.4 15.3 65.95 9.95 9.6 32.45 11.4 33.15 65.95 54.9 120.65 33.1 Z"/>

<path fill="#06D705" stroke="none" d="
M 59.85 104.4
L 59.9 104.4 62.8 103.25 59.85 102.05 59.85 104.4
M 122.3 45.7
L 122.3 32.45 120.65 33.1 65.95 54.9 65.95 92 98.25 79.1 109.6 74.6 109.6 83.65 65.95 101.1 65.95 115.05 122.3 92.55 122.3 55.6 78.75 73 78.7 63.1 109.9 50.65 122.3 45.7
M 11.4 33.15
L 9.6 32.45 9.6 92.55 23.4 98.1 23.4 75 35.45 79.8 65.15 91.7 65.95 92 65.95 54.9 11.4 33.15
M 23.4 51.05
L 36.05 56.05 53.75 63.1 53.75 73.2 23.4 61.1 23.4 51.05 Z"/>

<path fill="#069106" stroke="none" d="
M 63.85 103.65
L 62.8 103.25 59.9 104.4 63.85 106 63.85 103.65
M 55.8 107.45
L 59.85 109.1 59.9 109.1 62.8 107.9 58.7 106.3 55.8 107.45
M 57.75 103.55
L 57.75 101.25 56.7 100.8 53.8 101.95 57.75 103.55 Z"/>

<path fill="#068107" stroke="none" d="
M 55.8 107.45
L 58.7 106.3 55.8 105.15 55.8 107.45
M 63.85 108.35
L 62.8 107.9 59.9 109.1 63.85 110.65 63.85 108.35
M 23.4 61.1
L 36.05 56.05 23.4 51.05 23.4 61.1
M 98.25 79.1
L 109.6 83.65 109.6 74.6 98.25 79.1
M 23.4 75
L 23.4 98.1 35.45 93.3 35.45 79.8 23.4 75
M 79.4 38.8
L 79.4 15.3 37.3 32.1 66.75 43.85 79.4 38.8 Z"/>

<path fill="#069D0A" stroke="none" d="
M 109.6 83.65
L 98.25 79.1 65.95 92 65.15 91.7 53.8 96.25 65.95 101.1 109.6 83.65
M 36.05 56.05
L 23.4 61.1 53.75 73.2 53.75 63.1 36.05 56.05
M 122.3 55.6
L 109.9 50.65 78.7 63.1 78.75 73 122.3 55.6
M 221.6 81
L 221.6 75.45 242.6 75.45 242.6 70 216.15 70 216.15 86.45 237.2 86.45 237.2 92 216.15 92 216.15 97.45 242.5 97.45 242.55 81 221.6 81
M 181.15 97.45
L 186.6 97.45 186.6 85.95 207.65 85.95 207.65 70 181.15 70 181.15 97.45
M 202.2 80.5
L 186.6 80.5 186.6 75.45 202.2 75.45 202.2 80.5
M 297.75 89.75
L 297.75 92.3 303.85 92.3 303.85 94.9 297.75 94.9 297.75 97.45 306.45 97.45 306.45 84.55 297.75 84.55 297.75 87.15 303.85 87.15 303.85 89.75 297.75 89.75
M 289.35 94.9
L 289.35 92.3 295.65 92.3 295.65 84.55 286.95 84.55 286.95 87.15 293.05 87.15 293.05 89.75 286.95 89.75 287 97.45 295.65 97.45 295.65 94.9 289.35 94.9
M 278.55 70
L 251.1 70 251.1 97.45 278.55 97.45 278.55 92 256.55 92 256.55 75.45 278.55 75.45 278.55 70 Z"/>
</g>

<path id="Layer0_0_1_STROKES" stroke="#068107" stroke-width="2" stroke-linejoin="round" stroke-linecap="round" fill="none" d="
M 152 22.4
L 152 102.65"/>

<path id="Layer0_0_2_STROKES" stroke="#06D705" stroke-width="1" stroke-linejoin="round" stroke-linecap="round" fill="none" d="
M 98.25 79.1
L 109.6 74.6
M 65.15 91.7
L 65.95 92"/>

<path id="Layer0_0_3_STROKES" stroke="#069D0A" stroke-width="1" stroke-linejoin="round" stroke-linecap="round" fill="none" d="
M 53.8 96.25
L 65.15 91.7
M 65.95 101.1
L 109.6 83.65"/>

<path id="Layer0_0_4_STROKES" stroke="#83ED88" stroke-width="1" stroke-linejoin="round" stroke-linecap="round" fill="none" d="
M 120.65 33.1
L 65.95 54.9 65.95 92
M 65.95 54.9
L 11.4 33.15"/>

<path id="Layer0_2_1_STROKES" stroke="#06D705" stroke-width="1" stroke-linejoin="round" stroke-linecap="round" fill="none" d="
M 35.45 79.8
L 65.15 91.7"/>

<path id="Layer0_3_1_STROKES" stroke="#06D705" stroke-width="1" stroke-linejoin="round" stroke-linecap="round" fill="none" d="
M 65.95 92
L 98.25 79.1"/>

<path id="Layer0_4_1_STROKES" stroke="#06D705" stroke-width="1" stroke-linejoin="round" stroke-linecap="round" fill="none" d="
M 35.45 79.8
L 23.4 75 23.4 97.6"/>

<path id="Layer0_5_1_STROKES" stroke="#06D705" stroke-width="1" stroke-linejoin="round" stroke-linecap="round" fill="none" d="
M 109.6 74.6
L 109.6 86.75"/>

<path id="Layer0_6_1_STROKES" stroke="#06D705" stroke-width="1" stroke-linejoin="round" stroke-linecap="round" fill="none" d="
M 65.95 115.05
L 122.3 92.55 122.3 56.15"/>

<path id="Layer0_7_1_STROKES" stroke="#069D0A" stroke-width="1" stroke-linejoin="round" stroke-linecap="round" fill="none" d="
M 53.8 99.65
L 56.7 100.8 57.75 101.25 57.75 103.55 53.8 101.95 53.8 110.2 59.85 112.65 59.85 109.1 55.8 107.45 55.8 105.15 59.85 106.75 59.85 104.4 59.9 104.4 62.8 103.25 59.85 102.05 59.85 98.65 53.8 96.25 53.8 99.65 Z
M 59.85 98.65
L 65.95 101.1 65.95 115.05 59.85 112.65
M 59.85 106.75
L 63.85 108.35 63.85 110.65 59.9 109.1 59.85 109.1
M 62.8 103.25
L 63.85 103.65 63.85 106 59.9 104.4
M 53.8 101.95
L 56.7 100.8"/>
</defs>

<g transform="matrix( 1, 0, 0, 1, 0,0) ">
<use xlink:href="#Layer0_0_FILL"/>

<use xlink:href="#Layer0_0_1_STROKES"/>

<use xlink:href="#Layer0_0_2_STROKES"/>

<use xlink:href="#Layer0_0_3_STROKES"/>

<use xlink:href="#Layer0_0_4_STROKES"/>
</g>

<g transform="matrix( 0.6536712646484375, 0, 0, 0.6526031494140625, 182,28.85) ">
<clipPath id="Mask_Mask_1">
<rect x="-2" y="-2" width="101" height="55.25" fill="#FFFFFF" stroke="none"/>
</clipPath>

<text clip-path="url(#Mask_Mask_1)" writing-mode="lr"><tspan x="0" y="12.9" baseline-shift="0%" font-family="Century Gothic" font-weight="bold" font-size="13" fill="#191F27" xml:space="preserve">PROFESSIONAL </tspan><tspan x="0" y="30.65" baseline-shift="0%" font-family="Century Gothic" font-weight="bold" font-size="13" fill="#191F27" xml:space="preserve">SERVICES </tspan><tspan x="0" y="48.4" baseline-shift="0%" font-family="Century Gothic" font-weight="bold" font-size="13" fill="#191F27" xml:space="preserve">COMPANY</tspan></text>
</g>

<g transform="matrix( 1, 0, 0, 1, 0,0) ">
<use xlink:href="#Layer0_2_1_STROKES"/>
</g>

<g transform="matrix( 1, 0, 0, 1, 0,0) ">
<use xlink:href="#Layer0_3_1_STROKES"/>
</g>

<g transform="matrix( 1, 0, 0, 1, 0,0) ">
<use xlink:href="#Layer0_4_1_STROKES"/>
</g>

<g transform="matrix( 1, 0, 0, 1, 0,0) ">
<use xlink:href="#Layer0_5_1_STROKES"/>
</g>

<g transform="matrix( 1, 0, 0, 1, 0,0) ">
<use xlink:href="#Layer0_6_1_STROKES"/>
</g>

<g transform="matrix( 1, 0, 0, 1, 0,0) ">
<use xlink:href="#Layer0_7_1_STROKES"/>
</g>
</svg>
