
<svg xmlns="http://www.w3.org/2000/svg" version="1.1" xmlns:xlink="http://www.w3.org/1999/xlink" preserveAspectRatio="none" x="0px" y="0px" width="316px" height="316px" viewBox="0 0 316 316">
<defs>
<g id="reducirReciclarReutilizar_2_Layer0_0_FILL">
<path fill="#83ED88" stroke="none" d="
M 225.7 61.35
Q 225.7 59.4 224.55 58.35 223.45 57.3 221.4 57.3
L 217.05 57.3 217.05 70.8 219.75 70.8 219.75 65.85 221.15 65.85 223.15 70.8 226.1 70.8 226.1 70.65 223.7 65.15
Q 225.7 64.05 225.7 61.35
M 219.75 59.55
L 221.35 59.55
Q 222.95 59.55 222.95 61.6 222.95 62.5 222.55 63.05 222.15 63.6 221.3 63.6
L 219.75 63.6 219.75 59.55
M 235.2 59.55
L 235.2 57.3 227.5 57.3 227.5 70.8 235.25 70.8 235.25 68.55 230.2 68.55 230.2 64.95 234.45 64.95 234.45 62.75 230.2 62.75 230.2 59.55 235.2 59.55
M 291.5 58.35
Q 290.4 57.3 288.35 57.3
L 284 57.3 284 70.8 286.7 70.8 286.7 65.85 288.1 65.85 290.1 70.8 293.05 70.8 293.05 70.65 290.65 65.15
Q 292.65 64.05 292.65 61.35 292.65 59.4 291.5 58.35
M 288.3 59.55
Q 289.9 59.55 289.9 61.6 289.9 62.5 289.5 63.05 289.1 63.6 288.25 63.6
L 286.7 63.6 286.7 59.55 288.3 59.55
M 244.65 69.8
Q 245.85 68.6 245.95 66.3
L 243.2 66.3
Q 243.15 67.65 242.75 68.2 242.35 68.7 241.25 68.7 240.15 68.7 239.75 67.95 239.25 67.2 239.25 65.2
L 239.25 62.65
Q 239.3 60.9 239.75 60.15 240.2 59.35 241.3 59.35 242.4 59.35 242.8 59.9 243.2 60.45 243.2 61.9
L 245.95 61.9
Q 245.8 59.55 244.65 58.35 243.5 57.1 241.3 57.1 239.05 57.1 237.8 58.6 236.55 60.1 236.55 62.9
L 236.55 65.2
Q 236.55 67.95 237.75 69.5 238.95 71 241.25 71 243.45 71 244.65 69.8
M 250.45 57.3
L 247.7 57.3 247.7 70.8 250.45 70.8 250.45 57.3
M 257.25 57.1
Q 255 57.1 253.75 58.6 252.5 60.1 252.5 62.9
L 252.5 65.2
Q 252.5 67.95 253.7 69.5 254.9 71 257.2 71 259.4 71 260.6 69.8 261.8 68.6 261.9 66.3
L 259.15 66.3
Q 259.1 67.65 258.7 68.2 258.3 68.7 257.2 68.7 256.1 68.7 255.7 67.95 255.2 67.2 255.2 65.2
L 255.2 62.65
Q 255.25 60.9 255.7 60.15 256.15 59.35 257.25 59.35 258.35 59.35 258.75 59.9 259.15 60.45 259.15 61.9
L 261.9 61.9
Q 261.75 59.55 260.6 58.35 259.45 57.1 257.25 57.1
M 266.25 57.3
L 263.55 57.3 263.55 70.8 271.05 70.8 271.05 68.55 266.25 68.55 266.25 57.3
M 278.45 57.3
L 276 57.3 271.75 70.8 274.65 70.8 275.35 68.05 279.1 68.05 279.8 70.8 282.7 70.8 278.45 57.3
M 278.5 65.75
L 275.95 65.75 277.2 60.95 278.5 65.75 Z"/>
</g>

<g id="reducirReciclarReutilizar_2_Layer0_0_MEMBER_0_FILL">
<path fill="#83ED88" stroke="none" d="
M 253.3 16
L 253.85 4.7
Q 250.45 4.6 246.9 4.45 239.75 4.1 238.9 4.6 236.4 9.3 237.4 12.25 238.2 14.6 240.9 15.15 243.9 15.45 248.9 15.75 251.4 15.9 253.3 16
M 275.5 9
Q 276.95 5.9 278.8 2.45 274.5 4.35 269.1 4.5 267.4 4.55 265.55 4.4 264 4.3 263.7 4.3 263.65 3.65 263.5 1.45
L 263.4 -0.65 257.5 10 264.6 20.4 264.25 15.7 267.1 15.5
Q 270.2 15.3 271.25 15 272.3 14.55 272.75 14.15 273.25 13.7 273.85 12.5 274.7 10.6 275.5 9
M 273.7 -15.35
L 264.05 -9.1
Q 265.95 -6.4 267.9 -3.45 271.85 2.4 272 2.55 278.1 1.95 279.95 -0.55 281.4 -2.55 280.3 -5 278.75 -7.55 276.1 -11.7 274.75 -13.75 273.7 -15.35
M 266.5 -28.35
Q 265.65 -29.1 265.05 -29.35 264.45 -29.55 263.1 -29.55 260.95 -29.5 259.15 -29.5 255.65 -29.45 251.7 -29.6 255.25 -26.65 257.75 -21.9 258.55 -20.45 259.2 -18.8 259.75 -17.35 259.9 -17.1 259.3 -16.75 257.35 -15.7
L 255.5 -14.7 267.85 -14.1 274.35 -24.85 270.2 -22.45 268.8 -24.95
Q 267.25 -27.55 266.5 -28.35
M 239.5 -21
Q 238.15 -18.9 237.15 -17.35
L 247.1 -11.5
Q 248.8 -14.35 250.65 -17.35 254.3 -23.35 254.7 -23.35 251.2 -28.7 248.1 -29.25 245.65 -29.65 243.8 -27.6 242.15 -25.15 239.5 -21
M 241.6 -12.3
L 228.8 -12.75 232.95 -10.3 231.35 -7.9
Q 229.75 -5.35 229.35 -4.35 229.1 -3.25 229.2 -2.65 229.25 -2 229.9 -0.85 230.95 1 231.85 2.55 233.5 5.55 235.3 9 236.25 4.5 239.35 0.15 240.3 -1.25 241.45 -2.6 242.5 -3.75 242.65 -3.95 243.2 -3.65 245.1 -2.45
L 246.9 -1.35 241.6 -12.3 Z"/>
</g>

<g id="reducirReciclarReutilizar_2_Layer0_0_MEMBER_1_FILL">
<path fill="#83ED88" stroke="none" d="
M 361.7 151.75
Q 347.996484375 165.5291015625 348 185 347.9953125 204.4845703125 361.7 218.2 375.5162109375 232.00546875 395 232 414.4671875 231.99375 428.2 218.2
L 428.2 218.2
Q 441.99375 204.4671875 442 185 442.00546875 165.5162109375 428.2 151.7 414.4845703125 137.9953125 395 138 375.5291015625 137.996484375 361.75 151.7
L 361.7 151.75
M 364.55 154.55
L 364.55 154.55
Q 377.1884765625 142.003515625 395 142 412.815234375 142.0044921875 425.35 154.55 437.994140625 167.1833984375 438 185 438.0060546875 202.8150390625 425.4 215.35
L 425.35 215.4
Q 412.8150390625 228.0060546875 395 228 377.1833984375 227.994140625 364.55 215.35 352.0044921875 202.815234375 352 185 352.003515625 167.1884765625 364.55 154.55 Z"/>
</g>
</defs>

<g transform="matrix( 2.204254150390625, 0, 0, 2.204254150390625, 157.95,157.95) ">
<g transform="matrix( 1, 0, 0, 1, -254.75,-9.75) ">
<use xlink:href="#reducirReciclarReutilizar_2_Layer0_0_FILL"/>
</g>

<g transform="matrix( 1, 0, 0, 1, -254.75,-9.75) ">
<use xlink:href="#reducirReciclarReutilizar_2_Layer0_0_MEMBER_0_FILL"/>
</g>

<g transform="matrix( 0.967071533203125, 0, 0, 0.966522216796875, -382,-194.6) ">
<use xlink:href="#reducirReciclarReutilizar_2_Layer0_0_MEMBER_1_FILL"/>
</g>
</g>
</svg>
