
<svg xmlns="http://www.w3.org/2000/svg" version="1.1" xmlns:xlink="http://www.w3.org/1999/xlink" preserveAspectRatio="none" x="0px" y="0px" width="492px" height="492px" viewBox="0 0 492 492">
<defs>
<radialGradient id="Gradient_1" gradientUnits="userSpaceOnUse" cx="0" cy="0" r="208.06989510738933" fx="0.4561764705882352" fy="2.405" gradientTransform="matrix( -0.1863556473654557, -0.9824823523580473, 1.306952646175206, -0.2477532848920501, -60.05,-119.6) " spreadMethod="pad">
<stop  offset="0%" stop-color="#BBEE76"/>

<stop  offset="9.411764705882353%" stop-color="#92D534"/>

<stop  offset="24.313725490196077%" stop-color="#73C101"/>

<stop  offset="100%" stop-color="#276301"/>
</radialGradient>

<linearGradient id="Gradient_2" gradientUnits="userSpaceOnUse" x1="-149.0875" y1="12.274999999999991" x2="114.7875" y2="191.22500000000002" spreadMethod="pad">
<stop  offset="0%" stop-color="#276301"/>

<stop  offset="55.294117647058826%" stop-color="#73C101"/>

<stop  offset="82.3529411764706%" stop-color="#BBEE76"/>

<stop  offset="96.86274509803921%" stop-color="#8EB149"/>
</linearGradient>

<radialGradient id="Gradient_3" gradientUnits="userSpaceOnUse" cx="0" cy="0" r="208.1023249659888" fx="-1.5763725490196079" fy="-0.4231372549019609" gradientTransform="matrix( 0.9658109299492372, 0.25924746400030524, -0.3450225748882653, 1.2848847317957668, -164,147.95) " spreadMethod="pad">
<stop  offset="0%" stop-color="#BBEE76"/>

<stop  offset="9.411764705882353%" stop-color="#92D534"/>

<stop  offset="21.568627450980394%" stop-color="#73C101"/>

<stop  offset="100%" stop-color="#276301"/>
</radialGradient>

<linearGradient id="Gradient_4" gradientUnits="userSpaceOnUse" x1="-243.87499999999997" y1="10.437499999999986" x2="-519.925" y2="170.16250000000002" spreadMethod="pad">
<stop  offset="0%" stop-color="#276301"/>

<stop  offset="55.294117647058826%" stop-color="#73C101"/>

<stop  offset="82.3529411764706%" stop-color="#BBEE76"/>

<stop  offset="96.86274509803921%" stop-color="#8EB149"/>
</linearGradient>

<radialGradient id="Gradient_5" gradientUnits="userSpaceOnUse" cx="0" cy="0" r="208.03317982055174" fx="0" fy="0" gradientTransform="matrix( -0.7467558787209043, 0.6650982315385975, -0.8848949007018634, -0.9933511576290626, -65.2,-220.5) " spreadMethod="pad">
<stop  offset="0%" stop-color="#BBEE76"/>

<stop  offset="9.411764705882353%" stop-color="#92D534"/>

<stop  offset="23.92156862745098%" stop-color="#73C101"/>

<stop  offset="100%" stop-color="#276301"/>
</radialGradient>

<linearGradient id="Gradient_6" gradientUnits="userSpaceOnUse" x1="93.6375" y1="-212.02499999999998" x2="111.46249999999999" y2="-530.275" spreadMethod="pad">
<stop  offset="0%" stop-color="#276301"/>

<stop  offset="55.294117647058826%" stop-color="#73C101"/>

<stop  offset="82.3529411764706%" stop-color="#BBEE76"/>

<stop  offset="96.86274509803921%" stop-color="#8EB149"/>
</linearGradient>

<g id="S_mbolo_4_0_Layer0_0_FILL">
<path fill="url(#Gradient_1)" stroke="none" d="
M 239.55 -55.05
L 239.9 -55.4
Q 247.1 -73.9 241.6 -98.65
L 122.2 -346.05 -87.15 -244.8 34.7 7.4
Q 188.75 8.8 229.25 -38.25 235.75 -46.1 239.55 -55.05 Z"/>

<path fill="url(#Gradient_2)" stroke="none" d="
M 239.9 -55.4
L 239.55 -55.05
Q 235.75 -46.1 229.25 -38.25 188.75 8.8 34.7 7.4 -24.7 7.4 -100.15 -0.5
L -92.95 -81.8 -243.95 121.65 -119.75 346.1 -115.95 253.45
Q 22 276.75 44.3 253.8 66.95 231.15 148.6 103.85 230.3 -22.8 239.9 -55.4 Z"/>
</g>

<g id="Interpolaci_n_3_0_Layer0_0_FILL">
<path fill="url(#Gradient_3)" stroke="none" d="
M -39.45 177.85
L -319.5 177.85
Q -387.75 315.8 -362.7 373.1 -358.6 382.35 -352.1 389.55
L -352.1 389.9
Q -338.35 404.65 -314 410.5
L -39.45 410.5 -39.45 177.85 Z"/>

<path fill="url(#Gradient_4)" stroke="none" d="
M -557.3 -108.7
L -475.25 -64.75
Q -556.25 49.5 -545.25 79.7 -534.65 109.55 -455.7 238.6 -377.15 367.25 -352.1 389.9
L -352.1 389.55
Q -358.6 382.35 -362.7 373.1 -387.75 315.8 -319.5 177.85 -293.4 124.65 -253.6 59.8
L -183.25 101.65 -300.95 -122.75 -557.3 -108.7 Z"/>
</g>

<g id="Interpolaci_n_2_0_Layer0_0_FILL">
<path fill="url(#Gradient_5)" stroke="none" d="
M -164.05 -510.15
L -164.4 -510.5
Q -183.95 -507.1 -202.1 -489.9
L -352.75 -260.35 -158.2 -132.7 -4.8 -366.75
Q -82.35 -499.55 -144.15 -510.15 -154.45 -511.9 -164.05 -510.15 Z"/>

<path fill="url(#Gradient_6)" stroke="none" d="
M 201.05 -501.6
Q 170.2 -509.5 19.2 -513.95 -131.45 -519.1 -164.4 -510.5
L -164.05 -510.15
Q -154.45 -511.9 -144.15 -510.15 -82.35 -499.55 -4.8 -366.75 25.4 -315.95 57.65 -246.95
L -15.8 -210.95 236.4 -186.25 365.45 -408.6 283.45 -364
Q 232.3 -494.4 201.05 -501.6 Z"/>
</g>
</defs>

<g transform="matrix( 0.4137420654296875, 0, 0, 0.4137420654296875, 246,246) ">
<g transform="matrix( 0.998138427734375, -0.06097412109375, 0.06097412109375, 0.998138427734375, 307.45,165.55) ">
<g transform="matrix( 1, 0, 0, 1, 0,0) ">
<use xlink:href="#S_mbolo_4_0_Layer0_0_FILL"/>
</g>
</g>

<g transform="matrix( 1, 0, 0, 1, -313.1,163.05) ">
<g transform="matrix( 1, 0, 0, 1, 298.35,-143.85) ">
<use xlink:href="#Interpolaci_n_3_0_Layer0_0_FILL"/>
</g>
</g>

<g transform="matrix( 0.9995574951171875, -0.0297393798828125, 0.0297393798828125, 0.9995574951171875, -2.9,-323.65) ">
<g transform="matrix( 1, 0, 0, 1, -6.35,324.3) ">
<use xlink:href="#Interpolaci_n_2_0_Layer0_0_FILL"/>
</g>
</g>
</g>
</svg>
