
<svg xmlns="http://www.w3.org/2000/svg" version="1.1" xmlns:xlink="http://www.w3.org/1999/xlink" preserveAspectRatio="none" x="0px" y="0px" width="316px" height="306px" viewBox="0 0 316 306">
<defs>
<g id="rrr_0_Layer0_0_FILL">
<path fill="#191F27" stroke="none" d="
M 342.45 304.05
Q 359.15 267.5 373.6 236.45 401.35 177 435.8 110.8 355.3 146.85 253.35 149.8 221.55 150.8 187.05 148.35 157.5 145.7 152.65 145.7 151.45 133.55 148.9 91.2
L 146.55 51.2 35.3 255.95 169 455.4 162.1 364.9 216.05 361.95
Q 274.1 357.8 294.05 352 314.15 343.5 322.55 335.35 331.5 326.6 342.45 304.05
M -163.65 148.7
Q -298 142.55 -317.4 138.85 -360.6 242.35 -342.05 299 -327.35 343.75 -276.6 354.95 -219.85 360.2 -125.9 366.3 -78.9 369.3 -43.3 371.3
L -33.15 154.1
Q -96.45 151.75 -163.65 148.7
M -442.1 -88.9
Q -472.9 -39.55 -480 -20 -484.95 1.2 -483.3 12.85 -481.5 25.25 -469.7 47.35 -449.95 82.35 -433.4 112.3 -401.65 169.75 -368.4 236.55 -350.2 150.3 -292.6 66.1 -274.65 39.8 -252.35 13.35 -232.85 -8.95 -230 -12.9 -219.45 -6.7 -183.7 16.2
L -150 37.8 -250 -172.65 -490 -181.95 -412.75 -134.3 -442.1 -88.9
M -127.85 -498.65
Q -174.2 -506.9 -208.15 -467.5 -239.7 -420.05 -289.65 -340.25 -314.55 -300.35 -333.25 -269.95
L -146.85 -157.95
Q -114.8 -212.55 -80.2 -270.25 -11.05 -385.6 1.45 -400.95 -69.15 -488.05 -127.85 -498.65
M 171.8 -111.75
Q 207.15 -59.15 244.2 -3.05 318.35 109.2 326.75 127.05 435.9 101.1 470.75 52.75 498.25 14.5 477.45 -33.1 448.3 -82.1 397.95 -161.65 372.7 -201.4 353.35 -231.3
L 171.8 -111.75
M 154.2 -491.55
Q 114.05 -490.8 79.85 -490.45 14.25 -489.75 -60.35 -492.2 6.9 -435.2 53.7 -344.55 68.3 -316.3 81.05 -284.15 91.45 -256.35 93.55 -252 83.1 -245.6 45.95 -225.05
L 11 -205.65 243.65 -193.8 365.7 -400.6 287.1 -355.2 261.1 -402.6
Q 232.25 -453.15 218.4 -468.65 202.1 -483.05 191.1 -487.15 179.25 -491.5 154.2 -491.55 Z"/>
</g>
</defs>

<g transform="matrix( 0.2542724609375, 0, 0, 0.254302978515625, 158.45,168.45) ">
<g transform="matrix( 1, 0, 0, 1, 0,0) ">
<use xlink:href="#rrr_0_Layer0_0_FILL"/>
</g>
</g>
</svg>
