
<svg xmlns="http://www.w3.org/2000/svg" version="1.1" xmlns:xlink="http://www.w3.org/1999/xlink" preserveAspectRatio="none" x="0px" y="0px" width="316px" height="316px" viewBox="0 0 316 316">
<defs>
<g id="reducirReciclarReutilizar_0_Layer0_0_FILL">
<path fill="#FFCC66" stroke="none" d="
M -105.35 60.9
Q -106.5 59.65 -108.7 59.65 -110.95 59.65 -112.2 61.15 -113.45 62.65 -113.45 65.45
L -113.45 67.75
Q -113.45 70.5 -112.25 72.05 -111.05 73.55 -108.75 73.55 -106.55 73.55 -105.35 72.35 -104.15 71.15 -104.05 68.85
L -106.8 68.85
Q -106.85 70.2 -107.25 70.75 -107.65 71.25 -108.75 71.25 -109.85 71.25 -110.25 70.5 -110.75 69.75 -110.75 67.75
L -110.75 65.2
Q -110.7 63.45 -110.25 62.7 -109.8 61.9 -108.7 61.9 -107.6 61.9 -107.2 62.45 -106.8 63 -106.8 64.45
L -104.05 64.45
Q -104.2 62.1 -105.35 60.9
M -99.55 73.35
L -99.55 59.85 -102.3 59.85 -102.3 73.35 -99.55 73.35
M -92.9 59.85
L -97.25 59.85 -97.25 73.35 -94.55 73.35 -94.55 68.4 -93.15 68.4 -91.15 73.35 -88.2 73.35 -88.2 73.2 -90.6 67.7
Q -88.6 66.6 -88.6 63.9 -88.6 61.95 -89.75 60.9 -90.85 59.85 -92.9 59.85
M -94.55 62.1
L -92.95 62.1
Q -91.35 62.1 -91.35 64.15 -91.35 65.05 -91.75 65.6 -92.15 66.15 -93 66.15
L -94.55 66.15 -94.55 62.1
M -147 60.9
Q -148.1 59.85 -150.15 59.85
L -154.5 59.85 -154.5 73.35 -151.8 73.35 -151.8 68.4 -150.4 68.4 -148.4 73.35 -145.45 73.35 -145.45 73.2 -147.85 67.7
Q -145.85 66.6 -145.85 63.9 -145.85 61.95 -147 60.9
M -151.8 66.15
L -151.8 62.1 -150.2 62.1
Q -148.6 62.1 -148.6 64.15 -148.6 65.05 -149 65.6 -149.4 66.15 -150.25 66.15
L -151.8 66.15
M -124.15 69.15
Q -124.15 71.25 -123 72.4 -121.85 73.55 -119.65 73.55 -117.55 73.55 -116.4 72.4 -115.25 71.3 -115.25 69.2
L -115.25 59.85 -117.95 59.85 -117.95 69.2
Q -117.95 70.3 -118.35 70.8 -118.7 71.25 -119.65 71.25 -120.65 71.25 -121 70.8 -121.4 70.3 -121.4 69.15
L -121.4 59.85 -124.15 59.85 -124.15 69.15
M -137.1 67.5
L -137.1 65.3 -141.35 65.3 -141.35 62.1 -136.35 62.1 -136.35 59.85 -144.05 59.85 -144.05 73.35 -136.3 73.35 -136.3 71.1 -141.35 71.1 -141.35 67.5 -137.1 67.5
M -127.4 61.35
Q -128.85 59.85 -131.2 59.85
L -134.75 59.85 -134.75 73.35 -131.25 73.35
Q -128.8 73.35 -127.4 71.85 -126 70.3 -126 67.65
L -126 65.45
Q -126 62.85 -127.4 61.35
M -132.05 71.1
L -132.05 62.1 -131.05 62.1
Q -129.75 62.15 -129.25 62.9 -128.7 63.65 -128.7 65.55
L -128.7 67.9
Q -128.75 69.65 -129.3 70.35 -129.85 71.1 -131.2 71.1
L -132.05 71.1
M -131 -20.6
Q -132 -20.6 -132 -19.6
L -132 0 -143.3 0 -121.65 21.65 -100 0 -111.3 0 -111.3 -19.6
Q -111.3 -20.6 -112.3 -20.6
L -131 -20.6
M -131 -28.65
Q -132 -28.65 -132 -27.65
L -132 -23.85
Q -132 -22.85 -131 -22.85
L -112.3 -22.85
Q -111.3 -22.85 -111.3 -23.85
L -111.3 -27.65
Q -111.3 -28.65 -112.3 -28.65
L -131 -28.65 Z"/>
</g>

<g id="reducirReciclarReutilizar_0_Layer0_0_MEMBER_0_FILL">
<path fill="#FFCC66" stroke="none" d="
M 361.7 151.75
Q 347.996484375 165.5291015625 348 185 347.9953125 204.4845703125 361.7 218.2 375.5162109375 232.00546875 395 232 414.4671875 231.99375 428.2 218.2
L 428.2 218.2
Q 441.99375 204.4671875 442 185 442.00546875 165.5162109375 428.2 151.7 414.4845703125 137.9953125 395 138 375.5291015625 137.996484375 361.75 151.7
L 361.7 151.75
M 364.55 154.55
L 364.55 154.55
Q 377.1884765625 142.003515625 395 142 412.815234375 142.0044921875 425.35 154.55 437.994140625 167.1833984375 438 185 438.0060546875 202.8150390625 425.4 215.35
L 425.35 215.4
Q 412.8150390625 228.0060546875 395 228 377.1833984375 227.994140625 364.55 215.35 352.0044921875 202.815234375 352 185 352.003515625 167.1884765625 364.55 154.55 Z"/>
</g>
</defs>

<g transform="matrix( 2.204254150390625, 0, 0, 2.204254150390625, 157.95,157.95) ">
<g transform="matrix( 1, 0, 0, 1, 121.65,-12.3) ">
<use xlink:href="#reducirReciclarReutilizar_0_Layer0_0_FILL"/>
</g>

<g transform="matrix( 0.967071533203125, 0, 0, 0.966522216796875, -382,-194.6) ">
<use xlink:href="#reducirReciclarReutilizar_0_Layer0_0_MEMBER_0_FILL"/>
</g>
</g>
</svg>
