
<svg xmlns="http://www.w3.org/2000/svg" version="1.1" xmlns:xlink="http://www.w3.org/1999/xlink" preserveAspectRatio="none" x="0px" y="0px" width="316px" height="316px" viewBox="0 0 316 316">
<defs>
<g id="reducirReciclarReutilizar_1_Layer0_0_FILL">
<path fill="#88A0C2" stroke="none" d="
M 138.6 70.8
L 138.6 68.55 133.8 68.55 133.8 57.3 131.1 57.3 131.1 70.8 138.6 70.8
M 128.8 57.3
L 126.05 57.3 126.05 70.8 128.8 70.8 128.8 57.3
M 143.05 70.8
L 143.05 57.3 140.3 57.3 140.3 70.8 143.05 70.8
M 153.65 58.9
L 153.65 57.3 144.9 57.3 144.9 59.55 150.5 59.55 144.95 69.15 144.95 70.8 153.75 70.8 153.75 68.55 148.15 68.55 153.65 58.9
M 93.75 61.35
Q 93.75 59.4 92.6 58.35 91.5 57.3 89.45 57.3
L 85.1 57.3 85.1 70.8 87.8 70.8 87.8 65.85 89.2 65.85 91.2 70.8 94.15 70.8 94.15 70.65 91.75 65.15
Q 92.7 64.65 93.2 63.75 93.75 62.75 93.75 61.35
M 87.8 59.55
L 89.4 59.55
Q 91 59.55 91 61.6 91 62.5 90.6 63.05 90.2 63.6 89.35 63.6
L 87.8 63.6 87.8 59.55
M 107.45 57.3
L 104.7 57.3 104.7 66.6
Q 104.7 68.7 105.85 69.85 107 71 109.2 71 111.3 71 112.45 69.85 113.6 68.75 113.6 66.65
L 113.6 57.3 110.9 57.3 110.9 66.65
Q 110.9 67.75 110.5 68.25 110.15 68.7 109.2 68.7 108.2 68.7 107.85 68.25 107.45 67.75 107.45 66.6
L 107.45 57.3
M 103.25 59.55
L 103.25 57.3 95.55 57.3 95.55 70.8 103.3 70.8 103.3 68.55 98.25 68.55 98.25 64.95 102.5 64.95 102.5 62.75 98.25 62.75 98.25 59.55 103.25 59.55
M 115 59.55
L 118.3 59.55 118.3 70.8 121.05 70.8 121.05 59.55 124.4 59.55 124.4 57.3 115 57.3 115 59.55
M 162.6 70.8
L 165.5 70.8 161.25 57.3 158.8 57.3 154.55 70.8 157.45 70.8 158.15 68.05 161.9 68.05 162.6 70.8
M 161.3 65.75
L 158.75 65.75 160 60.95 161.3 65.75
M 175.45 61.35
Q 175.45 59.4 174.3 58.35 173.2 57.3 171.15 57.3
L 166.8 57.3 166.8 70.8 169.5 70.8 169.5 65.85 170.9 65.85 172.9 70.8 175.85 70.8 175.85 70.65 173.45 65.15
Q 175.45 64.05 175.45 61.35
M 169.5 59.55
L 171.1 59.55
Q 172.7 59.55 172.7 61.6 172.7 62.5 172.3 63.05 171.9 63.6 171.05 63.6
L 169.5 63.6 169.5 59.55
M 128.55 -31.95
L 128.55 -35.15 119.15 -27.45 128.55 -19.75 128.55 -22.65
Q 129.3 -22.75 130.1 -22.75 137 -22.75 141.9 -17.85 146.8 -12.95 146.8 -6 146.8 0.5 142.5 5.25
L 149.05 11.8
Q 156.15 4.35 156.15 -6 156.15 -16.75 148.5 -24.4 140.9 -32 130.15 -32 129.35 -32 128.55 -31.95
M 111.75 -24.4
Q 104.15 -16.75 104.15 -6 104.15 4.75 111.75 12.35 119.35 19.95 130 20
L 130 23.1 139.95 15.4 130 7.7 130 10.7
Q 123.1 10.65 118.25 5.8 113.35 0.9 113.35 -6 113.35 -12.95 118.25 -17.85 118.55 -18.15 118.85 -18.4
L 112.3 -24.95
Q 112.05 -24.7 111.75 -24.4 Z"/>
</g>

<g id="reducirReciclarReutilizar_1_Layer0_0_MEMBER_0_FILL">
<path fill="#88A0C2" stroke="none" d="
M 361.7 151.75
Q 347.996484375 165.5291015625 348 185 347.9953125 204.4845703125 361.7 218.2 375.5162109375 232.00546875 395 232 414.4671875 231.99375 428.2 218.2
L 428.2 218.2
Q 441.99375 204.4671875 442 185 442.00546875 165.5162109375 428.2 151.7 414.4845703125 137.9953125 395 138 375.5291015625 137.996484375 361.75 151.7
L 361.7 151.75
M 364.55 154.55
L 364.55 154.55
Q 377.1884765625 142.003515625 395 142 412.815234375 142.0044921875 425.35 154.55 437.994140625 167.1833984375 438 185 438.0060546875 202.8150390625 425.4 215.35
L 425.35 215.4
Q 412.8150390625 228.0060546875 395 228 377.1833984375 227.994140625 364.55 215.35 352.0044921875 202.815234375 352 185 352.003515625 167.1884765625 364.55 154.55 Z"/>
</g>
</defs>

<g transform="matrix( 2.204254150390625, 0, 0, 2.204254150390625, 157.95,157.95) ">
<g transform="matrix( 1, 0, 0, 1, -130.25,-9.75) ">
<use xlink:href="#reducirReciclarReutilizar_1_Layer0_0_FILL"/>
</g>

<g transform="matrix( 0.967071533203125, 0, 0, 0.966522216796875, -382.1,-194.6) ">
<use xlink:href="#reducirReciclarReutilizar_1_Layer0_0_MEMBER_0_FILL"/>
</g>
</g>
</svg>
