
<svg xmlns="http://www.w3.org/2000/svg" version="1.1" xmlns:xlink="http://www.w3.org/1999/xlink" preserveAspectRatio="none" x="0px" y="0px" width="70px" height="70px" viewBox="0 0 70 70">
<defs>
<g id="Tacho_RRR_1_Layer0_0_FILL">
<path fill="#374d6b" stroke="none" d="
M 193 33.75
Q 193.1 32.95 192.5 32.95
L 124.25 32.95
Q 123.65 32.95 123.7 33.75
L 131.15 107.7
Q 131.4 110.35 133.4 112.2 135.4 114 137.95 114
L 178.75 114
Q 181.3 114 183.3 112.2 185.3 110.35 185.55 107.7
L 193 33.75
M 197.65 19.8
Q 197.65 15.4 193.35 15.35
L 175.85 15.35
Q 174.35 15.3 173.25 14.2 172.15 13.1 172.15 11.55
L 172.15 11.45
Q 172.1 9.9 171 8.8 169.9 7.65 168.3 7.65
L 148.4 7.65
Q 146.85 7.65 145.7 8.8 144.6 9.9 144.6 11.45
L 144.6 11.55
Q 144.6 13.1 143.45 14.2 142.4 15.3 140.9 15.35
L 123.4 15.35
Q 119.05 15.4 119.05 19.8
L 119.05 25.7
Q 119.05 30.15 123.55 30.15
L 193.2 30.15
Q 197.65 30.15 197.65 25.7
L 197.65 19.8 Z"/>
</g>

<g id="Tacho_RRR_1_Layer0_0_MEMBER_0_FILL">
<path fill="#FFFFFF" stroke="none" d="
M 166.8 53.7
Q 166.8 52.9 166 52.9
L 150.7 52.9
Q 149.9 52.9 149.9 53.7
L 149.9 56.8
Q 149.9 57.65 150.7 57.65
L 166 57.65
Q 166.8 57.65 166.8 56.8
L 166.8 53.7
M 176.05 76.35
L 166.8 76.35 166.8 60.3
Q 166.8 59.45 166 59.45
L 150.7 59.45
Q 149.9 59.45 149.9 60.3
L 149.9 76.35 140.65 76.35 158.35 94.05 176.05 76.35 Z"/>
</g>

<path id="Tacho_RRR_1_Layer0_0_1_STROKES" stroke="#374D6B" stroke-width="0.1" stroke-linejoin="round" stroke-linecap="round" fill="none" d="
M 148.4 7.65
L 168.3 7.65
Q 169.9 7.65 171 8.8 172.1 9.9 172.15 11.45
L 172.15 11.55
Q 172.15 13.1 173.25 14.2 174.35 15.3 175.85 15.35
L 193.35 15.35
Q 197.65 15.4 197.65 19.8
L 197.65 25.7
Q 197.65 30.15 193.2 30.15
L 123.55 30.15
Q 119.05 30.15 119.05 25.7
L 119.05 19.8
Q 119.05 15.4 123.4 15.35
L 140.9 15.35
Q 142.4 15.3 143.45 14.2 144.6 13.1 144.6 11.55
L 144.6 11.45
Q 144.6 9.9 145.7 8.8 146.85 7.65 148.4 7.65 Z
M 124.25 32.95
L 192.5 32.95
Q 193.1 32.95 193 33.75
L 185.55 107.7
Q 185.3 110.35 183.3 112.2 181.3 114 178.75 114
L 137.95 114
Q 135.4 114 133.4 112.2 131.4 110.35 131.15 107.7
L 123.7 33.75
Q 123.65 32.95 124.25 32.95 Z"/>
</defs>

<g transform="matrix( 0.524932861328125, 0, 0, 0.524932861328125, 35,35) ">
<g transform="matrix( 1, 0, 0, 1, -158.35,-60.8) ">
<use xlink:href="#Tacho_RRR_1_Layer0_0_FILL"/>

<use xlink:href="#Tacho_RRR_1_Layer0_0_1_STROKES"/>
</g>

<g transform="matrix( 1, 0, 0, 1, -158.35,-60.8) ">
<use xlink:href="#Tacho_RRR_1_Layer0_0_MEMBER_0_FILL"/>
</g>
</g>
</svg>
