
<svg xmlns="http://www.w3.org/2000/svg" version="1.1" xmlns:xlink="http://www.w3.org/1999/xlink" preserveAspectRatio="none" x="0px" y="0px" width="70px" height="70px" viewBox="0 0 70 70">
<defs>
<g id="Tacho_RRR_2_Layer0_0_FILL">
<path fill="#5a708f" stroke="none" d="
M 297.15 19.8
Q 297.15 15.4 292.85 15.35
L 275.35 15.35
Q 273.85 15.3 272.75 14.2 271.65 13.1 271.65 11.55
L 271.65 11.45
Q 271.6 9.9 270.5 8.8 269.4 7.65 267.8 7.65
L 247.9 7.65
Q 246.35 7.65 245.2 8.8 244.1 9.9 244.1 11.45
L 244.1 11.55
Q 244.1 13.1 242.95 14.2 241.9 15.3 240.4 15.35
L 222.9 15.35
Q 218.55 15.4 218.55 19.8
L 218.55 25.7
Q 218.55 30.15 223.05 30.15
L 292.7 30.15
Q 297.15 30.15 297.15 25.7
L 297.15 19.8
M 292.5 33.75
Q 292.6 32.95 292 32.95
L 223.75 32.95
Q 223.15 32.95 223.2 33.75
L 230.65 107.7
Q 230.9 110.35 232.9 112.2 234.9 114 237.45 114
L 278.25 114
Q 280.8 114 282.8 112.2 284.8 110.35 285.05 107.7
L 292.5 33.75 Z"/>
</g>

<g id="Tacho_RRR_2_Layer0_0_MEMBER_0_FILL">
<path fill="#FFFFFF" stroke="none" d="
M 244.1 73.45
Q 244.1 67.75 248.15 63.75 248.35 63.5 248.6 63.3
L 243.25 57.95
Q 243.05 58.15 242.8 58.4 236.6 64.65 236.6 73.45 236.6 82.25 242.8 88.5 249.05 94.7 257.75 94.75
L 257.75 97.3 265.9 90.95 257.75 84.65 257.75 87.15
Q 252.1 87.1 248.15 83.1 244.1 79.1 244.1 73.45
M 279.15 73.45
Q 279.15 64.65 272.9 58.4 266.65 52.2 257.85 52.2 257.2 52.2 256.55 52.2
L 256.55 49.6 248.85 55.9 256.55 62.2 256.55 59.85
Q 257.15 59.75 257.85 59.75 263.45 59.75 267.5 63.75 271.5 67.75 271.5 73.45 271.5 78.8 268 82.65
L 273.35 88.05
Q 279.15 81.95 279.15 73.45 Z"/>
</g>

<path id="Tacho_RRR_2_Layer0_0_1_STROKES" stroke="#374D6B" stroke-width="0.1" stroke-linejoin="round" stroke-linecap="round" fill="none" d="
M 223.75 32.95
L 292 32.95
Q 292.6 32.95 292.5 33.75
L 285.05 107.7
Q 284.8 110.35 282.8 112.2 280.8 114 278.25 114
L 237.45 114
Q 234.9 114 232.9 112.2 230.9 110.35 230.65 107.7
L 223.2 33.75
Q 223.15 32.95 223.75 32.95 Z
M 247.9 7.65
L 267.8 7.65
Q 269.4 7.65 270.5 8.8 271.6 9.9 271.65 11.45
L 271.65 11.55
Q 271.65 13.1 272.75 14.2 273.85 15.3 275.35 15.35
L 292.85 15.35
Q 297.15 15.4 297.15 19.8
L 297.15 25.7
Q 297.15 30.15 292.7 30.15
L 223.05 30.15
Q 218.55 30.15 218.55 25.7
L 218.55 19.8
Q 218.55 15.4 222.9 15.35
L 240.4 15.35
Q 241.9 15.3 242.95 14.2 244.1 13.1 244.1 11.55
L 244.1 11.45
Q 244.1 9.9 245.2 8.8 246.35 7.65 247.9 7.65 Z"/>
</defs>

<g transform="matrix( 0.524932861328125, 0, 0, 0.524932861328125, 35,35) ">
<g transform="matrix( 1, 0, 0, 1, -257.85,-60.8) ">
<use xlink:href="#Tacho_RRR_2_Layer0_0_FILL"/>

<use xlink:href="#Tacho_RRR_2_Layer0_0_1_STROKES"/>
</g>

<g transform="matrix( 1, 0, 0, 1, -257.85,-60.8) ">
<use xlink:href="#Tacho_RRR_2_Layer0_0_MEMBER_0_FILL"/>
</g>
</g>
</svg>
