
<svg xmlns="http://www.w3.org/2000/svg" version="1.1" xmlns:xlink="http://www.w3.org/1999/xlink" preserveAspectRatio="none" x="0px" y="0px" width="70px" height="70px" viewBox="0 0 70 70">
<defs>
<g id="Tacho_RRR_0_Layer0_0_FILL">
<path fill="#5a70bf" stroke="none" d="
M 34.65 -27.05
Q 34.75 -27.85 34.15 -27.85
L -34.1 -27.85
Q -34.7 -27.85 -34.65 -27.05
L -27.2 46.9
Q -26.95 49.55 -24.95 51.4 -22.95 53.2 -20.4 53.2
L 20.4 53.2
Q 22.95 53.2 24.95 51.4 26.95 49.55 27.2 46.9
L 34.65 -27.05
M 12.65 -52
Q 11.55 -53.15 9.95 -53.15
L -9.95 -53.15
Q -11.5 -53.15 -12.65 -52 -13.75 -50.9 -13.75 -49.35
L -13.75 -49.25
Q -13.75 -47.7 -14.9 -46.6 -15.95 -45.5 -17.45 -45.45
L -34.95 -45.45
Q -39.3 -45.4 -39.3 -41
L -39.3 -35.1
Q -39.3 -30.65 -34.8 -30.65
L 34.85 -30.65
Q 39.3 -30.65 39.3 -35.1
L 39.3 -41
Q 39.3 -45.4 35 -45.45
L 17.5 -45.45
Q 16 -45.5 14.9 -46.6 13.8 -47.7 13.8 -49.25
L 13.8 -49.35
Q 13.75 -50.9 12.65 -52 Z"/>
</g>

<g id="Tacho_RRR_0_Layer0_0_MEMBER_0_FILL">
<path fill="#FFFFFF" stroke="none" d="
M 75.85 84.7
Q 77.05 82.15 78.6 79.3 75.05 80.85 70.6 81 69.2 81 67.7 80.9 66.4 80.8 66.15 80.8 66.1 80.3 66 78.45
L 65.9 76.75 61.05 85.5 66.9 94.05 66.6 90.2 68.95 90.05
Q 71.5 89.85 72.4 89.6 73.25 89.25 73.6 88.9 74 88.55 74.5 87.55 75.2 86 75.85 84.7
M 58.05 81.15
Q 55.25 81.05 52.35 80.95 46.45 80.65 45.75 81.05 43.7 84.95 44.5 87.35 45.2 89.3 47.4 89.75 49.85 90 54 90.25 56.05 90.35 57.6 90.45
L 58.05 81.15
M 55.45 63
Q 58.45 58.05 58.75 58.05 55.9 53.65 53.35 53.2 51.3 52.9 49.8 54.55 48.45 56.6 46.25 60 45.15 61.75 44.3 63
L 52.5 67.8
Q 53.9 65.45 55.45 63
M 76.35 67.65
Q 75.25 65.95 74.4 64.65
L 66.45 69.8
Q 68 72 69.6 74.45 72.85 79.25 73 79.4 78 78.9 79.55 76.85 80.75 75.2 79.8 73.15 78.55 71.05 76.35 67.65
M 74.95 56.85
L 71.5 58.8 70.35 56.75
Q 69.1 54.6 68.45 53.95 67.75 53.35 67.25 53.15 66.8 52.95 65.65 52.95 63.9 53 62.4 53 59.55 53.05 56.3 52.9 59.2 55.35 61.25 59.25 61.95 60.45 62.45 61.8 62.9 63 63.05 63.2 62.55 63.5 60.95 64.35
L 59.4 65.2 69.6 65.7 74.95 56.85
M 39.55 70.8
Q 38.25 72.9 37.9 73.7 37.7 74.6 37.8 75.1 37.8 75.65 38.35 76.6 39.2 78.1 39.95 79.4 41.3 81.85 42.8 84.7 43.6 81 46.15 77.4 46.9 76.25 47.85 75.15 48.7 74.2 48.85 74.05 49.3 74.25 50.85 75.25
L 52.35 76.15 48 67.15 37.45 66.8 40.85 68.8 39.55 70.8 Z"/>
</g>
</defs>

<g transform="matrix( 0.524932861328125, 0, 0, 0.524932861328125, 35,35) ">
<g transform="matrix( 1, 0, 0, 1, 0,0) ">
<use xlink:href="#Tacho_RRR_0_Layer0_0_FILL"/>
</g>

<g transform="matrix( 1, 0, 0, 1, -58.85,-60.8) ">
<use xlink:href="#Tacho_RRR_0_Layer0_0_MEMBER_0_FILL"/>
</g>
</g>
</svg>
