
<svg xmlns="http://www.w3.org/2000/svg" version="1.1" xmlns:xlink="http://www.w3.org/1999/xlink" preserveAspectRatio="none" x="0px" y="0px" width="310px" height="110px" viewBox="0 0 310 110">
<defs>
<g id="Layer0_0_FILL">
<path fill="#374D6B" stroke="none" d="
M 238.25 84.6
Q 236.6 84.6 235.75 85.7 234.85 86.75 234.85 88.75
L 234.85 89.45
Q 234.85 91.35 235.8 92.35 236.75 93.35 238.45 93.35 239.4 93.35 240.15 93 240.9 92.65 241.35 92.1
L 240.45 90.75
Q 239.7 91.5 238.6 91.5 237.85 91.5 237.5 91.1 237.1 90.65 237.05 89.7
L 241.45 89.7 241.45 88.6
Q 241.45 86.65 240.65 85.6 239.85 84.6 238.25 84.6
M 239.05 86.8
Q 239.25 87.2 239.3 87.95
L 239.3 88.15 237.1 88.15
Q 237.15 87.25 237.4 86.85 237.65 86.45 238.25 86.45 238.8 86.45 239.05 86.8
M 233.95 84.7
Q 233.7 84.6 233.35 84.6 232.4 84.6 231.9 85.65
L 231.85 84.75 229.75 84.75 229.75 93.2 231.95 93.2 231.95 87.6
Q 232.3 86.8 233.2 86.8
L 233.95 86.9 233.95 84.7
M 261.75 90.85
Q 261.75 91.95 262.45 92.65 263.15 93.35 264.2 93.35 265.25 93.35 265.85 92.55 265.95 93 266 93.2
L 268.25 93.2 268.25 93.05
Q 267.95 92.45 267.95 91.35
L 267.95 87.4
Q 267.95 86.05 267.2 85.3 266.4 84.6 265 84.6 263.7 84.6 262.8 85.35 261.9 86.1 261.9 87.3
L 264.15 87.3
Q 264.15 86.3 264.95 86.3 265.35 86.3 265.55 86.55 265.7 86.8 265.7 87.35
L 265.7 88.05 265.05 88.05
Q 263.45 88.05 262.6 88.8 261.75 89.5 261.75 90.85
M 264.3 89.7
Q 264.65 89.35 265.2 89.35
L 265.7 89.35 265.7 91.1
Q 265.6 91.35 265.35 91.45 265.1 91.6 264.7 91.6 264 91.6 264 90.7 264 90.1 264.3 89.7
M 244.8 85.6
L 244.75 84.75 242.65 84.75 242.65 93.2 244.85 93.2 244.85 87.05
Q 245.2 86.45 245.8 86.45 246.35 86.45 246.55 86.75 246.8 87.1 246.8 87.8
L 246.8 93.2 249 93.2 249 87.65
Q 248.95 84.6 246.75 84.6 245.55 84.6 244.8 85.6
M 260.3 84.75
L 258.05 84.75 258.05 93.2 260.3 93.2 260.3 84.75
M 258.3 83.4
Q 258.6 83.75 259.15 83.75 259.7 83.75 260.05 83.4 260.35 83.05 260.35 82.55 260.35 82.05 260.05 81.7 259.7 81.4 259.15 81.4 258.6 81.4 258.3 81.7 257.95 82.05 257.95 82.55 257.95 83.05 258.3 83.4
M 255.9 85.45
Q 255.1 84.6 253.7 84.6 252.05 84.6 251.2 85.65 250.35 86.7 250.35 88.7
L 250.35 89.35
Q 250.35 91.35 251.2 92.35 252.05 93.35 253.7 93.35 255.05 93.35 255.85 92.5 256.7 91.65 256.7 90.25
L 254.65 90.25
Q 254.6 91.5 253.65 91.5 253.25 91.5 253 91.35 252.75 91.15 252.65 90.75 252.55 90.3 252.55 89.3
L 252.55 88.45
Q 252.55 87.25 252.8 86.85 253.05 86.45 253.65 86.45 254.2 86.45 254.4 86.8 254.65 87.2 254.65 87.9
L 256.7 87.9
Q 256.7 86.3 255.9 85.45
M 221.95 90.85
Q 221.95 91.95 222.65 92.65 223.35 93.35 224.4 93.35 225.45 93.35 226.05 92.55 226.15 93 226.2 93.2
L 228.45 93.2 228.45 93.05
Q 228.15 92.45 228.15 91.35
L 228.15 87.4
Q 228.15 86.05 227.4 85.3 226.6 84.6 225.2 84.6 223.9 84.6 223 85.35 222.1 86.1 222.1 87.3
L 224.35 87.3
Q 224.35 86.3 225.15 86.3 225.55 86.3 225.75 86.55 225.9 86.8 225.9 87.35
L 225.9 88.05 225.25 88.05
Q 223.65 88.05 222.8 88.8 221.95 89.5 221.95 90.85
M 225.4 89.35
L 225.9 89.35 225.9 91.1
Q 225.8 91.35 225.55 91.45 225.3 91.6 224.9 91.6 224.2 91.6 224.2 90.7 224.2 90.1 224.5 89.7 224.85 89.35 225.4 89.35
M 220.2 85.6
Q 219.5 84.6 218.15 84.6 217.05 84.6 216.45 85.5
L 216.35 84.75 214.3 84.75 214.3 96.45 216.5 96.45 216.5 92.5
Q 217.15 93.35 218.15 93.35 219.5 93.35 220.2 92.3 220.9 91.25 220.9 89.25
L 220.9 88.6
Q 220.9 86.55 220.2 85.6
M 218.7 88.7
L 218.7 89.25
Q 218.7 90.4 218.45 90.95 218.2 91.5 217.5 91.5 216.8 91.5 216.5 90.95
L 216.5 87
Q 216.85 86.45 217.5 86.45 218.15 86.45 218.4 86.95 218.7 87.45 218.7 88.7
M 147.6 84.6
Q 145.95 84.6 145.1 85.7 144.2 86.75 144.2 88.75
L 144.2 89.45
Q 144.2 91.35 145.15 92.35 146.1 93.35 147.8 93.35 148.75 93.35 149.5 93 150.25 92.65 150.7 92.1
L 149.8 90.75
Q 149.05 91.5 147.95 91.5 147.2 91.5 146.85 91.1 146.45 90.65 146.4 89.7
L 150.8 89.7 150.8 88.6
Q 150.8 86.65 150 85.6 149.2 84.6 147.6 84.6
M 148.65 87.95
L 148.65 88.15 146.45 88.15
Q 146.5 87.25 146.75 86.85 147 86.45 147.6 86.45 148.15 86.45 148.4 86.8 148.6 87.2 148.65 87.95
M 157.8 86.1
L 157.8 84.75 151.95 84.75 151.95 86.6 155.15 86.6 151.9 91.8 151.9 93.2 157.85 93.2 157.85 91.35 154.5 91.35 157.8 86.1
M 140.45 84.75
L 140.45 93.2 142.7 93.2 142.7 84.75 140.45 84.75
M 140.35 82.55
Q 140.35 83.05 140.7 83.4 141 83.75 141.55 83.75 142.1 83.75 142.45 83.4 142.75 83.05 142.75 82.55 142.75 82.05 142.45 81.7 142.1 81.4 141.55 81.4 141 81.4 140.7 81.7 140.35 82.05 140.35 82.55
M 209.25 86.45
Q 209.5 86.2 209.85 86.2 210.7 86.2 210.7 87.25
L 212.9 87.25
Q 212.9 86.05 212.1 85.3 211.25 84.6 209.85 84.6 208.55 84.6 207.75 85.3 206.95 86.05 206.95 87.15 206.95 88.05 207.45 88.6 207.95 89.2 209.35 89.75 210.25 90.2 210.55 90.4 210.8 90.65 210.8 90.95 210.8 91.75 209.9 91.75 209.35 91.75 209.1 91.45 208.8 91.15 208.8 90.6
L 206.7 90.6
Q 206.7 91.35 207.1 92 207.5 92.65 208.2 93 208.95 93.35 209.85 93.35 211.25 93.35 212.1 92.65 212.95 92 212.95 90.85 212.95 89.85 212.4 89.25 211.85 88.65 210.5 88.15 209.55 87.75 209.3 87.55 209.05 87.3 209.05 87.05 209.05 86.65 209.25 86.45
M 190.5 84.7
Q 190.25 84.6 189.9 84.6 188.95 84.6 188.45 85.65
L 188.4 84.75 186.3 84.75 186.3 93.2 188.5 93.2 188.5 87.6
Q 188.85 86.8 189.75 86.8
L 190.5 86.9 190.5 84.7
M 196.8 85.3
Q 196 84.6 194.6 84.6 193.3 84.6 192.4 85.35 191.5 86.1 191.5 87.3
L 193.75 87.3
Q 193.75 86.3 194.55 86.3 194.95 86.3 195.15 86.55 195.3 86.8 195.3 87.35
L 195.3 88.05 194.65 88.05
Q 193.05 88.05 192.2 88.8 191.35 89.5 191.35 90.85 191.35 91.95 192.05 92.65 192.75 93.35 193.8 93.35 194.85 93.35 195.45 92.55 195.55 93 195.6 93.2
L 197.85 93.2 197.85 93.05
Q 197.55 92.45 197.55 91.35
L 197.55 87.4
Q 197.55 86.05 196.8 85.3
M 193.9 89.7
Q 194.25 89.35 194.8 89.35
L 195.3 89.35 195.3 91.1
Q 195.2 91.35 194.95 91.45 194.7 91.6 194.3 91.6 193.6 91.6 193.6 90.7 193.6 90.1 193.9 89.7
M 201.2 84.75
L 199.1 84.75 199.1 93.2 201.3 93.2 201.3 87.05
Q 201.65 86.45 202.25 86.45 202.8 86.45 203 86.75 203.25 87.1 203.25 87.8
L 203.25 93.2 205.45 93.2 205.45 87.65
Q 205.4 84.6 203.2 84.6 202 84.6 201.25 85.6
L 201.2 84.75
M 164.5 85.3
Q 163.7 84.6 162.3 84.6 161 84.6 160.1 85.35 159.2 86.1 159.2 87.3
L 161.45 87.3
Q 161.45 86.3 162.25 86.3 162.65 86.3 162.85 86.55 163 86.8 163 87.35
L 163 88.05 162.35 88.05
Q 160.75 88.05 159.9 88.8 159.05 89.5 159.05 90.85 159.05 91.95 159.75 92.65 160.45 93.35 161.5 93.35 162.55 93.35 163.15 92.55 163.25 93 163.3 93.2
L 165.55 93.2 165.55 93.05
Q 165.25 92.45 165.25 91.35
L 165.25 87.4
Q 165.25 86.05 164.5 85.3
M 163 89.35
L 163 91.1
Q 162.9 91.35 162.65 91.45 162.4 91.6 162 91.6 161.3 91.6 161.3 90.7 161.3 90.1 161.6 89.7 161.95 89.35 162.5 89.35
L 163 89.35
M 176.75 84.75
L 174.4 84.75 173.25 89.5 172.25 84.75 169.9 84.75 172.3 93.3 172.15 93.85
Q 172 94.35 171.75 94.55 171.5 94.75 170.95 94.75
L 170.7 94.75 170.7 96.45
Q 171.2 96.6 171.6 96.6 173.35 96.6 173.95 94.45
L 176.75 84.75
M 180.8 86.4
L 181.75 86.4 181.75 90.9
Q 181.8 93.35 183.95 93.35 184.6 93.35 185.15 93.15
L 185.15 91.45
Q 184.95 91.5 184.65 91.5 184.25 91.5 184.1 91.3 184 91.1 184 90.6
L 184 86.4 185.1 86.4 185.1 84.75 184 84.75 184 82.65 181.75 82.65 181.75 84.75 180.8 84.75 180.8 86.4
M 138.35 85.6
Q 137.65 84.6 136.3 84.6 135.2 84.6 134.6 85.5
L 134.5 84.75 132.45 84.75 132.45 96.45 134.65 96.45 134.65 92.5
Q 135.3 93.35 136.3 93.35 137.65 93.35 138.35 92.3 139.05 91.25 139.05 89.25
L 139.05 88.6
Q 139.05 86.55 138.35 85.6
M 136.85 88.7
L 136.85 89.25
Q 136.85 90.4 136.6 90.95 136.35 91.5 135.65 91.5 134.95 91.5 134.65 90.95
L 134.65 87
Q 135 86.45 135.65 86.45 136.3 86.45 136.55 86.95 136.85 87.45 136.85 88.7
M 120.6 84.75
L 120.6 93.2 122.8 93.2 122.8 87.05
Q 123.15 86.45 123.75 86.45 124.25 86.45 124.45 86.75 124.6 87.1 124.6 87.8
L 124.6 93.2 126.85 93.2 126.85 87.45 126.8 87.2
Q 127.1 86.45 127.75 86.45 128.2 86.45 128.45 86.75 128.65 87.05 128.65 87.8
L 128.65 93.2 130.85 93.2 130.85 87.65
Q 130.8 84.6 128.55 84.6 127.2 84.6 126.5 85.75 125.95 84.6 124.7 84.6 123.5 84.6 122.75 85.55
L 122.7 84.75 120.6 84.75
M 70.65 93.2
L 72.9 93.2 72.9 84.75 70.65 84.75 70.65 93.2
M 65.8 84
L 65.8 84.75 64.8 84.75 64.8 86.4 65.8 86.4 65.8 93.2 68.05 93.2 68.05 86.4 69.35 86.4 69.35 84.75 68.05 84.75 68.05 84.05
Q 68.05 82.9 69 82.9 69.35 82.9 69.55 82.95
L 69.55 81.2
Q 68.95 81.05 68.55 81.05 67.3 81.05 66.55 81.8 65.8 82.6 65.8 84
M 79.8 85.3
Q 79 84.6 77.6 84.6 76.3 84.6 75.4 85.35 74.5 86.1 74.5 87.3
L 76.75 87.3
Q 76.75 86.3 77.55 86.3 77.95 86.3 78.15 86.55 78.3 86.8 78.3 87.35
L 78.3 88.05 77.65 88.05
Q 76.05 88.05 75.2 88.8 74.35 89.5 74.35 90.85 74.35 91.95 75.05 92.65 75.75 93.35 76.8 93.35 77.85 93.35 78.45 92.55 78.55 93 78.6 93.2
L 80.85 93.2 80.85 93.05
Q 80.55 92.45 80.55 91.35
L 80.55 87.4
Q 80.55 86.05 79.8 85.3
M 76.9 89.7
Q 77.25 89.35 77.8 89.35
L 78.3 89.35 78.3 91.1
Q 78.2 91.35 77.95 91.45 77.7 91.6 77.3 91.6 76.6 91.6 76.6 90.7 76.6 90.1 76.9 89.7
M 70.9 83.4
Q 71.2 83.75 71.75 83.75 72.3 83.75 72.65 83.4 72.95 83.05 72.95 82.55 72.95 82.05 72.65 81.7 72.3 81.4 71.75 81.4 71.2 81.4 70.9 81.7 70.55 82.05 70.55 82.55 70.55 83.05 70.9 83.4
M 59.45 84.75
L 57.35 84.75 57.35 93.2 59.55 93.2 59.55 87.05
Q 59.9 86.45 60.5 86.45 61.05 86.45 61.25 86.75 61.5 87.1 61.5 87.8
L 61.5 93.2 63.7 93.2 63.7 87.65
Q 63.65 84.6 61.45 84.6 60.25 84.6 59.5 85.6
L 59.45 84.75
M 55.15 85.7
Q 54.25 84.6 52.6 84.6 51 84.6 50.1 85.7 49.2 86.8 49.2 88.7
L 49.2 89.25
Q 49.2 91.2 50.1 92.25 51 93.35 52.65 93.35 54.25 93.35 55.15 92.25 56.05 91.2 56.05 89.25
L 56.05 88.7
Q 56.05 86.8 55.15 85.7
M 52.65 91.5
Q 51.4 91.5 51.4 89.25
L 51.4 88.7
Q 51.4 87.55 51.75 87 52.05 86.45 52.6 86.45 53.2 86.45 53.5 87 53.85 87.55 53.85 88.7
L 53.85 89.65
Q 53.75 91.5 52.65 91.5
M 105.15 93.05
Q 105.15 93.95 104.65 94.9
L 104.35 95.45 105.5 96.05
Q 106.2 95.45 106.65 94.55 107.05 93.7 107.05 92.85
L 107.05 91.3 105.15 91.3 105.15 93.05
M 118.9 84.75
L 116.65 84.75 116.65 93.2 118.9 93.2 118.9 84.75
M 116.9 81.7
Q 116.55 82.05 116.55 82.55 116.55 83.05 116.9 83.4 117.2 83.75 117.75 83.75 118.3 83.75 118.65 83.4 118.95 83.05 118.95 82.55 118.95 82.05 118.65 81.7 118.3 81.4 117.75 81.4 117.2 81.4 116.9 81.7
M 114.85 81.2
L 112.6 81.2 112.6 93.2 114.85 93.2 114.85 81.2
M 84.2 84.75
L 82.1 84.75 82.1 93.2 84.3 93.2 84.3 87.05
Q 84.65 86.45 85.25 86.45 85.8 86.45 86 86.75 86.25 87.1 86.25 87.8
L 86.25 93.2 88.45 93.2 88.45 87.65
Q 88.4 84.6 86.2 84.6 85 84.6 84.25 85.6
L 84.2 84.75
M 95.8 86.1
L 95.8 84.75 89.95 84.75 89.95 86.6 93.15 86.6 89.9 91.8 89.9 93.2 95.85 93.2 95.85 91.35 92.5 91.35 95.8 86.1
M 100.3 84.6
Q 99 84.6 98.1 85.35 97.2 86.1 97.2 87.3
L 99.45 87.3
Q 99.45 86.3 100.25 86.3 100.65 86.3 100.85 86.55 101 86.8 101 87.35
L 101 88.05 100.35 88.05
Q 98.75 88.05 97.9 88.8 97.05 89.5 97.05 90.85 97.05 91.95 97.75 92.65 98.45 93.35 99.5 93.35 100.55 93.35 101.15 92.55 101.25 93 101.3 93.2
L 103.55 93.2 103.55 93.05
Q 103.25 92.45 103.25 91.35
L 103.25 87.4
Q 103.25 86.05 102.5 85.3 101.7 84.6 100.3 84.6
M 100.5 89.35
L 101 89.35 101 91.1
Q 100.9 91.35 100.65 91.45 100.4 91.6 100 91.6 99.3 91.6 99.3 90.7 99.3 90.1 99.6 89.7 99.95 89.35 100.5 89.35
M 45.2 84.6
Q 43.55 84.6 42.7 85.65 41.85 86.7 41.85 88.7
L 41.85 89.35
Q 41.85 91.35 42.7 92.35 43.55 93.35 45.2 93.35 46.55 93.35 47.35 92.5 48.2 91.65 48.2 90.25
L 46.15 90.25
Q 46.1 91.5 45.15 91.5 44.75 91.5 44.5 91.35 44.25 91.15 44.15 90.75 44.05 90.3 44.05 89.3
L 44.05 88.45
Q 44.05 87.25 44.3 86.85 44.55 86.45 45.15 86.45 45.7 86.45 45.9 86.8 46.15 87.2 46.15 87.9
L 48.2 87.9
Q 48.2 86.3 47.4 85.45 46.6 84.6 45.2 84.6
M 280.35 66.2
Q 280.35 64.85 279.6 64.1 278.8 63.4 277.4 63.4 276.1 63.4 275.2 64.15 274.3 64.9 274.3 66.1
L 276.55 66.1
Q 276.55 65.1 277.35 65.1 277.75 65.1 277.95 65.35 278.1 65.6 278.1 66.15
L 278.1 66.85 277.45 66.85
Q 275.85 66.85 275 67.6 274.15 68.3 274.15 69.65 274.15 70.75 274.85 71.45 275.55 72.15 276.6 72.15 277.65 72.15 278.25 71.35 278.35 71.8 278.4 72
L 280.65 72 280.65 71.85
Q 280.35 71.25 280.35 70.15
L 280.35 66.2
M 277.1 70.4
Q 276.4 70.4 276.4 69.5 276.4 68.9 276.7 68.5 277.05 68.15 277.6 68.15
L 278.1 68.15 278.1 69.9
Q 278 70.15 277.75 70.25 277.5 70.4 277.1 70.4
M 204.9 73.35
Q 205.3 72.5 205.3 71.65
L 205.3 70.1 203.4 70.1 203.4 71.85
Q 203.4 72.75 202.9 73.7
L 202.6 74.25 203.75 74.85
Q 204.45 74.25 204.9 73.35
M 210.45 67.5
L 210.45 68.15
Q 210.45 70.1 211.2 71.15 211.85 72.15 213.2 72.15 214.2 72.15 214.85 71.35
L 214.85 75.25 217.05 75.25 217.05 63.55 215.1 63.55 215 64.4
Q 214.35 63.4 213.2 63.4 211.85 63.4 211.15 64.4 210.45 65.4 210.45 67.5
M 212.7 68.05
L 212.7 67.45
Q 212.7 66.25 212.95 65.75 213.2 65.25 213.85 65.25 214.5 65.25 214.85 65.75
L 214.85 69.8
Q 214.5 70.3 213.85 70.3 213.2 70.3 212.95 69.8 212.7 69.3 212.7 68.05
M 238.05 72
L 240.3 72 240.3 63.55 238.05 63.55 238.05 72
M 225 63.55
L 222.8 63.55 222.8 69.65
Q 222.45 70.3 221.7 70.3 220.9 70.3 220.85 69.1
L 220.85 63.55 218.65 63.55 218.65 69
Q 218.65 70.55 219.25 71.35 219.85 72.15 221 72.15 222.15 72.15 222.85 71.25
L 222.9 72 225 72 225 63.55
M 232.2 64.4
Q 231.4 63.4 229.8 63.4 228.15 63.4 227.3 64.5 226.4 65.55 226.4 67.55
L 226.4 68.25
Q 226.4 70.15 227.35 71.15 228.3 72.15 230 72.15 230.95 72.15 231.7 71.8 232.45 71.45 232.9 70.9
L 232 69.55
Q 231.25 70.3 230.15 70.3 229.4 70.3 229.05 69.9 228.65 69.45 228.6 68.5
L 233 68.5 233 67.4
Q 233 65.45 232.2 64.4
M 230.85 66.95
L 228.65 66.95
Q 228.7 66.05 228.95 65.65 229.2 65.25 229.8 65.25 230.35 65.25 230.6 65.6 230.8 66 230.85 66.75
L 230.85 66.95
M 238.3 60.5
Q 237.95 60.85 237.95 61.35 237.95 61.85 238.3 62.2 238.6 62.55 239.15 62.55 239.7 62.55 240.05 62.2 240.35 61.85 240.35 61.35 240.35 60.85 240.05 60.5 239.7 60.2 239.15 60.2 238.6 60.2 238.3 60.5
M 244.15 65.85
Q 244.5 65.25 245.1 65.25 245.65 65.25 245.85 65.55 246.1 65.9 246.1 66.6
L 246.1 72 248.3 72 248.3 66.45
Q 248.25 63.4 246.05 63.4 244.85 63.4 244.1 64.4
L 244.05 63.55 241.95 63.55 241.95 72 244.15 72 244.15 65.85
M 249.8 65.95
Q 249.8 66.85 250.3 67.4 250.8 68 252.2 68.55 253.1 69 253.4 69.2 253.65 69.45 253.65 69.75 253.65 70.55 252.75 70.55 252.2 70.55 251.95 70.25 251.65 69.95 251.65 69.4
L 249.55 69.4
Q 249.55 70.15 249.95 70.8 250.35 71.45 251.05 71.8 251.8 72.15 252.7 72.15 254.1 72.15 254.95 71.45 255.8 70.8 255.8 69.65 255.8 68.65 255.25 68.05 254.7 67.45 253.35 66.95 252.4 66.55 252.15 66.35 251.9 66.1 251.9 65.85 251.9 65.45 252.1 65.25 252.35 65 252.7 65 253.55 65 253.55 66.05
L 255.75 66.05
Q 255.75 64.85 254.95 64.1 254.1 63.4 252.7 63.4 251.4 63.4 250.6 64.1 249.8 64.85 249.8 65.95
M 263.75 68.05
L 263.75 67.4
Q 263.75 65.35 263.05 64.4 262.35 63.4 261 63.4 259.9 63.4 259.3 64.3
L 259.2 63.55 257.15 63.55 257.15 75.25 259.35 75.25 259.35 71.3
Q 260 72.15 261 72.15 262.35 72.15 263.05 71.1 263.75 70.05 263.75 68.05
M 261.25 65.75
Q 261.55 66.25 261.55 67.5
L 261.55 68.05
Q 261.55 69.2 261.3 69.75 261.05 70.3 260.35 70.3 259.65 70.3 259.35 69.75
L 259.35 65.8
Q 259.7 65.25 260.35 65.25 261 65.25 261.25 65.75
M 267.4 63.55
L 265.15 63.55 265.15 72 267.4 72 267.4 63.55
M 273.3 63.5
Q 273.05 63.4 272.7 63.4 271.75 63.4 271.25 64.45
L 271.2 63.55 269.1 63.55 269.1 72 271.3 72 271.3 66.4
Q 271.65 65.6 272.55 65.6
L 273.3 65.7 273.3 63.5
M 267.45 61.35
Q 267.45 60.85 267.15 60.5 266.8 60.2 266.25 60.2 265.7 60.2 265.4 60.5 265.05 60.85 265.05 61.35 265.05 61.85 265.4 62.2 265.7 62.55 266.25 62.55 266.8 62.55 267.15 62.2 267.45 61.85 267.45 61.35
M 139.6 71.85
Q 139.6 72.75 139.1 73.7
L 138.8 74.25 139.95 74.85
Q 140.65 74.25 141.1 73.35 141.5 72.5 141.5 71.65
L 141.5 70.1 139.6 70.1 139.6 71.85
M 131.45 67.55
L 131.45 68.25
Q 131.45 70.15 132.4 71.15 133.35 72.15 135.05 72.15 136 72.15 136.75 71.8 137.5 71.45 137.95 70.9
L 137.05 69.55
Q 136.3 70.3 135.2 70.3 134.45 70.3 134.1 69.9 133.7 69.45 133.65 68.5
L 138.05 68.5 138.05 67.4
Q 138.05 65.45 137.25 64.4 136.45 63.4 134.85 63.4 133.2 63.4 132.35 64.5 131.45 65.55 131.45 67.55
M 133.7 66.95
Q 133.75 66.05 134 65.65 134.25 65.25 134.85 65.25 135.4 65.25 135.65 65.6 135.85 66 135.9 66.75
L 135.9 66.95 133.7 66.95
M 129.95 60
L 127.7 60 127.7 72 129.95 72 129.95 60
M 149.05 63.55
L 146.95 63.55 146.95 72 149.15 72 149.15 65.85
Q 149.5 65.25 150.1 65.25 150.6 65.25 150.8 65.55 150.95 65.9 150.95 66.6
L 150.95 72 153.2 72 153.2 66.25 153.15 66
Q 153.45 65.25 154.1 65.25 154.55 65.25 154.8 65.55 155 65.85 155 66.6
L 155 72 157.2 72 157.2 66.45
Q 157.15 63.4 154.9 63.4 153.55 63.4 152.85 64.55 152.3 63.4 151.05 63.4 149.85 63.4 149.1 64.35
L 149.05 63.55
M 180.3 64.4
Q 179.5 63.4 177.9 63.4 176.25 63.4 175.4 64.5 174.5 65.55 174.5 67.55
L 174.5 68.25
Q 174.5 70.15 175.45 71.15 176.4 72.15 178.1 72.15 179.05 72.15 179.8 71.8 180.55 71.45 181 70.9
L 180.1 69.55
Q 179.35 70.3 178.25 70.3 177.5 70.3 177.15 69.9 176.75 69.45 176.7 68.5
L 181.1 68.5 181.1 67.4
Q 181.1 65.45 180.3 64.4
M 177.9 65.25
Q 178.45 65.25 178.7 65.6 178.9 66 178.95 66.75
L 178.95 66.95 176.75 66.95
Q 176.8 66.05 177.05 65.65 177.3 65.25 177.9 65.25
M 165.4 68.05
L 165.4 67.5
Q 165.4 65.6 164.5 64.5 163.6 63.4 161.95 63.4 160.35 63.4 159.45 64.5 158.55 65.6 158.55 67.5
L 158.55 68.05
Q 158.55 70 159.45 71.05 160.35 72.15 162 72.15 163.6 72.15 164.5 71.05 165.4 70 165.4 68.05
M 162.85 65.8
Q 163.2 66.35 163.2 67.5
L 163.2 68.45
Q 163.1 70.3 162 70.3 160.75 70.3 160.75 68.05
L 160.75 67.5
Q 160.75 66.35 161.1 65.8 161.4 65.25 161.95 65.25 162.55 65.25 162.85 65.8
M 169.2 63.4
Q 167.85 63.4 167.15 64.4 166.45 65.45 166.45 67.5
L 166.45 68.15
Q 166.45 70.15 167.2 71.15 167.85 72.15 169.2 72.15 170.25 72.15 170.95 71.15
L 171.05 72 173.05 72 173.05 60 170.85 60 170.85 64.25
Q 170.2 63.4 169.2 63.4
M 168.7 67.5
Q 168.7 66.25 168.95 65.75 169.25 65.25 169.85 65.25 170.5 65.25 170.85 65.85
L 170.85 69.75
Q 170.5 70.3 169.85 70.3 169.2 70.3 168.95 69.8 168.7 69.3 168.7 68.05
L 168.7 67.5
M 201.5 66.2
Q 201.5 64.85 200.75 64.1 199.95 63.4 198.55 63.4 197.25 63.4 196.35 64.15 195.45 64.9 195.45 66.1
L 197.7 66.1
Q 197.7 65.1 198.5 65.1 198.9 65.1 199.1 65.35 199.25 65.6 199.25 66.15
L 199.25 66.85 198.6 66.85
Q 197 66.85 196.15 67.6 195.3 68.3 195.3 69.65 195.3 70.75 196 71.45 196.7 72.15 197.75 72.15 198.8 72.15 199.4 71.35 199.5 71.8 199.55 72
L 201.8 72 201.8 71.85
Q 201.5 71.25 201.5 70.15
L 201.5 66.2
M 198.25 70.4
Q 197.55 70.4 197.55 69.5 197.55 68.9 197.85 68.5 198.2 68.15 198.75 68.15
L 199.25 68.15 199.25 69.9
Q 199.15 70.15 198.9 70.25 198.65 70.4 198.25 70.4
M 186.55 65.7
L 186.55 63.5
Q 186.3 63.4 185.95 63.4 185 63.4 184.5 64.45
L 184.45 63.55 182.35 63.55 182.35 72 184.55 72 184.55 66.4
Q 184.9 65.6 185.8 65.6
L 186.55 65.7
M 189.8 65.85
Q 190.15 65.25 190.75 65.25 191.3 65.25 191.5 65.55 191.75 65.9 191.75 66.6
L 191.75 72 193.95 72 193.95 66.45
Q 193.9 63.4 191.7 63.4 190.5 63.4 189.75 64.4
L 189.7 63.55 187.6 63.55 187.6 72 189.8 72 189.8 65.85
M 119.7 60
L 119.7 72 121.75 72 121.8 71.15
Q 122.5 72.15 123.6 72.15 125 72.15 125.65 71.15 126.3 70.1 126.3 68.05
L 126.3 67.4
Q 126.3 65.45 125.65 64.4 124.95 63.4 123.55 63.4 122.55 63.4 121.9 64.25
L 121.9 60 119.7 60
M 121.9 65.9
Q 122.25 65.25 122.95 65.25 123.55 65.25 123.85 65.7 124.1 66.15 124.1 67.5
L 124.1 68.3
Q 124.05 69.5 123.85 69.9 123.6 70.3 122.95 70.3 122.2 70.3 121.9 69.75
L 121.9 65.9
M 66.7 65.7
L 66.7 63.5
Q 66.45 63.4 66.1 63.4 65.15 63.4 64.65 64.45
L 64.6 63.55 62.5 63.55 62.5 72 64.7 72 64.7 66.4
Q 65.05 65.6 65.95 65.6
L 66.7 65.7
M 67.7 66.1
L 69.95 66.1
Q 69.95 65.1 70.75 65.1 71.15 65.1 71.35 65.35 71.5 65.6 71.5 66.15
L 71.5 66.85 70.85 66.85
Q 69.25 66.85 68.4 67.6 67.55 68.3 67.55 69.65 67.55 70.75 68.25 71.45 68.95 72.15 70 72.15 71.05 72.15 71.65 71.35 71.75 71.8 71.8 72
L 74.05 72 74.05 71.85
Q 73.75 71.25 73.75 70.15
L 73.75 66.2
Q 73.75 64.85 73 64.1 72.2 63.4 70.8 63.4 69.5 63.4 68.6 64.15 67.7 64.9 67.7 66.1
M 70.5 70.4
Q 69.8 70.4 69.8 69.5 69.8 68.9 70.1 68.5 70.45 68.15 71 68.15
L 71.5 68.15 71.5 69.9
Q 71.4 70.15 71.15 70.25 70.9 70.4 70.5 70.4
M 79.05 61.7
Q 79.4 61.7 79.6 61.75
L 79.6 60
Q 79 59.85 78.6 59.85 77.35 59.85 76.6 60.6 75.85 61.4 75.85 62.8
L 75.85 63.55 74.85 63.55 74.85 65.2 75.85 65.2 75.85 72 78.1 72 78.1 65.2 79.4 65.2 79.4 63.55 78.1 63.55 78.1 62.85
Q 78.1 61.7 79.05 61.7
M 82.95 72
L 82.95 63.55 80.7 63.55 80.7 72 82.95 72
M 88.35 66.15
L 88.35 66.85 87.7 66.85
Q 86.1 66.85 85.25 67.6 84.4 68.3 84.4 69.65 84.4 70.75 85.1 71.45 85.8 72.15 86.85 72.15 87.9 72.15 88.5 71.35 88.6 71.8 88.65 72
L 90.9 72 90.9 71.85
Q 90.6 71.25 90.6 70.15
L 90.6 66.2
Q 90.6 64.85 89.85 64.1 89.05 63.4 87.65 63.4 86.35 63.4 85.45 64.15 84.55 64.9 84.55 66.1
L 86.8 66.1
Q 86.8 65.1 87.6 65.1 88 65.1 88.2 65.35 88.35 65.6 88.35 66.15
M 87.35 70.4
Q 86.65 70.4 86.65 69.5 86.65 68.9 86.95 68.5 87.3 68.15 87.85 68.15
L 88.35 68.15 88.35 69.9
Q 88.25 70.15 88 70.25 87.75 70.4 87.35 70.4
M 83 61.35
Q 83 60.85 82.7 60.5 82.35 60.2 81.8 60.2 81.25 60.2 80.95 60.5 80.6 60.85 80.6 61.35 80.6 61.85 80.95 62.2 81.25 62.55 81.8 62.55 82.35 62.55 82.7 62.2 83 61.85 83 61.35
M 98.25 60
L 96 60 96 72 98.25 72 98.25 60
M 118 63.55
L 115.75 63.55 115.75 72 118 72 118 63.55
M 105.55 64.4
Q 104.75 63.4 103.15 63.4 101.5 63.4 100.65 64.5 99.75 65.55 99.75 67.55
L 99.75 68.25
Q 99.75 70.15 100.7 71.15 101.65 72.15 103.35 72.15 104.3 72.15 105.05 71.8 105.8 71.45 106.25 70.9
L 105.35 69.55
Q 104.6 70.3 103.5 70.3 102.75 70.3 102.4 69.9 102 69.45 101.95 68.5
L 106.35 68.5 106.35 67.4
Q 106.35 65.45 105.55 64.4
M 102 66.95
Q 102.05 66.05 102.3 65.65 102.55 65.25 103.15 65.25 103.7 65.25 103.95 65.6 104.15 66 104.2 66.75
L 104.2 66.95 102 66.95
M 110.2 63.4
Q 108.85 63.4 108.1 64.4 107.35 65.45 107.35 67.5
L 107.35 68.15
Q 107.35 70.05 108.1 71.1 108.85 72.15 110.2 72.15 111.2 72.15 111.85 71.35
L 111.85 72.05
Q 111.8 72.85 111.5 73.2 111.2 73.55 110.45 73.55 110 73.55 109.5 73.35 109 73.15 108.7 72.8
L 107.95 74.35
Q 108.3 74.75 109.05 75.05 109.85 75.35 110.55 75.35 112.25 75.35 113.15 74.5 114.05 73.6 114.05 72
L 114.05 63.55 112.05 63.55 111.95 64.3
Q 111.35 63.4 110.2 63.4
M 109.85 65.8
Q 110.2 65.25 110.85 65.25 111.5 65.25 111.85 65.8
L 111.85 69.8
Q 111.5 70.3 110.8 70.3 110.15 70.3 109.85 69.8 109.55 69.25 109.55 68.05
L 109.55 67.5
Q 109.55 66.3 109.85 65.8
M 116 60.5
Q 115.65 60.85 115.65 61.35 115.65 61.85 116 62.2 116.3 62.55 116.85 62.55 117.4 62.55 117.75 62.2 118.05 61.85 118.05 61.35 118.05 60.85 117.75 60.5 117.4 60.2 116.85 60.2 116.3 60.2 116 60.5
M 60.9 72
L 60.9 63.55 58.9 63.55 58.8 64.3
Q 58.2 63.4 57.05 63.4 55.7 63.4 54.95 64.4 54.2 65.45 54.2 67.5
L 54.2 68.15
Q 54.2 70.05 54.95 71.1 55.7 72.15 57.05 72.15 58.05 72.15 58.7 71.35
L 58.7 72.05
Q 58.65 72.85 58.35 73.2 58.05 73.55 57.3 73.55 56.85 73.55 56.35 73.35 55.85 73.15 55.55 72.8
L 54.8 74.35
Q 55.15 74.75 55.9 75.05 56.7 75.35 57.4 75.35 59.1 75.35 60 74.5 60.9 73.6 60.9 72
M 56.4 68.05
L 56.4 67.5
Q 56.4 66.3 56.7 65.8 57.05 65.25 57.7 65.25 58.35 65.25 58.7 65.8
L 58.7 69.8
Q 58.35 70.3 57.65 70.3 57 70.3 56.7 69.8 56.4 69.25 56.4 68.05
M 46.25 67.5
L 46.25 68.05
Q 46.25 70 47.15 71.05 48.05 72.15 49.7 72.15 51.3 72.15 52.2 71.05 53.1 70 53.1 68.05
L 53.1 67.5
Q 53.1 65.6 52.2 64.5 51.3 63.4 49.65 63.4 48.05 63.4 47.15 64.5 46.25 65.6 46.25 67.5
M 48.45 67.5
Q 48.45 66.35 48.8 65.8 49.1 65.25 49.65 65.25 50.25 65.25 50.55 65.8 50.9 66.35 50.9 67.5
L 50.9 68.45
Q 50.8 70.3 49.7 70.3 48.45 70.3 48.45 68.05
L 48.45 67.5
M 38.6 63.55
L 38.6 75.25 40.8 75.25 40.8 71.3
Q 41.45 72.15 42.45 72.15 43.8 72.15 44.5 71.1 45.2 70.05 45.2 68.05
L 45.2 67.4
Q 45.2 65.35 44.5 64.4 43.8 63.4 42.45 63.4 41.35 63.4 40.75 64.3
L 40.65 63.55 38.6 63.55
M 42.7 65.75
Q 43 66.25 43 67.5
L 43 68.05
Q 43 69.2 42.75 69.75 42.5 70.3 41.8 70.3 41.1 70.3 40.8 69.75
L 40.8 65.8
Q 41.15 65.25 41.8 65.25 42.45 65.25 42.7 65.75
M 34.65 72
L 36.9 72 36.9 63.55 34.65 63.55 34.65 72
M 30 65.2
L 30 69.7
Q 30.05 72.15 32.2 72.15 32.85 72.15 33.4 71.95
L 33.4 70.25
Q 33.2 70.3 32.9 70.3 32.5 70.3 32.35 70.1 32.25 69.9 32.25 69.4
L 32.25 65.2 33.35 65.2 33.35 63.55 32.25 63.55 32.25 61.45 30 61.45 30 63.55 29.05 63.55 29.05 65.2 30 65.2
M 34.9 60.5
Q 34.55 60.85 34.55 61.35 34.55 61.85 34.9 62.2 35.2 62.55 35.75 62.55 36.3 62.55 36.65 62.2 36.95 61.85 36.95 61.35 36.95 60.85 36.65 60.5 36.3 60.2 35.75 60.2 35.2 60.2 34.9 60.5 Z"/>

<path fill="#068107" stroke="none" d="
M 272.65 32.3
Q 270.2 32.3 268.9 33.9 267.55 35.55 267.55 38.55
L 267.55 39.55
Q 267.55 42.4 269 43.9 270.4 45.45 273 45.45 274.35 45.45 275.5 44.9 276.65 44.4 277.25 43.55
L 275.95 41.55
Q 274.85 42.7 273.2 42.7 272.05 42.7 271.5 42 270.95 41.4 270.85 39.95
L 277.45 39.95 277.45 38.35
Q 277.45 35.35 276.25 33.8 275.05 32.3 272.65 32.3
M 271.35 35.65
Q 271.75 35.05 272.6 35.05 273.5 35.05 273.85 35.65 274.2 36.2 274.2 37.35
L 274.2 37.65 270.9 37.65
Q 270.95 36.3 271.35 35.65
M 248.5 39.25
L 254.2 39.25 254.2 36.5 248.5 36.5 248.5 39.25
M 259.95 35.95
Q 259.95 35.35 260.3 35.05 260.65 34.7 261.15 34.7 262.45 34.7 262.45 36.25
L 265.75 36.25
Q 265.75 34.45 264.5 33.35 263.25 32.3 261.15 32.3 259.2 32.3 258 33.4 256.8 34.45 256.8 36.1 256.8 37.45 257.55 38.35 258.3 39.2 260.35 40.05 261.75 40.65 262.15 41.05 262.55 41.4 262.55 41.8 262.55 43 261.25 43 260.35 43 260 42.6 259.6 42.15 259.6 41.25
L 256.45 41.25
Q 256.45 42.4 257.05 43.35 257.65 44.35 258.7 44.9 259.75 45.45 261.15 45.45 263.25 45.45 264.5 44.4 265.8 43.35 265.8 41.65 265.8 40.2 264.95 39.3 264.1 38.35 262.1 37.6 260.7 37 260.3 36.7 259.95 36.4 259.95 35.95
M 290.8 32.5
L 287.45 32.5 287.45 45.2 290.8 45.2 290.8 32.5
M 284.5 35.65
L 285.6 35.7 285.65 32.45
Q 285.3 32.3 284.75 32.3 283.35 32.3 282.55 33.9
L 282.45 32.5 279.35 32.5 279.35 45.2 282.65 45.2 282.65 36.8
Q 283.15 35.65 284.5 35.65
M 290.4 27.95
Q 289.95 27.5 289.1 27.5 288.3 27.5 287.8 27.95 287.3 28.45 287.3 29.25 287.3 30 287.8 30.5 288.3 31 289.1 31 289.95 31 290.45 30.5 290.9 30 290.9 29.25 290.9 28.45 290.4 27.95
M 299.75 29.85
L 299.75 27.2
Q 298.85 26.95 298.25 26.95 296.3 26.95 295.25 28.15 294.15 29.3 294.1 31.4
L 294.1 32.5 292.6 32.5 292.6 35 294.1 35 294.1 45.2 297.45 45.2 297.45 35 299.45 35 299.45 32.5 297.45 32.5 297.45 31.5
Q 297.45 29.75 298.9 29.75 299.4 29.75 299.75 29.85
M 244.9 44.4
Q 246.2 43.35 246.2 41.65 246.2 40.2 245.35 39.3 244.5 38.35 242.5 37.6 241.1 37 240.7 36.7 240.35 36.4 240.35 35.95 240.35 35.35 240.7 35.05 241.05 34.7 241.55 34.7 242.85 34.7 242.85 36.25
L 246.15 36.25
Q 246.15 34.45 244.9 33.35 243.65 32.3 241.55 32.3 239.6 32.3 238.4 33.4 237.2 34.45 237.2 36.1 237.2 37.45 237.95 38.35 238.7 39.2 240.75 40.05 242.15 40.65 242.55 41.05 242.95 41.4 242.95 41.8 242.95 43 241.65 43 240.75 43 240.4 42.6 240 42.15 240 41.25
L 236.85 41.25
Q 236.85 42.4 237.45 43.35 238.05 44.35 239.1 44.9 240.15 45.45 241.55 45.45 243.65 45.45 244.9 44.4
M 155.25 36.85
Q 155.15 32.3 151.9 32.3 150.05 32.3 148.95 33.75
L 148.85 32.5 145.75 32.5 145.75 45.2 149.05 45.2 149.05 36
Q 149.55 35.05 150.45 35.05 151.25 35.05 151.6 35.55 151.9 36.05 151.9 37.1
L 151.9 45.2 155.25 45.2 155.25 36.85
M 191.55 47.75
L 191.1 48.6 192.9 49.5
Q 193.95 48.6 194.6 47.25 195.2 45.9 195.2 44.65
L 195.2 42.3 192.35 42.3 192.35 44.95
Q 192.3 46.35 191.55 47.75
M 179.55 38.45
L 179.55 39.45
Q 179.6 42.4 180.65 43.9 181.7 45.45 183.7 45.45 185.3 45.45 186.3 43.9
L 186.45 45.2 189.45 45.2 189.45 27.2 186.1 27.2 186.1 33.55
Q 185.15 32.3 183.7 32.3 181.65 32.3 180.6 33.8 179.55 35.35 179.55 38.45
M 184.65 35.05
Q 185.65 35.05 186.1 36
L 186.1 41.8
Q 185.6 42.65 184.65 42.65 183.7 42.65 183.3 41.95 182.9 41.2 182.9 39.3
L 182.9 38.45
Q 182.9 36.55 183.3 35.8 183.75 35.05 184.65 35.05
M 166.4 36.25
Q 166.4 34.45 165.15 33.35 163.9 32.3 161.8 32.3 159.85 32.3 158.65 33.4 157.45 34.45 157.45 36.1 157.45 37.45 158.2 38.35 158.95 39.2 161 40.05 162.4 40.65 162.8 41.05 163.2 41.4 163.2 41.8 163.2 43 161.9 43 161 43 160.65 42.6 160.25 42.15 160.25 41.25
L 157.1 41.25
Q 157.1 42.4 157.7 43.35 158.3 44.35 159.35 44.9 160.4 45.45 161.8 45.45 163.9 45.45 165.15 44.4 166.45 43.35 166.45 41.65 166.45 40.2 165.6 39.3 164.75 38.35 162.75 37.6 161.35 37 160.95 36.7 160.6 36.4 160.6 35.95 160.6 35.35 160.95 35.05 161.3 34.7 161.8 34.7 163.1 34.7 163.1 36.25
L 166.4 36.25
M 176.9 33.8
Q 175.7 32.3 173.3 32.3 170.85 32.3 169.55 33.9 168.2 35.55 168.2 38.55
L 168.2 39.55
Q 168.2 42.4 169.65 43.9 171.05 45.45 173.65 45.45 175 45.45 176.15 44.9 177.3 44.4 177.9 43.55
L 176.6 41.55
Q 175.5 42.7 173.85 42.7 172.7 42.7 172.15 42 171.6 41.4 171.5 39.95
L 178.1 39.95 178.1 38.35
Q 178.1 35.35 176.9 33.8
M 173.25 35.05
Q 174.15 35.05 174.5 35.65 174.85 36.2 174.85 37.35
L 174.85 37.65 171.55 37.65
Q 171.6 36.3 172 35.65 172.4 35.05 173.25 35.05
M 228.7 33.75
L 228.6 32.5 225.5 32.5 225.5 45.2 228.8 45.2 228.8 36
Q 229.3 35.05 230.2 35.05 231 35.05 231.35 35.55 231.65 36.05 231.65 37.1
L 231.65 45.2 235 45.2 235 36.85
Q 234.9 32.3 231.65 32.3 229.8 32.3 228.7 33.75
M 204.4 33.4
Q 203.2 34.45 203.2 36.1 203.2 37.45 203.95 38.35 204.7 39.2 206.75 40.05 208.15 40.65 208.55 41.05 208.95 41.4 208.95 41.8 208.95 43 207.65 43 206.75 43 206.4 42.6 206 42.15 206 41.25
L 202.85 41.25
Q 202.85 42.4 203.45 43.35 204.05 44.35 205.1 44.9 206.15 45.45 207.55 45.45 209.65 45.45 210.9 44.4 212.2 43.35 212.2 41.65 212.2 40.2 211.35 39.3 210.5 38.35 208.5 37.6 207.1 37 206.7 36.7 206.35 36.4 206.35 35.95 206.35 35.35 206.7 35.05 207.05 34.7 207.55 34.7 208.85 34.7 208.85 36.25
L 212.15 36.25
Q 212.15 34.45 210.9 33.35 209.65 32.3 207.55 32.3 205.6 32.3 204.4 33.4
M 219.55 35.25
Q 219.85 35.6 219.85 36.45
L 219.85 37.45 218.85 37.45
Q 216.45 37.5 215.15 38.55 213.9 39.65 213.9 41.65 213.9 43.35 214.95 44.4 216 45.45 217.6 45.45 219.1 45.45 220 44.2 220.15 44.9 220.3 45.2
L 223.6 45.2 223.6 45
Q 223.2 44.1 223.15 42.45
L 223.15 36.45
Q 223.15 34.45 222 33.4 220.85 32.3 218.8 32.3 216.75 32.3 215.45 33.45 214.15 34.55 214.15 36.35
L 217.45 36.35
Q 217.45 34.9 218.7 34.9 219.25 34.9 219.55 35.25
M 217.7 40
Q 218.2 39.45 219.05 39.45
L 219.85 39.45 219.85 42.1
Q 219.65 42.4 219.25 42.6 218.85 42.85 218.3 42.85 217.2 42.85 217.2 41.45 217.2 40.5 217.7 40
M 139.1 32.3
Q 136.65 32.3 135.35 33.9 134 35.55 134 38.55
L 134 39.55
Q 134 42.4 135.45 43.9 136.85 45.45 139.45 45.45 140.8 45.45 141.95 44.9 143.1 44.4 143.7 43.55
L 142.4 41.55
Q 141.3 42.7 139.65 42.7 138.5 42.7 137.95 42 137.4 41.4 137.3 39.95
L 143.9 39.95 143.9 38.35
Q 143.9 35.35 142.7 33.8 141.5 32.3 139.1 32.3
M 137.8 35.65
Q 138.2 35.05 139.05 35.05 139.95 35.05 140.3 35.65 140.65 36.2 140.65 37.35
L 140.65 37.65 137.35 37.65
Q 137.4 36.3 137.8 35.65
M 128.5 27.2
L 128.5 33.55
Q 127.55 32.3 126.1 32.3 124.05 32.3 123 33.8 121.95 35.35 121.95 38.45
L 121.95 39.45
Q 122 42.4 123.05 43.9 124.1 45.45 126.1 45.45 127.7 45.45 128.7 43.9
L 128.85 45.2 131.85 45.2 131.85 27.2 128.5 27.2
M 125.7 35.8
Q 126.15 35.05 127.05 35.05 128.05 35.05 128.5 36
L 128.5 41.8
Q 128 42.65 127.05 42.65 126.1 42.65 125.7 41.95 125.3 41.2 125.3 39.3
L 125.3 38.45
Q 125.3 36.55 125.7 35.8
M 113.85 36
Q 114.35 35.05 115.25 35.05 116.05 35.05 116.4 35.55 116.7 36.05 116.7 37.1
L 116.7 45.2 120.05 45.2 120.05 36.85
Q 119.95 32.3 116.7 32.3 114.85 32.3 113.75 33.75
L 113.65 32.5 110.55 32.5 110.55 45.2 113.85 45.2 113.85 36
M 98.25 39.25
Q 98.25 42.15 99.65 43.8 101 45.45 103.4 45.45 105.85 45.45 107.2 43.8 108.55 42.2 108.55 39.3
L 108.55 38.45
Q 108.55 35.55 107.2 33.95 105.8 32.3 103.4 32.3 101 32.3 99.65 33.95 98.25 35.55 98.25 38.45
L 98.25 39.25
M 103.4 35.05
Q 104.25 35.05 104.75 35.9 105.25 36.7 105.25 38.45
L 105.2 39.85
Q 105.1 42.7 103.4 42.7 101.6 42.7 101.6 39.3
L 101.6 38.45
Q 101.6 36.7 102.1 35.9 102.55 35.05 103.4 35.05
M 92.7 31.45
Q 93.2 32.15 93.25 33.95
L 96.7 33.95
Q 96.5 31 95.05 29.45 93.6 27.9 90.85 27.9 88 27.9 86.4 29.8 84.8 31.7 84.8 35.25
L 84.8 38.1
Q 84.8 41.65 86.35 43.55 87.9 45.45 90.8 45.45 93.55 45.45 95.05 43.95 96.55 42.45 96.7 39.5
L 93.25 39.5
Q 93.15 41.25 92.65 41.9 92.15 42.6 90.8 42.6 89.4 42.6 88.85 41.65 88.25 40.7 88.25 38.15
L 88.25 34.9
Q 88.3 32.7 88.85 31.75 89.45 30.75 90.85 30.75 92.2 30.75 92.7 31.45
M 76 33.95
Q 74.6 32.3 72.2 32.3 69.8 32.3 68.45 33.95 67.05 35.55 67.05 38.45
L 67.05 39.25
Q 67.05 42.15 68.45 43.8 69.8 45.45 72.2 45.45 74.65 45.45 76 43.8 77.35 42.2 77.35 39.3
L 77.35 38.45
Q 77.35 35.55 76 33.95
M 70.9 35.9
Q 71.35 35.05 72.2 35.05 73.05 35.05 73.55 35.9 74.05 36.7 74.05 38.45
L 74 39.85
Q 73.9 42.7 72.2 42.7 70.4 42.7 70.4 39.3
L 70.4 38.45
Q 70.4 36.7 70.9 35.9
M 59.2 35
L 60.65 35 60.65 41.75
Q 60.7 45.45 63.9 45.45 64.9 45.45 65.7 45.1
L 65.75 42.55
Q 65.45 42.6 64.95 42.6 64.35 42.6 64.15 42.35 63.95 42.05 63.95 41.3
L 63.95 35 65.65 35 65.65 32.5 63.95 32.5 63.95 29.4 60.65 29.4 60.65 32.5 59.2 32.5 59.2 35
M 56.7 33.95
Q 55.3 32.3 52.9 32.3 50.5 32.3 49.15 33.95 47.75 35.55 47.75 38.45
L 47.75 39.25
Q 47.75 42.15 49.15 43.8 50.5 45.45 52.9 45.45 55.35 45.45 56.7 43.8 58.05 42.2 58.05 39.3
L 58.05 38.45
Q 58.05 35.55 56.7 33.95
M 51.6 35.9
Q 52.05 35.05 52.9 35.05 53.75 35.05 54.25 35.9 54.75 36.7 54.75 38.45
L 54.7 39.85
Q 54.6 42.7 52.9 42.7 51.1 42.7 51.1 39.3
L 51.1 38.45
Q 51.1 36.7 51.6 35.9
M 45.15 33.8
Q 44.15 32.3 42.05 32.3 40.5 32.3 39.55 33.55
L 39.55 27.2 36.25 27.2 36.25 45.2 39.3 45.2 39.4 43.95
Q 40.4 45.45 42.05 45.45 44.2 45.45 45.15 43.9 46.15 42.35 46.15 39.25
L 46.15 38.3
Q 46.1 35.35 45.15 33.8
M 41.1 35.05
Q 42.05 35.05 42.45 35.75 42.85 36.45 42.85 38.45
L 42.85 39.65
Q 42.8 41.45 42.45 42.05 42.05 42.7 41.1 42.7 40 42.7 39.55 41.8
L 39.55 36
Q 40.05 35.05 41.1 35.05
M 29.05 32.3
Q 26.65 32.3 25.3 33.95 23.9 35.55 23.9 38.45
L 23.9 39.25
Q 23.9 42.15 25.3 43.8 26.65 45.45 29.05 45.45 31.5 45.45 32.85 43.8 34.2 42.2 34.2 39.3
L 34.2 38.45
Q 34.2 35.55 32.85 33.95 31.45 32.3 29.05 32.3
M 27.75 35.9
Q 28.2 35.05 29.05 35.05 29.9 35.05 30.4 35.9 30.9 36.7 30.9 38.45
L 30.85 39.85
Q 30.75 42.7 29.05 42.7 27.25 42.7 27.25 39.3
L 27.25 38.45
Q 27.25 36.7 27.75 35.9
M 16.7 28.15
L 11.2 28.15 11.2 45.2 14.65 45.2 14.65 38.95 16.35 38.95 18.9 45.2 22.6 45.2 22.6 45.05 19.6 38.05
Q 22.1 36.7 22.1 33.3 22.1 30.8 20.7 29.5 19.25 28.15 16.7 28.15
M 14.65 36.1
L 14.65 31 16.65 31
Q 18.65 31 18.65 33.6 18.65 34.7 18.15 35.4 17.6 36.1 16.6 36.1
L 14.65 36.1 Z"/>
</g>

<g id="psc_logo_0_Layer0_0_FILL">
<path fill="#068107" stroke="none" d="
M 106.2 54.7
L 143.6 69.65 143.6 39.75 106.2 54.7
M -10.35 149.45
L -19.95 153.25 -6.9 158.45 -6.9 150.85 -10.35 149.45
M -33.4 147.9
L -23.9 144.1 -33.45 140.3 -33.45 147.9 -33.4 147.9
M -100.35 57
L -139.9 41.2 -139.9 117.1 -100.35 101.35 -100.35 57
M -139.9 -37.75
L -139.9 -4.55 -98.3 -21.15 -139.9 -37.75
M 2.55 -61.4
L 44.2 -78.05 44.2 -155.3 -94.2 -100.05 2.55 -61.4 Z"/>

<path fill="#069D0A" stroke="none" d="
M -40 111
L -20 119 0 126.95 143.6 69.65 106.2 54.7 0 97.05 -2.55 96.05 -40 111
M -98.3 -21.15
L -139.9 -4.55 -40.2 35.25 -40.2 2.05 -98.3 -21.15
M 185.35 -22.7
L 144.55 -39 42 1.95 42.05 34.55 185.35 -22.7 Z"/>

<path fill="#3EEB3D" stroke="none" d="
M -6.9 143.05
L -19.95 137.85 -20 137.85 -20 145.65 -10.35 149.45 -6.9 150.85 -6.9 158.45 -19.95 153.25 -20 153.25 -20 165 0 172.95 0 126.95 -20 119 -20 130.2 -10.35 134.05 -6.9 135.4 -6.9 143.05
M -40 111
L -40 122.2 -30.4 126.05 -26.9 127.45 -26.9 135.1 -40 129.85 -40 157 -20 165 -20 153.25 -33.4 147.9 -33.45 147.9 -33.45 140.3 -23.9 144.1 -20 145.65 -20 137.85 -20 130.2 -20 119 -40 111
M 44.2 -155.3
L 0 -172.95 -185.35 -98.95 -183.85 -98.35 0 -24.95 184.15 -98.5 185.35 -98.95 141.15 -116.6 2.8 -61.3 2.55 -61.4 -94.2 -100.05 44.2 -155.3 Z"/>

<path fill="#069106" stroke="none" d="
M -10.35 134.05
L -19.95 137.85 -6.9 143.05 -6.9 135.4 -10.35 134.05
M -26.9 127.45
L -30.4 126.05 -40 129.85 -26.9 135.1 -26.9 127.45
M -23.9 144.1
L -33.4 147.9 -20 153.25 -19.95 153.25 -10.35 149.45 -20 145.65 -23.9 144.1 Z"/>

<path fill="#06D705" stroke="none" d="
M -20 130.2
L -20 137.85 -19.95 137.85 -10.35 134.05 -20 130.2
M -183.85 -98.35
L -185.35 -98.95 -185.35 98.95 -139.9 117.1 -139.9 41.2 -100.35 57 -2.55 96.05 0 97.05 0 -24.95 -183.85 -98.35
M -139.9 -4.55
L -139.9 -37.75 -98.3 -21.15 -40.2 2.05 -40.2 35.25 -139.9 -4.55
M 185.35 -98.95
L 184.15 -98.5 0 -24.95 0 97.05 106.2 54.7 143.6 39.75 143.6 69.65 0 126.95 0 172.95 185.35 98.95 185.35 -22.7 42.05 34.55 42 1.95 144.55 -39 185.35 -55.3 185.35 -98.95 Z"/>
</g>

<g id="paleta_0_Layer0_0_FILL">
<path fill="#3EEB3D" stroke="none" d="
M 72.65 -102.7
Q 65.35 -110 55 -110 44.65 -110 37.3 -102.7 30 -95.35 30 -85 30 -74.65 37.3 -67.35 44.65 -60 55 -60 65.35 -60 72.65 -67.35 80 -74.65 80 -85 80 -95.35 72.65 -102.7 Z"/>
</g>

<g id="paleta_0_Layer0_1_FILL">
<path fill="#06D705" stroke="none" d="
M 72.65 -102.7
Q 65.35 -110 55 -110 44.65 -110 37.3 -102.7 30 -95.35 30 -85 30 -74.65 37.3 -67.35 44.65 -60 55 -60 65.35 -60 72.65 -67.35 80 -74.65 80 -85 80 -95.35 72.65 -102.7 Z"/>
</g>

<g id="paleta_0_Layer0_2_FILL">
<path fill="#069D0A" stroke="none" d="
M 72.65 -102.7
Q 65.35 -110 55 -110 44.65 -110 37.3 -102.7 30 -95.35 30 -85 30 -74.65 37.3 -67.35 44.65 -60 55 -60 65.35 -60 72.65 -67.35 80 -74.65 80 -85 80 -95.35 72.65 -102.7 Z"/>
</g>

<g id="paleta_0_Layer0_3_FILL">
<path fill="#068107" stroke="none" d="
M 72.65 -102.7
Q 65.35 -110 55 -110 44.65 -110 37.3 -102.7 30 -95.35 30 -85 30 -74.65 37.3 -67.35 44.65 -60 55 -60 65.35 -60 72.65 -67.35 80 -74.65 80 -85 80 -95.35 72.65 -102.7 Z"/>
</g>

<g id="paleta_0_Layer0_4_FILL">
<path fill="#83ED88" stroke="none" d="
M 72.65 -102.7
Q 65.35 -110 55 -110 44.65 -110 37.3 -102.7 30 -95.35 30 -85 30 -74.65 37.3 -67.35 44.65 -60 55 -60 65.35 -60 72.65 -67.35 80 -74.65 80 -85 80 -95.35 72.65 -102.7 Z"/>
</g>

<g id="paleta_0_Layer0_5_FILL">
<path fill="#5A708F" stroke="none" d="
M 72.65 -102.7
Q 65.35 -110 55 -110 44.65 -110 37.3 -102.7 30 -95.35 30 -85 30 -74.65 37.3 -67.35 44.65 -60 55 -60 65.35 -60 72.65 -67.35 80 -74.65 80 -85 80 -95.35 72.65 -102.7 Z"/>
</g>

<g id="paleta_0_Layer0_6_FILL">
<path fill="#374D6B" stroke="none" d="
M 72.65 -102.7
Q 65.35 -110 55 -110 44.65 -110 37.3 -102.7 30 -95.35 30 -85 30 -74.65 37.3 -67.35 44.65 -60 55 -60 65.35 -60 72.65 -67.35 80 -74.65 80 -85 80 -95.35 72.65 -102.7 Z"/>
</g>

<g id="paleta_0_Layer0_7_FILL">
<path fill="#05090D" stroke="none" d="
M 72.65 -102.7
Q 65.35 -110 55 -110 44.65 -110 37.3 -102.7 30 -95.35 30 -85 30 -74.65 37.3 -67.35 44.65 -60 55 -60 65.35 -60 72.65 -67.35 80 -74.65 80 -85 80 -95.35 72.65 -102.7 Z"/>
</g>

<g id="paleta_0_Layer0_8_FILL">
<path fill="#191F27" stroke="none" d="
M 72.65 -102.7
Q 65.35 -110 55 -110 44.65 -110 37.3 -102.7 30 -95.35 30 -85 30 -74.65 37.3 -67.35 44.65 -60 55 -60 65.35 -60 72.65 -67.35 80 -74.65 80 -85 80 -95.35 72.65 -102.7 Z"/>
</g>

<g id="paleta_0_Layer0_9_FILL">
<path fill="#88A0C2" stroke="none" d="
M 72.65 -102.7
Q 65.35 -110 55 -110 44.65 -110 37.3 -102.7 30 -95.35 30 -85 30 -74.65 37.3 -67.35 44.65 -60 55 -60 65.35 -60 72.65 -67.35 80 -74.65 80 -85 80 -95.35 72.65 -102.7 Z"/>
</g>

<path id="psc_logo_0_Layer0_0_1_STROKES" stroke="#83ED88" stroke-width="1" stroke-linejoin="round" stroke-linecap="round" fill="none" d="
M -183.85 -98.35
L 0 -24.95 184.15 -98.475
M 0 -24.95
L 0 97.05"/>

<path id="psc_logo_0_Layer0_0_2_STROKES" stroke="#069D0A" stroke-width="1" stroke-linejoin="round" stroke-linecap="round" fill="none" d="
M 0 172.95
L -20 165 -40 157 -40 129.85 -30.4 126.05 -40 122.2 -40 111 -2.55 96.05
M -98.3 -21.15
L -40.2 2.05 -40.2 35.25 -139.9 -4.55 -98.3 -21.15 Z
M -23.9 144.1
L -33.45 140.3 -33.45 147.9 -33.4 147.9 -20 153.25 -19.95 153.25
M -10.35 149.45
L -20 145.65 -23.9 144.1
M -30.4 126.05
L -26.9 127.45 -26.9 135.1 -40 129.85
M -20 130.2
L -20 119 -40 111
M -19.95 137.85
L -10.35 134.05 -20 130.2
M -10.35 134.05
L -6.9 135.4 -6.9 143.05 -19.95 137.85 -20 137.85 -20 145.65
M -20 153.25
L -20 165
M -10.35 149.45
L -6.9 150.85 -6.9 158.45 -19.95 153.25
M 106.2 54.7
L 143.6 69.65 0 126.95 0 172.95
M 0 126.95
L -20 119"/>

<path id="psc_logo_0_Layer0_0_3_STROKES" stroke="#06D705" stroke-width="1" stroke-linejoin="round" stroke-linecap="round" fill="none" d="
M -100.35 57
L -2.55 96.05
M 106.2 54.7
L 0 97.05 -2.55 96.05
M 106.2 54.7
L 143.6 39.75 143.6 69.65"/>
</defs>

<g transform="matrix( 1, 0, 0, 1, 0,0) ">
<use xlink:href="#Layer0_0_FILL"/>
</g>

<g transform="matrix( 1, 0, 0, 1, 1466.15,593.55) ">
<g transform="matrix( 1, 0, 0, 1, 0,0) ">
<use xlink:href="#psc_logo_0_Layer0_0_FILL"/>

<use xlink:href="#psc_logo_0_Layer0_0_1_STROKES"/>

<use xlink:href="#psc_logo_0_Layer0_0_2_STROKES"/>

<use xlink:href="#psc_logo_0_Layer0_0_3_STROKES"/>
</g>
</g>

<g transform="matrix( 1, 0, 0, 1, 115,-121.9) ">
<g transform="matrix( 1, 0, 0, 1, -115,53.1) ">
<use xlink:href="#paleta_0_Layer0_0_FILL"/>
</g>

<g transform="matrix( 1, 0, 0, 1, -52.5,53.1) ">
<use xlink:href="#paleta_0_Layer0_1_FILL"/>
</g>

<g transform="matrix( 1, 0, 0, 1, 10,53.1) ">
<use xlink:href="#paleta_0_Layer0_2_FILL"/>
</g>

<g transform="matrix( 1, 0, 0, 1, 70,53.1) ">
<use xlink:href="#paleta_0_Layer0_3_FILL"/>
</g>

<g transform="matrix( 1, 0, 0, 1, -180,53.1) ">
<use xlink:href="#paleta_0_Layer0_4_FILL"/>
</g>

<g transform="matrix( 1, 0, 0, 1, -115,116.9) ">
<use xlink:href="#paleta_0_Layer0_5_FILL"/>
</g>

<g transform="matrix( 1, 0, 0, 1, -52.5,116.9) ">
<use xlink:href="#paleta_0_Layer0_6_FILL"/>
</g>

<g transform="matrix( 1, 0, 0, 1, 70,116.9) ">
<use xlink:href="#paleta_0_Layer0_7_FILL"/>
</g>

<g transform="matrix( 1, 0, 0, 1, 10,116.9) ">
<use xlink:href="#paleta_0_Layer0_8_FILL"/>
</g>

<g transform="matrix( 1, 0, 0, 1, -180,116.9) ">
<use xlink:href="#paleta_0_Layer0_9_FILL"/>
</g>
</g>
</svg>
