
<svg xmlns="http://www.w3.org/2000/svg" version="1.1" xmlns:xlink="http://www.w3.org/1999/xlink" preserveAspectRatio="none" x="0px" y="0px" width="613px" height="549px" viewBox="0 0 613 549">
<defs>
<g id="Layer0_0_FILL">
<path fill="#DCE6C4" stroke="none" d="
M 118.55 131.95
Q 116.9 129.85 113.9 129.85 110.4 129.85 108.55 132.95
L 108.5 132.95 108.5 130.25 106.05 130.25 106.05 152.8 108.5 152.8 108.5 143.45 108.55 143.45
Q 110.2 146.05 113.2 146.05 116.45 146.05 118.35 143.75 120.2 141.4 120.2 137.5 120.2 134.05 118.55 131.95
M 113.3 131.95
Q 115.3 131.95 116.5 133.4 117.7 134.9 117.7 137.45 117.7 140.55 116.45 142.25 115.15 144 112.9 144 111 144 109.75 142.65 108.5 141.3 108.5 139.4
L 108.5 137.25
Q 108.5 134.95 109.8 133.45 111.15 131.95 113.3 131.95
M 95.75 131.95
Q 98.9 131.95 98.9 135.9
L 94.3 136.55
Q 89.2 137.25 89.2 141.6 89.2 143.6 90.5 144.85 91.8 146.05 94.1 146.05 97.25 146.05 98.85 143.3
L 98.9 143.3 98.9 145.7 101.35 145.7 101.35 135.65
Q 101.35 129.85 95.95 129.85 93 129.85 90.7 131.3
L 90.7 133.85
Q 92.95 131.95 95.75 131.95
M 98.9 137.9
L 98.9 139.4
Q 98.9 141.4 97.7 142.7 96.5 144 94.7 144 93.35 144 92.55 143.25 91.75 142.55 91.75 141.4 91.75 139.85 92.6 139.25 93.5 138.65 95.2 138.4
L 98.9 137.9
M 156.55 130.25
L 154.1 130.25 154.1 145.7 156.55 145.7 156.55 130.25
M 138.8 138.35
Q 138.8 141.75 140.8 143.9 142.85 146.05 146.15 146.05 148.55 146.05 150.35 145
L 150.35 142.65
Q 148.55 144 146.55 144 144.15 144 142.75 142.4 141.3 140.85 141.3 138.1 141.3 135.35 142.85 133.65 144.35 131.95 146.7 131.95 148.65 131.95 150.4 133.15
L 150.4 130.65
Q 148.85 129.85 146.8 129.85 143.15 129.85 141 132.2 138.8 134.5 138.8 138.35
M 129.75 129.85
Q 126.8 129.85 124.5 131.3
L 124.5 133.85
Q 126.75 131.95 129.55 131.95 132.7 131.95 132.7 135.9
L 128.1 136.55
Q 123 137.25 123 141.6 123 143.6 124.3 144.85 125.6 146.05 127.9 146.05 131.05 146.05 132.65 143.3
L 132.7 143.3 132.7 145.7 135.15 145.7 135.15 135.65
Q 135.15 129.85 129.75 129.85
M 131.5 142.7
Q 130.3 144 128.5 144 127.15 144 126.35 143.25 125.55 142.55 125.55 141.4 125.55 139.85 126.4 139.25 127.3 138.65 129 138.4
L 132.7 137.9 132.7 139.4
Q 132.7 141.4 131.5 142.7
M 156.5 123.55
Q 156.05 123.1 155.35 123.1 154.7 123.1 154.25 123.55 153.75 124 153.75 124.7 153.75 125.4 154.25 125.85 154.7 126.3 155.35 126.3 156.05 126.3 156.5 125.85 157 125.35 157 124.7 157 124 156.5 123.55
M 75.05 138.35
Q 75.05 141.75 77.05 143.9 79.1 146.05 82.4 146.05 84.8 146.05 86.6 145
L 86.6 142.65
Q 84.8 144 82.8 144 80.4 144 79 142.4 77.55 140.85 77.55 138.1 77.55 135.35 79.1 133.65 80.6 131.95 82.95 131.95 84.9 131.95 86.65 133.15
L 86.65 130.65
Q 85.1 129.85 83.05 129.85 79.4 129.85 77.25 132.2 75.05 134.5 75.05 138.35
M 142.3 86.7
L 142.3 95.95
Q 142.3 102.5 147.8 102.5 151.05 102.5 152.6 99.7
L 152.65 99.7 152.65 102.15 155.1 102.15 155.1 86.7 152.65 86.7 152.65 95.6
Q 152.65 97.75 151.5 99.1 150.3 100.45 148.5 100.45 144.75 100.45 144.75 95.55
L 144.75 86.7 142.3 86.7
M 134.55 86.3
Q 133.4 86.3 132.35 86.6 131.3 86.9 130.45 87.45 129.65 88.05 129.15 88.85 128.65 89.7 128.65 90.8 128.65 91.7 128.9 92.35 129.15 93 129.7 93.55 130.2 94.05 131 94.5 131.75 94.9 132.8 95.3 133.5 95.6 134.15 95.85 134.8 96.1 135.3 96.45 135.75 96.75 136.05 97.2 136.3 97.65 136.3 98.25 136.3 100.45 133.05 100.45 130.65 100.45 128.6 98.95
L 128.6 101.6
Q 130.35 102.5 132.75 102.5 133.95 102.5 135.05 102.25 136.15 101.95 137 101.4 137.8 100.85 138.35 100 138.85 99.15 138.85 98 138.85 97.1 138.55 96.4 138.2 95.7 137.65 95.2 137.05 94.65 136.25 94.25 135.45 93.85 134.4 93.45 133.65 93.15 133.05 92.9 132.45 92.65 132.05 92.3 131.6 92 131.4 91.6 131.15 91.2 131.15 90.6 131.15 90.1 131.4 89.7 131.6 89.3 132 89 132.4 88.7 132.95 88.55 133.5 88.4 134.2 88.4 136.4 88.4 138.1 89.5
L 138.1 87
Q 136.55 86.3 134.55 86.3
M 323.15 175.55
Q 321.2 173.4 317.75 173.4 314.15 173.4 312 175.6 309.9 177.8 309.9 181.7 309.9 185.3 311.95 187.45 313.95 189.6 317.4 189.6 320.9 189.6 323 187.4 325.05 185.15 325.05 181.45 325.05 177.7 323.15 175.55
M 317.55 175.5
Q 319.95 175.5 321.25 177.1 322.55 178.65 322.55 181.55 322.55 184.4 321.25 185.95 319.95 187.55 317.55 187.55 315.2 187.55 313.8 185.95 312.4 184.35 312.4 181.6 312.4 178.75 313.8 177.15 315.2 175.5 317.55 175.5
M 298.85 173.4
Q 295.65 173.4 293.7 175.75 291.8 178.05 291.8 181.9 291.8 185.45 293.55 187.55 295.25 189.6 298.15 189.6 301.75 189.6 303.45 186.6
L 303.55 186.6 303.55 189.25 306 189.25 306 166.35 303.55 166.35 303.55 175.95 303.45 175.95
Q 302 173.4 298.85 173.4
M 303.55 180
L 303.55 182.25
Q 303.55 184.55 302.25 186.05 300.95 187.55 298.9 187.55 296.8 187.55 295.55 186 294.3 184.45 294.3 181.75 294.3 178.85 295.6 177.15 296.9 175.5 299.15 175.5 301.05 175.5 302.3 176.8 303.55 178.1 303.55 180
M 283 173.4
Q 279.65 173.4 277.9 176.35
L 277.85 176.35 277.85 173.8 275.4 173.8 275.4 189.25 277.85 189.25 277.85 180.45
Q 277.85 178.3 279.1 176.9 280.3 175.5 282.15 175.5 285.7 175.5 285.7 180.45
L 285.7 189.25 288.2 189.25 288.2 179.8
Q 288.2 176.7 286.85 175.05 285.5 173.4 283 173.4
M 257.65 173.8
L 257.65 183.05
Q 257.65 189.6 263.15 189.6 266.4 189.6 267.95 186.8
L 268 186.8 268 189.25 270.45 189.25 270.45 173.8 268 173.8 268 182.7
Q 268 184.85 266.85 186.2 265.65 187.55 263.85 187.55 260.1 187.55 260.1 182.65
L 260.1 173.8 257.65 173.8
M 246.3 133.85
Q 248.55 131.95 251.35 131.95 254.5 131.95 254.5 135.9
L 249.9 136.55
Q 244.8 137.25 244.8 141.6 244.8 143.6 246.1 144.85 247.4 146.05 249.7 146.05 252.85 146.05 254.45 143.3
L 254.5 143.3 254.5 145.7 256.95 145.7 256.95 135.65
Q 256.95 129.85 251.55 129.85 248.6 129.85 246.3 131.3
L 246.3 133.85
M 250.3 144
Q 248.95 144 248.15 143.25 247.35 142.55 247.35 141.4 247.35 139.85 248.2 139.25 249.1 138.65 250.8 138.4
L 254.5 137.9 254.5 139.4
Q 254.5 141.4 253.3 142.7 252.1 144 250.3 144
M 262.1 130.25
L 259.35 130.25 265.4 145.65 264.15 148.6
Q 263.2 150.85 261.35 150.85 260.7 150.85 259.9 150.55
L 259.9 152.8
Q 260.55 153 261.5 153 264.95 153 266.8 148.2
L 273.9 130.25 271.35 130.25 266.95 142.15
Q 266.75 142.95 266.65 143.3
L 266.6 143.3
Q 266.35 142.35 266.25 142.15
L 262.1 130.25
M 323.15 135.65
Q 323.15 129.85 317.75 129.85 314.8 129.85 312.5 131.3
L 312.5 133.85
Q 314.75 131.95 317.55 131.95 320.7 131.95 320.7 135.9
L 316.1 136.55
Q 311 137.25 311 141.6 311 143.6 312.3 144.85 313.6 146.05 315.9 146.05 319.05 146.05 320.65 143.3
L 320.7 143.3 320.7 145.7 323.15 145.7 323.15 135.65
M 320.7 137.9
L 320.7 139.4
Q 320.7 141.4 319.5 142.7 318.3 144 316.5 144 315.15 144 314.35 143.25 313.55 142.55 313.55 141.4 313.55 139.85 314.4 139.25 315.3 138.65 317 138.4
L 320.7 137.9
M 289.05 130.25
L 286.6 130.25 286.6 139.15
Q 286.6 141.3 285.45 142.65 284.25 144 282.45 144 278.7 144 278.7 139.1
L 278.7 130.25 276.25 130.25 276.25 139.5
Q 276.25 146.05 281.75 146.05 285 146.05 286.55 143.25
L 286.6 143.25 286.6 145.7 289.05 145.7 289.05 130.25
M 307.15 122.8
L 304.7 122.8 304.7 132.4 304.6 132.4
Q 303.15 129.85 300 129.85 296.8 129.85 294.85 132.2 292.95 134.5 292.95 138.35 292.95 141.9 294.7 144 296.4 146.05 299.3 146.05 302.9 146.05 304.6 143.05
L 304.7 143.05 304.7 145.7 307.15 145.7 307.15 122.8
M 300.3 131.95
Q 302.2 131.95 303.45 133.25 304.7 134.55 304.7 136.45
L 304.7 138.7
Q 304.7 141 303.4 142.5 302.1 144 300.05 144 297.95 144 296.7 142.45 295.45 140.9 295.45 138.2 295.45 135.3 296.75 133.6 298.05 131.95 300.3 131.95
M 241.5 174.3
Q 240.35 173.4 238.75 173.4 235.6 173.4 233.95 176.25
L 233.9 176.25 233.9 173.8 231.45 173.8 231.45 189.25 233.9 189.25 233.9 180.45
Q 233.9 178.25 234.95 176.9 236 175.5 237.65 175.5 241.15 175.5 241.15 180.05
L 241.15 189.25 243.6 189.25 243.6 180.45
Q 243.6 178.4 244.75 176.95 245.85 175.5 247.4 175.5 249.25 175.5 250.05 176.65 250.85 177.8 250.85 180.35
L 250.85 189.25 253.3 189.25 253.3 179.7
Q 253.3 173.4 248.25 173.4 244.85 173.4 243.1 176.6 242.7 175.2 241.5 174.3
M 217.1 175.05
Q 215.75 173.4 213.25 173.4 209.9 173.4 208.15 176.35
L 208.1 176.35 208.1 173.8 205.65 173.8 205.65 189.25 208.1 189.25 208.1 180.45
Q 208.1 178.3 209.35 176.9 210.55 175.5 212.4 175.5 215.95 175.5 215.95 180.45
L 215.95 189.25 218.45 189.25 218.45 179.8
Q 218.45 176.7 217.1 175.05
M 198.2 173.8
L 198.2 182.7
Q 198.2 184.85 197.05 186.2 195.85 187.55 194.05 187.55 190.3 187.55 190.3 182.65
L 190.3 173.8 187.85 173.8 187.85 183.05
Q 187.85 189.6 193.35 189.6 196.6 189.6 198.15 186.8
L 198.2 186.8 198.2 189.25 200.65 189.25 200.65 173.8 198.2 173.8
M 194.8 132.35
L 194.8 130.25 190.9 130.25 190.9 125.65 188.45 126.45 188.45 130.25 185.8 130.25 185.8 132.35 188.45 132.35 188.45 141.5
Q 188.45 146.05 192.5 146.05 193.9 146.05 194.8 145.55
L 194.8 143.45
Q 194.1 143.95 193.2 143.95 191.95 143.95 191.45 143.3 190.9 142.6 190.9 141.05
L 190.9 132.35 194.8 132.35
M 162.35 126.45
L 162.35 130.25 159.7 130.25 159.7 132.35 162.35 132.35 162.35 141.5
Q 162.35 146.05 166.4 146.05 167.8 146.05 168.7 145.55
L 168.7 143.45
Q 168 143.95 167.1 143.95 165.85 143.95 165.35 143.3 164.8 142.6 164.8 141.05
L 164.8 132.35 168.7 132.35 168.7 130.25 164.8 130.25 164.8 125.65 162.35 126.45
M 177.55 129.85
Q 174.6 129.85 172.3 131.3
L 172.3 133.85
Q 174.55 131.95 177.35 131.95 180.5 131.95 180.5 135.9
L 175.9 136.55
Q 170.8 137.25 170.8 141.6 170.8 143.6 172.1 144.85 173.4 146.05 175.7 146.05 178.85 146.05 180.45 143.3
L 180.5 143.3 180.5 145.7 182.95 145.7 182.95 135.65
Q 182.95 129.85 177.55 129.85
M 180.5 137.9
L 180.5 139.4
Q 180.5 141.4 179.3 142.7 178.1 144 176.3 144 174.95 144 174.15 143.25 173.35 142.55 173.35 141.4 173.35 139.85 174.2 139.25 175.1 138.65 176.8 138.4
L 180.5 137.9
M 180.85 122.35
L 178.35 122.35 175 127.3 176.9 127.3 180.85 122.35
M 227.8 148.2
L 234.9 130.25 232.35 130.25 227.95 142.15
Q 227.75 142.95 227.65 143.3
L 227.6 143.3
Q 227.35 142.35 227.25 142.15
L 223.1 130.25 220.35 130.25 226.4 145.65 225.15 148.6
Q 224.2 150.85 222.35 150.85 221.7 150.85 220.9 150.55
L 220.9 152.8
Q 221.55 153 222.5 153 225.95 153 227.8 148.2
M 209.4 142.25
Q 207.25 144 204.65 144 202.3 144 201 142.55 199.65 141.15 199.6 138.6
L 210.5 138.6 210.5 137.3
Q 210.5 133.8 208.8 131.85 207.15 129.85 204.15 129.85 201.1 129.85 199.1 132.15 197.05 134.4 197.05 138.05 197.05 141.85 198.9 143.95 200.75 146.05 204.05 146.05 207.4 146.05 209.4 144.6
L 209.4 142.25
M 206.95 133.15
Q 207.95 134.35 207.95 136.5
L 199.65 136.5
Q 199.9 134.45 201.15 133.2 202.35 131.95 204.1 131.95 205.9 131.95 206.95 133.15
M 241.2 93
Q 236.1 93.7 236.1 98.05 236.1 100.05 237.4 101.3 238.7 102.5 241 102.5 244.15 102.5 245.75 99.75
L 245.8 99.75 245.8 102.15 248.25 102.15 248.25 92.1
Q 248.25 86.3 242.85 86.3 239.9 86.3 237.6 87.75
L 237.6 90.3
Q 239.85 88.4 242.65 88.4 245.8 88.4 245.8 92.35
L 241.2 93
M 245.8 94.35
L 245.8 95.85
Q 245.8 97.85 244.6 99.15 243.4 100.45 241.6 100.45 240.25 100.45 239.45 99.7 238.65 99 238.65 97.85 238.65 96.3 239.5 95.7 240.4 95.1 242.1 94.85
L 245.8 94.35
M 213.75 88.6
Q 211.7 90.85 211.7 94.5 211.7 98.3 213.55 100.4 215.4 102.5 218.7 102.5 222.05 102.5 224.05 101.05
L 224.05 98.7
Q 221.9 100.45 219.3 100.45 216.95 100.45 215.65 99 214.3 97.6 214.25 95.05
L 225.15 95.05 225.15 93.75
Q 225.15 90.25 223.45 88.3 221.8 86.3 218.8 86.3 215.75 86.3 213.75 88.6
M 221.6 89.6
Q 222.6 90.8 222.6 92.95
L 214.3 92.95
Q 214.55 90.9 215.8 89.65 217 88.4 218.75 88.4 220.55 88.4 221.6 89.6
M 200.45 86.7
L 200.45 88.8 203.1 88.8 203.1 97.95
Q 203.1 102.5 207.15 102.5 208.55 102.5 209.45 102
L 209.45 99.9
Q 208.75 100.4 207.85 100.4 206.6 100.4 206.1 99.75 205.55 99.05 205.55 97.5
L 205.55 88.8 209.45 88.8 209.45 86.7 205.55 86.7 205.55 82.1 203.1 82.9 203.1 86.7 200.45 86.7
M 190.55 93
Q 185.45 93.7 185.45 98.05 185.45 100.05 186.75 101.3 188.05 102.5 190.35 102.5 193.5 102.5 195.1 99.75
L 195.15 99.75 195.15 102.15 197.6 102.15 197.6 92.1
Q 197.6 86.3 192.2 86.3 189.25 86.3 186.95 87.75
L 186.95 90.3
Q 189.2 88.4 192 88.4 195.15 88.4 195.15 92.35
L 190.55 93
M 188 97.85
Q 188 96.3 188.85 95.7 189.75 95.1 191.45 94.85
L 195.15 94.35 195.15 95.85
Q 195.15 97.85 193.95 99.15 192.75 100.45 190.95 100.45 189.6 100.45 188.8 99.7 188 99 188 97.85
M 195.5 78.8
L 193 78.8 189.65 83.75 191.55 83.75 195.5 78.8
M 162.55 89.15
L 162.5 89.15 162.5 86.7 160.05 86.7 160.05 102.15 162.5 102.15 162.5 93.35
Q 162.5 91.15 163.55 89.8 164.6 88.4 166.25 88.4 169.75 88.4 169.75 92.95
L 169.75 102.15 172.2 102.15 172.2 93.35
Q 172.2 91.3 173.35 89.85 174.45 88.4 176 88.4 177.85 88.4 178.65 89.55 179.45 90.7 179.45 93.25
L 179.45 102.15 181.9 102.15 181.9 92.6
Q 181.9 86.3 176.85 86.3 173.45 86.3 171.7 89.5 171.3 88.1 170.1 87.2 168.95 86.3 167.35 86.3 164.2 86.3 162.55 89.15
M 317.35 86.3
Q 316.2 86.3 315.15 86.6 314.1 86.9 313.25 87.45 312.45 88.05 311.95 88.85 311.45 89.7 311.45 90.8 311.45 91.7 311.7 92.35 311.95 93 312.5 93.55 313 94.05 313.8 94.5 314.55 94.9 315.6 95.3 316.3 95.6 316.95 95.85 317.6 96.1 318.1 96.45 318.55 96.75 318.85 97.2 319.1 97.65 319.1 98.25 319.1 100.45 315.85 100.45 313.45 100.45 311.4 98.95
L 311.4 101.6
Q 313.15 102.5 315.55 102.5 316.75 102.5 317.85 102.25 318.95 101.95 319.8 101.4 320.6 100.85 321.15 100 321.65 99.15 321.65 98 321.65 97.1 321.35 96.4 321 95.7 320.45 95.2 319.85 94.65 319.05 94.25 318.25 93.85 317.2 93.45 316.45 93.15 315.85 92.9 315.25 92.65 314.85 92.3 314.4 92 314.2 91.6 313.95 91.2 313.95 90.6 313.95 90.1 314.2 89.7 314.4 89.3 314.8 89 315.2 88.7 315.75 88.55 316.3 88.4 317 88.4 319.2 88.4 320.9 89.5
L 320.9 87
Q 319.35 86.3 317.35 86.3
M 302.25 86.3
Q 299.2 86.3 297.2 88.6 295.15 90.85 295.15 94.5 295.15 98.3 297 100.4 298.85 102.5 302.15 102.5 305.5 102.5 307.5 101.05
L 307.5 98.7
Q 305.35 100.45 302.75 100.45 300.4 100.45 299.1 99 297.75 97.6 297.7 95.05
L 308.6 95.05 308.6 93.75
Q 308.6 90.25 306.9 88.3 305.25 86.3 302.25 86.3
M 297.75 92.95
Q 298 90.9 299.25 89.65 300.45 88.4 302.2 88.4 304 88.4 305.05 89.6 306.05 90.8 306.05 92.95
L 297.75 92.95
M 278.45 86.7
L 278.45 95.95
Q 278.45 102.5 283.95 102.5 287.2 102.5 288.75 99.7
L 288.8 99.7 288.8 102.15 291.25 102.15 291.25 86.7 288.8 86.7 288.8 95.6
Q 288.8 97.75 287.65 99.1 286.45 100.45 284.65 100.45 280.9 100.45 280.9 95.55
L 280.9 86.7 278.45 86.7
M 263.9 89.25
L 263.85 89.25 263.85 86.7 261.4 86.7 261.4 102.15 263.85 102.15 263.85 93.35
Q 263.85 91.2 265.1 89.8 266.3 88.4 268.15 88.4 271.7 88.4 271.7 93.35
L 271.7 102.15 274.2 102.15 274.2 92.7
Q 274.2 89.6 272.85 87.95 271.5 86.3 269 86.3 265.65 86.3 263.9 89.25
M 413.7 176.3
L 413.7 173.7
Q 413.15 173.5 412.2 173.5 410.85 173.5 409.8 174.45 408.7 175.35 408.15 176.95
L 408.1 176.95 408.1 173.8 405.65 173.8 405.65 189.25 408.1 189.25 408.1 181.35
Q 408.1 178.8 409.2 177.3 410.25 175.8 411.8 175.8 413.05 175.8 413.7 176.3
M 422.15 138.15
Q 422.15 141.75 424.2 143.9 426.2 146.05 429.65 146.05 433.15 146.05 435.25 143.85 437.3 141.6 437.3 137.9 437.3 134.15 435.4 132 433.45 129.85 430 129.85 426.4 129.85 424.25 132.05 422.15 134.25 422.15 138.15
M 429.8 131.95
Q 432.2 131.95 433.5 133.55 434.8 135.1 434.8 138 434.8 140.85 433.5 142.4 432.2 144 429.8 144 427.45 144 426.05 142.4 424.65 140.8 424.65 138.05 424.65 135.2 426.05 133.6 427.45 131.95 429.8 131.95
M 419.5 130.65
Q 417.95 129.85 415.9 129.85 412.25 129.85 410.1 132.2 407.9 134.5 407.9 138.35 407.9 141.75 409.9 143.9 411.95 146.05 415.25 146.05 417.65 146.05 419.45 145
L 419.45 142.65
Q 417.65 144 415.65 144 413.25 144 411.85 142.4 410.4 140.85 410.4 138.1 410.4 135.35 411.95 133.65 413.45 131.95 415.8 131.95 417.75 131.95 419.5 133.15
L 419.5 130.65
M 478.9 132.35
L 478.9 130.25 475 130.25 475 125.65 472.55 126.45 472.55 130.25 469.9 130.25 469.9 132.35 472.55 132.35 472.55 141.5
Q 472.55 146.05 476.6 146.05 478 146.05 478.9 145.55
L 478.9 143.45
Q 478.2 143.95 477.3 143.95 476.05 143.95 475.55 143.3 475 142.6 475 141.05
L 475 132.35 478.9 132.35
M 452.7 131.5
Q 451.35 129.85 448.85 129.85 445.5 129.85 443.75 132.8
L 443.7 132.8 443.7 130.25 441.25 130.25 441.25 145.7 443.7 145.7 443.7 136.9
Q 443.7 134.75 444.95 133.35 446.15 131.95 448 131.95 451.55 131.95 451.55 136.9
L 451.55 145.7 454.05 145.7 454.05 136.25
Q 454.05 133.15 452.7 131.5
M 460.5 135.15
Q 460.25 134.75 460.25 134.15 460.25 133.65 460.5 133.25 460.7 132.85 461.1 132.55 461.5 132.25 462.05 132.1 462.6 131.95 463.3 131.95 465.5 131.95 467.2 133.05
L 467.2 130.55
Q 465.65 129.85 463.65 129.85 462.5 129.85 461.45 130.15 460.4 130.45 459.55 131 458.75 131.6 458.25 132.4 457.75 133.25 457.75 134.35 457.75 135.25 458 135.9 458.25 136.55 458.8 137.1 459.3 137.6 460.1 138.05 460.85 138.45 461.9 138.85 462.6 139.15 463.25 139.4 463.9 139.65 464.4 140 464.85 140.3 465.15 140.75 465.4 141.2 465.4 141.8 465.4 144 462.15 144 459.75 144 457.7 142.5
L 457.7 145.15
Q 459.45 146.05 461.85 146.05 463.05 146.05 464.15 145.8 465.25 145.5 466.1 144.95 466.9 144.4 467.45 143.55 467.95 142.7 467.95 141.55 467.95 140.65 467.65 139.95 467.3 139.25 466.75 138.75 466.15 138.2 465.35 137.8 464.55 137.4 463.5 137 462.75 136.7 462.15 136.45 461.55 136.2 461.15 135.85 460.7 135.55 460.5 135.15
M 401.65 181.45
Q 401.65 177.7 399.75 175.55 397.8 173.4 394.35 173.4 390.75 173.4 388.6 175.6 386.5 177.8 386.5 181.7 386.5 185.3 388.55 187.45 390.55 189.6 394 189.6 397.5 189.6 399.6 187.4 401.65 185.15 401.65 181.45
M 397.85 177.1
Q 399.15 178.65 399.15 181.55 399.15 184.4 397.85 185.95 396.55 187.55 394.15 187.55 391.8 187.55 390.4 185.95 389 184.35 389 181.6 389 178.75 390.4 177.15 391.8 175.5 394.15 175.5 396.55 175.5 397.85 177.1
M 382.55 173.8
L 380.1 173.8 380.1 189
Q 380.1 194.4 376.75 194.4 375.75 194.4 374.6 193.75
L 374.6 196.05
Q 375.6 196.55 376.65 196.55 379.5 196.55 381.05 194.5 382.55 192.4 382.55 188.6
L 382.55 173.8
M 376.4 182.15
L 376.4 180.85
Q 376.4 177.35 374.7 175.4 373.05 173.4 370.05 173.4 367 173.4 365 175.7 362.95 177.95 362.95 181.6 362.95 185.4 364.8 187.5 366.65 189.6 369.95 189.6 373.3 189.6 375.3 188.15
L 375.3 185.8
Q 373.15 187.55 370.55 187.55 368.2 187.55 366.9 186.1 365.55 184.7 365.5 182.15
L 376.4 182.15
M 373.85 180.05
L 365.55 180.05
Q 365.8 178 367.05 176.75 368.25 175.5 370 175.5 371.8 175.5 372.85 176.7 373.85 177.9 373.85 180.05
M 381.35 169.85
Q 382.05 169.85 382.5 169.4 383 168.9 383 168.25 383 167.55 382.5 167.1 382.05 166.65 381.35 166.65 380.7 166.65 380.25 167.1 379.75 167.55 379.75 168.25 379.75 168.95 380.25 169.4 380.7 169.85 381.35 169.85
M 339.95 176.25
L 339.9 176.25 339.9 173.8 337.45 173.8 337.45 189.25 339.9 189.25 339.9 180.45
Q 339.9 178.25 340.95 176.9 342 175.5 343.65 175.5 347.15 175.5 347.15 180.05
L 347.15 189.25 349.6 189.25 349.6 180.45
Q 349.6 178.4 350.75 176.95 351.85 175.5 353.4 175.5 355.25 175.5 356.05 176.65 356.85 177.8 356.85 180.35
L 356.85 189.25 359.3 189.25 359.3 179.7
Q 359.3 173.4 354.25 173.4 350.85 173.4 349.1 176.6 348.7 175.2 347.5 174.3 346.35 173.4 344.75 173.4 341.6 173.4 339.95 176.25
M 352.05 129.85
Q 348.45 129.85 346.3 132.05 344.2 134.25 344.2 138.15 344.2 141.75 346.25 143.9 348.25 146.05 351.7 146.05 355.2 146.05 357.3 143.85 359.35 141.6 359.35 137.9 359.35 134.15 357.45 132 355.5 129.85 352.05 129.85
M 348.1 133.6
Q 349.5 131.95 351.85 131.95 354.25 131.95 355.55 133.55 356.85 135.1 356.85 138 356.85 140.85 355.55 142.4 354.25 144 351.85 144 349.5 144 348.1 142.4 346.7 140.8 346.7 138.05 346.7 135.2 348.1 133.6
M 339.3 131.5
Q 337.95 129.85 335.45 129.85 332.1 129.85 330.35 132.8
L 330.3 132.8 330.3 130.25 327.85 130.25 327.85 145.7 330.3 145.7 330.3 136.9
Q 330.3 134.75 331.55 133.35 332.75 131.95 334.6 131.95 338.15 131.95 338.15 136.9
L 338.15 145.7 340.65 145.7 340.65 136.25
Q 340.65 133.15 339.3 131.5
M 390.45 129.85
Q 387.5 129.85 385.2 131.3
L 385.2 133.85
Q 387.45 131.95 390.25 131.95 393.4 131.95 393.4 135.9
L 388.8 136.55
Q 383.7 137.25 383.7 141.6 383.7 143.6 385 144.85 386.3 146.05 388.6 146.05 391.75 146.05 393.35 143.3
L 393.4 143.3 393.4 145.7 395.85 145.7 395.85 135.65
Q 395.85 129.85 390.45 129.85
M 393.4 137.9
L 393.4 139.4
Q 393.4 141.4 392.2 142.7 391 144 389.2 144 387.85 144 387.05 143.25 386.25 142.55 386.25 141.4 386.25 139.85 387.1 139.25 388 138.65 389.7 138.4
L 393.4 137.9
M 365.2 135.15
Q 364.95 134.75 364.95 134.15 364.95 133.65 365.2 133.25 365.4 132.85 365.8 132.55 366.2 132.25 366.75 132.1 367.3 131.95 368 131.95 370.2 131.95 371.9 133.05
L 371.9 130.55
Q 370.35 129.85 368.35 129.85 367.2 129.85 366.15 130.15 365.1 130.45 364.25 131 363.45 131.6 362.95 132.4 362.45 133.25 362.45 134.35 362.45 135.25 362.7 135.9 362.95 136.55 363.5 137.1 364 137.6 364.8 138.05 365.55 138.45 366.6 138.85 367.3 139.15 367.95 139.4 368.6 139.65 369.1 140 369.55 140.3 369.85 140.75 370.1 141.2 370.1 141.8 370.1 144 366.85 144 364.45 144 362.4 142.5
L 362.4 145.15
Q 364.15 146.05 366.55 146.05 367.75 146.05 368.85 145.8 369.95 145.5 370.8 144.95 371.6 144.4 372.15 143.55 372.65 142.7 372.65 141.55 372.65 140.65 372.35 139.95 372 139.25 371.45 138.75 370.85 138.2 370.05 137.8 369.25 137.4 368.2 137 367.45 136.7 366.85 136.45 366.25 136.2 365.85 135.85 365.4 135.55 365.2 135.15
M 390 88.65
Q 388.1 90.95 388.1 94.8 388.1 98.35 389.85 100.45 391.6 102.5 394.5 102.5 398.15 102.5 399.75 99.5
L 399.85 99.5 399.85 109.25 402.3 109.25 402.3 86.7 399.85 86.7 399.85 88.85 399.75 88.85
Q 398.35 86.3 395.2 86.3 391.95 86.3 390 88.65
M 391.85 98.9
Q 390.6 97.4 390.6 94.7 390.6 91.7 391.9 90.05 393.2 88.4 395.45 88.4 397.35 88.4 398.6 89.7 399.85 91.05 399.85 92.95
L 399.85 95.2
Q 399.85 97.45 398.55 98.95 397.25 100.45 395.1 100.45 393.1 100.45 391.85 98.9
M 383.75 88.3
Q 382.1 86.3 379.1 86.3 376.05 86.3 374.05 88.6 372 90.85 372 94.5 372 98.3 373.85 100.4 375.7 102.5 379 102.5 382.35 102.5 384.35 101.05
L 384.35 98.7
Q 382.2 100.45 379.6 100.45 377.25 100.45 375.95 99 374.6 97.6 374.55 95.05
L 385.45 95.05 385.45 93.75
Q 385.45 90.25 383.75 88.3
M 382.9 92.95
L 374.6 92.95
Q 374.85 90.9 376.1 89.65 377.3 88.4 379.05 88.4 380.85 88.4 381.9 89.6 382.9 90.8 382.9 92.95
M 347.6 88.5
Q 345.5 90.7 345.5 94.6 345.5 98.2 347.55 100.35 349.55 102.5 353 102.5 356.5 102.5 358.6 100.3 360.65 98.05 360.65 94.35 360.65 90.6 358.75 88.45 356.8 86.3 353.35 86.3 349.75 86.3 347.6 88.5
M 349.4 90.05
Q 350.8 88.4 353.15 88.4 355.55 88.4 356.85 90 358.15 91.55 358.15 94.45 358.15 97.3 356.85 98.85 355.55 100.45 353.15 100.45 350.8 100.45 349.4 98.85 348 97.25 348 94.5 348 91.65 349.4 90.05
M 328.65 82.1
L 326.2 82.9 326.2 86.7 323.55 86.7 323.55 88.8 326.2 88.8 326.2 97.95
Q 326.2 102.5 330.25 102.5 331.65 102.5 332.55 102
L 332.55 99.9
Q 331.85 100.4 330.95 100.4 329.7 100.4 329.2 99.75 328.65 99.05 328.65 97.5
L 328.65 88.8 332.55 88.8 332.55 86.7 328.65 86.7 328.65 82.1
M 343.9 86.6
Q 343.35 86.4 342.4 86.4 341.05 86.4 340 87.35 338.9 88.25 338.35 89.85
L 338.3 89.85 338.3 86.7 335.85 86.7 335.85 102.15 338.3 102.15 338.3 94.25
Q 338.3 91.7 339.4 90.2 340.45 88.7 342 88.7 343.25 88.7 343.9 89.2
L 343.9 86.6
M 470.65 98.7
L 468.25 98.7 466.5 106.15 468.25 106.15 470.65 98.7
M 451.35 88.5
Q 449.25 90.7 449.25 94.6 449.25 98.2 451.3 100.35 453.3 102.5 456.75 102.5 460.25 102.5 462.35 100.3 464.4 98.05 464.4 94.35 464.4 90.6 462.5 88.45 460.55 86.3 457.1 86.3 453.5 86.3 451.35 88.5
M 453.15 98.85
Q 451.75 97.25 451.75 94.5 451.75 91.65 453.15 90.05 454.55 88.4 456.9 88.4 459.3 88.4 460.6 90 461.9 91.55 461.9 94.45 461.9 97.3 460.6 98.85 459.3 100.45 456.9 100.45 454.55 100.45 453.15 98.85
M 427.15 86.7
L 424.7 86.7 424.7 102.15 427.15 102.15 427.15 86.7
M 434.65 86.7
L 432.2 86.7 432.2 109.25 434.65 109.25 434.65 99.9 434.7 99.9
Q 436.35 102.5 439.35 102.5 442.6 102.5 444.5 100.2 446.35 97.85 446.35 93.95 446.35 90.5 444.7 88.4 443.05 86.3 440.05 86.3 436.55 86.3 434.7 89.4
L 434.65 89.4 434.65 86.7
M 434.65 95.85
L 434.65 93.7
Q 434.65 91.4 435.95 89.9 437.3 88.4 439.45 88.4 441.45 88.4 442.65 89.85 443.85 91.35 443.85 93.9 443.85 97 442.6 98.7 441.3 100.45 439.05 100.45 437.15 100.45 435.9 99.1 434.65 97.75 434.65 95.85
M 419.75 86.7
L 417.3 86.7 417.3 95.6
Q 417.3 97.75 416.15 99.1 414.95 100.45 413.15 100.45 409.4 100.45 409.4 95.55
L 409.4 86.7 406.95 86.7 406.95 95.95
Q 406.95 102.5 412.45 102.5 415.7 102.5 417.25 99.7
L 417.3 99.7 417.3 102.15 419.75 102.15 419.75 86.7
M 424.85 80
Q 424.35 80.45 424.35 81.15 424.35 81.85 424.85 82.3 425.3 82.75 425.95 82.75 426.65 82.75 427.1 82.3 427.6 81.8 427.6 81.15 427.6 80.45 427.1 80 426.65 79.55 425.95 79.55 425.3 79.55 424.85 80
M 512.8 130.25
L 510.35 130.25 510.35 145.7 512.8 145.7 512.8 130.25
M 520.3 133.4
L 520.25 133.4 520.25 130.25 517.8 130.25 517.8 145.7 520.25 145.7 520.25 137.8
Q 520.25 135.25 521.35 133.75 522.4 132.25 523.95 132.25 525.2 132.25 525.85 132.75
L 525.85 130.15
Q 525.3 129.95 524.35 129.95 523 129.95 521.95 130.9 520.85 131.8 520.3 133.4
M 488.35 132.25
Q 489.6 132.25 490.25 132.75
L 490.25 130.15
Q 489.7 129.95 488.75 129.95 487.4 129.95 486.35 130.9 485.25 131.8 484.7 133.4
L 484.65 133.4 484.65 130.25 482.2 130.25 482.2 145.7 484.65 145.7 484.65 137.8
Q 484.65 135.25 485.75 133.75 486.8 132.25 488.35 132.25
M 505.35 130.25
L 502.9 130.25 502.9 139.15
Q 502.9 141.3 501.75 142.65 500.55 144 498.75 144 495 144 495 139.1
L 495 130.25 492.55 130.25 492.55 139.5
Q 492.55 146.05 498.05 146.05 501.3 146.05 502.85 143.25
L 502.9 143.25 502.9 145.7 505.35 145.7 505.35 130.25
M 512.75 123.55
Q 512.3 123.1 511.6 123.1 510.95 123.1 510.5 123.55 510 124 510 124.7 510 125.4 510.5 125.85 510.95 126.3 511.6 126.3 512.3 126.3 512.75 125.85 513.25 125.35 513.25 124.7 513.25 124 512.75 123.55 Z"/>

<path fill="#00CCCC" stroke="none" d="
M 96.65 7.6
Q 94.35 7.6 92.5 9.2 90.6 10.8 89.7 13.6
L 89.6 13.6 89.6 8.1 85.3 8.1 85.3 34.85 89.6 34.85 89.6 21.2
Q 89.6 16.75 91.45 14.15 93.25 11.55 96 11.55 98.1 11.55 99.2 12.4
L 99.2 8
Q 98.35 7.6 96.65 7.6
M 122.95 34.85
L 122.95 17.45
Q 122.95 7.45 113.55 7.45 108.45 7.45 104.5 9.95
L 104.5 14.35
Q 108.4 11.05 113.2 11.05 118.7 11.05 118.7 17.9
L 110.7 19
Q 101.9 20.25 101.9 27.75 101.9 31.25 104.15 33.35 106.4 35.5 110.4 35.5 115.8 35.5 118.6 30.65
L 118.7 30.65 118.7 34.85 122.95 34.85
M 118.7 21.3
L 118.7 24
Q 118.7 27.4 116.65 29.65 114.55 31.85 111.35 31.85 109.05 31.85 107.65 30.65 106.25 29.4 106.25 27.45 106.25 24.75 107.8 23.7 109.3 22.6 112.25 22.2
L 118.7 21.3
M 172.05 7.45
Q 166.95 7.45 163 9.95
L 163 14.35
Q 166.9 11.05 171.7 11.05 177.2 11.05 177.2 17.9
L 169.2 19
Q 160.4 20.25 160.4 27.75 160.4 31.25 162.65 33.35 164.9 35.5 168.9 35.5 174.3 35.5 177.1 30.65
L 177.2 30.65 177.2 34.85 181.45 34.85 181.45 17.45
Q 181.45 7.45 172.05 7.45
M 166.3 23.7
Q 167.8 22.6 170.75 22.2
L 177.2 21.3 177.2 24
Q 177.2 27.4 175.15 29.65 173.05 31.85 169.85 31.85 167.55 31.85 166.15 30.65 164.75 29.4 164.75 27.45 164.75 24.75 166.3 23.7
M 193.75 8.1
L 189.45 8.1 189.45 34.45
Q 189.45 43.8 183.65 43.8 181.9 43.8 180 42.6
L 180 46.6
Q 181.7 47.45 183.55 47.45 188.45 47.45 191.1 43.9 193.75 40.3 193.75 33.75
L 193.75 8.1
M 212.1 7.45
Q 207 7.45 203.05 9.95
L 203.05 14.35
Q 206.95 11.05 211.75 11.05 217.25 11.05 217.25 17.9
L 209.25 19
Q 200.45 20.25 200.45 27.75 200.45 31.25 202.7 33.35 204.95 35.5 208.95 35.5 214.35 35.5 217.15 30.65
L 217.25 30.65 217.25 34.85 221.5 34.85 221.5 17.45
Q 221.5 7.45 212.1 7.45
M 206.35 23.7
Q 207.85 22.6 210.8 22.2
L 217.25 21.3 217.25 24
Q 217.25 27.4 215.2 29.65 213.1 31.85 209.9 31.85 207.6 31.85 206.2 30.65 204.8 29.4 204.8 27.45 204.8 24.75 206.35 23.7
M 256.15 7.45
Q 249.85 7.45 246.05 11.5 242.3 15.5 242.3 22.1 242.3 28.05 245.8 31.75 249.3 35.5 255 35.5 259.2 35.5 262.3 33.6
L 262.3 29.55
Q 259.2 31.85 255.75 31.85 251.6 31.85 249.15 29.15 246.65 26.45 246.65 21.75 246.65 16.95 249.3 14 251.9 11.05 256 11.05 259.4 11.05 262.35 13.15
L 262.35 8.75
Q 259.65 7.45 256.15 7.45
M 293.2 21.35
Q 293.2 14.85 289.85 11.15 286.5 7.45 280.55 7.45 274.3 7.45 270.6 11.25 266.95 15.05 266.95 21.8 266.95 28 270.5 31.75 274 35.5 279.9 35.5 286 35.5 289.6 31.65 293.2 27.75 293.2 21.35
M 286.6 13.8
Q 288.8 16.5 288.8 21.5 288.8 26.5 286.6 29.2 284.35 31.85 280.25 31.85 276.15 31.85 273.75 29.15 271.3 26.4 271.3 21.6 271.3 16.7 273.7 13.9 276.1 11.05 280.25 11.05 284.35 11.05 286.6 13.8
M 322.1 18.5
Q 322.1 13.15 319.8 10.3 317.45 7.45 313.1 7.45 307.35 7.45 304.35 12.55
L 304.25 12.55 304.25 8.1 299.95 8.1 299.95 34.85 304.25 34.85 304.25 19.6
Q 304.25 15.9 306.35 13.5 308.45 11.05 311.65 11.05 317.85 11.05 317.85 19.6
L 317.85 34.85 322.1 34.85 322.1 18.5
M 366.85 18.5
Q 366.85 13.15 364.55 10.3 362.2 7.45 357.85 7.45 352.1 7.45 349.1 12.55
L 349 12.55 349 8.1 344.7 8.1 344.7 34.85 349 34.85 349 19.6
Q 349 15.9 351.1 13.5 353.2 11.05 356.4 11.05 362.6 11.05 362.6 19.6
L 362.6 34.85 366.85 34.85 366.85 18.5
M 399.3 21.35
Q 399.3 14.85 395.95 11.15 392.6 7.45 386.65 7.45 380.4 7.45 376.7 11.25 373.05 15.05 373.05 21.8 373.05 28 376.6 31.75 380.1 35.5 386 35.5 392.1 35.5 395.7 31.65 399.3 27.75 399.3 21.35
M 386.35 11.05
Q 390.45 11.05 392.7 13.8 394.9 16.5 394.9 21.5 394.9 26.5 392.7 29.2 390.45 31.85 386.35 31.85 382.25 31.85 379.85 29.15 377.4 26.4 377.4 21.6 377.4 16.7 379.8 13.9 382.2 11.05 386.35 11.05
M 414.7 7.45
Q 412.75 7.45 410.95 7.95 409.1 8.45 407.65 9.45 406.25 10.4 405.35 11.85 404.5 13.3 404.5 15.2 404.5 16.75 405 17.9 405.4 19.05 406.35 19.95 407.2 20.85 408.55 21.55 409.9 22.3 411.65 23 412.95 23.5 414.05 23.95 415.15 24.4 416 24.95 416.8 25.55 417.3 26.3 417.75 27.05 417.75 28.1 417.75 31.85 412.15 31.85 407.95 31.85 404.45 29.3
L 404.45 33.9
Q 407.5 35.5 411.6 35.5 413.65 35.5 415.55 35 417.5 34.55 418.95 33.55 420.4 32.6 421.3 31.15 422.15 29.65 422.15 27.7 422.15 26.05 421.6 24.9 421.05 23.7 420.1 22.85 419.1 21.9 417.7 21.2 416.3 20.45 414.5 19.8 413.2 19.25 412.15 18.85 411.1 18.4 410.35 17.85 409.65 17.3 409.25 16.6 408.9 15.85 408.9 14.85 408.9 14 409.25 13.3 409.65 12.6 410.35 12.1 411 11.6 412 11.35 412.95 11.05 414.15 11.05 417.95 11.05 420.9 13
L 420.9 8.65
Q 418.2 7.45 414.7 7.45
M 453.15 21.35
Q 453.15 14.85 449.8 11.15 446.45 7.45 440.5 7.45 434.25 7.45 430.55 11.25 426.9 15.05 426.9 21.8 426.9 28 430.45 31.75 433.95 35.5 439.85 35.5 445.95 35.5 449.55 31.65 453.15 27.75 453.15 21.35
M 446.55 13.8
Q 448.75 16.5 448.75 21.5 448.75 26.5 446.55 29.2 444.3 31.85 440.2 31.85 436.1 31.85 433.7 29.15 431.25 26.4 431.25 21.6 431.25 16.7 433.65 13.9 436.05 11.05 440.2 11.05 444.3 11.05 446.55 13.8
M 472.35 11.75
L 472.35 8.1 465.6 8.1 465.6 0.15 461.35 1.55 461.35 8.1 456.75 8.1 456.75 11.75 461.35 11.75 461.35 27.6
Q 461.35 35.45 468.35 35.45 470.85 35.45 472.35 34.6
L 472.35 30.95
Q 471.15 31.8 469.55 31.8 467.45 31.8 466.55 30.65 465.6 29.5 465.6 26.85
L 465.6 11.75 472.35 11.75
M 491.9 12.4
L 491.9 8
Q 491.05 7.6 489.35 7.6 487.05 7.6 485.2 9.2 483.3 10.8 482.4 13.6
L 482.3 13.6 482.3 8.1 478 8.1 478 34.85 482.3 34.85 482.3 21.2
Q 482.3 16.75 484.15 14.15 485.95 11.55 488.7 11.55 490.8 11.55 491.9 12.4
M 521 21.35
Q 521 14.85 517.65 11.15 514.3 7.45 508.35 7.45 502.1 7.45 498.4 11.25 494.75 15.05 494.75 21.8 494.75 28 498.3 31.75 501.8 35.5 507.7 35.5 513.8 35.5 517.4 31.65 521 27.75 521 21.35
M 508.05 11.05
Q 512.15 11.05 514.4 13.8 516.6 16.5 516.6 21.5 516.6 26.5 514.4 29.2 512.15 31.85 508.05 31.85 503.95 31.85 501.55 29.15 499.1 26.4 499.1 21.6 499.1 16.7 501.5 13.9 503.9 11.05 508.05 11.05
M 536.4 7.45
Q 534.45 7.45 532.65 7.95 530.8 8.45 529.35 9.45 527.95 10.4 527.05 11.85 526.2 13.3 526.2 15.2 526.2 16.75 526.7 17.9 527.1 19.05 528.05 19.95 528.9 20.85 530.25 21.55 531.6 22.3 533.35 23 534.65 23.5 535.75 23.95 536.85 24.4 537.7 24.95 538.5 25.55 539 26.3 539.45 27.05 539.45 28.1 539.45 31.85 533.85 31.85 529.65 31.85 526.15 29.3
L 526.15 33.9
Q 529.2 35.5 533.3 35.5 535.35 35.5 537.25 35 539.2 34.55 540.65 33.55 542.1 32.6 543 31.15 543.85 29.65 543.85 27.7 543.85 26.05 543.3 24.9 542.75 23.7 541.8 22.85 540.8 21.9 539.4 21.2 538 20.45 536.2 19.8 534.9 19.25 533.85 18.85 532.8 18.4 532.05 17.85 531.35 17.3 530.95 16.6 530.6 15.85 530.6 14.85 530.6 14 530.95 13.3 531.35 12.6 532.05 12.1 532.7 11.6 533.7 11.35 534.65 11.05 535.85 11.05 539.65 11.05 542.6 13
L 542.6 8.65
Q 539.9 7.45 536.4 7.45
M 189.7 -3.45
Q 188.9 -2.7 188.9 -1.5 188.9 -0.3 189.7 0.5 190.5 1.3 191.65 1.3 192.85 1.3 193.65 0.5 194.45 -0.35 194.45 -1.5 194.45 -2.7 193.65 -3.45 192.85 -4.3 191.65 -4.3 190.5 -4.3 189.7 -3.45
M 135.3 -4.8
L 131 -4.8 131 34.85 135.3 34.85 135.3 31 135.4 31
Q 138.1 35.5 143.4 35.5 149.05 35.5 152.3 31.45 155.55 27.4 155.55 20.7 155.55 14.65 152.65 11.05 149.75 7.45 144.6 7.45 138.55 7.45 135.4 12.8
L 135.3 12.8 135.3 -4.8
M 143.55 11.05
Q 147.05 11.05 149.1 13.6 151.15 16.15 151.15 20.6 151.15 25.9 149 28.9 146.75 31.85 142.9 31.85 139.6 31.85 137.45 29.55 135.3 27.25 135.3 23.9
L 135.3 20.2
Q 135.3 16.25 137.55 13.7 139.8 11.05 143.55 11.05
M 80 -2.65
L 54.1 -2.65 54.1 1.35 64.85 1.35 64.85 34.85 69.25 34.85 69.25 1.35 80 1.35 80 -2.65 Z"/>
</g>

<g id="Layer0_0_MEMBER_0_FILL">
<path fill="#71BDBD" stroke="none" d="
M 338.55 -121
Q 349.75 -103.9 351 -101.15 367.55 -105.15 372.8 -112.45 377 -118.3 373.8 -125.5 369.4 -132.95 361.8 -145 357.9 -151.1 355 -155.65
L 327.6 -137.45
Q 332.9 -129.5 338.55 -121
M 323.75 -112.75
L 306.95 -81.6 327.2 -51.3 326.15 -65.05 334.3 -65.55
Q 343.05 -66.2 346.1 -67.05 349.1 -68.35 350.4 -69.55 351.7 -70.9 353.35 -74.35 355.9 -79.85 358.1 -84.55 362.35 -93.6 367.55 -103.7 355.3 -98.25 339.95 -97.75 335.15 -97.6 329.95 -98 325.45 -98.35 324.7 -98.35 324.5 -100.2 324.1 -106.65
L 323.75 -112.75
M 295.05 -64.1
L 296.65 -97.1
Q 287 -97.4 276.9 -97.9 256.55 -98.85 253.6 -99.4 247.05 -83.7 249.85 -75.1 252.15 -68.3 259.8 -66.65 268.35 -65.75 282.6 -64.85 289.7 -64.4 295.05 -64.1
M 278.9 -114.75
L 263.8 -146.65 227.5 -148.15 239.2 -140.9 234.8 -134
Q 230.1 -126.5 229.05 -123.55 228.35 -120.35 228.55 -118.6 228.8 -116.65 230.6 -113.3 233.6 -108 236.05 -103.45 240.85 -94.7 245.95 -84.55 248.7 -97.65 257.4 -110.45 260.05 -114.45 263.45 -118.5 266.4 -121.9 266.8 -122.45 268.4 -121.5 273.8 -118
L 278.9 -114.75
M 289.5 -161.5
Q 299.95 -179.05 301.85 -181.4 291.2 -194.6 282.25 -196.2 275.3 -197.45 270.1 -191.5 265.35 -184.3 257.85 -172.15 254.05 -166.05 251.25 -161.5
L 279.35 -144.5
Q 284.25 -152.75 289.5 -161.5
M 292.45 -195.25
Q 302.65 -186.55 309.7 -172.8 311.95 -168.55 313.85 -163.65 315.45 -159.45 315.75 -158.75 314.2 -157.8 308.6 -154.7
L 303.2 -151.75 338.4 -149.9 356.9 -181.3 345 -174.4 341.15 -181.65
Q 336.7 -189.25 334.7 -191.65 332.15 -193.85 330.5 -194.45 328.75 -195.1 324.95 -195.1 318.85 -195 313.65 -194.9 303.8 -194.85 292.45 -195.25 Z"/>
</g>
</defs>

<g transform="matrix( 1, 0, 0, 1, 7.55,274.45) ">
<use xlink:href="#Layer0_0_FILL"/>
</g>

<g transform="matrix( 1, 0, 0, 1, 7.55,274.45) ">
<use xlink:href="#Layer0_0_MEMBER_0_FILL"/>
</g>
</svg>
